<?xml version="1.0" encoding="UTF-8" standalone="no"?>
<!DOCTYPE svg PUBLIC "-//W3C//DTD SVG 1.1//EN"
 "http://www.w3.org/Graphics/SVG/1.1/DTD/svg11.dtd">
<!-- Generated by graphviz version 9.0.0 (20230911.1827)
 -->
<!-- Title: CallGraph Pages: 1 -->
<svg width="925pt" height="116pt"
 viewBox="0.00 0.00 924.53 116.00" xmlns="http://www.w3.org/2000/svg" xmlns:xlink="http://www.w3.org/1999/xlink">
<g id="graph0" class="graph" transform="scale(1 1) rotate(0) translate(4 112)">
<title>CallGraph</title>
<polygon fill="white" stroke="none" points="-4,4 -4,-112 920.53,-112 920.53,4 -4,4"/>
<!-- confirm_link -->
<g id="node1" class="node">
<title>confirm_link</title>
<ellipse fill="none" stroke="black" cx="67.49" cy="-90" rx="57.55" ry="18"/>
<text text-anchor="middle" x="67.49" y="-84.58" font-family="Times New Roman,serif" font-size="14.00">confirm_link</text>
</g>
<!-- send_link -->
<g id="node2" class="node">
<title>send_link</title>
<ellipse fill="none" stroke="black" cx="189.49" cy="-90" rx="46.07" ry="18"/>
<text text-anchor="middle" x="189.49" y="-84.58" font-family="Times New Roman,serif" font-size="14.00">send_link</text>
</g>
<!-- find_or_initialize_by -->
<g id="node3" class="node">
<title>find_or_initialize_by</title>
<ellipse fill="none" stroke="black" cx="86.49" cy="-18" rx="86.49" ry="18"/>
<text text-anchor="middle" x="86.49" y="-12.57" font-family="Times New Roman,serif" font-size="14.00">find_or_initialize_by</text>
</g>
<!-- send_link&#45;&gt;find_or_initialize_by -->
<g id="edge1" class="edge">
<title>send_link&#45;&gt;find_or_initialize_by</title>
<path fill="none" stroke="black" d="M167.14,-73.81C153.42,-64.49 135.59,-52.37 120.18,-41.9"/>
<polygon fill="black" stroke="black" points="122.45,-39.2 112.21,-36.48 118.51,-44.99 122.45,-39.2"/>
</g>
<!-- send_emergency_access -->
<g id="node4" class="node">
<title>send_emergency_access</title>
<ellipse fill="none" stroke="black" cx="293.49" cy="-18" rx="102.96" ry="18"/>
<text text-anchor="middle" x="293.49" y="-12.57" font-family="Times New Roman,serif" font-size="14.00">send_emergency_access</text>
</g>
<!-- send_link&#45;&gt;send_emergency_access -->
<g id="edge2" class="edge">
<title>send_link&#45;&gt;send_emergency_access</title>
<path fill="none" stroke="black" d="M211.8,-73.98C225.64,-64.67 243.7,-52.51 259.32,-42"/>
<polygon fill="black" stroke="black" points="261.07,-45.04 267.41,-36.55 257.16,-39.23 261.07,-45.04"/>
</g>
<!-- create -->
<g id="node5" class="node">
<title>create</title>
<ellipse fill="none" stroke="black" cx="524.49" cy="-90" rx="32.6" ry="18"/>
<text text-anchor="middle" x="524.49" y="-84.58" font-family="Times New Roman,serif" font-size="14.00">create</text>
</g>
<!-- find_by_emergency_token -->
<g id="node6" class="node">
<title>find_by_emergency_token</title>
<ellipse fill="none" stroke="black" cx="524.49" cy="-18" rx="109.95" ry="18"/>
<text text-anchor="middle" x="524.49" y="-12.57" font-family="Times New Roman,serif" font-size="14.00">find_by_emergency_token</text>
</g>
<!-- create&#45;&gt;find_by_emergency_token -->
<g id="edge3" class="edge">
<title>create&#45;&gt;find_by_emergency_token</title>
<path fill="none" stroke="black" d="M524.49,-71.7C524.49,-64.41 524.49,-55.73 524.49,-47.54"/>
<polygon fill="black" stroke="black" points="527.99,-47.62 524.49,-37.62 520.99,-47.62 527.99,-47.62"/>
</g>
<!-- after_sign_in_path_for -->
<g id="node7" class="node">
<title>after_sign_in_path_for</title>
<ellipse fill="none" stroke="black" cx="670.49" cy="-90" rx="95.47" ry="18"/>
<text text-anchor="middle" x="670.49" y="-84.58" font-family="Times New Roman,serif" font-size="14.00">after_sign_in_path_for</text>
</g>
<!-- check_policies -->
<g id="node8" class="node">
<title>check_policies</title>
<ellipse fill="none" stroke="black" cx="850.49" cy="-90" rx="66.03" ry="18"/>
<text text-anchor="middle" x="850.49" y="-84.58" font-family="Times New Roman,serif" font-size="14.00">check_policies</text>
</g>
</g>
</svg>
