<?xml version="1.0" encoding="UTF-8" standalone="no"?>
<!DOCTYPE svg PUBLIC "-//W3C//DTD SVG 1.1//EN"
 "http://www.w3.org/Graphics/SVG/1.1/DTD/svg11.dtd">
<!-- Generated by graphviz version 9.0.0 (20230911.1827)
 -->
<!-- Title: CallGraph Pages: 1 -->
<svg width="1106pt" height="116pt"
 viewBox="0.00 0.00 1106.02 116.00" xmlns="http://www.w3.org/2000/svg" xmlns:xlink="http://www.w3.org/1999/xlink">
<g id="graph0" class="graph" transform="scale(1 1) rotate(0) translate(4 112)">
<title>CallGraph</title>
<polygon fill="white" stroke="none" points="-4,4 -4,-112 1102.02,-112 1102.02,4 -4,4"/>
<!-- ldap -->
<g id="node1" class="node">
<title>ldap</title>
<ellipse fill="none" stroke="black" cx="254.5" cy="-90" rx="27" ry="18"/>
<text text-anchor="middle" x="254.5" y="-84.58" font-family="Times New Roman,serif" font-size="14.00">ldap</text>
</g>
<!-- process_auth_hash -->
<g id="node2" class="node">
<title>process_auth_hash</title>
<ellipse fill="none" stroke="black" cx="82.5" cy="-18" rx="82.5" ry="18"/>
<text text-anchor="middle" x="82.5" y="-12.57" font-family="Times New Roman,serif" font-size="14.00">process_auth_hash</text>
</g>
<!-- ldap&#45;&gt;process_auth_hash -->
<g id="edge1" class="edge">
<title>ldap&#45;&gt;process_auth_hash</title>
<path fill="none" stroke="black" d="M231.66,-79.7C206.02,-69.27 163.67,-52.04 130.64,-38.59"/>
<polygon fill="black" stroke="black" points="132.26,-35.47 121.68,-34.94 129.62,-41.96 132.26,-35.47"/>
</g>
<!-- log_ldap_details -->
<g id="node3" class="node">
<title>log_ldap_details</title>
<ellipse fill="none" stroke="black" cx="254.5" cy="-18" rx="71.52" ry="18"/>
<text text-anchor="middle" x="254.5" y="-12.57" font-family="Times New Roman,serif" font-size="14.00">log_ldap_details</text>
</g>
<!-- ldap&#45;&gt;log_ldap_details -->
<g id="edge2" class="edge">
<title>ldap&#45;&gt;log_ldap_details</title>
<path fill="none" stroke="black" d="M254.5,-71.7C254.5,-64.41 254.5,-55.73 254.5,-47.54"/>
<polygon fill="black" stroke="black" points="258,-47.62 254.5,-37.62 251,-47.62 258,-47.62"/>
</g>
<!-- save_preferred_server -->
<g id="node4" class="node">
<title>save_preferred_server</title>
<ellipse fill="none" stroke="black" cx="437.5" cy="-18" rx="93.48" ry="18"/>
<text text-anchor="middle" x="437.5" y="-12.57" font-family="Times New Roman,serif" font-size="14.00">save_preferred_server</text>
</g>
<!-- ldap&#45;&gt;save_preferred_server -->
<g id="edge3" class="edge">
<title>ldap&#45;&gt;save_preferred_server</title>
<path fill="none" stroke="black" d="M275.67,-78.59C280.51,-76.33 285.65,-74.01 290.5,-72 320.14,-59.69 353.78,-47.44 381.39,-37.82"/>
<polygon fill="black" stroke="black" points="382.3,-41.21 390.61,-34.63 380.01,-34.59 382.3,-41.21"/>
</g>
<!-- after_sign_in_path_for -->
<g id="node5" class="node">
<title>after_sign_in_path_for</title>
<ellipse fill="none" stroke="black" cx="394.5" cy="-90" rx="95.47" ry="18"/>
<text text-anchor="middle" x="394.5" y="-84.58" font-family="Times New Roman,serif" font-size="14.00">after_sign_in_path_for</text>
</g>
<!-- failure_message -->
<g id="node6" class="node">
<title>failure_message</title>
<ellipse fill="none" stroke="black" cx="577.5" cy="-90" rx="69.53" ry="18"/>
<text text-anchor="middle" x="577.5" y="-84.58" font-family="Times New Roman,serif" font-size="14.00">failure_message</text>
</g>
<!-- ldap_settings -->
<g id="node7" class="node">
<title>ldap_settings</title>
<ellipse fill="none" stroke="black" cx="724.5" cy="-90" rx="59.55" ry="18"/>
<text text-anchor="middle" x="724.5" y="-84.58" font-family="Times New Roman,serif" font-size="14.00">ldap_settings</text>
</g>
<!-- check_policies -->
<g id="node8" class="node">
<title>check_policies</title>
<ellipse fill="none" stroke="black" cx="868.5" cy="-90" rx="66.03" ry="18"/>
<text text-anchor="middle" x="868.5" y="-84.58" font-family="Times New Roman,serif" font-size="14.00">check_policies</text>
</g>
<!-- filter_passwords -->
<g id="node9" class="node">
<title>filter_passwords</title>
<ellipse fill="none" stroke="black" cx="1025.5" cy="-90" rx="72.52" ry="18"/>
<text text-anchor="middle" x="1025.5" y="-84.58" font-family="Times New Roman,serif" font-size="14.00">filter_passwords</text>
</g>
</g>
</svg>
