<?xml version="1.0" encoding="UTF-8" standalone="no"?>
<!DOCTYPE svg PUBLIC "-//W3C//DTD SVG 1.1//EN"
 "http://www.w3.org/Graphics/SVG/1.1/DTD/svg11.dtd">
<!-- Generated by graphviz version 9.0.0 (20230911.1827)
 -->
<!-- Title: CallGraph Pages: 1 -->
<svg width="1151pt" height="188pt"
 viewBox="0.00 0.00 1150.98 188.00" xmlns="http://www.w3.org/2000/svg" xmlns:xlink="http://www.w3.org/1999/xlink">
<g id="graph0" class="graph" transform="scale(1 1) rotate(0) translate(4 184)">
<title>CallGraph</title>
<polygon fill="white" stroke="none" points="-4,4 -4,-184 1146.98,-184 1146.98,4 -4,4"/>
<!-- ldap -->
<g id="node1" class="node">
<title>ldap</title>
<ellipse fill="none" stroke="black" cx="254.5" cy="-162" rx="27" ry="18"/>
<text text-anchor="middle" x="254.5" y="-156.57" font-family="Times New Roman,serif" font-size="14.00">ldap</text>
</g>
<!-- process_auth_hash -->
<g id="node2" class="node">
<title>process_auth_hash</title>
<ellipse fill="none" stroke="black" cx="82.5" cy="-90" rx="82.5" ry="18"/>
<text text-anchor="middle" x="82.5" y="-84.58" font-family="Times New Roman,serif" font-size="14.00">process_auth_hash</text>
</g>
<!-- ldap&#45;&gt;process_auth_hash -->
<g id="edge1" class="edge">
<title>ldap&#45;&gt;process_auth_hash</title>
<path fill="none" stroke="black" d="M231.66,-151.7C206.02,-141.27 163.67,-124.04 130.64,-110.59"/>
<polygon fill="black" stroke="black" points="132.26,-107.47 121.68,-106.94 129.62,-113.96 132.26,-107.47"/>
</g>
<!-- log_ldap_details -->
<g id="node3" class="node">
<title>log_ldap_details</title>
<ellipse fill="none" stroke="black" cx="254.5" cy="-90" rx="71.52" ry="18"/>
<text text-anchor="middle" x="254.5" y="-84.58" font-family="Times New Roman,serif" font-size="14.00">log_ldap_details</text>
</g>
<!-- ldap&#45;&gt;log_ldap_details -->
<g id="edge2" class="edge">
<title>ldap&#45;&gt;log_ldap_details</title>
<path fill="none" stroke="black" d="M254.5,-143.7C254.5,-136.41 254.5,-127.73 254.5,-119.54"/>
<polygon fill="black" stroke="black" points="258,-119.62 254.5,-109.62 251,-119.62 258,-119.62"/>
</g>
<!-- t -->
<g id="node4" class="node">
<title>t</title>
<ellipse fill="none" stroke="black" cx="371.5" cy="-90" rx="27" ry="18"/>
<text text-anchor="middle" x="371.5" y="-84.58" font-family="Times New Roman,serif" font-size="14.00">t</text>
</g>
<!-- ldap&#45;&gt;t -->
<g id="edge3" class="edge">
<title>ldap&#45;&gt;t</title>
<path fill="none" stroke="black" d="M274.08,-149.28C292.64,-138.18 320.77,-121.35 342.04,-108.63"/>
<polygon fill="black" stroke="black" points="343.77,-111.67 350.55,-103.53 340.18,-105.66 343.77,-111.67"/>
</g>
<!-- new -->
<g id="node9" class="node">
<title>new</title>
<ellipse fill="none" stroke="black" cx="82.5" cy="-18" rx="27" ry="18"/>
<text text-anchor="middle" x="82.5" y="-12.57" font-family="Times New Roman,serif" font-size="14.00">new</text>
</g>
<!-- process_auth_hash&#45;&gt;new -->
<g id="edge6" class="edge">
<title>process_auth_hash&#45;&gt;new</title>
<path fill="none" stroke="black" d="M82.5,-71.7C82.5,-64.41 82.5,-55.73 82.5,-47.54"/>
<polygon fill="black" stroke="black" points="86,-47.62 82.5,-37.62 79,-47.62 86,-47.62"/>
</g>
<!-- filter_passwords -->
<g id="node10" class="node">
<title>filter_passwords</title>
<ellipse fill="none" stroke="black" cx="254.5" cy="-18" rx="72.52" ry="18"/>
<text text-anchor="middle" x="254.5" y="-12.57" font-family="Times New Roman,serif" font-size="14.00">filter_passwords</text>
</g>
<!-- log_ldap_details&#45;&gt;filter_passwords -->
<g id="edge7" class="edge">
<title>log_ldap_details&#45;&gt;filter_passwords</title>
<path fill="none" stroke="black" d="M254.5,-71.7C254.5,-64.41 254.5,-55.73 254.5,-47.54"/>
<polygon fill="black" stroke="black" points="258,-47.62 254.5,-37.62 251,-47.62 258,-47.62"/>
</g>
<!-- after_sign_in_path_for -->
<g id="node5" class="node">
<title>after_sign_in_path_for</title>
<ellipse fill="none" stroke="black" cx="554.5" cy="-162" rx="95.47" ry="18"/>
<text text-anchor="middle" x="554.5" y="-156.57" font-family="Times New Roman,serif" font-size="14.00">after_sign_in_path_for</text>
</g>
<!-- failure_message -->
<g id="node6" class="node">
<title>failure_message</title>
<ellipse fill="none" stroke="black" cx="371.5" cy="-162" rx="69.53" ry="18"/>
<text text-anchor="middle" x="371.5" y="-156.57" font-family="Times New Roman,serif" font-size="14.00">failure_message</text>
</g>
<!-- failure_message&#45;&gt;t -->
<g id="edge4" class="edge">
<title>failure_message&#45;&gt;t</title>
<path fill="none" stroke="black" d="M371.5,-143.7C371.5,-136.41 371.5,-127.73 371.5,-119.54"/>
<polygon fill="black" stroke="black" points="375,-119.62 371.5,-109.62 368,-119.62 375,-119.62"/>
</g>
<!-- ldap_settings -->
<g id="node7" class="node">
<title>ldap_settings</title>
<ellipse fill="none" stroke="black" cx="727.5" cy="-162" rx="59.55" ry="18"/>
<text text-anchor="middle" x="727.5" y="-156.57" font-family="Times New Roman,serif" font-size="14.00">ldap_settings</text>
</g>
<!-- find -->
<g id="node8" class="node">
<title>find</title>
<ellipse fill="none" stroke="black" cx="727.5" cy="-90" rx="27" ry="18"/>
<text text-anchor="middle" x="727.5" y="-84.58" font-family="Times New Roman,serif" font-size="14.00">find</text>
</g>
<!-- ldap_settings&#45;&gt;find -->
<g id="edge5" class="edge">
<title>ldap_settings&#45;&gt;find</title>
<path fill="none" stroke="black" d="M727.5,-143.7C727.5,-136.41 727.5,-127.73 727.5,-119.54"/>
<polygon fill="black" stroke="black" points="731,-119.62 727.5,-109.62 724,-119.62 731,-119.62"/>
</g>
<!-- check_policies -->
<g id="node11" class="node">
<title>check_policies</title>
<ellipse fill="none" stroke="black" cx="871.5" cy="-162" rx="66.03" ry="18"/>
<text text-anchor="middle" x="871.5" y="-156.57" font-family="Times New Roman,serif" font-size="14.00">check_policies</text>
</g>
<!-- save_preferred_server -->
<g id="node12" class="node">
<title>save_preferred_server</title>
<ellipse fill="none" stroke="black" cx="1049.5" cy="-162" rx="93.48" ry="18"/>
<text text-anchor="middle" x="1049.5" y="-156.57" font-family="Times New Roman,serif" font-size="14.00">save_preferred_server</text>
</g>
</g>
</svg>
