<?xml version="1.0" encoding="UTF-8" standalone="no"?>
<!DOCTYPE svg PUBLIC "-//W3C//DTD SVG 1.1//EN"
 "http://www.w3.org/Graphics/SVG/1.1/DTD/svg11.dtd">
<!-- Generated by graphviz version 9.0.0 (20230911.1827)
 -->
<!-- Title: CallGraph Pages: 1 -->
<svg width="795pt" height="188pt"
 viewBox="0.00 0.00 795.03 188.00" xmlns="http://www.w3.org/2000/svg" xmlns:xlink="http://www.w3.org/1999/xlink">
<g id="graph0" class="graph" transform="scale(1 1) rotate(0) translate(4 184)">
<title>CallGraph</title>
<polygon fill="white" stroke="none" points="-4,4 -4,-184 791.03,-184 791.03,4 -4,4"/>
<!-- new -->
<g id="node1" class="node">
<title>new</title>
<ellipse fill="none" stroke="black" cx="27" cy="-162" rx="27" ry="18"/>
<text text-anchor="middle" x="27" y="-156.57" font-family="Times New Roman,serif" font-size="14.00">new</text>
</g>
<!-- confirm_sign_in -->
<g id="node2" class="node">
<title>confirm_sign_in</title>
<ellipse fill="none" stroke="black" cx="143" cy="-162" rx="71.02" ry="18"/>
<text text-anchor="middle" x="143" y="-156.57" font-family="Times New Roman,serif" font-size="14.00">confirm_sign_in</text>
</g>
<!-- create -->
<g id="node3" class="node">
<title>create</title>
<ellipse fill="none" stroke="black" cx="265" cy="-162" rx="32.6" ry="18"/>
<text text-anchor="middle" x="265" y="-156.57" font-family="Times New Roman,serif" font-size="14.00">create</text>
</g>
<!-- sign_in_user_with_saml -->
<g id="node4" class="node">
<title>sign_in_user_with_saml</title>
<ellipse fill="none" stroke="black" cx="265" cy="-90" rx="99.97" ry="18"/>
<text text-anchor="middle" x="265" y="-84.58" font-family="Times New Roman,serif" font-size="14.00">sign_in_user_with_saml</text>
</g>
<!-- create&#45;&gt;sign_in_user_with_saml -->
<g id="edge1" class="edge">
<title>create&#45;&gt;sign_in_user_with_saml</title>
<path fill="none" stroke="black" d="M265,-143.7C265,-136.41 265,-127.73 265,-119.54"/>
<polygon fill="black" stroke="black" points="268.5,-119.62 265,-109.62 261.5,-119.62 268.5,-119.62"/>
</g>
<!-- log_sso_details -->
<g id="node6" class="node">
<title>log_sso_details</title>
<ellipse fill="none" stroke="black" cx="183" cy="-18" rx="68.53" ry="18"/>
<text text-anchor="middle" x="183" y="-12.57" font-family="Times New Roman,serif" font-size="14.00">log_sso_details</text>
</g>
<!-- sign_in_user_with_saml&#45;&gt;log_sso_details -->
<g id="edge2" class="edge">
<title>sign_in_user_with_saml&#45;&gt;log_sso_details</title>
<path fill="none" stroke="black" d="M245.15,-72.05C234.9,-63.31 222.23,-52.49 211,-42.9"/>
<polygon fill="black" stroke="black" points="213.41,-40.36 203.54,-36.53 208.87,-45.68 213.41,-40.36"/>
</g>
<!-- process_response -->
<g id="node7" class="node">
<title>process_response</title>
<ellipse fill="none" stroke="black" cx="348" cy="-18" rx="78.51" ry="18"/>
<text text-anchor="middle" x="348" y="-12.57" font-family="Times New Roman,serif" font-size="14.00">process_response</text>
</g>
<!-- sign_in_user_with_saml&#45;&gt;process_response -->
<g id="edge3" class="edge">
<title>sign_in_user_with_saml&#45;&gt;process_response</title>
<path fill="none" stroke="black" d="M285.09,-72.05C295.39,-63.37 308.11,-52.64 319.41,-43.11"/>
<polygon fill="black" stroke="black" points="321.55,-45.89 326.94,-36.76 317.04,-40.54 321.55,-45.89"/>
</g>
<!-- after_sign_in_path_for -->
<g id="node5" class="node">
<title>after_sign_in_path_for</title>
<ellipse fill="none" stroke="black" cx="411" cy="-162" rx="95.47" ry="18"/>
<text text-anchor="middle" x="411" y="-156.57" font-family="Times New Roman,serif" font-size="14.00">after_sign_in_path_for</text>
</g>
<!-- saml_config -->
<g id="node8" class="node">
<title>saml_config</title>
<ellipse fill="none" stroke="black" cx="581" cy="-162" rx="56.05" ry="18"/>
<text text-anchor="middle" x="581" y="-156.57" font-family="Times New Roman,serif" font-size="14.00">saml_config</text>
</g>
<!-- check_policies -->
<g id="node9" class="node">
<title>check_policies</title>
<ellipse fill="none" stroke="black" cx="721" cy="-162" rx="66.03" ry="18"/>
<text text-anchor="middle" x="721" y="-156.57" font-family="Times New Roman,serif" font-size="14.00">check_policies</text>
</g>
</g>
</svg>
