<?xml version="1.0" encoding="UTF-8" standalone="no"?>
<!DOCTYPE svg PUBLIC "-//W3C//DTD SVG 1.1//EN"
 "http://www.w3.org/Graphics/SVG/1.1/DTD/svg11.dtd">
<!-- Generated by graphviz version 9.0.0 (20230911.1827)
 -->
<!-- Title: CallGraph Pages: 1 -->
<svg width="835pt" height="332pt"
 viewBox="0.00 0.00 834.56 332.00" xmlns="http://www.w3.org/2000/svg" xmlns:xlink="http://www.w3.org/1999/xlink">
<g id="graph0" class="graph" transform="scale(1 1) rotate(0) translate(4 328)">
<title>CallGraph</title>
<polygon fill="white" stroke="none" points="-4,4 -4,-328 830.56,-328 830.56,4 -4,4"/>
<!-- new -->
<g id="node1" class="node">
<title>new</title>
<ellipse fill="none" stroke="black" cx="215.53" cy="-234" rx="27" ry="18"/>
<text text-anchor="middle" x="215.53" y="-228.57" font-family="Times New Roman,serif" font-size="14.00">new</text>
</g>
<!-- create -->
<g id="node2" class="node">
<title>create</title>
<ellipse fill="none" stroke="black" cx="215.53" cy="-162" rx="32.6" ry="18"/>
<text text-anchor="middle" x="215.53" y="-156.57" font-family="Times New Roman,serif" font-size="14.00">create</text>
</g>
<!-- new&#45;&gt;create -->
<g id="edge1" class="edge">
<title>new&#45;&gt;create</title>
<path fill="none" stroke="black" d="M209.65,-216.05C208.86,-208.57 208.61,-199.58 208.9,-191.14"/>
<polygon fill="black" stroke="black" points="212.38,-191.51 209.56,-181.3 205.39,-191.04 212.38,-191.51"/>
</g>
<!-- create&#45;&gt;new -->
<g id="edge2" class="edge">
<title>create&#45;&gt;new</title>
<path fill="none" stroke="black" d="M221.39,-179.79C222.19,-187.25 222.45,-196.24 222.17,-204.69"/>
<polygon fill="black" stroke="black" points="218.68,-204.33 221.51,-214.54 225.67,-204.8 218.68,-204.33"/>
</g>
<!-- sign_in_user_with_saml -->
<g id="node4" class="node">
<title>sign_in_user_with_saml</title>
<ellipse fill="none" stroke="black" cx="181.53" cy="-90" rx="99.97" ry="18"/>
<text text-anchor="middle" x="181.53" y="-84.58" font-family="Times New Roman,serif" font-size="14.00">sign_in_user_with_saml</text>
</g>
<!-- create&#45;&gt;sign_in_user_with_saml -->
<g id="edge3" class="edge">
<title>create&#45;&gt;sign_in_user_with_saml</title>
<path fill="none" stroke="black" d="M207.47,-144.41C203.67,-136.59 199.04,-127.06 194.75,-118.23"/>
<polygon fill="black" stroke="black" points="197.94,-116.78 190.43,-109.32 191.65,-119.84 197.94,-116.78"/>
</g>
<!-- confirm_sign_in -->
<g id="node3" class="node">
<title>confirm_sign_in</title>
<ellipse fill="none" stroke="black" cx="396.53" cy="-306" rx="71.02" ry="18"/>
<text text-anchor="middle" x="396.53" y="-300.57" font-family="Times New Roman,serif" font-size="14.00">confirm_sign_in</text>
</g>
<!-- log_sso_details -->
<g id="node6" class="node">
<title>log_sso_details</title>
<ellipse fill="none" stroke="black" cx="68.53" cy="-18" rx="68.53" ry="18"/>
<text text-anchor="middle" x="68.53" y="-12.57" font-family="Times New Roman,serif" font-size="14.00">log_sso_details</text>
</g>
<!-- sign_in_user_with_saml&#45;&gt;log_sso_details -->
<g id="edge4" class="edge">
<title>sign_in_user_with_saml&#45;&gt;log_sso_details</title>
<path fill="none" stroke="black" d="M154.46,-72.23C139.32,-62.85 120.27,-51.05 103.96,-40.95"/>
<polygon fill="black" stroke="black" points="105.84,-38 95.5,-35.71 102.15,-43.95 105.84,-38"/>
</g>
<!-- process_response -->
<g id="node7" class="node">
<title>process_response</title>
<ellipse fill="none" stroke="black" cx="308.53" cy="-18" rx="78.51" ry="18"/>
<text text-anchor="middle" x="308.53" y="-12.57" font-family="Times New Roman,serif" font-size="14.00">process_response</text>
</g>
<!-- sign_in_user_with_saml&#45;&gt;process_response -->
<g id="edge5" class="edge">
<title>sign_in_user_with_saml&#45;&gt;process_response</title>
<path fill="none" stroke="black" d="M211.63,-72.41C228.96,-62.86 250.92,-50.75 269.56,-40.48"/>
<polygon fill="black" stroke="black" points="271.13,-43.61 278.2,-35.72 267.75,-37.48 271.13,-43.61"/>
</g>
<!-- t -->
<g id="node8" class="node">
<title>t</title>
<ellipse fill="none" stroke="black" cx="182.53" cy="-18" rx="27" ry="18"/>
<text text-anchor="middle" x="182.53" y="-12.57" font-family="Times New Roman,serif" font-size="14.00">t</text>
</g>
<!-- sign_in_user_with_saml&#45;&gt;t -->
<g id="edge6" class="edge">
<title>sign_in_user_with_saml&#45;&gt;t</title>
<path fill="none" stroke="black" d="M181.78,-71.7C181.88,-64.41 182,-55.73 182.12,-47.54"/>
<polygon fill="black" stroke="black" points="185.62,-47.67 182.26,-37.62 178.62,-47.57 185.62,-47.67"/>
</g>
<!-- after_sign_in_path_for -->
<g id="node5" class="node">
<title>after_sign_in_path_for</title>
<ellipse fill="none" stroke="black" cx="580.53" cy="-306" rx="95.47" ry="18"/>
<text text-anchor="middle" x="580.53" y="-300.57" font-family="Times New Roman,serif" font-size="14.00">after_sign_in_path_for</text>
</g>
<!-- process_response&#45;&gt;new -->
<g id="edge7" class="edge">
<title>process_response&#45;&gt;new</title>
<path fill="none" stroke="black" d="M306.23,-36.36C303.54,-54.53 298.43,-83.72 290.53,-108 279.63,-141.47 275.93,-149.99 257.53,-180 251.34,-190.1 243.5,-200.48 236.27,-209.34"/>
<polygon fill="black" stroke="black" points="233.77,-206.88 230.03,-216.79 239.14,-211.37 233.77,-206.88"/>
</g>
<!-- saml_config -->
<g id="node9" class="node">
<title>saml_config</title>
<ellipse fill="none" stroke="black" cx="251.53" cy="-306" rx="56.05" ry="18"/>
<text text-anchor="middle" x="251.53" y="-300.57" font-family="Times New Roman,serif" font-size="14.00">saml_config</text>
</g>
<!-- saml_config&#45;&gt;new -->
<g id="edge8" class="edge">
<title>saml_config&#45;&gt;new</title>
<path fill="none" stroke="black" d="M242.81,-288.05C238.69,-280.03 233.66,-270.26 229.05,-261.3"/>
<polygon fill="black" stroke="black" points="232.29,-259.95 224.61,-252.65 226.07,-263.15 232.29,-259.95"/>
</g>
<!-- join -->
<g id="node10" class="node">
<title>join</title>
<ellipse fill="none" stroke="black" cx="287.53" cy="-234" rx="27" ry="18"/>
<text text-anchor="middle" x="287.53" y="-228.57" font-family="Times New Roman,serif" font-size="14.00">join</text>
</g>
<!-- saml_config&#45;&gt;join -->
<g id="edge9" class="edge">
<title>saml_config&#45;&gt;join</title>
<path fill="none" stroke="black" d="M260.24,-288.05C264.37,-280.03 269.4,-270.26 274,-261.3"/>
<polygon fill="black" stroke="black" points="276.99,-263.15 278.45,-252.65 270.76,-259.95 276.99,-263.15"/>
</g>
<!-- check_policies -->
<g id="node11" class="node">
<title>check_policies</title>
<ellipse fill="none" stroke="black" cx="760.53" cy="-306" rx="66.03" ry="18"/>
<text text-anchor="middle" x="760.53" y="-300.57" font-family="Times New Roman,serif" font-size="14.00">check_policies</text>
</g>
</g>
</svg>
