<?xml version="1.0" encoding="UTF-8" standalone="no"?>
<!DOCTYPE svg PUBLIC "-//W3C//DTD SVG 1.1//EN"
 "http://www.w3.org/Graphics/SVG/1.1/DTD/svg11.dtd">
<!-- Generated by graphviz version 9.0.0 (20230911.1827)
 -->
<!-- Title: CallGraph Pages: 1 -->
<svg width="3732pt" height="4436pt"
 viewBox="0.00 0.00 3731.55 4436.00" xmlns="http://www.w3.org/2000/svg" xmlns:xlink="http://www.w3.org/1999/xlink">
<g id="graph0" class="graph" transform="scale(1 1) rotate(0) translate(4 4432)">
<title>CallGraph</title>
<polygon fill="white" stroke="none" points="-4,4 -4,-4432 3727.55,-4432 3727.55,4 -4,4"/>
<!-- confirm_link -->
<g id="node1" class="node">
<title>confirm_link</title>
<ellipse fill="none" stroke="black" cx="621.5" cy="-4410" rx="57.55" ry="18"/>
<text text-anchor="middle" x="621.5" y="-4404.57" font-family="Times New Roman,serif" font-size="14.00">confirm_link</text>
</g>
<!-- create -->
<g id="node2" class="node">
<title>create</title>
<ellipse fill="none" stroke="black" cx="927.5" cy="-4410" rx="32.6" ry="18"/>
<text text-anchor="middle" x="927.5" y="-4404.57" font-family="Times New Roman,serif" font-size="14.00">create</text>
</g>
<!-- ldap -->
<g id="node3" class="node">
<title>ldap</title>
<ellipse fill="none" stroke="black" cx="643.5" cy="-2214" rx="27" ry="18"/>
<text text-anchor="middle" x="643.5" y="-2208.57" font-family="Times New Roman,serif" font-size="14.00">ldap</text>
</g>
<!-- create&#45;&gt;ldap -->
<g id="edge1" class="edge">
<title>create&#45;&gt;ldap</title>
<path fill="none" stroke="black" d="M925.26,-4391.66C900.5,-4200.42 678.73,-2487.14 647.22,-2243.72"/>
<polygon fill="black" stroke="black" points="650.7,-2243.34 645.94,-2233.87 643.76,-2244.24 650.7,-2243.34"/>
</g>
<!-- sign_in_user_with_saml -->
<g id="node14" class="node">
<title>sign_in_user_with_saml</title>
<ellipse fill="none" stroke="black" cx="1211.5" cy="-2214" rx="99.97" ry="18"/>
<text text-anchor="middle" x="1211.5" y="-2208.57" font-family="Times New Roman,serif" font-size="14.00">sign_in_user_with_saml</text>
</g>
<!-- create&#45;&gt;sign_in_user_with_saml -->
<g id="edge5" class="edge">
<title>create&#45;&gt;sign_in_user_with_saml</title>
<path fill="none" stroke="black" d="M929.75,-4391.66C954.5,-4200.42 1176.27,-2487.14 1207.78,-2243.72"/>
<polygon fill="black" stroke="black" points="1211.24,-2244.24 1209.06,-2233.87 1204.3,-2243.34 1211.24,-2244.24"/>
</g>
<!-- process_auth_hash -->
<g id="node5" class="node">
<title>process_auth_hash</title>
<ellipse fill="none" stroke="black" cx="82.5" cy="-18" rx="82.5" ry="18"/>
<text text-anchor="middle" x="82.5" y="-12.57" font-family="Times New Roman,serif" font-size="14.00">process_auth_hash</text>
</g>
<!-- ldap&#45;&gt;process_auth_hash -->
<g id="edge2" class="edge">
<title>ldap&#45;&gt;process_auth_hash</title>
<path fill="none" stroke="black" d="M639.15,-2195.98C590.63,-2006.23 151.72,-289.7 89.76,-47.39"/>
<polygon fill="black" stroke="black" points="93.19,-46.68 87.32,-37.86 86.41,-48.41 93.19,-46.68"/>
</g>
<!-- log_ldap_details -->
<g id="node6" class="node">
<title>log_ldap_details</title>
<ellipse fill="none" stroke="black" cx="452.5" cy="-18" rx="71.52" ry="18"/>
<text text-anchor="middle" x="452.5" y="-12.57" font-family="Times New Roman,serif" font-size="14.00">log_ldap_details</text>
</g>
<!-- ldap&#45;&gt;log_ldap_details -->
<g id="edge3" class="edge">
<title>ldap&#45;&gt;log_ldap_details</title>
<path fill="none" stroke="black" d="M641.99,-2195.66C625.34,-2004.42 476.19,-291.14 455,-47.72"/>
<polygon fill="black" stroke="black" points="458.5,-47.54 454.14,-37.88 451.52,-48.15 458.5,-47.54"/>
</g>
<!-- save_preferred_server -->
<g id="node7" class="node">
<title>save_preferred_server</title>
<ellipse fill="none" stroke="black" cx="833.5" cy="-18" rx="93.48" ry="18"/>
<text text-anchor="middle" x="833.5" y="-12.57" font-family="Times New Roman,serif" font-size="14.00">save_preferred_server</text>
</g>
<!-- ldap&#45;&gt;save_preferred_server -->
<g id="edge4" class="edge">
<title>ldap&#45;&gt;save_preferred_server</title>
<path fill="none" stroke="black" d="M645,-2195.66C661.56,-2004.42 809.93,-291.14 831.01,-47.72"/>
<polygon fill="black" stroke="black" points="834.49,-48.14 831.87,-37.88 827.52,-47.54 834.49,-48.14"/>
</g>
<!-- after_sign_in_path_for -->
<g id="node4" class="node">
<title>after_sign_in_path_for</title>
<ellipse fill="none" stroke="black" cx="1271.5" cy="-4410" rx="95.47" ry="18"/>
<text text-anchor="middle" x="1271.5" y="-4404.57" font-family="Times New Roman,serif" font-size="14.00">after_sign_in_path_for</text>
</g>
<!-- failure_message -->
<g id="node8" class="node">
<title>failure_message</title>
<ellipse fill="none" stroke="black" cx="1652.5" cy="-4410" rx="69.53" ry="18"/>
<text text-anchor="middle" x="1652.5" y="-4404.57" font-family="Times New Roman,serif" font-size="14.00">failure_message</text>
</g>
<!-- ldap_settings -->
<g id="node9" class="node">
<title>ldap_settings</title>
<ellipse fill="none" stroke="black" cx="1997.5" cy="-4410" rx="59.55" ry="18"/>
<text text-anchor="middle" x="1997.5" y="-4404.57" font-family="Times New Roman,serif" font-size="14.00">ldap_settings</text>
</g>
<!-- check_policies -->
<g id="node10" class="node">
<title>check_policies</title>
<ellipse fill="none" stroke="black" cx="2339.5" cy="-4410" rx="66.03" ry="18"/>
<text text-anchor="middle" x="2339.5" y="-4404.57" font-family="Times New Roman,serif" font-size="14.00">check_policies</text>
</g>
<!-- filter_passwords -->
<g id="node11" class="node">
<title>filter_passwords</title>
<ellipse fill="none" stroke="black" cx="2694.5" cy="-4410" rx="72.52" ry="18"/>
<text text-anchor="middle" x="2694.5" y="-4404.57" font-family="Times New Roman,serif" font-size="14.00">filter_passwords</text>
</g>
<!-- new -->
<g id="node12" class="node">
<title>new</title>
<ellipse fill="none" stroke="black" cx="3010.5" cy="-4410" rx="27" ry="18"/>
<text text-anchor="middle" x="3010.5" y="-4404.57" font-family="Times New Roman,serif" font-size="14.00">new</text>
</g>
<!-- confirm_sign_in -->
<g id="node13" class="node">
<title>confirm_sign_in</title>
<ellipse fill="none" stroke="black" cx="3324.5" cy="-4410" rx="71.02" ry="18"/>
<text text-anchor="middle" x="3324.5" y="-4404.57" font-family="Times New Roman,serif" font-size="14.00">confirm_sign_in</text>
</g>
<!-- log_sso_details -->
<g id="node15" class="node">
<title>log_sso_details</title>
<ellipse fill="none" stroke="black" cx="1211.5" cy="-18" rx="68.53" ry="18"/>
<text text-anchor="middle" x="1211.5" y="-12.57" font-family="Times New Roman,serif" font-size="14.00">log_sso_details</text>
</g>
<!-- sign_in_user_with_saml&#45;&gt;log_sso_details -->
<g id="edge6" class="edge">
<title>sign_in_user_with_saml&#45;&gt;log_sso_details</title>
<path fill="none" stroke="black" d="M1211.5,-2195.66C1211.5,-2004.42 1211.5,-291.14 1211.5,-47.72"/>
<polygon fill="black" stroke="black" points="1215,-47.88 1211.5,-37.88 1208,-47.88 1215,-47.88"/>
</g>
<!-- process_response -->
<g id="node16" class="node">
<title>process_response</title>
<ellipse fill="none" stroke="black" cx="1574.5" cy="-18" rx="78.51" ry="18"/>
<text text-anchor="middle" x="1574.5" y="-12.57" font-family="Times New Roman,serif" font-size="14.00">process_response</text>
</g>
<!-- sign_in_user_with_saml&#45;&gt;process_response -->
<g id="edge7" class="edge">
<title>sign_in_user_with_saml&#45;&gt;process_response</title>
<path fill="none" stroke="black" d="M1214.37,-2195.66C1246.01,-2004.42 1529.47,-291.14 1569.75,-47.72"/>
<polygon fill="black" stroke="black" points="1573.2,-48.3 1571.38,-37.86 1566.29,-47.16 1573.2,-48.3"/>
</g>
<!-- saml_config -->
<g id="node17" class="node">
<title>saml_config</title>
<ellipse fill="none" stroke="black" cx="3667.5" cy="-4410" rx="56.05" ry="18"/>
<text text-anchor="middle" x="3667.5" y="-4404.57" font-family="Times New Roman,serif" font-size="14.00">saml_config</text>
</g>
</g>
</svg>
