<?xml version="1.0" encoding="UTF-8" standalone="no"?>
<!DOCTYPE svg PUBLIC "-//W3C//DTD SVG 1.1//EN"
 "http://www.w3.org/Graphics/SVG/1.1/DTD/svg11.dtd">
<!-- Generated by graphviz version 9.0.0 (20230911.1827)
 -->
<!-- Title: CallGraph Pages: 1 -->
<svg width="186pt" height="116pt"
 viewBox="0.00 0.00 186.08 116.00" xmlns="http://www.w3.org/2000/svg" xmlns:xlink="http://www.w3.org/1999/xlink">
<g id="graph0" class="graph" transform="scale(1 1) rotate(0) translate(4 112)">
<title>CallGraph</title>
<polygon fill="white" stroke="none" points="-4,4 -4,-112 182.08,-112 182.08,4 -4,4"/>
<!-- wording -->
<g id="node1" class="node">
<title>wording</title>
<ellipse fill="none" stroke="black" cx="41.08" cy="-90" rx="41.08" ry="18"/>
<text text-anchor="middle" x="41.08" y="-84.58" font-family="Times New Roman,serif" font-size="14.00">wording</text>
</g>
<!-- new -->
<g id="node2" class="node">
<title>new</title>
<ellipse fill="none" stroke="black" cx="133.08" cy="-18" rx="27" ry="18"/>
<text text-anchor="middle" x="133.08" y="-12.57" font-family="Times New Roman,serif" font-size="14.00">new</text>
</g>
<!-- new&#45;&gt;new -->
<g id="edge1" class="edge">
<title>new&#45;&gt;new</title>
<path fill="none" stroke="black" d="M152.98,-30.43C165.77,-33.68 178.08,-29.53 178.08,-18 178.08,-9.98 172.13,-5.54 164.2,-4.66"/>
<polygon fill="black" stroke="black" points="164.17,-1.15 154.49,-5.45 164.74,-8.13 164.17,-1.15"/>
</g>
<!-- create -->
<g id="node3" class="node">
<title>create</title>
<ellipse fill="none" stroke="black" cx="133.08" cy="-90" rx="32.6" ry="18"/>
<text text-anchor="middle" x="133.08" y="-84.58" font-family="Times New Roman,serif" font-size="14.00">create</text>
</g>
<!-- create&#45;&gt;new -->
<g id="edge2" class="edge">
<title>create&#45;&gt;new</title>
<path fill="none" stroke="black" d="M133.08,-71.7C133.08,-64.41 133.08,-55.73 133.08,-47.54"/>
<polygon fill="black" stroke="black" points="136.58,-47.62 133.08,-37.62 129.58,-47.62 136.58,-47.62"/>
</g>
</g>
</svg>
