<?xml version="1.0" encoding="UTF-8" standalone="no"?>
<!DOCTYPE svg PUBLIC "-//W3C//DTD SVG 1.1//EN"
 "http://www.w3.org/Graphics/SVG/1.1/DTD/svg11.dtd">
<!-- Generated by graphviz version 9.0.0 (20230911.1827)
 -->
<!-- Title: CallGraph Pages: 1 -->
<svg width="111pt" height="188pt"
 viewBox="0.00 0.00 110.69 188.00" xmlns="http://www.w3.org/2000/svg" xmlns:xlink="http://www.w3.org/1999/xlink">
<g id="graph0" class="graph" transform="scale(1 1) rotate(0) translate(4 184)">
<title>CallGraph</title>
<polygon fill="white" stroke="none" points="-4,4 -4,-184 106.69,-184 106.69,4 -4,4"/>
<!-- add -->
<g id="node1" class="node">
<title>add</title>
<ellipse fill="none" stroke="black" cx="63.1" cy="-162" rx="27" ry="18"/>
<text text-anchor="middle" x="63.1" y="-156.57" font-family="Times New Roman,serif" font-size="14.00">add</text>
</g>
<!-- divide -->
<g id="node2" class="node">
<title>divide</title>
<ellipse fill="none" stroke="black" cx="33.1" cy="-90" rx="33.1" ry="18"/>
<text text-anchor="middle" x="33.1" y="-84.58" font-family="Times New Roman,serif" font-size="14.00">divide</text>
</g>
<!-- add&#45;&gt;divide -->
<g id="edge1" class="edge">
<title>add&#45;&gt;divide</title>
<path fill="none" stroke="black" d="M55.99,-144.41C52.68,-136.68 48.64,-127.27 44.89,-118.52"/>
<polygon fill="black" stroke="black" points="48.12,-117.16 40.96,-109.35 41.69,-119.92 48.12,-117.16"/>
</g>
<!-- multiple -->
<g id="node3" class="node">
<title>multiple</title>
<ellipse fill="none" stroke="black" cx="63.1" cy="-18" rx="39.59" ry="18"/>
<text text-anchor="middle" x="63.1" y="-12.57" font-family="Times New Roman,serif" font-size="14.00">multiple</text>
</g>
<!-- add&#45;&gt;multiple -->
<g id="edge2" class="edge">
<title>add&#45;&gt;multiple</title>
<path fill="none" stroke="black" d="M67.97,-143.98C70.66,-133.67 73.74,-120.19 75.1,-108 76.88,-92.1 76.88,-87.9 75.1,-72 74.18,-63.81 72.5,-55.04 70.67,-47.04"/>
<polygon fill="black" stroke="black" points="74.11,-46.37 68.33,-37.49 67.31,-48.04 74.11,-46.37"/>
</g>
<!-- divide&#45;&gt;multiple -->
<g id="edge3" class="edge">
<title>divide&#45;&gt;multiple</title>
<path fill="none" stroke="black" d="M40.36,-72.05C43.68,-64.32 47.69,-54.96 51.41,-46.27"/>
<polygon fill="black" stroke="black" points="54.59,-47.75 55.31,-37.18 48.15,-44.99 54.59,-47.75"/>
</g>
</g>
</svg>
