<?xml version="1.0" encoding="UTF-8" standalone="no"?>
<!DOCTYPE svg PUBLIC "-//W3C//DTD SVG 1.1//EN"
 "http://www.w3.org/Graphics/SVG/1.1/DTD/svg11.dtd">
<!-- Generated by graphviz version 9.0.0 (20230911.1827)
 -->
<!-- Title: CallGraph Pages: 1 -->
<svg width="2150pt" height="3192pt"
 viewBox="0.00 0.00 2149.59 3191.95" xmlns="http://www.w3.org/2000/svg" xmlns:xlink="http://www.w3.org/1999/xlink">
<g id="graph0" class="graph" transform="scale(1 1) rotate(0) translate(4 3187.95)">
<title>CallGraph</title>
<polygon fill="white" stroke="none" points="-4,4 -4,-3187.95 2145.59,-3187.95 2145.59,4 -4,4"/>
<!-- EmergencySessionsController_create -->
<g id="node1" class="node">
<title>EmergencySessionsController_create</title>
<ellipse fill="none" stroke="black" cx="1177.34" cy="-2409.95" rx="149.37" ry="18"/>
<text text-anchor="middle" x="1177.34" y="-2404.52" font-family="Times New Roman,serif" font-size="14.00">EmergencySessionsController_create</text>
</g>
<!-- OmniauthCallbacksController_ldap -->
<g id="node2" class="node">
<title>OmniauthCallbacksController_ldap</title>
<ellipse fill="none" stroke="black" cx="1177.34" cy="-1653.95" rx="141.38" ry="18"/>
<text text-anchor="middle" x="1177.34" y="-1648.52" font-family="Times New Roman,serif" font-size="14.00">OmniauthCallbacksController_ldap</text>
</g>
<!-- EmergencySessionsController_create&#45;&gt;OmniauthCallbacksController_ldap -->
<g id="edge1" class="edge">
<title>EmergencySessionsController_create&#45;&gt;OmniauthCallbacksController_ldap</title>
<path fill="none" stroke="black" d="M1177.34,-2391.78C1177.34,-2294.08 1177.34,-1808.13 1177.34,-1683.9"/>
<polygon fill="black" stroke="black" points="1180.84,-1683.93 1177.34,-1673.93 1173.84,-1683.93 1180.84,-1683.93"/>
</g>
<!-- SamlSessionsController_sign_in_user_with_saml -->
<g id="node3" class="node">
<title>SamlSessionsController_sign_in_user_with_saml</title>
<ellipse fill="none" stroke="black" cx="547.34" cy="-897.95" rx="193.78" ry="18"/>
<text text-anchor="middle" x="547.34" y="-892.52" font-family="Times New Roman,serif" font-size="14.00">SamlSessionsController_sign_in_user_with_saml</text>
</g>
<!-- OmniauthCallbacksController_ldap&#45;&gt;SamlSessionsController_sign_in_user_with_saml -->
<g id="edge2" class="edge">
<title>OmniauthCallbacksController_ldap&#45;&gt;SamlSessionsController_sign_in_user_with_saml</title>
<path fill="none" stroke="black" d="M1163,-1635.78C1080.62,-1537.19 667.86,-1043.18 568.75,-924.58"/>
<polygon fill="black" stroke="black" points="571.73,-922.68 562.63,-917.25 566.36,-927.16 571.73,-922.68"/>
</g>
<!-- OmniauthCallbacksController_process_auth_hash -->
<g id="node4" class="node">
<title>OmniauthCallbacksController_process_auth_hash</title>
<ellipse fill="none" stroke="black" cx="1010.34" cy="-897.95" rx="197.27" ry="18"/>
<text text-anchor="middle" x="1010.34" y="-892.52" font-family="Times New Roman,serif" font-size="14.00">OmniauthCallbacksController_process_auth_hash</text>
</g>
<!-- OmniauthCallbacksController_ldap&#45;&gt;OmniauthCallbacksController_process_auth_hash -->
<g id="edge3" class="edge">
<title>OmniauthCallbacksController_ldap&#45;&gt;OmniauthCallbacksController_process_auth_hash</title>
<path fill="none" stroke="black" d="M1173.54,-1635.78C1151.88,-1537.98 1044.05,-1051.15 1016.67,-927.53"/>
<polygon fill="black" stroke="black" points="1020.12,-926.9 1014.54,-917.89 1013.28,-928.41 1020.12,-926.9"/>
</g>
<!-- OmniauthCallbacksController_log_ldap_details -->
<g id="node5" class="node">
<title>OmniauthCallbacksController_log_ldap_details</title>
<ellipse fill="none" stroke="black" cx="1466.34" cy="-897.95" rx="186.29" ry="18"/>
<text text-anchor="middle" x="1466.34" y="-892.52" font-family="Times New Roman,serif" font-size="14.00">OmniauthCallbacksController_log_ldap_details</text>
</g>
<!-- OmniauthCallbacksController_ldap&#45;&gt;OmniauthCallbacksController_log_ldap_details -->
<g id="edge4" class="edge">
<title>OmniauthCallbacksController_ldap&#45;&gt;OmniauthCallbacksController_log_ldap_details</title>
<path fill="none" stroke="black" d="M1183.92,-1635.78C1221.44,-1537.89 1408.38,-1050.17 1455.53,-927.16"/>
<polygon fill="black" stroke="black" points="1458.79,-928.42 1459.1,-917.83 1452.26,-925.91 1458.79,-928.42"/>
</g>
<!-- OmniauthCallbacksController_save_preferred_server -->
<g id="node6" class="node">
<title>OmniauthCallbacksController_save_preferred_server</title>
<ellipse fill="none" stroke="black" cx="1933.34" cy="-897.95" rx="208.25" ry="18"/>
<text text-anchor="middle" x="1933.34" y="-892.52" font-family="Times New Roman,serif" font-size="14.00">OmniauthCallbacksController_save_preferred_server</text>
</g>
<!-- OmniauthCallbacksController_ldap&#45;&gt;OmniauthCallbacksController_save_preferred_server -->
<g id="edge5" class="edge">
<title>OmniauthCallbacksController_ldap&#45;&gt;OmniauthCallbacksController_save_preferred_server</title>
<path fill="none" stroke="black" d="M1194.55,-1635.78C1293.6,-1536.99 1790.71,-1041.2 1908.35,-923.87"/>
<polygon fill="black" stroke="black" points="1910.48,-926.69 1915.08,-917.15 1905.53,-921.74 1910.48,-926.69"/>
</g>
<!-- SamlSessionsController_log_sso_details -->
<g id="node12" class="node">
<title>SamlSessionsController_log_sso_details</title>
<ellipse fill="none" stroke="black" cx="162.34" cy="-141.95" rx="162.34" ry="18"/>
<text text-anchor="middle" x="162.34" y="-136.52" font-family="Times New Roman,serif" font-size="14.00">SamlSessionsController_log_sso_details</text>
</g>
<!-- SamlSessionsController_sign_in_user_with_saml&#45;&gt;SamlSessionsController_log_sso_details -->
<g id="edge13" class="edge">
<title>SamlSessionsController_sign_in_user_with_saml&#45;&gt;SamlSessionsController_log_sso_details</title>
<path fill="none" stroke="black" d="M538.58,-879.78C488.49,-781.69 238.55,-292.2 176.37,-170.42"/>
<polygon fill="black" stroke="black" points="179.61,-169.08 171.95,-161.76 173.38,-172.26 179.61,-169.08"/>
</g>
<!-- SamlSessionsController_process_response -->
<g id="node13" class="node">
<title>SamlSessionsController_process_response</title>
<ellipse fill="none" stroke="black" cx="569.34" cy="-141.95" rx="172.32" ry="18"/>
<text text-anchor="middle" x="569.34" y="-136.52" font-family="Times New Roman,serif" font-size="14.00">SamlSessionsController_process_response</text>
</g>
<!-- SamlSessionsController_sign_in_user_with_saml&#45;&gt;SamlSessionsController_process_response -->
<g id="edge14" class="edge">
<title>SamlSessionsController_sign_in_user_with_saml&#45;&gt;SamlSessionsController_process_response</title>
<path fill="none" stroke="black" d="M547.84,-879.78C550.69,-782.08 564.87,-296.13 568.5,-171.9"/>
<polygon fill="black" stroke="black" points="571.99,-172.03 568.79,-161.93 565,-171.82 571.99,-172.03"/>
</g>
<!-- OmniauthCallbacksController_ldap_settings -->
<g id="node7" class="node">
<title>OmniauthCallbacksController_ldap_settings</title>
<ellipse fill="none" stroke="black" cx="1010.34" cy="-141.95" rx="174.32" ry="18"/>
<text text-anchor="middle" x="1010.34" y="-136.52" font-family="Times New Roman,serif" font-size="14.00">OmniauthCallbacksController_ldap_settings</text>
</g>
<!-- OmniauthCallbacksController_process_auth_hash&#45;&gt;OmniauthCallbacksController_ldap_settings -->
<g id="edge7" class="edge">
<title>OmniauthCallbacksController_process_auth_hash&#45;&gt;OmniauthCallbacksController_ldap_settings</title>
<path fill="none" stroke="black" d="M1010.34,-879.78C1010.34,-782.08 1010.34,-296.13 1010.34,-171.9"/>
<polygon fill="black" stroke="black" points="1013.84,-171.93 1010.34,-161.93 1006.84,-171.93 1013.84,-171.93"/>
</g>
<!-- OmniauthCallbacksController_filter_passwords -->
<g id="node8" class="node">
<title>OmniauthCallbacksController_filter_passwords</title>
<ellipse fill="none" stroke="black" cx="1466.34" cy="-141.95" rx="187.29" ry="18"/>
<text text-anchor="middle" x="1466.34" y="-136.52" font-family="Times New Roman,serif" font-size="14.00">OmniauthCallbacksController_filter_passwords</text>
</g>
<!-- OmniauthCallbacksController_log_ldap_details&#45;&gt;OmniauthCallbacksController_filter_passwords -->
<g id="edge8" class="edge">
<title>OmniauthCallbacksController_log_ldap_details&#45;&gt;OmniauthCallbacksController_filter_passwords</title>
<path fill="none" stroke="black" d="M1466.34,-879.78C1466.34,-782.08 1466.34,-296.13 1466.34,-171.9"/>
<polygon fill="black" stroke="black" points="1469.84,-171.93 1466.34,-161.93 1462.84,-171.93 1469.84,-171.93"/>
</g>
<!-- OmniauthCallbacksController_ldap_settings&#45;&gt;OmniauthCallbacksController_ldap_settings -->
<g id="edge6" class="edge">
<title>OmniauthCallbacksController_ldap_settings&#45;&gt;OmniauthCallbacksController_ldap_settings</title>
<path fill="none" stroke="black" d="M1018.91,-160.41C1103.32,-330.73 1256.66,-324.58 1256.66,-141.95 1256.66,37.12 1109.25,46.53 1023.93,-113.71"/>
<polygon fill="black" stroke="black" points="1021.06,-111.65 1019.6,-122.14 1027.28,-114.85 1021.06,-111.65"/>
</g>
<!-- SamlSessionsController_new -->
<g id="node9" class="node">
<title>SamlSessionsController_new</title>
<ellipse fill="none" stroke="black" cx="1085.34" cy="-3165.95" rx="119.43" ry="18"/>
<text text-anchor="middle" x="1085.34" y="-3160.52" font-family="Times New Roman,serif" font-size="14.00">SamlSessionsController_new</text>
</g>
<!-- SamlSessionsController_new&#45;&gt;EmergencySessionsController_create -->
<g id="edge9" class="edge">
<title>SamlSessionsController_new&#45;&gt;EmergencySessionsController_create</title>
<path fill="none" stroke="black" d="M1087.43,-3147.78C1099.37,-3049.98 1158.77,-2563.15 1173.85,-2439.53"/>
<polygon fill="black" stroke="black" points="1177.29,-2440.27 1175.03,-2429.92 1170.34,-2439.42 1177.29,-2440.27"/>
</g>
<!-- SamlSessionsController_saml_config -->
<g id="node10" class="node">
<title>SamlSessionsController_saml_config</title>
<ellipse fill="none" stroke="black" cx="806.34" cy="-2409.95" rx="149.87" ry="18"/>
<text text-anchor="middle" x="806.34" y="-2404.52" font-family="Times New Roman,serif" font-size="14.00">SamlSessionsController_saml_config</text>
</g>
<!-- SamlSessionsController_new&#45;&gt;SamlSessionsController_saml_config -->
<g id="edge10" class="edge">
<title>SamlSessionsController_new&#45;&gt;SamlSessionsController_saml_config</title>
<path fill="none" stroke="black" d="M1078.99,-3147.78C1042.76,-3049.89 862.3,-2562.17 816.78,-2439.16"/>
<polygon fill="black" stroke="black" points="820.08,-2438 813.33,-2429.83 813.52,-2440.43 820.08,-2438"/>
</g>
<!-- SamlSessionsController_create -->
<g id="node11" class="node">
<title>SamlSessionsController_create</title>
<ellipse fill="none" stroke="black" cx="676.34" cy="-3165.95" rx="126.41" ry="18"/>
<text text-anchor="middle" x="676.34" y="-3160.52" font-family="Times New Roman,serif" font-size="14.00">SamlSessionsController_create</text>
</g>
<!-- SamlSessionsController_create&#45;&gt;SamlSessionsController_sign_in_user_with_saml -->
<g id="edge12" class="edge">
<title>SamlSessionsController_create&#45;&gt;SamlSessionsController_sign_in_user_with_saml</title>
<path fill="none" stroke="black" d="M674.84,-3147.55C667.85,-3066.27 638.14,-2715.8 620.34,-2427.95 582.88,-1822.34 554.17,-1080.77 548.4,-927.47"/>
<polygon fill="black" stroke="black" points="551.91,-927.7 548.04,-917.84 544.92,-927.96 551.91,-927.7"/>
</g>
<!-- SamlSessionsController_create&#45;&gt;SamlSessionsController_saml_config -->
<g id="edge11" class="edge">
<title>SamlSessionsController_create&#45;&gt;SamlSessionsController_saml_config</title>
<path fill="none" stroke="black" d="M679.3,-3147.78C696.16,-3049.98 780.1,-2563.15 801.41,-2439.53"/>
<polygon fill="black" stroke="black" points="804.82,-2440.36 803.07,-2429.91 797.92,-2439.17 804.82,-2440.36"/>
</g>
</g>
</svg>
