<?xml version="1.0" encoding="UTF-8" standalone="no"?>
<!DOCTYPE svg PUBLIC "-//W3C//DTD SVG 1.1//EN"
 "http://www.w3.org/Graphics/SVG/1.1/DTD/svg11.dtd">
<!-- Generated by graphviz version 9.0.0 (20230911.1827)
 -->
<!-- Title: CallGraph Pages: 1 -->
<svg width="152pt" height="836pt"
 viewBox="0.00 0.00 152.00 836.00" xmlns="http://www.w3.org/2000/svg" xmlns:xlink="http://www.w3.org/1999/xlink">
<g id="graph0" class="graph" transform="scale(1 1) rotate(0) translate(4 832)">
<title>CallGraph</title>
<polygon fill="white" stroke="none" points="-4,4 -4,-832 148,-832 148,4 -4,4"/>
<!-- Bar -->
<g id="node1" class="node">
<title>Bar</title>
<polygon fill="lightblue" stroke="white" points="62,-432 8,-432 8,-396 62,-396 62,-432"/>
<text text-anchor="middle" x="35" y="-408.95" font-family="Arial" font-size="14.00">Bar</text>
</g>
<!-- Foo -->
<g id="node2" class="node">
<title>Foo</title>
<polygon fill="lightblue" stroke="white" points="103,-36 49,-36 49,0 103,0 103,-36"/>
<text text-anchor="middle" x="76" y="-12.95" font-family="Arial" font-size="14.00">Foo</text>
</g>
<!-- Bar&#45;&gt;Foo -->
<g id="edge1" class="edge">
<title>Bar&#45;&gt;Foo</title>
<path fill="none" stroke="black" d="M36.81,-395.56C43.26,-333.64 65.08,-123.98 73.05,-47.35"/>
<polygon fill="black" stroke="black" points="76.5,-48.05 74.05,-37.74 69.53,-47.33 76.5,-48.05"/>
</g>
<!-- Baz -->
<g id="node3" class="node">
<title>Baz</title>
<polygon fill="lightblue" stroke="white" points="144,-828 90,-828 90,-792 144,-792 144,-828"/>
<text text-anchor="middle" x="117" y="-804.95" font-family="Arial" font-size="14.00">Baz</text>
</g>
<!-- Baz&#45;&gt;Bar -->
<g id="edge2" class="edge">
<title>Baz&#45;&gt;Bar</title>
<path fill="none" stroke="black" d="M113.37,-791.56C100.48,-729.64 56.85,-519.98 40.9,-443.35"/>
<polygon fill="black" stroke="black" points="44.36,-442.8 38.9,-433.72 37.51,-444.22 44.36,-442.8"/>
</g>
<!-- Baz&#45;&gt;Foo -->
<g id="edge3" class="edge">
<title>Baz&#45;&gt;Foo</title>
<path fill="none" stroke="black" d="M116.11,-791.77C110.86,-690.77 84.14,-175.78 77.5,-47.81"/>
<polygon fill="black" stroke="black" points="80.99,-47.66 76.98,-37.86 74,-48.03 80.99,-47.66"/>
</g>
<!-- Foo2 -->
<g id="node4" class="node">
<title>Foo2</title>
<polygon fill="lightblue" stroke="white" points="54,-828 0,-828 0,-792 54,-792 54,-828"/>
<text text-anchor="middle" x="27" y="-804.95" font-family="Arial" font-size="14.00">Foo2</text>
</g>
<!-- Foo2&#45;&gt;Bar -->
<g id="edge4" class="edge">
<title>Foo2&#45;&gt;Bar</title>
<path fill="none" stroke="black" d="M27.35,-791.56C28.61,-729.64 32.87,-519.98 34.42,-443.35"/>
<polygon fill="black" stroke="black" points="37.92,-443.82 34.62,-433.75 30.92,-443.68 37.92,-443.82"/>
</g>
</g>
</svg>
