<?xml version="1.0" encoding="UTF-8" standalone="no"?>
<!DOCTYPE svg PUBLIC "-//W3C//DTD SVG 1.1//EN"
 "http://www.w3.org/Graphics/SVG/1.1/DTD/svg11.dtd">
<!-- Generated by graphviz version 2.43.0 (0)
 -->
<!-- Title: CallGraph Pages: 1 -->
<svg width="3285pt" height="2420pt"
 viewBox="0.00 0.00 3285.00 2420.00" xmlns="http://www.w3.org/2000/svg" xmlns:xlink="http://www.w3.org/1999/xlink">
<g id="graph0" class="graph" transform="scale(1 1) rotate(0) translate(4 2416)">
<title>CallGraph</title>
<polygon fill="white" stroke="transparent" points="-4,4 -4,-2416 3281,-2416 3281,4 -4,4"/>
<!-- ActsController -->
<g id="node1" class="node">
<title>ActsController</title>
<polygon fill="lightblue" stroke="white" points="1509.5,-432 1408.5,-432 1408.5,-396 1509.5,-396 1509.5,-432"/>
<text text-anchor="middle" x="1459" y="-410.3" font-family="Arial" font-size="14.00">ActsController</text>
</g>
<!-- ActorsController -->
<g id="node2" class="node">
<title>ActorsController</title>
<polygon fill="lightblue" stroke="white" points="2235.5,-36 2122.5,-36 2122.5,0 2235.5,0 2235.5,-36"/>
<text text-anchor="middle" x="2179" y="-14.3" font-family="Arial" font-size="14.00">ActorsController</text>
</g>
<!-- ActsController&#45;&gt;ActorsController -->
<g id="edge1" class="edge">
<title>ActsController&#45;&gt;ActorsController</title>
<path fill="none" stroke="black" d="M1490.4,-395.82C1606.3,-332.39 2010.02,-111.47 2139.03,-40.87"/>
<polygon fill="black" stroke="black" points="2140.75,-43.92 2147.84,-36.05 2137.39,-37.78 2140.75,-43.92"/>
</g>
<!-- AttachmentsController -->
<g id="node3" class="node">
<title>AttachmentsController</title>
<polygon fill="lightblue" stroke="white" points="2388.5,-2016 2237.5,-2016 2237.5,-1980 2388.5,-1980 2388.5,-2016"/>
<text text-anchor="middle" x="2313" y="-1994.3" font-family="Arial" font-size="14.00">AttachmentsController</text>
</g>
<!-- AttachmentsController&#45;&gt;ActorsController -->
<g id="edge3" class="edge">
<title>AttachmentsController&#45;&gt;ActorsController</title>
<path fill="none" stroke="black" d="M2317.82,-1979.93C2341.02,-1896.27 2440,-1520.95 2440,-1207 2440,-1207 2440,-1207 2440,-809 2440,-624.67 2458.75,-571.38 2402,-396 2355.03,-250.84 2244.71,-101.65 2199.19,-43.91"/>
<polygon fill="black" stroke="black" points="2201.92,-41.71 2192.96,-36.06 2196.44,-46.07 2201.92,-41.71"/>
</g>
<!-- GraphsController -->
<g id="node4" class="node">
<title>GraphsController</title>
<polygon fill="lightblue" stroke="white" points="1676,-1620 1556,-1620 1556,-1584 1676,-1584 1676,-1620"/>
<text text-anchor="middle" x="1616" y="-1598.3" font-family="Arial" font-size="14.00">GraphsController</text>
</g>
<!-- AttachmentsController&#45;&gt;GraphsController -->
<g id="edge2" class="edge">
<title>AttachmentsController&#45;&gt;GraphsController</title>
<path fill="none" stroke="black" d="M2282.6,-1979.82C2170.51,-1916.46 1780.36,-1695.91 1655.07,-1625.08"/>
<polygon fill="black" stroke="black" points="1656.59,-1621.93 1646.16,-1620.05 1653.15,-1628.02 1656.59,-1621.93"/>
</g>
<!-- GraphsController&#45;&gt;ActsController -->
<g id="edge22" class="edge">
<title>GraphsController&#45;&gt;ActsController</title>
<path fill="none" stroke="black" d="M1613.74,-1583.92C1602.47,-1498.61 1551.13,-1110.11 1509,-792 1491.66,-661.1 1470.9,-504.64 1462.64,-442.44"/>
<polygon fill="black" stroke="black" points="1466.08,-441.74 1461.29,-432.29 1459.14,-442.66 1466.08,-441.74"/>
</g>
<!-- GraphsController&#45;&gt;ActorsController -->
<g id="edge25" class="edge">
<title>GraphsController&#45;&gt;ActorsController</title>
<path fill="none" stroke="black" d="M1626.12,-1583.94C1673.98,-1502.59 1879.92,-1144.92 1992,-828 2097.26,-530.37 2159.28,-149.92 2175.01,-46.16"/>
<polygon fill="black" stroke="black" points="2178.48,-46.61 2176.5,-36.2 2171.56,-45.57 2178.48,-46.61"/>
</g>
<!-- DocumentsController -->
<g id="node9" class="node">
<title>DocumentsController</title>
<polygon fill="lightblue" stroke="white" points="1745,-1224 1601,-1224 1601,-1188 1745,-1188 1745,-1224"/>
<text text-anchor="middle" x="1673" y="-1202.3" font-family="Arial" font-size="14.00">DocumentsController</text>
</g>
<!-- GraphsController&#45;&gt;DocumentsController -->
<g id="edge24" class="edge">
<title>GraphsController&#45;&gt;DocumentsController</title>
<path fill="none" stroke="black" d="M1612.54,-1583.82C1611.89,-1521.86 1642.16,-1309.6 1661.84,-1234"/>
<polygon fill="black" stroke="black" points="1665.24,-1234.85 1664.54,-1224.27 1658.49,-1232.97 1665.24,-1234.85"/>
</g>
<!-- SearchController -->
<g id="node10" class="node">
<title>SearchController</title>
<polygon fill="lightblue" stroke="white" points="1491,-828 1373,-828 1373,-792 1491,-792 1491,-828"/>
<text text-anchor="middle" x="1432" y="-806.3" font-family="Arial" font-size="14.00">SearchController</text>
</g>
<!-- GraphsController&#45;&gt;SearchController -->
<g id="edge23" class="edge">
<title>GraphsController&#45;&gt;SearchController</title>
<path fill="none" stroke="black" d="M1611.2,-1583.79C1596.43,-1530.53 1550.66,-1363.6 1518,-1224 1484.18,-1079.44 1450,-904.85 1437.23,-838.44"/>
<polygon fill="black" stroke="black" points="1440.62,-837.54 1435.3,-828.38 1433.75,-838.86 1440.62,-837.54"/>
</g>
<!-- SettingsController -->
<g id="node12" class="node">
<title>SettingsController</title>
<polygon fill="lightblue" stroke="white" points="1269,-1224 1145,-1224 1145,-1188 1269,-1188 1269,-1224"/>
<text text-anchor="middle" x="1207" y="-1202.3" font-family="Arial" font-size="14.00">SettingsController</text>
</g>
<!-- GraphsController&#45;&gt;SettingsController -->
<g id="edge26" class="edge">
<title>GraphsController&#45;&gt;SettingsController</title>
<path fill="none" stroke="black" d="M1598.16,-1583.82C1533.06,-1521.1 1308.07,-1304.37 1232.21,-1231.28"/>
<polygon fill="black" stroke="black" points="1234.56,-1228.69 1224.93,-1224.27 1229.7,-1233.73 1234.56,-1228.69"/>
</g>
<!-- AuditElementsController -->
<g id="node5" class="node">
<title>AuditElementsController</title>
<polygon fill="lightblue" stroke="white" points="2781.5,-2016 2618.5,-2016 2618.5,-1980 2781.5,-1980 2781.5,-2016"/>
<text text-anchor="middle" x="2700" y="-1994.3" font-family="Arial" font-size="14.00">AuditElementsController</text>
</g>
<!-- AuditElementsController&#45;&gt;ActorsController -->
<g id="edge5" class="edge">
<title>AuditElementsController&#45;&gt;ActorsController</title>
<path fill="none" stroke="black" d="M2706.37,-1979.76C2736.69,-1896.08 2865,-1523.3 2865,-1207 2865,-1207 2865,-1207 2865,-809 2865,-624.71 2926.98,-551.46 2828,-396 2690.43,-179.92 2381.45,-73.39 2245.43,-35.58"/>
<polygon fill="black" stroke="black" points="2246.12,-32.14 2235.55,-32.87 2244.26,-38.89 2246.12,-32.14"/>
</g>
<!-- AuditElementsController&#45;&gt;GraphsController -->
<g id="edge4" class="edge">
<title>AuditElementsController&#45;&gt;GraphsController</title>
<path fill="none" stroke="black" d="M2653.07,-1979.94C2477.93,-1916.28 1862.75,-1692.68 1672.5,-1623.53"/>
<polygon fill="black" stroke="black" points="1673.56,-1620.2 1662.96,-1620.07 1671.17,-1626.78 1673.56,-1620.2"/>
</g>
<!-- AuditsController -->
<g id="node6" class="node">
<title>AuditsController</title>
<polygon fill="lightblue" stroke="white" points="2384.5,-432 2271.5,-432 2271.5,-396 2384.5,-396 2384.5,-432"/>
<text text-anchor="middle" x="2328" y="-410.3" font-family="Arial" font-size="14.00">AuditsController</text>
</g>
<!-- AuditsController&#45;&gt;ActorsController -->
<g id="edge6" class="edge">
<title>AuditsController&#45;&gt;ActorsController</title>
<path fill="none" stroke="black" d="M2321.5,-395.82C2298.07,-333.86 2217.8,-121.6 2189.21,-46"/>
<polygon fill="black" stroke="black" points="2192.34,-44.39 2185.53,-36.27 2185.8,-46.87 2192.34,-44.39"/>
</g>
<!-- ContributionsController -->
<g id="node7" class="node">
<title>ContributionsController</title>
<polygon fill="lightblue" stroke="white" points="284.5,-2016 129.5,-2016 129.5,-1980 284.5,-1980 284.5,-2016"/>
<text text-anchor="middle" x="207" y="-1994.3" font-family="Arial" font-size="14.00">ContributionsController</text>
</g>
<!-- ContributionsController&#45;&gt;ActorsController -->
<g id="edge8" class="edge">
<title>ContributionsController&#45;&gt;ActorsController</title>
<path fill="none" stroke="black" d="M199.01,-1979.92C160.97,-1896.97 0,-1527.07 0,-1207 0,-1207 0,-1207 0,-809 0,-347.91 1746.23,-79.26 2112.22,-28.02"/>
<polygon fill="black" stroke="black" points="2112.97,-31.45 2122.39,-26.6 2112.01,-24.51 2112.97,-31.45"/>
</g>
<!-- ContributionsController&#45;&gt;GraphsController -->
<g id="edge7" class="edge">
<title>ContributionsController&#45;&gt;GraphsController</title>
<path fill="none" stroke="black" d="M268,-1979.94C496.71,-1915.99 1302.68,-1690.61 1545.96,-1622.59"/>
<polygon fill="black" stroke="black" points="1547.06,-1625.91 1555.75,-1619.85 1545.17,-1619.17 1547.06,-1625.91"/>
</g>
<!-- DirectoriesController -->
<g id="node8" class="node">
<title>DirectoriesController</title>
<polygon fill="lightblue" stroke="white" points="1080,-2016 940,-2016 940,-1980 1080,-1980 1080,-2016"/>
<text text-anchor="middle" x="1010" y="-1994.3" font-family="Arial" font-size="14.00">DirectoriesController</text>
</g>
<!-- DirectoriesController&#45;&gt;ActorsController -->
<g id="edge10" class="edge">
<title>DirectoriesController&#45;&gt;ActorsController</title>
<path fill="none" stroke="black" d="M1003.36,-1979.9C948.9,-1836.47 590.13,-828.43 1090,-396 1405.01,-123.49 1927.88,-44.88 2112.2,-25.02"/>
<polygon fill="black" stroke="black" points="2112.71,-28.49 2122.29,-23.96 2111.97,-21.53 2112.71,-28.49"/>
</g>
<!-- DirectoriesController&#45;&gt;GraphsController -->
<g id="edge9" class="edge">
<title>DirectoriesController&#45;&gt;GraphsController</title>
<path fill="none" stroke="black" d="M1036.43,-1979.82C1133.69,-1916.58 1471.74,-1696.79 1581.38,-1625.51"/>
<polygon fill="black" stroke="black" points="1583.3,-1628.44 1589.77,-1620.05 1579.48,-1622.57 1583.3,-1628.44"/>
</g>
<!-- DocumentsController&#45;&gt;ActsController -->
<g id="edge11" class="edge">
<title>DocumentsController&#45;&gt;ActsController</title>
<path fill="none" stroke="black" d="M1669.31,-1187.99C1656.97,-1131.43 1615.53,-944.61 1574,-792 1537.99,-659.68 1487.89,-503.49 1467.82,-441.89"/>
<polygon fill="black" stroke="black" points="1471.08,-440.6 1464.65,-432.18 1464.42,-442.77 1471.08,-440.6"/>
</g>
<!-- DocumentsController&#45;&gt;ActorsController -->
<g id="edge14" class="edge">
<title>DocumentsController&#45;&gt;ActorsController</title>
<path fill="none" stroke="black" d="M1690.81,-1187.73C1741.5,-1137.48 1887.36,-984.91 1957,-828 2036.31,-649.3 1987.56,-584.35 2040,-396 2077.48,-261.36 2141.43,-106.56 2167.46,-45.62"/>
<polygon fill="black" stroke="black" points="2170.72,-46.9 2171.45,-36.33 2164.29,-44.14 2170.72,-46.9"/>
</g>
<!-- DocumentsController&#45;&gt;GraphsController -->
<g id="edge13" class="edge">
<title>DocumentsController&#45;&gt;GraphsController</title>
<path fill="none" stroke="black" d="M1676.46,-1224.27C1677.08,-1286.38 1646.8,-1498.64 1627.13,-1574.11"/>
<polygon fill="black" stroke="black" points="1623.74,-1573.24 1624.43,-1583.82 1630.48,-1575.12 1623.74,-1573.24"/>
</g>
<!-- DocumentsController&#45;&gt;SearchController -->
<g id="edge12" class="edge">
<title>DocumentsController&#45;&gt;SearchController</title>
<path fill="none" stroke="black" d="M1662.49,-1187.82C1624.44,-1125.6 1493.69,-911.86 1447.95,-837.08"/>
<polygon fill="black" stroke="black" points="1450.77,-834.98 1442.57,-828.27 1444.8,-838.63 1450.77,-834.98"/>
</g>
<!-- ElementsController -->
<g id="node11" class="node">
<title>ElementsController</title>
<polygon fill="lightblue" stroke="white" points="1464,-1620 1332,-1620 1332,-1584 1464,-1584 1464,-1620"/>
<text text-anchor="middle" x="1398" y="-1598.3" font-family="Arial" font-size="14.00">ElementsController</text>
</g>
<!-- ElementsController&#45;&gt;SearchController -->
<g id="edge15" class="edge">
<title>ElementsController&#45;&gt;SearchController</title>
<path fill="none" stroke="black" d="M1398.74,-1583.77C1403.11,-1482.35 1425.44,-963.53 1430.83,-838.25"/>
<polygon fill="black" stroke="black" points="1434.33,-838.15 1431.27,-828.01 1427.34,-837.85 1434.33,-838.15"/>
</g>
<!-- ElementsController&#45;&gt;SettingsController -->
<g id="edge16" class="edge">
<title>ElementsController&#45;&gt;SettingsController</title>
<path fill="none" stroke="black" d="M1389.67,-1583.82C1359.57,-1521.73 1256.32,-1308.73 1219.87,-1233.54"/>
<polygon fill="black" stroke="black" points="1222.89,-1231.75 1215.37,-1224.27 1216.59,-1234.8 1222.89,-1231.75"/>
</g>
<!-- SettingsController&#45;&gt;ActsController -->
<g id="edge51" class="edge">
<title>SettingsController&#45;&gt;ActsController</title>
<path fill="none" stroke="black" d="M1212.5,-1187.77C1244.88,-1086.25 1410.68,-566.49 1450.43,-441.88"/>
<polygon fill="black" stroke="black" points="1453.87,-442.6 1453.57,-432.01 1447.2,-440.47 1453.87,-442.6"/>
</g>
<!-- SettingsController&#45;&gt;SearchController -->
<g id="edge54" class="edge">
<title>SettingsController&#45;&gt;SearchController</title>
<path fill="none" stroke="black" d="M1216.81,-1187.82C1252.34,-1125.6 1374.4,-911.86 1417.1,-837.08"/>
<polygon fill="black" stroke="black" points="1420.22,-838.69 1422.14,-828.27 1414.14,-835.22 1420.22,-838.69"/>
</g>
<!-- NotificationsController -->
<g id="node24" class="node">
<title>NotificationsController</title>
<polygon fill="lightblue" stroke="white" points="1123.5,-828 974.5,-828 974.5,-792 1123.5,-792 1123.5,-828"/>
<text text-anchor="middle" x="1049" y="-806.3" font-family="Arial" font-size="14.00">NotificationsController</text>
</g>
<!-- SettingsController&#45;&gt;NotificationsController -->
<g id="edge52" class="edge">
<title>SettingsController&#45;&gt;NotificationsController</title>
<path fill="none" stroke="black" d="M1200.11,-1187.82C1175.26,-1125.86 1090.14,-913.6 1059.83,-838"/>
<polygon fill="black" stroke="black" points="1062.9,-836.25 1055.93,-828.27 1056.4,-838.86 1062.9,-836.25"/>
</g>
<!-- PrintController -->
<g id="node26" class="node">
<title>PrintController</title>
<polygon fill="lightblue" stroke="white" points="1262.5,-828 1159.5,-828 1159.5,-792 1262.5,-792 1262.5,-828"/>
<text text-anchor="middle" x="1211" y="-806.3" font-family="Arial" font-size="14.00">PrintController</text>
</g>
<!-- SettingsController&#45;&gt;PrintController -->
<g id="edge53" class="edge">
<title>SettingsController&#45;&gt;PrintController</title>
<path fill="none" stroke="black" d="M1207.17,-1187.82C1207.8,-1125.98 1209.95,-914.47 1210.72,-838.47"/>
<polygon fill="black" stroke="black" points="1214.22,-838.31 1210.82,-828.27 1207.22,-838.24 1214.22,-838.31"/>
</g>
<!-- EventsController -->
<g id="node13" class="node">
<title>EventsController</title>
<polygon fill="lightblue" stroke="white" points="1939,-828 1823,-828 1823,-792 1939,-792 1939,-828"/>
<text text-anchor="middle" x="1881" y="-806.3" font-family="Arial" font-size="14.00">EventsController</text>
</g>
<!-- EventsController&#45;&gt;ActsController -->
<g id="edge17" class="edge">
<title>EventsController&#45;&gt;ActsController</title>
<path fill="none" stroke="black" d="M1862.6,-791.82C1795.42,-729.1 1563.29,-512.37 1485.01,-439.28"/>
<polygon fill="black" stroke="black" points="1487.2,-436.54 1477.5,-432.27 1482.42,-441.66 1487.2,-436.54"/>
</g>
<!-- EventsController&#45;&gt;ActorsController -->
<g id="edge18" class="edge">
<title>EventsController&#45;&gt;ActorsController</title>
<path fill="none" stroke="black" d="M1882.59,-791.95C1888.35,-734.51 1910.76,-543.38 1966,-396 2018.96,-254.72 2119.79,-103.25 2160.89,-44.4"/>
<polygon fill="black" stroke="black" points="2163.85,-46.28 2166.73,-36.08 2158.12,-42.25 2163.85,-46.28"/>
</g>
<!-- GraphBackgroundsController -->
<g id="node14" class="node">
<title>GraphBackgroundsController</title>
<polygon fill="lightblue" stroke="white" points="1296,-1620 1104,-1620 1104,-1584 1296,-1584 1296,-1620"/>
<text text-anchor="middle" x="1200" y="-1598.3" font-family="Arial" font-size="14.00">GraphBackgroundsController</text>
</g>
<!-- GraphBackgroundsController&#45;&gt;ActsController -->
<g id="edge19" class="edge">
<title>GraphBackgroundsController&#45;&gt;ActsController</title>
<path fill="none" stroke="black" d="M1185.82,-1583.96C1114.77,-1496.46 806.86,-1090.16 956,-792 1051.61,-600.86 1295.3,-481.53 1404.56,-436.01"/>
<polygon fill="black" stroke="black" points="1406.16,-439.13 1414.08,-432.09 1403.5,-432.66 1406.16,-439.13"/>
</g>
<!-- GraphBackgroundsController&#45;&gt;SearchController -->
<g id="edge20" class="edge">
<title>GraphBackgroundsController&#45;&gt;SearchController</title>
<path fill="none" stroke="black" d="M1205.06,-1583.77C1234.87,-1482.25 1387.51,-962.49 1424.11,-837.88"/>
<polygon fill="black" stroke="black" points="1427.55,-838.59 1427.01,-828.01 1420.83,-836.62 1427.55,-838.59"/>
</g>
<!-- GraphBackgroundsController&#45;&gt;SettingsController -->
<g id="edge21" class="edge">
<title>GraphBackgroundsController&#45;&gt;SettingsController</title>
<path fill="none" stroke="black" d="M1200.31,-1583.82C1201.4,-1521.98 1205.16,-1310.47 1206.51,-1234.47"/>
<polygon fill="black" stroke="black" points="1210.01,-1234.33 1206.69,-1224.27 1203.02,-1234.21 1210.01,-1234.33"/>
</g>
<!-- GroupdocumentsController -->
<g id="node15" class="node">
<title>GroupdocumentsController</title>
<polygon fill="lightblue" stroke="white" points="2734,-2412 2554,-2412 2554,-2376 2734,-2376 2734,-2412"/>
<text text-anchor="middle" x="2644" y="-2390.3" font-family="Arial" font-size="14.00">GroupdocumentsController</text>
</g>
<!-- GroupdocumentsController&#45;&gt;ActorsController -->
<g id="edge28" class="edge">
<title>GroupdocumentsController&#45;&gt;ActorsController</title>
<path fill="none" stroke="black" d="M2674.11,-2375.8C2799.9,-2301.42 3277,-1993.6 3277,-1603 3277,-1603 3277,-1603 3277,-809 3277,-297.94 2483.52,-84.88 2245.62,-32.48"/>
<polygon fill="black" stroke="black" points="2246.24,-29.03 2235.72,-30.32 2244.75,-35.87 2246.24,-29.03"/>
</g>
<!-- ResourcesController -->
<g id="node16" class="node">
<title>ResourcesController</title>
<polygon fill="lightblue" stroke="white" points="1901,-2016 1761,-2016 1761,-1980 1901,-1980 1901,-2016"/>
<text text-anchor="middle" x="1831" y="-1994.3" font-family="Arial" font-size="14.00">ResourcesController</text>
</g>
<!-- GroupdocumentsController&#45;&gt;ResourcesController -->
<g id="edge27" class="edge">
<title>GroupdocumentsController&#45;&gt;ResourcesController</title>
<path fill="none" stroke="black" d="M2608.81,-2375.94C2478.03,-2312.57 2020.18,-2090.68 1875.31,-2020.47"/>
<polygon fill="black" stroke="black" points="1876.75,-2017.28 1866.22,-2016.07 1873.69,-2023.58 1876.75,-2017.28"/>
</g>
<!-- ResourcesController&#45;&gt;ActsController -->
<g id="edge43" class="edge">
<title>ResourcesController&#45;&gt;ActsController</title>
<path fill="none" stroke="black" d="M1831.38,-1979.92C1832.95,-1893.81 1835.64,-1499.23 1763,-1188 1691.63,-882.18 1521.7,-537.29 1472.54,-441.11"/>
<polygon fill="black" stroke="black" points="1475.59,-439.39 1467.91,-432.09 1469.36,-442.58 1475.59,-439.39"/>
</g>
<!-- ResourcesController&#45;&gt;ActorsController -->
<g id="edge45" class="edge">
<title>ResourcesController&#45;&gt;ActorsController</title>
<path fill="none" stroke="black" d="M1834.45,-1979.67C1859.34,-1854.21 2013.67,-1071.92 2119,-432 2142.85,-287.07 2166.55,-112.7 2175.38,-46.39"/>
<polygon fill="black" stroke="black" points="2178.87,-46.72 2176.72,-36.35 2171.93,-45.8 2178.87,-46.72"/>
</g>
<!-- ResourcesController&#45;&gt;GraphsController -->
<g id="edge44" class="edge">
<title>ResourcesController&#45;&gt;GraphsController</title>
<path fill="none" stroke="black" d="M1821.62,-1979.82C1787.68,-1917.6 1671.04,-1703.86 1630.23,-1629.08"/>
<polygon fill="black" stroke="black" points="1633.29,-1627.38 1625.43,-1620.27 1627.14,-1630.73 1633.29,-1627.38"/>
</g>
<!-- GroupgraphsController -->
<g id="node17" class="node">
<title>GroupgraphsController</title>
<polygon fill="lightblue" stroke="white" points="2650.5,-432 2495.5,-432 2495.5,-396 2650.5,-396 2650.5,-432"/>
<text text-anchor="middle" x="2573" y="-410.3" font-family="Arial" font-size="14.00">GroupgraphsController</text>
</g>
<!-- GroupgraphsController&#45;&gt;ActorsController -->
<g id="edge29" class="edge">
<title>GroupgraphsController&#45;&gt;ActorsController</title>
<path fill="none" stroke="black" d="M2555.82,-395.82C2493.22,-333.22 2277.24,-117.24 2203.73,-43.73"/>
<polygon fill="black" stroke="black" points="2205.82,-40.87 2196.27,-36.27 2200.87,-45.82 2205.82,-40.87"/>
</g>
<!-- GroupsController -->
<g id="node18" class="node">
<title>GroupsController</title>
<polygon fill="lightblue" stroke="white" points="1586,-2016 1466,-2016 1466,-1980 1586,-1980 1586,-2016"/>
<text text-anchor="middle" x="1526" y="-1994.3" font-family="Arial" font-size="14.00">GroupsController</text>
</g>
<!-- GroupsController&#45;&gt;ActsController -->
<g id="edge30" class="edge">
<title>GroupsController&#45;&gt;ActsController</title>
<path fill="none" stroke="black" d="M1496.95,-1979.96C1418.99,-1932.77 1203.13,-1792.47 1086,-1620 981.45,-1466.06 984.34,-1406.89 950,-1224 914.55,-1035.17 846.3,-962.95 934,-792 1033.91,-597.25 1286.38,-480.4 1400.91,-435.81"/>
<polygon fill="black" stroke="black" points="1402.49,-438.95 1410.56,-432.09 1399.97,-432.42 1402.49,-438.95"/>
</g>
<!-- GroupsController&#45;&gt;GraphsController -->
<g id="edge31" class="edge">
<title>GroupsController&#45;&gt;GraphsController</title>
<path fill="none" stroke="black" d="M1529.93,-1979.82C1544.05,-1917.98 1592.37,-1706.47 1609.73,-1630.47"/>
<polygon fill="black" stroke="black" points="1613.24,-1630.8 1612.05,-1620.27 1606.42,-1629.24 1613.24,-1630.8"/>
</g>
<!-- InvitationsController -->
<g id="node19" class="node">
<title>InvitationsController</title>
<polygon fill="lightblue" stroke="white" points="798,-2016 662,-2016 662,-1980 798,-1980 798,-2016"/>
<text text-anchor="middle" x="730" y="-1994.3" font-family="Arial" font-size="14.00">InvitationsController</text>
</g>
<!-- InvitationsController&#45;&gt;GraphsController -->
<g id="edge33" class="edge">
<title>InvitationsController&#45;&gt;GraphsController</title>
<path fill="none" stroke="black" d="M768.35,-1979.94C911.01,-1916.5 1410.83,-1694.24 1568.19,-1624.26"/>
<polygon fill="black" stroke="black" points="1569.9,-1627.33 1577.61,-1620.07 1567.06,-1620.93 1569.9,-1627.33"/>
</g>
<!-- ExportController -->
<g id="node20" class="node">
<title>ExportController</title>
<polygon fill="lightblue" stroke="white" points="412,-1224 298,-1224 298,-1188 412,-1188 412,-1224"/>
<text text-anchor="middle" x="355" y="-1202.3" font-family="Arial" font-size="14.00">ExportController</text>
</g>
<!-- InvitationsController&#45;&gt;ExportController -->
<g id="edge32" class="edge">
<title>InvitationsController&#45;&gt;ExportController</title>
<path fill="none" stroke="black" d="M721.82,-1979.77C673.53,-1878.05 425.92,-1356.4 367.4,-1233.13"/>
<polygon fill="black" stroke="black" points="370.52,-1231.54 363.07,-1224.01 364.2,-1234.54 370.52,-1231.54"/>
</g>
<!-- LdapSettingsController -->
<g id="node21" class="node">
<title>LdapSettingsController</title>
<polygon fill="lightblue" stroke="white" points="626,-2016 472,-2016 472,-1980 626,-1980 626,-2016"/>
<text text-anchor="middle" x="549" y="-1994.3" font-family="Arial" font-size="14.00">LdapSettingsController</text>
</g>
<!-- LdapSettingsController&#45;&gt;ActorsController -->
<g id="edge36" class="edge">
<title>LdapSettingsController&#45;&gt;ActorsController</title>
<path fill="none" stroke="black" d="M549,-1979.77C549,-1895.34 549,-1516.97 549,-1207 549,-1207 549,-1207 549,-809 549,-102 1806.14,-27.5 2112.36,-19.84"/>
<polygon fill="black" stroke="black" points="2112.5,-23.34 2122.42,-19.6 2112.34,-16.34 2112.5,-23.34"/>
</g>
<!-- LdapSettingsController&#45;&gt;GraphsController -->
<g id="edge35" class="edge">
<title>LdapSettingsController&#45;&gt;GraphsController</title>
<path fill="none" stroke="black" d="M595.19,-1979.94C767.59,-1916.28 1373.12,-1692.68 1560.39,-1623.53"/>
<polygon fill="black" stroke="black" points="1561.6,-1626.82 1569.77,-1620.07 1559.18,-1620.25 1561.6,-1626.82"/>
</g>
<!-- SessionsController -->
<g id="node22" class="node">
<title>SessionsController</title>
<polygon fill="lightblue" stroke="white" points="420,-1620 290,-1620 290,-1584 420,-1584 420,-1620"/>
<text text-anchor="middle" x="355" y="-1598.3" font-family="Arial" font-size="14.00">SessionsController</text>
</g>
<!-- LdapSettingsController&#45;&gt;SessionsController -->
<g id="edge34" class="edge">
<title>LdapSettingsController&#45;&gt;SessionsController</title>
<path fill="none" stroke="black" d="M540.54,-1979.82C509.97,-1917.73 405.09,-1704.73 368.07,-1629.54"/>
<polygon fill="black" stroke="black" points="371.06,-1627.7 363.51,-1620.27 364.78,-1630.79 371.06,-1627.7"/>
</g>
<!-- SessionsController&#45;&gt;ExportController -->
<g id="edge50" class="edge">
<title>SessionsController&#45;&gt;ExportController</title>
<path fill="none" stroke="black" d="M355,-1583.82C355,-1521.98 355,-1310.47 355,-1234.47"/>
<polygon fill="black" stroke="black" points="358.5,-1234.27 355,-1224.27 351.5,-1234.27 358.5,-1234.27"/>
</g>
<!-- LoginsController -->
<g id="node23" class="node">
<title>LoginsController</title>
<polygon fill="lightblue" stroke="white" points="435.5,-2016 320.5,-2016 320.5,-1980 435.5,-1980 435.5,-2016"/>
<text text-anchor="middle" x="378" y="-1994.3" font-family="Arial" font-size="14.00">LoginsController</text>
</g>
<!-- LoginsController&#45;&gt;SessionsController -->
<g id="edge37" class="edge">
<title>LoginsController&#45;&gt;SessionsController</title>
<path fill="none" stroke="black" d="M377,-1979.82C373.39,-1917.98 361.04,-1706.47 356.6,-1630.47"/>
<polygon fill="black" stroke="black" points="360.09,-1630.05 356.01,-1620.27 353.1,-1630.46 360.09,-1630.05"/>
</g>
<!-- NotificationsController&#45;&gt;ActorsController -->
<g id="edge38" class="edge">
<title>NotificationsController&#45;&gt;ActorsController</title>
<path fill="none" stroke="black" d="M1046.26,-791.58C1037.55,-729.59 1016.68,-516.91 1118,-396 1380.75,-82.44 1922.95,-29.6 2112.12,-20.76"/>
<polygon fill="black" stroke="black" points="2112.37,-24.25 2122.2,-20.31 2112.06,-17.25 2112.37,-24.25"/>
</g>
<!-- PasswordsController -->
<g id="node25" class="node">
<title>PasswordsController</title>
<polygon fill="lightblue" stroke="white" points="942.5,-2412 801.5,-2412 801.5,-2376 942.5,-2376 942.5,-2412"/>
<text text-anchor="middle" x="872" y="-2390.3" font-family="Arial" font-size="14.00">PasswordsController</text>
</g>
<!-- PasswordsController&#45;&gt;ResourcesController -->
<g id="edge39" class="edge">
<title>PasswordsController&#45;&gt;ResourcesController</title>
<path fill="none" stroke="black" d="M913.51,-2375.94C1068.16,-2312.41 1610.55,-2089.57 1780.01,-2019.95"/>
<polygon fill="black" stroke="black" points="1781.53,-2023.11 1789.45,-2016.07 1778.87,-2016.63 1781.53,-2023.11"/>
</g>
<!-- PasswordsController&#45;&gt;ExportController -->
<g id="edge40" class="edge">
<title>PasswordsController&#45;&gt;ExportController</title>
<path fill="none" stroke="black" d="M801.3,-2382.79C643.98,-2355.83 266.59,-2266.71 111,-2016 -60.53,-1739.6 248.17,-1335.05 333.85,-1231.73"/>
<polygon fill="black" stroke="black" points="336.58,-1233.93 340.31,-1224.01 331.21,-1229.44 336.58,-1233.93"/>
</g>
<!-- PrintController&#45;&gt;ActsController -->
<g id="edge42" class="edge">
<title>PrintController&#45;&gt;ActsController</title>
<path fill="none" stroke="black" d="M1221.82,-791.82C1260.97,-729.6 1395.51,-515.86 1442.58,-441.08"/>
<polygon fill="black" stroke="black" points="1445.76,-442.6 1448.13,-432.27 1439.84,-438.87 1445.76,-442.6"/>
</g>
<!-- ContributorsController -->
<g id="node27" class="node">
<title>ContributorsController</title>
<polygon fill="lightblue" stroke="white" points="1285.5,-432 1136.5,-432 1136.5,-396 1285.5,-396 1285.5,-432"/>
<text text-anchor="middle" x="1211" y="-410.3" font-family="Arial" font-size="14.00">ContributorsController</text>
</g>
<!-- PrintController&#45;&gt;ContributorsController -->
<g id="edge41" class="edge">
<title>PrintController&#45;&gt;ContributorsController</title>
<path fill="none" stroke="black" d="M1211,-791.82C1211,-729.98 1211,-518.47 1211,-442.47"/>
<polygon fill="black" stroke="black" points="1214.5,-442.27 1211,-432.27 1207.5,-442.27 1214.5,-442.27"/>
</g>
<!-- RolesController -->
<g id="node28" class="node">
<title>RolesController</title>
<polygon fill="lightblue" stroke="white" points="1807,-2412 1697,-2412 1697,-2376 1807,-2376 1807,-2412"/>
<text text-anchor="middle" x="1752" y="-2390.3" font-family="Arial" font-size="14.00">RolesController</text>
</g>
<!-- RolesController&#45;&gt;ActsController -->
<g id="edge46" class="edge">
<title>RolesController&#45;&gt;ActsController</title>
<path fill="none" stroke="black" d="M1696.82,-2386.75C1543.74,-2366.19 1112.51,-2285.67 922,-2016 607.97,-1571.49 608.04,-1260.51 885,-792 1003.88,-590.9 1277.05,-476.78 1398.68,-434.31"/>
<polygon fill="black" stroke="black" points="1399.91,-437.58 1408.22,-431.01 1397.63,-430.97 1399.91,-437.58"/>
</g>
<!-- RolesController&#45;&gt;ActorsController -->
<g id="edge48" class="edge">
<title>RolesController&#45;&gt;ActorsController</title>
<path fill="none" stroke="black" d="M1807.05,-2391.94C1997.79,-2385.4 2639.11,-2339.23 3012,-2016 3164.82,-1883.54 3203,-1805.23 3203,-1603 3203,-1603 3203,-1603 3203,-809 3203,-323.37 2472.08,-94.42 2245.29,-35.08"/>
<polygon fill="black" stroke="black" points="2246.07,-31.66 2235.51,-32.54 2244.31,-38.44 2246.07,-31.66"/>
</g>
<!-- RolesController&#45;&gt;GraphsController -->
<g id="edge47" class="edge">
<title>RolesController&#45;&gt;GraphsController</title>
<path fill="none" stroke="black" d="M1749.03,-2375.77C1731.56,-2274.25 1642.08,-1754.49 1620.63,-1629.88"/>
<polygon fill="black" stroke="black" points="1624.07,-1629.27 1618.93,-1620.01 1617.18,-1630.46 1624.07,-1629.27"/>
</g>
<!-- RolesController&#45;&gt;ResourcesController -->
<g id="edge49" class="edge">
<title>RolesController&#45;&gt;ResourcesController</title>
<path fill="none" stroke="black" d="M1755.45,-2375.82C1767.84,-2313.98 1810.25,-2102.47 1825.49,-2026.47"/>
<polygon fill="black" stroke="black" points="1829,-2026.77 1827.54,-2016.27 1822.14,-2025.39 1829,-2026.77"/>
</g>
<!-- SignupsController -->
<g id="node29" class="node">
<title>SignupsController</title>
<polygon fill="lightblue" stroke="white" points="1367,-2016 1243,-2016 1243,-1980 1367,-1980 1367,-2016"/>
<text text-anchor="middle" x="1305" y="-1994.3" font-family="Arial" font-size="14.00">SignupsController</text>
</g>
<!-- SignupsController&#45;&gt;ActsController -->
<g id="edge55" class="edge">
<title>SignupsController&#45;&gt;ActsController</title>
<path fill="none" stroke="black" d="M1289.6,-1979.85C1192.04,-1869.08 671.58,-1244.94 910,-792 1015.16,-592.22 1279.29,-477.87 1398.71,-434.86"/>
<polygon fill="black" stroke="black" points="1400.18,-438.05 1408.43,-431.4 1397.84,-431.45 1400.18,-438.05"/>
</g>
<!-- SignupsController&#45;&gt;GraphsController -->
<g id="edge56" class="edge">
<title>SignupsController&#45;&gt;GraphsController</title>
<path fill="none" stroke="black" d="M1318.56,-1979.82C1367.87,-1917.35 1537.76,-1702.12 1596.13,-1628.18"/>
<polygon fill="black" stroke="black" points="1598.92,-1630.29 1602.37,-1620.27 1593.42,-1625.95 1598.92,-1630.29"/>
</g>
<!-- TagsController -->
<g id="node30" class="node">
<title>TagsController</title>
<polygon fill="lightblue" stroke="white" points="2074,-2016 1970,-2016 1970,-1980 2074,-1980 2074,-2016"/>
<text text-anchor="middle" x="2022" y="-1994.3" font-family="Arial" font-size="14.00">TagsController</text>
</g>
<!-- TagsController&#45;&gt;ActsController -->
<g id="edge57" class="edge">
<title>TagsController&#45;&gt;ActsController</title>
<path fill="none" stroke="black" d="M2018.64,-1979.81C1996.83,-1870.01 1869.95,-1256.7 1669,-792 1609.3,-653.94 1514.09,-500.57 1475.78,-440.8"/>
<polygon fill="black" stroke="black" points="1478.48,-438.54 1470.13,-432.03 1472.6,-442.33 1478.48,-438.54"/>
</g>
<!-- TagsController&#45;&gt;ActorsController -->
<g id="edge59" class="edge">
<title>TagsController&#45;&gt;ActorsController</title>
<path fill="none" stroke="black" d="M2029.49,-1979.87C2065.14,-1896.68 2216,-1525.82 2216,-1207 2216,-1207 2216,-1207 2216,-809 2216,-509.6 2189.16,-147.08 2181.2,-46.19"/>
<polygon fill="black" stroke="black" points="2184.69,-45.91 2180.41,-36.22 2177.71,-46.47 2184.69,-45.91"/>
</g>
<!-- TagsController&#45;&gt;GraphsController -->
<g id="edge58" class="edge">
<title>TagsController&#45;&gt;GraphsController</title>
<path fill="none" stroke="black" d="M2004.29,-1979.82C1939.66,-1917.1 1716.33,-1700.37 1641.02,-1627.28"/>
<polygon fill="black" stroke="black" points="1643.41,-1624.73 1633.8,-1620.27 1638.54,-1629.75 1643.41,-1624.73"/>
</g>
<!-- UsersController -->
<g id="node31" class="node">
<title>UsersController</title>
<polygon fill="lightblue" stroke="white" points="2994,-2016 2884,-2016 2884,-1980 2994,-1980 2994,-2016"/>
<text text-anchor="middle" x="2939" y="-1994.3" font-family="Arial" font-size="14.00">UsersController</text>
</g>
<!-- UsersController&#45;&gt;ActorsController -->
<g id="edge61" class="edge">
<title>UsersController&#45;&gt;ActorsController</title>
<path fill="none" stroke="black" d="M2939,-1979.77C2939,-1895.34 2939,-1516.97 2939,-1207 2939,-1207 2939,-1207 2939,-809 2939,-622.6 2974.6,-547.5 2866,-396 2709.45,-177.6 2385.53,-71.79 2245.68,-34.85"/>
<polygon fill="black" stroke="black" points="2246.5,-31.44 2235.94,-32.3 2244.73,-38.21 2246.5,-31.44"/>
</g>
<!-- UsersController&#45;&gt;GraphsController -->
<g id="edge60" class="edge">
<title>UsersController&#45;&gt;GraphsController</title>
<path fill="none" stroke="black" d="M2883.84,-1980.57C2672.31,-1917.58 1913.34,-1691.55 1682.85,-1622.91"/>
<polygon fill="black" stroke="black" points="1683.83,-1619.55 1673.25,-1620.05 1681.83,-1626.26 1683.83,-1619.55"/>
</g>
<!-- RegistrationsController -->
<g id="node32" class="node">
<title>RegistrationsController</title>
<polygon fill="lightblue" stroke="white" points="3148,-1620 2994,-1620 2994,-1584 3148,-1584 3148,-1620"/>
<text text-anchor="middle" x="3071" y="-1598.3" font-family="Arial" font-size="14.00">RegistrationsController</text>
</g>
<!-- UsersController&#45;&gt;RegistrationsController -->
<g id="edge62" class="edge">
<title>UsersController&#45;&gt;RegistrationsController</title>
<path fill="none" stroke="black" d="M2944.76,-1979.82C2965.51,-1917.86 3036.63,-1705.6 3061.95,-1630"/>
<polygon fill="black" stroke="black" points="3065.35,-1630.87 3065.21,-1620.27 3058.72,-1628.64 3065.35,-1630.87"/>
</g>
<!-- ViewersController -->
<g id="node33" class="node">
<title>ViewersController</title>
<polygon fill="lightblue" stroke="white" points="2809.5,-432 2686.5,-432 2686.5,-396 2809.5,-396 2809.5,-432"/>
<text text-anchor="middle" x="2748" y="-410.3" font-family="Arial" font-size="14.00">ViewersController</text>
</g>
<!-- ViewersController&#45;&gt;ActorsController -->
<g id="edge63" class="edge">
<title>ViewersController&#45;&gt;ActorsController</title>
<path fill="none" stroke="black" d="M2723.18,-395.82C2632.05,-332.71 2315.73,-113.68 2212.13,-41.94"/>
<polygon fill="black" stroke="black" points="2213.84,-38.87 2203.63,-36.05 2209.85,-44.62 2213.84,-38.87"/>
</g>
</g>
</svg>
