<?xml version="1.0" encoding="UTF-8" standalone="no"?>
<!DOCTYPE svg PUBLIC "-//W3C//DTD SVG 1.1//EN"
 "http://www.w3.org/Graphics/SVG/1.1/DTD/svg11.dtd">
<!-- Generated by graphviz version 9.0.0 (20230911.1827)
 -->
<!-- Title: CallGraph Pages: 1 -->
<svg width="4303pt" height="440pt"
 viewBox="0.00 0.00 4302.50 440.00" xmlns="http://www.w3.org/2000/svg" xmlns:xlink="http://www.w3.org/1999/xlink">
<g id="graph0" class="graph" transform="scale(1 1) rotate(0) translate(4 436)">
<title>CallGraph</title>
<polygon fill="white" stroke="none" points="-4,4 -4,-436 4298.5,-436 4298.5,4 -4,4"/>
<!-- authorize_multiple -->
<g id="node1" class="node">
<title>authorize_multiple</title>
<polygon fill="lightblue" stroke="white" points="296.88,-36 166.88,-36 166.88,0 296.88,0 296.88,-36"/>
<text text-anchor="middle" x="231.88" y="-12.95" font-family="Arial" font-size="14.00">authorize_multiple</text>
</g>
<!-- authorize_group -->
<g id="node2" class="node">
<title>authorize_group</title>
<polygon fill="lightblue" stroke="white" points="1418.88,-36 1300.88,-36 1300.88,0 1418.88,0 1418.88,-36"/>
<text text-anchor="middle" x="1359.88" y="-12.95" font-family="Arial" font-size="14.00">authorize_group</text>
</g>
<!-- authorize_role -->
<g id="node3" class="node">
<title>authorize_role</title>
<polygon fill="lightblue" stroke="white" points="1991.5,-432 1886.25,-432 1886.25,-396 1991.5,-396 1991.5,-432"/>
<text text-anchor="middle" x="1938.88" y="-408.95" font-family="Arial" font-size="14.00">authorize_role</text>
</g>
<!-- user_is_actor_of -->
<g id="node4" class="node">
<title>user_is_actor_of</title>
<polygon fill="lightblue" stroke="white" points="900.5,-36 777.25,-36 777.25,0 900.5,0 900.5,-36"/>
<text text-anchor="middle" x="838.88" y="-12.95" font-family="Arial" font-size="14.00">user_is_actor_of</text>
</g>
<!-- group_is_actor_of -->
<g id="node5" class="node">
<title>group_is_actor_of</title>
<polygon fill="lightblue" stroke="white" points="1728,-36 1595.75,-36 1595.75,0 1728,0 1728,-36"/>
<text text-anchor="middle" x="1661.88" y="-12.95" font-family="Arial" font-size="14.00">group_is_actor_of</text>
</g>
<!-- wf_entity_in_accept_state -->
<g id="node6" class="node">
<title>wf_entity_in_accept_state</title>
<polygon fill="lightblue" stroke="white" points="2234,-36 2053.75,-36 2053.75,0 2234,0 2234,-36"/>
<text text-anchor="middle" x="2143.88" y="-12.95" font-family="Arial" font-size="14.00">wf_entity_in_accept_state</text>
</g>
<!-- push_user_to -->
<g id="node7" class="node">
<title>push_user_to</title>
<polygon fill="lightblue" stroke="white" points="609.38,-36 506.38,-36 506.38,0 609.38,0 609.38,-36"/>
<text text-anchor="middle" x="557.88" y="-12.95" font-family="Arial" font-size="14.00">push_user_to</text>
</g>
<!-- remove_user_from -->
<g id="node8" class="node">
<title>remove_user_from</title>
<polygon fill="lightblue" stroke="white" points="470.62,-36 333.12,-36 333.12,0 470.62,0 470.62,-36"/>
<text text-anchor="middle" x="401.88" y="-12.95" font-family="Arial" font-size="14.00">remove_user_from</text>
</g>
<!-- push_group_to -->
<g id="node9" class="node">
<title>push_group_to</title>
<polygon fill="lightblue" stroke="white" points="1080.88,-36 968.88,-36 968.88,0 1080.88,0 1080.88,-36"/>
<text text-anchor="middle" x="1024.88" y="-12.95" font-family="Arial" font-size="14.00">push_group_to</text>
</g>
<!-- remove_group_from -->
<g id="node10" class="node">
<title>remove_group_from</title>
<polygon fill="lightblue" stroke="white" points="1263.12,-36 1116.62,-36 1116.62,0 1263.12,0 1263.12,-36"/>
<text text-anchor="middle" x="1189.88" y="-12.95" font-family="Arial" font-size="14.00">remove_group_from</text>
</g>
<!-- user_accept -->
<g id="node11" class="node">
<title>user_accept</title>
<polygon fill="lightblue" stroke="white" points="2373.25,-36 2278.5,-36 2278.5,0 2373.25,0 2373.25,-36"/>
<text text-anchor="middle" x="2325.88" y="-12.95" font-family="Arial" font-size="14.00">user_accept</text>
</g>
<!-- user_reject -->
<g id="node12" class="node">
<title>user_reject</title>
<polygon fill="lightblue" stroke="white" points="2496.5,-36 2409.25,-36 2409.25,0 2496.5,0 2496.5,-36"/>
<text text-anchor="middle" x="2452.88" y="-12.95" font-family="Arial" font-size="14.00">user_reject</text>
</g>
<!-- admin_accept_instead_of -->
<g id="node13" class="node">
<title>admin_accept_instead_of</title>
<polygon fill="lightblue" stroke="white" points="2713,-36 2532.75,-36 2532.75,0 2713,0 2713,-36"/>
<text text-anchor="middle" x="2622.88" y="-12.95" font-family="Arial" font-size="14.00">admin_accept_instead_of</text>
</g>
<!-- admin_approve_instead_of -->
<g id="node14" class="node">
<title>admin_approve_instead_of</title>
<polygon fill="lightblue" stroke="white" points="2938.5,-36 2749.25,-36 2749.25,0 2938.5,0 2938.5,-36"/>
<text text-anchor="middle" x="2843.88" y="-12.95" font-family="Arial" font-size="14.00">admin_approve_instead_of</text>
</g>
<!-- admin_reject_instead_of -->
<g id="node15" class="node">
<title>admin_reject_instead_of</title>
<polygon fill="lightblue" stroke="white" points="3147.25,-36 2974.5,-36 2974.5,0 3147.25,0 3147.25,-36"/>
<text text-anchor="middle" x="3060.88" y="-12.95" font-family="Arial" font-size="14.00">admin_reject_instead_of</text>
</g>
<!-- admin_disapprove_instead_of -->
<g id="node16" class="node">
<title>admin_disapprove_instead_of</title>
<polygon fill="lightblue" stroke="white" points="3390.88,-36 3182.88,-36 3182.88,0 3390.88,0 3390.88,-36"/>
<text text-anchor="middle" x="3286.88" y="-12.95" font-family="Arial" font-size="14.00">admin_disapprove_instead_of</text>
</g>
<!-- wording -->
<g id="node17" class="node">
<title>wording</title>
<polygon fill="lightblue" stroke="white" points="710.62,-36 645.12,-36 645.12,0 710.62,0 710.62,-36"/>
<text text-anchor="middle" x="677.88" y="-12.95" font-family="Arial" font-size="14.00">wording</text>
</g>
<!-- create -->
<g id="node18" class="node">
<title>create</title>
<polygon fill="lightblue" stroke="white" points="433.75,-432 378,-432 378,-396 433.75,-396 433.75,-432"/>
<text text-anchor="middle" x="405.88" y="-408.95" font-family="Arial" font-size="14.00">create</text>
</g>
<!-- create&#45;&gt;authorize_multiple -->
<g id="edge1" class="edge">
<title>create&#45;&gt;authorize_multiple</title>
<path fill="none" stroke="black" d="M398.17,-395.56C370.72,-333.39 277.48,-122.26 243.98,-46.41"/>
<polygon fill="black" stroke="black" points="247.34,-45.35 240.1,-37.62 240.94,-48.18 247.34,-45.35"/>
</g>
<!-- create&#45;&gt;push_user_to -->
<g id="edge2" class="edge">
<title>create&#45;&gt;push_user_to</title>
<path fill="none" stroke="black" d="M412.6,-395.56C436.54,-333.52 517.71,-123.12 547.12,-46.88"/>
<polygon fill="black" stroke="black" points="550.35,-48.24 550.68,-37.65 543.82,-45.72 550.35,-48.24"/>
</g>
<!-- create&#45;&gt;remove_user_from -->
<g id="edge4" class="edge">
<title>create&#45;&gt;remove_user_from</title>
<path fill="none" stroke="black" d="M405.7,-395.56C405.07,-333.64 402.94,-123.98 402.16,-47.35"/>
<polygon fill="black" stroke="black" points="405.67,-47.71 402.07,-37.75 398.67,-47.79 405.67,-47.71"/>
</g>
<!-- create&#45;&gt;wording -->
<g id="edge3" class="edge">
<title>create&#45;&gt;wording</title>
<path fill="none" stroke="black" d="M417.91,-395.56C461.01,-333.13 607.79,-120.52 659.59,-45.49"/>
<polygon fill="black" stroke="black" points="662.31,-47.7 665.12,-37.48 656.55,-43.72 662.31,-47.7"/>
</g>
<!-- create_group -->
<g id="node19" class="node">
<title>create_group</title>
<polygon fill="lightblue" stroke="white" points="1095.25,-432 994.5,-432 994.5,-396 1095.25,-396 1095.25,-432"/>
<text text-anchor="middle" x="1044.88" y="-408.95" font-family="Arial" font-size="14.00">create_group</text>
</g>
<!-- create_group&#45;&gt;authorize_group -->
<g id="edge5" class="edge">
<title>create_group&#45;&gt;authorize_group</title>
<path fill="none" stroke="black" d="M1058.82,-395.56C1108.83,-333.01 1279.4,-119.65 1339.07,-45.03"/>
<polygon fill="black" stroke="black" points="1341.64,-47.42 1345.15,-37.42 1336.17,-43.04 1341.64,-47.42"/>
</g>
<!-- create_group&#45;&gt;push_group_to -->
<g id="edge6" class="edge">
<title>create_group&#45;&gt;push_group_to</title>
<path fill="none" stroke="black" d="M1043.99,-395.56C1040.85,-333.64 1030.2,-123.98 1026.31,-47.35"/>
<polygon fill="black" stroke="black" points="1029.83,-47.56 1025.83,-37.75 1022.84,-47.91 1029.83,-47.56"/>
</g>
<!-- destroy -->
<g id="node20" class="node">
<title>destroy</title>
<polygon fill="lightblue" stroke="white" points="549.5,-432 486.25,-432 486.25,-396 549.5,-396 549.5,-432"/>
<text text-anchor="middle" x="517.88" y="-408.95" font-family="Arial" font-size="14.00">destroy</text>
</g>
<!-- destroy&#45;&gt;authorize_multiple -->
<g id="edge7" class="edge">
<title>destroy&#45;&gt;authorize_multiple</title>
<path fill="none" stroke="black" d="M505.22,-395.56C459.9,-333.13 305.57,-120.52 251.1,-45.49"/>
<polygon fill="black" stroke="black" points="253.98,-43.5 245.28,-37.46 248.32,-47.61 253.98,-43.5"/>
</g>
<!-- destroy&#45;&gt;push_user_to -->
<g id="edge10" class="edge">
<title>destroy&#45;&gt;push_user_to</title>
<path fill="none" stroke="black" d="M519.65,-395.56C525.93,-333.64 547.22,-123.98 555,-47.35"/>
<polygon fill="black" stroke="black" points="558.44,-48.04 555.97,-37.74 551.48,-47.34 558.44,-48.04"/>
</g>
<!-- destroy&#45;&gt;remove_user_from -->
<g id="edge8" class="edge">
<title>destroy&#45;&gt;remove_user_from</title>
<path fill="none" stroke="black" d="M512.74,-395.56C494.47,-333.52 432.53,-123.12 410.08,-46.88"/>
<polygon fill="black" stroke="black" points="413.56,-46.29 407.38,-37.69 406.84,-48.27 413.56,-46.29"/>
</g>
<!-- destroy&#45;&gt;wording -->
<g id="edge9" class="edge">
<title>destroy&#45;&gt;wording</title>
<path fill="none" stroke="black" d="M524.96,-395.56C550.15,-333.52 635.59,-123.12 666.55,-46.88"/>
<polygon fill="black" stroke="black" points="669.79,-48.22 670.31,-37.64 663.3,-45.59 669.79,-48.22"/>
</g>
<!-- destroy_group -->
<g id="node21" class="node">
<title>destroy_group</title>
<polygon fill="lightblue" stroke="white" points="1242,-432 1133.75,-432 1133.75,-396 1242,-396 1242,-432"/>
<text text-anchor="middle" x="1187.88" y="-408.95" font-family="Arial" font-size="14.00">destroy_group</text>
</g>
<!-- destroy_group&#45;&gt;authorize_group -->
<g id="edge11" class="edge">
<title>destroy_group&#45;&gt;authorize_group</title>
<path fill="none" stroke="black" d="M1195.49,-395.56C1222.63,-333.39 1314.8,-122.26 1347.91,-46.41"/>
<polygon fill="black" stroke="black" points="1350.95,-48.19 1351.74,-37.62 1344.54,-45.39 1350.95,-48.19"/>
</g>
<!-- destroy_group&#45;&gt;remove_group_from -->
<g id="edge12" class="edge">
<title>destroy_group&#45;&gt;remove_group_from</title>
<path fill="none" stroke="black" d="M1187.96,-395.56C1188.28,-333.64 1189.34,-123.98 1189.73,-47.35"/>
<polygon fill="black" stroke="black" points="1193.23,-47.77 1189.78,-37.75 1186.23,-47.73 1193.23,-47.77"/>
</g>
<!-- accept -->
<g id="node22" class="node">
<title>accept</title>
<polygon fill="lightblue" stroke="white" points="2355.25,-432 2296.5,-432 2296.5,-396 2355.25,-396 2355.25,-432"/>
<text text-anchor="middle" x="2325.88" y="-408.95" font-family="Arial" font-size="14.00">accept</text>
</g>
<!-- accept&#45;&gt;user_accept -->
<g id="edge13" class="edge">
<title>accept&#45;&gt;user_accept</title>
<path fill="none" stroke="black" d="M2325.88,-395.56C2325.88,-333.64 2325.88,-123.98 2325.88,-47.35"/>
<polygon fill="black" stroke="black" points="2329.38,-47.75 2325.88,-37.75 2322.38,-47.75 2329.38,-47.75"/>
</g>
<!-- admin_accept -->
<g id="node23" class="node">
<title>admin_accept</title>
<polygon fill="lightblue" stroke="white" points="2675.5,-432 2570.25,-432 2570.25,-396 2675.5,-396 2675.5,-432"/>
<text text-anchor="middle" x="2622.88" y="-408.95" font-family="Arial" font-size="14.00">admin_accept</text>
</g>
<!-- admin_accept&#45;&gt;admin_accept_instead_of -->
<g id="edge14" class="edge">
<title>admin_accept&#45;&gt;admin_accept_instead_of</title>
<path fill="none" stroke="black" d="M2622.88,-395.56C2622.88,-333.64 2622.88,-123.98 2622.88,-47.35"/>
<polygon fill="black" stroke="black" points="2626.38,-47.75 2622.88,-37.75 2619.38,-47.75 2626.38,-47.75"/>
</g>
<!-- admin_approve -->
<g id="node24" class="node">
<title>admin_approve</title>
<polygon fill="lightblue" stroke="white" points="2901,-432 2786.75,-432 2786.75,-396 2901,-396 2901,-432"/>
<text text-anchor="middle" x="2843.88" y="-408.95" font-family="Arial" font-size="14.00">admin_approve</text>
</g>
<!-- admin_approve&#45;&gt;admin_approve_instead_of -->
<g id="edge15" class="edge">
<title>admin_approve&#45;&gt;admin_approve_instead_of</title>
<path fill="none" stroke="black" d="M2843.88,-395.56C2843.88,-333.64 2843.88,-123.98 2843.88,-47.35"/>
<polygon fill="black" stroke="black" points="2847.38,-47.75 2843.88,-37.75 2840.38,-47.75 2847.38,-47.75"/>
</g>
<!-- reject -->
<g id="node25" class="node">
<title>reject</title>
<polygon fill="lightblue" stroke="white" points="2479.88,-432 2425.88,-432 2425.88,-396 2479.88,-396 2479.88,-432"/>
<text text-anchor="middle" x="2452.88" y="-408.95" font-family="Arial" font-size="14.00">reject</text>
</g>
<!-- reject&#45;&gt;user_reject -->
<g id="edge16" class="edge">
<title>reject&#45;&gt;user_reject</title>
<path fill="none" stroke="black" d="M2452.88,-395.56C2452.88,-333.64 2452.88,-123.98 2452.88,-47.35"/>
<polygon fill="black" stroke="black" points="2456.38,-47.75 2452.88,-37.75 2449.38,-47.75 2456.38,-47.75"/>
</g>
<!-- admin_reject -->
<g id="node26" class="node">
<title>admin_reject</title>
<polygon fill="lightblue" stroke="white" points="3109.75,-432 3012,-432 3012,-396 3109.75,-396 3109.75,-432"/>
<text text-anchor="middle" x="3060.88" y="-408.95" font-family="Arial" font-size="14.00">admin_reject</text>
</g>
<!-- admin_reject&#45;&gt;admin_reject_instead_of -->
<g id="edge17" class="edge">
<title>admin_reject&#45;&gt;admin_reject_instead_of</title>
<path fill="none" stroke="black" d="M3060.88,-395.56C3060.88,-333.64 3060.88,-123.98 3060.88,-47.35"/>
<polygon fill="black" stroke="black" points="3064.38,-47.75 3060.88,-37.75 3057.38,-47.75 3064.38,-47.75"/>
</g>
<!-- admin_disapprove -->
<g id="node27" class="node">
<title>admin_disapprove</title>
<polygon fill="lightblue" stroke="white" points="3353.38,-432 3220.38,-432 3220.38,-396 3353.38,-396 3353.38,-432"/>
<text text-anchor="middle" x="3286.88" y="-408.95" font-family="Arial" font-size="14.00">admin_disapprove</text>
</g>
<!-- admin_disapprove&#45;&gt;admin_disapprove_instead_of -->
<g id="edge18" class="edge">
<title>admin_disapprove&#45;&gt;admin_disapprove_instead_of</title>
<path fill="none" stroke="black" d="M3286.88,-395.56C3286.88,-333.64 3286.88,-123.98 3286.88,-47.35"/>
<polygon fill="black" stroke="black" points="3290.38,-47.75 3286.88,-37.75 3283.38,-47.75 3290.38,-47.75"/>
</g>
<!-- find_wf_entity -->
<g id="node28" class="node">
<title>find_wf_entity</title>
<polygon fill="lightblue" stroke="white" points="3492.38,-432 3389.38,-432 3389.38,-396 3492.38,-396 3492.38,-432"/>
<text text-anchor="middle" x="3440.88" y="-408.95" font-family="Arial" font-size="14.00">find_wf_entity</text>
</g>
<!-- require_wf_entity_in_edition -->
<g id="node29" class="node">
<title>require_wf_entity_in_edition</title>
<polygon fill="lightblue" stroke="white" points="3721.38,-432 3528.38,-432 3528.38,-396 3721.38,-396 3721.38,-432"/>
<text text-anchor="middle" x="3624.88" y="-408.95" font-family="Arial" font-size="14.00">require_wf_entity_in_edition</text>
</g>
<!-- check_authorize_multiple -->
<g id="node30" class="node">
<title>check_authorize_multiple</title>
<polygon fill="lightblue" stroke="white" points="175.75,-432 0,-432 0,-396 175.75,-396 175.75,-432"/>
<text text-anchor="middle" x="87.88" y="-408.95" font-family="Arial" font-size="14.00">check_authorize_multiple</text>
</g>
<!-- check_authorize_multiple&#45;&gt;authorize_multiple -->
<g id="edge19" class="edge">
<title>check_authorize_multiple&#45;&gt;authorize_multiple</title>
<path fill="none" stroke="black" d="M94.25,-395.56C116.92,-333.52 193.82,-123.12 221.69,-46.88"/>
<polygon fill="black" stroke="black" points="224.91,-48.25 225.06,-37.66 218.34,-45.85 224.91,-48.25"/>
</g>
<!-- find_users -->
<g id="node31" class="node">
<title>find_users</title>
<polygon fill="lightblue" stroke="white" points="294.25,-432 211.5,-432 211.5,-396 294.25,-396 294.25,-432"/>
<text text-anchor="middle" x="252.88" y="-408.95" font-family="Arial" font-size="14.00">find_users</text>
</g>
<!-- find_users&#45;&gt;authorize_multiple -->
<g id="edge20" class="edge">
<title>find_users&#45;&gt;authorize_multiple</title>
<path fill="none" stroke="black" d="M251.95,-395.56C248.65,-333.64 237.47,-123.98 233.39,-47.35"/>
<polygon fill="black" stroke="black" points="236.9,-47.55 232.87,-37.75 229.91,-47.92 236.9,-47.55"/>
</g>
<!-- check_authorize_group -->
<g id="node32" class="node">
<title>check_authorize_group</title>
<polygon fill="lightblue" stroke="white" points="1441.75,-432 1278,-432 1278,-396 1441.75,-396 1441.75,-432"/>
<text text-anchor="middle" x="1359.88" y="-408.95" font-family="Arial" font-size="14.00">check_authorize_group</text>
</g>
<!-- check_authorize_group&#45;&gt;authorize_group -->
<g id="edge21" class="edge">
<title>check_authorize_group&#45;&gt;authorize_group</title>
<path fill="none" stroke="black" d="M1359.88,-395.56C1359.88,-333.64 1359.88,-123.98 1359.88,-47.35"/>
<polygon fill="black" stroke="black" points="1363.38,-47.75 1359.88,-37.75 1356.38,-47.75 1363.38,-47.75"/>
</g>
<!-- find_group -->
<g id="node33" class="node">
<title>find_group</title>
<polygon fill="lightblue" stroke="white" points="3842,-432 3757.75,-432 3757.75,-396 3842,-396 3842,-432"/>
<text text-anchor="middle" x="3799.88" y="-408.95" font-family="Arial" font-size="14.00">find_group</text>
</g>
<!-- filter_users_not_actors -->
<g id="node34" class="node">
<title>filter_users_not_actors</title>
<polygon fill="lightblue" stroke="white" points="754.62,-432 593.12,-432 593.12,-396 754.62,-396 754.62,-432"/>
<text text-anchor="middle" x="673.88" y="-408.95" font-family="Arial" font-size="14.00">filter_users_not_actors</text>
</g>
<!-- filter_users_not_actors&#45;&gt;user_is_actor_of -->
<g id="edge22" class="edge">
<title>filter_users_not_actors&#45;&gt;user_is_actor_of</title>
<path fill="none" stroke="black" d="M681.18,-395.56C707.21,-333.39 795.63,-122.26 827.4,-46.41"/>
<polygon fill="black" stroke="black" points="830.44,-48.21 831.07,-37.63 823.98,-45.5 830.44,-48.21"/>
</g>
<!-- filter_users_not_actors&#45;&gt;wording -->
<g id="edge23" class="edge">
<title>filter_users_not_actors&#45;&gt;wording</title>
<path fill="none" stroke="black" d="M674.05,-395.56C674.68,-333.64 676.81,-123.98 677.59,-47.35"/>
<polygon fill="black" stroke="black" points="681.08,-47.79 677.68,-37.75 674.08,-47.71 681.08,-47.79"/>
</g>
<!-- require_group_not_actor -->
<g id="node35" class="node">
<title>require_group_not_actor</title>
<polygon fill="lightblue" stroke="white" points="1850.25,-432 1677.5,-432 1677.5,-396 1850.25,-396 1850.25,-432"/>
<text text-anchor="middle" x="1763.88" y="-408.95" font-family="Arial" font-size="14.00">require_group_not_actor</text>
</g>
<!-- require_group_not_actor&#45;&gt;authorize_group -->
<g id="edge24" class="edge">
<title>require_group_not_actor&#45;&gt;authorize_group</title>
<path fill="none" stroke="black" d="M1745.99,-395.56C1681.59,-332.75 1461.3,-117.91 1385.64,-44.12"/>
<polygon fill="black" stroke="black" points="1388.24,-41.77 1378.63,-37.29 1383.35,-46.78 1388.24,-41.77"/>
</g>
<!-- require_group_not_actor&#45;&gt;group_is_actor_of -->
<g id="edge25" class="edge">
<title>require_group_not_actor&#45;&gt;group_is_actor_of</title>
<path fill="none" stroke="black" d="M1759.36,-395.56C1743.33,-333.64 1689.05,-123.98 1669.21,-47.35"/>
<polygon fill="black" stroke="black" points="1672.61,-46.51 1666.72,-37.7 1665.83,-48.26 1672.61,-46.51"/>
</g>
<!-- require_group_is_actor -->
<g id="node36" class="node">
<title>require_group_is_actor</title>
<polygon fill="lightblue" stroke="white" points="1641.75,-432 1478,-432 1478,-396 1641.75,-396 1641.75,-432"/>
<text text-anchor="middle" x="1559.88" y="-408.95" font-family="Arial" font-size="14.00">require_group_is_actor</text>
</g>
<!-- require_group_is_actor&#45;&gt;authorize_group -->
<g id="edge26" class="edge">
<title>require_group_is_actor&#45;&gt;authorize_group</title>
<path fill="none" stroke="black" d="M1551.02,-395.56C1519.46,-333.39 1412.29,-122.26 1373.79,-46.41"/>
<polygon fill="black" stroke="black" points="1376.96,-44.92 1369.31,-37.59 1370.72,-48.09 1376.96,-44.92"/>
</g>
<!-- require_group_is_actor&#45;&gt;group_is_actor_of -->
<g id="edge27" class="edge">
<title>require_group_is_actor&#45;&gt;group_is_actor_of</title>
<path fill="none" stroke="black" d="M1564.39,-395.56C1580.42,-333.64 1634.7,-123.98 1654.54,-47.35"/>
<polygon fill="black" stroke="black" points="1657.92,-48.26 1657.03,-37.7 1651.14,-46.51 1657.92,-48.26"/>
</g>
<!-- filter_users_are_actors -->
<g id="node37" class="node">
<title>filter_users_are_actors</title>
<polygon fill="lightblue" stroke="white" points="953,-432 790.75,-432 790.75,-396 953,-396 953,-432"/>
<text text-anchor="middle" x="871.88" y="-408.95" font-family="Arial" font-size="14.00">filter_users_are_actors</text>
</g>
<!-- filter_users_are_actors&#45;&gt;user_is_actor_of -->
<g id="edge28" class="edge">
<title>filter_users_are_actors&#45;&gt;user_is_actor_of</title>
<path fill="none" stroke="black" d="M870.41,-395.56C865.23,-333.64 847.67,-123.98 841.25,-47.35"/>
<polygon fill="black" stroke="black" points="844.77,-47.42 840.45,-37.74 837.79,-48 844.77,-47.42"/>
</g>
<!-- filter_users_are_actors&#45;&gt;wording -->
<g id="edge29" class="edge">
<title>filter_users_are_actors&#45;&gt;wording</title>
<path fill="none" stroke="black" d="M863.29,-395.56C832.68,-333.39 728.72,-122.26 691.37,-46.41"/>
<polygon fill="black" stroke="black" points="694.59,-45.02 687.03,-37.59 688.31,-48.11 694.59,-45.02"/>
</g>
<!-- require_wf_entity_in_accept_state -->
<g id="node38" class="node">
<title>require_wf_entity_in_accept_state</title>
<polygon fill="lightblue" stroke="white" points="2260.25,-432 2027.5,-432 2027.5,-396 2260.25,-396 2260.25,-432"/>
<text text-anchor="middle" x="2143.88" y="-408.95" font-family="Arial" font-size="14.00">require_wf_entity_in_accept_state</text>
</g>
<!-- require_wf_entity_in_accept_state&#45;&gt;wf_entity_in_accept_state -->
<g id="edge30" class="edge">
<title>require_wf_entity_in_accept_state&#45;&gt;wf_entity_in_accept_state</title>
<path fill="none" stroke="black" d="M2143.88,-395.56C2143.88,-333.64 2143.88,-123.98 2143.88,-47.35"/>
<polygon fill="black" stroke="black" points="2147.38,-47.75 2143.88,-37.75 2140.38,-47.75 2147.38,-47.75"/>
</g>
<!-- require_user_is_current -->
<g id="node39" class="node">
<title>require_user_is_current</title>
<polygon fill="lightblue" stroke="white" points="4045.25,-432 3878.5,-432 3878.5,-396 4045.25,-396 4045.25,-432"/>
<text text-anchor="middle" x="3961.88" y="-408.95" font-family="Arial" font-size="14.00">require_user_is_current</text>
</g>
<!-- require_current_user_is_admin -->
<g id="node40" class="node">
<title>require_current_user_is_admin</title>
<polygon fill="lightblue" stroke="white" points="4294.5,-432 4081.25,-432 4081.25,-396 4294.5,-396 4294.5,-432"/>
<text text-anchor="middle" x="4187.88" y="-408.95" font-family="Arial" font-size="14.00">require_current_user_is_admin</text>
</g>
</g>
</svg>
