<?xml version="1.0" encoding="UTF-8" standalone="no"?>
<!DOCTYPE svg PUBLIC "-//W3C//DTD SVG 1.1//EN"
 "http://www.w3.org/Graphics/SVG/1.1/DTD/svg11.dtd">
<!-- Generated by graphviz version 9.0.0 (20230911.1827)
 -->
<!-- Title: CallGraph Pages: 1 -->
<svg width="1076pt" height="497pt"
 viewBox="0.00 0.00 1076.00 496.69" xmlns="http://www.w3.org/2000/svg" xmlns:xlink="http://www.w3.org/1999/xlink">
<g id="graph0" class="graph" transform="scale(1 1) rotate(0) translate(4 492.69)">
<title>CallGraph</title>
<polygon fill="white" stroke="none" points="-4,4 -4,-492.69 1072,-492.69 1072,4 -4,4"/>
<!-- index -->
<g id="node1" class="node">
<title>index</title>
<polygon fill="lightblue" stroke="white" points="54,-432 0,-432 0,-396 54,-396 54,-432"/>
<text text-anchor="middle" x="27" y="-408.95" font-family="Arial" font-size="14.00">index</text>
</g>
<!-- new -->
<g id="node2" class="node">
<title>new</title>
<polygon fill="lightblue" stroke="white" points="144,-432 90,-432 90,-396 144,-396 144,-432"/>
<text text-anchor="middle" x="117" y="-408.95" font-family="Arial" font-size="14.00">new</text>
</g>
<!-- create -->
<g id="node3" class="node">
<title>create</title>
<polygon fill="lightblue" stroke="white" points="235.88,-432 180.12,-432 180.12,-396 235.88,-396 235.88,-432"/>
<text text-anchor="middle" x="208" y="-408.95" font-family="Arial" font-size="14.00">create</text>
</g>
<!-- act_params -->
<g id="node4" class="node">
<title>act_params</title>
<polygon fill="lightblue" stroke="white" points="300.12,-36 209.88,-36 209.88,0 300.12,0 300.12,-36"/>
<text text-anchor="middle" x="255" y="-12.95" font-family="Arial" font-size="14.00">act_params</text>
</g>
<!-- create&#45;&gt;act_params -->
<g id="edge1" class="edge">
<title>create&#45;&gt;act_params</title>
<path fill="none" stroke="black" d="M210.08,-395.56C217.47,-333.64 242.48,-123.98 251.62,-47.35"/>
<polygon fill="black" stroke="black" points="255.06,-48.08 252.76,-37.74 248.1,-47.25 255.06,-48.08"/>
</g>
<!-- show -->
<g id="node5" class="node">
<title>show</title>
<polygon fill="lightblue" stroke="white" points="422,-432 368,-432 368,-396 422,-396 422,-432"/>
<text text-anchor="middle" x="395" y="-408.95" font-family="Arial" font-size="14.00">show</text>
</g>
<!-- update -->
<g id="node6" class="node">
<title>update</title>
<polygon fill="lightblue" stroke="white" points="331.75,-432 272.25,-432 272.25,-396 331.75,-396 331.75,-432"/>
<text text-anchor="middle" x="302" y="-408.95" font-family="Arial" font-size="14.00">update</text>
</g>
<!-- update&#45;&gt;act_params -->
<g id="edge2" class="edge">
<title>update&#45;&gt;act_params</title>
<path fill="none" stroke="black" d="M299.92,-395.56C292.53,-333.64 267.52,-123.98 258.38,-47.35"/>
<polygon fill="black" stroke="black" points="261.9,-47.25 257.24,-37.74 254.94,-48.08 261.9,-47.25"/>
</g>
<!-- update_workflow -->
<g id="node7" class="node">
<title>update_workflow</title>
<polygon fill="lightblue" stroke="white" points="580.25,-432 457.75,-432 457.75,-396 580.25,-396 580.25,-432"/>
<text text-anchor="middle" x="519" y="-408.95" font-family="Arial" font-size="14.00">update_workflow</text>
</g>
<!-- validator_response -->
<g id="node8" class="node">
<title>validator_response</title>
<polygon fill="lightblue" stroke="white" points="587.38,-36 450.62,-36 450.62,0 587.38,0 587.38,-36"/>
<text text-anchor="middle" x="519" y="-12.95" font-family="Arial" font-size="14.00">validator_response</text>
</g>
<!-- update_workflow&#45;&gt;validator_response -->
<g id="edge3" class="edge">
<title>update_workflow&#45;&gt;validator_response</title>
<path fill="none" stroke="black" d="M519,-395.56C519,-333.64 519,-123.98 519,-47.35"/>
<polygon fill="black" stroke="black" points="522.5,-47.75 519,-37.75 515.5,-47.75 522.5,-47.75"/>
</g>
<!-- update_responsibilities -->
<g id="node9" class="node">
<title>update_responsibilities</title>
<polygon fill="lightblue" stroke="white" points="778.12,-432 615.88,-432 615.88,-396 778.12,-396 778.12,-432"/>
<text text-anchor="middle" x="697" y="-408.95" font-family="Arial" font-size="14.00">update_responsibilities</text>
</g>
<!-- destroy -->
<g id="node10" class="node">
<title>destroy</title>
<polygon fill="lightblue" stroke="white" points="877.62,-432 814.38,-432 814.38,-396 877.62,-396 877.62,-432"/>
<text text-anchor="middle" x="846" y="-408.95" font-family="Arial" font-size="14.00">destroy</text>
</g>
<!-- destroy&#45;&gt;destroy -->
<g id="edge4" class="edge">
<title>destroy&#45;&gt;destroy</title>
<path fill="none" stroke="black" d="M850.77,-432.41C874.33,-512.56 913.62,-506.43 913.62,-414 913.62,-325.91 877.93,-316.2 854.18,-384.88"/>
<polygon fill="black" stroke="black" points="850.93,-383.55 851.23,-394.14 857.6,-385.68 850.93,-383.55"/>
</g>
<!-- comment_required -->
<g id="node11" class="node">
<title>comment_required</title>
<polygon fill="lightblue" stroke="white" points="1068,-432 932,-432 932,-396 1068,-396 1068,-432"/>
<text text-anchor="middle" x="1000" y="-408.95" font-family="Arial" font-size="14.00">comment_required</text>
</g>
</g>
</svg>
