<?xml version="1.0" encoding="UTF-8" standalone="no"?>
<!DOCTYPE svg PUBLIC "-//W3C//DTD SVG 1.1//EN"
 "http://www.w3.org/Graphics/SVG/1.1/DTD/svg11.dtd">
<!-- Generated by graphviz version 9.0.0 (20230911.1827)
 -->
<!-- Title: CallGraph Pages: 1 -->
<svg width="4294pt" height="440pt"
 viewBox="0.00 0.00 4293.50 440.00" xmlns="http://www.w3.org/2000/svg" xmlns:xlink="http://www.w3.org/1999/xlink">
<g id="graph0" class="graph" transform="scale(1 1) rotate(0) translate(4 436)">
<title>CallGraph</title>
<polygon fill="white" stroke="none" points="-4,4 -4,-436 4289.5,-436 4289.5,4 -4,4"/>
<!-- authorize_multiple -->
<g id="node1" class="node">
<title>authorize_multiple</title>
<polygon fill="lightblue" stroke="white" points="303.88,-36 173.88,-36 173.88,0 303.88,0 303.88,-36"/>
<text text-anchor="middle" x="238.88" y="-12.95" font-family="Arial" font-size="14.00">authorize_multiple</text>
</g>
<!-- authorize_group -->
<g id="node2" class="node">
<title>authorize_group</title>
<polygon fill="lightblue" stroke="white" points="2771.88,-36 2653.88,-36 2653.88,0 2771.88,0 2771.88,-36"/>
<text text-anchor="middle" x="2712.88" y="-12.95" font-family="Arial" font-size="14.00">authorize_group</text>
</g>
<!-- authorize_role -->
<g id="node3" class="node">
<title>authorize_role</title>
<polygon fill="lightblue" stroke="white" points="3344.5,-432 3239.25,-432 3239.25,-396 3344.5,-396 3344.5,-432"/>
<text text-anchor="middle" x="3291.88" y="-408.95" font-family="Arial" font-size="14.00">authorize_role</text>
</g>
<!-- user_is_actor_of -->
<g id="node4" class="node">
<title>user_is_actor_of</title>
<polygon fill="lightblue" stroke="white" points="2025.5,-36 1902.25,-36 1902.25,0 2025.5,0 2025.5,-36"/>
<text text-anchor="middle" x="1963.88" y="-12.95" font-family="Arial" font-size="14.00">user_is_actor_of</text>
</g>
<!-- group_is_actor_of -->
<g id="node5" class="node">
<title>group_is_actor_of</title>
<polygon fill="lightblue" stroke="white" points="2962,-36 2829.75,-36 2829.75,0 2962,0 2962,-36"/>
<text text-anchor="middle" x="2895.88" y="-12.95" font-family="Arial" font-size="14.00">group_is_actor_of</text>
</g>
<!-- wf_entity_in_accept_state -->
<g id="node6" class="node">
<title>wf_entity_in_accept_state</title>
<polygon fill="lightblue" stroke="white" points="2287,-36 2106.75,-36 2106.75,0 2287,0 2287,-36"/>
<text text-anchor="middle" x="2196.88" y="-12.95" font-family="Arial" font-size="14.00">wf_entity_in_accept_state</text>
</g>
<!-- push_user_to -->
<g id="node7" class="node">
<title>push_user_to</title>
<polygon fill="lightblue" stroke="white" points="443.38,-36 340.38,-36 340.38,0 443.38,0 443.38,-36"/>
<text text-anchor="middle" x="391.88" y="-12.95" font-family="Arial" font-size="14.00">push_user_to</text>
</g>
<!-- remove_user_from -->
<g id="node8" class="node">
<title>remove_user_from</title>
<polygon fill="lightblue" stroke="white" points="616.62,-36 479.12,-36 479.12,0 616.62,0 616.62,-36"/>
<text text-anchor="middle" x="547.88" y="-12.95" font-family="Arial" font-size="14.00">remove_user_from</text>
</g>
<!-- push_group_to -->
<g id="node9" class="node">
<title>push_group_to</title>
<polygon fill="lightblue" stroke="white" points="2617.88,-36 2505.88,-36 2505.88,0 2617.88,0 2617.88,-36"/>
<text text-anchor="middle" x="2561.88" y="-12.95" font-family="Arial" font-size="14.00">push_group_to</text>
</g>
<!-- remove_group_from -->
<g id="node10" class="node">
<title>remove_group_from</title>
<polygon fill="lightblue" stroke="white" points="2470.12,-36 2323.62,-36 2323.62,0 2470.12,0 2470.12,-36"/>
<text text-anchor="middle" x="2396.88" y="-12.95" font-family="Arial" font-size="14.00">remove_group_from</text>
</g>
<!-- user_accept -->
<g id="node11" class="node">
<title>user_accept</title>
<polygon fill="lightblue" stroke="white" points="747.25,-36 652.5,-36 652.5,0 747.25,0 747.25,-36"/>
<text text-anchor="middle" x="699.88" y="-12.95" font-family="Arial" font-size="14.00">user_accept</text>
</g>
<!-- user_reject -->
<g id="node12" class="node">
<title>user_reject</title>
<polygon fill="lightblue" stroke="white" points="1312.5,-36 1225.25,-36 1225.25,0 1312.5,0 1312.5,-36"/>
<text text-anchor="middle" x="1268.88" y="-12.95" font-family="Arial" font-size="14.00">user_reject</text>
</g>
<!-- admin_accept_instead_of -->
<g id="node13" class="node">
<title>admin_accept_instead_of</title>
<polygon fill="lightblue" stroke="white" points="964,-36 783.75,-36 783.75,0 964,0 964,-36"/>
<text text-anchor="middle" x="873.88" y="-12.95" font-family="Arial" font-size="14.00">admin_accept_instead_of</text>
</g>
<!-- admin_approve_instead_of -->
<g id="node14" class="node">
<title>admin_approve_instead_of</title>
<polygon fill="lightblue" stroke="white" points="1189.5,-36 1000.25,-36 1000.25,0 1189.5,0 1189.5,-36"/>
<text text-anchor="middle" x="1094.88" y="-12.95" font-family="Arial" font-size="14.00">admin_approve_instead_of</text>
</g>
<!-- admin_reject_instead_of -->
<g id="node15" class="node">
<title>admin_reject_instead_of</title>
<polygon fill="lightblue" stroke="white" points="1521.25,-36 1348.5,-36 1348.5,0 1521.25,0 1521.25,-36"/>
<text text-anchor="middle" x="1434.88" y="-12.95" font-family="Arial" font-size="14.00">admin_reject_instead_of</text>
</g>
<!-- admin_disapprove_instead_of -->
<g id="node16" class="node">
<title>admin_disapprove_instead_of</title>
<polygon fill="lightblue" stroke="white" points="1764.88,-36 1556.88,-36 1556.88,0 1764.88,0 1764.88,-36"/>
<text text-anchor="middle" x="1660.88" y="-12.95" font-family="Arial" font-size="14.00">admin_disapprove_instead_of</text>
</g>
<!-- wording -->
<g id="node17" class="node">
<title>wording</title>
<polygon fill="lightblue" stroke="white" points="1866.62,-36 1801.12,-36 1801.12,0 1866.62,0 1866.62,-36"/>
<text text-anchor="middle" x="1833.88" y="-12.95" font-family="Arial" font-size="14.00">wording</text>
</g>
<!-- create -->
<g id="node18" class="node">
<title>create</title>
<polygon fill="lightblue" stroke="white" points="439.75,-432 384,-432 384,-396 439.75,-396 439.75,-432"/>
<text text-anchor="middle" x="411.88" y="-408.95" font-family="Arial" font-size="14.00">create</text>
</g>
<!-- create&#45;&gt;authorize_multiple -->
<g id="edge1" class="edge">
<title>create&#45;&gt;authorize_multiple</title>
<path fill="none" stroke="black" d="M404.22,-395.56C376.92,-333.39 284.21,-122.26 250.91,-46.41"/>
<polygon fill="black" stroke="black" points="254.28,-45.37 247.05,-37.62 247.87,-48.19 254.28,-45.37"/>
</g>
<!-- create&#45;&gt;push_user_to -->
<g id="edge2" class="edge">
<title>create&#45;&gt;push_user_to</title>
<path fill="none" stroke="black" d="M410.99,-395.56C407.85,-333.64 397.2,-123.98 393.31,-47.35"/>
<polygon fill="black" stroke="black" points="396.83,-47.56 392.83,-37.75 389.84,-47.91 396.83,-47.56"/>
</g>
<!-- create&#45;&gt;remove_user_from -->
<g id="edge4" class="edge">
<title>create&#45;&gt;remove_user_from</title>
<path fill="none" stroke="black" d="M417.89,-395.56C439.31,-333.52 511.93,-123.12 538.25,-46.88"/>
<polygon fill="black" stroke="black" points="541.48,-48.26 541.43,-37.67 534.86,-45.98 541.48,-48.26"/>
</g>
<!-- create&#45;&gt;wording -->
<g id="edge3" class="edge">
<title>create&#45;&gt;wording</title>
<path fill="none" stroke="black" d="M440.03,-405.86C583.43,-369.34 1246.73,-198.95 1782.88,-36 1785.23,-35.28 1787.65,-34.53 1790.08,-33.77"/>
<polygon fill="black" stroke="black" points="1790.88,-37.19 1799.32,-30.79 1788.73,-30.52 1790.88,-37.19"/>
</g>
<!-- create_group -->
<g id="node19" class="node">
<title>create_group</title>
<polygon fill="lightblue" stroke="white" points="2595.25,-432 2494.5,-432 2494.5,-396 2595.25,-396 2595.25,-432"/>
<text text-anchor="middle" x="2544.88" y="-408.95" font-family="Arial" font-size="14.00">create_group</text>
</g>
<!-- create_group&#45;&gt;authorize_group -->
<g id="edge5" class="edge">
<title>create_group&#45;&gt;authorize_group</title>
<path fill="none" stroke="black" d="M2552.31,-395.56C2578.82,-333.39 2668.85,-122.26 2701.19,-46.41"/>
<polygon fill="black" stroke="black" points="2704.23,-48.2 2704.93,-37.63 2697.79,-45.45 2704.23,-48.2"/>
</g>
<!-- create_group&#45;&gt;push_group_to -->
<g id="edge6" class="edge">
<title>create_group&#45;&gt;push_group_to</title>
<path fill="none" stroke="black" d="M2545.63,-395.56C2548.3,-333.64 2557.35,-123.98 2560.65,-47.35"/>
<polygon fill="black" stroke="black" points="2564.13,-47.89 2561.07,-37.75 2557.14,-47.59 2564.13,-47.89"/>
</g>
<!-- create_group&#45;&gt;wording -->
<g id="edge7" class="edge">
<title>create_group&#45;&gt;wording</title>
<path fill="none" stroke="black" d="M2513.41,-395.56C2398.93,-332.12 2004.59,-113.6 1875.29,-41.95"/>
<polygon fill="black" stroke="black" points="1877.15,-38.98 1866.71,-37.19 1873.76,-45.1 1877.15,-38.98"/>
</g>
<!-- destroy -->
<g id="node20" class="node">
<title>destroy</title>
<polygon fill="lightblue" stroke="white" points="566.5,-432 503.25,-432 503.25,-396 566.5,-396 566.5,-432"/>
<text text-anchor="middle" x="534.88" y="-408.95" font-family="Arial" font-size="14.00">destroy</text>
</g>
<!-- destroy&#45;&gt;authorize_multiple -->
<g id="edge8" class="edge">
<title>destroy&#45;&gt;authorize_multiple</title>
<path fill="none" stroke="black" d="M521.77,-395.56C474.78,-333.01 314.49,-119.65 258.43,-45.03"/>
<polygon fill="black" stroke="black" points="261.54,-43.34 252.73,-37.45 255.94,-47.54 261.54,-43.34"/>
</g>
<!-- destroy&#45;&gt;push_user_to -->
<g id="edge11" class="edge">
<title>destroy&#45;&gt;push_user_to</title>
<path fill="none" stroke="black" d="M528.55,-395.56C506.03,-333.52 429.66,-123.12 401.99,-46.88"/>
<polygon fill="black" stroke="black" points="405.35,-45.87 398.65,-37.66 398.77,-48.25 405.35,-45.87"/>
</g>
<!-- destroy&#45;&gt;remove_user_from -->
<g id="edge9" class="edge">
<title>destroy&#45;&gt;remove_user_from</title>
<path fill="none" stroke="black" d="M535.45,-395.56C537.49,-333.64 544.41,-123.98 546.94,-47.35"/>
<polygon fill="black" stroke="black" points="550.42,-47.86 547.26,-37.75 543.43,-47.63 550.42,-47.86"/>
</g>
<!-- destroy&#45;&gt;wording -->
<g id="edge10" class="edge">
<title>destroy&#45;&gt;wording</title>
<path fill="none" stroke="black" d="M566.8,-403.72C709.22,-362.24 1300.75,-189.14 1782.88,-36 1785.22,-35.25 1787.63,-34.48 1790.06,-33.69"/>
<polygon fill="black" stroke="black" points="1790.87,-37.11 1799.29,-30.67 1788.69,-30.46 1790.87,-37.11"/>
</g>
<!-- destroy_group -->
<g id="node21" class="node">
<title>destroy_group</title>
<polygon fill="lightblue" stroke="white" points="2458,-432 2349.75,-432 2349.75,-396 2458,-396 2458,-432"/>
<text text-anchor="middle" x="2403.88" y="-408.95" font-family="Arial" font-size="14.00">destroy_group</text>
</g>
<!-- destroy_group&#45;&gt;authorize_group -->
<g id="edge12" class="edge">
<title>destroy_group&#45;&gt;authorize_group</title>
<path fill="none" stroke="black" d="M2417.55,-395.56C2466.61,-333.01 2633.94,-119.65 2692.46,-45.03"/>
<polygon fill="black" stroke="black" points="2695.01,-47.46 2698.42,-37.43 2689.5,-43.14 2695.01,-47.46"/>
</g>
<!-- destroy_group&#45;&gt;remove_group_from -->
<g id="edge13" class="edge">
<title>destroy_group&#45;&gt;remove_group_from</title>
<path fill="none" stroke="black" d="M2403.57,-395.56C2402.47,-333.64 2398.74,-123.98 2397.38,-47.35"/>
<polygon fill="black" stroke="black" points="2400.89,-47.69 2397.21,-37.75 2393.89,-47.81 2400.89,-47.69"/>
</g>
<!-- destroy_group&#45;&gt;wording -->
<g id="edge14" class="edge">
<title>destroy_group&#45;&gt;wording</title>
<path fill="none" stroke="black" d="M2378.65,-395.56C2287.24,-332.38 1973.27,-115.35 1868.34,-42.82"/>
<polygon fill="black" stroke="black" points="1870.6,-40.13 1860.38,-37.32 1866.61,-45.89 1870.6,-40.13"/>
</g>
<!-- accept -->
<g id="node22" class="node">
<title>accept</title>
<polygon fill="lightblue" stroke="white" points="794.25,-432 735.5,-432 735.5,-396 794.25,-396 794.25,-432"/>
<text text-anchor="middle" x="764.88" y="-408.95" font-family="Arial" font-size="14.00">accept</text>
</g>
<!-- accept&#45;&gt;user_accept -->
<g id="edge15" class="edge">
<title>accept&#45;&gt;user_accept</title>
<path fill="none" stroke="black" d="M762,-395.56C751.78,-333.64 717.19,-123.98 704.55,-47.35"/>
<polygon fill="black" stroke="black" points="708.05,-47.03 702.96,-37.73 701.14,-48.17 708.05,-47.03"/>
</g>
<!-- accept&#45;&gt;wording -->
<g id="edge16" class="edge">
<title>accept&#45;&gt;wording</title>
<path fill="none" stroke="black" d="M794.58,-402.05C943.8,-347.05 1611.41,-100.99 1789.88,-35.21"/>
<polygon fill="black" stroke="black" points="1791.09,-38.5 1799.26,-31.76 1788.67,-31.93 1791.09,-38.5"/>
</g>
<!-- admin_accept -->
<g id="node23" class="node">
<title>admin_accept</title>
<polygon fill="lightblue" stroke="white" points="963.5,-432 858.25,-432 858.25,-396 963.5,-396 963.5,-432"/>
<text text-anchor="middle" x="910.88" y="-408.95" font-family="Arial" font-size="14.00">admin_accept</text>
</g>
<!-- admin_accept&#45;&gt;admin_accept_instead_of -->
<g id="edge17" class="edge">
<title>admin_accept&#45;&gt;admin_accept_instead_of</title>
<path fill="none" stroke="black" d="M909.24,-395.56C903.42,-333.64 883.73,-123.98 876.54,-47.35"/>
<polygon fill="black" stroke="black" points="880.05,-47.37 875.64,-37.74 873.09,-48.03 880.05,-47.37"/>
</g>
<!-- admin_accept&#45;&gt;wording -->
<g id="edge18" class="edge">
<title>admin_accept&#45;&gt;wording</title>
<path fill="none" stroke="black" d="M951.73,-395.56C1103.51,-330.77 1634.28,-104.2 1790.38,-37.57"/>
<polygon fill="black" stroke="black" points="1791.75,-40.79 1799.57,-33.64 1789,-34.35 1791.75,-40.79"/>
</g>
<!-- admin_approve -->
<g id="node24" class="node">
<title>admin_approve</title>
<polygon fill="lightblue" stroke="white" points="1179,-432 1064.75,-432 1064.75,-396 1179,-396 1179,-432"/>
<text text-anchor="middle" x="1121.88" y="-408.95" font-family="Arial" font-size="14.00">admin_approve</text>
</g>
<!-- admin_approve&#45;&gt;admin_approve_instead_of -->
<g id="edge19" class="edge">
<title>admin_approve&#45;&gt;admin_approve_instead_of</title>
<path fill="none" stroke="black" d="M1120.68,-395.56C1116.44,-333.64 1102.07,-123.98 1096.82,-47.35"/>
<polygon fill="black" stroke="black" points="1100.34,-47.48 1096.16,-37.75 1093.35,-47.96 1100.34,-47.48"/>
</g>
<!-- admin_approve&#45;&gt;wording -->
<g id="edge20" class="edge">
<title>admin_approve&#45;&gt;wording</title>
<path fill="none" stroke="black" d="M1153.39,-395.56C1268.03,-332.12 1662.92,-113.6 1792.4,-41.95"/>
<polygon fill="black" stroke="black" points="1793.94,-45.1 1801,-37.19 1790.56,-38.97 1793.94,-45.1"/>
</g>
<!-- reject -->
<g id="node25" class="node">
<title>reject</title>
<polygon fill="lightblue" stroke="white" points="1320.88,-432 1266.88,-432 1266.88,-396 1320.88,-396 1320.88,-432"/>
<text text-anchor="middle" x="1293.88" y="-408.95" font-family="Arial" font-size="14.00">reject</text>
</g>
<!-- reject&#45;&gt;user_reject -->
<g id="edge21" class="edge">
<title>reject&#45;&gt;user_reject</title>
<path fill="none" stroke="black" d="M1292.77,-395.56C1288.84,-333.64 1275.54,-123.98 1270.67,-47.35"/>
<polygon fill="black" stroke="black" points="1274.19,-47.51 1270.06,-37.75 1267.2,-47.95 1274.19,-47.51"/>
</g>
<!-- reject&#45;&gt;wording -->
<g id="edge22" class="edge">
<title>reject&#45;&gt;wording</title>
<path fill="none" stroke="black" d="M1317.77,-395.56C1404.28,-332.44 1701.22,-115.79 1800.93,-43.04"/>
<polygon fill="black" stroke="black" points="1802.71,-46.07 1808.72,-37.35 1798.58,-40.42 1802.71,-46.07"/>
</g>
<!-- admin_reject -->
<g id="node26" class="node">
<title>admin_reject</title>
<polygon fill="lightblue" stroke="white" points="1479.75,-432 1382,-432 1382,-396 1479.75,-396 1479.75,-432"/>
<text text-anchor="middle" x="1430.88" y="-408.95" font-family="Arial" font-size="14.00">admin_reject</text>
</g>
<!-- admin_reject&#45;&gt;admin_reject_instead_of -->
<g id="edge23" class="edge">
<title>admin_reject&#45;&gt;admin_reject_instead_of</title>
<path fill="none" stroke="black" d="M1431.05,-395.56C1431.68,-333.64 1433.81,-123.98 1434.59,-47.35"/>
<polygon fill="black" stroke="black" points="1438.08,-47.79 1434.68,-37.75 1431.08,-47.71 1438.08,-47.79"/>
</g>
<!-- admin_reject&#45;&gt;wording -->
<g id="edge24" class="edge">
<title>admin_reject&#45;&gt;wording</title>
<path fill="none" stroke="black" d="M1448.71,-395.56C1512.96,-332.75 1732.7,-117.91 1808.18,-44.12"/>
<polygon fill="black" stroke="black" points="1810.46,-46.79 1815.16,-37.29 1805.57,-41.78 1810.46,-46.79"/>
</g>
<!-- admin_disapprove -->
<g id="node27" class="node">
<title>admin_disapprove</title>
<polygon fill="lightblue" stroke="white" points="1648.38,-432 1515.38,-432 1515.38,-396 1648.38,-396 1648.38,-432"/>
<text text-anchor="middle" x="1581.88" y="-408.95" font-family="Arial" font-size="14.00">admin_disapprove</text>
</g>
<!-- admin_disapprove&#45;&gt;admin_disapprove_instead_of -->
<g id="edge25" class="edge">
<title>admin_disapprove&#45;&gt;admin_disapprove_instead_of</title>
<path fill="none" stroke="black" d="M1585.37,-395.56C1597.79,-333.64 1639.82,-123.98 1655.19,-47.35"/>
<polygon fill="black" stroke="black" points="1658.59,-48.21 1657.12,-37.72 1651.72,-46.84 1658.59,-48.21"/>
</g>
<!-- admin_disapprove&#45;&gt;wording -->
<g id="edge26" class="edge">
<title>admin_disapprove&#45;&gt;wording</title>
<path fill="none" stroke="black" d="M1593.03,-395.56C1632.96,-333.13 1768.94,-120.52 1816.93,-45.49"/>
<polygon fill="black" stroke="black" points="1819.6,-47.82 1822.03,-37.51 1813.7,-44.05 1819.6,-47.82"/>
</g>
<!-- find_wf_entity -->
<g id="node28" class="node">
<title>find_wf_entity</title>
<polygon fill="lightblue" stroke="white" points="3483.38,-432 3380.38,-432 3380.38,-396 3483.38,-396 3483.38,-432"/>
<text text-anchor="middle" x="3431.88" y="-408.95" font-family="Arial" font-size="14.00">find_wf_entity</text>
</g>
<!-- require_wf_entity_in_edition -->
<g id="node29" class="node">
<title>require_wf_entity_in_edition</title>
<polygon fill="lightblue" stroke="white" points="3712.38,-432 3519.38,-432 3519.38,-396 3712.38,-396 3712.38,-432"/>
<text text-anchor="middle" x="3615.88" y="-408.95" font-family="Arial" font-size="14.00">require_wf_entity_in_edition</text>
</g>
<!-- check_authorize_multiple -->
<g id="node30" class="node">
<title>check_authorize_multiple</title>
<polygon fill="lightblue" stroke="white" points="175.75,-432 0,-432 0,-396 175.75,-396 175.75,-432"/>
<text text-anchor="middle" x="87.88" y="-408.95" font-family="Arial" font-size="14.00">check_authorize_multiple</text>
</g>
<!-- check_authorize_multiple&#45;&gt;authorize_multiple -->
<g id="edge27" class="edge">
<title>check_authorize_multiple&#45;&gt;authorize_multiple</title>
<path fill="none" stroke="black" d="M94.56,-395.56C118.34,-333.52 198.97,-123.12 228.19,-46.88"/>
<polygon fill="black" stroke="black" points="231.42,-48.24 231.73,-37.65 224.88,-45.74 231.42,-48.24"/>
</g>
<!-- find_users -->
<g id="node31" class="node">
<title>find_users</title>
<polygon fill="lightblue" stroke="white" points="294.25,-432 211.5,-432 211.5,-396 294.25,-396 294.25,-432"/>
<text text-anchor="middle" x="252.88" y="-408.95" font-family="Arial" font-size="14.00">find_users</text>
</g>
<!-- find_users&#45;&gt;authorize_multiple -->
<g id="edge28" class="edge">
<title>find_users&#45;&gt;authorize_multiple</title>
<path fill="none" stroke="black" d="M252.26,-395.56C250.06,-333.64 242.61,-123.98 239.88,-47.35"/>
<polygon fill="black" stroke="black" points="243.39,-47.62 239.54,-37.75 236.4,-47.87 243.39,-47.62"/>
</g>
<!-- check_authorize_group -->
<g id="node32" class="node">
<title>check_authorize_group</title>
<polygon fill="lightblue" stroke="white" points="3202.75,-432 3039,-432 3039,-396 3202.75,-396 3202.75,-432"/>
<text text-anchor="middle" x="3120.88" y="-408.95" font-family="Arial" font-size="14.00">check_authorize_group</text>
</g>
<!-- check_authorize_group&#45;&gt;authorize_group -->
<g id="edge29" class="edge">
<title>check_authorize_group&#45;&gt;authorize_group</title>
<path fill="none" stroke="black" d="M3102.82,-395.56C3037.78,-332.75 2815.3,-117.91 2738.89,-44.12"/>
<polygon fill="black" stroke="black" points="2741.44,-41.72 2731.81,-37.29 2736.58,-46.75 2741.44,-41.72"/>
</g>
<!-- find_group -->
<g id="node33" class="node">
<title>find_group</title>
<polygon fill="lightblue" stroke="white" points="3833,-432 3748.75,-432 3748.75,-396 3833,-396 3833,-432"/>
<text text-anchor="middle" x="3790.88" y="-408.95" font-family="Arial" font-size="14.00">find_group</text>
</g>
<!-- filter_users_not_actors -->
<g id="node34" class="node">
<title>filter_users_not_actors</title>
<polygon fill="lightblue" stroke="white" points="2044.62,-432 1883.12,-432 1883.12,-396 2044.62,-396 2044.62,-432"/>
<text text-anchor="middle" x="1963.88" y="-408.95" font-family="Arial" font-size="14.00">filter_users_not_actors</text>
</g>
<!-- filter_users_not_actors&#45;&gt;user_is_actor_of -->
<g id="edge30" class="edge">
<title>filter_users_not_actors&#45;&gt;user_is_actor_of</title>
<path fill="none" stroke="black" d="M1963.88,-395.56C1963.88,-333.64 1963.88,-123.98 1963.88,-47.35"/>
<polygon fill="black" stroke="black" points="1967.38,-47.75 1963.88,-37.75 1960.38,-47.75 1967.38,-47.75"/>
</g>
<!-- filter_users_not_actors&#45;&gt;wording -->
<g id="edge31" class="edge">
<title>filter_users_not_actors&#45;&gt;wording</title>
<path fill="none" stroke="black" d="M1958.12,-395.56C1937.65,-333.52 1868.23,-123.12 1843.07,-46.88"/>
<polygon fill="black" stroke="black" points="1846.49,-46.07 1840.04,-37.67 1839.85,-48.27 1846.49,-46.07"/>
</g>
<!-- require_group_not_actor -->
<g id="node35" class="node">
<title>require_group_not_actor</title>
<polygon fill="lightblue" stroke="white" points="3003.25,-432 2830.5,-432 2830.5,-396 3003.25,-396 3003.25,-432"/>
<text text-anchor="middle" x="2916.88" y="-408.95" font-family="Arial" font-size="14.00">require_group_not_actor</text>
</g>
<!-- require_group_not_actor&#45;&gt;authorize_group -->
<g id="edge32" class="edge">
<title>require_group_not_actor&#45;&gt;authorize_group</title>
<path fill="none" stroke="black" d="M2907.85,-395.56C2875.66,-333.39 2766.34,-122.26 2727.07,-46.41"/>
<polygon fill="black" stroke="black" points="2730.2,-44.85 2722.5,-37.58 2723.99,-48.07 2730.2,-44.85"/>
</g>
<!-- require_group_not_actor&#45;&gt;group_is_actor_of -->
<g id="edge33" class="edge">
<title>require_group_not_actor&#45;&gt;group_is_actor_of</title>
<path fill="none" stroke="black" d="M2915.95,-395.56C2912.65,-333.64 2901.47,-123.98 2897.39,-47.35"/>
<polygon fill="black" stroke="black" points="2900.9,-47.55 2896.87,-37.75 2893.91,-47.92 2900.9,-47.55"/>
</g>
<!-- require_group_not_actor&#45;&gt;wording -->
<g id="edge34" class="edge">
<title>require_group_not_actor&#45;&gt;wording</title>
<path fill="none" stroke="black" d="M2868.94,-395.56C2688.49,-329.91 2051.49,-98.17 1877.86,-35"/>
<polygon fill="black" stroke="black" points="1879.12,-31.74 1868.53,-31.61 1876.73,-38.32 1879.12,-31.74"/>
</g>
<!-- require_group_is_actor -->
<g id="node36" class="node">
<title>require_group_is_actor</title>
<polygon fill="lightblue" stroke="white" points="2794.75,-432 2631,-432 2631,-396 2794.75,-396 2794.75,-432"/>
<text text-anchor="middle" x="2712.88" y="-408.95" font-family="Arial" font-size="14.00">require_group_is_actor</text>
</g>
<!-- require_group_is_actor&#45;&gt;authorize_group -->
<g id="edge35" class="edge">
<title>require_group_is_actor&#45;&gt;authorize_group</title>
<path fill="none" stroke="black" d="M2712.88,-395.56C2712.88,-333.64 2712.88,-123.98 2712.88,-47.35"/>
<polygon fill="black" stroke="black" points="2716.38,-47.75 2712.88,-37.75 2709.38,-47.75 2716.38,-47.75"/>
</g>
<!-- require_group_is_actor&#45;&gt;group_is_actor_of -->
<g id="edge36" class="edge">
<title>require_group_is_actor&#45;&gt;group_is_actor_of</title>
<path fill="none" stroke="black" d="M2720.97,-395.56C2749.85,-333.39 2847.92,-122.26 2883.14,-46.41"/>
<polygon fill="black" stroke="black" points="2886.19,-48.15 2887.23,-37.61 2879.84,-45.2 2886.19,-48.15"/>
</g>
<!-- require_group_is_actor&#45;&gt;wording -->
<g id="edge37" class="edge">
<title>require_group_is_actor&#45;&gt;wording</title>
<path fill="none" stroke="black" d="M2673.97,-395.56C2530.07,-331.06 2028.48,-106.23 1877.32,-38.47"/>
<polygon fill="black" stroke="black" points="1878.99,-35.39 1868.43,-34.49 1876.13,-41.77 1878.99,-35.39"/>
</g>
<!-- filter_users_are_actors -->
<g id="node37" class="node">
<title>filter_users_are_actors</title>
<polygon fill="lightblue" stroke="white" points="1847,-432 1684.75,-432 1684.75,-396 1847,-396 1847,-432"/>
<text text-anchor="middle" x="1765.88" y="-408.95" font-family="Arial" font-size="14.00">filter_users_are_actors</text>
</g>
<!-- filter_users_are_actors&#45;&gt;user_is_actor_of -->
<g id="edge38" class="edge">
<title>filter_users_are_actors&#45;&gt;user_is_actor_of</title>
<path fill="none" stroke="black" d="M1774.64,-395.56C1805.88,-333.39 1911.99,-122.26 1950.1,-46.41"/>
<polygon fill="black" stroke="black" points="1953.17,-48.1 1954.53,-37.59 1946.92,-44.95 1953.17,-48.1"/>
</g>
<!-- filter_users_are_actors&#45;&gt;wording -->
<g id="edge39" class="edge">
<title>filter_users_are_actors&#45;&gt;wording</title>
<path fill="none" stroke="black" d="M1768.88,-395.56C1779.57,-333.64 1815.76,-123.98 1828.98,-47.35"/>
<polygon fill="black" stroke="black" points="1832.39,-48.18 1830.64,-37.73 1825.49,-46.99 1832.39,-48.18"/>
</g>
<!-- require_wf_entity_in_accept_state -->
<g id="node38" class="node">
<title>require_wf_entity_in_accept_state</title>
<polygon fill="lightblue" stroke="white" points="2313.25,-432 2080.5,-432 2080.5,-396 2313.25,-396 2313.25,-432"/>
<text text-anchor="middle" x="2196.88" y="-408.95" font-family="Arial" font-size="14.00">require_wf_entity_in_accept_state</text>
</g>
<!-- require_wf_entity_in_accept_state&#45;&gt;wf_entity_in_accept_state -->
<g id="edge40" class="edge">
<title>require_wf_entity_in_accept_state&#45;&gt;wf_entity_in_accept_state</title>
<path fill="none" stroke="black" d="M2196.88,-395.56C2196.88,-333.64 2196.88,-123.98 2196.88,-47.35"/>
<polygon fill="black" stroke="black" points="2200.38,-47.75 2196.88,-37.75 2193.38,-47.75 2200.38,-47.75"/>
</g>
<!-- require_wf_entity_in_accept_state&#45;&gt;wording -->
<g id="edge41" class="edge">
<title>require_wf_entity_in_accept_state&#45;&gt;wording</title>
<path fill="none" stroke="black" d="M2180.81,-395.56C2123.06,-332.88 1925.81,-118.78 1857.44,-44.57"/>
<polygon fill="black" stroke="black" points="1860.13,-42.33 1850.78,-37.35 1854.98,-47.08 1860.13,-42.33"/>
</g>
<!-- require_user_is_current -->
<g id="node39" class="node">
<title>require_user_is_current</title>
<polygon fill="lightblue" stroke="white" points="4036.25,-432 3869.5,-432 3869.5,-396 4036.25,-396 4036.25,-432"/>
<text text-anchor="middle" x="3952.88" y="-408.95" font-family="Arial" font-size="14.00">require_user_is_current</text>
</g>
<!-- require_current_user_is_admin -->
<g id="node40" class="node">
<title>require_current_user_is_admin</title>
<polygon fill="lightblue" stroke="white" points="4285.5,-432 4072.25,-432 4072.25,-396 4285.5,-396 4285.5,-432"/>
<text text-anchor="middle" x="4178.88" y="-408.95" font-family="Arial" font-size="14.00">require_current_user_is_admin</text>
</g>
</g>
</svg>
