<?xml version="1.0" encoding="UTF-8" standalone="no"?>
<!DOCTYPE svg PUBLIC "-//W3C//DTD SVG 1.1//EN"
 "http://www.w3.org/Graphics/SVG/1.1/DTD/svg11.dtd">
<!-- Generated by graphviz version 9.0.0 (20230911.1827)
 -->
<!-- Title: CallGraph Pages: 1 -->
<svg width="1762pt" height="44pt"
 viewBox="0.00 0.00 1761.75 44.00" xmlns="http://www.w3.org/2000/svg" xmlns:xlink="http://www.w3.org/1999/xlink">
<g id="graph0" class="graph" transform="scale(1 1) rotate(0) translate(4 40)">
<title>CallGraph</title>
<polygon fill="white" stroke="none" points="-4,4 -4,-40 1757.75,-40 1757.75,4 -4,4"/>
<!-- authorize_multiple -->
<g id="node1" class="node">
<title>authorize_multiple</title>
<polygon fill="lightblue" stroke="white" points="130,-36 0,-36 0,0 130,0 130,-36"/>
<text text-anchor="middle" x="65" y="-12.95" font-family="Arial" font-size="14.00">authorize_multiple</text>
</g>
<!-- authorize_group -->
<g id="node2" class="node">
<title>authorize_group</title>
<polygon fill="lightblue" stroke="white" points="284,-36 166,-36 166,0 284,0 284,-36"/>
<text text-anchor="middle" x="225" y="-12.95" font-family="Arial" font-size="14.00">authorize_group</text>
</g>
<!-- user_is_actor_of -->
<g id="node3" class="node">
<title>user_is_actor_of</title>
<polygon fill="lightblue" stroke="white" points="443.62,-36 320.38,-36 320.38,0 443.62,0 443.62,-36"/>
<text text-anchor="middle" x="382" y="-12.95" font-family="Arial" font-size="14.00">user_is_actor_of</text>
</g>
<!-- push_user_to -->
<g id="node4" class="node">
<title>push_user_to</title>
<polygon fill="lightblue" stroke="white" points="582.5,-36 479.5,-36 479.5,0 582.5,0 582.5,-36"/>
<text text-anchor="middle" x="531" y="-12.95" font-family="Arial" font-size="14.00">push_user_to</text>
</g>
<!-- remove_user_from -->
<g id="node5" class="node">
<title>remove_user_from</title>
<polygon fill="lightblue" stroke="white" points="755.75,-36 618.25,-36 618.25,0 755.75,0 755.75,-36"/>
<text text-anchor="middle" x="687" y="-12.95" font-family="Arial" font-size="14.00">remove_user_from</text>
</g>
<!-- wf_entity_in_accept_state -->
<g id="node6" class="node">
<title>wf_entity_in_accept_state</title>
<polygon fill="lightblue" stroke="white" points="972.12,-36 791.88,-36 791.88,0 972.12,0 972.12,-36"/>
<text text-anchor="middle" x="882" y="-12.95" font-family="Arial" font-size="14.00">wf_entity_in_accept_state</text>
</g>
<!-- user_accept -->
<g id="node7" class="node">
<title>user_accept</title>
<polygon fill="lightblue" stroke="white" points="1103.38,-36 1008.62,-36 1008.62,0 1103.38,0 1103.38,-36"/>
<text text-anchor="middle" x="1056" y="-12.95" font-family="Arial" font-size="14.00">user_accept</text>
</g>
<!-- user_reject -->
<g id="node8" class="node">
<title>user_reject</title>
<polygon fill="lightblue" stroke="white" points="1226.62,-36 1139.38,-36 1139.38,0 1226.62,0 1226.62,-36"/>
<text text-anchor="middle" x="1183" y="-12.95" font-family="Arial" font-size="14.00">user_reject</text>
</g>
<!-- admin_accept_instead_of -->
<g id="node9" class="node">
<title>admin_accept_instead_of</title>
<polygon fill="lightblue" stroke="white" points="1443.12,-36 1262.88,-36 1262.88,0 1443.12,0 1443.12,-36"/>
<text text-anchor="middle" x="1353" y="-12.95" font-family="Arial" font-size="14.00">admin_accept_instead_of</text>
</g>
<!-- admin_reject_instead_of -->
<g id="node10" class="node">
<title>admin_reject_instead_of</title>
<polygon fill="lightblue" stroke="white" points="1652.38,-36 1479.62,-36 1479.62,0 1652.38,0 1652.38,-36"/>
<text text-anchor="middle" x="1566" y="-12.95" font-family="Arial" font-size="14.00">admin_reject_instead_of</text>
</g>
<!-- wording -->
<g id="node11" class="node">
<title>wording</title>
<polygon fill="lightblue" stroke="white" points="1753.75,-36 1688.25,-36 1688.25,0 1753.75,0 1753.75,-36"/>
<text text-anchor="middle" x="1721" y="-12.95" font-family="Arial" font-size="14.00">wording</text>
</g>
</g>
</svg>
