<?xml version="1.0" encoding="UTF-8" standalone="no"?>
<!DOCTYPE svg PUBLIC "-//W3C//DTD SVG 1.1//EN"
 "http://www.w3.org/Graphics/SVG/1.1/DTD/svg11.dtd">
<!-- Generated by graphviz version 9.0.0 (20230911.1827)
 -->
<!-- Title: CallGraph Pages: 1 -->
<svg width="675pt" height="893pt"
 viewBox="0.00 0.00 675.38 892.69" xmlns="http://www.w3.org/2000/svg" xmlns:xlink="http://www.w3.org/1999/xlink">
<g id="graph0" class="graph" transform="scale(1 1) rotate(0) translate(4 888.69)">
<title>CallGraph</title>
<polygon fill="white" stroke="none" points="-4,4 -4,-888.69 671.38,-888.69 671.38,4 -4,4"/>
<!-- new -->
<g id="node1" class="node">
<title>new</title>
<polygon fill="lightblue" stroke="white" points="54,-828 0,-828 0,-792 54,-792 54,-828"/>
<text text-anchor="middle" x="27" y="-804.95" font-family="Arial" font-size="14.00">new</text>
</g>
<!-- create -->
<g id="node2" class="node">
<title>create</title>
<polygon fill="lightblue" stroke="white" points="145.88,-828 90.12,-828 90.12,-792 145.88,-792 145.88,-828"/>
<text text-anchor="middle" x="118" y="-804.95" font-family="Arial" font-size="14.00">create</text>
</g>
<!-- save -->
<g id="node3" class="node">
<title>save</title>
<polygon fill="lightblue" stroke="white" points="145,-432 91,-432 91,-396 145,-396 145,-432"/>
<text text-anchor="middle" x="118" y="-408.95" font-family="Arial" font-size="14.00">save</text>
</g>
<!-- create&#45;&gt;save -->
<g id="edge1" class="edge">
<title>create&#45;&gt;save</title>
<path fill="none" stroke="black" d="M118,-791.56C118,-729.64 118,-519.98 118,-443.35"/>
<polygon fill="black" stroke="black" points="121.5,-443.75 118,-433.75 114.5,-443.75 121.5,-443.75"/>
</g>
<!-- download -->
<g id="node4" class="node">
<title>download</title>
<polygon fill="lightblue" stroke="white" points="258.38,-828 181.62,-828 181.62,-792 258.38,-792 258.38,-828"/>
<text text-anchor="middle" x="220" y="-804.95" font-family="Arial" font-size="14.00">download</text>
</g>
<!-- confirm_destroy -->
<g id="node5" class="node">
<title>confirm_destroy</title>
<polygon fill="lightblue" stroke="white" points="413.38,-828 294.62,-828 294.62,-792 413.38,-792 413.38,-828"/>
<text text-anchor="middle" x="354" y="-804.95" font-family="Arial" font-size="14.00">confirm_destroy</text>
</g>
<!-- destroy -->
<g id="node6" class="node">
<title>destroy</title>
<polygon fill="lightblue" stroke="white" points="512.62,-828 449.38,-828 449.38,-792 512.62,-792 512.62,-828"/>
<text text-anchor="middle" x="481" y="-804.95" font-family="Arial" font-size="14.00">destroy</text>
</g>
<!-- destroy&#45;&gt;destroy -->
<g id="edge2" class="edge">
<title>destroy&#45;&gt;destroy</title>
<path fill="none" stroke="black" d="M485.77,-828.41C509.33,-908.56 548.62,-902.43 548.62,-810 548.62,-721.91 512.93,-712.2 489.18,-780.88"/>
<polygon fill="black" stroke="black" points="485.93,-779.55 486.23,-790.14 492.6,-781.68 485.93,-779.55"/>
</g>
<!-- check_object -->
<g id="node7" class="node">
<title>check_object</title>
<polygon fill="lightblue" stroke="white" points="667.38,-828 566.62,-828 566.62,-792 667.38,-792 667.38,-828"/>
<text text-anchor="middle" x="617" y="-804.95" font-family="Arial" font-size="14.00">check_object</text>
</g>
<!-- roles_or_users -->
<g id="node8" class="node">
<title>roles_or_users</title>
<polygon fill="lightblue" stroke="white" points="617,-432 505,-432 505,-396 617,-396 617,-432"/>
<text text-anchor="middle" x="561" y="-408.95" font-family="Arial" font-size="14.00">roles_or_users</text>
</g>
<!-- check_object&#45;&gt;roles_or_users -->
<g id="edge3" class="edge">
<title>check_object&#45;&gt;roles_or_users</title>
<path fill="none" stroke="black" d="M614.52,-791.56C605.72,-729.64 575.92,-519.98 565.03,-443.35"/>
<polygon fill="black" stroke="black" points="568.54,-443.14 563.66,-433.74 561.6,-444.13 568.54,-443.14"/>
</g>
<!-- matches -->
<g id="node9" class="node">
<title>matches</title>
<polygon fill="lightblue" stroke="white" points="651,-36 581,-36 581,0 651,0 651,-36"/>
<text text-anchor="middle" x="616" y="-12.95" font-family="Arial" font-size="14.00">matches</text>
</g>
<!-- check_object&#45;&gt;matches -->
<g id="edge4" class="edge">
<title>check_object&#45;&gt;matches</title>
<path fill="none" stroke="black" d="M618.61,-791.7C623.69,-734.98 638.87,-549.54 635,-396 631.72,-265.79 622.08,-110.53 617.93,-47.59"/>
<polygon fill="black" stroke="black" points="621.44,-47.53 617.28,-37.78 614.45,-47.99 621.44,-47.53"/>
</g>
<!-- roles_or_users&#45;&gt;matches -->
<g id="edge5" class="edge">
<title>roles_or_users&#45;&gt;matches</title>
<path fill="none" stroke="black" d="M563.43,-395.56C572.08,-333.64 601.34,-123.98 612.04,-47.35"/>
<polygon fill="black" stroke="black" points="615.47,-48.12 613.38,-37.74 608.54,-47.16 615.47,-48.12"/>
</g>
</g>
</svg>
