<?xml version="1.0" encoding="UTF-8" standalone="no"?>
<!DOCTYPE svg PUBLIC "-//W3C//DTD SVG 1.1//EN"
 "http://www.w3.org/Graphics/SVG/1.1/DTD/svg11.dtd">
<!-- Generated by graphviz version 9.0.0 (20230911.1827)
 -->
<!-- Title: CallGraph Pages: 1 -->
<svg width="951pt" height="1289pt"
 viewBox="0.00 0.00 950.66 1288.69" xmlns="http://www.w3.org/2000/svg" xmlns:xlink="http://www.w3.org/1999/xlink">
<g id="graph0" class="graph" transform="scale(1 1) rotate(0) translate(4 1284.69)">
<title>CallGraph</title>
<polygon fill="white" stroke="none" points="-4,4 -4,-1284.69 946.66,-1284.69 946.66,4 -4,4"/>
<!-- create -->
<g id="node1" class="node">
<title>create</title>
<polygon fill="lightblue" stroke="white" points="471.91,-1224 416.16,-1224 416.16,-1188 471.91,-1188 471.91,-1224"/>
<text text-anchor="middle" x="444.03" y="-1200.95" font-family="Arial" font-size="14.00">create</text>
</g>
<!-- audit_element_params -->
<g id="node2" class="node">
<title>audit_element_params</title>
<polygon fill="lightblue" stroke="white" points="185.41,-828 24.66,-828 24.66,-792 185.41,-792 185.41,-828"/>
<text text-anchor="middle" x="105.03" y="-804.95" font-family="Arial" font-size="14.00">audit_element_params</text>
</g>
<!-- create&#45;&gt;audit_element_params -->
<g id="edge1" class="edge">
<title>create&#45;&gt;audit_element_params</title>
<path fill="none" stroke="black" d="M429.03,-1187.56C375.1,-1124.88 190.89,-910.78 127.04,-836.57"/>
<polygon fill="black" stroke="black" points="130.03,-834.68 120.85,-829.38 124.72,-839.25 130.03,-834.68"/>
</g>
<!-- element_with_process -->
<g id="node3" class="node">
<title>element_with_process</title>
<polygon fill="lightblue" stroke="white" points="380.66,-828 221.41,-828 221.41,-792 380.66,-792 380.66,-828"/>
<text text-anchor="middle" x="301.03" y="-804.95" font-family="Arial" font-size="14.00">element_with_process</text>
</g>
<!-- create&#45;&gt;element_with_process -->
<g id="edge2" class="edge">
<title>create&#45;&gt;element_with_process</title>
<path fill="none" stroke="black" d="M437.7,-1187.56C415.19,-1125.52 338.82,-915.12 311.15,-838.88"/>
<polygon fill="black" stroke="black" points="314.51,-837.87 307.81,-829.66 307.93,-840.25 314.51,-837.87"/>
</g>
<!-- assign_roles -->
<g id="node4" class="node">
<title>assign_roles</title>
<polygon fill="lightblue" stroke="white" points="604.53,-828 507.53,-828 507.53,-792 604.53,-792 604.53,-828"/>
<text text-anchor="middle" x="556.03" y="-804.95" font-family="Arial" font-size="14.00">assign_roles</text>
</g>
<!-- create&#45;&gt;assign_roles -->
<g id="edge3" class="edge">
<title>create&#45;&gt;assign_roles</title>
<path fill="none" stroke="black" d="M448.99,-1187.56C466.63,-1125.52 526.44,-915.12 548.11,-838.88"/>
<polygon fill="black" stroke="black" points="551.35,-840.27 550.72,-829.69 544.62,-838.35 551.35,-840.27"/>
</g>
<!-- save -->
<g id="node5" class="node">
<title>save</title>
<polygon fill="lightblue" stroke="white" points="471.03,-828 417.03,-828 417.03,-792 471.03,-792 471.03,-828"/>
<text text-anchor="middle" x="444.03" y="-804.95" font-family="Arial" font-size="14.00">save</text>
</g>
<!-- create&#45;&gt;save -->
<g id="edge4" class="edge">
<title>create&#45;&gt;save</title>
<path fill="none" stroke="black" d="M444.03,-1187.56C444.03,-1125.64 444.03,-915.98 444.03,-839.35"/>
<polygon fill="black" stroke="black" points="447.53,-839.75 444.03,-829.75 440.53,-839.75 447.53,-839.75"/>
</g>
<!-- create_field_value -->
<g id="node6" class="node">
<title>create_field_value</title>
<polygon fill="lightblue" stroke="white" points="773.16,-828 640.91,-828 640.91,-792 773.16,-792 773.16,-828"/>
<text text-anchor="middle" x="707.03" y="-804.95" font-family="Arial" font-size="14.00">create_field_value</text>
</g>
<!-- create&#45;&gt;create_field_value -->
<g id="edge5" class="edge">
<title>create&#45;&gt;create_field_value</title>
<path fill="none" stroke="black" d="M455.67,-1187.56C497.35,-1125.13 639.27,-912.52 689.35,-837.49"/>
<polygon fill="black" stroke="black" points="692.05,-839.76 694.69,-829.5 686.22,-835.87 692.05,-839.76"/>
</g>
<!-- assign_provided_roles -->
<g id="node8" class="node">
<title>assign_provided_roles</title>
<polygon fill="lightblue" stroke="white" points="245.41,-432 84.66,-432 84.66,-396 245.41,-396 245.41,-432"/>
<text text-anchor="middle" x="165.03" y="-408.95" font-family="Arial" font-size="14.00">assign_provided_roles</text>
</g>
<!-- assign_roles&#45;&gt;assign_provided_roles -->
<g id="edge12" class="edge">
<title>assign_roles&#45;&gt;assign_provided_roles</title>
<path fill="none" stroke="black" d="M538.73,-791.56C476.4,-728.75 263.19,-513.91 189.97,-440.12"/>
<polygon fill="black" stroke="black" points="192.73,-437.94 183.21,-433.31 187.77,-442.87 192.73,-437.94"/>
</g>
<!-- default_auditor -->
<g id="node11" class="node">
<title>default_auditor</title>
<polygon fill="lightblue" stroke="white" points="695.91,-432 586.16,-432 586.16,-396 695.91,-396 695.91,-432"/>
<text text-anchor="middle" x="641.03" y="-408.95" font-family="Arial" font-size="14.00">default_auditor</text>
</g>
<!-- assign_roles&#45;&gt;default_auditor -->
<g id="edge13" class="edge">
<title>assign_roles&#45;&gt;default_auditor</title>
<path fill="none" stroke="black" d="M559.8,-791.56C573.15,-729.64 618.39,-519.98 634.92,-443.35"/>
<polygon fill="black" stroke="black" points="638.31,-444.23 637,-433.72 631.47,-442.75 638.31,-444.23"/>
</g>
<!-- default_domain_owner -->
<g id="node12" class="node">
<title>default_domain_owner</title>
<polygon fill="lightblue" stroke="white" points="550.03,-432 390.03,-432 390.03,-396 550.03,-396 550.03,-432"/>
<text text-anchor="middle" x="470.03" y="-408.95" font-family="Arial" font-size="14.00">default_domain_owner</text>
</g>
<!-- assign_roles&#45;&gt;default_domain_owner -->
<g id="edge14" class="edge">
<title>assign_roles&#45;&gt;default_domain_owner</title>
<path fill="none" stroke="black" d="M552.23,-791.56C538.71,-729.64 492.95,-519.98 476.22,-443.35"/>
<polygon fill="black" stroke="black" points="479.67,-442.74 474.12,-433.72 472.83,-444.23 479.67,-442.74"/>
</g>
<!-- update -->
<g id="node7" class="node">
<title>update</title>
<polygon fill="lightblue" stroke="white" points="232.78,-1224 173.28,-1224 173.28,-1188 232.78,-1188 232.78,-1224"/>
<text text-anchor="middle" x="203.03" y="-1200.95" font-family="Arial" font-size="14.00">update</text>
</g>
<!-- update&#45;&gt;audit_element_params -->
<g id="edge6" class="edge">
<title>update&#45;&gt;audit_element_params</title>
<path fill="none" stroke="black" d="M198.7,-1187.56C183.3,-1125.64 131.15,-915.98 112.09,-839.35"/>
<polygon fill="black" stroke="black" points="115.5,-838.56 109.69,-829.71 108.7,-840.25 115.5,-838.56"/>
</g>
<!-- update&#45;&gt;element_with_process -->
<g id="edge8" class="edge">
<title>update&#45;&gt;element_with_process</title>
<path fill="none" stroke="black" d="M207.37,-1187.56C222.77,-1125.64 274.92,-915.98 293.98,-839.35"/>
<polygon fill="black" stroke="black" points="297.36,-840.25 296.38,-829.71 290.57,-838.56 297.36,-840.25"/>
</g>
<!-- update&#45;&gt;save -->
<g id="edge9" class="edge">
<title>update&#45;&gt;save</title>
<path fill="none" stroke="black" d="M213.7,-1187.56C251.81,-1125.26 381.4,-913.39 427.55,-837.95"/>
<polygon fill="black" stroke="black" points="430.47,-839.88 432.7,-829.53 424.5,-836.23 430.47,-839.88"/>
</g>
<!-- update&#45;&gt;assign_provided_roles -->
<g id="edge7" class="edge">
<title>update&#45;&gt;assign_provided_roles</title>
<path fill="none" stroke="black" d="M190.15,-1187.8C152.66,-1136.52 43.9,-978.84 7.03,-828 -30.06,-676.25 91.65,-504.79 143.14,-440.84"/>
<polygon fill="black" stroke="black" points="145.62,-443.33 149.24,-433.38 140.2,-438.91 145.62,-443.33"/>
</g>
<!-- destroy -->
<g id="node9" class="node">
<title>destroy</title>
<polygon fill="lightblue" stroke="white" points="906.66,-1224 843.41,-1224 843.41,-1188 906.66,-1188 906.66,-1224"/>
<text text-anchor="middle" x="875.03" y="-1200.95" font-family="Arial" font-size="14.00">destroy</text>
</g>
<!-- destroy&#45;&gt;destroy -->
<g id="edge10" class="edge">
<title>destroy&#45;&gt;destroy</title>
<path fill="none" stroke="black" d="M879.8,-1224.41C903.36,-1304.56 942.66,-1298.43 942.66,-1206 942.66,-1117.91 906.96,-1108.2 883.21,-1176.88"/>
<polygon fill="black" stroke="black" points="879.97,-1175.55 880.26,-1186.14 886.63,-1177.68 879.97,-1175.55"/>
</g>
<!-- delete_field_value -->
<g id="node10" class="node">
<title>delete_field_value</title>
<polygon fill="lightblue" stroke="white" points="941.16,-828 808.91,-828 808.91,-792 941.16,-792 941.16,-828"/>
<text text-anchor="middle" x="875.03" y="-804.95" font-family="Arial" font-size="14.00">delete_field_value</text>
</g>
<!-- destroy&#45;&gt;delete_field_value -->
<g id="edge11" class="edge">
<title>destroy&#45;&gt;delete_field_value</title>
<path fill="none" stroke="black" d="M875.03,-1187.56C875.03,-1125.64 875.03,-915.98 875.03,-839.35"/>
<polygon fill="black" stroke="black" points="878.53,-839.75 875.03,-829.75 871.53,-839.75 878.53,-839.75"/>
</g>
<!-- pilot -->
<g id="node13" class="node">
<title>pilot</title>
<polygon fill="lightblue" stroke="white" points="497.03,-36 443.03,-36 443.03,0 497.03,0 497.03,-36"/>
<text text-anchor="middle" x="470.03" y="-12.95" font-family="Arial" font-size="14.00">pilot</text>
</g>
<!-- default_domain_owner&#45;&gt;pilot -->
<g id="edge15" class="edge">
<title>default_domain_owner&#45;&gt;pilot</title>
<path fill="none" stroke="black" d="M470.03,-395.56C470.03,-333.64 470.03,-123.98 470.03,-47.35"/>
<polygon fill="black" stroke="black" points="473.53,-47.75 470.03,-37.75 466.53,-47.75 473.53,-47.75"/>
</g>
</g>
</svg>
