<?xml version="1.0" encoding="UTF-8" standalone="no"?>
<!DOCTYPE svg PUBLIC "-//W3C//DTD SVG 1.1//EN"
 "http://www.w3.org/Graphics/SVG/1.1/DTD/svg11.dtd">
<!-- Generated by graphviz version 9.0.0 (20230911.1827)
 -->
<!-- Title: CallGraph Pages: 1 -->
<svg width="591pt" height="44pt"
 viewBox="0.00 0.00 591.25 44.00" xmlns="http://www.w3.org/2000/svg" xmlns:xlink="http://www.w3.org/1999/xlink">
<g id="graph0" class="graph" transform="scale(1 1) rotate(0) translate(4 40)">
<title>CallGraph</title>
<polygon fill="white" stroke="none" points="-4,4 -4,-40 587.25,-40 587.25,4 -4,4"/>
<!-- index -->
<g id="node1" class="node">
<title>index</title>
<polygon fill="lightblue" stroke="white" points="54,-36 0,-36 0,0 54,0 54,-36"/>
<text text-anchor="middle" x="27" y="-12.95" font-family="Arial" font-size="14.00">index</text>
</g>
<!-- create -->
<g id="node2" class="node">
<title>create</title>
<polygon fill="lightblue" stroke="white" points="145.88,-36 90.12,-36 90.12,0 145.88,0 145.88,-36"/>
<text text-anchor="middle" x="118" y="-12.95" font-family="Arial" font-size="14.00">create</text>
</g>
<!-- destroy -->
<g id="node3" class="node">
<title>destroy</title>
<polygon fill="lightblue" stroke="white" points="245.62,-36 182.38,-36 182.38,0 245.62,0 245.62,-36"/>
<text text-anchor="middle" x="214" y="-12.95" font-family="Arial" font-size="14.00">destroy</text>
</g>
<!-- set_contributable -->
<g id="node4" class="node">
<title>set_contributable</title>
<polygon fill="lightblue" stroke="white" points="406.38,-36 281.62,-36 281.62,0 406.38,0 406.38,-36"/>
<text text-anchor="middle" x="344" y="-12.95" font-family="Arial" font-size="14.00">set_contributable</text>
</g>
<!-- list_index_definition -->
<g id="node5" class="node">
<title>list_index_definition</title>
<polygon fill="lightblue" stroke="white" points="583.25,-36 442.75,-36 442.75,0 583.25,0 583.25,-36"/>
<text text-anchor="middle" x="513" y="-12.95" font-family="Arial" font-size="14.00">list_index_definition</text>
</g>
</g>
</svg>
