<?xml version="1.0" encoding="UTF-8" standalone="no"?>
<!DOCTYPE svg PUBLIC "-//W3C//DTD SVG 1.1//EN"
 "http://www.w3.org/Graphics/SVG/1.1/DTD/svg11.dtd">
<!-- Generated by graphviz version 9.0.0 (20230911.1827)
 -->
<!-- Title: CallGraph Pages: 1 -->
<svg width="1235pt" height="1232pt"
 viewBox="0.00 0.00 1234.75 1232.00" xmlns="http://www.w3.org/2000/svg" xmlns:xlink="http://www.w3.org/1999/xlink">
<g id="graph0" class="graph" transform="scale(1 1) rotate(0) translate(4 1228)">
<title>CallGraph</title>
<polygon fill="white" stroke="none" points="-4,4 -4,-1228 1230.75,-1228 1230.75,4 -4,4"/>
<!-- index -->
<g id="node1" class="node">
<title>index</title>
<polygon fill="lightblue" stroke="white" points="78,-1224 24,-1224 24,-1188 78,-1188 78,-1224"/>
<text text-anchor="middle" x="51" y="-1200.95" font-family="Arial" font-size="14.00">index</text>
</g>
<!-- new -->
<g id="node2" class="node">
<title>new</title>
<polygon fill="lightblue" stroke="white" points="168,-1224 114,-1224 114,-1188 168,-1188 168,-1224"/>
<text text-anchor="middle" x="141" y="-1200.95" font-family="Arial" font-size="14.00">new</text>
</g>
<!-- create -->
<g id="node3" class="node">
<title>create</title>
<polygon fill="lightblue" stroke="white" points="259.88,-1224 204.12,-1224 204.12,-1188 259.88,-1188 259.88,-1224"/>
<text text-anchor="middle" x="232" y="-1200.95" font-family="Arial" font-size="14.00">create</text>
</g>
<!-- save -->
<g id="node4" class="node">
<title>save</title>
<polygon fill="lightblue" stroke="white" points="265,-828 211,-828 211,-792 265,-792 265,-828"/>
<text text-anchor="middle" x="238" y="-804.95" font-family="Arial" font-size="14.00">save</text>
</g>
<!-- create&#45;&gt;save -->
<g id="edge1" class="edge">
<title>create&#45;&gt;save</title>
<path fill="none" stroke="black" d="M232.27,-1187.56C233.21,-1125.64 236.4,-915.98 237.57,-839.35"/>
<polygon fill="black" stroke="black" points="241.06,-839.8 237.71,-829.75 234.06,-839.7 241.06,-839.8"/>
</g>
<!-- edit -->
<g id="node5" class="node">
<title>edit</title>
<polygon fill="lightblue" stroke="white" points="679,-1224 625,-1224 625,-1188 679,-1188 679,-1224"/>
<text text-anchor="middle" x="652" y="-1200.95" font-family="Arial" font-size="14.00">edit</text>
</g>
<!-- confirm_delete -->
<g id="node6" class="node">
<title>confirm_delete</title>
<polygon fill="lightblue" stroke="white" points="826.62,-1224 715.38,-1224 715.38,-1188 826.62,-1188 826.62,-1224"/>
<text text-anchor="middle" x="771" y="-1200.95" font-family="Arial" font-size="14.00">confirm_delete</text>
</g>
<!-- delete_directories -->
<g id="node7" class="node">
<title>delete_directories</title>
<polygon fill="lightblue" stroke="white" points="589.38,-1224 458.62,-1224 458.62,-1188 589.38,-1188 589.38,-1224"/>
<text text-anchor="middle" x="524" y="-1200.95" font-family="Arial" font-size="14.00">delete_directories</text>
</g>
<!-- list_show_definition -->
<g id="node8" class="node">
<title>list_show_definition</title>
<polygon fill="lightblue" stroke="white" points="450.88,-828 311.12,-828 311.12,-792 450.88,-792 450.88,-828"/>
<text text-anchor="middle" x="381" y="-804.95" font-family="Arial" font-size="14.00">list_show_definition</text>
</g>
<!-- delete_directories&#45;&gt;list_show_definition -->
<g id="edge2" class="edge">
<title>delete_directories&#45;&gt;list_show_definition</title>
<path fill="none" stroke="black" d="M517.67,-1187.56C495.15,-1125.52 418.79,-915.12 391.12,-838.88"/>
<polygon fill="black" stroke="black" points="394.47,-837.87 387.77,-829.66 387.89,-840.25 394.47,-837.87"/>
</g>
<!-- destroy -->
<g id="node9" class="node">
<title>destroy</title>
<polygon fill="lightblue" stroke="white" points="555.62,-828 492.38,-828 492.38,-792 555.62,-792 555.62,-828"/>
<text text-anchor="middle" x="524" y="-804.95" font-family="Arial" font-size="14.00">destroy</text>
</g>
<!-- delete_directories&#45;&gt;destroy -->
<g id="edge3" class="edge">
<title>delete_directories&#45;&gt;destroy</title>
<path fill="none" stroke="black" d="M524,-1187.56C524,-1125.64 524,-915.98 524,-839.35"/>
<polygon fill="black" stroke="black" points="527.5,-839.75 524,-829.75 520.5,-839.75 527.5,-839.75"/>
</g>
<!-- order_children_by_type -->
<g id="node14" class="node">
<title>order_children_by_type</title>
<polygon fill="lightblue" stroke="white" points="166,-432 0,-432 0,-396 166,-396 166,-432"/>
<text text-anchor="middle" x="83" y="-408.95" font-family="Arial" font-size="14.00">order_children_by_type</text>
</g>
<!-- list_show_definition&#45;&gt;order_children_by_type -->
<g id="edge6" class="edge">
<title>list_show_definition&#45;&gt;order_children_by_type</title>
<path fill="none" stroke="black" d="M367.81,-791.56C320.5,-729.01 159.13,-515.65 102.69,-441.03"/>
<polygon fill="black" stroke="black" points="105.77,-439.31 96.95,-433.44 100.19,-443.53 105.77,-439.31"/>
</g>
<!-- order_children_by_created_at -->
<g id="node15" class="node">
<title>order_children_by_created_at</title>
<polygon fill="lightblue" stroke="white" points="728.25,-432 521.75,-432 521.75,-396 728.25,-396 728.25,-432"/>
<text text-anchor="middle" x="625" y="-408.95" font-family="Arial" font-size="14.00">order_children_by_created_at</text>
</g>
<!-- list_show_definition&#45;&gt;order_children_by_created_at -->
<g id="edge7" class="edge">
<title>list_show_definition&#45;&gt;order_children_by_created_at</title>
<path fill="none" stroke="black" d="M391.8,-791.56C430.38,-729.26 561.59,-517.39 608.31,-441.95"/>
<polygon fill="black" stroke="black" points="611.24,-443.87 613.53,-433.52 605.29,-440.18 611.24,-443.87"/>
</g>
<!-- order_children_by_updated_at -->
<g id="node16" class="node">
<title>order_children_by_updated_at</title>
<polygon fill="lightblue" stroke="white" points="486.12,-432 275.88,-432 275.88,-396 486.12,-396 486.12,-432"/>
<text text-anchor="middle" x="381" y="-408.95" font-family="Arial" font-size="14.00">order_children_by_updated_at</text>
</g>
<!-- list_show_definition&#45;&gt;order_children_by_updated_at -->
<g id="edge8" class="edge">
<title>list_show_definition&#45;&gt;order_children_by_updated_at</title>
<path fill="none" stroke="black" d="M381,-791.56C381,-729.64 381,-519.98 381,-443.35"/>
<polygon fill="black" stroke="black" points="384.5,-443.75 381,-433.75 377.5,-443.75 384.5,-443.75"/>
</g>
<!-- order_children_by_title -->
<g id="node17" class="node">
<title>order_children_by_title</title>
<polygon fill="lightblue" stroke="white" points="385.38,-36 224.62,-36 224.62,0 385.38,0 385.38,-36"/>
<text text-anchor="middle" x="305" y="-12.95" font-family="Arial" font-size="14.00">order_children_by_title</text>
</g>
<!-- list_show_definition&#45;&gt;order_children_by_title -->
<g id="edge9" class="edge">
<title>list_show_definition&#45;&gt;order_children_by_title</title>
<path fill="none" stroke="black" d="M373.22,-791.82C349.9,-739.32 280.87,-575.8 258,-432 235.12,-288.12 277.56,-114.33 296.52,-47.28"/>
<polygon fill="black" stroke="black" points="299.83,-48.42 299.24,-37.84 293.11,-46.48 299.83,-48.42"/>
</g>
<!-- order_children_by_title_inv -->
<g id="node18" class="node">
<title>order_children_by_title_inv</title>
<polygon fill="lightblue" stroke="white" points="950.12,-432 763.88,-432 763.88,-396 950.12,-396 950.12,-432"/>
<text text-anchor="middle" x="857" y="-408.95" font-family="Arial" font-size="14.00">order_children_by_title_inv</text>
</g>
<!-- list_show_definition&#45;&gt;order_children_by_title_inv -->
<g id="edge10" class="edge">
<title>list_show_definition&#45;&gt;order_children_by_title_inv</title>
<path fill="none" stroke="black" d="M402.07,-791.56C478.09,-728.63 738.49,-513.1 827.15,-439.7"/>
<polygon fill="black" stroke="black" points="829.27,-442.5 834.74,-433.42 824.81,-437.1 829.27,-442.5"/>
</g>
<!-- move_directories -->
<g id="node10" class="node">
<title>move_directories</title>
<polygon fill="lightblue" stroke="white" points="422.12,-1224 295.88,-1224 295.88,-1188 422.12,-1188 422.12,-1224"/>
<text text-anchor="middle" x="359" y="-1200.95" font-family="Arial" font-size="14.00">move_directories</text>
</g>
<!-- move_directories&#45;&gt;save -->
<g id="edge5" class="edge">
<title>move_directories&#45;&gt;save</title>
<path fill="none" stroke="black" d="M353.64,-1187.56C334.59,-1125.52 269.98,-915.12 246.56,-838.88"/>
<polygon fill="black" stroke="black" points="250.02,-838.22 243.74,-829.68 243.33,-840.27 250.02,-838.22"/>
</g>
<!-- move_directories&#45;&gt;list_show_definition -->
<g id="edge4" class="edge">
<title>move_directories&#45;&gt;list_show_definition</title>
<path fill="none" stroke="black" d="M359.97,-1187.56C363.43,-1125.64 375.14,-915.98 379.42,-839.35"/>
<polygon fill="black" stroke="black" points="382.89,-839.93 379.95,-829.75 375.9,-839.54 382.89,-839.93"/>
</g>
<!-- show -->
<g id="node11" class="node">
<title>show</title>
<polygon fill="lightblue" stroke="white" points="917,-1224 863,-1224 863,-1188 917,-1188 917,-1224"/>
<text text-anchor="middle" x="890" y="-1200.95" font-family="Arial" font-size="14.00">show</text>
</g>
<!-- confirm_move -->
<g id="node12" class="node">
<title>confirm_move</title>
<polygon fill="lightblue" stroke="white" points="1059.38,-1224 952.62,-1224 952.62,-1188 1059.38,-1188 1059.38,-1224"/>
<text text-anchor="middle" x="1006" y="-1200.95" font-family="Arial" font-size="14.00">confirm_move</text>
</g>
<!-- set_root_directory -->
<g id="node13" class="node">
<title>set_root_directory</title>
<polygon fill="lightblue" stroke="white" points="1226.75,-1224 1095.25,-1224 1095.25,-1188 1226.75,-1188 1226.75,-1224"/>
<text text-anchor="middle" x="1161" y="-1200.95" font-family="Arial" font-size="14.00">set_root_directory</text>
</g>
<!-- order_children_by_type&#45;&gt;order_children_by_title -->
<g id="edge11" class="edge">
<title>order_children_by_type&#45;&gt;order_children_by_title</title>
<path fill="none" stroke="black" d="M92.83,-395.56C127.93,-333.26 247.31,-121.39 289.82,-45.95"/>
<polygon fill="black" stroke="black" points="292.69,-47.99 294.54,-37.56 286.59,-44.55 292.69,-47.99"/>
</g>
<!-- order_children_by_created_at&#45;&gt;order_children_by_title -->
<g id="edge13" class="edge">
<title>order_children_by_created_at&#45;&gt;order_children_by_title</title>
<path fill="none" stroke="black" d="M610.84,-395.56C560.03,-333.01 386.75,-119.65 326.14,-45.03"/>
<polygon fill="black" stroke="black" points="328.97,-42.97 319.95,-37.41 323.54,-47.38 328.97,-42.97"/>
</g>
<!-- reject -->
<g id="node19" class="node">
<title>reject</title>
<polygon fill="lightblue" stroke="white" points="483,-36 429,-36 429,0 483,0 483,-36"/>
<text text-anchor="middle" x="456" y="-12.95" font-family="Arial" font-size="14.00">reject</text>
</g>
<!-- order_children_by_created_at&#45;&gt;reject -->
<g id="edge12" class="edge">
<title>order_children_by_created_at&#45;&gt;reject</title>
<path fill="none" stroke="black" d="M617.52,-395.56C590.85,-333.39 500.29,-122.26 467.76,-46.41"/>
<polygon fill="black" stroke="black" points="471.15,-45.44 463.99,-37.63 464.72,-48.2 471.15,-45.44"/>
</g>
<!-- order_children_by_updated_at&#45;&gt;order_children_by_title -->
<g id="edge15" class="edge">
<title>order_children_by_updated_at&#45;&gt;order_children_by_title</title>
<path fill="none" stroke="black" d="M377.64,-395.56C365.69,-333.64 325.25,-123.98 310.47,-47.35"/>
<polygon fill="black" stroke="black" points="313.94,-46.88 308.61,-37.72 307.07,-48.2 313.94,-46.88"/>
</g>
<!-- order_children_by_updated_at&#45;&gt;reject -->
<g id="edge14" class="edge">
<title>order_children_by_updated_at&#45;&gt;reject</title>
<path fill="none" stroke="black" d="M384.32,-395.56C396.11,-333.64 436.02,-123.98 450.6,-47.35"/>
<polygon fill="black" stroke="black" points="454,-48.2 452.44,-37.72 447.13,-46.89 454,-48.2"/>
</g>
</g>
</svg>
