<?xml version="1.0" encoding="UTF-8" standalone="no"?>
<!DOCTYPE svg PUBLIC "-//W3C//DTD SVG 1.1//EN"
 "http://www.w3.org/Graphics/SVG/1.1/DTD/svg11.dtd">
<!-- Generated by graphviz version 9.0.0 (20230911.1827)
 -->
<!-- Title: CallGraph Pages: 1 -->
<svg width="5822pt" height="497pt"
 viewBox="0.00 0.00 5822.12 496.69" xmlns="http://www.w3.org/2000/svg" xmlns:xlink="http://www.w3.org/1999/xlink">
<g id="graph0" class="graph" transform="scale(1 1) rotate(0) translate(4 492.69)">
<title>CallGraph</title>
<polygon fill="white" stroke="none" points="-4,4 -4,-492.69 5818.12,-492.69 5818.12,4 -4,4"/>
<!-- wording -->
<g id="node1" class="node">
<title>wording</title>
<polygon fill="lightblue" stroke="white" points="65.5,-432 0,-432 0,-396 65.5,-396 65.5,-432"/>
<text text-anchor="middle" x="32.75" y="-408.95" font-family="Arial" font-size="14.00">wording</text>
</g>
<!-- new -->
<g id="node2" class="node">
<title>new</title>
<polygon fill="lightblue" stroke="white" points="155.75,-432 101.75,-432 101.75,-396 155.75,-396 155.75,-432"/>
<text text-anchor="middle" x="128.75" y="-408.95" font-family="Arial" font-size="14.00">new</text>
</g>
<!-- new&#45;&gt;new -->
<g id="edge1" class="edge">
<title>new&#45;&gt;new</title>
<path fill="none" stroke="black" d="M133.19,-432.41C155.14,-512.56 191.75,-506.43 191.75,-414 191.75,-325.91 158.49,-316.2 136.37,-384.88"/>
<polygon fill="black" stroke="black" points="133.12,-383.55 133.62,-394.14 139.83,-385.55 133.12,-383.55"/>
</g>
<!-- create -->
<g id="node3" class="node">
<title>create</title>
<polygon fill="lightblue" stroke="white" points="525.62,-432 469.88,-432 469.88,-396 525.62,-396 525.62,-432"/>
<text text-anchor="middle" x="497.75" y="-408.95" font-family="Arial" font-size="14.00">create</text>
</g>
<!-- document_params -->
<g id="node4" class="node">
<title>document_params</title>
<polygon fill="lightblue" stroke="white" points="356,-36 221.5,-36 221.5,0 356,0 356,-36"/>
<text text-anchor="middle" x="288.75" y="-12.95" font-family="Arial" font-size="14.00">document_params</text>
</g>
<!-- create&#45;&gt;document_params -->
<g id="edge2" class="edge">
<title>create&#45;&gt;document_params</title>
<path fill="none" stroke="black" d="M488.5,-395.56C455.45,-333.26 343.06,-121.39 303.04,-45.95"/>
<polygon fill="black" stroke="black" points="306.38,-44.77 298.6,-37.57 300.2,-48.05 306.38,-44.77"/>
</g>
<!-- directory -->
<g id="node5" class="node">
<title>directory</title>
<polygon fill="lightblue" stroke="white" points="612.12,-36 541.38,-36 541.38,0 612.12,0 612.12,-36"/>
<text text-anchor="middle" x="576.75" y="-12.95" font-family="Arial" font-size="14.00">directory</text>
</g>
<!-- create&#45;&gt;directory -->
<g id="edge3" class="edge">
<title>create&#45;&gt;directory</title>
<path fill="none" stroke="black" d="M501.25,-395.56C513.66,-333.64 555.7,-123.98 571.07,-47.35"/>
<polygon fill="black" stroke="black" points="574.46,-48.21 573,-37.72 567.6,-46.84 574.46,-48.21"/>
</g>
<!-- save -->
<g id="node6" class="node">
<title>save</title>
<polygon fill="lightblue" stroke="white" points="701.75,-36 647.75,-36 647.75,0 701.75,0 701.75,-36"/>
<text text-anchor="middle" x="674.75" y="-12.95" font-family="Arial" font-size="14.00">save</text>
</g>
<!-- create&#45;&gt;save -->
<g id="edge4" class="edge">
<title>create&#45;&gt;save</title>
<path fill="none" stroke="black" d="M505.58,-395.56C533.51,-333.39 628.36,-122.26 662.44,-46.41"/>
<polygon fill="black" stroke="black" points="665.48,-48.17 666.39,-37.62 659.1,-45.3 665.48,-48.17"/>
</g>
<!-- fill_errors_hash -->
<g id="node7" class="node">
<title>fill_errors_hash</title>
<polygon fill="lightblue" stroke="white" points="505.5,-36 392,-36 392,0 505.5,0 505.5,-36"/>
<text text-anchor="middle" x="448.75" y="-12.95" font-family="Arial" font-size="14.00">fill_errors_hash</text>
</g>
<!-- create&#45;&gt;fill_errors_hash -->
<g id="edge5" class="edge">
<title>create&#45;&gt;fill_errors_hash</title>
<path fill="none" stroke="black" d="M495.58,-395.56C487.88,-333.64 461.81,-123.98 452.28,-47.35"/>
<polygon fill="black" stroke="black" points="455.79,-47.23 451.08,-37.74 448.84,-48.09 455.79,-47.23"/>
</g>
<!-- edit_actual_url -->
<g id="node8" class="node">
<title>edit_actual_url</title>
<polygon fill="lightblue" stroke="white" points="958.5,-432 851,-432 851,-396 958.5,-396 958.5,-432"/>
<text text-anchor="middle" x="904.75" y="-408.95" font-family="Arial" font-size="14.00">edit_actual_url</text>
</g>
<!-- confirm_destroy_groupdocument -->
<g id="node9" class="node">
<title>confirm_destroy_groupdocument</title>
<polygon fill="lightblue" stroke="white" points="1221.12,-432 994.38,-432 994.38,-396 1221.12,-396 1221.12,-432"/>
<text text-anchor="middle" x="1107.75" y="-408.95" font-family="Arial" font-size="14.00">confirm_destroy_groupdocument</text>
</g>
<!-- confirm_destroy_version -->
<g id="node10" class="node">
<title>confirm_destroy_version</title>
<polygon fill="lightblue" stroke="white" points="1430.12,-432 1257.38,-432 1257.38,-396 1430.12,-396 1430.12,-432"/>
<text text-anchor="middle" x="1343.75" y="-408.95" font-family="Arial" font-size="14.00">confirm_destroy_version</text>
</g>
<!-- destroy_version -->
<g id="node11" class="node">
<title>destroy_version</title>
<polygon fill="lightblue" stroke="white" points="1583.38,-432 1466.12,-432 1466.12,-396 1583.38,-396 1583.38,-432"/>
<text text-anchor="middle" x="1524.75" y="-408.95" font-family="Arial" font-size="14.00">destroy_version</text>
</g>
<!-- destroy -->
<g id="node12" class="node">
<title>destroy</title>
<polygon fill="lightblue" stroke="white" points="1556.38,-36 1493.12,-36 1493.12,0 1556.38,0 1556.38,-36"/>
<text text-anchor="middle" x="1524.75" y="-12.95" font-family="Arial" font-size="14.00">destroy</text>
</g>
<!-- destroy_version&#45;&gt;destroy -->
<g id="edge6" class="edge">
<title>destroy_version&#45;&gt;destroy</title>
<path fill="none" stroke="black" d="M1524.75,-395.56C1524.75,-333.64 1524.75,-123.98 1524.75,-47.35"/>
<polygon fill="black" stroke="black" points="1528.25,-47.75 1524.75,-37.75 1521.25,-47.75 1528.25,-47.75"/>
</g>
<!-- show -->
<g id="node13" class="node">
<title>show</title>
<polygon fill="lightblue" stroke="white" points="1673.75,-432 1619.75,-432 1619.75,-396 1673.75,-396 1673.75,-432"/>
<text text-anchor="middle" x="1646.75" y="-408.95" font-family="Arial" font-size="14.00">show</text>
</g>
<!-- show_properties -->
<g id="node14" class="node">
<title>show_properties</title>
<polygon fill="lightblue" stroke="white" points="1831.62,-432 1709.88,-432 1709.88,-396 1831.62,-396 1831.62,-432"/>
<text text-anchor="middle" x="1770.75" y="-408.95" font-family="Arial" font-size="14.00">show_properties</text>
</g>
<!-- download -->
<g id="node15" class="node">
<title>download</title>
<polygon fill="lightblue" stroke="white" points="1944.12,-432 1867.38,-432 1867.38,-396 1944.12,-396 1944.12,-432"/>
<text text-anchor="middle" x="1905.75" y="-408.95" font-family="Arial" font-size="14.00">download</text>
</g>
<!-- search_actors -->
<g id="node16" class="node">
<title>search_actors</title>
<polygon fill="lightblue" stroke="white" points="2085.75,-432 1979.75,-432 1979.75,-396 2085.75,-396 2085.75,-432"/>
<text text-anchor="middle" x="2032.75" y="-408.95" font-family="Arial" font-size="14.00">search_actors</text>
</g>
<!-- diary -->
<g id="node17" class="node">
<title>diary</title>
<polygon fill="lightblue" stroke="white" points="2175.75,-432 2121.75,-432 2121.75,-396 2175.75,-396 2175.75,-432"/>
<text text-anchor="middle" x="2148.75" y="-408.95" font-family="Arial" font-size="14.00">diary</text>
</g>
<!-- historical -->
<g id="node18" class="node">
<title>historical</title>
<polygon fill="lightblue" stroke="white" points="2283.5,-432 2212,-432 2212,-396 2283.5,-396 2283.5,-432"/>
<text text-anchor="middle" x="2247.75" y="-408.95" font-family="Arial" font-size="14.00">historical</text>
</g>
<!-- confirm_author -->
<g id="node19" class="node">
<title>confirm_author</title>
<polygon fill="lightblue" stroke="white" points="2430,-432 2319.5,-432 2319.5,-396 2430,-396 2430,-432"/>
<text text-anchor="middle" x="2374.75" y="-408.95" font-family="Arial" font-size="14.00">confirm_author</text>
</g>
<!-- author -->
<g id="node20" class="node">
<title>author</title>
<polygon fill="lightblue" stroke="white" points="2526.25,-36 2471.25,-36 2471.25,0 2526.25,0 2526.25,-36"/>
<text text-anchor="middle" x="2498.75" y="-12.95" font-family="Arial" font-size="14.00">author</text>
</g>
<!-- update -->
<g id="node21" class="node">
<title>update</title>
<polygon fill="lightblue" stroke="white" points="269.5,-432 210,-432 210,-396 269.5,-396 269.5,-432"/>
<text text-anchor="middle" x="239.75" y="-408.95" font-family="Arial" font-size="14.00">update</text>
</g>
<!-- update&#45;&gt;document_params -->
<g id="edge7" class="edge">
<title>update&#45;&gt;document_params</title>
<path fill="none" stroke="black" d="M241.92,-395.56C249.62,-333.64 275.69,-123.98 285.22,-47.35"/>
<polygon fill="black" stroke="black" points="288.66,-48.09 286.42,-37.74 281.71,-47.23 288.66,-48.09"/>
</g>
<!-- update_tags -->
<g id="node22" class="node">
<title>update_tags</title>
<polygon fill="lightblue" stroke="white" points="815.12,-432 720.38,-432 720.38,-396 815.12,-396 815.12,-432"/>
<text text-anchor="middle" x="767.75" y="-408.95" font-family="Arial" font-size="14.00">update_tags</text>
</g>
<!-- update_tags&#45;&gt;save -->
<g id="edge8" class="edge">
<title>update_tags&#45;&gt;save</title>
<path fill="none" stroke="black" d="M763.63,-395.56C749.02,-333.64 699.53,-123.98 681.44,-47.35"/>
<polygon fill="black" stroke="black" points="684.87,-46.64 679.17,-37.71 678.06,-48.25 684.87,-46.64"/>
</g>
<!-- update_actual_url -->
<g id="node23" class="node">
<title>update_actual_url</title>
<polygon fill="lightblue" stroke="white" points="433.62,-432 305.88,-432 305.88,-396 433.62,-396 433.62,-432"/>
<text text-anchor="middle" x="369.75" y="-408.95" font-family="Arial" font-size="14.00">update_actual_url</text>
</g>
<!-- update_actual_url&#45;&gt;document_params -->
<g id="edge9" class="edge">
<title>update_actual_url&#45;&gt;document_params</title>
<path fill="none" stroke="black" d="M366.17,-395.56C353.44,-333.64 310.33,-123.98 294.58,-47.35"/>
<polygon fill="black" stroke="black" points="298.04,-46.81 292.6,-37.72 291.18,-48.22 298.04,-46.81"/>
</g>
<!-- update_actual_url&#45;&gt;fill_errors_hash -->
<g id="edge10" class="edge">
<title>update_actual_url&#45;&gt;fill_errors_hash</title>
<path fill="none" stroke="black" d="M373.25,-395.56C385.66,-333.64 427.7,-123.98 443.07,-47.35"/>
<polygon fill="black" stroke="black" points="446.46,-48.21 445,-37.72 439.6,-46.84 446.46,-48.21"/>
</g>
<!-- move_document -->
<g id="node24" class="node">
<title>move_document</title>
<polygon fill="lightblue" stroke="white" points="684,-432 561.5,-432 561.5,-396 684,-396 684,-432"/>
<text text-anchor="middle" x="622.75" y="-408.95" font-family="Arial" font-size="14.00">move_document</text>
</g>
<!-- move_document&#45;&gt;save -->
<g id="edge11" class="edge">
<title>move_document&#45;&gt;save</title>
<path fill="none" stroke="black" d="M625.05,-395.56C633.22,-333.64 660.89,-123.98 671.01,-47.35"/>
<polygon fill="black" stroke="black" points="674.44,-48.11 672.28,-37.74 667.5,-47.19 674.44,-48.11"/>
</g>
<!-- move_document&#45;&gt;fill_errors_hash -->
<g id="edge12" class="edge">
<title>move_document&#45;&gt;fill_errors_hash</title>
<path fill="none" stroke="black" d="M615.05,-395.56C587.59,-333.39 494.35,-122.26 460.86,-46.41"/>
<polygon fill="black" stroke="black" points="464.22,-45.35 456.97,-37.62 457.81,-48.18 464.22,-45.35"/>
</g>
<!-- linkable -->
<g id="node25" class="node">
<title>linkable</title>
<polygon fill="lightblue" stroke="white" points="2630.38,-432 2567.12,-432 2567.12,-396 2630.38,-396 2630.38,-432"/>
<text text-anchor="middle" x="2598.75" y="-408.95" font-family="Arial" font-size="14.00">linkable</text>
</g>
<!-- start_wf -->
<g id="node26" class="node">
<title>start_wf</title>
<polygon fill="lightblue" stroke="white" points="2531.5,-432 2466,-432 2466,-396 2531.5,-396 2531.5,-432"/>
<text text-anchor="middle" x="2498.75" y="-408.95" font-family="Arial" font-size="14.00">start_wf</text>
</g>
<!-- start_wf&#45;&gt;author -->
<g id="edge13" class="edge">
<title>start_wf&#45;&gt;author</title>
<path fill="none" stroke="black" d="M2498.75,-395.56C2498.75,-333.64 2498.75,-123.98 2498.75,-47.35"/>
<polygon fill="black" stroke="black" points="2502.25,-47.75 2498.75,-37.75 2495.25,-47.75 2502.25,-47.75"/>
</g>
<!-- confirm_increment_version -->
<g id="node27" class="node">
<title>confirm_increment_version</title>
<polygon fill="lightblue" stroke="white" points="2854.62,-432 2666.88,-432 2666.88,-396 2854.62,-396 2854.62,-432"/>
<text text-anchor="middle" x="2760.75" y="-408.95" font-family="Arial" font-size="14.00">confirm_increment_version</text>
</g>
<!-- increment_version -->
<g id="node28" class="node">
<title>increment_version</title>
<polygon fill="lightblue" stroke="white" points="3022.88,-432 2890.62,-432 2890.62,-396 3022.88,-396 3022.88,-432"/>
<text text-anchor="middle" x="2956.75" y="-408.95" font-family="Arial" font-size="14.00">increment_version</text>
</g>
<!-- confirm_historical_increment_version -->
<g id="node29" class="node">
<title>confirm_historical_increment_version</title>
<polygon fill="lightblue" stroke="white" points="3310.5,-432 3059,-432 3059,-396 3310.5,-396 3310.5,-432"/>
<text text-anchor="middle" x="3184.75" y="-408.95" font-family="Arial" font-size="14.00">confirm_historical_increment_version</text>
</g>
<!-- historical_increment_version -->
<g id="node30" class="node">
<title>historical_increment_version</title>
<polygon fill="lightblue" stroke="white" points="3542.75,-432 3346.75,-432 3346.75,-396 3542.75,-396 3542.75,-432"/>
<text text-anchor="middle" x="3444.75" y="-408.95" font-family="Arial" font-size="14.00">historical_increment_version</text>
</g>
<!-- unlock -->
<g id="node31" class="node">
<title>unlock</title>
<polygon fill="lightblue" stroke="white" points="3635,-432 3578.5,-432 3578.5,-396 3635,-396 3635,-432"/>
<text text-anchor="middle" x="3606.75" y="-408.95" font-family="Arial" font-size="14.00">unlock</text>
</g>
<!-- user_not_authorized -->
<g id="node32" class="node">
<title>user_not_authorized</title>
<polygon fill="lightblue" stroke="white" points="3816.25,-432 3671.25,-432 3671.25,-396 3816.25,-396 3816.25,-432"/>
<text text-anchor="middle" x="3743.75" y="-408.95" font-family="Arial" font-size="14.00">user_not_authorized</text>
</g>
<!-- interactions -->
<g id="node33" class="node">
<title>interactions</title>
<polygon fill="lightblue" stroke="white" points="3940.75,-432 3852.75,-432 3852.75,-396 3940.75,-396 3940.75,-432"/>
<text text-anchor="middle" x="3896.75" y="-408.95" font-family="Arial" font-size="14.00">interactions</text>
</g>
<!-- deactivate -->
<g id="node34" class="node">
<title>deactivate</title>
<polygon fill="lightblue" stroke="white" points="4057,-432 3976.5,-432 3976.5,-396 4057,-396 4057,-432"/>
<text text-anchor="middle" x="4016.75" y="-408.95" font-family="Arial" font-size="14.00">deactivate</text>
</g>
<!-- activate -->
<g id="node35" class="node">
<title>activate</title>
<polygon fill="lightblue" stroke="white" points="4156.75,-432 4092.75,-432 4092.75,-396 4156.75,-396 4156.75,-432"/>
<text text-anchor="middle" x="4124.75" y="-408.95" font-family="Arial" font-size="14.00">activate</text>
</g>
<!-- settings_print_footer -->
<g id="node36" class="node">
<title>settings_print_footer</title>
<polygon fill="lightblue" stroke="white" points="4339,-432 4192.5,-432 4192.5,-396 4339,-396 4339,-432"/>
<text text-anchor="middle" x="4265.75" y="-408.95" font-family="Arial" font-size="14.00">settings_print_footer</text>
</g>
<!-- check_reference -->
<g id="node37" class="node">
<title>check_reference</title>
<polygon fill="lightblue" stroke="white" points="4498.38,-432 4375.12,-432 4375.12,-396 4498.38,-396 4498.38,-432"/>
<text text-anchor="middle" x="4436.75" y="-408.95" font-family="Arial" font-size="14.00">check_reference</text>
</g>
<!-- read_confirmation -->
<g id="node38" class="node">
<title>read_confirmation</title>
<polygon fill="lightblue" stroke="white" points="4664.75,-432 4534.75,-432 4534.75,-396 4664.75,-396 4664.75,-432"/>
<text text-anchor="middle" x="4599.75" y="-408.95" font-family="Arial" font-size="14.00">read_confirmation</text>
</g>
<!-- list_read_confirmations -->
<g id="node39" class="node">
<title>list_read_confirmations</title>
<polygon fill="lightblue" stroke="white" points="4864.25,-432 4701.25,-432 4701.25,-396 4864.25,-396 4864.25,-432"/>
<text text-anchor="middle" x="4782.75" y="-408.95" font-family="Arial" font-size="14.00">list_read_confirmations</text>
</g>
<!-- send_read_confirmation_reminders -->
<g id="node40" class="node">
<title>send_read_confirmation_reminders</title>
<polygon fill="lightblue" stroke="white" points="5141.62,-432 4899.88,-432 4899.88,-396 5141.62,-396 5141.62,-432"/>
<text text-anchor="middle" x="5020.75" y="-408.95" font-family="Arial" font-size="14.00">send_read_confirmation_reminders</text>
</g>
<!-- require_document_in_accept_state -->
<g id="node41" class="node">
<title>require_document_in_accept_state</title>
<polygon fill="lightblue" stroke="white" points="5417.88,-432 5177.62,-432 5177.62,-396 5417.88,-396 5417.88,-432"/>
<text text-anchor="middle" x="5297.75" y="-408.95" font-family="Arial" font-size="14.00">require_document_in_accept_state</text>
</g>
<!-- document_unlockable -->
<g id="node42" class="node">
<title>document_unlockable</title>
<polygon fill="lightblue" stroke="white" points="5375.12,-36 5220.38,-36 5220.38,0 5375.12,0 5375.12,-36"/>
<text text-anchor="middle" x="5297.75" y="-12.95" font-family="Arial" font-size="14.00">document_unlockable</text>
</g>
<!-- require_document_in_accept_state&#45;&gt;document_unlockable -->
<g id="edge14" class="edge">
<title>require_document_in_accept_state&#45;&gt;document_unlockable</title>
<path fill="none" stroke="black" d="M5297.75,-395.56C5297.75,-333.64 5297.75,-123.98 5297.75,-47.35"/>
<polygon fill="black" stroke="black" points="5301.25,-47.75 5297.75,-37.75 5294.25,-47.75 5301.25,-47.75"/>
</g>
<!-- index_orders_last_position -->
<g id="node43" class="node">
<title>index_orders_last_position</title>
<polygon fill="lightblue" stroke="white" points="5641.25,-432 5454.25,-432 5454.25,-396 5641.25,-396 5641.25,-432"/>
<text text-anchor="middle" x="5547.75" y="-408.95" font-family="Arial" font-size="14.00">index_orders_last_position</text>
</g>
<!-- check_deactivation -->
<g id="node44" class="node">
<title>check_deactivation</title>
<polygon fill="lightblue" stroke="white" points="5814.12,-432 5677.38,-432 5677.38,-396 5814.12,-396 5814.12,-432"/>
<text text-anchor="middle" x="5745.75" y="-408.95" font-family="Arial" font-size="14.00">check_deactivation</text>
</g>
</g>
</svg>
