<?xml version="1.0" encoding="UTF-8" standalone="no"?>
<!DOCTYPE svg PUBLIC "-//W3C//DTD SVG 1.1//EN"
 "http://www.w3.org/Graphics/SVG/1.1/DTD/svg11.dtd">
<!-- Generated by graphviz version 9.0.0 (20230911.1827)
 -->
<!-- Title: CallGraph Pages: 1 -->
<svg width="154pt" height="440pt"
 viewBox="0.00 0.00 153.50 440.00" xmlns="http://www.w3.org/2000/svg" xmlns:xlink="http://www.w3.org/1999/xlink">
<g id="graph0" class="graph" transform="scale(1 1) rotate(0) translate(4 436)">
<title>CallGraph</title>
<polygon fill="white" stroke="none" points="-4,4 -4,-436 149.5,-436 149.5,4 -4,4"/>
<!-- index -->
<g id="node1" class="node">
<title>index</title>
<polygon fill="lightblue" stroke="white" points="99,-432 45,-432 45,-396 99,-396 99,-432"/>
<text text-anchor="middle" x="72" y="-408.95" font-family="Arial" font-size="14.00">index</text>
</g>
<!-- all -->
<g id="node2" class="node">
<title>all</title>
<polygon fill="lightblue" stroke="white" points="54,-36 0,-36 0,0 54,0 54,-36"/>
<text text-anchor="middle" x="27" y="-12.95" font-family="Arial" font-size="14.00">all</text>
</g>
<!-- index&#45;&gt;all -->
<g id="edge1" class="edge">
<title>index&#45;&gt;all</title>
<path fill="none" stroke="black" d="M70.01,-395.56C62.94,-333.64 38.99,-123.98 30.24,-47.35"/>
<polygon fill="black" stroke="black" points="33.75,-47.28 29.14,-37.74 26.8,-48.07 33.75,-47.28"/>
</g>
<!-- colors -->
<g id="node3" class="node">
<title>colors</title>
<polygon fill="lightblue" stroke="white" points="145.5,-36 90.5,-36 90.5,0 145.5,0 145.5,-36"/>
<text text-anchor="middle" x="118" y="-12.95" font-family="Arial" font-size="14.00">colors</text>
</g>
<!-- index&#45;&gt;colors -->
<g id="edge2" class="edge">
<title>index&#45;&gt;colors</title>
<path fill="none" stroke="black" d="M74.04,-395.56C81.26,-333.64 105.74,-123.98 114.69,-47.35"/>
<polygon fill="black" stroke="black" points="118.13,-48.08 115.81,-37.74 111.18,-47.27 118.13,-48.08"/>
</g>
</g>
</svg>
