<?xml version="1.0" encoding="UTF-8" standalone="no"?>
<!DOCTYPE svg PUBLIC "-//W3C//DTD SVG 1.1//EN"
 "http://www.w3.org/Graphics/SVG/1.1/DTD/svg11.dtd">
<!-- Generated by graphviz version 9.0.0 (20230911.1827)
 -->
<!-- Title: CallGraph Pages: 1 -->
<svg width="7960pt" height="1685pt"
 viewBox="0.00 0.00 7960.38 1684.69" xmlns="http://www.w3.org/2000/svg" xmlns:xlink="http://www.w3.org/1999/xlink">
<g id="graph0" class="graph" transform="scale(1 1) rotate(0) translate(4 1680.69)">
<title>CallGraph</title>
<polygon fill="white" stroke="none" points="-4,4 -4,-1680.69 7956.38,-1680.69 7956.38,4 -4,4"/>
<!-- wording -->
<g id="node1" class="node">
<title>wording</title>
<polygon fill="lightblue" stroke="white" points="65.5,-1620 0,-1620 0,-1584 65.5,-1584 65.5,-1620"/>
<text text-anchor="middle" x="32.75" y="-1596.95" font-family="Arial" font-size="14.00">wording</text>
</g>
<!-- show -->
<g id="node2" class="node">
<title>show</title>
<polygon fill="lightblue" stroke="white" points="155.75,-1620 101.75,-1620 101.75,-1584 155.75,-1584 155.75,-1620"/>
<text text-anchor="middle" x="128.75" y="-1596.95" font-family="Arial" font-size="14.00">show</text>
</g>
<!-- show_properties -->
<g id="node3" class="node">
<title>show_properties</title>
<polygon fill="lightblue" stroke="white" points="313.62,-1620 191.88,-1620 191.88,-1584 313.62,-1584 313.62,-1620"/>
<text text-anchor="middle" x="252.75" y="-1596.95" font-family="Arial" font-size="14.00">show_properties</text>
</g>
<!-- new -->
<g id="node4" class="node">
<title>new</title>
<polygon fill="lightblue" stroke="white" points="219.75,-828 165.75,-828 165.75,-792 219.75,-792 219.75,-828"/>
<text text-anchor="middle" x="192.75" y="-804.95" font-family="Arial" font-size="14.00">new</text>
</g>
<!-- new&#45;&gt;new -->
<g id="edge1" class="edge">
<title>new&#45;&gt;new</title>
<path fill="none" stroke="black" d="M197.19,-828.41C219.14,-908.56 255.75,-902.43 255.75,-810 255.75,-721.91 222.49,-712.2 200.37,-780.88"/>
<polygon fill="black" stroke="black" points="197.12,-779.55 197.62,-790.14 203.83,-781.55 197.12,-779.55"/>
</g>
<!-- create -->
<g id="node5" class="node">
<title>create</title>
<polygon fill="lightblue" stroke="white" points="876.62,-1620 820.88,-1620 820.88,-1584 876.62,-1584 876.62,-1620"/>
<text text-anchor="middle" x="848.75" y="-1596.95" font-family="Arial" font-size="14.00">create</text>
</g>
<!-- graph_params -->
<g id="node6" class="node">
<title>graph_params</title>
<polygon fill="lightblue" stroke="white" points="1073.5,-1224 966,-1224 966,-1188 1073.5,-1188 1073.5,-1224"/>
<text text-anchor="middle" x="1019.75" y="-1200.95" font-family="Arial" font-size="14.00">graph_params</text>
</g>
<!-- create&#45;&gt;graph_params -->
<g id="edge2" class="edge">
<title>create&#45;&gt;graph_params</title>
<path fill="none" stroke="black" d="M856.32,-1583.56C883.3,-1521.39 974.94,-1310.26 1007.85,-1234.41"/>
<polygon fill="black" stroke="black" points="1010.9,-1236.19 1011.67,-1225.63 1004.47,-1233.4 1010.9,-1236.19"/>
</g>
<!-- directory -->
<g id="node7" class="node">
<title>directory</title>
<polygon fill="lightblue" stroke="white" points="780.12,-1224 709.38,-1224 709.38,-1188 780.12,-1188 780.12,-1224"/>
<text text-anchor="middle" x="744.75" y="-1200.95" font-family="Arial" font-size="14.00">directory</text>
</g>
<!-- create&#45;&gt;directory -->
<g id="edge3" class="edge">
<title>create&#45;&gt;directory</title>
<path fill="none" stroke="black" d="M844.15,-1583.56C827.8,-1521.64 772.46,-1311.98 752.23,-1235.35"/>
<polygon fill="black" stroke="black" points="755.62,-1234.48 749.69,-1225.7 748.85,-1236.26 755.62,-1234.48"/>
</g>
<!-- save -->
<g id="node8" class="node">
<title>save</title>
<polygon fill="lightblue" stroke="white" points="636.75,-1224 582.75,-1224 582.75,-1188 636.75,-1188 636.75,-1224"/>
<text text-anchor="middle" x="609.75" y="-1200.95" font-family="Arial" font-size="14.00">save</text>
</g>
<!-- create&#45;&gt;save -->
<g id="edge4" class="edge">
<title>create&#45;&gt;save</title>
<path fill="none" stroke="black" d="M838.17,-1583.56C800.38,-1521.26 671.86,-1309.39 626.1,-1233.95"/>
<polygon fill="black" stroke="black" points="629.17,-1232.27 620.99,-1225.53 623.18,-1235.9 629.17,-1232.27"/>
</g>
<!-- fill_errors_hash -->
<g id="node9" class="node">
<title>fill_errors_hash</title>
<polygon fill="lightblue" stroke="white" points="929.5,-1224 816,-1224 816,-1188 929.5,-1188 929.5,-1224"/>
<text text-anchor="middle" x="872.75" y="-1200.95" font-family="Arial" font-size="14.00">fill_errors_hash</text>
</g>
<!-- create&#45;&gt;fill_errors_hash -->
<g id="edge5" class="edge">
<title>create&#45;&gt;fill_errors_hash</title>
<path fill="none" stroke="black" d="M849.81,-1583.56C853.58,-1521.64 866.36,-1311.98 871.02,-1235.35"/>
<polygon fill="black" stroke="black" points="874.49,-1235.94 871.61,-1225.75 867.51,-1235.52 874.49,-1235.94"/>
</g>
<!-- save&#45;&gt;new -->
<g id="edge15" class="edge">
<title>save&#45;&gt;new</title>
<path fill="none" stroke="black" d="M591.29,-1187.56C524.82,-1124.75 297.44,-909.91 219.34,-836.12"/>
<polygon fill="black" stroke="black" points="221.77,-833.6 212.09,-829.28 216.96,-838.69 221.77,-833.6"/>
</g>
<!-- save&#45;&gt;save -->
<g id="edge14" class="edge">
<title>save&#45;&gt;save</title>
<path fill="none" stroke="black" d="M614.19,-1224.41C636.14,-1304.56 672.75,-1298.43 672.75,-1206 672.75,-1117.91 639.49,-1108.2 617.37,-1176.88"/>
<polygon fill="black" stroke="black" points="614.12,-1175.55 614.62,-1186.14 620.83,-1177.55 614.12,-1175.55"/>
</g>
<!-- bad_save_request -->
<g id="node19" class="node">
<title>bad_save_request</title>
<polygon fill="lightblue" stroke="white" points="408,-828 273.5,-828 273.5,-792 408,-792 408,-828"/>
<text text-anchor="middle" x="340.75" y="-804.95" font-family="Arial" font-size="14.00">bad_save_request</text>
</g>
<!-- save&#45;&gt;bad_save_request -->
<g id="edge11" class="edge">
<title>save&#45;&gt;bad_save_request</title>
<path fill="none" stroke="black" d="M597.84,-1187.56C555.22,-1125.13 410.06,-912.52 358.83,-837.49"/>
<polygon fill="black" stroke="black" points="361.9,-835.77 353.37,-829.49 356.12,-839.72 361.9,-835.77"/>
</g>
<!-- handle_bad_save_request -->
<g id="node20" class="node">
<title>handle_bad_save_request</title>
<polygon fill="lightblue" stroke="white" points="702.12,-828 517.38,-828 517.38,-792 702.12,-792 702.12,-828"/>
<text text-anchor="middle" x="609.75" y="-804.95" font-family="Arial" font-size="14.00">handle_bad_save_request</text>
</g>
<!-- save&#45;&gt;handle_bad_save_request -->
<g id="edge12" class="edge">
<title>save&#45;&gt;handle_bad_save_request</title>
<path fill="none" stroke="black" d="M609.75,-1187.56C609.75,-1125.64 609.75,-915.98 609.75,-839.35"/>
<polygon fill="black" stroke="black" points="613.25,-839.75 609.75,-829.75 606.25,-839.75 613.25,-839.75"/>
</g>
<!-- save_element -->
<g id="node21" class="node">
<title>save_element</title>
<polygon fill="lightblue" stroke="white" points="1128.38,-828 1023.12,-828 1023.12,-792 1128.38,-792 1128.38,-828"/>
<text text-anchor="middle" x="1075.75" y="-804.95" font-family="Arial" font-size="14.00">save_element</text>
</g>
<!-- save&#45;&gt;save_element -->
<g id="edge13" class="edge">
<title>save&#45;&gt;save_element</title>
<path fill="none" stroke="black" d="M630.37,-1187.56C704.8,-1124.63 959.73,-909.1 1046.53,-835.7"/>
<polygon fill="black" stroke="black" points="1048.57,-838.57 1053.94,-829.44 1044.05,-833.22 1048.57,-838.57"/>
</g>
<!-- get_graph_elements -->
<g id="node22" class="node">
<title>get_graph_elements</title>
<polygon fill="lightblue" stroke="white" points="536.38,-432 389.12,-432 389.12,-396 536.38,-396 536.38,-432"/>
<text text-anchor="middle" x="462.75" y="-408.95" font-family="Arial" font-size="14.00">get_graph_elements</text>
</g>
<!-- save&#45;&gt;get_graph_elements -->
<g id="edge16" class="edge">
<title>save&#45;&gt;get_graph_elements</title>
<path fill="none" stroke="black" d="M603.36,-1187.63C584.13,-1134.59 526.51,-969.7 499.75,-828 472.84,-685.49 465.37,-511.51 463.41,-443.84"/>
<polygon fill="black" stroke="black" points="466.91,-443.89 463.14,-433.99 459.91,-444.08 466.91,-443.89"/>
</g>
<!-- get_customer_colors -->
<g id="node23" class="node">
<title>get_customer_colors</title>
<polygon fill="lightblue" stroke="white" points="723.25,-432 572.25,-432 572.25,-396 723.25,-396 723.25,-432"/>
<text text-anchor="middle" x="647.75" y="-408.95" font-family="Arial" font-size="14.00">get_customer_colors</text>
</g>
<!-- save&#45;&gt;get_customer_colors -->
<g id="edge17" class="edge">
<title>save&#45;&gt;get_customer_colors</title>
<path fill="none" stroke="black" d="M616.72,-1187.73C637.58,-1134.95 699.35,-970.75 719.75,-828 740.58,-682.24 683.53,-508.95 658.68,-442.66"/>
<polygon fill="black" stroke="black" points="662.08,-441.76 655.25,-433.67 655.54,-444.26 662.08,-441.76"/>
</g>
<!-- update -->
<g id="node10" class="node">
<title>update</title>
<polygon fill="lightblue" stroke="white" points="972.5,-1620 913,-1620 913,-1584 972.5,-1584 972.5,-1620"/>
<text text-anchor="middle" x="942.75" y="-1596.95" font-family="Arial" font-size="14.00">update</text>
</g>
<!-- update&#45;&gt;graph_params -->
<g id="edge6" class="edge">
<title>update&#45;&gt;graph_params</title>
<path fill="none" stroke="black" d="M946.16,-1583.56C958.26,-1521.64 999.23,-1311.98 1014.21,-1235.35"/>
<polygon fill="black" stroke="black" points="1017.61,-1236.21 1016.09,-1225.72 1010.74,-1234.87 1017.61,-1236.21"/>
</g>
<!-- update&#45;&gt;fill_errors_hash -->
<g id="edge7" class="edge">
<title>update&#45;&gt;fill_errors_hash</title>
<path fill="none" stroke="black" d="M939.65,-1583.56C928.65,-1521.64 891.4,-1311.98 877.79,-1235.35"/>
<polygon fill="black" stroke="black" points="881.27,-1234.96 876.08,-1225.73 874.38,-1236.18 881.27,-1234.96"/>
</g>
<!-- draw -->
<g id="node11" class="node">
<title>draw</title>
<polygon fill="lightblue" stroke="white" points="1171.75,-1620 1117.75,-1620 1117.75,-1584 1171.75,-1584 1171.75,-1620"/>
<text text-anchor="middle" x="1144.75" y="-1596.95" font-family="Arial" font-size="14.00">draw</text>
</g>
<!-- renaissance -->
<g id="node12" class="node">
<title>renaissance</title>
<polygon fill="lightblue" stroke="white" points="1300,-1620 1207.5,-1620 1207.5,-1584 1300,-1584 1300,-1620"/>
<text text-anchor="middle" x="1253.75" y="-1596.95" font-family="Arial" font-size="14.00">renaissance</text>
</g>
<!-- distribute -->
<g id="node13" class="node">
<title>distribute</title>
<polygon fill="lightblue" stroke="white" points="1409.62,-1620 1335.88,-1620 1335.88,-1584 1409.62,-1584 1409.62,-1620"/>
<text text-anchor="middle" x="1372.75" y="-1596.95" font-family="Arial" font-size="14.00">distribute</text>
</g>
<!-- generate_svg -->
<g id="node14" class="node">
<title>generate_svg</title>
<polygon fill="lightblue" stroke="white" points="1548.25,-1620 1445.25,-1620 1445.25,-1584 1548.25,-1584 1548.25,-1620"/>
<text text-anchor="middle" x="1496.75" y="-1596.95" font-family="Arial" font-size="14.00">generate_svg</text>
</g>
<!-- svg -->
<g id="node15" class="node">
<title>svg</title>
<polygon fill="lightblue" stroke="white" points="1523.75,-1224 1469.75,-1224 1469.75,-1188 1523.75,-1188 1523.75,-1224"/>
<text text-anchor="middle" x="1496.75" y="-1200.95" font-family="Arial" font-size="14.00">svg</text>
</g>
<!-- generate_svg&#45;&gt;svg -->
<g id="edge8" class="edge">
<title>generate_svg&#45;&gt;svg</title>
<path fill="none" stroke="black" d="M1496.75,-1583.56C1496.75,-1521.64 1496.75,-1311.98 1496.75,-1235.35"/>
<polygon fill="black" stroke="black" points="1500.25,-1235.75 1496.75,-1225.75 1493.25,-1235.75 1500.25,-1235.75"/>
</g>
<!-- generate_all_svg -->
<g id="node16" class="node">
<title>generate_all_svg</title>
<polygon fill="lightblue" stroke="white" points="1723.12,-1620 1598.38,-1620 1598.38,-1584 1723.12,-1584 1723.12,-1620"/>
<text text-anchor="middle" x="1660.75" y="-1596.95" font-family="Arial" font-size="14.00">generate_all_svg</text>
</g>
<!-- generate_all_svg_params -->
<g id="node17" class="node">
<title>generate_all_svg_params</title>
<polygon fill="lightblue" stroke="white" points="1739.88,-1224 1559.62,-1224 1559.62,-1188 1739.88,-1188 1739.88,-1224"/>
<text text-anchor="middle" x="1649.75" y="-1200.95" font-family="Arial" font-size="14.00">generate_all_svg_params</text>
</g>
<!-- generate_all_svg&#45;&gt;generate_all_svg_params -->
<g id="edge9" class="edge">
<title>generate_all_svg&#45;&gt;generate_all_svg_params</title>
<path fill="none" stroke="black" d="M1660.26,-1583.56C1658.53,-1521.64 1652.68,-1311.98 1650.54,-1235.35"/>
<polygon fill="black" stroke="black" points="1654.05,-1235.65 1650.27,-1225.75 1647.05,-1235.84 1654.05,-1235.65"/>
</g>
<!-- author -->
<g id="node18" class="node">
<title>author</title>
<polygon fill="lightblue" stroke="white" points="1831.25,-1224 1776.25,-1224 1776.25,-1188 1831.25,-1188 1831.25,-1224"/>
<text text-anchor="middle" x="1803.75" y="-1200.95" font-family="Arial" font-size="14.00">author</text>
</g>
<!-- generate_all_svg&#45;&gt;author -->
<g id="edge10" class="edge">
<title>generate_all_svg&#45;&gt;author</title>
<path fill="none" stroke="black" d="M1667.08,-1583.56C1689.6,-1521.52 1765.96,-1311.12 1793.63,-1234.88"/>
<polygon fill="black" stroke="black" points="1796.86,-1236.25 1796.98,-1225.66 1790.28,-1233.87 1796.86,-1236.25"/>
</g>
<!-- handle_bad_save_request&#45;&gt;get_graph_elements -->
<g id="edge29" class="edge">
<title>handle_bad_save_request&#45;&gt;get_graph_elements</title>
<path fill="none" stroke="black" d="M603.24,-791.56C580.1,-729.52 501.6,-519.12 473.15,-442.88"/>
<polygon fill="black" stroke="black" points="476.48,-441.8 469.71,-433.65 469.93,-444.25 476.48,-441.8"/>
</g>
<!-- handle_bad_save_request&#45;&gt;get_customer_colors -->
<g id="edge30" class="edge">
<title>handle_bad_save_request&#45;&gt;get_customer_colors</title>
<path fill="none" stroke="black" d="M611.43,-791.56C617.4,-729.64 637.62,-519.98 645.02,-443.35"/>
<polygon fill="black" stroke="black" points="648.47,-444.03 645.94,-433.74 641.5,-443.36 648.47,-444.03"/>
</g>
<!-- save_element&#45;&gt;save_element -->
<g id="edge31" class="edge">
<title>save_element&#45;&gt;save_element</title>
<path fill="none" stroke="black" d="M1082,-828.41C1112.88,-908.56 1164.38,-902.43 1164.38,-810 1164.38,-721.73 1117.4,-712.16 1086.28,-781.31"/>
<polygon fill="black" stroke="black" points="1083.19,-779.61 1082.58,-790.19 1089.66,-782.3 1083.19,-779.61"/>
</g>
<!-- destroy -->
<g id="node48" class="node">
<title>destroy</title>
<polygon fill="lightblue" stroke="white" points="822.38,-432 759.12,-432 759.12,-396 822.38,-396 822.38,-432"/>
<text text-anchor="middle" x="790.75" y="-408.95" font-family="Arial" font-size="14.00">destroy</text>
</g>
<!-- save_element&#45;&gt;destroy -->
<g id="edge35" class="edge">
<title>save_element&#45;&gt;destroy</title>
<path fill="none" stroke="black" d="M1063.14,-791.56C1017.98,-729.13 864.19,-516.52 809.91,-441.49"/>
<polygon fill="black" stroke="black" points="812.8,-439.51 804.11,-433.46 807.13,-443.62 812.8,-439.51"/>
</g>
<!-- update_arrows_from_to -->
<g id="node69" class="node">
<title>update_arrows_from_to</title>
<polygon fill="lightblue" stroke="white" points="1025.5,-432 858,-432 858,-396 1025.5,-396 1025.5,-432"/>
<text text-anchor="middle" x="941.75" y="-408.95" font-family="Arial" font-size="14.00">update_arrows_from_to</text>
</g>
<!-- save_element&#45;&gt;update_arrows_from_to -->
<g id="edge32" class="edge">
<title>save_element&#45;&gt;update_arrows_from_to</title>
<path fill="none" stroke="black" d="M1069.82,-791.56C1048.72,-729.52 977.16,-519.12 951.23,-442.88"/>
<polygon fill="black" stroke="black" points="954.63,-442.01 948.1,-433.67 948.01,-444.26 954.63,-442.01"/>
</g>
<!-- update_lanes_from_to -->
<g id="node70" class="node">
<title>update_lanes_from_to</title>
<polygon fill="lightblue" stroke="white" points="1220.38,-432 1061.12,-432 1061.12,-396 1220.38,-396 1220.38,-432"/>
<text text-anchor="middle" x="1140.75" y="-408.95" font-family="Arial" font-size="14.00">update_lanes_from_to</text>
</g>
<!-- save_element&#45;&gt;update_lanes_from_to -->
<g id="edge33" class="edge">
<title>save_element&#45;&gt;update_lanes_from_to</title>
<path fill="none" stroke="black" d="M1078.63,-791.56C1088.84,-729.64 1123.43,-519.98 1136.07,-443.35"/>
<polygon fill="black" stroke="black" points="1139.49,-444.17 1137.66,-433.73 1132.58,-443.03 1139.49,-444.17"/>
</g>
<!-- update_pastilles_from_to -->
<g id="node71" class="node">
<title>update_pastilles_from_to</title>
<polygon fill="lightblue" stroke="white" points="1433.38,-432 1256.12,-432 1256.12,-396 1433.38,-396 1433.38,-432"/>
<text text-anchor="middle" x="1344.75" y="-408.95" font-family="Arial" font-size="14.00">update_pastilles_from_to</text>
</g>
<!-- save_element&#45;&gt;update_pastilles_from_to -->
<g id="edge34" class="edge">
<title>save_element&#45;&gt;update_pastilles_from_to</title>
<path fill="none" stroke="black" d="M1087.66,-791.56C1130.28,-729.13 1275.44,-516.52 1326.67,-441.49"/>
<polygon fill="black" stroke="black" points="1329.38,-443.72 1332.13,-433.49 1323.6,-439.77 1329.38,-443.72"/>
</g>
<!-- validate_element -->
<g id="node72" class="node">
<title>validate_element</title>
<polygon fill="lightblue" stroke="white" points="1592.38,-432 1469.12,-432 1469.12,-396 1592.38,-396 1592.38,-432"/>
<text text-anchor="middle" x="1530.75" y="-408.95" font-family="Arial" font-size="14.00">validate_element</text>
</g>
<!-- save_element&#45;&gt;validate_element -->
<g id="edge36" class="edge">
<title>save_element&#45;&gt;validate_element</title>
<path fill="none" stroke="black" d="M1095.89,-791.56C1168.49,-728.7 1416.96,-513.53 1501.96,-439.93"/>
<polygon fill="black" stroke="black" points="1504.17,-442.64 1509.44,-433.45 1499.59,-437.35 1504.17,-442.64"/>
</g>
<!-- all -->
<g id="node67" class="node">
<title>all</title>
<polygon fill="lightblue" stroke="white" points="629.75,-36 575.75,-36 575.75,0 629.75,0 629.75,-36"/>
<text text-anchor="middle" x="602.75" y="-12.95" font-family="Arial" font-size="14.00">all</text>
</g>
<!-- get_customer_colors&#45;&gt;all -->
<g id="edge27" class="edge">
<title>get_customer_colors&#45;&gt;all</title>
<path fill="none" stroke="black" d="M645.76,-395.56C638.69,-333.64 614.74,-123.98 605.99,-47.35"/>
<polygon fill="black" stroke="black" points="609.5,-47.28 604.89,-37.74 602.55,-48.07 609.5,-47.28"/>
</g>
<!-- colors -->
<g id="node68" class="node">
<title>colors</title>
<polygon fill="lightblue" stroke="white" points="721.25,-36 666.25,-36 666.25,0 721.25,0 721.25,-36"/>
<text text-anchor="middle" x="693.75" y="-12.95" font-family="Arial" font-size="14.00">colors</text>
</g>
<!-- get_customer_colors&#45;&gt;colors -->
<g id="edge28" class="edge">
<title>get_customer_colors&#45;&gt;colors</title>
<path fill="none" stroke="black" d="M649.79,-395.56C657.01,-333.64 681.49,-123.98 690.44,-47.35"/>
<polygon fill="black" stroke="black" points="693.88,-48.08 691.56,-37.74 686.93,-47.27 693.88,-48.08"/>
</g>
<!-- update_model_list -->
<g id="node24" class="node">
<title>update_model_list</title>
<polygon fill="lightblue" stroke="white" points="2005.25,-1620 1872.25,-1620 1872.25,-1584 2005.25,-1584 2005.25,-1620"/>
<text text-anchor="middle" x="1938.75" y="-1596.95" font-family="Arial" font-size="14.00">update_model_list</text>
</g>
<!-- update_model_preview -->
<g id="node25" class="node">
<title>update_model_preview</title>
<polygon fill="lightblue" stroke="white" points="2206,-1620 2041.5,-1620 2041.5,-1584 2206,-1584 2206,-1620"/>
<text text-anchor="middle" x="2123.75" y="-1596.95" font-family="Arial" font-size="14.00">update_model_preview</text>
</g>
<!-- graphs_linkable -->
<g id="node26" class="node">
<title>graphs_linkable</title>
<polygon fill="lightblue" stroke="white" points="2357.25,-1620 2242.25,-1620 2242.25,-1584 2357.25,-1584 2357.25,-1620"/>
<text text-anchor="middle" x="2299.75" y="-1596.95" font-family="Arial" font-size="14.00">graphs_linkable</text>
</g>
<!-- graphs_list -->
<g id="node27" class="node">
<title>graphs_list</title>
<polygon fill="lightblue" stroke="white" points="2478.25,-1620 2393.25,-1620 2393.25,-1584 2478.25,-1584 2478.25,-1620"/>
<text text-anchor="middle" x="2435.75" y="-1596.95" font-family="Arial" font-size="14.00">graphs_list</text>
</g>
<!-- confirm_move -->
<g id="node28" class="node">
<title>confirm_move</title>
<polygon fill="lightblue" stroke="white" points="2621.12,-1620 2514.38,-1620 2514.38,-1584 2621.12,-1584 2621.12,-1620"/>
<text text-anchor="middle" x="2567.75" y="-1596.95" font-family="Arial" font-size="14.00">confirm_move</text>
</g>
<!-- move_graph -->
<g id="node29" class="node">
<title>move_graph</title>
<polygon fill="lightblue" stroke="white" points="784.5,-1620 689,-1620 689,-1584 784.5,-1584 784.5,-1620"/>
<text text-anchor="middle" x="736.75" y="-1596.95" font-family="Arial" font-size="14.00">move_graph</text>
</g>
<!-- move_graph&#45;&gt;save -->
<g id="edge18" class="edge">
<title>move_graph&#45;&gt;save</title>
<path fill="none" stroke="black" d="M731.13,-1583.56C711.13,-1521.52 643.31,-1311.12 618.74,-1234.88"/>
<polygon fill="black" stroke="black" points="622.17,-1234.12 615.77,-1225.68 615.51,-1236.27 622.17,-1234.12"/>
</g>
<!-- move_graph&#45;&gt;fill_errors_hash -->
<g id="edge19" class="edge">
<title>move_graph&#45;&gt;fill_errors_hash</title>
<path fill="none" stroke="black" d="M742.77,-1583.56C764.19,-1521.52 836.81,-1311.12 863.13,-1234.88"/>
<polygon fill="black" stroke="black" points="866.35,-1236.26 866.31,-1225.67 859.74,-1233.98 866.35,-1236.26"/>
</g>
<!-- update_tags -->
<g id="node30" class="node">
<title>update_tags</title>
<polygon fill="lightblue" stroke="white" points="444.12,-1620 349.38,-1620 349.38,-1584 444.12,-1584 444.12,-1620"/>
<text text-anchor="middle" x="396.75" y="-1596.95" font-family="Arial" font-size="14.00">update_tags</text>
</g>
<!-- update_tags&#45;&gt;save -->
<g id="edge20" class="edge">
<title>update_tags&#45;&gt;save</title>
<path fill="none" stroke="black" d="M406.18,-1583.56C439.86,-1521.26 554.4,-1309.39 595.18,-1233.95"/>
<polygon fill="black" stroke="black" points="598.04,-1236.03 599.71,-1225.57 591.88,-1232.7 598.04,-1236.03"/>
</g>
<!-- deactivate -->
<g id="node31" class="node">
<title>deactivate</title>
<polygon fill="lightblue" stroke="white" points="2738,-1620 2657.5,-1620 2657.5,-1584 2738,-1584 2738,-1620"/>
<text text-anchor="middle" x="2697.75" y="-1596.95" font-family="Arial" font-size="14.00">deactivate</text>
</g>
<!-- activate -->
<g id="node32" class="node">
<title>activate</title>
<polygon fill="lightblue" stroke="white" points="2837.75,-1620 2773.75,-1620 2773.75,-1584 2837.75,-1584 2837.75,-1620"/>
<text text-anchor="middle" x="2805.75" y="-1596.95" font-family="Arial" font-size="14.00">activate</text>
</g>
<!-- search_actors -->
<g id="node33" class="node">
<title>search_actors</title>
<polygon fill="lightblue" stroke="white" points="2979.75,-1620 2873.75,-1620 2873.75,-1584 2979.75,-1584 2979.75,-1620"/>
<text text-anchor="middle" x="2926.75" y="-1596.95" font-family="Arial" font-size="14.00">search_actors</text>
</g>
<!-- diary -->
<g id="node34" class="node">
<title>diary</title>
<polygon fill="lightblue" stroke="white" points="3069.75,-1620 3015.75,-1620 3015.75,-1584 3069.75,-1584 3069.75,-1620"/>
<text text-anchor="middle" x="3042.75" y="-1596.95" font-family="Arial" font-size="14.00">diary</text>
</g>
<!-- historical -->
<g id="node35" class="node">
<title>historical</title>
<polygon fill="lightblue" stroke="white" points="3177.5,-1620 3106,-1620 3106,-1584 3177.5,-1584 3177.5,-1620"/>
<text text-anchor="middle" x="3141.75" y="-1596.95" font-family="Arial" font-size="14.00">historical</text>
</g>
<!-- interactions -->
<g id="node36" class="node">
<title>interactions</title>
<polygon fill="lightblue" stroke="white" points="3301.75,-1620 3213.75,-1620 3213.75,-1584 3301.75,-1584 3301.75,-1620"/>
<text text-anchor="middle" x="3257.75" y="-1596.95" font-family="Arial" font-size="14.00">interactions</text>
</g>
<!-- start_wf -->
<g id="node37" class="node">
<title>start_wf</title>
<polygon fill="lightblue" stroke="white" points="1836.5,-1620 1771,-1620 1771,-1584 1836.5,-1584 1836.5,-1620"/>
<text text-anchor="middle" x="1803.75" y="-1596.95" font-family="Arial" font-size="14.00">start_wf</text>
</g>
<!-- start_wf&#45;&gt;author -->
<g id="edge21" class="edge">
<title>start_wf&#45;&gt;author</title>
<path fill="none" stroke="black" d="M1803.75,-1583.56C1803.75,-1521.64 1803.75,-1311.98 1803.75,-1235.35"/>
<polygon fill="black" stroke="black" points="1807.25,-1235.75 1803.75,-1225.75 1800.25,-1235.75 1807.25,-1235.75"/>
</g>
<!-- reset -->
<g id="node38" class="node">
<title>reset</title>
<polygon fill="lightblue" stroke="white" points="3391.75,-1620 3337.75,-1620 3337.75,-1584 3391.75,-1584 3391.75,-1620"/>
<text text-anchor="middle" x="3364.75" y="-1596.95" font-family="Arial" font-size="14.00">reset</text>
</g>
<!-- confirm_duplicate -->
<g id="node39" class="node">
<title>confirm_duplicate</title>
<polygon fill="lightblue" stroke="white" points="3556,-1620 3427.5,-1620 3427.5,-1584 3556,-1584 3556,-1620"/>
<text text-anchor="middle" x="3491.75" y="-1596.95" font-family="Arial" font-size="14.00">confirm_duplicate</text>
</g>
<!-- confirm_increment_version -->
<g id="node40" class="node">
<title>confirm_increment_version</title>
<polygon fill="lightblue" stroke="white" points="3779.62,-1620 3591.88,-1620 3591.88,-1584 3779.62,-1584 3779.62,-1620"/>
<text text-anchor="middle" x="3685.75" y="-1596.95" font-family="Arial" font-size="14.00">confirm_increment_version</text>
</g>
<!-- increment_version -->
<g id="node41" class="node">
<title>increment_version</title>
<polygon fill="lightblue" stroke="white" points="3947.88,-1620 3815.62,-1620 3815.62,-1584 3947.88,-1584 3947.88,-1620"/>
<text text-anchor="middle" x="3881.75" y="-1596.95" font-family="Arial" font-size="14.00">increment_version</text>
</g>
<!-- confirm_historical_increment_version -->
<g id="node42" class="node">
<title>confirm_historical_increment_version</title>
<polygon fill="lightblue" stroke="white" points="4235.5,-1620 3984,-1620 3984,-1584 4235.5,-1584 4235.5,-1620"/>
<text text-anchor="middle" x="4109.75" y="-1596.95" font-family="Arial" font-size="14.00">confirm_historical_increment_version</text>
</g>
<!-- historical_increment_version -->
<g id="node43" class="node">
<title>historical_increment_version</title>
<polygon fill="lightblue" stroke="white" points="4467.75,-1620 4271.75,-1620 4271.75,-1584 4467.75,-1584 4467.75,-1620"/>
<text text-anchor="middle" x="4369.75" y="-1596.95" font-family="Arial" font-size="14.00">historical_increment_version</text>
</g>
<!-- duplicate -->
<g id="node44" class="node">
<title>duplicate</title>
<polygon fill="lightblue" stroke="white" points="1081.25,-1620 1008.25,-1620 1008.25,-1584 1081.25,-1584 1081.25,-1620"/>
<text text-anchor="middle" x="1044.75" y="-1596.95" font-family="Arial" font-size="14.00">duplicate</text>
</g>
<!-- duplicate&#45;&gt;graph_params -->
<g id="edge22" class="edge">
<title>duplicate&#45;&gt;graph_params</title>
<path fill="none" stroke="black" d="M1043.64,-1583.56C1039.71,-1521.64 1026.41,-1311.98 1021.55,-1235.35"/>
<polygon fill="black" stroke="black" points="1025.07,-1235.51 1020.94,-1225.75 1018.08,-1235.95 1025.07,-1235.51"/>
</g>
<!-- duplicate&#45;&gt;fill_errors_hash -->
<g id="edge23" class="edge">
<title>duplicate&#45;&gt;fill_errors_hash</title>
<path fill="none" stroke="black" d="M1037.14,-1583.56C1010,-1521.39 917.83,-1310.26 884.72,-1234.41"/>
<polygon fill="black" stroke="black" points="888.09,-1233.39 880.88,-1225.62 881.67,-1236.19 888.09,-1233.39"/>
</g>
<!-- confirm_delete -->
<g id="node45" class="node">
<title>confirm_delete</title>
<polygon fill="lightblue" stroke="white" points="4615.38,-1620 4504.12,-1620 4504.12,-1584 4615.38,-1584 4615.38,-1620"/>
<text text-anchor="middle" x="4559.75" y="-1596.95" font-family="Arial" font-size="14.00">confirm_delete</text>
</g>
<!-- confirm_delete_version -->
<g id="node46" class="node">
<title>confirm_delete_version</title>
<polygon fill="lightblue" stroke="white" points="4816.38,-1620 4651.12,-1620 4651.12,-1584 4816.38,-1584 4816.38,-1620"/>
<text text-anchor="middle" x="4733.75" y="-1596.95" font-family="Arial" font-size="14.00">confirm_delete_version</text>
</g>
<!-- delete_version -->
<g id="node47" class="node">
<title>delete_version</title>
<polygon fill="lightblue" stroke="white" points="921.62,-828 811.88,-828 811.88,-792 921.62,-792 921.62,-828"/>
<text text-anchor="middle" x="866.75" y="-804.95" font-family="Arial" font-size="14.00">delete_version</text>
</g>
<!-- delete_version&#45;&gt;destroy -->
<g id="edge24" class="edge">
<title>delete_version&#45;&gt;destroy</title>
<path fill="none" stroke="black" d="M863.39,-791.56C851.44,-729.64 811,-519.98 796.22,-443.35"/>
<polygon fill="black" stroke="black" points="799.69,-442.88 794.36,-433.72 792.82,-444.2 799.69,-442.88"/>
</g>
<!-- unlock -->
<g id="node49" class="node">
<title>unlock</title>
<polygon fill="lightblue" stroke="white" points="4909,-1620 4852.5,-1620 4852.5,-1584 4909,-1584 4909,-1620"/>
<text text-anchor="middle" x="4880.75" y="-1596.95" font-family="Arial" font-size="14.00">unlock</text>
</g>
<!-- lock -->
<g id="node50" class="node">
<title>lock</title>
<polygon fill="lightblue" stroke="white" points="4998.75,-1620 4944.75,-1620 4944.75,-1584 4998.75,-1584 4998.75,-1620"/>
<text text-anchor="middle" x="4971.75" y="-1596.95" font-family="Arial" font-size="14.00">lock</text>
</g>
<!-- confirm_author -->
<g id="node51" class="node">
<title>confirm_author</title>
<polygon fill="lightblue" stroke="white" points="5145,-1620 5034.5,-1620 5034.5,-1584 5145,-1584 5145,-1620"/>
<text text-anchor="middle" x="5089.75" y="-1596.95" font-family="Arial" font-size="14.00">confirm_author</text>
</g>
<!-- confirm_pilot -->
<g id="node52" class="node">
<title>confirm_pilot</title>
<polygon fill="lightblue" stroke="white" points="5278.62,-1620 5180.88,-1620 5180.88,-1584 5278.62,-1584 5278.62,-1620"/>
<text text-anchor="middle" x="5229.75" y="-1596.95" font-family="Arial" font-size="14.00">confirm_pilot</text>
</g>
<!-- pilot -->
<g id="node53" class="node">
<title>pilot</title>
<polygon fill="lightblue" stroke="white" points="5368.75,-1620 5314.75,-1620 5314.75,-1584 5368.75,-1584 5368.75,-1620"/>
<text text-anchor="middle" x="5341.75" y="-1596.95" font-family="Arial" font-size="14.00">pilot</text>
</g>
<!-- update_root -->
<g id="node54" class="node">
<title>update_root</title>
<polygon fill="lightblue" stroke="white" points="5497,-1620 5404.5,-1620 5404.5,-1584 5497,-1584 5497,-1620"/>
<text text-anchor="middle" x="5450.75" y="-1596.95" font-family="Arial" font-size="14.00">update_root</text>
</g>
<!-- settings_print_footer -->
<g id="node55" class="node">
<title>settings_print_footer</title>
<polygon fill="lightblue" stroke="white" points="5680,-1620 5533.5,-1620 5533.5,-1584 5680,-1584 5680,-1620"/>
<text text-anchor="middle" x="5606.75" y="-1596.95" font-family="Arial" font-size="14.00">settings_print_footer</text>
</g>
<!-- check_reference -->
<g id="node56" class="node">
<title>check_reference</title>
<polygon fill="lightblue" stroke="white" points="5839.38,-1620 5716.12,-1620 5716.12,-1584 5839.38,-1584 5839.38,-1620"/>
<text text-anchor="middle" x="5777.75" y="-1596.95" font-family="Arial" font-size="14.00">check_reference</text>
</g>
<!-- read_confirmation -->
<g id="node57" class="node">
<title>read_confirmation</title>
<polygon fill="lightblue" stroke="white" points="6005.75,-1620 5875.75,-1620 5875.75,-1584 6005.75,-1584 6005.75,-1620"/>
<text text-anchor="middle" x="5940.75" y="-1596.95" font-family="Arial" font-size="14.00">read_confirmation</text>
</g>
<!-- list_read_confirmations -->
<g id="node58" class="node">
<title>list_read_confirmations</title>
<polygon fill="lightblue" stroke="white" points="6205.25,-1620 6042.25,-1620 6042.25,-1584 6205.25,-1584 6205.25,-1620"/>
<text text-anchor="middle" x="6123.75" y="-1596.95" font-family="Arial" font-size="14.00">list_read_confirmations</text>
</g>
<!-- toggle_auto_role_viewer -->
<g id="node59" class="node">
<title>toggle_auto_role_viewer</title>
<polygon fill="lightblue" stroke="white" points="6413.75,-1620 6241.75,-1620 6241.75,-1584 6413.75,-1584 6413.75,-1620"/>
<text text-anchor="middle" x="6327.75" y="-1596.95" font-family="Arial" font-size="14.00">toggle_auto_role_viewer</text>
</g>
<!-- toggle_review -->
<g id="node60" class="node">
<title>toggle_review</title>
<polygon fill="lightblue" stroke="white" points="6554,-1620 6449.5,-1620 6449.5,-1584 6554,-1584 6554,-1620"/>
<text text-anchor="middle" x="6501.75" y="-1596.95" font-family="Arial" font-size="14.00">toggle_review</text>
</g>
<!-- update_review_date -->
<g id="node61" class="node">
<title>update_review_date</title>
<polygon fill="lightblue" stroke="white" points="6733.88,-1620 6589.62,-1620 6589.62,-1584 6733.88,-1584 6733.88,-1620"/>
<text text-anchor="middle" x="6661.75" y="-1596.95" font-family="Arial" font-size="14.00">update_review_date</text>
</g>
<!-- update_review_reminder -->
<g id="node62" class="node">
<title>update_review_reminder</title>
<polygon fill="lightblue" stroke="white" points="653.12,-1620 480.38,-1620 480.38,-1584 653.12,-1584 653.12,-1620"/>
<text text-anchor="middle" x="566.75" y="-1596.95" font-family="Arial" font-size="14.00">update_review_reminder</text>
</g>
<!-- update_review_reminder&#45;&gt;save -->
<g id="edge25" class="edge">
<title>update_review_reminder&#45;&gt;save</title>
<path fill="none" stroke="black" d="M568.65,-1583.56C575.41,-1521.64 598.29,-1311.98 606.66,-1235.35"/>
<polygon fill="black" stroke="black" points="610.1,-1236.06 607.7,-1225.74 603.14,-1235.3 610.1,-1236.06"/>
</g>
<!-- complete_review -->
<g id="node63" class="node">
<title>complete_review</title>
<polygon fill="lightblue" stroke="white" points="6893.75,-1620 6769.75,-1620 6769.75,-1584 6893.75,-1584 6893.75,-1620"/>
<text text-anchor="middle" x="6831.75" y="-1596.95" font-family="Arial" font-size="14.00">complete_review</text>
</g>
<!-- steps -->
<g id="node64" class="node">
<title>steps</title>
<polygon fill="lightblue" stroke="white" points="6983.75,-1620 6929.75,-1620 6929.75,-1584 6983.75,-1584 6983.75,-1620"/>
<text text-anchor="middle" x="6956.75" y="-1596.95" font-family="Arial" font-size="14.00">steps</text>
</g>
<!-- steps&#45;&gt;steps -->
<g id="edge26" class="edge">
<title>steps&#45;&gt;steps</title>
<path fill="none" stroke="black" d="M6961.19,-1620.41C6983.14,-1700.56 7019.75,-1694.43 7019.75,-1602 7019.75,-1513.91 6986.49,-1504.2 6964.37,-1572.88"/>
<polygon fill="black" stroke="black" points="6961.12,-1571.55 6961.62,-1582.14 6967.83,-1573.55 6961.12,-1571.55"/>
</g>
<!-- reset_svg -->
<g id="node65" class="node">
<title>reset_svg</title>
<polygon fill="lightblue" stroke="white" points="7117.25,-1620 7038.25,-1620 7038.25,-1584 7117.25,-1584 7117.25,-1620"/>
<text text-anchor="middle" x="7077.75" y="-1596.95" font-family="Arial" font-size="14.00">reset_svg</text>
</g>
<!-- send_read_confirmation_reminders -->
<g id="node66" class="node">
<title>send_read_confirmation_reminders</title>
<polygon fill="lightblue" stroke="white" points="7394.62,-1620 7152.88,-1620 7152.88,-1584 7394.62,-1584 7394.62,-1620"/>
<text text-anchor="middle" x="7273.75" y="-1596.95" font-family="Arial" font-size="14.00">send_read_confirmation_reminders</text>
</g>
<!-- validate_element&#45;&gt;save -->
<g id="edge37" class="edge">
<title>validate_element&#45;&gt;save</title>
<path fill="none" stroke="black" d="M1518.12,-432.09C1473.88,-491.28 1320.17,-691.37 1164.75,-828 986.2,-984.97 739.58,-1131.28 646.92,-1184.15"/>
<polygon fill="black" stroke="black" points="645.44,-1180.97 638.48,-1188.95 648.9,-1187.05 645.44,-1180.97"/>
</g>
<!-- require_graph_in_accept_state -->
<g id="node73" class="node">
<title>require_graph_in_accept_state</title>
<polygon fill="lightblue" stroke="white" points="7644.38,-1620 7431.12,-1620 7431.12,-1584 7644.38,-1584 7644.38,-1620"/>
<text text-anchor="middle" x="7537.75" y="-1596.95" font-family="Arial" font-size="14.00">require_graph_in_accept_state</text>
</g>
<!-- graph_unlockable -->
<g id="node74" class="node">
<title>graph_unlockable</title>
<polygon fill="lightblue" stroke="white" points="7601.62,-1224 7473.88,-1224 7473.88,-1188 7601.62,-1188 7601.62,-1224"/>
<text text-anchor="middle" x="7537.75" y="-1200.95" font-family="Arial" font-size="14.00">graph_unlockable</text>
</g>
<!-- require_graph_in_accept_state&#45;&gt;graph_unlockable -->
<g id="edge38" class="edge">
<title>require_graph_in_accept_state&#45;&gt;graph_unlockable</title>
<path fill="none" stroke="black" d="M7537.75,-1583.56C7537.75,-1521.64 7537.75,-1311.98 7537.75,-1235.35"/>
<polygon fill="black" stroke="black" points="7541.25,-1235.75 7537.75,-1225.75 7534.25,-1235.75 7541.25,-1235.75"/>
</g>
<!-- check_deactivation -->
<g id="node75" class="node">
<title>check_deactivation</title>
<polygon fill="lightblue" stroke="white" points="7817.12,-1620 7680.38,-1620 7680.38,-1584 7817.12,-1584 7817.12,-1620"/>
<text text-anchor="middle" x="7748.75" y="-1596.95" font-family="Arial" font-size="14.00">check_deactivation</text>
</g>
<!-- index_orders -->
<g id="node76" class="node">
<title>index_orders</title>
<polygon fill="lightblue" stroke="white" points="7952.38,-1620 7853.12,-1620 7853.12,-1584 7952.38,-1584 7952.38,-1620"/>
<text text-anchor="middle" x="7902.75" y="-1596.95" font-family="Arial" font-size="14.00">index_orders</text>
</g>
</g>
</svg>
