<?xml version="1.0" encoding="UTF-8" standalone="no"?>
<!DOCTYPE svg PUBLIC "-//W3C//DTD SVG 1.1//EN"
 "http://www.w3.org/Graphics/SVG/1.1/DTD/svg11.dtd">
<!-- Generated by graphviz version 9.0.0 (20230911.1827)
 -->
<!-- Title: CallGraph Pages: 1 -->
<svg width="307pt" height="497pt"
 viewBox="0.00 0.00 306.88 496.69" xmlns="http://www.w3.org/2000/svg" xmlns:xlink="http://www.w3.org/1999/xlink">
<g id="graph0" class="graph" transform="scale(1 1) rotate(0) translate(4 492.69)">
<title>CallGraph</title>
<polygon fill="white" stroke="none" points="-4,4 -4,-492.69 302.88,-492.69 302.88,4 -4,4"/>
<!-- new -->
<g id="node1" class="node">
<title>new</title>
<polygon fill="lightblue" stroke="white" points="99,-432 45,-432 45,-396 99,-396 99,-432"/>
<text text-anchor="middle" x="72" y="-408.95" font-family="Arial" font-size="14.00">new</text>
</g>
<!-- new&#45;&gt;new -->
<g id="edge1" class="edge">
<title>new&#45;&gt;new</title>
<path fill="none" stroke="black" d="M76.44,-432.41C98.39,-512.56 135,-506.43 135,-414 135,-325.91 101.74,-316.2 79.62,-384.88"/>
<polygon fill="black" stroke="black" points="76.37,-383.55 76.87,-394.14 83.08,-385.55 76.37,-383.55"/>
</g>
<!-- all -->
<g id="node2" class="node">
<title>all</title>
<polygon fill="lightblue" stroke="white" points="54,-36 0,-36 0,0 54,0 54,-36"/>
<text text-anchor="middle" x="27" y="-12.95" font-family="Arial" font-size="14.00">all</text>
</g>
<!-- new&#45;&gt;all -->
<g id="edge2" class="edge">
<title>new&#45;&gt;all</title>
<path fill="none" stroke="black" d="M70.01,-395.56C62.94,-333.64 38.99,-123.98 30.24,-47.35"/>
<polygon fill="black" stroke="black" points="33.75,-47.28 29.14,-37.74 26.8,-48.07 33.75,-47.28"/>
</g>
<!-- colors -->
<g id="node3" class="node">
<title>colors</title>
<polygon fill="lightblue" stroke="white" points="145.5,-36 90.5,-36 90.5,0 145.5,0 145.5,-36"/>
<text text-anchor="middle" x="118" y="-12.95" font-family="Arial" font-size="14.00">colors</text>
</g>
<!-- new&#45;&gt;colors -->
<g id="edge3" class="edge">
<title>new&#45;&gt;colors</title>
<path fill="none" stroke="black" d="M74.04,-395.56C81.26,-333.64 105.74,-123.98 114.69,-47.35"/>
<polygon fill="black" stroke="black" points="118.13,-48.08 115.81,-37.74 111.18,-47.27 118.13,-48.08"/>
</g>
<!-- show -->
<g id="node4" class="node">
<title>show</title>
<polygon fill="lightblue" stroke="white" points="207,-432 153,-432 153,-396 207,-396 207,-432"/>
<text text-anchor="middle" x="180" y="-408.95" font-family="Arial" font-size="14.00">show</text>
</g>
<!-- create -->
<g id="node5" class="node">
<title>create</title>
<polygon fill="lightblue" stroke="white" points="298.88,-432 243.12,-432 243.12,-396 298.88,-396 298.88,-432"/>
<text text-anchor="middle" x="271" y="-408.95" font-family="Arial" font-size="14.00">create</text>
</g>
</g>
</svg>
