<?xml version="1.0" encoding="UTF-8" standalone="no"?>
<!DOCTYPE svg PUBLIC "-//W3C//DTD SVG 1.1//EN"
 "http://www.w3.org/Graphics/SVG/1.1/DTD/svg11.dtd">
<!-- Generated by graphviz version 9.0.0 (20230911.1827)
 -->
<!-- Title: CallGraph Pages: 1 -->
<svg width="260pt" height="893pt"
 viewBox="0.00 0.00 259.88 892.57" xmlns="http://www.w3.org/2000/svg" xmlns:xlink="http://www.w3.org/1999/xlink">
<g id="graph0" class="graph" transform="scale(1 1) rotate(0) translate(4 888.57)">
<title>CallGraph</title>
<polygon fill="white" stroke="none" points="-4,4 -4,-888.57 255.88,-888.57 255.88,4 -4,4"/>
<!-- execute -->
<g id="node1" class="node">
<title>execute</title>
<polygon fill="lightblue" stroke="white" points="157,-884.57 90.75,-884.57 90.75,-848.57 157,-848.57 157,-884.57"/>
<text text-anchor="middle" x="123.88" y="-861.52" font-family="Arial" font-size="14.00">execute</text>
</g>
<!-- execute_multi -->
<g id="node2" class="node">
<title>execute_multi</title>
<polygon fill="lightblue" stroke="white" points="103.75,-488.57 0,-488.57 0,-452.57 103.75,-452.57 103.75,-488.57"/>
<text text-anchor="middle" x="51.88" y="-465.52" font-family="Arial" font-size="14.00">execute_multi</text>
</g>
<!-- execute&#45;&gt;execute_multi -->
<g id="edge1" class="edge">
<title>execute&#45;&gt;execute_multi</title>
<path fill="none" stroke="black" d="M120.69,-848.14C109.37,-786.22 71.06,-576.56 57.06,-499.92"/>
<polygon fill="black" stroke="black" points="60.54,-499.51 55.3,-490.3 53.65,-500.77 60.54,-499.51"/>
</g>
<!-- execute_single -->
<g id="node3" class="node">
<title>execute_single</title>
<polygon fill="lightblue" stroke="white" points="251.88,-488.57 139.88,-488.57 139.88,-452.57 251.88,-452.57 251.88,-488.57"/>
<text text-anchor="middle" x="195.88" y="-465.52" font-family="Arial" font-size="14.00">execute_single</text>
</g>
<!-- execute&#45;&gt;execute_single -->
<g id="edge2" class="edge">
<title>execute&#45;&gt;execute_single</title>
<path fill="none" stroke="black" d="M127.06,-848.14C138.38,-786.22 176.69,-576.56 190.69,-499.92"/>
<polygon fill="black" stroke="black" points="194.1,-500.77 192.45,-490.3 187.21,-499.51 194.1,-500.77"/>
</g>
<!-- ensure_hash -->
<g id="node4" class="node">
<title>ensure_hash</title>
<polygon fill="lightblue" stroke="white" points="172.75,-92.57 75,-92.57 75,-56.57 172.75,-56.57 172.75,-92.57"/>
<text text-anchor="middle" x="123.88" y="-69.52" font-family="Arial" font-size="14.00">ensure_hash</text>
</g>
<!-- execute_multi&#45;&gt;ensure_hash -->
<g id="edge4" class="edge">
<title>execute_multi&#45;&gt;ensure_hash</title>
<path fill="none" stroke="black" d="M55.06,-452.14C66.38,-390.22 104.69,-180.56 118.69,-103.92"/>
<polygon fill="black" stroke="black" points="122.1,-104.77 120.45,-94.3 115.21,-103.51 122.1,-104.77"/>
</g>
<!-- execute_single&#45;&gt;ensure_hash -->
<g id="edge3" class="edge">
<title>execute_single&#45;&gt;ensure_hash</title>
<path fill="none" stroke="black" d="M192.69,-452.14C181.37,-390.22 143.06,-180.56 129.06,-103.92"/>
<polygon fill="black" stroke="black" points="132.54,-103.51 127.3,-94.3 125.65,-104.77 132.54,-103.51"/>
</g>
<!-- ensure_hash&#45;&gt;ensure_hash -->
<g id="edge5" class="edge">
<title>ensure_hash&#45;&gt;ensure_hash</title>
<path fill="none" stroke="black" d="M129.86,-92.99C159.43,-173.14 208.75,-167 208.75,-74.57 208.75,13.7 163.76,23.26 133.96,-45.88"/>
<polygon fill="black" stroke="black" points="130.87,-44.17 130.42,-54.76 137.38,-46.76 130.87,-44.17"/>
</g>
</g>
</svg>
