<?xml version="1.0" encoding="UTF-8" standalone="no"?>
<!DOCTYPE svg PUBLIC "-//W3C//DTD SVG 1.1//EN"
 "http://www.w3.org/Graphics/SVG/1.1/DTD/svg11.dtd">
<!-- Generated by graphviz version 9.0.0 (20230911.1827)
 -->
<!-- Title: CallGraph Pages: 1 -->
<svg width="651pt" height="497pt"
 viewBox="0.00 0.00 651.12 496.69" xmlns="http://www.w3.org/2000/svg" xmlns:xlink="http://www.w3.org/1999/xlink">
<g id="graph0" class="graph" transform="scale(1 1) rotate(0) translate(4 492.69)">
<title>CallGraph</title>
<polygon fill="white" stroke="none" points="-4,4 -4,-492.69 647.12,-492.69 647.12,4 -4,4"/>
<!-- show -->
<g id="node1" class="node">
<title>show</title>
<polygon fill="lightblue" stroke="white" points="54,-432 0,-432 0,-396 54,-396 54,-432"/>
<text text-anchor="middle" x="27" y="-408.95" font-family="Arial" font-size="14.00">show</text>
</g>
<!-- properties -->
<g id="node2" class="node">
<title>properties</title>
<polygon fill="lightblue" stroke="white" points="170.25,-432 89.75,-432 89.75,-396 170.25,-396 170.25,-432"/>
<text text-anchor="middle" x="130" y="-408.95" font-family="Arial" font-size="14.00">properties</text>
</g>
<!-- draw -->
<g id="node3" class="node">
<title>draw</title>
<polygon fill="lightblue" stroke="white" points="260,-432 206,-432 206,-396 260,-396 260,-432"/>
<text text-anchor="middle" x="233" y="-408.95" font-family="Arial" font-size="14.00">draw</text>
</g>
<!-- renaissance -->
<g id="node4" class="node">
<title>renaissance</title>
<polygon fill="lightblue" stroke="white" points="388.25,-432 295.75,-432 295.75,-396 388.25,-396 388.25,-432"/>
<text text-anchor="middle" x="342" y="-408.95" font-family="Arial" font-size="14.00">renaissance</text>
</g>
<!-- destroy -->
<g id="node5" class="node">
<title>destroy</title>
<polygon fill="lightblue" stroke="white" points="487.62,-432 424.38,-432 424.38,-396 487.62,-396 487.62,-432"/>
<text text-anchor="middle" x="456" y="-408.95" font-family="Arial" font-size="14.00">destroy</text>
</g>
<!-- destroy&#45;&gt;destroy -->
<g id="edge1" class="edge">
<title>destroy&#45;&gt;destroy</title>
<path fill="none" stroke="black" d="M460.77,-432.41C484.33,-512.56 523.62,-506.43 523.62,-414 523.62,-325.91 487.93,-316.2 464.18,-384.88"/>
<polygon fill="black" stroke="black" points="460.93,-383.55 461.23,-394.14 467.6,-385.68 460.93,-383.55"/>
</g>
<!-- update -->
<g id="node6" class="node">
<title>update</title>
<polygon fill="lightblue" stroke="white" points="600.75,-432 541.25,-432 541.25,-396 600.75,-396 600.75,-432"/>
<text text-anchor="middle" x="571" y="-408.95" font-family="Arial" font-size="14.00">update</text>
</g>
<!-- groupgraph_params -->
<g id="node7" class="node">
<title>groupgraph_params</title>
<polygon fill="lightblue" stroke="white" points="643.12,-36 498.88,-36 498.88,0 643.12,0 643.12,-36"/>
<text text-anchor="middle" x="571" y="-12.95" font-family="Arial" font-size="14.00">groupgraph_params</text>
</g>
<!-- update&#45;&gt;groupgraph_params -->
<g id="edge2" class="edge">
<title>update&#45;&gt;groupgraph_params</title>
<path fill="none" stroke="black" d="M571,-395.56C571,-333.64 571,-123.98 571,-47.35"/>
<polygon fill="black" stroke="black" points="574.5,-47.75 571,-37.75 567.5,-47.75 574.5,-47.75"/>
</g>
</g>
</svg>
