<?xml version="1.0" encoding="UTF-8" standalone="no"?>
<!DOCTYPE svg PUBLIC "-//W3C//DTD SVG 1.1//EN"
 "http://www.w3.org/Graphics/SVG/1.1/DTD/svg11.dtd">
<!-- Generated by graphviz version 9.0.0 (20230911.1827)
 -->
<!-- Title: CallGraph Pages: 1 -->
<svg width="1387pt" height="497pt"
 viewBox="0.00 0.00 1387.25 496.69" xmlns="http://www.w3.org/2000/svg" xmlns:xlink="http://www.w3.org/1999/xlink">
<g id="graph0" class="graph" transform="scale(1 1) rotate(0) translate(4 492.69)">
<title>CallGraph</title>
<polygon fill="white" stroke="none" points="-4,4 -4,-492.69 1383.25,-492.69 1383.25,4 -4,4"/>
<!-- index -->
<g id="node1" class="node">
<title>index</title>
<polygon fill="lightblue" stroke="white" points="54,-432 0,-432 0,-396 54,-396 54,-432"/>
<text text-anchor="middle" x="27" y="-408.95" font-family="Arial" font-size="14.00">index</text>
</g>
<!-- new -->
<g id="node2" class="node">
<title>new</title>
<polygon fill="lightblue" stroke="white" points="144,-432 90,-432 90,-396 144,-396 144,-432"/>
<text text-anchor="middle" x="117" y="-408.95" font-family="Arial" font-size="14.00">new</text>
</g>
<!-- new&#45;&gt;new -->
<g id="edge1" class="edge">
<title>new&#45;&gt;new</title>
<path fill="none" stroke="black" d="M121.44,-432.41C143.39,-512.56 180,-506.43 180,-414 180,-325.91 146.74,-316.2 124.62,-384.88"/>
<polygon fill="black" stroke="black" points="121.37,-383.55 121.87,-394.14 128.08,-385.55 121.37,-383.55"/>
</g>
<!-- create -->
<g id="node3" class="node">
<title>create</title>
<polygon fill="lightblue" stroke="white" points="360.88,-432 305.12,-432 305.12,-396 360.88,-396 360.88,-432"/>
<text text-anchor="middle" x="333" y="-408.95" font-family="Arial" font-size="14.00">create</text>
</g>
<!-- group_params -->
<g id="node4" class="node">
<title>group_params</title>
<polygon fill="lightblue" stroke="white" points="282.12,-36 173.88,-36 173.88,0 282.12,0 282.12,-36"/>
<text text-anchor="middle" x="228" y="-12.95" font-family="Arial" font-size="14.00">group_params</text>
</g>
<!-- create&#45;&gt;group_params -->
<g id="edge2" class="edge">
<title>create&#45;&gt;group_params</title>
<path fill="none" stroke="black" d="M328.35,-395.56C311.85,-333.64 255.98,-123.98 235.56,-47.35"/>
<polygon fill="black" stroke="black" points="238.94,-46.46 232.98,-37.7 232.18,-48.26 238.94,-46.46"/>
</g>
<!-- save -->
<g id="node5" class="node">
<title>save</title>
<polygon fill="lightblue" stroke="white" points="372,-36 318,-36 318,0 372,0 372,-36"/>
<text text-anchor="middle" x="345" y="-12.95" font-family="Arial" font-size="14.00">save</text>
</g>
<!-- create&#45;&gt;save -->
<g id="edge3" class="edge">
<title>create&#45;&gt;save</title>
<path fill="none" stroke="black" d="M333.53,-395.56C335.42,-333.64 341.8,-123.98 344.14,-47.35"/>
<polygon fill="black" stroke="black" points="347.62,-47.85 344.43,-37.75 340.63,-47.64 347.62,-47.85"/>
</g>
<!-- delete -->
<g id="node6" class="node">
<title>delete</title>
<polygon fill="lightblue" stroke="white" points="452.88,-432 397.12,-432 397.12,-396 452.88,-396 452.88,-432"/>
<text text-anchor="middle" x="425" y="-408.95" font-family="Arial" font-size="14.00">delete</text>
</g>
<!-- update -->
<g id="node7" class="node">
<title>update</title>
<polygon fill="lightblue" stroke="white" points="257.75,-432 198.25,-432 198.25,-396 257.75,-396 257.75,-432"/>
<text text-anchor="middle" x="228" y="-408.95" font-family="Arial" font-size="14.00">update</text>
</g>
<!-- update&#45;&gt;group_params -->
<g id="edge4" class="edge">
<title>update&#45;&gt;group_params</title>
<path fill="none" stroke="black" d="M228,-395.56C228,-333.64 228,-123.98 228,-47.35"/>
<polygon fill="black" stroke="black" points="231.5,-47.75 228,-37.75 224.5,-47.75 231.5,-47.75"/>
</g>
<!-- find_group -->
<g id="node8" class="node">
<title>find_group</title>
<polygon fill="lightblue" stroke="white" points="573.12,-432 488.88,-432 488.88,-396 573.12,-396 573.12,-432"/>
<text text-anchor="middle" x="531" y="-408.95" font-family="Arial" font-size="14.00">find_group</text>
</g>
<!-- user_not_authorized -->
<g id="node9" class="node">
<title>user_not_authorized</title>
<polygon fill="lightblue" stroke="white" points="754.5,-432 609.5,-432 609.5,-396 754.5,-396 754.5,-432"/>
<text text-anchor="middle" x="682" y="-408.95" font-family="Arial" font-size="14.00">user_not_authorized</text>
</g>
<!-- list_items_show -->
<g id="node10" class="node">
<title>list_items_show</title>
<polygon fill="lightblue" stroke="white" points="907.62,-432 790.38,-432 790.38,-396 907.62,-396 907.62,-432"/>
<text text-anchor="middle" x="849" y="-408.95" font-family="Arial" font-size="14.00">list_items_show</text>
</g>
<!-- list_orders_show -->
<g id="node11" class="node">
<title>list_orders_show</title>
<polygon fill="lightblue" stroke="white" points="1063,-36 939,-36 939,0 1063,0 1063,-36"/>
<text text-anchor="middle" x="1001" y="-12.95" font-family="Arial" font-size="14.00">list_orders_show</text>
</g>
<!-- list_items_add -->
<g id="node12" class="node">
<title>list_items_add</title>
<polygon fill="lightblue" stroke="white" points="1203.12,-432 1094.88,-432 1094.88,-396 1203.12,-396 1203.12,-432"/>
<text text-anchor="middle" x="1149" y="-408.95" font-family="Arial" font-size="14.00">list_items_add</text>
</g>
<!-- list_orders_add -->
<g id="node13" class="node">
<title>list_orders_add</title>
<polygon fill="lightblue" stroke="white" points="1058.5,-432 943.5,-432 943.5,-396 1058.5,-396 1058.5,-432"/>
<text text-anchor="middle" x="1001" y="-408.95" font-family="Arial" font-size="14.00">list_orders_add</text>
</g>
<!-- list_orders_add&#45;&gt;list_orders_show -->
<g id="edge5" class="edge">
<title>list_orders_add&#45;&gt;list_orders_show</title>
<path fill="none" stroke="black" d="M1001,-395.56C1001,-333.64 1001,-123.98 1001,-47.35"/>
<polygon fill="black" stroke="black" points="1004.5,-47.75 1001,-37.75 997.5,-47.75 1004.5,-47.75"/>
</g>
<!-- list_index_definition -->
<g id="node14" class="node">
<title>list_index_definition</title>
<polygon fill="lightblue" stroke="white" points="1379.25,-432 1238.75,-432 1238.75,-396 1379.25,-396 1379.25,-432"/>
<text text-anchor="middle" x="1309" y="-408.95" font-family="Arial" font-size="14.00">list_index_definition</text>
</g>
</g>
</svg>
