<?xml version="1.0" encoding="UTF-8" standalone="no"?>
<!DOCTYPE svg PUBLIC "-//W3C//DTD SVG 1.1//EN"
 "http://www.w3.org/Graphics/SVG/1.1/DTD/svg11.dtd">
<!-- Generated by graphviz version 9.0.0 (20230911.1827)
 -->
<!-- Title: CallGraph Pages: 1 -->
<svg width="581pt" height="497pt"
 viewBox="0.00 0.00 581.25 496.69" xmlns="http://www.w3.org/2000/svg" xmlns:xlink="http://www.w3.org/1999/xlink">
<g id="graph0" class="graph" transform="scale(1 1) rotate(0) translate(4 492.69)">
<title>CallGraph</title>
<polygon fill="white" stroke="none" points="-4,4 -4,-492.69 577.25,-492.69 577.25,4 -4,4"/>
<!-- show -->
<g id="node1" class="node">
<title>show</title>
<polygon fill="lightblue" stroke="white" points="73.62,-432 19.62,-432 19.62,-396 73.62,-396 73.62,-432"/>
<text text-anchor="middle" x="46.62" y="-408.95" font-family="Arial" font-size="14.00">show</text>
</g>
<!-- absolute_url -->
<g id="node2" class="node">
<title>absolute_url</title>
<polygon fill="lightblue" stroke="white" points="93.25,-36 0,-36 0,0 93.25,0 93.25,-36"/>
<text text-anchor="middle" x="46.62" y="-12.95" font-family="Arial" font-size="14.00">absolute_url</text>
</g>
<!-- show&#45;&gt;absolute_url -->
<g id="edge1" class="edge">
<title>show&#45;&gt;absolute_url</title>
<path fill="none" stroke="black" d="M46.62,-395.56C46.62,-333.64 46.62,-123.98 46.62,-47.35"/>
<polygon fill="black" stroke="black" points="50.13,-47.75 46.63,-37.75 43.13,-47.75 50.13,-47.75"/>
</g>
<!-- show_properties -->
<g id="node3" class="node">
<title>show_properties</title>
<polygon fill="lightblue" stroke="white" points="231.5,-432 109.75,-432 109.75,-396 231.5,-396 231.5,-432"/>
<text text-anchor="middle" x="170.62" y="-408.95" font-family="Arial" font-size="14.00">show_properties</text>
</g>
<!-- properties -->
<g id="node4" class="node">
<title>properties</title>
<polygon fill="lightblue" stroke="white" points="347.88,-432 267.38,-432 267.38,-396 347.88,-396 347.88,-432"/>
<text text-anchor="middle" x="307.62" y="-408.95" font-family="Arial" font-size="14.00">properties</text>
</g>
<!-- draw -->
<g id="node5" class="node">
<title>draw</title>
<polygon fill="lightblue" stroke="white" points="437.62,-432 383.62,-432 383.62,-396 437.62,-396 437.62,-432"/>
<text text-anchor="middle" x="410.62" y="-408.95" font-family="Arial" font-size="14.00">draw</text>
</g>
<!-- destroy -->
<g id="node6" class="node">
<title>destroy</title>
<polygon fill="lightblue" stroke="white" points="537.25,-432 474,-432 474,-396 537.25,-396 537.25,-432"/>
<text text-anchor="middle" x="505.62" y="-408.95" font-family="Arial" font-size="14.00">destroy</text>
</g>
<!-- destroy&#45;&gt;destroy -->
<g id="edge2" class="edge">
<title>destroy&#45;&gt;destroy</title>
<path fill="none" stroke="black" d="M510.39,-432.41C533.96,-512.56 573.25,-506.43 573.25,-414 573.25,-325.91 537.55,-316.2 513.81,-384.88"/>
<polygon fill="black" stroke="black" points="510.56,-383.55 510.85,-394.14 517.23,-385.68 510.56,-383.55"/>
</g>
</g>
</svg>
