<?xml version="1.0" encoding="UTF-8" standalone="no"?>
<!DOCTYPE svg PUBLIC "-//W3C//DTD SVG 1.1//EN"
 "http://www.w3.org/Graphics/SVG/1.1/DTD/svg11.dtd">
<!-- Generated by graphviz version 9.0.0 (20230911.1827)
 -->
<!-- Title: CallGraph Pages: 1 -->
<svg width="477pt" height="836pt"
 viewBox="0.00 0.00 476.88 836.00" xmlns="http://www.w3.org/2000/svg" xmlns:xlink="http://www.w3.org/1999/xlink">
<g id="graph0" class="graph" transform="scale(1 1) rotate(0) translate(4 832)">
<title>CallGraph</title>
<polygon fill="white" stroke="none" points="-4,4 -4,-832 472.88,-832 472.88,4 -4,4"/>
<!-- create -->
<g id="node1" class="node">
<title>create</title>
<polygon fill="lightblue" stroke="white" points="148.25,-828 92.5,-828 92.5,-792 148.25,-792 148.25,-828"/>
<text text-anchor="middle" x="120.38" y="-804.95" font-family="Arial" font-size="14.00">create</text>
</g>
<!-- invite_resource -->
<g id="node2" class="node">
<title>invite_resource</title>
<polygon fill="lightblue" stroke="white" points="112.75,-432 0,-432 0,-396 112.75,-396 112.75,-432"/>
<text text-anchor="middle" x="56.38" y="-408.95" font-family="Arial" font-size="14.00">invite_resource</text>
</g>
<!-- create&#45;&gt;invite_resource -->
<g id="edge1" class="edge">
<title>create&#45;&gt;invite_resource</title>
<path fill="none" stroke="black" d="M117.54,-791.56C107.48,-729.64 73.43,-519.98 60.98,-443.35"/>
<polygon fill="black" stroke="black" points="64.48,-443.04 59.42,-433.73 57.57,-444.16 64.48,-443.04"/>
</g>
<!-- resource -->
<g id="node3" class="node">
<title>resource</title>
<polygon fill="lightblue" stroke="white" points="221.5,-432 149.25,-432 149.25,-396 221.5,-396 221.5,-432"/>
<text text-anchor="middle" x="185.38" y="-408.95" font-family="Arial" font-size="14.00">resource</text>
</g>
<!-- create&#45;&gt;resource -->
<g id="edge2" class="edge">
<title>create&#45;&gt;resource</title>
<path fill="none" stroke="black" d="M123.25,-791.56C133.47,-729.64 168.06,-519.98 180.7,-443.35"/>
<polygon fill="black" stroke="black" points="184.11,-444.17 182.29,-433.73 177.2,-443.03 184.11,-444.17"/>
</g>
<!-- save -->
<g id="node6" class="node">
<title>save</title>
<polygon fill="lightblue" stroke="white" points="83.38,-36 29.38,-36 29.38,0 83.38,0 83.38,-36"/>
<text text-anchor="middle" x="56.38" y="-12.95" font-family="Arial" font-size="14.00">save</text>
</g>
<!-- invite_resource&#45;&gt;save -->
<g id="edge3" class="edge">
<title>invite_resource&#45;&gt;save</title>
<path fill="none" stroke="black" d="M56.38,-395.56C56.38,-333.64 56.38,-123.98 56.38,-47.35"/>
<polygon fill="black" stroke="black" points="59.88,-47.75 56.38,-37.75 52.88,-47.75 59.88,-47.75"/>
</g>
<!-- send_invitation -->
<g id="node4" class="node">
<title>send_invitation</title>
<polygon fill="lightblue" stroke="white" points="294.25,-828 184.5,-828 184.5,-792 294.25,-792 294.25,-828"/>
<text text-anchor="middle" x="239.38" y="-804.95" font-family="Arial" font-size="14.00">send_invitation</text>
</g>
<!-- send_all_invitations -->
<g id="node5" class="node">
<title>send_all_invitations</title>
<polygon fill="lightblue" stroke="white" points="468.88,-828 329.88,-828 329.88,-792 468.88,-792 468.88,-828"/>
<text text-anchor="middle" x="399.38" y="-804.95" font-family="Arial" font-size="14.00">send_all_invitations</text>
</g>
</g>
</svg>
