<?xml version="1.0" encoding="UTF-8" standalone="no"?>
<!DOCTYPE svg PUBLIC "-//W3C//DTD SVG 1.1//EN"
 "http://www.w3.org/Graphics/SVG/1.1/DTD/svg11.dtd">
<!-- Generated by graphviz version 9.0.0 (20230911.1827)
 -->
<!-- Title: CallGraph Pages: 1 -->
<svg width="966pt" height="497pt"
 viewBox="0.00 0.00 966.25 496.69" xmlns="http://www.w3.org/2000/svg" xmlns:xlink="http://www.w3.org/1999/xlink">
<g id="graph0" class="graph" transform="scale(1 1) rotate(0) translate(4 492.69)">
<title>CallGraph</title>
<polygon fill="white" stroke="none" points="-4,4 -4,-492.69 962.25,-492.69 962.25,4 -4,4"/>
<!-- index -->
<g id="node1" class="node">
<title>index</title>
<polygon fill="lightblue" stroke="white" points="54,-432 0,-432 0,-396 54,-396 54,-432"/>
<text text-anchor="middle" x="27" y="-408.95" font-family="Arial" font-size="14.00">index</text>
</g>
<!-- ldap_settings -->
<g id="node2" class="node">
<title>ldap_settings</title>
<polygon fill="lightblue" stroke="white" points="229.38,-36 128.62,-36 128.62,0 229.38,0 229.38,-36"/>
<text text-anchor="middle" x="179" y="-12.95" font-family="Arial" font-size="14.00">ldap_settings</text>
</g>
<!-- index&#45;&gt;ldap_settings -->
<g id="edge1" class="edge">
<title>index&#45;&gt;ldap_settings</title>
<path fill="none" stroke="black" d="M33.73,-395.56C57.66,-333.52 138.83,-123.12 168.24,-46.88"/>
<polygon fill="black" stroke="black" points="171.47,-48.24 171.81,-37.65 164.94,-45.72 171.47,-48.24"/>
</g>
<!-- new -->
<g id="node3" class="node">
<title>new</title>
<polygon fill="lightblue" stroke="white" points="144,-432 90,-432 90,-396 144,-396 144,-432"/>
<text text-anchor="middle" x="117" y="-408.95" font-family="Arial" font-size="14.00">new</text>
</g>
<!-- new&#45;&gt;ldap_settings -->
<g id="edge2" class="edge">
<title>new&#45;&gt;ldap_settings</title>
<path fill="none" stroke="black" d="M119.74,-395.56C129.49,-333.64 162.48,-123.98 174.54,-47.35"/>
<polygon fill="black" stroke="black" points="177.96,-48.15 176.05,-37.73 171.04,-47.07 177.96,-48.15"/>
</g>
<!-- create -->
<g id="node4" class="node">
<title>create</title>
<polygon fill="lightblue" stroke="white" points="407.88,-432 352.12,-432 352.12,-396 407.88,-396 407.88,-432"/>
<text text-anchor="middle" x="380" y="-408.95" font-family="Arial" font-size="14.00">create</text>
</g>
<!-- create&#45;&gt;ldap_settings -->
<g id="edge3" class="edge">
<title>create&#45;&gt;ldap_settings</title>
<path fill="none" stroke="black" d="M371.1,-395.56C339.39,-333.39 231.68,-122.26 192.98,-46.41"/>
<polygon fill="black" stroke="black" points="196.14,-44.9 188.48,-37.58 189.91,-48.08 196.14,-44.9"/>
</g>
<!-- ldap_settings_params -->
<g id="node5" class="node">
<title>ldap_settings_params</title>
<polygon fill="lightblue" stroke="white" points="471.12,-36 314.88,-36 314.88,0 471.12,0 471.12,-36"/>
<text text-anchor="middle" x="393" y="-12.95" font-family="Arial" font-size="14.00">ldap_settings_params</text>
</g>
<!-- create&#45;&gt;ldap_settings_params -->
<g id="edge4" class="edge">
<title>create&#45;&gt;ldap_settings_params</title>
<path fill="none" stroke="black" d="M380.58,-395.56C382.62,-333.64 389.54,-123.98 392.06,-47.35"/>
<polygon fill="black" stroke="black" points="395.55,-47.86 392.38,-37.75 388.55,-47.63 395.55,-47.86"/>
</g>
<!-- save -->
<g id="node6" class="node">
<title>save</title>
<polygon fill="lightblue" stroke="white" points="586,-36 532,-36 532,0 586,0 586,-36"/>
<text text-anchor="middle" x="559" y="-12.95" font-family="Arial" font-size="14.00">save</text>
</g>
<!-- create&#45;&gt;save -->
<g id="edge5" class="edge">
<title>create&#45;&gt;save</title>
<path fill="none" stroke="black" d="M387.92,-395.56C416.17,-333.39 512.09,-122.26 546.55,-46.41"/>
<polygon fill="black" stroke="black" points="549.59,-48.17 550.54,-37.61 543.22,-45.27 549.59,-48.17"/>
</g>
<!-- edit -->
<g id="node7" class="node">
<title>edit</title>
<polygon fill="lightblue" stroke="white" points="694,-432 640,-432 640,-396 694,-396 694,-432"/>
<text text-anchor="middle" x="667" y="-408.95" font-family="Arial" font-size="14.00">edit</text>
</g>
<!-- update -->
<g id="node8" class="node">
<title>update</title>
<polygon fill="lightblue" stroke="white" points="503.75,-432 444.25,-432 444.25,-396 503.75,-396 503.75,-432"/>
<text text-anchor="middle" x="474" y="-408.95" font-family="Arial" font-size="14.00">update</text>
</g>
<!-- update&#45;&gt;ldap_settings_params -->
<g id="edge6" class="edge">
<title>update&#45;&gt;ldap_settings_params</title>
<path fill="none" stroke="black" d="M470.42,-395.56C457.69,-333.64 414.58,-123.98 398.83,-47.35"/>
<polygon fill="black" stroke="black" points="402.29,-46.81 396.85,-37.72 395.43,-48.22 402.29,-46.81"/>
</g>
<!-- destroy -->
<g id="node9" class="node">
<title>destroy</title>
<polygon fill="lightblue" stroke="white" points="793.62,-432 730.38,-432 730.38,-396 793.62,-396 793.62,-432"/>
<text text-anchor="middle" x="762" y="-408.95" font-family="Arial" font-size="14.00">destroy</text>
</g>
<!-- destroy&#45;&gt;destroy -->
<g id="edge7" class="edge">
<title>destroy&#45;&gt;destroy</title>
<path fill="none" stroke="black" d="M766.77,-432.41C790.33,-512.56 829.62,-506.43 829.62,-414 829.62,-325.91 793.93,-316.2 770.18,-384.88"/>
<polygon fill="black" stroke="black" points="766.93,-383.55 767.23,-394.14 773.6,-385.68 766.93,-383.55"/>
</g>
<!-- activate -->
<g id="node10" class="node">
<title>activate</title>
<polygon fill="lightblue" stroke="white" points="604,-432 540,-432 540,-396 604,-396 604,-432"/>
<text text-anchor="middle" x="572" y="-408.95" font-family="Arial" font-size="14.00">activate</text>
</g>
<!-- activate&#45;&gt;save -->
<g id="edge8" class="edge">
<title>activate&#45;&gt;save</title>
<path fill="none" stroke="black" d="M571.42,-395.56C569.38,-333.64 562.46,-123.98 559.94,-47.35"/>
<polygon fill="black" stroke="black" points="563.45,-47.63 559.62,-37.75 556.45,-47.86 563.45,-47.63"/>
</g>
<!-- check_policies -->
<g id="node11" class="node">
<title>check_policies</title>
<polygon fill="lightblue" stroke="white" points="958.25,-432 847.75,-432 847.75,-396 958.25,-396 958.25,-432"/>
<text text-anchor="middle" x="903" y="-408.95" font-family="Arial" font-size="14.00">check_policies</text>
</g>
<!-- load_ldap_settings -->
<g id="node12" class="node">
<title>load_ldap_settings</title>
<polygon fill="lightblue" stroke="white" points="316,-432 180,-432 180,-396 316,-396 316,-432"/>
<text text-anchor="middle" x="248" y="-408.95" font-family="Arial" font-size="14.00">load_ldap_settings</text>
</g>
<!-- load_ldap_settings&#45;&gt;ldap_settings -->
<g id="edge9" class="edge">
<title>load_ldap_settings&#45;&gt;ldap_settings</title>
<path fill="none" stroke="black" d="M244.95,-395.56C234.1,-333.64 197.39,-123.98 183.96,-47.35"/>
<polygon fill="black" stroke="black" points="187.45,-46.97 182.28,-37.73 180.56,-48.18 187.45,-46.97"/>
</g>
</g>
</svg>
