<?xml version="1.0" encoding="UTF-8" standalone="no"?>
<!DOCTYPE svg PUBLIC "-//W3C//DTD SVG 1.1//EN"
 "http://www.w3.org/Graphics/SVG/1.1/DTD/svg11.dtd">
<!-- Generated by graphviz version 9.0.0 (20230911.1827)
 -->
<!-- Title: CallGraph Pages: 1 -->
<svg width="128pt" height="836pt"
 viewBox="0.00 0.00 128.25 836.00" xmlns="http://www.w3.org/2000/svg" xmlns:xlink="http://www.w3.org/1999/xlink">
<g id="graph0" class="graph" transform="scale(1 1) rotate(0) translate(4 832)">
<title>CallGraph</title>
<polygon fill="white" stroke="none" points="-4,4 -4,-832 124.25,-832 124.25,4 -4,4"/>
<!-- create -->
<g id="node1" class="node">
<title>create</title>
<polygon fill="lightblue" stroke="white" points="88,-828 32.25,-828 32.25,-792 88,-792 88,-828"/>
<text text-anchor="middle" x="60.12" y="-804.95" font-family="Arial" font-size="14.00">create</text>
</g>
<!-- message -->
<g id="node2" class="node">
<title>message</title>
<polygon fill="lightblue" stroke="white" points="97.75,-432 22.5,-432 22.5,-396 97.75,-396 97.75,-432"/>
<text text-anchor="middle" x="60.12" y="-408.95" font-family="Arial" font-size="14.00">message</text>
</g>
<!-- create&#45;&gt;message -->
<g id="edge1" class="edge">
<title>create&#45;&gt;message</title>
<path fill="none" stroke="black" d="M60.12,-791.56C60.12,-729.64 60.12,-519.98 60.12,-443.35"/>
<polygon fill="black" stroke="black" points="63.63,-443.75 60.13,-433.75 56.63,-443.75 63.63,-443.75"/>
</g>
<!-- missing_params -->
<g id="node3" class="node">
<title>missing_params</title>
<polygon fill="lightblue" stroke="white" points="120.25,-36 0,-36 0,0 120.25,0 120.25,-36"/>
<text text-anchor="middle" x="60.12" y="-12.95" font-family="Arial" font-size="14.00">missing_params</text>
</g>
<!-- message&#45;&gt;missing_params -->
<g id="edge2" class="edge">
<title>message&#45;&gt;missing_params</title>
<path fill="none" stroke="black" d="M60.12,-395.56C60.12,-333.64 60.12,-123.98 60.12,-47.35"/>
<polygon fill="black" stroke="black" points="63.63,-47.75 60.13,-37.75 56.63,-47.75 63.63,-47.75"/>
</g>
</g>
</svg>
