<?xml version="1.0" encoding="UTF-8" standalone="no"?>
<!DOCTYPE svg PUBLIC "-//W3C//DTD SVG 1.1//EN"
 "http://www.w3.org/Graphics/SVG/1.1/DTD/svg11.dtd">
<!-- Generated by graphviz version 9.0.0 (20230911.1827)
 -->
<!-- Title: CallGraph Pages: 1 -->
<svg width="2354pt" height="497pt"
 viewBox="0.00 0.00 2354.12 496.69" xmlns="http://www.w3.org/2000/svg" xmlns:xlink="http://www.w3.org/1999/xlink">
<g id="graph0" class="graph" transform="scale(1 1) rotate(0) translate(4 492.69)">
<title>CallGraph</title>
<polygon fill="white" stroke="none" points="-4,4 -4,-492.69 2350.12,-492.69 2350.12,4 -4,4"/>
<!-- index -->
<g id="node1" class="node">
<title>index</title>
<polygon fill="lightblue" stroke="white" points="54,-432 0,-432 0,-396 54,-396 54,-432"/>
<text text-anchor="middle" x="27" y="-408.95" font-family="Arial" font-size="14.00">index</text>
</g>
<!-- preview -->
<g id="node2" class="node">
<title>preview</title>
<polygon fill="lightblue" stroke="white" points="154.38,-432 89.62,-432 89.62,-396 154.38,-396 154.38,-432"/>
<text text-anchor="middle" x="122" y="-408.95" font-family="Arial" font-size="14.00">preview</text>
</g>
<!-- delete -->
<g id="node3" class="node">
<title>delete</title>
<polygon fill="lightblue" stroke="white" points="245.88,-432 190.12,-432 190.12,-396 245.88,-396 245.88,-432"/>
<text text-anchor="middle" x="218" y="-408.95" font-family="Arial" font-size="14.00">delete</text>
</g>
<!-- destroy -->
<g id="node4" class="node">
<title>destroy</title>
<polygon fill="lightblue" stroke="white" points="249.62,-36 186.38,-36 186.38,0 249.62,0 249.62,-36"/>
<text text-anchor="middle" x="218" y="-12.95" font-family="Arial" font-size="14.00">destroy</text>
</g>
<!-- delete&#45;&gt;destroy -->
<g id="edge1" class="edge">
<title>delete&#45;&gt;destroy</title>
<path fill="none" stroke="black" d="M218,-395.56C218,-333.64 218,-123.98 218,-47.35"/>
<polygon fill="black" stroke="black" points="221.5,-47.75 218,-37.75 214.5,-47.75 221.5,-47.75"/>
</g>
<!-- mark_read -->
<g id="node5" class="node">
<title>mark_read</title>
<polygon fill="lightblue" stroke="white" points="365.75,-432 282.25,-432 282.25,-396 365.75,-396 365.75,-432"/>
<text text-anchor="middle" x="324" y="-408.95" font-family="Arial" font-size="14.00">mark_read</text>
</g>
<!-- mark_read_old -->
<g id="node6" class="node">
<title>mark_read_old</title>
<polygon fill="lightblue" stroke="white" points="512.62,-432 401.38,-432 401.38,-396 512.62,-396 512.62,-432"/>
<text text-anchor="middle" x="457" y="-408.95" font-family="Arial" font-size="14.00">mark_read_old</text>
</g>
<!-- mark_all_read -->
<g id="node7" class="node">
<title>mark_all_read</title>
<polygon fill="lightblue" stroke="white" points="653.62,-432 548.38,-432 548.38,-396 653.62,-396 653.62,-432"/>
<text text-anchor="middle" x="601" y="-408.95" font-family="Arial" font-size="14.00">mark_all_read</text>
</g>
<!-- mark_unread -->
<g id="node8" class="node">
<title>mark_unread</title>
<polygon fill="lightblue" stroke="white" points="788.25,-432 689.75,-432 689.75,-396 788.25,-396 788.25,-432"/>
<text text-anchor="middle" x="739" y="-408.95" font-family="Arial" font-size="14.00">mark_unread</text>
</g>
<!-- refresh_counter -->
<g id="node9" class="node">
<title>refresh_counter</title>
<polygon fill="lightblue" stroke="white" points="941.25,-432 824.75,-432 824.75,-396 941.25,-396 941.25,-432"/>
<text text-anchor="middle" x="883" y="-408.95" font-family="Arial" font-size="14.00">refresh_counter</text>
</g>
<!-- follow -->
<g id="node10" class="node">
<title>follow</title>
<polygon fill="lightblue" stroke="white" points="1031,-432 977,-432 977,-396 1031,-396 1031,-432"/>
<text text-anchor="middle" x="1004" y="-408.95" font-family="Arial" font-size="14.00">follow</text>
</g>
<!-- destroy_invalid_notifications -->
<g id="node11" class="node">
<title>destroy_invalid_notifications</title>
<polygon fill="lightblue" stroke="white" points="1260.88,-432 1067.12,-432 1067.12,-396 1260.88,-396 1260.88,-432"/>
<text text-anchor="middle" x="1164" y="-408.95" font-family="Arial" font-size="14.00">destroy_invalid_notifications</text>
</g>
<!-- destroy_invalid_notifications&#45;&gt;destroy_invalid_notifications -->
<g id="edge2" class="edge">
<title>destroy_invalid_notifications&#45;&gt;destroy_invalid_notifications</title>
<path fill="none" stroke="black" d="M1173.37,-432.41C1219.67,-512.56 1296.88,-506.43 1296.88,-414 1296.88,-325.37 1225.87,-316.09 1179.22,-386.16"/>
<polygon fill="black" stroke="black" points="1176.46,-383.96 1174.17,-394.3 1182.41,-387.65 1176.46,-383.96"/>
</g>
<!-- list_index_definition -->
<g id="node12" class="node">
<title>list_index_definition</title>
<polygon fill="lightblue" stroke="white" points="1953.25,-432 1812.75,-432 1812.75,-396 1953.25,-396 1953.25,-432"/>
<text text-anchor="middle" x="1883" y="-408.95" font-family="Arial" font-size="14.00">list_index_definition</text>
</g>
<!-- order_by_created_at -->
<g id="node13" class="node">
<title>order_by_created_at</title>
<polygon fill="lightblue" stroke="white" points="1467.38,-36 1318.62,-36 1318.62,0 1467.38,0 1467.38,-36"/>
<text text-anchor="middle" x="1393" y="-12.95" font-family="Arial" font-size="14.00">order_by_created_at</text>
</g>
<!-- list_index_definition&#45;&gt;order_by_created_at -->
<g id="edge3" class="edge">
<title>list_index_definition&#45;&gt;order_by_created_at</title>
<path fill="none" stroke="black" d="M1861.31,-395.56C1782.97,-332.57 1514.46,-116.66 1423.45,-43.48"/>
<polygon fill="black" stroke="black" points="1425.88,-40.95 1415.89,-37.41 1421.49,-46.4 1425.88,-40.95"/>
</g>
<!-- order_by_checked_at_inv -->
<g id="node14" class="node">
<title>order_by_checked_at_inv</title>
<polygon fill="lightblue" stroke="white" points="1684.12,-36 1503.88,-36 1503.88,0 1684.12,0 1684.12,-36"/>
<text text-anchor="middle" x="1594" y="-12.95" font-family="Arial" font-size="14.00">order_by_checked_at_inv</text>
</g>
<!-- list_index_definition&#45;&gt;order_by_checked_at_inv -->
<g id="edge4" class="edge">
<title>list_index_definition&#45;&gt;order_by_checked_at_inv</title>
<path fill="none" stroke="black" d="M1870.21,-395.56C1824.42,-333.13 1668.47,-120.52 1613.43,-45.49"/>
<polygon fill="black" stroke="black" points="1616.28,-43.45 1607.54,-37.46 1610.63,-47.59 1616.28,-43.45"/>
</g>
<!-- order_by_checked_at -->
<g id="node15" class="node">
<title>order_by_checked_at</title>
<polygon fill="lightblue" stroke="white" points="1875.38,-36 1720.62,-36 1720.62,0 1875.38,0 1875.38,-36"/>
<text text-anchor="middle" x="1798" y="-12.95" font-family="Arial" font-size="14.00">order_by_checked_at</text>
</g>
<!-- list_index_definition&#45;&gt;order_by_checked_at -->
<g id="edge5" class="edge">
<title>list_index_definition&#45;&gt;order_by_checked_at</title>
<path fill="none" stroke="black" d="M1879.24,-395.56C1865.88,-333.64 1820.65,-123.98 1804.12,-47.35"/>
<polygon fill="black" stroke="black" points="1807.57,-46.75 1802.04,-37.72 1800.73,-48.23 1807.57,-46.75"/>
</g>
<!-- order_by_from -->
<g id="node16" class="node">
<title>order_by_from</title>
<polygon fill="lightblue" stroke="white" points="2022.25,-36 1911.75,-36 1911.75,0 2022.25,0 2022.25,-36"/>
<text text-anchor="middle" x="1967" y="-12.95" font-family="Arial" font-size="14.00">order_by_from</text>
</g>
<!-- list_index_definition&#45;&gt;order_by_from -->
<g id="edge6" class="edge">
<title>list_index_definition&#45;&gt;order_by_from</title>
<path fill="none" stroke="black" d="M1886.72,-395.56C1899.92,-333.64 1944.62,-123.98 1960.96,-47.35"/>
<polygon fill="black" stroke="black" points="1964.35,-48.23 1963.01,-37.72 1957.5,-46.77 1964.35,-48.23"/>
</g>
<!-- order_by_body -->
<g id="node17" class="node">
<title>order_by_body</title>
<polygon fill="lightblue" stroke="white" points="2171.38,-36 2058.62,-36 2058.62,0 2171.38,0 2171.38,-36"/>
<text text-anchor="middle" x="2115" y="-12.95" font-family="Arial" font-size="14.00">order_by_body</text>
</g>
<!-- list_index_definition&#45;&gt;order_by_body -->
<g id="edge7" class="edge">
<title>list_index_definition&#45;&gt;order_by_body</title>
<path fill="none" stroke="black" d="M1893.27,-395.56C1929.95,-333.26 2054.71,-121.39 2099.13,-45.95"/>
<polygon fill="black" stroke="black" points="2102.02,-47.93 2104.08,-37.54 2095.99,-44.38 2102.02,-47.93"/>
</g>
<!-- order_by_body_inv -->
<g id="node18" class="node">
<title>order_by_body_inv</title>
<polygon fill="lightblue" stroke="white" points="2346.12,-36 2207.88,-36 2207.88,0 2346.12,0 2346.12,-36"/>
<text text-anchor="middle" x="2277" y="-12.95" font-family="Arial" font-size="14.00">order_by_body_inv</text>
</g>
<!-- list_index_definition&#45;&gt;order_by_body_inv -->
<g id="edge8" class="edge">
<title>list_index_definition&#45;&gt;order_by_body_inv</title>
<path fill="none" stroke="black" d="M1900.44,-395.56C1963.25,-332.75 2178.09,-117.91 2251.88,-44.12"/>
<polygon fill="black" stroke="black" points="2254.1,-46.85 2258.69,-37.31 2249.15,-41.9 2254.1,-46.85"/>
</g>
<!-- list_preview_definition -->
<g id="node19" class="node">
<title>list_preview_definition</title>
<polygon fill="lightblue" stroke="white" points="1470.75,-432 1315.25,-432 1315.25,-396 1470.75,-396 1470.75,-432"/>
<text text-anchor="middle" x="1393" y="-408.95" font-family="Arial" font-size="14.00">list_preview_definition</text>
</g>
<!-- list_preview_definition&#45;&gt;order_by_created_at -->
<g id="edge9" class="edge">
<title>list_preview_definition&#45;&gt;order_by_created_at</title>
<path fill="none" stroke="black" d="M1393,-395.56C1393,-333.64 1393,-123.98 1393,-47.35"/>
<polygon fill="black" stroke="black" points="1396.5,-47.75 1393,-37.75 1389.5,-47.75 1396.5,-47.75"/>
</g>
</g>
</svg>
