<?xml version="1.0" encoding="UTF-8" standalone="no"?>
<!DOCTYPE svg PUBLIC "-//W3C//DTD SVG 1.1//EN"
 "http://www.w3.org/Graphics/SVG/1.1/DTD/svg11.dtd">
<!-- Generated by graphviz version 9.0.0 (20230911.1827)
 -->
<!-- Title: CallGraph Pages: 1 -->
<svg width="417pt" height="440pt"
 viewBox="0.00 0.00 416.75 440.00" xmlns="http://www.w3.org/2000/svg" xmlns:xlink="http://www.w3.org/1999/xlink">
<g id="graph0" class="graph" transform="scale(1 1) rotate(0) translate(4 436)">
<title>CallGraph</title>
<polygon fill="white" stroke="none" points="-4,4 -4,-436 412.75,-436 412.75,4 -4,4"/>
<!-- create -->
<g id="node1" class="node">
<title>create</title>
<polygon fill="lightblue" stroke="white" points="153.75,-432 98,-432 98,-396 153.75,-396 153.75,-432"/>
<text text-anchor="middle" x="125.88" y="-408.95" font-family="Arial" font-size="14.00">create</text>
</g>
<!-- resource_params -->
<g id="node2" class="node">
<title>resource_params</title>
<polygon fill="lightblue" stroke="white" points="127.75,-36 0,-36 0,0 127.75,0 127.75,-36"/>
<text text-anchor="middle" x="63.88" y="-12.95" font-family="Arial" font-size="14.00">resource_params</text>
</g>
<!-- create&#45;&gt;resource_params -->
<g id="edge1" class="edge">
<title>create&#45;&gt;resource_params</title>
<path fill="none" stroke="black" d="M123.13,-395.56C113.39,-333.64 80.4,-123.98 68.34,-47.35"/>
<polygon fill="black" stroke="black" points="71.83,-47.07 66.82,-37.73 64.92,-48.15 71.83,-47.07"/>
</g>
<!-- resource -->
<g id="node3" class="node">
<title>resource</title>
<polygon fill="lightblue" stroke="white" points="236,-36 163.75,-36 163.75,0 236,0 236,-36"/>
<text text-anchor="middle" x="199.88" y="-12.95" font-family="Arial" font-size="14.00">resource</text>
</g>
<!-- create&#45;&gt;resource -->
<g id="edge2" class="edge">
<title>create&#45;&gt;resource</title>
<path fill="none" stroke="black" d="M129.15,-395.56C140.78,-333.64 180.16,-123.98 194.55,-47.35"/>
<polygon fill="black" stroke="black" points="197.95,-48.2 196.36,-37.72 191.07,-46.91 197.95,-48.2"/>
</g>
<!-- add_inline_attachment -->
<g id="node4" class="node">
<title>add_inline_attachment</title>
<polygon fill="lightblue" stroke="white" points="408.75,-432 251,-432 251,-396 408.75,-396 408.75,-432"/>
<text text-anchor="middle" x="329.88" y="-408.95" font-family="Arial" font-size="14.00">add_inline_attachment</text>
</g>
<!-- load_image -->
<g id="node5" class="node">
<title>load_image</title>
<polygon fill="lightblue" stroke="white" points="375,-36 284.75,-36 284.75,0 375,0 375,-36"/>
<text text-anchor="middle" x="329.88" y="-12.95" font-family="Arial" font-size="14.00">load_image</text>
</g>
<!-- add_inline_attachment&#45;&gt;load_image -->
<g id="edge3" class="edge">
<title>add_inline_attachment&#45;&gt;load_image</title>
<path fill="none" stroke="black" d="M329.88,-395.56C329.88,-333.64 329.88,-123.98 329.88,-47.35"/>
<polygon fill="black" stroke="black" points="333.38,-47.75 329.88,-37.75 326.38,-47.75 333.38,-47.75"/>
</g>
</g>
</svg>
