<?xml version="1.0" encoding="UTF-8" standalone="no"?>
<!DOCTYPE svg PUBLIC "-//W3C//DTD SVG 1.1//EN"
 "http://www.w3.org/Graphics/SVG/1.1/DTD/svg11.dtd">
<!-- Generated by graphviz version 9.0.0 (20230911.1827)
 -->
<!-- Title: CallGraph Pages: 1 -->
<svg width="639pt" height="440pt"
 viewBox="0.00 0.00 638.50 440.00" xmlns="http://www.w3.org/2000/svg" xmlns:xlink="http://www.w3.org/1999/xlink">
<g id="graph0" class="graph" transform="scale(1 1) rotate(0) translate(4 436)">
<title>CallGraph</title>
<polygon fill="white" stroke="none" points="-4,4 -4,-436 634.5,-436 634.5,4 -4,4"/>
<!-- new -->
<g id="node1" class="node">
<title>new</title>
<polygon fill="lightblue" stroke="white" points="54,-432 0,-432 0,-396 54,-396 54,-432"/>
<text text-anchor="middle" x="27" y="-408.95" font-family="Arial" font-size="14.00">new</text>
</g>
<!-- open_form_pilot -->
<g id="node2" class="node">
<title>open_form_pilot</title>
<polygon fill="lightblue" stroke="white" points="149.12,-36 28.88,-36 28.88,0 149.12,0 149.12,-36"/>
<text text-anchor="middle" x="89" y="-12.95" font-family="Arial" font-size="14.00">open_form_pilot</text>
</g>
<!-- new&#45;&gt;open_form_pilot -->
<g id="edge1" class="edge">
<title>new&#45;&gt;open_form_pilot</title>
<path fill="none" stroke="black" d="M29.74,-395.56C39.49,-333.64 72.48,-123.98 84.54,-47.35"/>
<polygon fill="black" stroke="black" points="87.96,-48.15 86.05,-37.73 81.04,-47.07 87.96,-48.15"/>
</g>
<!-- edit -->
<g id="node3" class="node">
<title>edit</title>
<polygon fill="lightblue" stroke="white" points="144,-432 90,-432 90,-396 144,-396 144,-432"/>
<text text-anchor="middle" x="117" y="-408.95" font-family="Arial" font-size="14.00">edit</text>
</g>
<!-- edit&#45;&gt;open_form_pilot -->
<g id="edge2" class="edge">
<title>edit&#45;&gt;open_form_pilot</title>
<path fill="none" stroke="black" d="M115.76,-395.56C111.36,-333.64 96.46,-123.98 91.01,-47.35"/>
<polygon fill="black" stroke="black" points="94.53,-47.47 90.33,-37.75 87.55,-47.97 94.53,-47.47"/>
</g>
<!-- create -->
<g id="node4" class="node">
<title>create</title>
<polygon fill="lightblue" stroke="white" points="255.88,-432 200.12,-432 200.12,-396 255.88,-396 255.88,-432"/>
<text text-anchor="middle" x="228" y="-408.95" font-family="Arial" font-size="14.00">create</text>
</g>
<!-- set_pilot -->
<g id="node5" class="node">
<title>set_pilot</title>
<polygon fill="lightblue" stroke="white" points="290,-36 220,-36 220,0 290,0 290,-36"/>
<text text-anchor="middle" x="255" y="-12.95" font-family="Arial" font-size="14.00">set_pilot</text>
</g>
<!-- create&#45;&gt;set_pilot -->
<g id="edge3" class="edge">
<title>create&#45;&gt;set_pilot</title>
<path fill="none" stroke="black" d="M229.19,-395.56C233.44,-333.64 247.81,-123.98 253.06,-47.35"/>
<polygon fill="black" stroke="black" points="256.52,-47.96 253.72,-37.75 249.54,-47.48 256.52,-47.96"/>
</g>
<!-- update -->
<g id="node6" class="node">
<title>update</title>
<polygon fill="lightblue" stroke="white" points="351.75,-432 292.25,-432 292.25,-396 351.75,-396 351.75,-432"/>
<text text-anchor="middle" x="322" y="-408.95" font-family="Arial" font-size="14.00">update</text>
</g>
<!-- update&#45;&gt;set_pilot -->
<g id="edge4" class="edge">
<title>update&#45;&gt;set_pilot</title>
<path fill="none" stroke="black" d="M319.03,-395.56C308.51,-333.64 272.85,-123.98 259.82,-47.35"/>
<polygon fill="black" stroke="black" points="263.31,-47 258.18,-37.73 256.41,-48.17 263.31,-47"/>
</g>
<!-- context -->
<g id="node7" class="node">
<title>context</title>
<polygon fill="lightblue" stroke="white" points="449.88,-432 388.12,-432 388.12,-396 449.88,-396 449.88,-432"/>
<text text-anchor="middle" x="419" y="-408.95" font-family="Arial" font-size="14.00">context</text>
</g>
<!-- user_not_authorized -->
<g id="node8" class="node">
<title>user_not_authorized</title>
<polygon fill="lightblue" stroke="white" points="630.5,-432 485.5,-432 485.5,-396 630.5,-396 630.5,-432"/>
<text text-anchor="middle" x="558" y="-408.95" font-family="Arial" font-size="14.00">user_not_authorized</text>
</g>
</g>
</svg>
