<?xml version="1.0" encoding="UTF-8" standalone="no"?>
<!DOCTYPE svg PUBLIC "-//W3C//DTD SVG 1.1//EN"
 "http://www.w3.org/Graphics/SVG/1.1/DTD/svg11.dtd">
<!-- Generated by graphviz version 9.0.0 (20230911.1827)
 -->
<!-- Title: CallGraph Pages: 1 -->
<svg width="382pt" height="440pt"
 viewBox="0.00 0.00 382.38 440.00" xmlns="http://www.w3.org/2000/svg" xmlns:xlink="http://www.w3.org/1999/xlink">
<g id="graph0" class="graph" transform="scale(1 1) rotate(0) translate(4 436)">
<title>CallGraph</title>
<polygon fill="white" stroke="none" points="-4,4 -4,-436 378.38,-436 378.38,4 -4,4"/>
<!-- preferences -->
<g id="node1" class="node">
<title>preferences</title>
<polygon fill="lightblue" stroke="white" points="116.88,-432 23.62,-432 23.62,-396 116.88,-396 116.88,-432"/>
<text text-anchor="middle" x="70.25" y="-408.95" font-family="Arial" font-size="14.00">preferences</text>
</g>
<!-- list_index_definition -->
<g id="node2" class="node">
<title>list_index_definition</title>
<polygon fill="lightblue" stroke="white" points="140.5,-36 0,-36 0,0 140.5,0 140.5,-36"/>
<text text-anchor="middle" x="70.25" y="-12.95" font-family="Arial" font-size="14.00">list_index_definition</text>
</g>
<!-- preferences&#45;&gt;list_index_definition -->
<g id="edge1" class="edge">
<title>preferences&#45;&gt;list_index_definition</title>
<path fill="none" stroke="black" d="M70.25,-395.56C70.25,-333.64 70.25,-123.98 70.25,-47.35"/>
<polygon fill="black" stroke="black" points="73.75,-47.75 70.25,-37.75 66.75,-47.75 73.75,-47.75"/>
</g>
<!-- print -->
<g id="node3" class="node">
<title>print</title>
<polygon fill="lightblue" stroke="white" points="230.25,-432 176.25,-432 176.25,-396 230.25,-396 230.25,-432"/>
<text text-anchor="middle" x="203.25" y="-408.95" font-family="Arial" font-size="14.00">print</text>
</g>
<!-- print&#45;&gt;list_index_definition -->
<g id="edge2" class="edge">
<title>print&#45;&gt;list_index_definition</title>
<path fill="none" stroke="black" d="M197.36,-395.56C176.42,-333.52 105.4,-123.12 79.66,-46.88"/>
<polygon fill="black" stroke="black" points="83.07,-46.03 76.55,-37.67 76.43,-48.26 83.07,-46.03"/>
</g>
<!-- new -->
<g id="node4" class="node">
<title>new</title>
<polygon fill="lightblue" stroke="white" points="230.25,-36 176.25,-36 176.25,0 230.25,0 230.25,-36"/>
<text text-anchor="middle" x="203.25" y="-12.95" font-family="Arial" font-size="14.00">new</text>
</g>
<!-- print&#45;&gt;new -->
<g id="edge3" class="edge">
<title>print&#45;&gt;new</title>
<path fill="none" stroke="black" d="M203.25,-395.56C203.25,-333.64 203.25,-123.98 203.25,-47.35"/>
<polygon fill="black" stroke="black" points="206.75,-47.75 203.25,-37.75 199.75,-47.75 206.75,-47.75"/>
</g>
<!-- build_filename -->
<g id="node5" class="node">
<title>build_filename</title>
<polygon fill="lightblue" stroke="white" points="374.38,-36 266.12,-36 266.12,0 374.38,0 374.38,-36"/>
<text text-anchor="middle" x="320.25" y="-12.95" font-family="Arial" font-size="14.00">build_filename</text>
</g>
<!-- print&#45;&gt;build_filename -->
<g id="edge4" class="edge">
<title>print&#45;&gt;build_filename</title>
<path fill="none" stroke="black" d="M208.43,-395.56C226.85,-333.52 289.33,-123.12 311.97,-46.88"/>
<polygon fill="black" stroke="black" points="315.21,-48.27 314.7,-37.69 308.5,-46.28 315.21,-48.27"/>
</g>
</g>
</svg>
