<?xml version="1.0" encoding="UTF-8" standalone="no"?>
<!DOCTYPE svg PUBLIC "-//W3C//DTD SVG 1.1//EN"
 "http://www.w3.org/Graphics/SVG/1.1/DTD/svg11.dtd">
<!-- Generated by graphviz version 9.0.0 (20230911.1827)
 -->
<!-- Title: CallGraph Pages: 1 -->
<svg width="1309pt" height="44pt"
 viewBox="0.00 0.00 1308.75 44.00" xmlns="http://www.w3.org/2000/svg" xmlns:xlink="http://www.w3.org/1999/xlink">
<g id="graph0" class="graph" transform="scale(1 1) rotate(0) translate(4 40)">
<title>CallGraph</title>
<polygon fill="white" stroke="none" points="-4,4 -4,-40 1304.75,-40 1304.75,4 -4,4"/>
<!-- authorize_multiple -->
<g id="node1" class="node">
<title>authorize_multiple</title>
<polygon fill="lightblue" stroke="white" points="130,-36 0,-36 0,0 130,0 130,-36"/>
<text text-anchor="middle" x="65" y="-12.95" font-family="Arial" font-size="14.00">authorize_multiple</text>
</g>
<!-- authorize_group -->
<g id="node2" class="node">
<title>authorize_group</title>
<polygon fill="lightblue" stroke="white" points="284,-36 166,-36 166,0 284,0 284,-36"/>
<text text-anchor="middle" x="225" y="-12.95" font-family="Arial" font-size="14.00">authorize_group</text>
</g>
<!-- user_is_actor_of -->
<g id="node3" class="node">
<title>user_is_actor_of</title>
<polygon fill="lightblue" stroke="white" points="443.62,-36 320.38,-36 320.38,0 443.62,0 443.62,-36"/>
<text text-anchor="middle" x="382" y="-12.95" font-family="Arial" font-size="14.00">user_is_actor_of</text>
</g>
<!-- wf_entity_in_accept_state -->
<g id="node4" class="node">
<title>wf_entity_in_accept_state</title>
<polygon fill="lightblue" stroke="white" points="660.12,-36 479.88,-36 479.88,0 660.12,0 660.12,-36"/>
<text text-anchor="middle" x="570" y="-12.95" font-family="Arial" font-size="14.00">wf_entity_in_accept_state</text>
</g>
<!-- user_accept -->
<g id="node5" class="node">
<title>user_accept</title>
<polygon fill="lightblue" stroke="white" points="791.38,-36 696.62,-36 696.62,0 791.38,0 791.38,-36"/>
<text text-anchor="middle" x="744" y="-12.95" font-family="Arial" font-size="14.00">user_accept</text>
</g>
<!-- admin_accept_instead_of -->
<g id="node6" class="node">
<title>admin_accept_instead_of</title>
<polygon fill="lightblue" stroke="white" points="1008.12,-36 827.88,-36 827.88,0 1008.12,0 1008.12,-36"/>
<text text-anchor="middle" x="918" y="-12.95" font-family="Arial" font-size="14.00">admin_accept_instead_of</text>
</g>
<!-- create -->
<g id="node7" class="node">
<title>create</title>
<polygon fill="lightblue" stroke="white" points="1099.88,-36 1044.12,-36 1044.12,0 1099.88,0 1099.88,-36"/>
<text text-anchor="middle" x="1072" y="-12.95" font-family="Arial" font-size="14.00">create</text>
</g>
<!-- destroy -->
<g id="node8" class="node">
<title>destroy</title>
<polygon fill="lightblue" stroke="white" points="1199.62,-36 1136.38,-36 1136.38,0 1199.62,0 1199.62,-36"/>
<text text-anchor="middle" x="1168" y="-12.95" font-family="Arial" font-size="14.00">destroy</text>
</g>
<!-- wording -->
<g id="node9" class="node">
<title>wording</title>
<polygon fill="lightblue" stroke="white" points="1300.75,-36 1235.25,-36 1235.25,0 1300.75,0 1300.75,-36"/>
<text text-anchor="middle" x="1268" y="-12.95" font-family="Arial" font-size="14.00">wording</text>
</g>
</g>
</svg>
