<?xml version="1.0" encoding="UTF-8" standalone="no"?>
<!DOCTYPE svg PUBLIC "-//W3C//DTD SVG 1.1//EN"
 "http://www.w3.org/Graphics/SVG/1.1/DTD/svg11.dtd">
<!-- Generated by graphviz version 9.0.0 (20230911.1827)
 -->
<!-- Title: CallGraph Pages: 1 -->
<svg width="2558pt" height="836pt"
 viewBox="0.00 0.00 2557.88 836.00" xmlns="http://www.w3.org/2000/svg" xmlns:xlink="http://www.w3.org/1999/xlink">
<g id="graph0" class="graph" transform="scale(1 1) rotate(0) translate(4 832)">
<title>CallGraph</title>
<polygon fill="white" stroke="none" points="-4,4 -4,-832 2553.88,-832 2553.88,4 -4,4"/>
<!-- destroy -->
<g id="node1" class="node">
<title>destroy</title>
<polygon fill="lightblue" stroke="white" points="63.25,-828 0,-828 0,-792 63.25,-792 63.25,-828"/>
<text text-anchor="middle" x="31.62" y="-804.95" font-family="Arial" font-size="14.00">destroy</text>
</g>
<!-- edit -->
<g id="node2" class="node">
<title>edit</title>
<polygon fill="lightblue" stroke="white" points="153.62,-828 99.62,-828 99.62,-792 153.62,-792 153.62,-828"/>
<text text-anchor="middle" x="126.62" y="-804.95" font-family="Arial" font-size="14.00">edit</text>
</g>
<!-- edit_password -->
<g id="node3" class="node">
<title>edit_password</title>
<polygon fill="lightblue" stroke="white" points="299.12,-828 190.12,-828 190.12,-792 299.12,-792 299.12,-828"/>
<text text-anchor="middle" x="244.62" y="-804.95" font-family="Arial" font-size="14.00">edit_password</text>
</g>
<!-- update_password -->
<g id="node4" class="node">
<title>update_password</title>
<polygon fill="lightblue" stroke="white" points="464.25,-828 335,-828 335,-792 464.25,-792 464.25,-828"/>
<text text-anchor="middle" x="399.62" y="-804.95" font-family="Arial" font-size="14.00">update_password</text>
</g>
<!-- user_password_params -->
<g id="node5" class="node">
<title>user_password_params</title>
<polygon fill="lightblue" stroke="white" points="484.12,-432 315.12,-432 315.12,-396 484.12,-396 484.12,-432"/>
<text text-anchor="middle" x="399.62" y="-408.95" font-family="Arial" font-size="14.00">user_password_params</text>
</g>
<!-- update_password&#45;&gt;user_password_params -->
<g id="edge1" class="edge">
<title>update_password&#45;&gt;user_password_params</title>
<path fill="none" stroke="black" d="M399.62,-791.56C399.62,-729.64 399.62,-519.98 399.62,-443.35"/>
<polygon fill="black" stroke="black" points="403.13,-443.75 399.63,-433.75 396.13,-443.75 403.13,-443.75"/>
</g>
<!-- update -->
<g id="node6" class="node">
<title>update</title>
<polygon fill="lightblue" stroke="white" points="1333.38,-828 1273.88,-828 1273.88,-792 1333.38,-792 1333.38,-828"/>
<text text-anchor="middle" x="1303.62" y="-804.95" font-family="Arial" font-size="14.00">update</text>
</g>
<!-- can_change_pyx4_module_responsibilities -->
<g id="node7" class="node">
<title>can_change_pyx4_module_responsibilities</title>
<polygon fill="lightblue" stroke="white" points="809.5,-432 519.75,-432 519.75,-396 809.5,-396 809.5,-432"/>
<text text-anchor="middle" x="664.62" y="-408.95" font-family="Arial" font-size="14.00">can_change_pyx4_module_responsibilities</text>
</g>
<!-- update&#45;&gt;can_change_pyx4_module_responsibilities -->
<g id="edge2" class="edge">
<title>update&#45;&gt;can_change_pyx4_module_responsibilities</title>
<path fill="none" stroke="black" d="M1275.34,-791.56C1172.66,-728.25 819.47,-510.48 702.55,-438.38"/>
<polygon fill="black" stroke="black" points="704.58,-435.52 694.23,-433.25 700.9,-441.48 704.58,-435.52"/>
</g>
<!-- update_user_profile -->
<g id="node8" class="node">
<title>update_user_profile</title>
<polygon fill="lightblue" stroke="white" points="989.38,-432 845.88,-432 845.88,-396 989.38,-396 989.38,-432"/>
<text text-anchor="middle" x="917.62" y="-408.95" font-family="Arial" font-size="14.00">update_user_profile</text>
</g>
<!-- update&#45;&gt;update_user_profile -->
<g id="edge3" class="edge">
<title>update&#45;&gt;update_user_profile</title>
<path fill="none" stroke="black" d="M1286.54,-791.56C1225.01,-728.75 1014.53,-513.91 942.24,-440.12"/>
<polygon fill="black" stroke="black" points="945.07,-438.01 935.57,-433.32 940.07,-442.91 945.07,-438.01"/>
</g>
<!-- update_improver_profile -->
<g id="node9" class="node">
<title>update_improver_profile</title>
<polygon fill="lightblue" stroke="white" points="1196.25,-432 1025,-432 1025,-396 1196.25,-396 1196.25,-432"/>
<text text-anchor="middle" x="1110.62" y="-408.95" font-family="Arial" font-size="14.00">update_improver_profile</text>
</g>
<!-- update&#45;&gt;update_improver_profile -->
<g id="edge4" class="edge">
<title>update&#45;&gt;update_improver_profile</title>
<path fill="none" stroke="black" d="M1295.08,-791.56C1264.63,-729.39 1161.2,-518.26 1124.05,-442.41"/>
<polygon fill="black" stroke="black" points="1127.28,-441.04 1119.73,-433.6 1120.99,-444.12 1127.28,-441.04"/>
</g>
<!-- update_user -->
<g id="node10" class="node">
<title>update_user</title>
<polygon fill="lightblue" stroke="white" points="1402.38,-432 1306.88,-432 1306.88,-396 1402.38,-396 1402.38,-432"/>
<text text-anchor="middle" x="1354.62" y="-408.95" font-family="Arial" font-size="14.00">update_user</text>
</g>
<!-- update&#45;&gt;update_user -->
<g id="edge5" class="edge">
<title>update&#45;&gt;update_user</title>
<path fill="none" stroke="black" d="M1305.88,-791.56C1313.9,-729.64 1341.04,-519.98 1350.96,-443.35"/>
<polygon fill="black" stroke="black" points="1354.39,-444.1 1352.2,-433.74 1347.44,-443.21 1354.39,-444.1"/>
</g>
<!-- user_params -->
<g id="node11" class="node">
<title>user_params</title>
<polygon fill="lightblue" stroke="white" points="1160.25,-36 1061,-36 1061,0 1160.25,0 1160.25,-36"/>
<text text-anchor="middle" x="1110.62" y="-12.95" font-family="Arial" font-size="14.00">user_params</text>
</g>
<!-- update&#45;&gt;user_params -->
<g id="edge6" class="edge">
<title>update&#45;&gt;user_params</title>
<path fill="none" stroke="black" d="M1300.25,-791.61C1289.1,-734.62 1252.04,-548.44 1214.62,-396 1182.39,-264.67 1137.36,-109.5 1118.96,-47.08"/>
<polygon fill="black" stroke="black" points="1122.36,-46.24 1116.17,-37.65 1115.65,-48.23 1122.36,-46.24"/>
</g>
<!-- user_params_without_rights -->
<g id="node12" class="node">
<title>user_params_without_rights</title>
<polygon fill="lightblue" stroke="white" points="1632.5,-432 1438.75,-432 1438.75,-396 1632.5,-396 1632.5,-432"/>
<text text-anchor="middle" x="1535.62" y="-408.95" font-family="Arial" font-size="14.00">user_params_without_rights</text>
</g>
<!-- update&#45;&gt;user_params_without_rights -->
<g id="edge7" class="edge">
<title>update&#45;&gt;user_params_without_rights</title>
<path fill="none" stroke="black" d="M1313.89,-791.56C1350.58,-729.26 1475.33,-517.39 1519.76,-441.95"/>
<polygon fill="black" stroke="black" points="1522.65,-443.93 1524.71,-433.54 1516.62,-440.38 1522.65,-443.93"/>
</g>
<!-- add_max_users_errors -->
<g id="node13" class="node">
<title>add_max_users_errors</title>
<polygon fill="lightblue" stroke="white" points="1832.5,-432 1668.75,-432 1668.75,-396 1832.5,-396 1832.5,-432"/>
<text text-anchor="middle" x="1750.62" y="-408.95" font-family="Arial" font-size="14.00">add_max_users_errors</text>
</g>
<!-- update&#45;&gt;add_max_users_errors -->
<g id="edge8" class="edge">
<title>update&#45;&gt;add_max_users_errors</title>
<path fill="none" stroke="black" d="M1323.41,-791.56C1394.73,-728.7 1638.84,-513.53 1722.34,-439.93"/>
<polygon fill="black" stroke="black" points="1724.49,-442.7 1729.68,-433.46 1719.87,-437.45 1724.49,-442.7"/>
</g>
<!-- respond_bip_error -->
<g id="node14" class="node">
<title>respond_bip_error</title>
<polygon fill="lightblue" stroke="white" points="2002.88,-432 1868.38,-432 1868.38,-396 2002.88,-396 2002.88,-432"/>
<text text-anchor="middle" x="1935.62" y="-408.95" font-family="Arial" font-size="14.00">respond_bip_error</text>
</g>
<!-- update&#45;&gt;respond_bip_error -->
<g id="edge9" class="edge">
<title>update&#45;&gt;respond_bip_error</title>
<path fill="none" stroke="black" d="M1331.6,-791.56C1433.15,-728.25 1782.47,-510.48 1898.11,-438.38"/>
<polygon fill="black" stroke="black" points="1899.7,-441.52 1906.33,-433.26 1896,-435.58 1899.7,-441.52"/>
</g>
<!-- update_user_profile&#45;&gt;user_params -->
<g id="edge10" class="edge">
<title>update_user_profile&#45;&gt;user_params</title>
<path fill="none" stroke="black" d="M926.17,-395.56C956.62,-333.39 1060.05,-122.26 1097.2,-46.41"/>
<polygon fill="black" stroke="black" points="1100.26,-48.12 1101.52,-37.6 1093.97,-45.04 1100.26,-48.12"/>
</g>
<!-- update_improver_profile&#45;&gt;user_params -->
<g id="edge11" class="edge">
<title>update_improver_profile&#45;&gt;user_params</title>
<path fill="none" stroke="black" d="M1110.62,-395.56C1110.62,-333.64 1110.62,-123.98 1110.62,-47.35"/>
<polygon fill="black" stroke="black" points="1114.13,-47.75 1110.63,-37.75 1107.13,-47.75 1114.13,-47.75"/>
</g>
<!-- improver_responsibilities_in_params -->
<g id="node23" class="node">
<title>improver_responsibilities_in_params</title>
<polygon fill="lightblue" stroke="white" points="1478.88,-36 1230.38,-36 1230.38,0 1478.88,0 1478.88,-36"/>
<text text-anchor="middle" x="1354.62" y="-12.95" font-family="Arial" font-size="14.00">improver_responsibilities_in_params</text>
</g>
<!-- update_user&#45;&gt;improver_responsibilities_in_params -->
<g id="edge12" class="edge">
<title>update_user&#45;&gt;improver_responsibilities_in_params</title>
<path fill="none" stroke="black" d="M1354.62,-395.56C1354.62,-333.64 1354.62,-123.98 1354.62,-47.35"/>
<polygon fill="black" stroke="black" points="1358.13,-47.75 1354.63,-37.75 1351.13,-47.75 1358.13,-47.75"/>
</g>
<!-- edit_profile_type -->
<g id="node15" class="node">
<title>edit_profile_type</title>
<polygon fill="lightblue" stroke="white" points="1491.88,-828 1369.38,-828 1369.38,-792 1491.88,-792 1491.88,-828"/>
<text text-anchor="middle" x="1430.62" y="-804.95" font-family="Arial" font-size="14.00">edit_profile_type</text>
</g>
<!-- transfer_rights -->
<g id="node16" class="node">
<title>transfer_rights</title>
<polygon fill="lightblue" stroke="white" points="1635,-828 1528.25,-828 1528.25,-792 1635,-792 1635,-828"/>
<text text-anchor="middle" x="1581.62" y="-804.95" font-family="Arial" font-size="14.00">transfer_rights</text>
</g>
<!-- confirm_deactivation -->
<g id="node17" class="node">
<title>confirm_deactivation</title>
<polygon fill="lightblue" stroke="white" points="1817.88,-828 1671.38,-828 1671.38,-792 1817.88,-792 1817.88,-828"/>
<text text-anchor="middle" x="1744.62" y="-804.95" font-family="Arial" font-size="14.00">confirm_deactivation</text>
</g>
<!-- deactivate -->
<g id="node18" class="node">
<title>deactivate</title>
<polygon fill="lightblue" stroke="white" points="1934.88,-828 1854.38,-828 1854.38,-792 1934.88,-792 1934.88,-828"/>
<text text-anchor="middle" x="1894.62" y="-804.95" font-family="Arial" font-size="14.00">deactivate</text>
</g>
<!-- restore -->
<g id="node19" class="node">
<title>restore</title>
<polygon fill="lightblue" stroke="white" points="2032.12,-828 1971.12,-828 1971.12,-792 2032.12,-792 2032.12,-828"/>
<text text-anchor="middle" x="2001.62" y="-804.95" font-family="Arial" font-size="14.00">restore</text>
</g>
<!-- update_instance_ownership -->
<g id="node20" class="node">
<title>update_instance_ownership</title>
<polygon fill="lightblue" stroke="white" points="2261.12,-828 2068.12,-828 2068.12,-792 2261.12,-792 2261.12,-828"/>
<text text-anchor="middle" x="2164.62" y="-804.95" font-family="Arial" font-size="14.00">update_instance_ownership</text>
</g>
<!-- list_items_crud -->
<g id="node21" class="node">
<title>list_items_crud</title>
<polygon fill="lightblue" stroke="white" points="2409.62,-828 2297.62,-828 2297.62,-792 2409.62,-792 2409.62,-828"/>
<text text-anchor="middle" x="2353.62" y="-804.95" font-family="Arial" font-size="14.00">list_items_crud</text>
</g>
<!-- list_tabs_crud -->
<g id="node22" class="node">
<title>list_tabs_crud</title>
<polygon fill="lightblue" stroke="white" points="2549.88,-828 2445.38,-828 2445.38,-792 2549.88,-792 2549.88,-828"/>
<text text-anchor="middle" x="2497.62" y="-804.95" font-family="Arial" font-size="14.00">list_tabs_crud</text>
</g>
</g>
</svg>
