<?xml version="1.0" encoding="UTF-8" standalone="no"?>
<!DOCTYPE svg PUBLIC "-//W3C//DTD SVG 1.1//EN"
 "http://www.w3.org/Graphics/SVG/1.1/DTD/svg11.dtd">
<!-- Generated by graphviz version 9.0.0 (20230911.1827)
 -->
<!-- Title: CallGraph Pages: 1 -->
<svg width="3506pt" height="497pt"
 viewBox="0.00 0.00 3505.62 496.69" xmlns="http://www.w3.org/2000/svg" xmlns:xlink="http://www.w3.org/1999/xlink">
<g id="graph0" class="graph" transform="scale(1 1) rotate(0) translate(4 492.69)">
<title>CallGraph</title>
<polygon fill="white" stroke="none" points="-4,4 -4,-492.69 3501.62,-492.69 3501.62,4 -4,4"/>
<!-- index -->
<g id="node1" class="node">
<title>index</title>
<polygon fill="lightblue" stroke="white" points="54,-432 0,-432 0,-396 54,-396 54,-432"/>
<text text-anchor="middle" x="27" y="-408.95" font-family="Arial" font-size="14.00">index</text>
</g>
<!-- show -->
<g id="node2" class="node">
<title>show</title>
<polygon fill="lightblue" stroke="white" points="144,-432 90,-432 90,-396 144,-396 144,-432"/>
<text text-anchor="middle" x="117" y="-408.95" font-family="Arial" font-size="14.00">show</text>
</g>
<!-- absolute_url -->
<g id="node3" class="node">
<title>absolute_url</title>
<polygon fill="lightblue" stroke="white" points="273.62,-432 180.38,-432 180.38,-396 273.62,-396 273.62,-432"/>
<text text-anchor="middle" x="227" y="-408.95" font-family="Arial" font-size="14.00">absolute_url</text>
</g>
<!-- absolute_url&#45;&gt;absolute_url -->
<g id="edge1" class="edge">
<title>absolute_url&#45;&gt;absolute_url</title>
<path fill="none" stroke="black" d="M232.83,-432.41C261.61,-512.56 309.62,-506.43 309.62,-414 309.62,-325.91 266.01,-316.2 237,-384.88"/>
<polygon fill="black" stroke="black" points="233.74,-383.59 233.38,-394.18 240.27,-386.13 233.74,-383.59"/>
</g>
<!-- show_properties -->
<g id="node4" class="node">
<title>show_properties</title>
<polygon fill="lightblue" stroke="white" points="449.88,-432 328.12,-432 328.12,-396 449.88,-396 449.88,-432"/>
<text text-anchor="middle" x="389" y="-408.95" font-family="Arial" font-size="14.00">show_properties</text>
</g>
<!-- interactions -->
<g id="node5" class="node">
<title>interactions</title>
<polygon fill="lightblue" stroke="white" points="574,-432 486,-432 486,-396 574,-396 574,-432"/>
<text text-anchor="middle" x="530" y="-408.95" font-family="Arial" font-size="14.00">interactions</text>
</g>
<!-- new -->
<g id="node6" class="node">
<title>new</title>
<polygon fill="lightblue" stroke="white" points="664,-432 610,-432 610,-396 664,-396 664,-432"/>
<text text-anchor="middle" x="637" y="-408.95" font-family="Arial" font-size="14.00">new</text>
</g>
<!-- new&#45;&gt;new -->
<g id="edge2" class="edge">
<title>new&#45;&gt;new</title>
<path fill="none" stroke="black" d="M641.44,-432.41C663.39,-512.56 700,-506.43 700,-414 700,-325.91 666.74,-316.2 644.62,-384.88"/>
<polygon fill="black" stroke="black" points="641.37,-383.55 641.87,-394.14 648.08,-385.55 641.37,-383.55"/>
</g>
<!-- create -->
<g id="node7" class="node">
<title>create</title>
<polygon fill="lightblue" stroke="white" points="1119.88,-432 1064.12,-432 1064.12,-396 1119.88,-396 1119.88,-432"/>
<text text-anchor="middle" x="1092" y="-408.95" font-family="Arial" font-size="14.00">create</text>
</g>
<!-- resource_params -->
<g id="node8" class="node">
<title>resource_params</title>
<polygon fill="lightblue" stroke="white" points="981.88,-36 854.12,-36 854.12,0 981.88,0 981.88,-36"/>
<text text-anchor="middle" x="918" y="-12.95" font-family="Arial" font-size="14.00">resource_params</text>
</g>
<!-- create&#45;&gt;resource_params -->
<g id="edge3" class="edge">
<title>create&#45;&gt;resource_params</title>
<path fill="none" stroke="black" d="M1084.3,-395.56C1056.84,-333.39 963.6,-122.26 930.11,-46.41"/>
<polygon fill="black" stroke="black" points="933.47,-45.35 926.22,-37.62 927.06,-48.18 933.47,-45.35"/>
</g>
<!-- save -->
<g id="node9" class="node">
<title>save</title>
<polygon fill="lightblue" stroke="white" points="1230,-36 1176,-36 1176,0 1230,0 1230,-36"/>
<text text-anchor="middle" x="1203" y="-12.95" font-family="Arial" font-size="14.00">save</text>
</g>
<!-- create&#45;&gt;save -->
<g id="edge4" class="edge">
<title>create&#45;&gt;save</title>
<path fill="none" stroke="black" d="M1096.91,-395.56C1114.39,-333.52 1173.67,-123.12 1195.15,-46.88"/>
<polygon fill="black" stroke="black" points="1198.39,-48.27 1197.73,-37.69 1191.65,-46.37 1198.39,-48.27"/>
</g>
<!-- delete -->
<g id="node10" class="node">
<title>delete</title>
<polygon fill="lightblue" stroke="white" points="1469.88,-432 1414.12,-432 1414.12,-396 1469.88,-396 1469.88,-432"/>
<text text-anchor="middle" x="1442" y="-408.95" font-family="Arial" font-size="14.00">delete</text>
</g>
<!-- destroy -->
<g id="node11" class="node">
<title>destroy</title>
<polygon fill="lightblue" stroke="white" points="1527.62,-36 1464.38,-36 1464.38,0 1527.62,0 1527.62,-36"/>
<text text-anchor="middle" x="1496" y="-12.95" font-family="Arial" font-size="14.00">destroy</text>
</g>
<!-- delete&#45;&gt;destroy -->
<g id="edge5" class="edge">
<title>delete&#45;&gt;destroy</title>
<path fill="none" stroke="black" d="M1444.39,-395.56C1452.88,-333.64 1481.61,-123.98 1492.11,-47.35"/>
<polygon fill="black" stroke="black" points="1495.54,-48.12 1493.43,-37.74 1488.61,-47.17 1495.54,-48.12"/>
</g>
<!-- delete_one -->
<g id="node12" class="node">
<title>delete_one</title>
<polygon fill="lightblue" stroke="white" points="1594,-432 1506,-432 1506,-396 1594,-396 1594,-432"/>
<text text-anchor="middle" x="1550" y="-408.95" font-family="Arial" font-size="14.00">delete_one</text>
</g>
<!-- delete_one&#45;&gt;destroy -->
<g id="edge6" class="edge">
<title>delete_one&#45;&gt;destroy</title>
<path fill="none" stroke="black" d="M1547.61,-395.56C1539.12,-333.64 1510.39,-123.98 1499.89,-47.35"/>
<polygon fill="black" stroke="black" points="1503.39,-47.17 1498.57,-37.74 1496.46,-48.12 1503.39,-47.17"/>
</g>
<!-- update -->
<g id="node13" class="node">
<title>update</title>
<polygon fill="lightblue" stroke="white" points="777.75,-432 718.25,-432 718.25,-396 777.75,-396 777.75,-432"/>
<text text-anchor="middle" x="748" y="-408.95" font-family="Arial" font-size="14.00">update</text>
</g>
<!-- update&#45;&gt;resource_params -->
<g id="edge7" class="edge">
<title>update&#45;&gt;resource_params</title>
<path fill="none" stroke="black" d="M755.52,-395.56C782.35,-333.39 873.45,-122.26 906.17,-46.41"/>
<polygon fill="black" stroke="black" points="909.22,-48.19 909.96,-37.63 902.79,-45.42 909.22,-48.19"/>
</g>
<!-- update_tags -->
<g id="node14" class="node">
<title>update_tags</title>
<polygon fill="lightblue" stroke="white" points="1250.38,-432 1155.62,-432 1155.62,-396 1250.38,-396 1250.38,-432"/>
<text text-anchor="middle" x="1203" y="-408.95" font-family="Arial" font-size="14.00">update_tags</text>
</g>
<!-- update_tags&#45;&gt;save -->
<g id="edge8" class="edge">
<title>update_tags&#45;&gt;save</title>
<path fill="none" stroke="black" d="M1203,-395.56C1203,-333.64 1203,-123.98 1203,-47.35"/>
<polygon fill="black" stroke="black" points="1206.5,-47.75 1203,-37.75 1199.5,-47.75 1206.5,-47.75"/>
</g>
<!-- update_url -->
<g id="node15" class="node">
<title>update_url</title>
<polygon fill="lightblue" stroke="white" points="896.38,-432 813.62,-432 813.62,-396 896.38,-396 896.38,-432"/>
<text text-anchor="middle" x="855" y="-408.95" font-family="Arial" font-size="14.00">update_url</text>
</g>
<!-- update_url&#45;&gt;resource_params -->
<g id="edge9" class="edge">
<title>update_url&#45;&gt;resource_params</title>
<path fill="none" stroke="black" d="M857.79,-395.56C867.69,-333.64 901.21,-123.98 913.47,-47.35"/>
<polygon fill="black" stroke="black" points="916.88,-48.16 915,-37.73 909.97,-47.05 916.88,-48.16"/>
</g>
<!-- edit_url -->
<g id="node16" class="node">
<title>edit_url</title>
<polygon fill="lightblue" stroke="white" points="1692.25,-432 1629.75,-432 1629.75,-396 1692.25,-396 1692.25,-432"/>
<text text-anchor="middle" x="1661" y="-408.95" font-family="Arial" font-size="14.00">edit_url</text>
</g>
<!-- linkable -->
<g id="node17" class="node">
<title>linkable</title>
<polygon fill="lightblue" stroke="white" points="1791.62,-432 1728.38,-432 1728.38,-396 1791.62,-396 1791.62,-432"/>
<text text-anchor="middle" x="1760" y="-408.95" font-family="Arial" font-size="14.00">linkable</text>
</g>
<!-- update_logo -->
<g id="node18" class="node">
<title>update_logo</title>
<polygon fill="lightblue" stroke="white" points="1027.75,-432 932.25,-432 932.25,-396 1027.75,-396 1027.75,-432"/>
<text text-anchor="middle" x="980" y="-408.95" font-family="Arial" font-size="14.00">update_logo</text>
</g>
<!-- update_logo&#45;&gt;resource_params -->
<g id="edge10" class="edge">
<title>update_logo&#45;&gt;resource_params</title>
<path fill="none" stroke="black" d="M977.26,-395.56C967.51,-333.64 934.52,-123.98 922.46,-47.35"/>
<polygon fill="black" stroke="black" points="925.96,-47.07 920.95,-37.73 919.04,-48.15 925.96,-47.07"/>
</g>
<!-- serve_logo -->
<g id="node19" class="node">
<title>serve_logo</title>
<polygon fill="lightblue" stroke="white" points="1914.62,-432 1827.38,-432 1827.38,-396 1914.62,-396 1914.62,-432"/>
<text text-anchor="middle" x="1871" y="-408.95" font-family="Arial" font-size="14.00">serve_logo</text>
</g>
<!-- crop_logo -->
<g id="node20" class="node">
<title>crop_logo</title>
<polygon fill="lightblue" stroke="white" points="2031.25,-432 1950.75,-432 1950.75,-396 2031.25,-396 2031.25,-432"/>
<text text-anchor="middle" x="1991" y="-408.95" font-family="Arial" font-size="14.00">crop_logo</text>
</g>
<!-- confirm_delete_logo -->
<g id="node21" class="node">
<title>confirm_delete_logo</title>
<polygon fill="lightblue" stroke="white" points="2214.62,-432 2067.38,-432 2067.38,-396 2214.62,-396 2214.62,-432"/>
<text text-anchor="middle" x="2141" y="-408.95" font-family="Arial" font-size="14.00">confirm_delete_logo</text>
</g>
<!-- delete_logo -->
<g id="node22" class="node">
<title>delete_logo</title>
<polygon fill="lightblue" stroke="white" points="1377.88,-432 1286.12,-432 1286.12,-396 1377.88,-396 1377.88,-432"/>
<text text-anchor="middle" x="1332" y="-408.95" font-family="Arial" font-size="14.00">delete_logo</text>
</g>
<!-- delete_logo&#45;&gt;save -->
<g id="edge11" class="edge">
<title>delete_logo&#45;&gt;save</title>
<path fill="none" stroke="black" d="M1326.29,-395.56C1305.98,-333.52 1237.09,-123.12 1212.13,-46.88"/>
<polygon fill="black" stroke="black" points="1215.55,-46.09 1209.11,-37.68 1208.9,-48.27 1215.55,-46.09"/>
</g>
<!-- update_crop_logo -->
<g id="node23" class="node">
<title>update_crop_logo</title>
<polygon fill="lightblue" stroke="white" points="2383.12,-432 2250.88,-432 2250.88,-396 2383.12,-396 2383.12,-432"/>
<text text-anchor="middle" x="2317" y="-408.95" font-family="Arial" font-size="14.00">update_crop_logo</text>
</g>
<!-- confirm_deactivate_one -->
<g id="node24" class="node">
<title>confirm_deactivate_one</title>
<polygon fill="lightblue" stroke="white" points="2587.12,-432 2418.88,-432 2418.88,-396 2587.12,-396 2587.12,-432"/>
<text text-anchor="middle" x="2503" y="-408.95" font-family="Arial" font-size="14.00">confirm_deactivate_one</text>
</g>
<!-- deactivate_one -->
<g id="node25" class="node">
<title>deactivate_one</title>
<polygon fill="lightblue" stroke="white" points="2736.38,-432 2623.62,-432 2623.62,-396 2736.38,-396 2736.38,-432"/>
<text text-anchor="middle" x="2680" y="-408.95" font-family="Arial" font-size="14.00">deactivate_one</text>
</g>
<!-- confirm_deactivate -->
<g id="node26" class="node">
<title>confirm_deactivate</title>
<polygon fill="lightblue" stroke="white" points="2908,-432 2772,-432 2772,-396 2908,-396 2908,-432"/>
<text text-anchor="middle" x="2840" y="-408.95" font-family="Arial" font-size="14.00">confirm_deactivate</text>
</g>
<!-- deactivate -->
<g id="node27" class="node">
<title>deactivate</title>
<polygon fill="lightblue" stroke="white" points="3024.25,-432 2943.75,-432 2943.75,-396 3024.25,-396 3024.25,-432"/>
<text text-anchor="middle" x="2984" y="-408.95" font-family="Arial" font-size="14.00">deactivate</text>
</g>
<!-- reactivate -->
<g id="node28" class="node">
<title>reactivate</title>
<polygon fill="lightblue" stroke="white" points="3137.38,-432 3060.62,-432 3060.62,-396 3137.38,-396 3137.38,-432"/>
<text text-anchor="middle" x="3099" y="-408.95" font-family="Arial" font-size="14.00">reactivate</text>
</g>
<!-- reactivate_resource -->
<g id="node29" class="node">
<title>reactivate_resource</title>
<polygon fill="lightblue" stroke="white" points="3169.62,-36 3028.38,-36 3028.38,0 3169.62,0 3169.62,-36"/>
<text text-anchor="middle" x="3099" y="-12.95" font-family="Arial" font-size="14.00">reactivate_resource</text>
</g>
<!-- reactivate&#45;&gt;reactivate_resource -->
<g id="edge12" class="edge">
<title>reactivate&#45;&gt;reactivate_resource</title>
<path fill="none" stroke="black" d="M3099,-395.56C3099,-333.64 3099,-123.98 3099,-47.35"/>
<polygon fill="black" stroke="black" points="3102.5,-47.75 3099,-37.75 3095.5,-47.75 3102.5,-47.75"/>
</g>
<!-- respond_to_js -->
<g id="node30" class="node">
<title>respond_to_js</title>
<polygon fill="lightblue" stroke="white" points="3292.75,-432 3185.25,-432 3185.25,-396 3292.75,-396 3292.75,-432"/>
<text text-anchor="middle" x="3239" y="-408.95" font-family="Arial" font-size="14.00">respond_to_js</text>
</g>
<!-- list_index_definition -->
<g id="node31" class="node">
<title>list_index_definition</title>
<polygon fill="lightblue" stroke="white" points="3492.25,-432 3351.75,-432 3351.75,-396 3492.25,-396 3492.25,-432"/>
<text text-anchor="middle" x="3422" y="-408.95" font-family="Arial" font-size="14.00">list_index_definition</text>
</g>
<!-- power_user_tabs -->
<g id="node32" class="node">
<title>power_user_tabs</title>
<polygon fill="lightblue" stroke="white" points="3332.12,-36 3205.88,-36 3205.88,0 3332.12,0 3332.12,-36"/>
<text text-anchor="middle" x="3269" y="-12.95" font-family="Arial" font-size="14.00">power_user_tabs</text>
</g>
<!-- list_index_definition&#45;&gt;power_user_tabs -->
<g id="edge13" class="edge">
<title>list_index_definition&#45;&gt;power_user_tabs</title>
<path fill="none" stroke="black" d="M3415.23,-395.56C3391.13,-333.52 3309.43,-123.12 3279.83,-46.88"/>
<polygon fill="black" stroke="black" points="3283.12,-45.7 3276.24,-37.65 3276.6,-48.24 3283.12,-45.7"/>
</g>
<!-- simple_user_tabs -->
<g id="node33" class="node">
<title>simple_user_tabs</title>
<polygon fill="lightblue" stroke="white" points="3497.62,-36 3368.38,-36 3368.38,0 3497.62,0 3497.62,-36"/>
<text text-anchor="middle" x="3433" y="-12.95" font-family="Arial" font-size="14.00">simple_user_tabs</text>
</g>
<!-- list_index_definition&#45;&gt;simple_user_tabs -->
<g id="edge14" class="edge">
<title>list_index_definition&#45;&gt;simple_user_tabs</title>
<path fill="none" stroke="black" d="M3422.49,-395.56C3424.22,-333.64 3430.07,-123.98 3432.21,-47.35"/>
<polygon fill="black" stroke="black" points="3435.7,-47.84 3432.48,-37.75 3428.7,-47.65 3435.7,-47.84"/>
</g>
</g>
</svg>
