<?xml version="1.0" encoding="UTF-8" standalone="no"?>
<!DOCTYPE svg PUBLIC "-//W3C//DTD SVG 1.1//EN"
 "http://www.w3.org/Graphics/SVG/1.1/DTD/svg11.dtd">
<!-- Generated by graphviz version 9.0.0 (20230911.1827)
 -->
<!-- Title: CallGraph Pages: 1 -->
<svg width="2549pt" height="836pt"
 viewBox="0.00 0.00 2548.75 836.00" xmlns="http://www.w3.org/2000/svg" xmlns:xlink="http://www.w3.org/1999/xlink">
<g id="graph0" class="graph" transform="scale(1 1) rotate(0) translate(4 832)">
<title>CallGraph</title>
<polygon fill="white" stroke="none" points="-4,4 -4,-832 2544.75,-832 2544.75,4 -4,4"/>
<!-- index -->
<g id="node1" class="node">
<title>index</title>
<polygon fill="lightblue" stroke="white" points="90.12,-828 36.12,-828 36.12,-792 90.12,-792 90.12,-828"/>
<text text-anchor="middle" x="63.12" y="-804.95" font-family="Arial" font-size="14.00">index</text>
</g>
<!-- export_file_name -->
<g id="node2" class="node">
<title>export_file_name</title>
<polygon fill="lightblue" stroke="white" points="126.25,-432 0,-432 0,-396 126.25,-396 126.25,-432"/>
<text text-anchor="middle" x="63.12" y="-408.95" font-family="Arial" font-size="14.00">export_file_name</text>
</g>
<!-- index&#45;&gt;export_file_name -->
<g id="edge1" class="edge">
<title>index&#45;&gt;export_file_name</title>
<path fill="none" stroke="black" d="M63.12,-791.56C63.12,-729.64 63.12,-519.98 63.12,-443.35"/>
<polygon fill="black" stroke="black" points="66.63,-443.75 63.13,-433.75 59.63,-443.75 66.63,-443.75"/>
</g>
<!-- new -->
<g id="node3" class="node">
<title>new</title>
<polygon fill="lightblue" stroke="white" points="216.12,-432 162.12,-432 162.12,-396 216.12,-396 216.12,-432"/>
<text text-anchor="middle" x="189.12" y="-408.95" font-family="Arial" font-size="14.00">new</text>
</g>
<!-- new&#45;&gt;new -->
<g id="edge2" class="edge">
<title>new&#45;&gt;new</title>
<path fill="none" stroke="black" d="M193.57,-432.41C215.52,-512.56 252.12,-506.43 252.12,-414 252.12,-325.91 218.87,-316.2 196.75,-384.88"/>
<polygon fill="black" stroke="black" points="193.49,-383.55 194,-394.14 200.2,-385.55 193.49,-383.55"/>
</g>
<!-- create -->
<g id="node4" class="node">
<title>create</title>
<polygon fill="lightblue" stroke="white" points="438,-828 382.25,-828 382.25,-792 438,-792 438,-828"/>
<text text-anchor="middle" x="410.12" y="-804.95" font-family="Arial" font-size="14.00">create</text>
</g>
<!-- role_params -->
<g id="node5" class="node">
<title>role_params</title>
<polygon fill="lightblue" stroke="white" points="365.88,-432 270.38,-432 270.38,-396 365.88,-396 365.88,-432"/>
<text text-anchor="middle" x="318.12" y="-408.95" font-family="Arial" font-size="14.00">role_params</text>
</g>
<!-- create&#45;&gt;role_params -->
<g id="edge3" class="edge">
<title>create&#45;&gt;role_params</title>
<path fill="none" stroke="black" d="M406.05,-791.56C391.6,-729.64 342.64,-519.98 324.74,-443.35"/>
<polygon fill="black" stroke="black" points="328.18,-442.65 322.49,-433.71 321.36,-444.24 328.18,-442.65"/>
</g>
<!-- save -->
<g id="node6" class="node">
<title>save</title>
<polygon fill="lightblue" stroke="white" points="502.12,-432 448.12,-432 448.12,-396 502.12,-396 502.12,-432"/>
<text text-anchor="middle" x="475.12" y="-408.95" font-family="Arial" font-size="14.00">save</text>
</g>
<!-- create&#45;&gt;save -->
<g id="edge4" class="edge">
<title>create&#45;&gt;save</title>
<path fill="none" stroke="black" d="M413,-791.56C423.22,-729.64 457.81,-519.98 470.45,-443.35"/>
<polygon fill="black" stroke="black" points="473.86,-444.17 472.04,-433.73 466.95,-443.03 473.86,-444.17"/>
</g>
<!-- show_properties -->
<g id="node7" class="node">
<title>show_properties</title>
<polygon fill="lightblue" stroke="white" points="660,-432 538.25,-432 538.25,-396 660,-396 660,-432"/>
<text text-anchor="middle" x="599.12" y="-408.95" font-family="Arial" font-size="14.00">show_properties</text>
</g>
<!-- scoped_graphs -->
<g id="node8" class="node">
<title>scoped_graphs</title>
<polygon fill="lightblue" stroke="white" points="751,-36 635.25,-36 635.25,0 751,0 751,-36"/>
<text text-anchor="middle" x="693.12" y="-12.95" font-family="Arial" font-size="14.00">scoped_graphs</text>
</g>
<!-- show_properties&#45;&gt;scoped_graphs -->
<g id="edge5" class="edge">
<title>show_properties&#45;&gt;scoped_graphs</title>
<path fill="none" stroke="black" d="M603.29,-395.56C618.06,-333.64 668.08,-123.98 686.36,-47.35"/>
<polygon fill="black" stroke="black" points="689.75,-48.25 688.66,-37.71 682.94,-46.62 689.75,-48.25"/>
</g>
<!-- show -->
<g id="node9" class="node">
<title>show</title>
<polygon fill="lightblue" stroke="white" points="769.12,-828 715.12,-828 715.12,-792 769.12,-792 769.12,-828"/>
<text text-anchor="middle" x="742.12" y="-804.95" font-family="Arial" font-size="14.00">show</text>
</g>
<!-- build_role_and_properties -->
<g id="node10" class="node">
<title>build_role_and_properties</title>
<polygon fill="lightblue" stroke="white" points="878.38,-432 695.88,-432 695.88,-396 878.38,-396 878.38,-432"/>
<text text-anchor="middle" x="787.12" y="-408.95" font-family="Arial" font-size="14.00">build_role_and_properties</text>
</g>
<!-- show&#45;&gt;build_role_and_properties -->
<g id="edge6" class="edge">
<title>show&#45;&gt;build_role_and_properties</title>
<path fill="none" stroke="black" d="M744.12,-791.56C751.19,-729.64 775.13,-519.98 783.89,-443.35"/>
<polygon fill="black" stroke="black" points="787.33,-444.07 784.98,-433.74 780.37,-443.28 787.33,-444.07"/>
</g>
<!-- build_role_and_properties&#45;&gt;scoped_graphs -->
<g id="edge15" class="edge">
<title>build_role_and_properties&#45;&gt;scoped_graphs</title>
<path fill="none" stroke="black" d="M782.96,-395.56C768.19,-333.64 718.17,-123.98 699.89,-47.35"/>
<polygon fill="black" stroke="black" points="703.31,-46.62 697.59,-37.71 696.5,-48.25 703.31,-46.62"/>
</g>
<!-- edit -->
<g id="node11" class="node">
<title>edit</title>
<polygon fill="lightblue" stroke="white" points="949.12,-828 895.12,-828 895.12,-792 949.12,-792 949.12,-828"/>
<text text-anchor="middle" x="922.12" y="-804.95" font-family="Arial" font-size="14.00">edit</text>
</g>
<!-- update -->
<g id="node12" class="node">
<title>update</title>
<polygon fill="lightblue" stroke="white" points="345.88,-828 286.38,-828 286.38,-792 345.88,-792 345.88,-828"/>
<text text-anchor="middle" x="316.12" y="-804.95" font-family="Arial" font-size="14.00">update</text>
</g>
<!-- update&#45;&gt;role_params -->
<g id="edge7" class="edge">
<title>update&#45;&gt;role_params</title>
<path fill="none" stroke="black" d="M316.21,-791.56C316.53,-729.64 317.59,-519.98 317.98,-443.35"/>
<polygon fill="black" stroke="black" points="321.48,-443.77 318.03,-433.75 314.48,-443.73 321.48,-443.77"/>
</g>
<!-- update_tags -->
<g id="node13" class="node">
<title>update_tags</title>
<polygon fill="lightblue" stroke="white" points="568.5,-828 473.75,-828 473.75,-792 568.5,-792 568.5,-828"/>
<text text-anchor="middle" x="521.12" y="-804.95" font-family="Arial" font-size="14.00">update_tags</text>
</g>
<!-- update_tags&#45;&gt;save -->
<g id="edge8" class="edge">
<title>update_tags&#45;&gt;save</title>
<path fill="none" stroke="black" d="M519.09,-791.56C511.86,-729.64 487.38,-519.98 478.43,-443.35"/>
<polygon fill="black" stroke="black" points="481.95,-443.27 477.31,-433.74 475,-444.08 481.95,-443.27"/>
</g>
<!-- linkable -->
<g id="node14" class="node">
<title>linkable</title>
<polygon fill="lightblue" stroke="white" points="1048.75,-828 985.5,-828 985.5,-792 1048.75,-792 1048.75,-828"/>
<text text-anchor="middle" x="1017.12" y="-804.95" font-family="Arial" font-size="14.00">linkable</text>
</g>
<!-- delete_one -->
<g id="node15" class="node">
<title>delete_one</title>
<polygon fill="lightblue" stroke="white" points="1173.12,-828 1085.12,-828 1085.12,-792 1173.12,-792 1173.12,-828"/>
<text text-anchor="middle" x="1129.12" y="-804.95" font-family="Arial" font-size="14.00">delete_one</text>
</g>
<!-- destroy -->
<g id="node16" class="node">
<title>destroy</title>
<polygon fill="lightblue" stroke="white" points="1214.75,-432 1151.5,-432 1151.5,-396 1214.75,-396 1214.75,-432"/>
<text text-anchor="middle" x="1183.12" y="-408.95" font-family="Arial" font-size="14.00">destroy</text>
</g>
<!-- delete_one&#45;&gt;destroy -->
<g id="edge9" class="edge">
<title>delete_one&#45;&gt;destroy</title>
<path fill="none" stroke="black" d="M1131.51,-791.56C1140,-729.64 1168.74,-519.98 1179.24,-443.35"/>
<polygon fill="black" stroke="black" points="1182.67,-444.12 1180.56,-433.74 1175.73,-443.17 1182.67,-444.12"/>
</g>
<!-- delete -->
<g id="node17" class="node">
<title>delete</title>
<polygon fill="lightblue" stroke="white" points="1265,-828 1209.25,-828 1209.25,-792 1265,-792 1265,-828"/>
<text text-anchor="middle" x="1237.12" y="-804.95" font-family="Arial" font-size="14.00">delete</text>
</g>
<!-- delete&#45;&gt;destroy -->
<g id="edge10" class="edge">
<title>delete&#45;&gt;destroy</title>
<path fill="none" stroke="black" d="M1234.74,-791.56C1226.25,-729.64 1197.51,-519.98 1187.01,-443.35"/>
<polygon fill="black" stroke="black" points="1190.52,-443.17 1185.69,-433.74 1183.58,-444.12 1190.52,-443.17"/>
</g>
<!-- print -->
<g id="node18" class="node">
<title>print</title>
<polygon fill="lightblue" stroke="white" points="859.12,-828 805.12,-828 805.12,-792 859.12,-792 859.12,-828"/>
<text text-anchor="middle" x="832.12" y="-804.95" font-family="Arial" font-size="14.00">print</text>
</g>
<!-- print&#45;&gt;build_role_and_properties -->
<g id="edge11" class="edge">
<title>print&#45;&gt;build_role_and_properties</title>
<path fill="none" stroke="black" d="M830.13,-791.56C823.06,-729.64 799.12,-519.98 790.36,-443.35"/>
<polygon fill="black" stroke="black" points="793.88,-443.28 789.27,-433.74 786.92,-444.07 793.88,-443.28"/>
</g>
<!-- confirm_deactivate_one -->
<g id="node19" class="node">
<title>confirm_deactivate_one</title>
<polygon fill="lightblue" stroke="white" points="1469.25,-828 1301,-828 1301,-792 1469.25,-792 1469.25,-828"/>
<text text-anchor="middle" x="1385.12" y="-804.95" font-family="Arial" font-size="14.00">confirm_deactivate_one</text>
</g>
<!-- reactivate_one -->
<g id="node20" class="node">
<title>reactivate_one</title>
<polygon fill="lightblue" stroke="white" points="1614.62,-828 1505.62,-828 1505.62,-792 1614.62,-792 1614.62,-828"/>
<text text-anchor="middle" x="1560.12" y="-804.95" font-family="Arial" font-size="14.00">reactivate_one</text>
</g>
<!-- reactivate_role -->
<g id="node21" class="node">
<title>reactivate_role</title>
<polygon fill="lightblue" stroke="white" points="1678.62,-432 1569.62,-432 1569.62,-396 1678.62,-396 1678.62,-432"/>
<text text-anchor="middle" x="1624.12" y="-408.95" font-family="Arial" font-size="14.00">reactivate_role</text>
</g>
<!-- reactivate_one&#45;&gt;reactivate_role -->
<g id="edge12" class="edge">
<title>reactivate_one&#45;&gt;reactivate_role</title>
<path fill="none" stroke="black" d="M1562.96,-791.56C1573.02,-729.64 1607.07,-519.98 1619.52,-443.35"/>
<polygon fill="black" stroke="black" points="1622.93,-444.16 1621.08,-433.73 1616.02,-443.04 1622.93,-444.16"/>
</g>
<!-- reactivate -->
<g id="node22" class="node">
<title>reactivate</title>
<polygon fill="lightblue" stroke="white" points="1727.5,-828 1650.75,-828 1650.75,-792 1727.5,-792 1727.5,-828"/>
<text text-anchor="middle" x="1689.12" y="-804.95" font-family="Arial" font-size="14.00">reactivate</text>
</g>
<!-- reactivate&#45;&gt;reactivate_role -->
<g id="edge13" class="edge">
<title>reactivate&#45;&gt;reactivate_role</title>
<path fill="none" stroke="black" d="M1686.25,-791.56C1676.03,-729.64 1641.44,-519.98 1628.8,-443.35"/>
<polygon fill="black" stroke="black" points="1632.3,-443.03 1627.21,-433.73 1625.39,-444.17 1632.3,-443.03"/>
</g>
<!-- deactivate_one -->
<g id="node23" class="node">
<title>deactivate_one</title>
<polygon fill="lightblue" stroke="white" points="1876.5,-828 1763.75,-828 1763.75,-792 1876.5,-792 1876.5,-828"/>
<text text-anchor="middle" x="1820.12" y="-804.95" font-family="Arial" font-size="14.00">deactivate_one</text>
</g>
<!-- confirm_deactivate -->
<g id="node24" class="node">
<title>confirm_deactivate</title>
<polygon fill="lightblue" stroke="white" points="2048.12,-828 1912.12,-828 1912.12,-792 2048.12,-792 2048.12,-828"/>
<text text-anchor="middle" x="1980.12" y="-804.95" font-family="Arial" font-size="14.00">confirm_deactivate</text>
</g>
<!-- deactivate -->
<g id="node25" class="node">
<title>deactivate</title>
<polygon fill="lightblue" stroke="white" points="2164.38,-828 2083.88,-828 2083.88,-792 2164.38,-792 2164.38,-828"/>
<text text-anchor="middle" x="2124.12" y="-804.95" font-family="Arial" font-size="14.00">deactivate</text>
</g>
<!-- interactions -->
<g id="node26" class="node">
<title>interactions</title>
<polygon fill="lightblue" stroke="white" points="2288.12,-828 2200.12,-828 2200.12,-792 2288.12,-792 2288.12,-828"/>
<text text-anchor="middle" x="2244.12" y="-804.95" font-family="Arial" font-size="14.00">interactions</text>
</g>
<!-- pdf_from_string -->
<g id="node27" class="node">
<title>pdf_from_string</title>
<polygon fill="lightblue" stroke="white" points="247.75,-828 130.5,-828 130.5,-792 247.75,-792 247.75,-828"/>
<text text-anchor="middle" x="189.12" y="-804.95" font-family="Arial" font-size="14.00">pdf_from_string</text>
</g>
<!-- pdf_from_string&#45;&gt;new -->
<g id="edge14" class="edge">
<title>pdf_from_string&#45;&gt;new</title>
<path fill="none" stroke="black" d="M189.12,-791.56C189.12,-729.64 189.12,-519.98 189.12,-443.35"/>
<polygon fill="black" stroke="black" points="192.63,-443.75 189.13,-433.75 185.63,-443.75 192.63,-443.75"/>
</g>
<!-- list_index_definition -->
<g id="node28" class="node">
<title>list_index_definition</title>
<polygon fill="lightblue" stroke="white" points="2464.38,-828 2323.88,-828 2323.88,-792 2464.38,-792 2464.38,-828"/>
<text text-anchor="middle" x="2394.12" y="-804.95" font-family="Arial" font-size="14.00">list_index_definition</text>
</g>
<!-- power_user_tabs -->
<g id="node29" class="node">
<title>power_user_tabs</title>
<polygon fill="lightblue" stroke="white" points="2375.25,-432 2249,-432 2249,-396 2375.25,-396 2375.25,-432"/>
<text text-anchor="middle" x="2312.12" y="-408.95" font-family="Arial" font-size="14.00">power_user_tabs</text>
</g>
<!-- list_index_definition&#45;&gt;power_user_tabs -->
<g id="edge16" class="edge">
<title>list_index_definition&#45;&gt;power_user_tabs</title>
<path fill="none" stroke="black" d="M2390.5,-791.56C2377.61,-729.64 2333.97,-519.98 2318.03,-443.35"/>
<polygon fill="black" stroke="black" points="2321.48,-442.8 2316.02,-433.72 2314.63,-444.22 2321.48,-442.8"/>
</g>
<!-- simple_user_tabs -->
<g id="node30" class="node">
<title>simple_user_tabs</title>
<polygon fill="lightblue" stroke="white" points="2540.75,-432 2411.5,-432 2411.5,-396 2540.75,-396 2540.75,-432"/>
<text text-anchor="middle" x="2476.12" y="-408.95" font-family="Arial" font-size="14.00">simple_user_tabs</text>
</g>
<!-- list_index_definition&#45;&gt;simple_user_tabs -->
<g id="edge17" class="edge">
<title>list_index_definition&#45;&gt;simple_user_tabs</title>
<path fill="none" stroke="black" d="M2397.75,-791.56C2410.64,-729.64 2454.28,-519.98 2470.22,-443.35"/>
<polygon fill="black" stroke="black" points="2473.62,-444.22 2472.23,-433.72 2466.77,-442.8 2473.62,-444.22"/>
</g>
</g>
</svg>
