<?xml version="1.0" encoding="UTF-8" standalone="no"?>
<!DOCTYPE svg PUBLIC "-//W3C//DTD SVG 1.1//EN"
 "http://www.w3.org/Graphics/SVG/1.1/DTD/svg11.dtd">
<!-- Generated by graphviz version 9.0.0 (20230911.1827)
 -->
<!-- Title: CallGraph Pages: 1 -->
<svg width="3777pt" height="2816pt"
 viewBox="0.00 0.00 3777.38 2816.00" xmlns="http://www.w3.org/2000/svg" xmlns:xlink="http://www.w3.org/1999/xlink">
<g id="graph0" class="graph" transform="scale(1 1) rotate(0) translate(4 2812)">
<title>CallGraph</title>
<polygon fill="white" stroke="none" points="-4,4 -4,-2812 3773.38,-2812 3773.38,4 -4,4"/>
<!-- ActorsController -->
<g id="node1" class="node">
<title>ActorsController</title>
<polygon fill="lightblue" stroke="white" points="2009.12,-1224 1890.38,-1224 1890.38,-1188 2009.12,-1188 2009.12,-1224"/>
<text text-anchor="middle" x="1949.75" y="-1200.95" font-family="Arial" font-size="14.00">ActorsController</text>
</g>
<!-- ApplicationHelper -->
<g id="node2" class="node">
<title>ApplicationHelper</title>
<polygon fill="lightblue" stroke="white" points="1387.62,-828 1259.88,-828 1259.88,-792 1387.62,-792 1387.62,-828"/>
<text text-anchor="middle" x="1323.75" y="-804.95" font-family="Arial" font-size="14.00">ApplicationHelper</text>
</g>
<!-- ActorsController&#45;&gt;ApplicationHelper -->
<g id="edge1" class="edge">
<title>ActorsController&#45;&gt;ApplicationHelper</title>
<path fill="none" stroke="black" d="M1922.04,-1187.56C1821.45,-1124.25 1475.45,-906.48 1360.9,-834.38"/>
<polygon fill="black" stroke="black" points="1363.1,-831.63 1352.77,-829.27 1359.37,-837.55 1363.1,-831.63"/>
</g>
<!-- SearchController -->
<g id="node11" class="node">
<title>SearchController</title>
<polygon fill="lightblue" stroke="white" points="388,-432 265.5,-432 265.5,-396 388,-396 388,-432"/>
<text text-anchor="middle" x="326.75" y="-408.95" font-family="Arial" font-size="14.00">SearchController</text>
</g>
<!-- ApplicationHelper&#45;&gt;SearchController -->
<g id="edge54" class="edge">
<title>ApplicationHelper&#45;&gt;SearchController</title>
<path fill="none" stroke="black" d="M1279.62,-791.56C1118.13,-727.74 559.46,-506.97 381.59,-436.67"/>
<polygon fill="black" stroke="black" points="382.92,-433.44 372.34,-433.02 380.35,-439.95 382.92,-433.44"/>
</g>
<!-- ExternalUsersService -->
<g id="node12" class="node">
<title>ExternalUsersService</title>
<polygon fill="lightblue" stroke="white" points="1881,-432 1728.5,-432 1728.5,-396 1881,-396 1881,-432"/>
<text text-anchor="middle" x="1804.75" y="-408.95" font-family="Arial" font-size="14.00">ExternalUsersService</text>
</g>
<!-- ApplicationHelper&#45;&gt;ExternalUsersService -->
<g id="edge52" class="edge">
<title>ApplicationHelper&#45;&gt;ExternalUsersService</title>
<path fill="none" stroke="black" d="M1345.04,-791.56C1421.86,-728.63 1684.99,-513.1 1774.59,-439.7"/>
<polygon fill="black" stroke="black" points="1776.75,-442.46 1782.26,-433.42 1772.31,-437.05 1776.75,-442.46"/>
</g>
<!-- DirectoriesHelper -->
<g id="node39" class="node">
<title>DirectoriesHelper</title>
<polygon fill="lightblue" stroke="white" points="1387.25,-432 1260.25,-432 1260.25,-396 1387.25,-396 1387.25,-432"/>
<text text-anchor="middle" x="1323.75" y="-408.95" font-family="Arial" font-size="14.00">DirectoriesHelper</text>
</g>
<!-- ApplicationHelper&#45;&gt;DirectoriesHelper -->
<g id="edge53" class="edge">
<title>ApplicationHelper&#45;&gt;DirectoriesHelper</title>
<path fill="none" stroke="black" d="M1317.76,-791.56C1308.24,-729.64 1307.77,-519.98 1316.34,-443.35"/>
<polygon fill="black" stroke="black" points="1319.77,-444.11 1317.6,-433.74 1312.83,-443.2 1319.77,-444.11"/>
</g>
<!-- ActsController -->
<g id="node3" class="node">
<title>ActsController</title>
<polygon fill="lightblue" stroke="white" points="3045.75,-1620 2939.75,-1620 2939.75,-1584 3045.75,-1584 3045.75,-1620"/>
<text text-anchor="middle" x="2992.75" y="-1596.95" font-family="Arial" font-size="14.00">ActsController</text>
</g>
<!-- NotifierService -->
<g id="node4" class="node">
<title>NotifierService</title>
<polygon fill="lightblue" stroke="white" points="3438.25,-1224 3329.25,-1224 3329.25,-1188 3438.25,-1188 3438.25,-1224"/>
<text text-anchor="middle" x="3383.75" y="-1200.95" font-family="Arial" font-size="14.00">NotifierService</text>
</g>
<!-- ActsController&#45;&gt;NotifierService -->
<g id="edge2" class="edge">
<title>ActsController&#45;&gt;NotifierService</title>
<path fill="none" stroke="black" d="M3010.06,-1583.56C3072.39,-1520.75 3285.59,-1305.91 3358.82,-1232.12"/>
<polygon fill="black" stroke="black" points="3361.02,-1234.87 3365.58,-1225.31 3356.05,-1229.94 3361.02,-1234.87"/>
</g>
<!-- AuditElementsController -->
<g id="node5" class="node">
<title>AuditElementsController</title>
<polygon fill="lightblue" stroke="white" points="1196.62,-2808 1026.88,-2808 1026.88,-2772 1196.62,-2772 1196.62,-2808"/>
<text text-anchor="middle" x="1111.75" y="-2784.95" font-family="Arial" font-size="14.00">AuditElementsController</text>
</g>
<!-- GraphsController -->
<g id="node6" class="node">
<title>GraphsController</title>
<polygon fill="lightblue" stroke="white" points="1173.75,-2412 1049.75,-2412 1049.75,-2376 1173.75,-2376 1173.75,-2412"/>
<text text-anchor="middle" x="1111.75" y="-2388.95" font-family="Arial" font-size="14.00">GraphsController</text>
</g>
<!-- AuditElementsController&#45;&gt;GraphsController -->
<g id="edge3" class="edge">
<title>AuditElementsController&#45;&gt;GraphsController</title>
<path fill="none" stroke="black" d="M1111.75,-2771.56C1111.75,-2709.64 1111.75,-2499.98 1111.75,-2423.35"/>
<polygon fill="black" stroke="black" points="1115.25,-2423.75 1111.75,-2413.75 1108.25,-2423.75 1115.25,-2423.75"/>
</g>
<!-- GraphsController&#45;&gt;ApplicationHelper -->
<g id="edge21" class="edge">
<title>GraphsController&#45;&gt;ApplicationHelper</title>
<path fill="none" stroke="black" d="M1110.96,-2375.76C1106.31,-2266.9 1086.23,-1663.97 1185.75,-1188 1214.15,-1052.16 1281.85,-899.57 1310.54,-838.46"/>
<polygon fill="black" stroke="black" points="1313.66,-840.04 1314.78,-829.5 1307.34,-837.04 1313.66,-840.04"/>
</g>
<!-- DocumentsController -->
<g id="node10" class="node">
<title>DocumentsController</title>
<polygon fill="lightblue" stroke="white" points="789.88,-1224 639.62,-1224 639.62,-1188 789.88,-1188 789.88,-1224"/>
<text text-anchor="middle" x="714.75" y="-1200.95" font-family="Arial" font-size="14.00">DocumentsController</text>
</g>
<!-- GraphsController&#45;&gt;DocumentsController -->
<g id="edge20" class="edge">
<title>GraphsController&#45;&gt;DocumentsController</title>
<path fill="none" stroke="black" d="M1105.98,-2375.78C1061.99,-2244.34 779.53,-1400.53 724.16,-1235.11"/>
<polygon fill="black" stroke="black" points="727.55,-1234.2 721.05,-1225.83 720.91,-1236.42 727.55,-1234.2"/>
</g>
<!-- GraphsController&#45;&gt;SearchController -->
<g id="edge19" class="edge">
<title>GraphsController&#45;&gt;SearchController</title>
<path fill="none" stroke="black" d="M1104.03,-2375.84C1048.23,-2251.58 702.33,-1476.2 465.75,-828 413.39,-684.53 357.17,-510.5 335.74,-443.33"/>
<polygon fill="black" stroke="black" points="339.09,-442.33 332.72,-433.86 332.42,-444.45 339.09,-442.33"/>
</g>
<!-- GraphsController&#45;&gt;ExternalUsersService -->
<g id="edge22" class="edge">
<title>GraphsController&#45;&gt;ExternalUsersService</title>
<path fill="none" stroke="black" d="M1153.8,-2375.56C1261.41,-2329.41 1551.77,-2195.25 1742.75,-2016 2031.9,-1744.59 2087.13,-1614.94 2153.75,-1224 2186.24,-1033.33 1964.26,-953.89 1907.75,-828 1846.37,-691.26 1817.6,-511.95 1808.29,-443.36"/>
<polygon fill="black" stroke="black" points="1811.8,-443.19 1807.02,-433.73 1804.86,-444.11 1811.8,-443.19"/>
</g>
<!-- SettingsController -->
<g id="node14" class="node">
<title>SettingsController</title>
<polygon fill="lightblue" stroke="white" points="521.38,-2016 392.12,-2016 392.12,-1980 521.38,-1980 521.38,-2016"/>
<text text-anchor="middle" x="456.75" y="-1992.95" font-family="Arial" font-size="14.00">SettingsController</text>
</g>
<!-- GraphsController&#45;&gt;SettingsController -->
<g id="edge23" class="edge">
<title>GraphsController&#45;&gt;SettingsController</title>
<path fill="none" stroke="black" d="M1082.76,-2375.56C977.51,-2312.25 615.47,-2094.48 495.63,-2022.38"/>
<polygon fill="black" stroke="black" points="497.45,-2019.4 487.07,-2017.24 493.84,-2025.39 497.45,-2019.4"/>
</g>
<!-- TagsHelper -->
<g id="node18" class="node">
<title>TagsHelper</title>
<polygon fill="lightblue" stroke="white" points="2135.88,-1224 2045.62,-1224 2045.62,-1188 2135.88,-1188 2135.88,-1224"/>
<text text-anchor="middle" x="2090.75" y="-1200.95" font-family="Arial" font-size="14.00">TagsHelper</text>
</g>
<!-- GraphsController&#45;&gt;TagsHelper -->
<g id="edge18" class="edge">
<title>GraphsController&#45;&gt;TagsHelper</title>
<path fill="none" stroke="black" d="M1148.81,-2375.54C1246.85,-2328.1 1517.86,-2188.72 1698.75,-2016 1854.84,-1866.97 1887.86,-1815.27 1979.75,-1620 2043.87,-1483.75 2076.06,-1304.15 2086.67,-1235.42"/>
<polygon fill="black" stroke="black" points="2090.1,-1236.18 2088.13,-1225.77 2083.17,-1235.14 2090.1,-1236.18"/>
</g>
<!-- AuditsController -->
<g id="node7" class="node">
<title>AuditsController</title>
<polygon fill="lightblue" stroke="white" points="3199.38,-1620 3082.12,-1620 3082.12,-1584 3199.38,-1584 3199.38,-1620"/>
<text text-anchor="middle" x="3140.75" y="-1596.95" font-family="Arial" font-size="14.00">AuditsController</text>
</g>
<!-- AuditsController&#45;&gt;NotifierService -->
<g id="edge4" class="edge">
<title>AuditsController&#45;&gt;NotifierService</title>
<path fill="none" stroke="black" d="M3151.5,-1583.56C3189.93,-1521.26 3320.6,-1309.39 3367.13,-1233.95"/>
<polygon fill="black" stroke="black" points="3370.05,-1235.87 3372.32,-1225.52 3364.1,-1232.2 3370.05,-1235.87"/>
</g>
<!-- DirectoriesController -->
<g id="node8" class="node">
<title>DirectoriesController</title>
<polygon fill="lightblue" stroke="white" points="1591,-1620 1444.5,-1620 1444.5,-1584 1591,-1584 1591,-1620"/>
<text text-anchor="middle" x="1517.75" y="-1596.95" font-family="Arial" font-size="14.00">DirectoriesController</text>
</g>
<!-- DirectoriesController&#45;&gt;ActorsController -->
<g id="edge7" class="edge">
<title>DirectoriesController&#45;&gt;ActorsController</title>
<path fill="none" stroke="black" d="M1536.87,-1583.56C1605.88,-1520.62 1842.25,-1305.04 1922.69,-1231.68"/>
<polygon fill="black" stroke="black" points="1924.7,-1234.58 1929.73,-1225.26 1919.99,-1229.41 1924.7,-1234.58"/>
</g>
<!-- DirectoriesController&#45;&gt;ApplicationHelper -->
<g id="edge5" class="edge">
<title>DirectoriesController&#45;&gt;ApplicationHelper</title>
<path fill="none" stroke="black" d="M1518.07,-1583.78C1518.72,-1526.56 1517.75,-1337.92 1480.75,-1188 1446.93,-1050.99 1370.79,-899.12 1338.58,-838.33"/>
<polygon fill="black" stroke="black" points="1341.78,-836.9 1333.99,-829.72 1335.61,-840.19 1341.78,-836.9"/>
</g>
<!-- SearchHelper -->
<g id="node9" class="node">
<title>SearchHelper</title>
<polygon fill="lightblue" stroke="white" points="1307.25,-1224 1204.25,-1224 1204.25,-1188 1307.25,-1188 1307.25,-1224"/>
<text text-anchor="middle" x="1255.75" y="-1200.95" font-family="Arial" font-size="14.00">SearchHelper</text>
</g>
<!-- DirectoriesController&#45;&gt;SearchHelper -->
<g id="edge6" class="edge">
<title>DirectoriesController&#45;&gt;SearchHelper</title>
<path fill="none" stroke="black" d="M1506.15,-1583.56C1464.64,-1521.13 1323.26,-1308.52 1273.36,-1233.49"/>
<polygon fill="black" stroke="black" points="1276.5,-1231.89 1268.05,-1225.5 1270.67,-1235.76 1276.5,-1231.89"/>
</g>
<!-- DocumentsController&#45;&gt;ApplicationHelper -->
<g id="edge10" class="edge">
<title>DocumentsController&#45;&gt;ApplicationHelper</title>
<path fill="none" stroke="black" d="M741.7,-1187.56C839.46,-1124.32 1175.5,-906.91 1287.27,-834.6"/>
<polygon fill="black" stroke="black" points="1289,-837.65 1295.49,-829.28 1285.19,-831.78 1289,-837.65"/>
</g>
<!-- DocumentsController&#45;&gt;SearchController -->
<g id="edge8" class="edge">
<title>DocumentsController&#45;&gt;SearchController</title>
<path fill="none" stroke="black" d="M702.92,-1187.53C667.55,-1134.85 560.72,-972.32 489.75,-828 420.78,-687.74 358.81,-510.56 336.02,-442.95"/>
<polygon fill="black" stroke="black" points="339.44,-442.15 332.94,-433.78 332.8,-444.37 339.44,-442.15"/>
</g>
<!-- DocumentsController&#45;&gt;ExternalUsersService -->
<g id="edge9" class="edge">
<title>DocumentsController&#45;&gt;ExternalUsersService</title>
<path fill="none" stroke="black" d="M716.03,-1187.88C721.55,-1125.99 748.58,-911.25 863.75,-792 1104.9,-542.3 1533.07,-453.58 1716.91,-426"/>
<polygon fill="black" stroke="black" points="1717.25,-429.49 1726.63,-424.57 1716.23,-422.56 1717.25,-429.49"/>
</g>
<!-- ScanInstance -->
<g id="node34" class="node">
<title>ScanInstance</title>
<polygon fill="lightblue" stroke="white" points="377.88,-36 275.62,-36 275.62,0 377.88,0 377.88,-36"/>
<text text-anchor="middle" x="326.75" y="-12.95" font-family="Arial" font-size="14.00">ScanInstance</text>
</g>
<!-- SearchController&#45;&gt;ScanInstance -->
<g id="edge39" class="edge">
<title>SearchController&#45;&gt;ScanInstance</title>
<path fill="none" stroke="black" d="M320.76,-395.56C311.24,-333.64 310.77,-123.98 319.34,-47.35"/>
<polygon fill="black" stroke="black" points="322.77,-48.11 320.6,-37.74 315.83,-47.2 322.77,-48.11"/>
</g>
<!-- ElementsController -->
<g id="node13" class="node">
<title>ElementsController</title>
<polygon fill="lightblue" stroke="white" points="137.5,-2412 0,-2412 0,-2376 137.5,-2376 137.5,-2412"/>
<text text-anchor="middle" x="68.75" y="-2388.95" font-family="Arial" font-size="14.00">ElementsController</text>
</g>
<!-- ElementsController&#45;&gt;SearchController -->
<g id="edge11" class="edge">
<title>ElementsController&#45;&gt;SearchController</title>
<path fill="none" stroke="black" d="M67.05,-2375.5C58.97,-2290.62 24.75,-1913.1 24.75,-1603 24.75,-1603 24.75,-1603 24.75,-1205 24.75,-885.92 242.36,-539.3 308.14,-441.82"/>
<polygon fill="black" stroke="black" points="310.95,-443.9 313.69,-433.67 305.17,-439.96 310.95,-443.9"/>
</g>
<!-- ElementsController&#45;&gt;SettingsController -->
<g id="edge12" class="edge">
<title>ElementsController&#45;&gt;SettingsController</title>
<path fill="none" stroke="black" d="M85.92,-2375.56C147.78,-2312.75 359.34,-2097.91 432.01,-2024.12"/>
<polygon fill="black" stroke="black" points="434.19,-2026.9 438.71,-2017.32 429.2,-2021.98 434.19,-2026.9"/>
</g>
<!-- SettingsController&#45;&gt;ActsController -->
<g id="edge40" class="edge">
<title>SettingsController&#45;&gt;ActsController</title>
<path fill="none" stroke="black" d="M521.67,-1986.91C876.06,-1931.86 2574.02,-1668.06 2928,-1613.06"/>
<polygon fill="black" stroke="black" points="2928.45,-1616.53 2937.8,-1611.54 2927.38,-1609.61 2928.45,-1616.53"/>
</g>
<!-- SettingsController&#45;&gt;SearchController -->
<g id="edge44" class="edge">
<title>SettingsController&#45;&gt;SearchController</title>
<path fill="none" stroke="black" d="M450.89,-1979.76C432.78,-1926.41 376.28,-1759.24 331.75,-1620 275.66,-1444.59 237.17,-1406.11 209.75,-1224 181.17,-1034.14 180.97,-981.83 209.75,-792 230.2,-657.09 289.62,-503.98 315.01,-442.59"/>
<polygon fill="black" stroke="black" points="318.14,-444.2 318.76,-433.62 311.68,-441.5 318.14,-444.2"/>
</g>
<!-- SettingsController&#45;&gt;ExternalUsersService -->
<g id="edge43" class="edge">
<title>SettingsController&#45;&gt;ExternalUsersService</title>
<path fill="none" stroke="black" d="M456.1,-1979.77C452.57,-1858.87 448.08,-1132.89 831.75,-792 1098.87,-554.66 1531.99,-459.25 1716.73,-427.95"/>
<polygon fill="black" stroke="black" points="1717.22,-431.42 1726.51,-426.32 1716.07,-424.52 1717.22,-431.42"/>
</g>
<!-- NotificationsController -->
<g id="node24" class="node">
<title>NotificationsController</title>
<polygon fill="lightblue" stroke="white" points="720.12,-1620 565.38,-1620 565.38,-1584 720.12,-1584 720.12,-1620"/>
<text text-anchor="middle" x="642.75" y="-1596.95" font-family="Arial" font-size="14.00">NotificationsController</text>
</g>
<!-- SettingsController&#45;&gt;NotificationsController -->
<g id="edge41" class="edge">
<title>SettingsController&#45;&gt;NotificationsController</title>
<path fill="none" stroke="black" d="M464.98,-1979.56C494.33,-1917.39 594,-1706.26 629.81,-1630.41"/>
<polygon fill="black" stroke="black" points="632.86,-1632.14 633.97,-1621.61 626.53,-1629.15 632.86,-1632.14"/>
</g>
<!-- PrintController -->
<g id="node27" class="node">
<title>PrintController</title>
<polygon fill="lightblue" stroke="white" points="455.75,-1620 349.75,-1620 349.75,-1584 455.75,-1584 455.75,-1620"/>
<text text-anchor="middle" x="402.75" y="-1596.95" font-family="Arial" font-size="14.00">PrintController</text>
</g>
<!-- SettingsController&#45;&gt;PrintController -->
<g id="edge42" class="edge">
<title>SettingsController&#45;&gt;PrintController</title>
<path fill="none" stroke="black" d="M454.36,-1979.56C445.87,-1917.64 417.14,-1707.98 406.64,-1631.35"/>
<polygon fill="black" stroke="black" points="410.14,-1631.17 405.32,-1621.74 403.21,-1632.12 410.14,-1631.17"/>
</g>
<!-- EventsController -->
<g id="node15" class="node">
<title>EventsController</title>
<polygon fill="lightblue" stroke="white" points="3353.25,-2016 3232.25,-2016 3232.25,-1980 3353.25,-1980 3353.25,-2016"/>
<text text-anchor="middle" x="3292.75" y="-1992.95" font-family="Arial" font-size="14.00">EventsController</text>
</g>
<!-- EventsController&#45;&gt;ActsController -->
<g id="edge14" class="edge">
<title>EventsController&#45;&gt;ActsController</title>
<path fill="none" stroke="black" d="M3279.47,-1979.56C3231.84,-1917.01 3069.39,-1703.65 3012.57,-1629.03"/>
<polygon fill="black" stroke="black" points="3015.63,-1627.28 3006.79,-1621.44 3010.06,-1631.52 3015.63,-1627.28"/>
</g>
<!-- EventsController&#45;&gt;NotifierService -->
<g id="edge13" class="edge">
<title>EventsController&#45;&gt;NotifierService</title>
<path fill="none" stroke="black" d="M3310.49,-1979.51C3360.02,-1929.26 3499.36,-1777.9 3547.75,-1620 3593.84,-1469.59 3462.46,-1296.76 3407.08,-1232.66"/>
<polygon fill="black" stroke="black" points="3410.02,-1230.7 3400.8,-1225.49 3404.76,-1235.31 3410.02,-1230.7"/>
</g>
<!-- GraphBackgroundsController -->
<g id="node16" class="node">
<title>GraphBackgroundsController</title>
<polygon fill="lightblue" stroke="white" points="513.62,-2412 313.88,-2412 313.88,-2376 513.62,-2376 513.62,-2412"/>
<text text-anchor="middle" x="413.75" y="-2388.95" font-family="Arial" font-size="14.00">GraphBackgroundsController</text>
</g>
<!-- GraphBackgroundsController&#45;&gt;SearchController -->
<g id="edge15" class="edge">
<title>GraphBackgroundsController&#45;&gt;SearchController</title>
<path fill="none" stroke="black" d="M401.01,-2375.67C342.08,-2293.72 98.75,-1935.22 98.75,-1603 98.75,-1603 98.75,-1603 98.75,-1205 98.75,-894.73 263.1,-541.84 312.73,-442.36"/>
<polygon fill="black" stroke="black" points="315.76,-444.12 317.13,-433.61 309.51,-440.97 315.76,-444.12"/>
</g>
<!-- GraphBackgroundsController&#45;&gt;SettingsController -->
<g id="edge16" class="edge">
<title>GraphBackgroundsController&#45;&gt;SettingsController</title>
<path fill="none" stroke="black" d="M415.65,-2375.56C422.41,-2313.64 445.29,-2103.98 453.66,-2027.35"/>
<polygon fill="black" stroke="black" points="457.1,-2028.06 454.7,-2017.74 450.14,-2027.3 457.1,-2028.06"/>
</g>
<!-- GraphqlController -->
<g id="node17" class="node">
<title>GraphqlController</title>
<polygon fill="lightblue" stroke="white" points="1625.62,-828 1497.88,-828 1497.88,-792 1625.62,-792 1625.62,-828"/>
<text text-anchor="middle" x="1561.75" y="-804.95" font-family="Arial" font-size="14.00">GraphqlController</text>
</g>
<!-- GraphqlController&#45;&gt;ExternalUsersService -->
<g id="edge17" class="edge">
<title>GraphqlController&#45;&gt;ExternalUsersService</title>
<path fill="none" stroke="black" d="M1572.5,-791.56C1610.93,-729.26 1741.6,-517.39 1788.13,-441.95"/>
<polygon fill="black" stroke="black" points="1791.05,-443.87 1793.32,-433.52 1785.1,-440.2 1791.05,-443.87"/>
</g>
<!-- TagsHelper&#45;&gt;ApplicationHelper -->
<g id="edge61" class="edge">
<title>TagsHelper&#45;&gt;ApplicationHelper</title>
<path fill="none" stroke="black" d="M2056.8,-1187.56C1933.06,-1124 1506.2,-904.72 1367.59,-833.52"/>
<polygon fill="black" stroke="black" points="1369.58,-830.61 1359.08,-829.15 1366.38,-836.83 1369.58,-830.61"/>
</g>
<!-- TagsHelper&#45;&gt;SearchController -->
<g id="edge60" class="edge">
<title>TagsHelper&#45;&gt;SearchController</title>
<path fill="none" stroke="black" d="M2066.29,-1187.67C1979.64,-1126.85 1677.84,-919.88 1405.75,-792 1041.15,-620.64 576.23,-483.97 399.41,-434.74"/>
<polygon fill="black" stroke="black" points="400.47,-431.4 389.9,-432.1 398.6,-438.14 400.47,-431.4"/>
</g>
<!-- GroupdocumentsController -->
<g id="node19" class="node">
<title>GroupdocumentsController</title>
<polygon fill="lightblue" stroke="white" points="2571.62,-1620 2383.88,-1620 2383.88,-1584 2571.62,-1584 2571.62,-1620"/>
<text text-anchor="middle" x="2477.75" y="-1596.95" font-family="Arial" font-size="14.00">GroupdocumentsController</text>
</g>
<!-- ResourcesController -->
<g id="node20" class="node">
<title>ResourcesController</title>
<polygon fill="lightblue" stroke="white" points="2584.38,-1224 2437.12,-1224 2437.12,-1188 2584.38,-1188 2584.38,-1224"/>
<text text-anchor="middle" x="2510.75" y="-1200.95" font-family="Arial" font-size="14.00">ResourcesController</text>
</g>
<!-- GroupdocumentsController&#45;&gt;ResourcesController -->
<g id="edge24" class="edge">
<title>GroupdocumentsController&#45;&gt;ResourcesController</title>
<path fill="none" stroke="black" d="M2479.21,-1583.56C2484.4,-1521.64 2501.96,-1311.98 2508.38,-1235.35"/>
<polygon fill="black" stroke="black" points="2511.83,-1236 2509.18,-1225.74 2504.86,-1235.42 2511.83,-1236"/>
</g>
<!-- ResourcesController&#45;&gt;ExternalUsersService -->
<g id="edge34" class="edge">
<title>ResourcesController&#45;&gt;ExternalUsersService</title>
<path fill="none" stroke="black" d="M2516.47,-1187.62C2535.14,-1127.48 2588.64,-924.68 2508.75,-792 2372.38,-565.53 2048.6,-467.28 1892.24,-431.88"/>
<polygon fill="black" stroke="black" points="1893.28,-428.52 1882.75,-429.77 1891.76,-435.35 1893.28,-428.52"/>
</g>
<!-- ResourcesHelper -->
<g id="node32" class="node">
<title>ResourcesHelper</title>
<polygon fill="lightblue" stroke="white" points="2490.62,-828 2362.88,-828 2362.88,-792 2490.62,-792 2490.62,-828"/>
<text text-anchor="middle" x="2426.75" y="-804.95" font-family="Arial" font-size="14.00">ResourcesHelper</text>
</g>
<!-- ResourcesController&#45;&gt;ResourcesHelper -->
<g id="edge33" class="edge">
<title>ResourcesController&#45;&gt;ResourcesHelper</title>
<path fill="none" stroke="black" d="M2507.03,-1187.56C2493.83,-1125.64 2449.13,-915.98 2432.79,-839.35"/>
<polygon fill="black" stroke="black" points="2436.25,-838.77 2430.74,-829.72 2429.4,-840.23 2436.25,-838.77"/>
</g>
<!-- LdapSettingsController -->
<g id="node21" class="node">
<title>LdapSettingsController</title>
<polygon fill="lightblue" stroke="white" points="2522.5,-2808 2361,-2808 2361,-2772 2522.5,-2772 2522.5,-2808"/>
<text text-anchor="middle" x="2441.75" y="-2784.95" font-family="Arial" font-size="14.00">LdapSettingsController</text>
</g>
<!-- SessionsController -->
<g id="node22" class="node">
<title>SessionsController</title>
<polygon fill="lightblue" stroke="white" points="2687.12,-2412 2550.38,-2412 2550.38,-2376 2687.12,-2376 2687.12,-2412"/>
<text text-anchor="middle" x="2618.75" y="-2388.95" font-family="Arial" font-size="14.00">SessionsController</text>
</g>
<!-- LdapSettingsController&#45;&gt;SessionsController -->
<g id="edge25" class="edge">
<title>LdapSettingsController&#45;&gt;SessionsController</title>
<path fill="none" stroke="black" d="M2449.58,-2771.56C2477.51,-2709.39 2572.36,-2498.26 2606.44,-2422.41"/>
<polygon fill="black" stroke="black" points="2609.48,-2424.17 2610.39,-2413.62 2603.1,-2421.3 2609.48,-2424.17"/>
</g>
<!-- LoginsController -->
<g id="node23" class="node">
<title>LoginsController</title>
<polygon fill="lightblue" stroke="white" points="2678.88,-2808 2558.62,-2808 2558.62,-2772 2678.88,-2772 2678.88,-2808"/>
<text text-anchor="middle" x="2618.75" y="-2784.95" font-family="Arial" font-size="14.00">LoginsController</text>
</g>
<!-- LoginsController&#45;&gt;SessionsController -->
<g id="edge26" class="edge">
<title>LoginsController&#45;&gt;SessionsController</title>
<path fill="none" stroke="black" d="M2618.75,-2771.56C2618.75,-2709.64 2618.75,-2499.98 2618.75,-2423.35"/>
<polygon fill="black" stroke="black" points="2622.25,-2423.75 2618.75,-2413.75 2615.25,-2423.75 2622.25,-2423.75"/>
</g>
<!-- NotificationsHelper -->
<g id="node25" class="node">
<title>NotificationsHelper</title>
<polygon fill="lightblue" stroke="white" points="961.38,-1224 826.12,-1224 826.12,-1188 961.38,-1188 961.38,-1224"/>
<text text-anchor="middle" x="893.75" y="-1200.95" font-family="Arial" font-size="14.00">NotificationsHelper</text>
</g>
<!-- NotificationsController&#45;&gt;NotificationsHelper -->
<g id="edge27" class="edge">
<title>NotificationsController&#45;&gt;NotificationsHelper</title>
<path fill="none" stroke="black" d="M653.86,-1583.56C693.55,-1521.26 828.52,-1309.39 876.58,-1233.95"/>
<polygon fill="black" stroke="black" points="879.53,-1235.83 881.96,-1225.51 873.63,-1232.07 879.53,-1235.83"/>
</g>
<!-- NotificationsHelper&#45;&gt;ApplicationHelper -->
<g id="edge57" class="edge">
<title>NotificationsHelper&#45;&gt;ApplicationHelper</title>
<path fill="none" stroke="black" d="M912.78,-1187.56C981.47,-1124.62 1216.75,-909.04 1296.82,-835.68"/>
<polygon fill="black" stroke="black" points="1298.81,-838.6 1303.82,-829.26 1294.08,-833.43 1298.81,-838.6"/>
</g>
<!-- MissingTranslationsController -->
<g id="node41" class="node">
<title>MissingTranslationsController</title>
<polygon fill="lightblue" stroke="white" points="1223.75,-828 1021.75,-828 1021.75,-792 1223.75,-792 1223.75,-828"/>
<text text-anchor="middle" x="1122.75" y="-804.95" font-family="Arial" font-size="14.00">MissingTranslationsController</text>
</g>
<!-- NotificationsHelper&#45;&gt;MissingTranslationsController -->
<g id="edge58" class="edge">
<title>NotificationsHelper&#45;&gt;MissingTranslationsController</title>
<path fill="none" stroke="black" d="M903.89,-1187.56C940.1,-1125.26 1063.24,-913.39 1107.09,-837.95"/>
<polygon fill="black" stroke="black" points="1109.97,-839.95 1111.97,-829.55 1103.92,-836.43 1109.97,-839.95"/>
</g>
<!-- GraphsHelper -->
<g id="node42" class="node">
<title>GraphsHelper</title>
<polygon fill="lightblue" stroke="white" points="986,-828 881.5,-828 881.5,-792 986,-792 986,-828"/>
<text text-anchor="middle" x="933.75" y="-804.95" font-family="Arial" font-size="14.00">GraphsHelper</text>
</g>
<!-- NotificationsHelper&#45;&gt;GraphsHelper -->
<g id="edge59" class="edge">
<title>NotificationsHelper&#45;&gt;GraphsHelper</title>
<path fill="none" stroke="black" d="M895.52,-1187.56C901.81,-1125.64 923.09,-915.98 930.87,-839.35"/>
<polygon fill="black" stroke="black" points="934.32,-840.04 931.85,-829.74 927.35,-839.34 934.32,-840.04"/>
</g>
<!-- PasswordsController -->
<g id="node26" class="node">
<title>PasswordsController</title>
<polygon fill="lightblue" stroke="white" points="2755.75,-1620 2607.75,-1620 2607.75,-1584 2755.75,-1584 2755.75,-1620"/>
<text text-anchor="middle" x="2681.75" y="-1596.95" font-family="Arial" font-size="14.00">PasswordsController</text>
</g>
<!-- PasswordsController&#45;&gt;ResourcesController -->
<g id="edge28" class="edge">
<title>PasswordsController&#45;&gt;ResourcesController</title>
<path fill="none" stroke="black" d="M2674.18,-1583.56C2647.2,-1521.39 2555.56,-1310.26 2522.65,-1234.41"/>
<polygon fill="black" stroke="black" points="2526.03,-1233.4 2518.83,-1225.63 2519.6,-1236.19 2526.03,-1233.4"/>
</g>
<!-- PrintController&#45;&gt;ExternalUsersService -->
<g id="edge30" class="edge">
<title>PrintController&#45;&gt;ExternalUsersService</title>
<path fill="none" stroke="black" d="M403.71,-1583.79C410.07,-1487.29 454.78,-1009.89 724.75,-792 1034.01,-542.4 1519.71,-452.66 1717.03,-425.37"/>
<polygon fill="black" stroke="black" points="1717.26,-428.87 1726.69,-424.05 1716.31,-421.94 1717.26,-428.87"/>
</g>
<!-- ContributorsController -->
<g id="node28" class="node">
<title>ContributorsController</title>
<polygon fill="lightblue" stroke="white" points="382.12,-1224 227.38,-1224 227.38,-1188 382.12,-1188 382.12,-1224"/>
<text text-anchor="middle" x="304.75" y="-1200.95" font-family="Arial" font-size="14.00">ContributorsController</text>
</g>
<!-- PrintController&#45;&gt;ContributorsController -->
<g id="edge29" class="edge">
<title>PrintController&#45;&gt;ContributorsController</title>
<path fill="none" stroke="black" d="M398.41,-1583.56C383.01,-1521.64 330.86,-1311.98 311.8,-1235.35"/>
<polygon fill="black" stroke="black" points="315.21,-1234.56 309.4,-1225.71 308.42,-1236.25 315.21,-1234.56"/>
</g>
<!-- PublisherController -->
<g id="node29" class="node">
<title>PublisherController</title>
<polygon fill="lightblue" stroke="white" points="1709.12,-1224 1572.38,-1224 1572.38,-1188 1709.12,-1188 1709.12,-1224"/>
<text text-anchor="middle" x="1640.75" y="-1200.95" font-family="Arial" font-size="14.00">PublisherController</text>
</g>
<!-- PublisherController&#45;&gt;ApplicationHelper -->
<g id="edge31" class="edge">
<title>PublisherController&#45;&gt;ApplicationHelper</title>
<path fill="none" stroke="black" d="M1626.72,-1187.56C1576.39,-1125.01 1404.73,-911.65 1344.69,-837.03"/>
<polygon fill="black" stroke="black" points="1347.56,-835.01 1338.57,-829.42 1342.11,-839.4 1347.56,-835.01"/>
</g>
<!-- RegistrationsController -->
<g id="node30" class="node">
<title>RegistrationsController</title>
<polygon fill="lightblue" stroke="white" points="1681.12,-2016 1520.38,-2016 1520.38,-1980 1681.12,-1980 1681.12,-2016"/>
<text text-anchor="middle" x="1600.75" y="-1992.95" font-family="Arial" font-size="14.00">RegistrationsController</text>
</g>
<!-- NotificationMailer -->
<g id="node31" class="node">
<title>NotificationMailer</title>
<polygon fill="lightblue" stroke="white" points="1368.38,-1620 1245.12,-1620 1245.12,-1584 1368.38,-1584 1368.38,-1620"/>
<text text-anchor="middle" x="1306.75" y="-1596.95" font-family="Arial" font-size="14.00">NotificationMailer</text>
</g>
<!-- RegistrationsController&#45;&gt;NotificationMailer -->
<g id="edge32" class="edge">
<title>RegistrationsController&#45;&gt;NotificationMailer</title>
<path fill="none" stroke="black" d="M1587.74,-1979.56C1541.06,-1917.01 1381.86,-1703.65 1326.17,-1629.03"/>
<polygon fill="black" stroke="black" points="1329.3,-1627.37 1320.52,-1621.45 1323.69,-1631.56 1329.3,-1627.37"/>
</g>
<!-- NotificationMailer&#45;&gt;NotificationsHelper -->
<g id="edge64" class="edge">
<title>NotificationMailer&#45;&gt;NotificationsHelper</title>
<path fill="none" stroke="black" d="M1288.47,-1583.56C1222.63,-1520.75 997.43,-1305.91 920.08,-1232.12"/>
<polygon fill="black" stroke="black" points="922.56,-1229.65 912.91,-1225.28 917.73,-1234.72 922.56,-1229.65"/>
</g>
<!-- RolesController -->
<g id="node33" class="node">
<title>RolesController</title>
<polygon fill="lightblue" stroke="white" points="2348.25,-1620 2233.25,-1620 2233.25,-1584 2348.25,-1584 2348.25,-1620"/>
<text text-anchor="middle" x="2290.75" y="-1596.95" font-family="Arial" font-size="14.00">RolesController</text>
</g>
<!-- RolesController&#45;&gt;ExternalUsersService -->
<g id="edge36" class="edge">
<title>RolesController&#45;&gt;ExternalUsersService</title>
<path fill="none" stroke="black" d="M2295.35,-1583.52C2317.99,-1493.83 2410.85,-1078.41 2269.75,-792 2179.7,-609.21 1954.84,-485.28 1854.48,-437.26"/>
<polygon fill="black" stroke="black" points="1856.21,-434.21 1845.67,-433.1 1853.21,-440.54 1856.21,-434.21"/>
</g>
<!-- RolesController&#45;&gt;TagsHelper -->
<g id="edge35" class="edge">
<title>RolesController&#45;&gt;TagsHelper</title>
<path fill="none" stroke="black" d="M2281.9,-1583.56C2250.34,-1521.39 2143.16,-1310.26 2104.66,-1234.41"/>
<polygon fill="black" stroke="black" points="2107.83,-1232.92 2100.18,-1225.59 2101.59,-1236.09 2107.83,-1232.92"/>
</g>
<!-- RolesController&#45;&gt;ResourcesController -->
<g id="edge38" class="edge">
<title>RolesController&#45;&gt;ResourcesController</title>
<path fill="none" stroke="black" d="M2300.49,-1583.56C2335.27,-1521.26 2453.58,-1309.39 2495.7,-1233.95"/>
<polygon fill="black" stroke="black" points="2498.57,-1236 2500.39,-1225.56 2492.46,-1232.58 2498.57,-1236"/>
</g>
<!-- RolesController&#45;&gt;ResourcesHelper -->
<g id="edge37" class="edge">
<title>RolesController&#45;&gt;ResourcesHelper</title>
<path fill="none" stroke="black" d="M2293.72,-1583.77C2311.12,-1482.67 2399.94,-966.74 2421.86,-839.43"/>
<polygon fill="black" stroke="black" points="2425.26,-840.29 2423.51,-829.84 2418.36,-839.1 2425.26,-840.29"/>
</g>
<!-- ScanInstance&#45;&gt;SearchController -->
<g id="edge66" class="edge">
<title>ScanInstance&#45;&gt;SearchController</title>
<path fill="none" stroke="black" d="M332.7,-36.24C342.24,-97.83 342.74,-307.48 334.19,-384.4"/>
<polygon fill="black" stroke="black" points="330.75,-383.69 332.93,-394.06 337.69,-384.6 330.75,-383.69"/>
</g>
<!-- SsoSettingsController -->
<g id="node35" class="node">
<title>SsoSettingsController</title>
<polygon fill="lightblue" stroke="white" points="1816.12,-828 1661.38,-828 1661.38,-792 1816.12,-792 1816.12,-828"/>
<text text-anchor="middle" x="1738.75" y="-804.95" font-family="Arial" font-size="14.00">SsoSettingsController</text>
</g>
<!-- SsoSettingsController&#45;&gt;ExternalUsersService -->
<g id="edge45" class="edge">
<title>SsoSettingsController&#45;&gt;ExternalUsersService</title>
<path fill="none" stroke="black" d="M1741.67,-791.56C1752.04,-729.64 1787.16,-519.98 1800,-443.35"/>
<polygon fill="black" stroke="black" points="1803.41,-444.17 1801.61,-433.73 1796.51,-443.01 1803.41,-444.17"/>
</g>
<!-- TagsController -->
<g id="node36" class="node">
<title>TagsController</title>
<polygon fill="lightblue" stroke="white" points="1854.62,-1224 1744.88,-1224 1744.88,-1188 1854.62,-1188 1854.62,-1224"/>
<text text-anchor="middle" x="1799.75" y="-1200.95" font-family="Arial" font-size="14.00">TagsController</text>
</g>
<!-- TagsController&#45;&gt;ApplicationHelper -->
<g id="edge46" class="edge">
<title>TagsController&#45;&gt;ApplicationHelper</title>
<path fill="none" stroke="black" d="M1778.68,-1187.56C1702.66,-1124.63 1442.26,-909.1 1353.6,-835.7"/>
<polygon fill="black" stroke="black" points="1355.94,-833.1 1346.01,-829.42 1351.48,-838.5 1355.94,-833.1"/>
</g>
<!-- UsersController -->
<g id="node37" class="node">
<title>UsersController</title>
<polygon fill="lightblue" stroke="white" points="2514.25,-2412 2399.25,-2412 2399.25,-2376 2514.25,-2376 2514.25,-2412"/>
<text text-anchor="middle" x="2456.75" y="-2388.95" font-family="Arial" font-size="14.00">UsersController</text>
</g>
<!-- UsersController&#45;&gt;ActorsController -->
<g id="edge48" class="edge">
<title>UsersController&#45;&gt;ActorsController</title>
<path fill="none" stroke="black" d="M2449.39,-2375.78C2393.14,-2244.2 2031.76,-1398.84 1961.56,-1234.62"/>
<polygon fill="black" stroke="black" points="1964.93,-1233.6 1957.78,-1225.78 1958.49,-1236.36 1964.93,-1233.6"/>
</g>
<!-- UsersController&#45;&gt;ApplicationHelper -->
<g id="edge49" class="edge">
<title>UsersController&#45;&gt;ApplicationHelper</title>
<path fill="none" stroke="black" d="M2466.95,-2375.55C2514.03,-2293.88 2710.72,-1939.84 2773.75,-1620 2809.28,-1439.73 2794.09,-1357.49 2602.75,-1188 2416.92,-1023.4 1644.77,-869.99 1399.14,-824.55"/>
<polygon fill="black" stroke="black" points="1399.8,-821.11 1389.33,-822.74 1398.53,-828 1399.8,-821.11"/>
</g>
<!-- UsersController&#45;&gt;ExternalUsersService -->
<g id="edge47" class="edge">
<title>UsersController&#45;&gt;ExternalUsersService</title>
<path fill="none" stroke="black" d="M2474.87,-2375.7C2556.33,-2295.96 2884.75,-1952.8 2884.75,-1603 2884.75,-1603 2884.75,-1603 2884.75,-1205 2884.75,-714.28 2149.43,-495.51 1892.27,-434.01"/>
<polygon fill="black" stroke="black" points="1893.13,-430.61 1882.6,-431.72 1891.52,-437.43 1893.13,-430.61"/>
</g>
<!-- UsersController&#45;&gt;RegistrationsController -->
<g id="edge50" class="edge">
<title>UsersController&#45;&gt;RegistrationsController</title>
<path fill="none" stroke="black" d="M2418.86,-2375.56C2280.49,-2311.87 1802.46,-2091.84 1648.76,-2021.1"/>
<polygon fill="black" stroke="black" points="1650.6,-2018.09 1640.06,-2017.09 1647.68,-2024.45 1650.6,-2018.09"/>
</g>
<!-- ViewersController -->
<g id="node38" class="node">
<title>ViewersController</title>
<polygon fill="lightblue" stroke="white" points="1962,-1620 1833.5,-1620 1833.5,-1584 1962,-1584 1962,-1620"/>
<text text-anchor="middle" x="1897.75" y="-1596.95" font-family="Arial" font-size="14.00">ViewersController</text>
</g>
<!-- ViewersController&#45;&gt;ActorsController -->
<g id="edge51" class="edge">
<title>ViewersController&#45;&gt;ActorsController</title>
<path fill="none" stroke="black" d="M1900.05,-1583.56C1908.22,-1521.64 1935.89,-1311.98 1946.01,-1235.35"/>
<polygon fill="black" stroke="black" points="1949.44,-1236.11 1947.28,-1225.74 1942.5,-1235.19 1949.44,-1236.11"/>
</g>
<!-- DirectoriesHelper&#45;&gt;ApplicationHelper -->
<g id="edge55" class="edge">
<title>DirectoriesHelper&#45;&gt;ApplicationHelper</title>
<path fill="none" stroke="black" d="M1329.7,-432.24C1339.24,-493.83 1339.74,-703.48 1331.19,-780.4"/>
<polygon fill="black" stroke="black" points="1327.75,-779.69 1329.93,-790.06 1334.69,-780.6 1327.75,-779.69"/>
</g>
<!-- ImproverHelper -->
<g id="node40" class="node">
<title>ImproverHelper</title>
<polygon fill="lightblue" stroke="white" points="623.25,-828 508.25,-828 508.25,-792 623.25,-792 623.25,-828"/>
<text text-anchor="middle" x="565.75" y="-804.95" font-family="Arial" font-size="14.00">ImproverHelper</text>
</g>
<!-- ImproverHelper&#45;&gt;DirectoriesHelper -->
<g id="edge56" class="edge">
<title>ImproverHelper&#45;&gt;DirectoriesHelper</title>
<path fill="none" stroke="black" d="M599.3,-791.56C721.47,-728.06 1142.6,-509.16 1280.01,-437.74"/>
<polygon fill="black" stroke="black" points="1281.56,-440.88 1288.82,-433.16 1278.33,-434.66 1281.56,-440.88"/>
</g>
<!-- TasksHelper -->
<g id="node43" class="node">
<title>TasksHelper</title>
<polygon fill="lightblue" stroke="white" points="1093.88,-1224 997.62,-1224 997.62,-1188 1093.88,-1188 1093.88,-1224"/>
<text text-anchor="middle" x="1045.75" y="-1200.95" font-family="Arial" font-size="14.00">TasksHelper</text>
</g>
<!-- TasksHelper&#45;&gt;ApplicationHelper -->
<g id="edge62" class="edge">
<title>TasksHelper&#45;&gt;ApplicationHelper</title>
<path fill="none" stroke="black" d="M1058.05,-1187.56C1102.1,-1125.13 1252.12,-912.52 1305.06,-837.49"/>
<polygon fill="black" stroke="black" points="1307.81,-839.66 1310.72,-829.47 1302.09,-835.63 1307.81,-839.66"/>
</g>
<!-- UsersHelper -->
<g id="node44" class="node">
<title>UsersHelper</title>
<polygon fill="lightblue" stroke="white" points="323.5,-828 228,-828 228,-792 323.5,-792 323.5,-828"/>
<text text-anchor="middle" x="275.75" y="-804.95" font-family="Arial" font-size="14.00">UsersHelper</text>
</g>
<!-- UsersHelper&#45;&gt;SearchController -->
<g id="edge63" class="edge">
<title>UsersHelper&#45;&gt;SearchController</title>
<path fill="none" stroke="black" d="M278.01,-791.56C286.02,-729.64 313.16,-519.98 323.08,-443.35"/>
<polygon fill="black" stroke="black" points="326.51,-444.1 324.32,-433.74 319.57,-443.21 326.51,-444.1"/>
</g>
<!-- DestroyInstance -->
<g id="node45" class="node">
<title>DestroyInstance</title>
<polygon fill="lightblue" stroke="white" points="1462.5,-1224 1343,-1224 1343,-1188 1462.5,-1188 1462.5,-1224"/>
<text text-anchor="middle" x="1402.75" y="-1200.95" font-family="Arial" font-size="14.00">DestroyInstance</text>
</g>
<!-- DestroyInstance&#45;&gt;MissingTranslationsController -->
<g id="edge65" class="edge">
<title>DestroyInstance&#45;&gt;MissingTranslationsController</title>
<path fill="none" stroke="black" d="M1390.36,-1187.56C1345.99,-1125.13 1194.9,-912.52 1141.57,-837.49"/>
<polygon fill="black" stroke="black" points="1144.52,-835.59 1135.88,-829.47 1138.82,-839.65 1144.52,-835.59"/>
</g>
<!-- ActionNotifications -->
<g id="node46" class="node">
<title>ActionNotifications</title>
<polygon fill="lightblue" stroke="white" points="3368.25,-1620 3235.25,-1620 3235.25,-1584 3368.25,-1584 3368.25,-1620"/>
<text text-anchor="middle" x="3301.75" y="-1596.95" font-family="Arial" font-size="14.00">ActionNotifications</text>
</g>
<!-- ActionNotifications&#45;&gt;NotifierService -->
<g id="edge67" class="edge">
<title>ActionNotifications&#45;&gt;NotifierService</title>
<path fill="none" stroke="black" d="M3305.38,-1583.56C3318.27,-1521.64 3361.9,-1311.98 3377.85,-1235.35"/>
<polygon fill="black" stroke="black" points="3381.24,-1236.22 3379.85,-1225.72 3374.39,-1234.8 3381.24,-1236.22"/>
</g>
<!-- AuditNotifications -->
<g id="node47" class="node">
<title>AuditNotifications</title>
<polygon fill="lightblue" stroke="white" points="3529.5,-1620 3404,-1620 3404,-1584 3529.5,-1584 3529.5,-1620"/>
<text text-anchor="middle" x="3466.75" y="-1596.95" font-family="Arial" font-size="14.00">AuditNotifications</text>
</g>
<!-- AuditNotifications&#45;&gt;NotifierService -->
<g id="edge68" class="edge">
<title>AuditNotifications&#45;&gt;NotifierService</title>
<path fill="none" stroke="black" d="M3463.08,-1583.56C3450.03,-1521.64 3405.87,-1311.98 3389.72,-1235.35"/>
<polygon fill="black" stroke="black" points="3393.18,-1234.78 3387.69,-1225.72 3386.33,-1236.22 3393.18,-1234.78"/>
</g>
<!-- EventNotifications -->
<g id="node48" class="node">
<title>EventNotifications</title>
<polygon fill="lightblue" stroke="white" points="3769.38,-1620 3640.12,-1620 3640.12,-1584 3769.38,-1584 3769.38,-1620"/>
<text text-anchor="middle" x="3704.75" y="-1596.95" font-family="Arial" font-size="14.00">EventNotifications</text>
</g>
<!-- EventNotifications&#45;&gt;NotifierService -->
<g id="edge69" class="edge">
<title>EventNotifications&#45;&gt;NotifierService</title>
<path fill="none" stroke="black" d="M3690.54,-1583.56C3639.58,-1521.01 3465.76,-1307.65 3404.96,-1233.03"/>
<polygon fill="black" stroke="black" points="3407.78,-1230.95 3398.75,-1225.41 3402.35,-1235.37 3407.78,-1230.95"/>
</g>
<!-- LdapNormalizerService -->
<g id="node49" class="node">
<title>LdapNormalizerService</title>
<polygon fill="lightblue" stroke="white" points="2878.62,-2808 2714.88,-2808 2714.88,-2772 2878.62,-2772 2878.62,-2808"/>
<text text-anchor="middle" x="2796.75" y="-2784.95" font-family="Arial" font-size="14.00">LdapNormalizerService</text>
</g>
<!-- LdapNormalizerService&#45;&gt;SessionsController -->
<g id="edge70" class="edge">
<title>LdapNormalizerService&#45;&gt;SessionsController</title>
<path fill="none" stroke="black" d="M2788.87,-2771.56C2760.78,-2709.39 2665.4,-2498.26 2631.13,-2422.41"/>
<polygon fill="black" stroke="black" points="2634.47,-2421.29 2627.16,-2413.62 2628.09,-2424.17 2634.47,-2421.29"/>
</g>
<!-- SamlNormalizerService -->
<g id="node50" class="node">
<title>SamlNormalizerService</title>
<polygon fill="lightblue" stroke="white" points="2089.62,-828 1925.88,-828 1925.88,-792 2089.62,-792 2089.62,-828"/>
<text text-anchor="middle" x="2007.75" y="-804.95" font-family="Arial" font-size="14.00">SamlNormalizerService</text>
</g>
<!-- SamlNormalizerService&#45;&gt;ExternalUsersService -->
<g id="edge71" class="edge">
<title>SamlNormalizerService&#45;&gt;ExternalUsersService</title>
<path fill="none" stroke="black" d="M1998.77,-791.56C1966.73,-729.39 1857.95,-518.26 1818.87,-442.41"/>
<polygon fill="black" stroke="black" points="1822.02,-440.87 1814.32,-433.58 1815.79,-444.07 1822.02,-440.87"/>
</g>
<!-- SsoUsersService -->
<g id="node51" class="node">
<title>SsoUsersService</title>
<polygon fill="lightblue" stroke="white" points="2252.25,-828 2125.25,-828 2125.25,-792 2252.25,-792 2252.25,-828"/>
<text text-anchor="middle" x="2188.75" y="-804.95" font-family="Arial" font-size="14.00">SsoUsersService</text>
</g>
<!-- SsoUsersService&#45;&gt;ExternalUsersService -->
<g id="edge72" class="edge">
<title>SsoUsersService&#45;&gt;ExternalUsersService</title>
<path fill="none" stroke="black" d="M2171.75,-791.56C2110.54,-728.75 1901.15,-513.91 1829.24,-440.12"/>
<polygon fill="black" stroke="black" points="1832.09,-438.04 1822.61,-433.32 1827.08,-442.92 1832.09,-438.04"/>
</g>
<!-- DocumentUploader -->
<g id="node52" class="node">
<title>DocumentUploader</title>
<polygon fill="lightblue" stroke="white" points="3053.25,-2808 2914.25,-2808 2914.25,-2772 3053.25,-2772 3053.25,-2808"/>
<text text-anchor="middle" x="2983.75" y="-2784.95" font-family="Arial" font-size="14.00">DocumentUploader</text>
</g>
<!-- AvatarUploader -->
<g id="node53" class="node">
<title>AvatarUploader</title>
<polygon fill="lightblue" stroke="white" points="3040.5,-2412 2927,-2412 2927,-2376 3040.5,-2376 3040.5,-2412"/>
<text text-anchor="middle" x="2983.75" y="-2388.95" font-family="Arial" font-size="14.00">AvatarUploader</text>
</g>
<!-- DocumentUploader&#45;&gt;AvatarUploader -->
<g id="edge73" class="edge">
<title>DocumentUploader&#45;&gt;AvatarUploader</title>
<path fill="none" stroke="black" d="M2983.75,-2771.56C2983.75,-2709.64 2983.75,-2499.98 2983.75,-2423.35"/>
<polygon fill="black" stroke="black" points="2987.25,-2423.75 2983.75,-2413.75 2980.25,-2423.75 2987.25,-2423.75"/>
</g>
<!-- FieldValueValidator -->
<g id="node54" class="node">
<title>FieldValueValidator</title>
<polygon fill="lightblue" stroke="white" points="3228.25,-2808 3089.25,-2808 3089.25,-2772 3228.25,-2772 3228.25,-2808"/>
<text text-anchor="middle" x="3158.75" y="-2784.95" font-family="Arial" font-size="14.00">FieldValueValidator</text>
</g>
<!-- AttachmentsController -->
<g id="node55" class="node">
<title>AttachmentsController</title>
<polygon fill="lightblue" stroke="white" points="3236.88,-2412 3080.62,-2412 3080.62,-2376 3236.88,-2376 3236.88,-2412"/>
<text text-anchor="middle" x="3158.75" y="-2388.95" font-family="Arial" font-size="14.00">AttachmentsController</text>
</g>
<!-- FieldValueValidator&#45;&gt;AttachmentsController -->
<g id="edge74" class="edge">
<title>FieldValueValidator&#45;&gt;AttachmentsController</title>
<path fill="none" stroke="black" d="M3158.75,-2771.56C3158.75,-2709.64 3158.75,-2499.98 3158.75,-2423.35"/>
<polygon fill="black" stroke="black" points="3162.25,-2423.75 3158.75,-2413.75 3155.25,-2423.75 3162.25,-2423.75"/>
</g>
</g>
</svg>
