<?xml version="1.0" encoding="UTF-8" standalone="no"?>
<!DOCTYPE svg PUBLIC "-//W3C//DTD SVG 1.1//EN"
 "http://www.w3.org/Graphics/SVG/1.1/DTD/svg11.dtd">
<!-- Generated by graphviz version 9.0.0 (20230911.1827)
 -->
<!-- Title: CallGraph Pages: 1 -->
<svg width="621pt" height="893pt"
 viewBox="0.00 0.00 621.38 892.57" xmlns="http://www.w3.org/2000/svg" xmlns:xlink="http://www.w3.org/1999/xlink">
<g id="graph0" class="graph" transform="scale(1 1) rotate(0) translate(4 888.57)">
<title>CallGraph</title>
<polygon fill="white" stroke="none" points="-4,4 -4,-888.57 617.38,-888.57 617.38,4 -4,4"/>
<!-- setup -->
<g id="node1" class="node">
<title>setup</title>
<polygon fill="lightblue" stroke="white" points="125.75,-884.57 71.75,-884.57 71.75,-848.57 125.75,-848.57 125.75,-884.57"/>
<text text-anchor="middle" x="98.75" y="-861.52" font-family="Arial" font-size="14.00">setup</text>
</g>
<!-- use_customer_ldap_params -->
<g id="node2" class="node">
<title>use_customer_ldap_params</title>
<polygon fill="lightblue" stroke="white" points="197.5,-488.57 0,-488.57 0,-452.57 197.5,-452.57 197.5,-488.57"/>
<text text-anchor="middle" x="98.75" y="-465.52" font-family="Arial" font-size="14.00">use_customer_ldap_params</text>
</g>
<!-- setup&#45;&gt;use_customer_ldap_params -->
<g id="edge1" class="edge">
<title>setup&#45;&gt;use_customer_ldap_params</title>
<path fill="none" stroke="black" d="M98.75,-848.14C98.75,-786.22 98.75,-576.56 98.75,-499.92"/>
<polygon fill="black" stroke="black" points="102.25,-500.32 98.75,-490.32 95.25,-500.32 102.25,-500.32"/>
</g>
<!-- ldap_settings -->
<g id="node7" class="node">
<title>ldap_settings</title>
<polygon fill="lightblue" stroke="white" points="149.12,-92.57 48.38,-92.57 48.38,-56.57 149.12,-56.57 149.12,-92.57"/>
<text text-anchor="middle" x="98.75" y="-69.52" font-family="Arial" font-size="14.00">ldap_settings</text>
</g>
<!-- use_customer_ldap_params&#45;&gt;ldap_settings -->
<g id="edge4" class="edge">
<title>use_customer_ldap_params&#45;&gt;ldap_settings</title>
<path fill="none" stroke="black" d="M98.75,-452.14C98.75,-390.22 98.75,-180.56 98.75,-103.92"/>
<polygon fill="black" stroke="black" points="102.25,-104.32 98.75,-94.32 95.25,-104.32 102.25,-104.32"/>
</g>
<!-- new -->
<g id="node3" class="node">
<title>new</title>
<polygon fill="lightblue" stroke="white" points="346.75,-884.57 292.75,-884.57 292.75,-848.57 346.75,-848.57 346.75,-884.57"/>
<text text-anchor="middle" x="319.75" y="-861.52" font-family="Arial" font-size="14.00">new</text>
</g>
<!-- initialize_devise_session -->
<g id="node4" class="node">
<title>initialize_devise_session</title>
<polygon fill="lightblue" stroke="white" points="406.12,-488.57 233.38,-488.57 233.38,-452.57 406.12,-452.57 406.12,-488.57"/>
<text text-anchor="middle" x="319.75" y="-465.52" font-family="Arial" font-size="14.00">initialize_devise_session</text>
</g>
<!-- new&#45;&gt;initialize_devise_session -->
<g id="edge2" class="edge">
<title>new&#45;&gt;initialize_devise_session</title>
<path fill="none" stroke="black" d="M319.75,-848.14C319.75,-786.22 319.75,-576.56 319.75,-499.92"/>
<polygon fill="black" stroke="black" points="323.25,-500.32 319.75,-490.32 316.25,-500.32 323.25,-500.32"/>
</g>
<!-- resource -->
<g id="node8" class="node">
<title>resource</title>
<polygon fill="lightblue" stroke="white" points="355.88,-92.57 283.62,-92.57 283.62,-56.57 355.88,-56.57 355.88,-92.57"/>
<text text-anchor="middle" x="319.75" y="-69.52" font-family="Arial" font-size="14.00">resource</text>
</g>
<!-- initialize_devise_session&#45;&gt;resource -->
<g id="edge6" class="edge">
<title>initialize_devise_session&#45;&gt;resource</title>
<path fill="none" stroke="black" d="M319.75,-452.14C319.75,-390.22 319.75,-180.56 319.75,-103.92"/>
<polygon fill="black" stroke="black" points="323.25,-104.32 319.75,-94.32 316.25,-104.32 323.25,-104.32"/>
</g>
<!-- destroy -->
<g id="node5" class="node">
<title>destroy</title>
<polygon fill="lightblue" stroke="white" points="559.38,-884.57 496.12,-884.57 496.12,-848.57 559.38,-848.57 559.38,-884.57"/>
<text text-anchor="middle" x="527.75" y="-861.52" font-family="Arial" font-size="14.00">destroy</text>
</g>
<!-- destroy_devise_session -->
<g id="node6" class="node">
<title>destroy_devise_session</title>
<polygon fill="lightblue" stroke="white" points="613.38,-488.57 442.12,-488.57 442.12,-452.57 613.38,-452.57 613.38,-488.57"/>
<text text-anchor="middle" x="527.75" y="-465.52" font-family="Arial" font-size="14.00">destroy_devise_session</text>
</g>
<!-- destroy&#45;&gt;destroy_devise_session -->
<g id="edge3" class="edge">
<title>destroy&#45;&gt;destroy_devise_session</title>
<path fill="none" stroke="black" d="M527.75,-848.14C527.75,-786.22 527.75,-576.56 527.75,-499.92"/>
<polygon fill="black" stroke="black" points="531.25,-500.32 527.75,-490.32 524.25,-500.32 531.25,-500.32"/>
</g>
<!-- ldap_settings&#45;&gt;ldap_settings -->
<g id="edge5" class="edge">
<title>ldap_settings&#45;&gt;ldap_settings</title>
<path fill="none" stroke="black" d="M104.84,-92.99C134.94,-173.14 185.12,-167 185.12,-74.57 185.12,13.7 139.34,23.26 109.01,-45.88"/>
<polygon fill="black" stroke="black" points="105.93,-44.18 105.41,-54.76 112.41,-46.81 105.93,-44.18"/>
</g>
</g>
</svg>
