<?xml version="1.0" encoding="UTF-8" standalone="no"?>
<!DOCTYPE svg PUBLIC "-//W3C//DTD SVG 1.1//EN"
 "http://www.w3.org/Graphics/SVG/1.1/DTD/svg11.dtd">
<!-- Generated by graphviz version 9.0.0 (20230911.1827)
 -->
<!-- Title: CallGraph Pages: 1 -->
<svg width="5350pt" height="836pt"
 viewBox="0.00 0.00 5350.38 836.00" xmlns="http://www.w3.org/2000/svg" xmlns:xlink="http://www.w3.org/1999/xlink">
<g id="graph0" class="graph" transform="scale(1 1) rotate(0) translate(4 832)">
<title>CallGraph</title>
<polygon fill="white" stroke="none" points="-4,4 -4,-832 5346.38,-832 5346.38,4 -4,4"/>
<!-- update -->
<g id="node1" class="node">
<title>update</title>
<polygon fill="lightblue" stroke="white" points="59.5,-828 0,-828 0,-792 59.5,-792 59.5,-828"/>
<text text-anchor="middle" x="29.75" y="-804.95" font-family="Arial" font-size="14.00">update</text>
</g>
<!-- settings_params -->
<g id="node2" class="node">
<title>settings_params</title>
<polygon fill="lightblue" stroke="white" points="204.25,-432 83.25,-432 83.25,-396 204.25,-396 204.25,-432"/>
<text text-anchor="middle" x="143.75" y="-408.95" font-family="Arial" font-size="14.00">settings_params</text>
</g>
<!-- update&#45;&gt;settings_params -->
<g id="edge1" class="edge">
<title>update&#45;&gt;settings_params</title>
<path fill="none" stroke="black" d="M34.8,-791.56C52.75,-729.52 113.62,-519.12 135.68,-442.88"/>
<polygon fill="black" stroke="black" points="138.92,-444.27 138.34,-433.69 132.2,-442.32 138.92,-444.27"/>
</g>
<!-- update_authentication_strategy -->
<g id="node3" class="node">
<title>update_authentication_strategy</title>
<polygon fill="lightblue" stroke="white" points="716,-828 503.5,-828 503.5,-792 716,-792 716,-828"/>
<text text-anchor="middle" x="609.75" y="-804.95" font-family="Arial" font-size="14.00">update_authentication_strategy</text>
</g>
<!-- authentication_strategy_params -->
<g id="node4" class="node">
<title>authentication_strategy_params</title>
<polygon fill="lightblue" stroke="white" points="717.88,-432 501.62,-432 501.62,-396 717.88,-396 717.88,-432"/>
<text text-anchor="middle" x="609.75" y="-408.95" font-family="Arial" font-size="14.00">authentication_strategy_params</text>
</g>
<!-- update_authentication_strategy&#45;&gt;authentication_strategy_params -->
<g id="edge2" class="edge">
<title>update_authentication_strategy&#45;&gt;authentication_strategy_params</title>
<path fill="none" stroke="black" d="M609.75,-791.56C609.75,-729.64 609.75,-519.98 609.75,-443.35"/>
<polygon fill="black" stroke="black" points="613.25,-443.75 609.75,-433.75 606.25,-443.75 613.25,-443.75"/>
</g>
<!-- edit -->
<g id="node5" class="node">
<title>edit</title>
<polygon fill="lightblue" stroke="white" points="805.75,-828 751.75,-828 751.75,-792 805.75,-792 805.75,-828"/>
<text text-anchor="middle" x="778.75" y="-804.95" font-family="Arial" font-size="14.00">edit</text>
</g>
<!-- user_import -->
<g id="node6" class="node">
<title>user_import</title>
<polygon fill="lightblue" stroke="white" points="933.62,-828 841.88,-828 841.88,-792 933.62,-792 933.62,-828"/>
<text text-anchor="middle" x="887.75" y="-804.95" font-family="Arial" font-size="14.00">user_import</text>
</g>
<!-- show_localisation_preference -->
<g id="node7" class="node">
<title>show_localisation_preference</title>
<polygon fill="lightblue" stroke="white" points="1174.25,-828 969.25,-828 969.25,-792 1174.25,-792 1174.25,-828"/>
<text text-anchor="middle" x="1071.75" y="-804.95" font-family="Arial" font-size="14.00">show_localisation_preference</text>
</g>
<!-- user_csv_template -->
<g id="node8" class="node">
<title>user_csv_template</title>
<polygon fill="lightblue" stroke="white" points="1347.12,-828 1210.38,-828 1210.38,-792 1347.12,-792 1347.12,-828"/>
<text text-anchor="middle" x="1278.75" y="-804.95" font-family="Arial" font-size="14.00">user_csv_template</text>
</g>
<!-- handle_user_import -->
<g id="node9" class="node">
<title>handle_user_import</title>
<polygon fill="lightblue" stroke="white" points="1524.75,-828 1382.75,-828 1382.75,-792 1524.75,-792 1524.75,-828"/>
<text text-anchor="middle" x="1453.75" y="-804.95" font-family="Arial" font-size="14.00">handle_user_import</text>
</g>
<!-- new -->
<g id="node10" class="node">
<title>new</title>
<polygon fill="lightblue" stroke="white" points="1480.75,-432 1426.75,-432 1426.75,-396 1480.75,-396 1480.75,-432"/>
<text text-anchor="middle" x="1453.75" y="-408.95" font-family="Arial" font-size="14.00">new</text>
</g>
<!-- handle_user_import&#45;&gt;new -->
<g id="edge3" class="edge">
<title>handle_user_import&#45;&gt;new</title>
<path fill="none" stroke="black" d="M1453.75,-791.56C1453.75,-729.64 1453.75,-519.98 1453.75,-443.35"/>
<polygon fill="black" stroke="black" points="1457.25,-443.75 1453.75,-433.75 1450.25,-443.75 1457.25,-443.75"/>
</g>
<!-- general -->
<g id="node11" class="node">
<title>general</title>
<polygon fill="lightblue" stroke="white" points="1624.38,-828 1561.12,-828 1561.12,-792 1624.38,-792 1624.38,-828"/>
<text text-anchor="middle" x="1592.75" y="-804.95" font-family="Arial" font-size="14.00">general</text>
</g>
<!-- customer_img -->
<g id="node12" class="node">
<title>customer_img</title>
<polygon fill="lightblue" stroke="white" points="1767.12,-828 1660.38,-828 1660.38,-792 1767.12,-792 1767.12,-828"/>
<text text-anchor="middle" x="1713.75" y="-804.95" font-family="Arial" font-size="14.00">customer_img</text>
</g>
<!-- update_logo -->
<g id="node13" class="node">
<title>update_logo</title>
<polygon fill="lightblue" stroke="white" points="191.5,-828 96,-828 96,-792 191.5,-792 191.5,-828"/>
<text text-anchor="middle" x="143.75" y="-804.95" font-family="Arial" font-size="14.00">update_logo</text>
</g>
<!-- update_logo&#45;&gt;settings_params -->
<g id="edge4" class="edge">
<title>update_logo&#45;&gt;settings_params</title>
<path fill="none" stroke="black" d="M143.75,-791.56C143.75,-729.64 143.75,-519.98 143.75,-443.35"/>
<polygon fill="black" stroke="black" points="147.25,-443.75 143.75,-433.75 140.25,-443.75 147.25,-443.75"/>
</g>
<!-- update_nickname -->
<g id="node14" class="node">
<title>update_nickname</title>
<polygon fill="lightblue" stroke="white" points="2148.62,-828 2020.88,-828 2020.88,-792 2148.62,-792 2148.62,-828"/>
<text text-anchor="middle" x="2084.75" y="-804.95" font-family="Arial" font-size="14.00">update_nickname</text>
</g>
<!-- settings_general -->
<g id="node15" class="node">
<title>settings_general</title>
<polygon fill="lightblue" stroke="white" points="1944.25,-432 1823.25,-432 1823.25,-396 1944.25,-396 1944.25,-432"/>
<text text-anchor="middle" x="1883.75" y="-408.95" font-family="Arial" font-size="14.00">settings_general</text>
</g>
<!-- update_nickname&#45;&gt;settings_general -->
<g id="edge5" class="edge">
<title>update_nickname&#45;&gt;settings_general</title>
<path fill="none" stroke="black" d="M2075.85,-791.56C2044.14,-729.39 1936.43,-518.26 1897.73,-442.41"/>
<polygon fill="black" stroke="black" points="1900.89,-440.9 1893.23,-433.58 1894.66,-444.08 1900.89,-440.9"/>
</g>
<!-- build_validation_error_or_failure -->
<g id="node16" class="node">
<title>build_validation_error_or_failure</title>
<polygon fill="lightblue" stroke="white" points="2199,-432 1980.5,-432 1980.5,-396 2199,-396 2199,-432"/>
<text text-anchor="middle" x="2089.75" y="-408.95" font-family="Arial" font-size="14.00">build_validation_error_or_failure</text>
</g>
<!-- update_nickname&#45;&gt;build_validation_error_or_failure -->
<g id="edge6" class="edge">
<title>update_nickname&#45;&gt;build_validation_error_or_failure</title>
<path fill="none" stroke="black" d="M2084.97,-791.56C2085.76,-729.64 2088.42,-519.98 2089.39,-443.35"/>
<polygon fill="black" stroke="black" points="2092.88,-443.79 2089.51,-433.75 2085.89,-443.7 2092.88,-443.79"/>
</g>
<!-- update_referent_contact -->
<g id="node17" class="node">
<title>update_referent_contact</title>
<polygon fill="lightblue" stroke="white" points="1974.38,-828 1803.12,-828 1803.12,-792 1974.38,-792 1974.38,-828"/>
<text text-anchor="middle" x="1888.75" y="-804.95" font-family="Arial" font-size="14.00">update_referent_contact</text>
</g>
<!-- update_referent_contact&#45;&gt;settings_general -->
<g id="edge7" class="edge">
<title>update_referent_contact&#45;&gt;settings_general</title>
<path fill="none" stroke="black" d="M1888.53,-791.56C1887.74,-729.64 1885.08,-519.98 1884.11,-443.35"/>
<polygon fill="black" stroke="black" points="1887.61,-443.7 1883.99,-433.75 1880.62,-443.79 1887.61,-443.7"/>
</g>
<!-- update_referent_contact&#45;&gt;build_validation_error_or_failure -->
<g id="edge8" class="edge">
<title>update_referent_contact&#45;&gt;build_validation_error_or_failure</title>
<path fill="none" stroke="black" d="M1897.65,-791.56C1929.36,-729.39 2037.07,-518.26 2075.77,-442.41"/>
<polygon fill="black" stroke="black" points="2078.84,-444.08 2080.27,-433.58 2072.61,-440.9 2078.84,-444.08"/>
</g>
<!-- serve_logo -->
<g id="node18" class="node">
<title>serve_logo</title>
<polygon fill="lightblue" stroke="white" points="2632.38,-828 2545.12,-828 2545.12,-792 2632.38,-792 2632.38,-828"/>
<text text-anchor="middle" x="2588.75" y="-804.95" font-family="Arial" font-size="14.00">serve_logo</text>
</g>
<!-- show -->
<g id="node19" class="node">
<title>show</title>
<polygon fill="lightblue" stroke="white" points="2520.75,-432 2466.75,-432 2466.75,-396 2520.75,-396 2520.75,-432"/>
<text text-anchor="middle" x="2493.75" y="-408.95" font-family="Arial" font-size="14.00">show</text>
</g>
<!-- serve_logo&#45;&gt;show -->
<g id="edge9" class="edge">
<title>serve_logo&#45;&gt;show</title>
<path fill="none" stroke="black" d="M2584.55,-791.56C2569.62,-729.64 2519.06,-519.98 2500.59,-443.35"/>
<polygon fill="black" stroke="black" points="2504.01,-442.61 2498.26,-433.71 2497.2,-444.25 2504.01,-442.61"/>
</g>
<!-- preview -->
<g id="node20" class="node">
<title>preview</title>
<polygon fill="lightblue" stroke="white" points="2621.12,-432 2556.38,-432 2556.38,-396 2621.12,-396 2621.12,-432"/>
<text text-anchor="middle" x="2588.75" y="-408.95" font-family="Arial" font-size="14.00">preview</text>
</g>
<!-- serve_logo&#45;&gt;preview -->
<g id="edge10" class="edge">
<title>serve_logo&#45;&gt;preview</title>
<path fill="none" stroke="black" d="M2588.75,-791.56C2588.75,-729.64 2588.75,-519.98 2588.75,-443.35"/>
<polygon fill="black" stroke="black" points="2592.25,-443.75 2588.75,-433.75 2585.25,-443.75 2592.25,-443.75"/>
</g>
<!-- print -->
<g id="node21" class="node">
<title>print</title>
<polygon fill="lightblue" stroke="white" points="2710.75,-432 2656.75,-432 2656.75,-396 2710.75,-396 2710.75,-432"/>
<text text-anchor="middle" x="2683.75" y="-408.95" font-family="Arial" font-size="14.00">print</text>
</g>
<!-- serve_logo&#45;&gt;print -->
<g id="edge11" class="edge">
<title>serve_logo&#45;&gt;print</title>
<path fill="none" stroke="black" d="M2592.95,-791.56C2607.88,-729.64 2658.44,-519.98 2676.91,-443.35"/>
<polygon fill="black" stroke="black" points="2680.3,-444.25 2679.24,-433.71 2673.49,-442.61 2680.3,-444.25"/>
</g>
<!-- crop_logo -->
<g id="node22" class="node">
<title>crop_logo</title>
<polygon fill="lightblue" stroke="white" points="2749,-828 2668.5,-828 2668.5,-792 2749,-792 2749,-828"/>
<text text-anchor="middle" x="2708.75" y="-804.95" font-family="Arial" font-size="14.00">crop_logo</text>
</g>
<!-- update_crop_logo -->
<g id="node23" class="node">
<title>update_crop_logo</title>
<polygon fill="lightblue" stroke="white" points="2916.88,-828 2784.62,-828 2784.62,-792 2916.88,-792 2916.88,-828"/>
<text text-anchor="middle" x="2850.75" y="-804.95" font-family="Arial" font-size="14.00">update_crop_logo</text>
</g>
<!-- confirm_delete_logo -->
<g id="node24" class="node">
<title>confirm_delete_logo</title>
<polygon fill="lightblue" stroke="white" points="3100.38,-828 2953.12,-828 2953.12,-792 3100.38,-792 3100.38,-828"/>
<text text-anchor="middle" x="3026.75" y="-804.95" font-family="Arial" font-size="14.00">confirm_delete_logo</text>
</g>
<!-- delete_logo -->
<g id="node25" class="node">
<title>delete_logo</title>
<polygon fill="lightblue" stroke="white" points="3228.62,-828 3136.88,-828 3136.88,-792 3228.62,-792 3228.62,-828"/>
<text text-anchor="middle" x="3182.75" y="-804.95" font-family="Arial" font-size="14.00">delete_logo</text>
</g>
<!-- change_time_zone -->
<g id="node26" class="node">
<title>change_time_zone</title>
<polygon fill="lightblue" stroke="white" points="3401.12,-828 3264.38,-828 3264.38,-792 3401.12,-792 3401.12,-828"/>
<text text-anchor="middle" x="3332.75" y="-804.95" font-family="Arial" font-size="14.00">change_time_zone</text>
</g>
<!-- settings_time_zone_params -->
<g id="node27" class="node">
<title>settings_time_zone_params</title>
<polygon fill="lightblue" stroke="white" points="3430.38,-432 3235.12,-432 3235.12,-396 3430.38,-396 3430.38,-432"/>
<text text-anchor="middle" x="3332.75" y="-408.95" font-family="Arial" font-size="14.00">settings_time_zone_params</text>
</g>
<!-- change_time_zone&#45;&gt;settings_time_zone_params -->
<g id="edge12" class="edge">
<title>change_time_zone&#45;&gt;settings_time_zone_params</title>
<path fill="none" stroke="black" d="M3332.75,-791.56C3332.75,-729.64 3332.75,-519.98 3332.75,-443.35"/>
<polygon fill="black" stroke="black" points="3336.25,-443.75 3332.75,-433.75 3329.25,-443.75 3336.25,-443.75"/>
</g>
<!-- change_logo_usage -->
<g id="node28" class="node">
<title>change_logo_usage</title>
<polygon fill="lightblue" stroke="white" points="3641.62,-828 3495.88,-828 3495.88,-792 3641.62,-792 3641.62,-828"/>
<text text-anchor="middle" x="3568.75" y="-804.95" font-family="Arial" font-size="14.00">change_logo_usage</text>
</g>
<!-- settings_logo_usage_params -->
<g id="node29" class="node">
<title>settings_logo_usage_params</title>
<polygon fill="lightblue" stroke="white" points="3670.88,-432 3466.62,-432 3466.62,-396 3670.88,-396 3670.88,-432"/>
<text text-anchor="middle" x="3568.75" y="-408.95" font-family="Arial" font-size="14.00">settings_logo_usage_params</text>
</g>
<!-- change_logo_usage&#45;&gt;settings_logo_usage_params -->
<g id="edge13" class="edge">
<title>change_logo_usage&#45;&gt;settings_logo_usage_params</title>
<path fill="none" stroke="black" d="M3568.75,-791.56C3568.75,-729.64 3568.75,-519.98 3568.75,-443.35"/>
<polygon fill="black" stroke="black" points="3572.25,-443.75 3568.75,-433.75 3565.25,-443.75 3572.25,-443.75"/>
</g>
<!-- edit_print_footer -->
<g id="node30" class="node">
<title>edit_print_footer</title>
<polygon fill="lightblue" stroke="white" points="3867.88,-828 3747.62,-828 3747.62,-792 3867.88,-792 3867.88,-828"/>
<text text-anchor="middle" x="3807.75" y="-804.95" font-family="Arial" font-size="14.00">edit_print_footer</text>
</g>
<!-- settings_print_footer_params -->
<g id="node31" class="node">
<title>settings_print_footer_params</title>
<polygon fill="lightblue" stroke="white" points="3908.75,-432 3706.75,-432 3706.75,-396 3908.75,-396 3908.75,-432"/>
<text text-anchor="middle" x="3807.75" y="-408.95" font-family="Arial" font-size="14.00">settings_print_footer_params</text>
</g>
<!-- edit_print_footer&#45;&gt;settings_print_footer_params -->
<g id="edge14" class="edge">
<title>edit_print_footer&#45;&gt;settings_print_footer_params</title>
<path fill="none" stroke="black" d="M3807.75,-791.56C3807.75,-729.64 3807.75,-519.98 3807.75,-443.35"/>
<polygon fill="black" stroke="black" points="3811.25,-443.75 3807.75,-433.75 3804.25,-443.75 3811.25,-443.75"/>
</g>
<!-- change_approved_read -->
<g id="node32" class="node">
<title>change_approved_read</title>
<polygon fill="lightblue" stroke="white" points="4141.5,-828 3974,-828 3974,-792 4141.5,-792 4141.5,-828"/>
<text text-anchor="middle" x="4057.75" y="-804.95" font-family="Arial" font-size="14.00">change_approved_read</text>
</g>
<!-- settings_approved_read_params -->
<g id="node33" class="node">
<title>settings_approved_read_params</title>
<polygon fill="lightblue" stroke="white" points="4170.75,-432 3944.75,-432 3944.75,-396 4170.75,-396 4170.75,-432"/>
<text text-anchor="middle" x="4057.75" y="-408.95" font-family="Arial" font-size="14.00">settings_approved_read_params</text>
</g>
<!-- change_approved_read&#45;&gt;settings_approved_read_params -->
<g id="edge15" class="edge">
<title>change_approved_read&#45;&gt;settings_approved_read_params</title>
<path fill="none" stroke="black" d="M4057.75,-791.56C4057.75,-729.64 4057.75,-519.98 4057.75,-443.35"/>
<polygon fill="black" stroke="black" points="4061.25,-443.75 4057.75,-433.75 4054.25,-443.75 4061.25,-443.75"/>
</g>
<!-- update_owner_users_management -->
<g id="node34" class="node">
<title>update_owner_users_management</title>
<polygon fill="lightblue" stroke="white" points="467.88,-828 227.62,-828 227.62,-792 467.88,-792 467.88,-828"/>
<text text-anchor="middle" x="347.75" y="-804.95" font-family="Arial" font-size="14.00">update_owner_users_management</text>
</g>
<!-- update_owner_users_management&#45;&gt;settings_params -->
<g id="edge16" class="edge">
<title>update_owner_users_management&#45;&gt;settings_params</title>
<path fill="none" stroke="black" d="M338.72,-791.56C306.53,-729.39 197.21,-518.26 157.94,-442.41"/>
<polygon fill="black" stroke="black" points="161.08,-440.85 153.37,-433.58 154.86,-444.07 161.08,-440.85"/>
</g>
<!-- update_password_policy -->
<g id="node35" class="node">
<title>update_password_policy</title>
<polygon fill="lightblue" stroke="white" points="4393.88,-828 4219.62,-828 4219.62,-792 4393.88,-792 4393.88,-828"/>
<text text-anchor="middle" x="4306.75" y="-804.95" font-family="Arial" font-size="14.00">update_password_policy</text>
</g>
<!-- settings_pwd_policy_params -->
<g id="node36" class="node">
<title>settings_pwd_policy_params</title>
<polygon fill="lightblue" stroke="white" points="4407,-432 4206.5,-432 4206.5,-396 4407,-396 4407,-432"/>
<text text-anchor="middle" x="4306.75" y="-408.95" font-family="Arial" font-size="14.00">settings_pwd_policy_params</text>
</g>
<!-- update_password_policy&#45;&gt;settings_pwd_policy_params -->
<g id="edge17" class="edge">
<title>update_password_policy&#45;&gt;settings_pwd_policy_params</title>
<path fill="none" stroke="black" d="M4306.75,-791.56C4306.75,-729.64 4306.75,-519.98 4306.75,-443.35"/>
<polygon fill="black" stroke="black" points="4310.25,-443.75 4306.75,-433.75 4303.25,-443.75 4310.25,-443.75"/>
</g>
<!-- update_user_deactivation -->
<g id="node37" class="node">
<title>update_user_deactivation</title>
<polygon fill="lightblue" stroke="white" points="4624.12,-828 4445.38,-828 4445.38,-792 4624.12,-792 4624.12,-828"/>
<text text-anchor="middle" x="4534.75" y="-804.95" font-family="Arial" font-size="14.00">update_user_deactivation</text>
</g>
<!-- user_deactivation_params -->
<g id="node38" class="node">
<title>user_deactivation_params</title>
<polygon fill="lightblue" stroke="white" points="4626,-432 4443.5,-432 4443.5,-396 4626,-396 4626,-432"/>
<text text-anchor="middle" x="4534.75" y="-408.95" font-family="Arial" font-size="14.00">user_deactivation_params</text>
</g>
<!-- update_user_deactivation&#45;&gt;user_deactivation_params -->
<g id="edge18" class="edge">
<title>update_user_deactivation&#45;&gt;user_deactivation_params</title>
<path fill="none" stroke="black" d="M4534.75,-791.56C4534.75,-729.64 4534.75,-519.98 4534.75,-443.35"/>
<polygon fill="black" stroke="black" points="4538.25,-443.75 4534.75,-433.75 4531.25,-443.75 4538.25,-443.75"/>
</g>
<!-- update_deactivation_period -->
<g id="node39" class="node">
<title>update_deactivation_period</title>
<polygon fill="lightblue" stroke="white" points="2402.5,-828 2211,-828 2211,-792 2402.5,-792 2402.5,-828"/>
<text text-anchor="middle" x="2306.75" y="-804.95" font-family="Arial" font-size="14.00">update_deactivation_period</text>
</g>
<!-- update_deactivation_period&#45;&gt;build_validation_error_or_failure -->
<g id="edge20" class="edge">
<title>update_deactivation_period&#45;&gt;build_validation_error_or_failure</title>
<path fill="none" stroke="black" d="M2297.15,-791.56C2262.83,-729.26 2146.14,-517.39 2104.59,-441.95"/>
<polygon fill="black" stroke="black" points="2107.86,-440.63 2099.97,-433.56 2101.73,-444.01 2107.86,-440.63"/>
</g>
<!-- deactivation_period_params -->
<g id="node40" class="node">
<title>deactivation_period_params</title>
<polygon fill="lightblue" stroke="white" points="2430.38,-432 2235.12,-432 2235.12,-396 2430.38,-396 2430.38,-432"/>
<text text-anchor="middle" x="2332.75" y="-408.95" font-family="Arial" font-size="14.00">deactivation_period_params</text>
</g>
<!-- update_deactivation_period&#45;&gt;deactivation_period_params -->
<g id="edge19" class="edge">
<title>update_deactivation_period&#45;&gt;deactivation_period_params</title>
<path fill="none" stroke="black" d="M2307.9,-791.56C2311.99,-729.64 2325.82,-519.98 2330.88,-443.35"/>
<polygon fill="black" stroke="black" points="2334.35,-443.96 2331.51,-433.75 2327.36,-443.49 2334.35,-443.96"/>
</g>
<!-- update_colors -->
<g id="node41" class="node">
<title>update_colors</title>
<polygon fill="lightblue" stroke="white" points="4767.12,-828 4660.38,-828 4660.38,-792 4767.12,-792 4767.12,-828"/>
<text text-anchor="middle" x="4713.75" y="-804.95" font-family="Arial" font-size="14.00">update_colors</text>
</g>
<!-- colors -->
<g id="node42" class="node">
<title>colors</title>
<polygon fill="lightblue" stroke="white" points="4864.25,-432 4809.25,-432 4809.25,-396 4864.25,-396 4864.25,-432"/>
<text text-anchor="middle" x="4836.75" y="-408.95" font-family="Arial" font-size="14.00">colors</text>
</g>
<!-- update_colors&#45;&gt;colors -->
<g id="edge21" class="edge">
<title>update_colors&#45;&gt;colors</title>
<path fill="none" stroke="black" d="M4719.19,-791.56C4738.56,-729.52 4804.25,-519.12 4828.05,-442.88"/>
<polygon fill="black" stroke="black" points="4831.28,-444.27 4830.92,-433.68 4824.6,-442.18 4831.28,-444.27"/>
</g>
<!-- colors&#45;&gt;colors -->
<g id="edge26" class="edge">
<title>colors&#45;&gt;colors</title>
<path fill="none" stroke="black" d="M4841.23,-432.41C4863.35,-512.56 4900.25,-506.43 4900.25,-414 4900.25,-325.91 4866.73,-316.2 4844.43,-384.88"/>
<polygon fill="black" stroke="black" points="4841.18,-383.55 4841.66,-394.14 4847.88,-385.56 4841.18,-383.55"/>
</g>
<!-- all -->
<g id="node46" class="node">
<title>all</title>
<polygon fill="lightblue" stroke="white" points="4863.75,-36 4809.75,-36 4809.75,0 4863.75,0 4863.75,-36"/>
<text text-anchor="middle" x="4836.75" y="-12.95" font-family="Arial" font-size="14.00">all</text>
</g>
<!-- colors&#45;&gt;all -->
<g id="edge25" class="edge">
<title>colors&#45;&gt;all</title>
<path fill="none" stroke="black" d="M4836.75,-395.56C4836.75,-333.64 4836.75,-123.98 4836.75,-47.35"/>
<polygon fill="black" stroke="black" points="4840.25,-47.75 4836.75,-37.75 4833.25,-47.75 4840.25,-47.75"/>
</g>
<!-- toggle_color -->
<g id="node43" class="node">
<title>toggle_color</title>
<polygon fill="lightblue" stroke="white" points="5057.5,-828 4962,-828 4962,-792 5057.5,-792 5057.5,-828"/>
<text text-anchor="middle" x="5009.75" y="-804.95" font-family="Arial" font-size="14.00">toggle_color</text>
</g>
<!-- toggle_color&#45;&gt;colors -->
<g id="edge23" class="edge">
<title>toggle_color&#45;&gt;colors</title>
<path fill="none" stroke="black" d="M5002.09,-791.56C4974.79,-729.39 4882.09,-518.26 4848.79,-442.41"/>
<polygon fill="black" stroke="black" points="4852.15,-441.37 4844.93,-433.62 4845.74,-444.19 4852.15,-441.37"/>
</g>
<!-- settings_palette_color_params -->
<g id="node44" class="node">
<title>settings_palette_color_params</title>
<polygon fill="lightblue" stroke="white" points="5129.62,-432 4917.88,-432 4917.88,-396 5129.62,-396 5129.62,-432"/>
<text text-anchor="middle" x="5023.75" y="-408.95" font-family="Arial" font-size="14.00">settings_palette_color_params</text>
</g>
<!-- toggle_color&#45;&gt;settings_palette_color_params -->
<g id="edge22" class="edge">
<title>toggle_color&#45;&gt;settings_palette_color_params</title>
<path fill="none" stroke="black" d="M5010.37,-791.56C5012.57,-729.64 5020.02,-519.98 5022.74,-443.35"/>
<polygon fill="black" stroke="black" points="5026.23,-443.87 5023.08,-433.75 5019.23,-443.62 5026.23,-443.87"/>
</g>
<!-- delete_color -->
<g id="node45" class="node">
<title>delete_color</title>
<polygon fill="lightblue" stroke="white" points="4898.5,-828 4803,-828 4803,-792 4898.5,-792 4898.5,-828"/>
<text text-anchor="middle" x="4850.75" y="-804.95" font-family="Arial" font-size="14.00">delete_color</text>
</g>
<!-- delete_color&#45;&gt;colors -->
<g id="edge24" class="edge">
<title>delete_color&#45;&gt;colors</title>
<path fill="none" stroke="black" d="M4850.13,-791.56C4847.93,-729.64 4840.48,-519.98 4837.76,-443.35"/>
<polygon fill="black" stroke="black" points="4841.27,-443.62 4837.42,-433.75 4834.27,-443.87 4841.27,-443.62"/>
</g>
<!-- load_and_authorize_settings_update -->
<g id="node47" class="node">
<title>load_and_authorize_settings_update</title>
<polygon fill="lightblue" stroke="white" points="5342.38,-828 5093.12,-828 5093.12,-792 5342.38,-792 5342.38,-828"/>
<text text-anchor="middle" x="5217.75" y="-804.95" font-family="Arial" font-size="14.00">load_and_authorize_settings_update</text>
</g>
</g>
</svg>
