<?xml version="1.0" encoding="UTF-8" standalone="no"?>
<!DOCTYPE svg PUBLIC "-//W3C//DTD SVG 1.1//EN"
 "http://www.w3.org/Graphics/SVG/1.1/DTD/svg11.dtd">
<!-- Generated by graphviz version 9.0.0 (20230911.1827)
 -->
<!-- Title: CallGraph Pages: 1 -->
<svg width="680pt" height="497pt"
 viewBox="0.00 0.00 680.38 496.69" xmlns="http://www.w3.org/2000/svg" xmlns:xlink="http://www.w3.org/1999/xlink">
<g id="graph0" class="graph" transform="scale(1 1) rotate(0) translate(4 492.69)">
<title>CallGraph</title>
<polygon fill="white" stroke="none" points="-4,4 -4,-492.69 676.38,-492.69 676.38,4 -4,4"/>
<!-- new -->
<g id="node1" class="node">
<title>new</title>
<polygon fill="lightblue" stroke="white" points="92.62,-432 38.62,-432 38.62,-396 92.62,-396 92.62,-432"/>
<text text-anchor="middle" x="65.62" y="-408.95" font-family="Arial" font-size="14.00">new</text>
</g>
<!-- new&#45;&gt;new -->
<g id="edge1" class="edge">
<title>new&#45;&gt;new</title>
<path fill="none" stroke="black" d="M70.07,-432.41C92.02,-512.56 128.62,-506.43 128.62,-414 128.62,-325.91 95.37,-316.2 73.25,-384.88"/>
<polygon fill="black" stroke="black" points="69.99,-383.55 70.5,-394.14 76.7,-385.55 69.99,-383.55"/>
</g>
<!-- create -->
<g id="node2" class="node">
<title>create</title>
<polygon fill="lightblue" stroke="white" points="202.5,-432 146.75,-432 146.75,-396 202.5,-396 202.5,-432"/>
<text text-anchor="middle" x="174.62" y="-408.95" font-family="Arial" font-size="14.00">create</text>
</g>
<!-- save -->
<g id="node3" class="node">
<title>save</title>
<polygon fill="lightblue" stroke="white" points="201.62,-36 147.62,-36 147.62,0 201.62,0 201.62,-36"/>
<text text-anchor="middle" x="174.62" y="-12.95" font-family="Arial" font-size="14.00">save</text>
</g>
<!-- create&#45;&gt;save -->
<g id="edge2" class="edge">
<title>create&#45;&gt;save</title>
<path fill="none" stroke="black" d="M174.62,-395.56C174.62,-333.64 174.62,-123.98 174.62,-47.35"/>
<polygon fill="black" stroke="black" points="178.13,-47.75 174.63,-37.75 171.13,-47.75 178.13,-47.75"/>
</g>
<!-- create_params -->
<g id="node4" class="node">
<title>create_params</title>
<polygon fill="lightblue" stroke="white" points="111.25,-36 0,-36 0,0 111.25,0 111.25,-36"/>
<text text-anchor="middle" x="55.62" y="-12.95" font-family="Arial" font-size="14.00">create_params</text>
</g>
<!-- create&#45;&gt;create_params -->
<g id="edge3" class="edge">
<title>create&#45;&gt;create_params</title>
<path fill="none" stroke="black" d="M169.36,-395.56C150.62,-333.52 87.07,-123.12 64.05,-46.88"/>
<polygon fill="black" stroke="black" points="67.51,-46.25 61.27,-37.69 60.81,-48.27 67.51,-46.25"/>
</g>
<!-- generate_url -->
<g id="node5" class="node">
<title>generate_url</title>
<polygon fill="lightblue" stroke="white" points="333.38,-36 237.88,-36 237.88,0 333.38,0 333.38,-36"/>
<text text-anchor="middle" x="285.62" y="-12.95" font-family="Arial" font-size="14.00">generate_url</text>
</g>
<!-- create&#45;&gt;generate_url -->
<g id="edge4" class="edge">
<title>create&#45;&gt;generate_url</title>
<path fill="none" stroke="black" d="M179.54,-395.56C197.02,-333.52 256.29,-123.12 277.77,-46.88"/>
<polygon fill="black" stroke="black" points="281.02,-48.27 280.36,-37.69 274.28,-46.37 281.02,-48.27"/>
</g>
<!-- signup_params -->
<g id="node6" class="node">
<title>signup_params</title>
<polygon fill="lightblue" stroke="white" points="483.38,-36 369.88,-36 369.88,0 483.38,0 483.38,-36"/>
<text text-anchor="middle" x="426.62" y="-12.95" font-family="Arial" font-size="14.00">signup_params</text>
</g>
<!-- create&#45;&gt;signup_params -->
<g id="edge5" class="edge">
<title>create&#45;&gt;signup_params</title>
<path fill="none" stroke="black" d="M185.78,-395.56C225.71,-333.13 361.69,-120.52 409.68,-45.49"/>
<polygon fill="black" stroke="black" points="412.35,-47.82 414.78,-37.51 406.45,-44.05 412.35,-47.82"/>
</g>
<!-- remote_host -->
<g id="node7" class="node">
<title>remote_host</title>
<polygon fill="lightblue" stroke="white" points="639.75,-36 543.5,-36 543.5,0 639.75,0 639.75,-36"/>
<text text-anchor="middle" x="591.62" y="-12.95" font-family="Arial" font-size="14.00">remote_host</text>
</g>
<!-- authorize_remote_host -->
<g id="node8" class="node">
<title>authorize_remote_host</title>
<polygon fill="lightblue" stroke="white" points="522.38,-432 360.88,-432 360.88,-396 522.38,-396 522.38,-432"/>
<text text-anchor="middle" x="441.62" y="-408.95" font-family="Arial" font-size="14.00">authorize_remote_host</text>
</g>
<!-- authorize_remote_host&#45;&gt;generate_url -->
<g id="edge7" class="edge">
<title>authorize_remote_host&#45;&gt;generate_url</title>
<path fill="none" stroke="black" d="M434.72,-395.56C410.15,-333.52 326.85,-123.12 296.66,-46.88"/>
<polygon fill="black" stroke="black" points="299.94,-45.65 293.01,-37.64 293.43,-48.23 299.94,-45.65"/>
</g>
<!-- authorize_remote_host&#45;&gt;signup_params -->
<g id="edge8" class="edge">
<title>authorize_remote_host&#45;&gt;signup_params</title>
<path fill="none" stroke="black" d="M440.96,-395.56C438.6,-333.64 430.62,-123.98 427.7,-47.35"/>
<polygon fill="black" stroke="black" points="431.22,-47.61 427.34,-37.75 424.22,-47.88 431.22,-47.61"/>
</g>
<!-- authorize_remote_host&#45;&gt;remote_host -->
<g id="edge6" class="edge">
<title>authorize_remote_host&#45;&gt;remote_host</title>
<path fill="none" stroke="black" d="M448.26,-395.56C471.89,-333.52 551.99,-123.12 581.01,-46.88"/>
<polygon fill="black" stroke="black" points="584.24,-48.24 584.52,-37.65 577.7,-45.75 584.24,-48.24"/>
</g>
<!-- set_signup -->
<g id="node9" class="node">
<title>set_signup</title>
<polygon fill="lightblue" stroke="white" points="324.5,-432 238.75,-432 238.75,-396 324.5,-396 324.5,-432"/>
<text text-anchor="middle" x="281.62" y="-408.95" font-family="Arial" font-size="14.00">set_signup</text>
</g>
<!-- set_signup&#45;&gt;signup_params -->
<g id="edge9" class="edge">
<title>set_signup&#45;&gt;signup_params</title>
<path fill="none" stroke="black" d="M288.04,-395.56C310.88,-333.52 388.31,-123.12 416.36,-46.88"/>
<polygon fill="black" stroke="black" points="419.59,-48.25 419.76,-37.66 413.02,-45.83 419.59,-48.25"/>
</g>
<!-- log_registration -->
<g id="node10" class="node">
<title>log_registration</title>
<polygon fill="lightblue" stroke="white" points="672.38,-432 558.88,-432 558.88,-396 672.38,-396 672.38,-432"/>
<text text-anchor="middle" x="615.62" y="-408.95" font-family="Arial" font-size="14.00">log_registration</text>
</g>
<!-- log_registration&#45;&gt;remote_host -->
<g id="edge10" class="edge">
<title>log_registration&#45;&gt;remote_host</title>
<path fill="none" stroke="black" d="M614.56,-395.56C610.79,-333.64 598.02,-123.98 593.35,-47.35"/>
<polygon fill="black" stroke="black" points="596.87,-47.52 592.77,-37.75 589.88,-47.94 596.87,-47.52"/>
</g>
</g>
</svg>
