<?xml version="1.0" encoding="UTF-8" standalone="no"?>
<!DOCTYPE svg PUBLIC "-//W3C//DTD SVG 1.1//EN"
 "http://www.w3.org/Graphics/SVG/1.1/DTD/svg11.dtd">
<!-- Generated by graphviz version 9.0.0 (20230911.1827)
 -->
<!-- Title: CallGraph Pages: 1 -->
<svg width="624pt" height="440pt"
 viewBox="0.00 0.00 624.25 440.00" xmlns="http://www.w3.org/2000/svg" xmlns:xlink="http://www.w3.org/1999/xlink">
<g id="graph0" class="graph" transform="scale(1 1) rotate(0) translate(4 436)">
<title>CallGraph</title>
<polygon fill="white" stroke="none" points="-4,4 -4,-436 620.25,-436 620.25,4 -4,4"/>
<!-- user_not_authorized -->
<g id="node1" class="node">
<title>user_not_authorized</title>
<polygon fill="lightblue" stroke="white" points="145,-432 0,-432 0,-396 145,-396 145,-432"/>
<text text-anchor="middle" x="72.5" y="-408.95" font-family="Arial" font-size="14.00">user_not_authorized</text>
</g>
<!-- index -->
<g id="node2" class="node">
<title>index</title>
<polygon fill="lightblue" stroke="white" points="235.5,-432 181.5,-432 181.5,-396 235.5,-396 235.5,-432"/>
<text text-anchor="middle" x="208.5" y="-408.95" font-family="Arial" font-size="14.00">index</text>
</g>
<!-- check_improver_access -->
<g id="node3" class="node">
<title>check_improver_access</title>
<polygon fill="lightblue" stroke="white" points="443.12,-432 271.88,-432 271.88,-396 443.12,-396 443.12,-432"/>
<text text-anchor="middle" x="357.5" y="-408.95" font-family="Arial" font-size="14.00">check_improver_access</text>
</g>
<!-- respond_unauthorized -->
<g id="node4" class="node">
<title>respond_unauthorized</title>
<polygon fill="lightblue" stroke="white" points="531,-36 374,-36 374,0 531,0 531,-36"/>
<text text-anchor="middle" x="452.5" y="-12.95" font-family="Arial" font-size="14.00">respond_unauthorized</text>
</g>
<!-- check_improver_access&#45;&gt;respond_unauthorized -->
<g id="edge1" class="edge">
<title>check_improver_access&#45;&gt;respond_unauthorized</title>
<path fill="none" stroke="black" d="M361.7,-395.56C376.63,-333.64 427.19,-123.98 445.66,-47.35"/>
<polygon fill="black" stroke="black" points="449.05,-48.25 447.99,-37.71 442.24,-46.61 449.05,-48.25"/>
</g>
<!-- check_risk_access -->
<g id="node5" class="node">
<title>check_risk_access</title>
<polygon fill="lightblue" stroke="white" points="616.25,-432 478.75,-432 478.75,-396 616.25,-396 616.25,-432"/>
<text text-anchor="middle" x="547.5" y="-408.95" font-family="Arial" font-size="14.00">check_risk_access</text>
</g>
<!-- check_risk_access&#45;&gt;respond_unauthorized -->
<g id="edge2" class="edge">
<title>check_risk_access&#45;&gt;respond_unauthorized</title>
<path fill="none" stroke="black" d="M543.3,-395.56C528.37,-333.64 477.81,-123.98 459.34,-47.35"/>
<polygon fill="black" stroke="black" points="462.76,-46.61 457.01,-37.71 455.95,-48.25 462.76,-46.61"/>
</g>
</g>
</svg>
