<?xml version="1.0" encoding="UTF-8" standalone="no"?>
<!DOCTYPE svg PUBLIC "-//W3C//DTD SVG 1.1//EN"
 "http://www.w3.org/Graphics/SVG/1.1/DTD/svg11.dtd">
<!-- Generated by graphviz version 9.0.0 (20230911.1827)
 -->
<!-- Title: CallGraph Pages: 1 -->
<svg width="304pt" height="440pt"
 viewBox="0.00 0.00 304.25 440.00" xmlns="http://www.w3.org/2000/svg" xmlns:xlink="http://www.w3.org/1999/xlink">
<g id="graph0" class="graph" transform="scale(1 1) rotate(0) translate(4 436)">
<title>CallGraph</title>
<polygon fill="white" stroke="none" points="-4,4 -4,-436 300.25,-436 300.25,4 -4,4"/>
<!-- edit -->
<g id="node1" class="node">
<title>edit</title>
<polygon fill="lightblue" stroke="white" points="54,-432 0,-432 0,-396 54,-396 54,-432"/>
<text text-anchor="middle" x="27" y="-408.95" font-family="Arial" font-size="14.00">edit</text>
</g>
<!-- update -->
<g id="node2" class="node">
<title>update</title>
<polygon fill="lightblue" stroke="white" points="149.75,-432 90.25,-432 90.25,-396 149.75,-396 149.75,-432"/>
<text text-anchor="middle" x="120" y="-408.95" font-family="Arial" font-size="14.00">update</text>
</g>
<!-- sso_settings_params -->
<g id="node3" class="node">
<title>sso_settings_params</title>
<polygon fill="lightblue" stroke="white" points="196.25,-36 43.75,-36 43.75,0 196.25,0 196.25,-36"/>
<text text-anchor="middle" x="120" y="-12.95" font-family="Arial" font-size="14.00">sso_settings_params</text>
</g>
<!-- update&#45;&gt;sso_settings_params -->
<g id="edge1" class="edge">
<title>update&#45;&gt;sso_settings_params</title>
<path fill="none" stroke="black" d="M120,-395.56C120,-333.64 120,-123.98 120,-47.35"/>
<polygon fill="black" stroke="black" points="123.5,-47.75 120,-37.75 116.5,-47.75 123.5,-47.75"/>
</g>
<!-- check_policies -->
<g id="node4" class="node">
<title>check_policies</title>
<polygon fill="lightblue" stroke="white" points="296.25,-432 185.75,-432 185.75,-396 296.25,-396 296.25,-432"/>
<text text-anchor="middle" x="241" y="-408.95" font-family="Arial" font-size="14.00">check_policies</text>
</g>
</g>
</svg>
