<?xml version="1.0" encoding="UTF-8" standalone="no"?>
<!DOCTYPE svg PUBLIC "-//W3C//DTD SVG 1.1//EN"
 "http://www.w3.org/Graphics/SVG/1.1/DTD/svg11.dtd">
<!-- Generated by graphviz version 9.0.0 (20230911.1827)
 -->
<!-- Title: CallGraph Pages: 1 -->
<svg width="851pt" height="497pt"
 viewBox="0.00 0.00 850.62 496.69" xmlns="http://www.w3.org/2000/svg" xmlns:xlink="http://www.w3.org/1999/xlink">
<g id="graph0" class="graph" transform="scale(1 1) rotate(0) translate(4 492.69)">
<title>CallGraph</title>
<polygon fill="white" stroke="none" points="-4,4 -4,-492.69 846.62,-492.69 846.62,4 -4,4"/>
<!-- index -->
<g id="node1" class="node">
<title>index</title>
<polygon fill="lightblue" stroke="white" points="54,-432 0,-432 0,-396 54,-396 54,-432"/>
<text text-anchor="middle" x="27" y="-408.95" font-family="Arial" font-size="14.00">index</text>
</g>
<!-- show -->
<g id="node2" class="node">
<title>show</title>
<polygon fill="lightblue" stroke="white" points="144,-432 90,-432 90,-396 144,-396 144,-432"/>
<text text-anchor="middle" x="117" y="-408.95" font-family="Arial" font-size="14.00">show</text>
</g>
<!-- new -->
<g id="node3" class="node">
<title>new</title>
<polygon fill="lightblue" stroke="white" points="234,-432 180,-432 180,-396 234,-396 234,-432"/>
<text text-anchor="middle" x="207" y="-408.95" font-family="Arial" font-size="14.00">new</text>
</g>
<!-- new&#45;&gt;new -->
<g id="edge1" class="edge">
<title>new&#45;&gt;new</title>
<path fill="none" stroke="black" d="M211.44,-432.41C233.39,-512.56 270,-506.43 270,-414 270,-325.91 236.74,-316.2 214.62,-384.88"/>
<polygon fill="black" stroke="black" points="211.37,-383.55 211.87,-394.14 218.08,-385.55 211.37,-383.55"/>
</g>
<!-- create -->
<g id="node4" class="node">
<title>create</title>
<polygon fill="lightblue" stroke="white" points="343.88,-432 288.12,-432 288.12,-396 343.88,-396 343.88,-432"/>
<text text-anchor="middle" x="316" y="-408.95" font-family="Arial" font-size="14.00">create</text>
</g>
<!-- save -->
<g id="node5" class="node">
<title>save</title>
<polygon fill="lightblue" stroke="white" points="391,-36 337,-36 337,0 391,0 391,-36"/>
<text text-anchor="middle" x="364" y="-12.95" font-family="Arial" font-size="14.00">save</text>
</g>
<!-- create&#45;&gt;save -->
<g id="edge2" class="edge">
<title>create&#45;&gt;save</title>
<path fill="none" stroke="black" d="M318.12,-395.56C325.67,-333.64 351.21,-123.98 360.55,-47.35"/>
<polygon fill="black" stroke="black" points="363.98,-48.09 361.72,-37.74 357.03,-47.24 363.98,-48.09"/>
</g>
<!-- confirm_rename -->
<g id="node6" class="node">
<title>confirm_rename</title>
<polygon fill="lightblue" stroke="white" points="599.75,-432 480.25,-432 480.25,-396 599.75,-396 599.75,-432"/>
<text text-anchor="middle" x="540" y="-408.95" font-family="Arial" font-size="14.00">confirm_rename</text>
</g>
<!-- rename -->
<g id="node7" class="node">
<title>rename</title>
<polygon fill="lightblue" stroke="white" points="444,-432 380,-432 380,-396 444,-396 444,-432"/>
<text text-anchor="middle" x="412" y="-408.95" font-family="Arial" font-size="14.00">rename</text>
</g>
<!-- rename&#45;&gt;save -->
<g id="edge3" class="edge">
<title>rename&#45;&gt;save</title>
<path fill="none" stroke="black" d="M409.88,-395.56C402.33,-333.64 376.79,-123.98 367.45,-47.35"/>
<polygon fill="black" stroke="black" points="370.97,-47.24 366.28,-37.74 364.02,-48.09 370.97,-47.24"/>
</g>
<!-- confirm_delete -->
<g id="node8" class="node">
<title>confirm_delete</title>
<polygon fill="lightblue" stroke="white" points="746.62,-432 635.38,-432 635.38,-396 746.62,-396 746.62,-432"/>
<text text-anchor="middle" x="691" y="-408.95" font-family="Arial" font-size="14.00">confirm_delete</text>
</g>
<!-- delete -->
<g id="node9" class="node">
<title>delete</title>
<polygon fill="lightblue" stroke="white" points="838.88,-432 783.12,-432 783.12,-396 838.88,-396 838.88,-432"/>
<text text-anchor="middle" x="811" y="-408.95" font-family="Arial" font-size="14.00">delete</text>
</g>
<!-- destroy -->
<g id="node10" class="node">
<title>destroy</title>
<polygon fill="lightblue" stroke="white" points="842.62,-36 779.38,-36 779.38,0 842.62,0 842.62,-36"/>
<text text-anchor="middle" x="811" y="-12.95" font-family="Arial" font-size="14.00">destroy</text>
</g>
<!-- delete&#45;&gt;destroy -->
<g id="edge4" class="edge">
<title>delete&#45;&gt;destroy</title>
<path fill="none" stroke="black" d="M811,-395.56C811,-333.64 811,-123.98 811,-47.35"/>
<polygon fill="black" stroke="black" points="814.5,-47.75 811,-37.75 807.5,-47.75 814.5,-47.75"/>
</g>
</g>
</svg>
