<?xml version="1.0" encoding="UTF-8" standalone="no"?>
<!DOCTYPE svg PUBLIC "-//W3C//DTD SVG 1.1//EN"
 "http://www.w3.org/Graphics/SVG/1.1/DTD/svg11.dtd">
<!-- Generated by graphviz version 9.0.0 (20230911.1827)
 -->
<!-- Title: CallGraph Pages: 1 -->
<svg width="826pt" height="1232pt"
 viewBox="0.00 0.00 825.75 1232.00" xmlns="http://www.w3.org/2000/svg" xmlns:xlink="http://www.w3.org/1999/xlink">
<g id="graph0" class="graph" transform="scale(1 1) rotate(0) translate(4 1228)">
<title>CallGraph</title>
<polygon fill="white" stroke="none" points="-4,4 -4,-1228 821.75,-1228 821.75,4 -4,4"/>
<!-- index -->
<g id="node1" class="node">
<title>index</title>
<polygon fill="lightblue" stroke="white" points="395.38,-1224 341.38,-1224 341.38,-1188 395.38,-1188 395.38,-1224"/>
<text text-anchor="middle" x="368.38" y="-1200.95" font-family="Arial" font-size="14.00">index</text>
</g>
<!-- tasks_for_graph -->
<g id="node2" class="node">
<title>tasks_for_graph</title>
<polygon fill="lightblue" stroke="white" points="118.75,-36 0,-36 0,0 118.75,0 118.75,-36"/>
<text text-anchor="middle" x="59.38" y="-12.95" font-family="Arial" font-size="14.00">tasks_for_graph</text>
</g>
<!-- index&#45;&gt;tasks_for_graph -->
<g id="edge1" class="edge">
<title>index&#45;&gt;tasks_for_graph</title>
<path fill="none" stroke="black" d="M354.38,-1187.51C314.06,-1136.05 197.38,-979.27 147.38,-828 50.65,-535.42 54.87,-154.13 58.23,-47.69"/>
<polygon fill="black" stroke="black" points="61.72,-47.99 58.57,-37.87 54.73,-47.74 61.72,-47.99"/>
</g>
<!-- tasks_for_document -->
<g id="node3" class="node">
<title>tasks_for_document</title>
<polygon fill="lightblue" stroke="white" points="316.25,-36 170.5,-36 170.5,0 316.25,0 316.25,-36"/>
<text text-anchor="middle" x="243.38" y="-12.95" font-family="Arial" font-size="14.00">tasks_for_document</text>
</g>
<!-- index&#45;&gt;tasks_for_document -->
<g id="edge2" class="edge">
<title>index&#45;&gt;tasks_for_document</title>
<path fill="none" stroke="black" d="M366.56,-1187.78C352.72,-1056.47 263.95,-214.21 246.39,-47.61"/>
<polygon fill="black" stroke="black" points="249.9,-47.48 245.37,-37.9 242.93,-48.21 249.9,-47.48"/>
</g>
<!-- tasks_for_event -->
<g id="node4" class="node">
<title>tasks_for_event</title>
<polygon fill="lightblue" stroke="white" points="478,-36 360.75,-36 360.75,0 478,0 478,-36"/>
<text text-anchor="middle" x="419.38" y="-12.95" font-family="Arial" font-size="14.00">tasks_for_event</text>
</g>
<!-- index&#45;&gt;tasks_for_event -->
<g id="edge3" class="edge">
<title>index&#45;&gt;tasks_for_event</title>
<path fill="none" stroke="black" d="M369.12,-1187.78C374.76,-1056.53 410.94,-215.06 418.13,-47.86"/>
<polygon fill="black" stroke="black" points="421.63,-48.05 418.56,-37.9 414.64,-47.75 421.63,-48.05"/>
</g>
<!-- tasks_for_audit -->
<g id="node5" class="node">
<title>tasks_for_audit</title>
<polygon fill="lightblue" stroke="white" points="633.75,-36 521,-36 521,0 633.75,0 633.75,-36"/>
<text text-anchor="middle" x="577.38" y="-12.95" font-family="Arial" font-size="14.00">tasks_for_audit</text>
</g>
<!-- index&#45;&gt;tasks_for_audit -->
<g id="edge4" class="edge">
<title>index&#45;&gt;tasks_for_audit</title>
<path fill="none" stroke="black" d="M378.66,-1187.66C427.56,-1103.38 633.46,-727.19 616.38,-396 609.64,-265.39 589.85,-110.35 581.34,-47.53"/>
<polygon fill="black" stroke="black" points="584.83,-47.17 580,-37.74 577.89,-48.12 584.83,-47.17"/>
</g>
<!-- tasks_for_act -->
<g id="node6" class="node">
<title>tasks_for_act</title>
<polygon fill="lightblue" stroke="white" points="774.12,-36 672.62,-36 672.62,0 774.12,0 774.12,-36"/>
<text text-anchor="middle" x="723.38" y="-12.95" font-family="Arial" font-size="14.00">tasks_for_act</text>
</g>
<!-- index&#45;&gt;tasks_for_act -->
<g id="edge5" class="edge">
<title>index&#45;&gt;tasks_for_act</title>
<path fill="none" stroke="black" d="M380.89,-1187.58C417.55,-1135.7 525.37,-976.53 578.38,-828 682.98,-534.88 714.6,-153.97 721.66,-47.65"/>
<polygon fill="black" stroke="black" points="725.14,-48.05 722.29,-37.85 718.16,-47.6 725.14,-48.05"/>
</g>
<!-- tasks_for_improver -->
<g id="node7" class="node">
<title>tasks_for_improver</title>
<polygon fill="lightblue" stroke="white" points="598.5,-432 460.25,-432 460.25,-396 598.5,-396 598.5,-432"/>
<text text-anchor="middle" x="529.38" y="-408.95" font-family="Arial" font-size="14.00">tasks_for_improver</text>
</g>
<!-- index&#45;&gt;tasks_for_improver -->
<g id="edge6" class="edge">
<title>index&#45;&gt;tasks_for_improver</title>
<path fill="none" stroke="black" d="M371.89,-1187.77C392.49,-1086.67 497.64,-570.74 523.58,-443.43"/>
<polygon fill="black" stroke="black" points="526.97,-444.33 525.54,-433.83 520.11,-442.93 526.97,-444.33"/>
</g>
<!-- tasks_for_process -->
<g id="node8" class="node">
<title>tasks_for_process</title>
<polygon fill="lightblue" stroke="white" points="258.62,-432 124.12,-432 124.12,-396 258.62,-396 258.62,-432"/>
<text text-anchor="middle" x="191.38" y="-408.95" font-family="Arial" font-size="14.00">tasks_for_process</text>
</g>
<!-- index&#45;&gt;tasks_for_process -->
<g id="edge7" class="edge">
<title>index&#45;&gt;tasks_for_process</title>
<path fill="none" stroke="black" d="M354.57,-1187.56C314.92,-1136.23 201.13,-979.76 162.38,-828 126.38,-687.08 165.41,-510.9 183.35,-443.25"/>
<polygon fill="black" stroke="black" points="186.69,-444.29 185.93,-433.72 179.93,-442.46 186.69,-444.29"/>
</g>
<!-- tasks_for_all -->
<g id="node9" class="node">
<title>tasks_for_all</title>
<polygon fill="lightblue" stroke="white" points="276.5,-828 180.25,-828 180.25,-792 276.5,-792 276.5,-828"/>
<text text-anchor="middle" x="228.38" y="-804.95" font-family="Arial" font-size="14.00">tasks_for_all</text>
</g>
<!-- index&#45;&gt;tasks_for_all -->
<g id="edge8" class="edge">
<title>index&#45;&gt;tasks_for_all</title>
<path fill="none" stroke="black" d="M362.18,-1187.56C340.13,-1125.52 265.37,-915.12 238.28,-838.88"/>
<polygon fill="black" stroke="black" points="241.65,-837.91 235.01,-829.66 235.06,-840.26 241.65,-837.91"/>
</g>
<!-- tasks_for_improver&#45;&gt;tasks_for_event -->
<g id="edge12" class="edge">
<title>tasks_for_improver&#45;&gt;tasks_for_event</title>
<path fill="none" stroke="black" d="M524.51,-395.56C507.18,-333.52 448.44,-123.12 427.16,-46.88"/>
<polygon fill="black" stroke="black" points="430.65,-46.38 424.59,-37.69 423.91,-48.27 430.65,-46.38"/>
</g>
<!-- tasks_for_improver&#45;&gt;tasks_for_audit -->
<g id="edge13" class="edge">
<title>tasks_for_improver&#45;&gt;tasks_for_audit</title>
<path fill="none" stroke="black" d="M531.5,-395.56C539.04,-333.64 564.59,-123.98 573.92,-47.35"/>
<polygon fill="black" stroke="black" points="577.36,-48.09 575.09,-37.74 570.41,-47.24 577.36,-48.09"/>
</g>
<!-- tasks_for_improver&#45;&gt;tasks_for_act -->
<g id="edge11" class="edge">
<title>tasks_for_improver&#45;&gt;tasks_for_act</title>
<path fill="none" stroke="black" d="M537.96,-395.56C568.57,-333.39 672.53,-122.26 709.88,-46.41"/>
<polygon fill="black" stroke="black" points="712.94,-48.11 714.22,-37.59 706.66,-45.02 712.94,-48.11"/>
</g>
<!-- tasks_for_process&#45;&gt;tasks_for_graph -->
<g id="edge14" class="edge">
<title>tasks_for_process&#45;&gt;tasks_for_graph</title>
<path fill="none" stroke="black" d="M185.53,-395.56C164.75,-333.52 94.26,-123.12 68.72,-46.88"/>
<polygon fill="black" stroke="black" points="72.13,-46.04 65.63,-37.67 65.49,-48.27 72.13,-46.04"/>
</g>
<!-- tasks_for_process&#45;&gt;tasks_for_document -->
<g id="edge15" class="edge">
<title>tasks_for_process&#45;&gt;tasks_for_document</title>
<path fill="none" stroke="black" d="M193.68,-395.56C201.85,-333.64 229.52,-123.98 239.63,-47.35"/>
<polygon fill="black" stroke="black" points="243.06,-48.11 240.9,-37.74 236.12,-47.19 243.06,-48.11"/>
</g>
<!-- tasks_for_all&#45;&gt;tasks_for_improver -->
<g id="edge10" class="edge">
<title>tasks_for_all&#45;&gt;tasks_for_improver</title>
<path fill="none" stroke="black" d="M241.7,-791.56C289.49,-729.01 452.48,-515.65 509.49,-441.03"/>
<polygon fill="black" stroke="black" points="512,-443.51 515.29,-433.44 506.44,-439.26 512,-443.51"/>
</g>
<!-- tasks_for_all&#45;&gt;tasks_for_process -->
<g id="edge9" class="edge">
<title>tasks_for_all&#45;&gt;tasks_for_process</title>
<path fill="none" stroke="black" d="M226.74,-791.56C220.92,-729.64 201.23,-519.98 194.04,-443.35"/>
<polygon fill="black" stroke="black" points="197.55,-443.37 193.14,-433.74 190.59,-444.03 197.55,-443.37"/>
</g>
<!-- set_important -->
<g id="node10" class="node">
<title>set_important</title>
<polygon fill="lightblue" stroke="white" points="533.5,-1224 431.25,-1224 431.25,-1188 533.5,-1188 533.5,-1224"/>
<text text-anchor="middle" x="482.38" y="-1200.95" font-family="Arial" font-size="14.00">set_important</text>
</g>
<!-- unset_important -->
<g id="node11" class="node">
<title>unset_important</title>
<polygon fill="lightblue" stroke="white" points="687,-1224 569.75,-1224 569.75,-1188 687,-1188 687,-1224"/>
<text text-anchor="middle" x="628.38" y="-1200.95" font-family="Arial" font-size="14.00">unset_important</text>
</g>
<!-- check_entity -->
<g id="node12" class="node">
<title>check_entity</title>
<polygon fill="lightblue" stroke="white" points="817.75,-1224 723,-1224 723,-1188 817.75,-1188 817.75,-1224"/>
<text text-anchor="middle" x="770.38" y="-1200.95" font-family="Arial" font-size="14.00">check_entity</text>
</g>
</g>
</svg>
