<?xml version="1.0" encoding="UTF-8" standalone="no"?>
<!DOCTYPE svg PUBLIC "-//W3C//DTD SVG 1.1//EN"
 "http://www.w3.org/Graphics/SVG/1.1/DTD/svg11.dtd">
<!-- Generated by graphviz version 9.0.0 (20230911.1827)
 -->
<!-- Title: CallGraph Pages: 1 -->
<svg width="2409pt" height="440pt"
 viewBox="0.00 0.00 2408.88 440.00" xmlns="http://www.w3.org/2000/svg" xmlns:xlink="http://www.w3.org/1999/xlink">
<g id="graph0" class="graph" transform="scale(1 1) rotate(0) translate(4 436)">
<title>CallGraph</title>
<polygon fill="white" stroke="none" points="-4,4 -4,-436 2404.88,-436 2404.88,4 -4,4"/>
<!-- index -->
<g id="node1" class="node">
<title>index</title>
<polygon fill="lightblue" stroke="white" points="98.38,-432 44.38,-432 44.38,-396 98.38,-396 98.38,-432"/>
<text text-anchor="middle" x="71.38" y="-408.95" font-family="Arial" font-size="14.00">index</text>
</g>
<!-- generate_file_name -->
<g id="node2" class="node">
<title>generate_file_name</title>
<polygon fill="lightblue" stroke="white" points="142.75,-36 0,-36 0,0 142.75,0 142.75,-36"/>
<text text-anchor="middle" x="71.38" y="-12.95" font-family="Arial" font-size="14.00">generate_file_name</text>
</g>
<!-- index&#45;&gt;generate_file_name -->
<g id="edge1" class="edge">
<title>index&#45;&gt;generate_file_name</title>
<path fill="none" stroke="black" d="M71.38,-395.56C71.38,-333.64 71.38,-123.98 71.38,-47.35"/>
<polygon fill="black" stroke="black" points="74.88,-47.75 71.38,-37.75 67.88,-47.75 74.88,-47.75"/>
</g>
<!-- create_random -->
<g id="node3" class="node">
<title>create_random</title>
<polygon fill="lightblue" stroke="white" points="246.38,-432 134.38,-432 134.38,-396 246.38,-396 246.38,-432"/>
<text text-anchor="middle" x="190.38" y="-408.95" font-family="Arial" font-size="14.00">create_random</text>
</g>
<!-- save -->
<g id="node4" class="node">
<title>save</title>
<polygon fill="lightblue" stroke="white" points="365.38,-36 311.38,-36 311.38,0 365.38,0 365.38,-36"/>
<text text-anchor="middle" x="338.38" y="-12.95" font-family="Arial" font-size="14.00">save</text>
</g>
<!-- create_random&#45;&gt;save -->
<g id="edge2" class="edge">
<title>create_random&#45;&gt;save</title>
<path fill="none" stroke="black" d="M196.93,-395.56C220.23,-333.52 299.26,-123.12 327.9,-46.88"/>
<polygon fill="black" stroke="black" points="331.13,-48.25 331.37,-37.65 324.58,-45.78 331.13,-48.25"/>
</g>
<!-- search -->
<g id="node5" class="node">
<title>search</title>
<polygon fill="lightblue" stroke="white" points="600.75,-432 542,-432 542,-396 600.75,-396 600.75,-432"/>
<text text-anchor="middle" x="571.38" y="-408.95" font-family="Arial" font-size="14.00">search</text>
</g>
<!-- reject -->
<g id="node6" class="node">
<title>reject</title>
<polygon fill="lightblue" stroke="white" points="598.38,-36 544.38,-36 544.38,0 598.38,0 598.38,-36"/>
<text text-anchor="middle" x="571.38" y="-12.95" font-family="Arial" font-size="14.00">reject</text>
</g>
<!-- search&#45;&gt;reject -->
<g id="edge3" class="edge">
<title>search&#45;&gt;reject</title>
<path fill="none" stroke="black" d="M571.38,-395.56C571.38,-333.64 571.38,-123.98 571.38,-47.35"/>
<polygon fill="black" stroke="black" points="574.88,-47.75 571.38,-37.75 567.88,-47.75 574.88,-47.75"/>
</g>
<!-- update_groups -->
<g id="node7" class="node">
<title>update_groups</title>
<polygon fill="lightblue" stroke="white" points="394.38,-432 282.38,-432 282.38,-396 394.38,-396 394.38,-432"/>
<text text-anchor="middle" x="338.38" y="-408.95" font-family="Arial" font-size="14.00">update_groups</text>
</g>
<!-- update_groups&#45;&gt;save -->
<g id="edge4" class="edge">
<title>update_groups&#45;&gt;save</title>
<path fill="none" stroke="black" d="M338.38,-395.56C338.38,-333.64 338.38,-123.98 338.38,-47.35"/>
<polygon fill="black" stroke="black" points="341.88,-47.75 338.38,-37.75 334.88,-47.75 341.88,-47.75"/>
</g>
<!-- confirm_link_roles -->
<g id="node8" class="node">
<title>confirm_link_roles</title>
<polygon fill="lightblue" stroke="white" points="768.12,-432 636.62,-432 636.62,-396 768.12,-396 768.12,-432"/>
<text text-anchor="middle" x="702.38" y="-408.95" font-family="Arial" font-size="14.00">confirm_link_roles</text>
</g>
<!-- link_roles -->
<g id="node9" class="node">
<title>link_roles</title>
<polygon fill="lightblue" stroke="white" points="506.38,-432 430.38,-432 430.38,-396 506.38,-396 506.38,-432"/>
<text text-anchor="middle" x="468.38" y="-408.95" font-family="Arial" font-size="14.00">link_roles</text>
</g>
<!-- link_roles&#45;&gt;save -->
<g id="edge5" class="edge">
<title>link_roles&#45;&gt;save</title>
<path fill="none" stroke="black" d="M462.62,-395.56C442.15,-333.52 372.73,-123.12 347.57,-46.88"/>
<polygon fill="black" stroke="black" points="350.99,-46.07 344.54,-37.67 344.35,-48.27 350.99,-46.07"/>
</g>
<!-- unlink_roles -->
<g id="node10" class="node">
<title>unlink_roles</title>
<polygon fill="lightblue" stroke="white" points="894.88,-432 803.88,-432 803.88,-396 894.88,-396 894.88,-432"/>
<text text-anchor="middle" x="849.38" y="-408.95" font-family="Arial" font-size="14.00">unlink_roles</text>
</g>
<!-- list_linked_graphs -->
<g id="node11" class="node">
<title>list_linked_graphs</title>
<polygon fill="lightblue" stroke="white" points="1061.38,-432 931.38,-432 931.38,-396 1061.38,-396 1061.38,-432"/>
<text text-anchor="middle" x="996.38" y="-408.95" font-family="Arial" font-size="14.00">list_linked_graphs</text>
</g>
<!-- edit_avatar -->
<g id="node12" class="node">
<title>edit_avatar</title>
<polygon fill="lightblue" stroke="white" points="1182.88,-432 1097.88,-432 1097.88,-396 1182.88,-396 1182.88,-432"/>
<text text-anchor="middle" x="1140.38" y="-408.95" font-family="Arial" font-size="14.00">edit_avatar</text>
</g>
<!-- update_avatar -->
<g id="node13" class="node">
<title>update_avatar</title>
<polygon fill="lightblue" stroke="white" points="1324,-432 1218.75,-432 1218.75,-396 1324,-396 1324,-432"/>
<text text-anchor="middle" x="1271.38" y="-408.95" font-family="Arial" font-size="14.00">update_avatar</text>
</g>
<!-- user_params -->
<g id="node14" class="node">
<title>user_params</title>
<polygon fill="lightblue" stroke="white" points="1321,-36 1221.75,-36 1221.75,0 1321,0 1321,-36"/>
<text text-anchor="middle" x="1271.38" y="-12.95" font-family="Arial" font-size="14.00">user_params</text>
</g>
<!-- update_avatar&#45;&gt;user_params -->
<g id="edge6" class="edge">
<title>update_avatar&#45;&gt;user_params</title>
<path fill="none" stroke="black" d="M1271.38,-395.56C1271.38,-333.64 1271.38,-123.98 1271.38,-47.35"/>
<polygon fill="black" stroke="black" points="1274.88,-47.75 1271.38,-37.75 1267.88,-47.75 1274.88,-47.75"/>
</g>
<!-- serve_avatar -->
<g id="node15" class="node">
<title>serve_avatar</title>
<polygon fill="lightblue" stroke="white" points="1456.88,-432 1359.88,-432 1359.88,-396 1456.88,-396 1456.88,-432"/>
<text text-anchor="middle" x="1408.38" y="-408.95" font-family="Arial" font-size="14.00">serve_avatar</text>
</g>
<!-- crop_avatar -->
<g id="node16" class="node">
<title>crop_avatar</title>
<polygon fill="lightblue" stroke="white" points="1583.5,-432 1493.25,-432 1493.25,-396 1583.5,-396 1583.5,-432"/>
<text text-anchor="middle" x="1538.38" y="-408.95" font-family="Arial" font-size="14.00">crop_avatar</text>
</g>
<!-- update_crop_avatar -->
<g id="node17" class="node">
<title>update_crop_avatar</title>
<polygon fill="lightblue" stroke="white" points="1761.38,-432 1619.38,-432 1619.38,-396 1761.38,-396 1761.38,-432"/>
<text text-anchor="middle" x="1690.38" y="-408.95" font-family="Arial" font-size="14.00">update_crop_avatar</text>
</g>
<!-- interactions -->
<g id="node18" class="node">
<title>interactions</title>
<polygon fill="lightblue" stroke="white" points="1885.38,-432 1797.38,-432 1797.38,-396 1885.38,-396 1885.38,-432"/>
<text text-anchor="middle" x="1841.38" y="-408.95" font-family="Arial" font-size="14.00">interactions</text>
</g>
<!-- edit_metadata -->
<g id="node19" class="node">
<title>edit_metadata</title>
<polygon fill="lightblue" stroke="white" points="2027.38,-432 1921.38,-432 1921.38,-396 2027.38,-396 2027.38,-432"/>
<text text-anchor="middle" x="1974.38" y="-408.95" font-family="Arial" font-size="14.00">edit_metadata</text>
</g>
<!-- update_metadata -->
<g id="node20" class="node">
<title>update_metadata</title>
<polygon fill="lightblue" stroke="white" points="2189.5,-432 2063.25,-432 2063.25,-396 2189.5,-396 2189.5,-432"/>
<text text-anchor="middle" x="2126.38" y="-408.95" font-family="Arial" font-size="14.00">update_metadata</text>
</g>
<!-- general_user_params -->
<g id="node21" class="node">
<title>general_user_params</title>
<polygon fill="lightblue" stroke="white" points="2203.75,-36 2049,-36 2049,0 2203.75,0 2203.75,-36"/>
<text text-anchor="middle" x="2126.38" y="-12.95" font-family="Arial" font-size="14.00">general_user_params</text>
</g>
<!-- update_metadata&#45;&gt;general_user_params -->
<g id="edge7" class="edge">
<title>update_metadata&#45;&gt;general_user_params</title>
<path fill="none" stroke="black" d="M2126.38,-395.56C2126.38,-333.64 2126.38,-123.98 2126.38,-47.35"/>
<polygon fill="black" stroke="black" points="2129.88,-47.75 2126.38,-37.75 2122.88,-47.75 2129.88,-47.75"/>
</g>
<!-- list_link_role_definition -->
<g id="node22" class="node">
<title>list_link_role_definition</title>
<polygon fill="lightblue" stroke="white" points="2399,-36 2239.75,-36 2239.75,0 2399,0 2399,-36"/>
<text text-anchor="middle" x="2319.38" y="-12.95" font-family="Arial" font-size="14.00">list_link_role_definition</text>
</g>
<!-- list_role_add_definition -->
<g id="node23" class="node">
<title>list_role_add_definition</title>
<polygon fill="lightblue" stroke="white" points="2400.88,-432 2237.88,-432 2237.88,-396 2400.88,-396 2400.88,-432"/>
<text text-anchor="middle" x="2319.38" y="-408.95" font-family="Arial" font-size="14.00">list_role_add_definition</text>
</g>
<!-- list_role_add_definition&#45;&gt;list_link_role_definition -->
<g id="edge8" class="edge">
<title>list_role_add_definition&#45;&gt;list_link_role_definition</title>
<path fill="none" stroke="black" d="M2319.38,-395.56C2319.38,-333.64 2319.38,-123.98 2319.38,-47.35"/>
<polygon fill="black" stroke="black" points="2322.88,-47.75 2319.38,-37.75 2315.88,-47.75 2322.88,-47.75"/>
</g>
</g>
</svg>
