<?xml version="1.0" encoding="UTF-8" standalone="no"?>
<!DOCTYPE svg PUBLIC "-//W3C//DTD SVG 1.1//EN"
 "http://www.w3.org/Graphics/SVG/1.1/DTD/svg11.dtd">
<!-- Generated by graphviz version 9.0.0 (20230911.1827)
 -->
<!-- Title: CallGraph Pages: 1 -->
<svg width="1703pt" height="440pt"
 viewBox="0.00 0.00 1702.75 440.00" xmlns="http://www.w3.org/2000/svg" xmlns:xlink="http://www.w3.org/1999/xlink">
<g id="graph0" class="graph" transform="scale(1 1) rotate(0) translate(4 436)">
<title>CallGraph</title>
<polygon fill="white" stroke="none" points="-4,4 -4,-436 1698.75,-436 1698.75,4 -4,4"/>
<!-- authorize_multiple -->
<g id="node1" class="node">
<title>authorize_multiple</title>
<polygon fill="lightblue" stroke="white" points="130,-432 0,-432 0,-396 130,-396 130,-432"/>
<text text-anchor="middle" x="65" y="-408.95" font-family="Arial" font-size="14.00">authorize_multiple</text>
</g>
<!-- authorize_group -->
<g id="node2" class="node">
<title>authorize_group</title>
<polygon fill="lightblue" stroke="white" points="284,-432 166,-432 166,-396 284,-396 284,-432"/>
<text text-anchor="middle" x="225" y="-408.95" font-family="Arial" font-size="14.00">authorize_group</text>
</g>
<!-- authorize_role -->
<g id="node3" class="node">
<title>authorize_role</title>
<polygon fill="lightblue" stroke="white" points="485.62,-36 380.38,-36 380.38,0 485.62,0 485.62,-36"/>
<text text-anchor="middle" x="433" y="-12.95" font-family="Arial" font-size="14.00">authorize_role</text>
</g>
<!-- user_is_actor_of -->
<g id="node4" class="node">
<title>user_is_actor_of</title>
<polygon fill="lightblue" stroke="white" points="781.62,-432 658.38,-432 658.38,-396 781.62,-396 781.62,-432"/>
<text text-anchor="middle" x="720" y="-408.95" font-family="Arial" font-size="14.00">user_is_actor_of</text>
</g>
<!-- group_is_actor_of -->
<g id="node5" class="node">
<title>group_is_actor_of</title>
<polygon fill="lightblue" stroke="white" points="950.12,-432 817.88,-432 817.88,-396 950.12,-396 950.12,-432"/>
<text text-anchor="middle" x="884" y="-408.95" font-family="Arial" font-size="14.00">group_is_actor_of</text>
</g>
<!-- push_user_to -->
<g id="node6" class="node">
<title>push_user_to</title>
<polygon fill="lightblue" stroke="white" points="1089.5,-432 986.5,-432 986.5,-396 1089.5,-396 1089.5,-432"/>
<text text-anchor="middle" x="1038" y="-408.95" font-family="Arial" font-size="14.00">push_user_to</text>
</g>
<!-- remove_user_from -->
<g id="node7" class="node">
<title>remove_user_from</title>
<polygon fill="lightblue" stroke="white" points="1262.75,-432 1125.25,-432 1125.25,-396 1262.75,-396 1262.75,-432"/>
<text text-anchor="middle" x="1194" y="-408.95" font-family="Arial" font-size="14.00">remove_user_from</text>
</g>
<!-- push_group_to -->
<g id="node8" class="node">
<title>push_group_to</title>
<polygon fill="lightblue" stroke="white" points="1411,-432 1299,-432 1299,-396 1411,-396 1411,-432"/>
<text text-anchor="middle" x="1355" y="-408.95" font-family="Arial" font-size="14.00">push_group_to</text>
</g>
<!-- remove_group_from -->
<g id="node9" class="node">
<title>remove_group_from</title>
<polygon fill="lightblue" stroke="white" points="1593.25,-432 1446.75,-432 1446.75,-396 1593.25,-396 1593.25,-432"/>
<text text-anchor="middle" x="1520" y="-408.95" font-family="Arial" font-size="14.00">remove_group_from</text>
</g>
<!-- push_role_to -->
<g id="node10" class="node">
<title>push_role_to</title>
<polygon fill="lightblue" stroke="white" points="344.62,-36 245.38,-36 245.38,0 344.62,0 344.62,-36"/>
<text text-anchor="middle" x="295" y="-12.95" font-family="Arial" font-size="14.00">push_role_to</text>
</g>
<!-- remove_role_from -->
<g id="node11" class="node">
<title>remove_role_from</title>
<polygon fill="lightblue" stroke="white" points="655.88,-36 522.12,-36 522.12,0 655.88,0 655.88,-36"/>
<text text-anchor="middle" x="589" y="-12.95" font-family="Arial" font-size="14.00">remove_role_from</text>
</g>
<!-- create_role -->
<g id="node12" class="node">
<title>create_role</title>
<polygon fill="lightblue" stroke="white" points="408,-432 320,-432 320,-396 408,-396 408,-432"/>
<text text-anchor="middle" x="364" y="-408.95" font-family="Arial" font-size="14.00">create_role</text>
</g>
<!-- create_role&#45;&gt;authorize_role -->
<g id="edge1" class="edge">
<title>create_role&#45;&gt;authorize_role</title>
<path fill="none" stroke="black" d="M367.05,-395.56C377.9,-333.64 414.61,-123.98 428.04,-47.35"/>
<polygon fill="black" stroke="black" points="431.44,-48.18 429.72,-37.73 424.55,-46.97 431.44,-48.18"/>
</g>
<!-- create_role&#45;&gt;push_role_to -->
<g id="edge2" class="edge">
<title>create_role&#45;&gt;push_role_to</title>
<path fill="none" stroke="black" d="M360.95,-395.56C350.1,-333.64 313.39,-123.98 299.96,-47.35"/>
<polygon fill="black" stroke="black" points="303.45,-46.97 298.28,-37.73 296.56,-48.18 303.45,-46.97"/>
</g>
<!-- destroy_role -->
<g id="node13" class="node">
<title>destroy_role</title>
<polygon fill="lightblue" stroke="white" points="622.75,-432 527.25,-432 527.25,-396 622.75,-396 622.75,-432"/>
<text text-anchor="middle" x="575" y="-408.95" font-family="Arial" font-size="14.00">destroy_role</text>
</g>
<!-- destroy_role&#45;&gt;authorize_role -->
<g id="edge3" class="edge">
<title>destroy_role&#45;&gt;authorize_role</title>
<path fill="none" stroke="black" d="M568.72,-395.56C546.35,-333.52 470.53,-123.12 443.05,-46.88"/>
<polygon fill="black" stroke="black" points="446.41,-45.88 439.73,-37.66 439.82,-48.25 446.41,-45.88"/>
</g>
<!-- destroy_role&#45;&gt;remove_role_from -->
<g id="edge4" class="edge">
<title>destroy_role&#45;&gt;remove_role_from</title>
<path fill="none" stroke="black" d="M575.62,-395.56C577.82,-333.64 585.27,-123.98 587.99,-47.35"/>
<polygon fill="black" stroke="black" points="591.48,-47.87 588.33,-37.75 584.48,-47.62 591.48,-47.87"/>
</g>
<!-- wording -->
<g id="node14" class="node">
<title>wording</title>
<polygon fill="lightblue" stroke="white" points="1694.75,-432 1629.25,-432 1629.25,-396 1694.75,-396 1694.75,-432"/>
<text text-anchor="middle" x="1662" y="-408.95" font-family="Arial" font-size="14.00">wording</text>
</g>
</g>
</svg>
