<?xml version="1.0" encoding="UTF-8" standalone="no"?>
<!DOCTYPE svg PUBLIC "-//W3C//DTD SVG 1.1//EN"
 "http://www.w3.org/Graphics/SVG/1.1/DTD/svg11.dtd">
<!-- Generated by graphviz version 9.0.0 (20230911.1827)
 -->
<!-- Title: CallGraph Pages: 1 -->
<svg width="520pt" height="440pt"
 viewBox="0.00 0.00 519.62 440.00" xmlns="http://www.w3.org/2000/svg" xmlns:xlink="http://www.w3.org/1999/xlink">
<g id="graph0" class="graph" transform="scale(1 1) rotate(0) translate(4 436)">
<title>CallGraph</title>
<polygon fill="white" stroke="none" points="-4,4 -4,-436 515.62,-436 515.62,4 -4,4"/>
<!-- Bar_compute_and_print_ -->
<g id="node1" class="node">
<title>Bar_compute_and_print_</title>
<polygon fill="lightblue" stroke="white" points="180.38,-432 3.88,-432 3.88,-396 180.38,-396 180.38,-432"/>
<text text-anchor="middle" x="92.12" y="-408.95" font-family="Arial" font-size="14.00">Bar_compute_and_print_</text>
</g>
<!-- Foo_multiply_x_ -->
<g id="node2" class="node">
<title>Foo_multiply_x_</title>
<polygon fill="lightblue" stroke="white" points="120.25,-36 0,-36 0,0 120.25,0 120.25,-36"/>
<text text-anchor="middle" x="60.12" y="-12.95" font-family="Arial" font-size="14.00">Foo_multiply_x_</text>
</g>
<!-- Bar_compute_and_print_&#45;&gt;Foo_multiply_x_ -->
<g id="edge1" class="edge">
<title>Bar_compute_and_print_&#45;&gt;Foo_multiply_x_</title>
<path fill="none" stroke="black" d="M90.71,-395.56C85.68,-333.64 68.65,-123.98 62.43,-47.35"/>
<polygon fill="black" stroke="black" points="65.95,-47.43 61.65,-37.75 58.97,-48 65.95,-47.43"/>
</g>
<!-- Foo_print_x_ -->
<g id="node3" class="node">
<title>Foo_print_x_</title>
<polygon fill="lightblue" stroke="white" points="256.12,-36 156.12,-36 156.12,0 256.12,0 256.12,-36"/>
<text text-anchor="middle" x="206.12" y="-12.95" font-family="Arial" font-size="14.00">Foo_print_x_</text>
</g>
<!-- Bar_compute_and_print_&#45;&gt;Foo_print_x_ -->
<g id="edge2" class="edge">
<title>Bar_compute_and_print_&#45;&gt;Foo_print_x_</title>
<path fill="none" stroke="black" d="M97.17,-395.56C115.12,-333.52 176,-123.12 198.06,-46.88"/>
<polygon fill="black" stroke="black" points="201.3,-48.27 200.72,-37.69 194.58,-46.32 201.3,-48.27"/>
</g>
<!-- Bar_perform_operations_ -->
<g id="node4" class="node">
<title>Bar_perform_operations_</title>
<polygon fill="lightblue" stroke="white" points="427.88,-432 248.38,-432 248.38,-396 427.88,-396 427.88,-432"/>
<text text-anchor="middle" x="338.12" y="-408.95" font-family="Arial" font-size="14.00">Bar_perform_operations_</text>
</g>
<!-- Bar_perform_operations_&#45;&gt;Foo_print_x_ -->
<g id="edge5" class="edge">
<title>Bar_perform_operations_&#45;&gt;Foo_print_x_</title>
<path fill="none" stroke="black" d="M332.28,-395.56C311.5,-333.52 241.01,-123.12 215.47,-46.88"/>
<polygon fill="black" stroke="black" points="218.88,-46.04 212.38,-37.67 212.24,-48.27 218.88,-46.04"/>
</g>
<!-- Foo_set_x_ -->
<g id="node5" class="node">
<title>Foo_set_x_</title>
<polygon fill="lightblue" stroke="white" points="384.38,-36 291.88,-36 291.88,0 384.38,0 384.38,-36"/>
<text text-anchor="middle" x="338.12" y="-12.95" font-family="Arial" font-size="14.00">Foo_set_x_</text>
</g>
<!-- Bar_perform_operations_&#45;&gt;Foo_set_x_ -->
<g id="edge3" class="edge">
<title>Bar_perform_operations_&#45;&gt;Foo_set_x_</title>
<path fill="none" stroke="black" d="M338.12,-395.56C338.12,-333.64 338.12,-123.98 338.12,-47.35"/>
<polygon fill="black" stroke="black" points="341.63,-47.75 338.13,-37.75 334.63,-47.75 341.63,-47.75"/>
</g>
<!-- Foo_inc_x_ -->
<g id="node6" class="node">
<title>Foo_inc_x_</title>
<polygon fill="lightblue" stroke="white" points="511.62,-36 420.62,-36 420.62,0 511.62,0 511.62,-36"/>
<text text-anchor="middle" x="466.12" y="-12.95" font-family="Arial" font-size="14.00">Foo_inc_x_</text>
</g>
<!-- Bar_perform_operations_&#45;&gt;Foo_inc_x_ -->
<g id="edge4" class="edge">
<title>Bar_perform_operations_&#45;&gt;Foo_inc_x_</title>
<path fill="none" stroke="black" d="M343.79,-395.56C363.95,-333.52 432.3,-123.12 457.07,-46.88"/>
<polygon fill="black" stroke="black" points="460.3,-48.27 460.06,-37.68 453.64,-46.11 460.3,-48.27"/>
</g>
</g>
</svg>
