<?xml version="1.0" encoding="UTF-8" standalone="no"?>
<!DOCTYPE svg PUBLIC "-//W3C//DTD SVG 1.1//EN"
 "http://www.w3.org/Graphics/SVG/1.1/DTD/svg11.dtd">
<!-- Generated by graphviz version 9.0.0 (20230911.1827)
 -->
<!-- Title: CallGraph Pages: 1 -->
<svg width="1159pt" height="836pt"
 viewBox="0.00 0.00 1158.97 836.00" xmlns="http://www.w3.org/2000/svg" xmlns:xlink="http://www.w3.org/1999/xlink">
<g id="graph0" class="graph" transform="scale(1 1) rotate(0) translate(4 832)">
<title>CallGraph</title>
<polygon fill="white" stroke="none" points="-4,4 -4,-832 1154.97,-832 1154.97,4 -4,4"/>
<!-- Baz_process_ -->
<g id="node1" class="node">
<title>Baz_process_</title>
<polygon fill="lightblue" stroke="white" points="614.38,-828 506.12,-828 506.12,-792 614.38,-792 614.38,-828"/>
<text text-anchor="middle" x="560.25" y="-804.95" font-family="Arial" font-size="14.00">Baz_process_</text>
</g>
<!-- Bar_compute_and_print_ -->
<g id="node2" class="node">
<title>Bar_compute_and_print_</title>
<polygon fill="lightblue" stroke="white" points="176.5,-432 0,-432 0,-396 176.5,-396 176.5,-432"/>
<text text-anchor="middle" x="88.25" y="-408.95" font-family="Arial" font-size="14.00">Bar_compute_and_print_</text>
</g>
<!-- Baz_process_&#45;&gt;Bar_compute_and_print_ -->
<g id="edge1" class="edge">
<title>Baz_process_&#45;&gt;Bar_compute_and_print_</title>
<path fill="none" stroke="black" d="M539.36,-791.56C463.97,-728.63 205.77,-513.1 117.85,-439.7"/>
<polygon fill="black" stroke="black" points="120.25,-437.15 110.33,-433.43 115.76,-442.52 120.25,-437.15"/>
</g>
<!-- Bar_update_x_ -->
<g id="node3" class="node">
<title>Bar_update_x_</title>
<polygon fill="lightblue" stroke="white" points="325.62,-432 212.88,-432 212.88,-396 325.62,-396 325.62,-432"/>
<text text-anchor="middle" x="269.25" y="-408.95" font-family="Arial" font-size="14.00">Bar_update_x_</text>
</g>
<!-- Baz_process_&#45;&gt;Bar_update_x_ -->
<g id="edge2" class="edge">
<title>Baz_process_&#45;&gt;Bar_update_x_</title>
<path fill="none" stroke="black" d="M547.37,-791.56C501.26,-729.13 344.23,-516.52 288.81,-441.49"/>
<polygon fill="black" stroke="black" points="291.64,-439.42 282.88,-433.45 286.01,-443.58 291.64,-439.42"/>
</g>
<!-- Bar_perform_operations_ -->
<g id="node4" class="node">
<title>Bar_perform_operations_</title>
<polygon fill="lightblue" stroke="white" points="541,-432 361.5,-432 361.5,-396 541,-396 541,-432"/>
<text text-anchor="middle" x="451.25" y="-408.95" font-family="Arial" font-size="14.00">Bar_perform_operations_</text>
</g>
<!-- Baz_process_&#45;&gt;Bar_perform_operations_ -->
<g id="edge3" class="edge">
<title>Baz_process_&#45;&gt;Bar_perform_operations_</title>
<path fill="none" stroke="black" d="M555.43,-791.56C538.26,-729.52 480.05,-519.12 458.96,-442.88"/>
<polygon fill="black" stroke="black" points="462.46,-442.4 456.42,-433.7 455.72,-444.27 462.46,-442.4"/>
</g>
<!-- Baz_perform_operations_ -->
<g id="node5" class="node">
<title>Baz_perform_operations_</title>
<polygon fill="lightblue" stroke="white" points="759.12,-432 577.38,-432 577.38,-396 759.12,-396 759.12,-432"/>
<text text-anchor="middle" x="668.25" y="-408.95" font-family="Arial" font-size="14.00">Baz_perform_operations_</text>
</g>
<!-- Baz_process_&#45;&gt;Baz_perform_operations_ -->
<g id="edge4" class="edge">
<title>Baz_process_&#45;&gt;Baz_perform_operations_</title>
<path fill="none" stroke="black" d="M565.03,-791.56C582.04,-729.52 639.71,-519.12 660.61,-442.88"/>
<polygon fill="black" stroke="black" points="663.86,-444.27 663.13,-433.7 657.11,-442.42 663.86,-444.27"/>
</g>
<!-- Foo_multiply_x_ -->
<g id="node6" class="node">
<title>Foo_multiply_x_</title>
<polygon fill="lightblue" stroke="white" points="989.38,-432 869.12,-432 869.12,-396 989.38,-396 989.38,-432"/>
<text text-anchor="middle" x="929.25" y="-408.95" font-family="Arial" font-size="14.00">Foo_multiply_x_</text>
</g>
<!-- Baz_process_&#45;&gt;Foo_multiply_x_ -->
<g id="edge5" class="edge">
<title>Baz_process_&#45;&gt;Foo_multiply_x_</title>
<path fill="none" stroke="black" d="M576.58,-791.56C635.29,-728.88 835.8,-514.78 905.3,-440.57"/>
<polygon fill="black" stroke="black" points="907.79,-443.03 912.07,-433.34 902.68,-438.25 907.79,-443.03"/>
</g>
<!-- Foo_print_x_ -->
<g id="node7" class="node">
<title>Foo_print_x_</title>
<polygon fill="lightblue" stroke="white" points="994.25,-36 894.25,-36 894.25,0 994.25,0 994.25,-36"/>
<text text-anchor="middle" x="944.25" y="-12.95" font-family="Arial" font-size="14.00">Foo_print_x_</text>
</g>
<!-- Baz_process_&#45;&gt;Foo_print_x_ -->
<g id="edge6" class="edge">
<title>Baz_process_&#45;&gt;Foo_print_x_</title>
<path fill="none" stroke="black" d="M571.3,-791.8C604.82,-739.25 707.31,-575.59 777.25,-432 845.92,-291.01 910.58,-114.26 934.5,-46.86"/>
<polygon fill="black" stroke="black" points="937.7,-48.3 937.73,-37.71 931.1,-45.97 937.7,-48.3"/>
</g>
<!-- Baz_perform_operations_&#45;&gt;Foo_print_x_ -->
<g id="edge12" class="edge">
<title>Baz_perform_operations_&#45;&gt;Foo_print_x_</title>
<path fill="none" stroke="black" d="M680.47,-395.56C724.2,-333.13 873.13,-120.52 925.7,-45.49"/>
<polygon fill="black" stroke="black" points="928.44,-47.67 931.31,-37.48 922.7,-43.66 928.44,-47.67"/>
</g>
<!-- Foo_set_x_ -->
<g id="node10" class="node">
<title>Foo_set_x_</title>
<polygon fill="lightblue" stroke="white" points="593.5,-36 501,-36 501,0 593.5,0 593.5,-36"/>
<text text-anchor="middle" x="547.25" y="-12.95" font-family="Arial" font-size="14.00">Foo_set_x_</text>
</g>
<!-- Baz_perform_operations_&#45;&gt;Foo_set_x_ -->
<g id="edge10" class="edge">
<title>Baz_perform_operations_&#45;&gt;Foo_set_x_</title>
<path fill="none" stroke="black" d="M662.89,-395.56C643.84,-333.52 579.23,-123.12 555.81,-46.88"/>
<polygon fill="black" stroke="black" points="559.27,-46.22 552.99,-37.68 552.58,-48.27 559.27,-46.22"/>
</g>
<!-- Foo_inc_x_ -->
<g id="node11" class="node">
<title>Foo_inc_x_</title>
<polygon fill="lightblue" stroke="white" points="720.75,-36 629.75,-36 629.75,0 720.75,0 720.75,-36"/>
<text text-anchor="middle" x="675.25" y="-12.95" font-family="Arial" font-size="14.00">Foo_inc_x_</text>
</g>
<!-- Baz_perform_operations_&#45;&gt;Foo_inc_x_ -->
<g id="edge11" class="edge">
<title>Baz_perform_operations_&#45;&gt;Foo_inc_x_</title>
<path fill="none" stroke="black" d="M668.56,-395.56C669.66,-333.64 673.38,-123.98 674.75,-47.35"/>
<polygon fill="black" stroke="black" points="678.24,-47.81 674.92,-37.75 671.24,-47.69 678.24,-47.81"/>
</g>
<!-- Baz_print_x_ -->
<g id="node8" class="node">
<title>Baz_print_x_</title>
<polygon fill="lightblue" stroke="white" points="1123.5,-432 1025,-432 1025,-396 1123.5,-396 1123.5,-432"/>
<text text-anchor="middle" x="1074.25" y="-408.95" font-family="Arial" font-size="14.00">Baz_print_x_</text>
</g>
<!-- Baz_print_x_&#45;&gt;Foo_print_x_ -->
<g id="edge7" class="edge">
<title>Baz_print_x_&#45;&gt;Foo_print_x_</title>
<path fill="none" stroke="black" d="M1068.5,-395.56C1048.02,-333.52 978.6,-123.12 953.45,-46.88"/>
<polygon fill="black" stroke="black" points="956.87,-46.07 950.41,-37.67 950.22,-48.27 956.87,-46.07"/>
</g>
<!-- Baz_multiply_x_by_10_ -->
<g id="node9" class="node">
<title>Baz_multiply_x_by_10_</title>
<polygon fill="lightblue" stroke="white" points="1136.62,-828 969.88,-828 969.88,-792 1136.62,-792 1136.62,-828"/>
<text text-anchor="middle" x="1053.25" y="-804.95" font-family="Arial" font-size="14.00">Baz_multiply_x_by_10_</text>
</g>
<!-- Baz_multiply_x_by_10_&#45;&gt;Foo_multiply_x_ -->
<g id="edge8" class="edge">
<title>Baz_multiply_x_by_10_&#45;&gt;Foo_multiply_x_</title>
<path fill="none" stroke="black" d="M1047.76,-791.56C1028.23,-729.52 962.02,-519.12 938.02,-442.88"/>
<polygon fill="black" stroke="black" points="941.47,-442.17 935.13,-433.68 934.79,-444.27 941.47,-442.17"/>
</g>
<!-- Baz_multiply_x_by_10_&#45;&gt;Foo_print_x_ -->
<g id="edge9" class="edge">
<title>Baz_multiply_x_by_10_&#45;&gt;Foo_print_x_</title>
<path fill="none" stroke="black" d="M1062.6,-791.6C1092.03,-734.59 1178.66,-548.36 1141.25,-396 1106.14,-252.99 1006.21,-104.04 963.73,-45.17"/>
<polygon fill="black" stroke="black" points="966.8,-43.43 958.09,-37.41 961.14,-47.56 966.8,-43.43"/>
</g>
</g>
</svg>
