<?xml version="1.0" encoding="UTF-8" standalone="no"?>
<!DOCTYPE svg PUBLIC "-//W3C//DTD SVG 1.1//EN"
 "http://www.w3.org/Graphics/SVG/1.1/DTD/svg11.dtd">
<!-- Generated by graphviz version 9.0.0 (20230911.1827)
 -->
<!-- Title: CallGraph Pages: 1 -->
<svg width="442pt" height="836pt"
 viewBox="0.00 0.00 441.50 836.00" xmlns="http://www.w3.org/2000/svg" xmlns:xlink="http://www.w3.org/1999/xlink">
<g id="graph0" class="graph" transform="scale(1 1) rotate(0) translate(4 832)">
<title>CallGraph</title>
<polygon fill="white" stroke="none" points="-4,4 -4,-832 437.5,-832 437.5,4 -4,4"/>
<!-- Foo_set_x_ -->
<g id="node1" class="node">
<title>Foo_set_x_</title>
<polygon fill="lightblue" stroke="white" points="223.12,-828 130.62,-828 130.62,-792 223.12,-792 223.12,-828"/>
<text text-anchor="middle" x="176.88" y="-804.95" font-family="Arial" font-size="14.00">Foo_set_x_</text>
</g>
<!-- Foo_initialize_x_ -->
<g id="node2" class="node">
<title>Foo_initialize_x_</title>
<polygon fill="lightblue" stroke="white" points="121.75,-432 0,-432 0,-396 121.75,-396 121.75,-432"/>
<text text-anchor="middle" x="60.88" y="-408.95" font-family="Arial" font-size="14.00">Foo_initialize_x_</text>
</g>
<!-- Foo_set_x_&#45;&gt;Foo_initialize_x_ -->
<g id="edge1" class="edge">
<title>Foo_set_x_&#45;&gt;Foo_initialize_x_</title>
<path fill="none" stroke="black" d="M171.74,-791.56C153.47,-729.52 91.53,-519.12 69.08,-442.88"/>
<polygon fill="black" stroke="black" points="72.56,-442.29 66.38,-433.69 65.84,-444.27 72.56,-442.29"/>
</g>
<!-- Foo_perform_computations_ -->
<g id="node3" class="node">
<title>Foo_perform_computations_</title>
<polygon fill="lightblue" stroke="white" points="433.5,-432 232.25,-432 232.25,-396 433.5,-396 433.5,-432"/>
<text text-anchor="middle" x="332.88" y="-408.95" font-family="Arial" font-size="14.00">Foo_perform_computations_</text>
</g>
<!-- Foo_set_x_&#45;&gt;Foo_perform_computations_ -->
<g id="edge2" class="edge">
<title>Foo_set_x_&#45;&gt;Foo_perform_computations_</title>
<path fill="none" stroke="black" d="M183.78,-791.56C208.35,-729.52 291.65,-519.12 321.84,-442.88"/>
<polygon fill="black" stroke="black" points="325.07,-444.23 325.49,-433.64 318.56,-441.65 325.07,-444.23"/>
</g>
<!-- Foo_inc_x_ -->
<g id="node4" class="node">
<title>Foo_inc_x_</title>
<polygon fill="lightblue" stroke="white" points="229.38,-36 138.38,-36 138.38,0 229.38,0 229.38,-36"/>
<text text-anchor="middle" x="183.88" y="-12.95" font-family="Arial" font-size="14.00">Foo_inc_x_</text>
</g>
<!-- Foo_perform_computations_&#45;&gt;Foo_inc_x_ -->
<g id="edge3" class="edge">
<title>Foo_perform_computations_&#45;&gt;Foo_inc_x_</title>
<path fill="none" stroke="black" d="M326.28,-395.56C302.82,-333.52 223.25,-123.12 194.42,-46.88"/>
<polygon fill="black" stroke="black" points="197.74,-45.77 190.93,-37.65 191.19,-48.24 197.74,-45.77"/>
</g>
<!-- Foo_multiply_x_ -->
<g id="node5" class="node">
<title>Foo_multiply_x_</title>
<polygon fill="lightblue" stroke="white" points="393,-36 272.75,-36 272.75,0 393,0 393,-36"/>
<text text-anchor="middle" x="332.88" y="-12.95" font-family="Arial" font-size="14.00">Foo_multiply_x_</text>
</g>
<!-- Foo_perform_computations_&#45;&gt;Foo_multiply_x_ -->
<g id="edge4" class="edge">
<title>Foo_perform_computations_&#45;&gt;Foo_multiply_x_</title>
<path fill="none" stroke="black" d="M332.88,-395.56C332.88,-333.64 332.88,-123.98 332.88,-47.35"/>
<polygon fill="black" stroke="black" points="336.38,-47.75 332.88,-37.75 329.38,-47.75 336.38,-47.75"/>
</g>
<!-- Foo_inc_x_&#45;&gt;Foo_set_x_ -->
<g id="edge5" class="edge">
<title>Foo_inc_x_&#45;&gt;Foo_set_x_</title>
<path fill="none" stroke="black" d="M183.72,-36.35C182.82,-137.65 178.26,-652.65 177.13,-780.33"/>
<polygon fill="black" stroke="black" points="173.63,-780.22 177.04,-790.25 180.63,-780.28 173.63,-780.22"/>
</g>
</g>
</svg>
