<?xml version="1.0" encoding="UTF-8" standalone="no"?>
<!DOCTYPE svg PUBLIC "-//W3C//DTD SVG 1.1//EN"
 "http://www.w3.org/Graphics/SVG/1.1/DTD/svg11.dtd">
<!-- Generated by graphviz version 9.0.0 (20230911.1827)
 -->
<!-- Title: CallGraph Pages: 1 -->
<svg width="5140pt" height="116pt"
 viewBox="0.00 0.00 5139.92 116.00" xmlns="http://www.w3.org/2000/svg" xmlns:xlink="http://www.w3.org/1999/xlink">
<g id="graph0" class="graph" transform="scale(1 1) rotate(0) translate(4 112)">
<title>CallGraph</title>
<polygon fill="white" stroke="none" points="-4,4 -4,-112 5135.92,-112 5135.92,4 -4,4"/>
<!-- authorize_multiple -->
<g id="node1" class="node">
<title>authorize_multiple</title>
<ellipse fill="none" stroke="black" cx="78.01" cy="-90" rx="78.01" ry="18"/>
<text text-anchor="middle" x="78.01" y="-84.58" font-family="Times New Roman,serif" font-size="14.00">authorize_multiple</text>
</g>
<!-- authorize_group -->
<g id="node2" class="node">
<title>authorize_group</title>
<ellipse fill="none" stroke="black" cx="245.01" cy="-90" rx="71.02" ry="18"/>
<text text-anchor="middle" x="245.01" y="-84.58" font-family="Times New Roman,serif" font-size="14.00">authorize_group</text>
</g>
<!-- authorize_role -->
<g id="node3" class="node">
<title>authorize_role</title>
<ellipse fill="none" stroke="black" cx="397.01" cy="-90" rx="63.04" ry="18"/>
<text text-anchor="middle" x="397.01" y="-84.58" font-family="Times New Roman,serif" font-size="14.00">authorize_role</text>
</g>
<!-- user_is_actor_of -->
<g id="node4" class="node">
<title>user_is_actor_of</title>
<ellipse fill="none" stroke="black" cx="620.01" cy="-18" rx="74.02" ry="18"/>
<text text-anchor="middle" x="620.01" y="-12.57" font-family="Times New Roman,serif" font-size="14.00">user_is_actor_of</text>
</g>
<!-- group_is_actor_of -->
<g id="node5" class="node">
<title>group_is_actor_of</title>
<ellipse fill="none" stroke="black" cx="1331.01" cy="-18" rx="80.5" ry="18"/>
<text text-anchor="middle" x="1331.01" y="-12.57" font-family="Times New Roman,serif" font-size="14.00">group_is_actor_of</text>
</g>
<!-- wf_entity_in_accept_state -->
<g id="node6" class="node">
<title>wf_entity_in_accept_state</title>
<ellipse fill="none" stroke="black" cx="1655.01" cy="-18" rx="107.95" ry="18"/>
<text text-anchor="middle" x="1655.01" y="-12.57" font-family="Times New Roman,serif" font-size="14.00">wf_entity_in_accept_state</text>
</g>
<!-- push_user_to -->
<g id="node7" class="node">
<title>push_user_to</title>
<ellipse fill="none" stroke="black" cx="919.01" cy="-18" rx="61.54" ry="18"/>
<text text-anchor="middle" x="919.01" y="-12.57" font-family="Times New Roman,serif" font-size="14.00">push_user_to</text>
</g>
<!-- remove_user_from -->
<g id="node8" class="node">
<title>remove_user_from</title>
<ellipse fill="none" stroke="black" cx="1080.01" cy="-18" rx="81.5" ry="18"/>
<text text-anchor="middle" x="1080.01" y="-12.57" font-family="Times New Roman,serif" font-size="14.00">remove_user_from</text>
</g>
<!-- push_group_to -->
<g id="node9" class="node">
<title>push_group_to</title>
<ellipse fill="none" stroke="black" cx="1871.01" cy="-18" rx="68.03" ry="18"/>
<text text-anchor="middle" x="1871.01" y="-12.57" font-family="Times New Roman,serif" font-size="14.00">push_group_to</text>
</g>
<!-- remove_group_from -->
<g id="node10" class="node">
<title>remove_group_from</title>
<ellipse fill="none" stroke="black" cx="2045.01" cy="-18" rx="87.99" ry="18"/>
<text text-anchor="middle" x="2045.01" y="-12.57" font-family="Times New Roman,serif" font-size="14.00">remove_group_from</text>
</g>
<!-- user_accept -->
<g id="node11" class="node">
<title>user_accept</title>
<ellipse fill="none" stroke="black" cx="2207.01" cy="-18" rx="55.55" ry="18"/>
<text text-anchor="middle" x="2207.01" y="-12.57" font-family="Times New Roman,serif" font-size="14.00">user_accept</text>
</g>
<!-- user_reject -->
<g id="node12" class="node">
<title>user_reject</title>
<ellipse fill="none" stroke="black" cx="3385.01" cy="-18" rx="51.06" ry="18"/>
<text text-anchor="middle" x="3385.01" y="-12.57" font-family="Times New Roman,serif" font-size="14.00">user_reject</text>
</g>
<!-- admin_accept_instead_of -->
<g id="node13" class="node">
<title>admin_accept_instead_of</title>
<ellipse fill="none" stroke="black" cx="2387.01" cy="-18" rx="106.45" ry="18"/>
<text text-anchor="middle" x="2387.01" y="-12.57" font-family="Times New Roman,serif" font-size="14.00">admin_accept_instead_of</text>
</g>
<!-- admin_approve_instead_of -->
<g id="node14" class="node">
<title>admin_approve_instead_of</title>
<ellipse fill="none" stroke="black" cx="3203.01" cy="-18" rx="112.44" ry="18"/>
<text text-anchor="middle" x="3203.01" y="-12.57" font-family="Times New Roman,serif" font-size="14.00">admin_approve_instead_of</text>
</g>
<!-- admin_reject_instead_of -->
<g id="node15" class="node">
<title>admin_reject_instead_of</title>
<ellipse fill="none" stroke="black" cx="2739.01" cy="-18" rx="101.96" ry="18"/>
<text text-anchor="middle" x="2739.01" y="-12.57" font-family="Times New Roman,serif" font-size="14.00">admin_reject_instead_of</text>
</g>
<!-- admin_disapprove_instead_of -->
<g id="node16" class="node">
<title>admin_disapprove_instead_of</title>
<ellipse fill="none" stroke="black" cx="3577.01" cy="-18" rx="123.42" ry="18"/>
<text text-anchor="middle" x="3577.01" y="-12.57" font-family="Times New Roman,serif" font-size="14.00">admin_disapprove_instead_of</text>
</g>
<!-- wording -->
<g id="node17" class="node">
<title>wording</title>
<ellipse fill="none" stroke="black" cx="791.01" cy="-18" rx="41.08" ry="18"/>
<text text-anchor="middle" x="791.01" y="-12.57" font-family="Times New Roman,serif" font-size="14.00">wording</text>
</g>
<!-- create -->
<g id="node18" class="node">
<title>create</title>
<ellipse fill="none" stroke="black" cx="931.01" cy="-90" rx="32.6" ry="18"/>
<text text-anchor="middle" x="931.01" y="-84.58" font-family="Times New Roman,serif" font-size="14.00">create</text>
</g>
<!-- create&#45;&gt;push_user_to -->
<g id="edge1" class="edge">
<title>create&#45;&gt;push_user_to</title>
<path fill="none" stroke="black" d="M928.04,-71.7C926.78,-64.32 925.27,-55.52 923.85,-47.25"/>
<polygon fill="black" stroke="black" points="927.34,-46.86 922.2,-37.6 920.44,-48.04 927.34,-46.86"/>
</g>
<!-- create&#45;&gt;remove_user_from -->
<g id="edge3" class="edge">
<title>create&#45;&gt;remove_user_from</title>
<path fill="none" stroke="black" d="M955.28,-77.6C977.12,-67.34 1009.74,-52.01 1036.14,-39.61"/>
<polygon fill="black" stroke="black" points="1037.36,-42.91 1044.92,-35.49 1034.38,-36.57 1037.36,-42.91"/>
</g>
<!-- create&#45;&gt;wording -->
<g id="edge2" class="edge">
<title>create&#45;&gt;wording</title>
<path fill="none" stroke="black" d="M907.26,-77.13C885.42,-66.2 852.7,-49.84 827.53,-37.26"/>
<polygon fill="black" stroke="black" points="829.12,-34.14 818.61,-32.8 825.99,-40.4 829.12,-34.14"/>
</g>
<!-- create_group -->
<g id="node19" class="node">
<title>create_group</title>
<ellipse fill="none" stroke="black" cx="1871.01" cy="-90" rx="59.55" ry="18"/>
<text text-anchor="middle" x="1871.01" y="-84.58" font-family="Times New Roman,serif" font-size="14.00">create_group</text>
</g>
<!-- create_group&#45;&gt;push_group_to -->
<g id="edge4" class="edge">
<title>create_group&#45;&gt;push_group_to</title>
<path fill="none" stroke="black" d="M1871.01,-71.7C1871.01,-64.41 1871.01,-55.73 1871.01,-47.54"/>
<polygon fill="black" stroke="black" points="1874.51,-47.62 1871.01,-37.62 1867.51,-47.62 1874.51,-47.62"/>
</g>
<!-- destroy -->
<g id="node20" class="node">
<title>destroy</title>
<ellipse fill="none" stroke="black" cx="1020.01" cy="-90" rx="38.59" ry="18"/>
<text text-anchor="middle" x="1020.01" y="-84.58" font-family="Times New Roman,serif" font-size="14.00">destroy</text>
</g>
<!-- destroy&#45;&gt;push_user_to -->
<g id="edge7" class="edge">
<title>destroy&#45;&gt;push_user_to</title>
<path fill="none" stroke="black" d="M999.08,-74.5C985.3,-64.95 966.98,-52.25 951.35,-41.41"/>
<polygon fill="black" stroke="black" points="953.48,-38.63 943.27,-35.81 949.49,-44.38 953.48,-38.63"/>
</g>
<!-- destroy&#45;&gt;remove_user_from -->
<g id="edge5" class="edge">
<title>destroy&#45;&gt;remove_user_from</title>
<path fill="none" stroke="black" d="M1033.93,-72.76C1041.06,-64.44 1049.92,-54.1 1057.96,-44.73"/>
<polygon fill="black" stroke="black" points="1060.5,-47.14 1064.35,-37.27 1055.18,-42.59 1060.5,-47.14"/>
</g>
<!-- destroy&#45;&gt;wording -->
<g id="edge6" class="edge">
<title>destroy&#45;&gt;wording</title>
<path fill="none" stroke="black" d="M990.53,-78C984.74,-75.93 978.7,-73.85 973.01,-72 918.02,-54.16 903.49,-52.26 848.01,-36 843.78,-34.76 839.38,-33.46 834.98,-32.16"/>
<polygon fill="black" stroke="black" points="836.18,-28.87 825.6,-29.37 834.19,-35.58 836.18,-28.87"/>
</g>
<!-- destroy_group -->
<g id="node21" class="node">
<title>destroy_group</title>
<ellipse fill="none" stroke="black" cx="2045.01" cy="-90" rx="65.53" ry="18"/>
<text text-anchor="middle" x="2045.01" y="-84.58" font-family="Times New Roman,serif" font-size="14.00">destroy_group</text>
</g>
<!-- destroy_group&#45;&gt;remove_group_from -->
<g id="edge8" class="edge">
<title>destroy_group&#45;&gt;remove_group_from</title>
<path fill="none" stroke="black" d="M2045.01,-71.7C2045.01,-64.41 2045.01,-55.73 2045.01,-47.54"/>
<polygon fill="black" stroke="black" points="2048.51,-47.62 2045.01,-37.62 2041.51,-47.62 2048.51,-47.62"/>
</g>
<!-- accept -->
<g id="node22" class="node">
<title>accept</title>
<ellipse fill="none" stroke="black" cx="2328.01" cy="-90" rx="35.1" ry="18"/>
<text text-anchor="middle" x="2328.01" y="-84.58" font-family="Times New Roman,serif" font-size="14.00">accept</text>
</g>
<!-- accept&#45;&gt;user_accept -->
<g id="edge9" class="edge">
<title>accept&#45;&gt;user_accept</title>
<path fill="none" stroke="black" d="M2305.25,-75.83C2287.8,-65.74 2263.37,-51.61 2243.24,-39.96"/>
<polygon fill="black" stroke="black" points="2245.18,-37.04 2234.77,-35.06 2241.67,-43.1 2245.18,-37.04"/>
</g>
<!-- wf_entity_state_to_partial -->
<g id="node23" class="node">
<title>wf_entity_state_to_partial</title>
<ellipse fill="none" stroke="black" cx="2966.01" cy="-18" rx="106.95" ry="18"/>
<text text-anchor="middle" x="2966.01" y="-12.57" font-family="Times New Roman,serif" font-size="14.00">wf_entity_state_to_partial</text>
</g>
<!-- accept&#45;&gt;wf_entity_state_to_partial -->
<g id="edge10" class="edge">
<title>accept&#45;&gt;wf_entity_state_to_partial</title>
<path fill="none" stroke="black" d="M2362.45,-85.43C2395.83,-81.97 2447.89,-76.6 2493.01,-72 2651.66,-55.83 2691.74,-55.57 2850.01,-36 2858.91,-34.9 2868.19,-33.67 2877.45,-32.4"/>
<polygon fill="black" stroke="black" points="2877.79,-35.89 2887.2,-31.03 2876.82,-28.95 2877.79,-35.89"/>
</g>
<!-- admin_accept -->
<g id="node24" class="node">
<title>admin_accept</title>
<ellipse fill="none" stroke="black" cx="2565.01" cy="-90" rx="62.54" ry="18"/>
<text text-anchor="middle" x="2565.01" y="-84.58" font-family="Times New Roman,serif" font-size="14.00">admin_accept</text>
</g>
<!-- admin_accept&#45;&gt;admin_accept_instead_of -->
<g id="edge11" class="edge">
<title>admin_accept&#45;&gt;admin_accept_instead_of</title>
<path fill="none" stroke="black" d="M2528.99,-74.83C2502.84,-64.55 2467.1,-50.5 2438.02,-39.06"/>
<polygon fill="black" stroke="black" points="2439.64,-35.94 2429.05,-35.53 2437.07,-42.45 2439.64,-35.94"/>
</g>
<!-- admin_accept&#45;&gt;wf_entity_state_to_partial -->
<g id="edge13" class="edge">
<title>admin_accept&#45;&gt;wf_entity_state_to_partial</title>
<path fill="none" stroke="black" d="M2617.43,-79.85C2684.85,-68.08 2802.74,-47.5 2882.55,-33.57"/>
<polygon fill="black" stroke="black" points="2882.81,-37.08 2892.06,-31.91 2881.6,-30.18 2882.81,-37.08"/>
</g>
<!-- instance_of -->
<g id="node25" class="node">
<title>instance_of</title>
<ellipse fill="none" stroke="black" cx="2565.01" cy="-18" rx="53.56" ry="18"/>
<text text-anchor="middle" x="2565.01" y="-12.57" font-family="Times New Roman,serif" font-size="14.00">instance_of</text>
</g>
<!-- admin_accept&#45;&gt;instance_of -->
<g id="edge12" class="edge">
<title>admin_accept&#45;&gt;instance_of</title>
<path fill="none" stroke="black" d="M2565.01,-71.7C2565.01,-64.41 2565.01,-55.73 2565.01,-47.54"/>
<polygon fill="black" stroke="black" points="2568.51,-47.62 2565.01,-37.62 2561.51,-47.62 2568.51,-47.62"/>
</g>
<!-- admin_approve -->
<g id="node26" class="node">
<title>admin_approve</title>
<ellipse fill="none" stroke="black" cx="3001.01" cy="-90" rx="68.53" ry="18"/>
<text text-anchor="middle" x="3001.01" y="-84.58" font-family="Times New Roman,serif" font-size="14.00">admin_approve</text>
</g>
<!-- admin_approve&#45;&gt;admin_approve_instead_of -->
<g id="edge14" class="edge">
<title>admin_approve&#45;&gt;admin_approve_instead_of</title>
<path fill="none" stroke="black" d="M3041.4,-75C3071.63,-64.53 3113.36,-50.07 3146.84,-38.46"/>
<polygon fill="black" stroke="black" points="3147.67,-41.88 3155.97,-35.3 3145.38,-35.27 3147.67,-41.88"/>
</g>
<!-- admin_approve&#45;&gt;wf_entity_state_to_partial -->
<g id="edge15" class="edge">
<title>admin_approve&#45;&gt;wf_entity_state_to_partial</title>
<path fill="none" stroke="black" d="M2992.36,-71.7C2988.54,-64.07 2983.97,-54.92 2979.71,-46.4"/>
<polygon fill="black" stroke="black" points="2982.84,-44.84 2975.24,-37.46 2976.58,-47.97 2982.84,-44.84"/>
</g>
<!-- reject -->
<g id="node27" class="node">
<title>reject</title>
<ellipse fill="none" stroke="black" cx="3153.01" cy="-90" rx="30.61" ry="18"/>
<text text-anchor="middle" x="3153.01" y="-84.58" font-family="Times New Roman,serif" font-size="14.00">reject</text>
</g>
<!-- reject&#45;&gt;user_reject -->
<g id="edge16" class="edge">
<title>reject&#45;&gt;user_reject</title>
<path fill="none" stroke="black" d="M3179.62,-80.97C3217.75,-69.47 3288.56,-48.1 3336.24,-33.72"/>
<polygon fill="black" stroke="black" points="3337.21,-37.08 3345.78,-30.84 3335.19,-30.38 3337.21,-37.08"/>
</g>
<!-- reject&#45;&gt;wf_entity_state_to_partial -->
<g id="edge17" class="edge">
<title>reject&#45;&gt;wf_entity_state_to_partial</title>
<path fill="none" stroke="black" d="M3127.79,-79.56C3100.14,-69.21 3054.99,-52.31 3019.4,-38.98"/>
<polygon fill="black" stroke="black" points="3020.7,-35.73 3010.11,-35.51 3018.24,-42.29 3020.7,-35.73"/>
</g>
<!-- admin_reject -->
<g id="node28" class="node">
<title>admin_reject</title>
<ellipse fill="none" stroke="black" cx="2739.01" cy="-90" rx="58.05" ry="18"/>
<text text-anchor="middle" x="2739.01" y="-84.58" font-family="Times New Roman,serif" font-size="14.00">admin_reject</text>
</g>
<!-- admin_reject&#45;&gt;admin_reject_instead_of -->
<g id="edge18" class="edge">
<title>admin_reject&#45;&gt;admin_reject_instead_of</title>
<path fill="none" stroke="black" d="M2739.01,-71.7C2739.01,-64.41 2739.01,-55.73 2739.01,-47.54"/>
<polygon fill="black" stroke="black" points="2742.51,-47.62 2739.01,-37.62 2735.51,-47.62 2742.51,-47.62"/>
</g>
<!-- admin_reject&#45;&gt;wf_entity_state_to_partial -->
<g id="edge20" class="edge">
<title>admin_reject&#45;&gt;wf_entity_state_to_partial</title>
<path fill="none" stroke="black" d="M2779.07,-76.65C2814.09,-65.85 2865.45,-50.01 2905.48,-37.66"/>
<polygon fill="black" stroke="black" points="2906.48,-41.02 2915,-34.73 2904.42,-34.33 2906.48,-41.02"/>
</g>
<!-- admin_reject&#45;&gt;instance_of -->
<g id="edge19" class="edge">
<title>admin_reject&#45;&gt;instance_of</title>
<path fill="none" stroke="black" d="M2704.63,-75.17C2677.2,-64.13 2638.59,-48.6 2608.92,-36.66"/>
<polygon fill="black" stroke="black" points="2610.42,-33.49 2599.83,-33.01 2607.8,-39.99 2610.42,-33.49"/>
</g>
<!-- admin_disapprove -->
<g id="node29" class="node">
<title>admin_disapprove</title>
<ellipse fill="none" stroke="black" cx="3419.01" cy="-90" rx="79.51" ry="18"/>
<text text-anchor="middle" x="3419.01" y="-84.58" font-family="Times New Roman,serif" font-size="14.00">admin_disapprove</text>
</g>
<!-- admin_disapprove&#45;&gt;admin_disapprove_instead_of -->
<g id="edge21" class="edge">
<title>admin_disapprove&#45;&gt;admin_disapprove_instead_of</title>
<path fill="none" stroke="black" d="M3454.07,-73.46C3476.17,-63.68 3504.99,-50.91 3529.17,-40.2"/>
<polygon fill="black" stroke="black" points="3530.45,-43.45 3538.18,-36.2 3527.62,-37.05 3530.45,-43.45"/>
</g>
<!-- admin_disapprove&#45;&gt;wf_entity_state_to_partial -->
<g id="edge22" class="edge">
<title>admin_disapprove&#45;&gt;wf_entity_state_to_partial</title>
<path fill="none" stroke="black" d="M3354.59,-79.05C3275.84,-66.88 3142.21,-46.23 3054.03,-32.6"/>
<polygon fill="black" stroke="black" points="3054.62,-29.15 3044.2,-31.08 3053.55,-36.07 3054.62,-29.15"/>
</g>
<!-- find_wf_entity -->
<g id="node30" class="node">
<title>find_wf_entity</title>
<ellipse fill="none" stroke="black" cx="3650.01" cy="-90" rx="64.54" ry="18"/>
<text text-anchor="middle" x="3650.01" y="-84.58" font-family="Times New Roman,serif" font-size="14.00">find_wf_entity</text>
</g>
<!-- find_by -->
<g id="node31" class="node">
<title>find_by</title>
<ellipse fill="none" stroke="black" cx="3782.01" cy="-18" rx="39.59" ry="18"/>
<text text-anchor="middle" x="3782.01" y="-12.57" font-family="Times New Roman,serif" font-size="14.00">find_by</text>
</g>
<!-- find_wf_entity&#45;&gt;find_by -->
<g id="edge23" class="edge">
<title>find_wf_entity&#45;&gt;find_by</title>
<path fill="none" stroke="black" d="M3678.98,-73.64C3699.07,-62.99 3725.92,-48.74 3747.18,-37.47"/>
<polygon fill="black" stroke="black" points="3748.57,-40.69 3755.77,-32.92 3745.29,-34.51 3748.57,-40.69"/>
</g>
<!-- t -->
<g id="node32" class="node">
<title>t</title>
<ellipse fill="none" stroke="black" cx="4089.01" cy="-18" rx="27" ry="18"/>
<text text-anchor="middle" x="4089.01" y="-12.57" font-family="Times New Roman,serif" font-size="14.00">t</text>
</g>
<!-- find_wf_entity&#45;&gt;t -->
<g id="edge24" class="edge">
<title>find_wf_entity&#45;&gt;t</title>
<path fill="none" stroke="black" d="M3697.4,-77.35C3705.9,-75.43 3714.7,-73.57 3723.01,-72 3842.05,-49.56 3984.42,-31.41 4051.08,-23.41"/>
<polygon fill="black" stroke="black" points="4051.23,-26.92 4060.74,-22.26 4050.4,-19.97 4051.23,-26.92"/>
</g>
<!-- require_wf_entity_in_edition -->
<g id="node33" class="node">
<title>require_wf_entity_in_edition</title>
<ellipse fill="none" stroke="black" cx="4089.01" cy="-90" rx="116.93" ry="18"/>
<text text-anchor="middle" x="4089.01" y="-84.58" font-family="Times New Roman,serif" font-size="14.00">require_wf_entity_in_edition</text>
</g>
<!-- require_wf_entity_in_edition&#45;&gt;t -->
<g id="edge25" class="edge">
<title>require_wf_entity_in_edition&#45;&gt;t</title>
<path fill="none" stroke="black" d="M4089.01,-71.7C4089.01,-64.41 4089.01,-55.73 4089.01,-47.54"/>
<polygon fill="black" stroke="black" points="4092.51,-47.62 4089.01,-37.62 4085.51,-47.62 4092.51,-47.62"/>
</g>
<!-- check_authorize_multiple -->
<g id="node34" class="node">
<title>check_authorize_multiple</title>
<ellipse fill="none" stroke="black" cx="4757.01" cy="-90" rx="104.96" ry="18"/>
<text text-anchor="middle" x="4757.01" y="-84.58" font-family="Times New Roman,serif" font-size="14.00">check_authorize_multiple</text>
</g>
<!-- check_authorize_multiple&#45;&gt;t -->
<g id="edge27" class="edge">
<title>check_authorize_multiple&#45;&gt;t</title>
<path fill="none" stroke="black" d="M4681.35,-77.15C4668.57,-75.31 4655.42,-73.52 4643.01,-72 4449.57,-48.34 4217.05,-29.06 4127.11,-21.95"/>
<polygon fill="black" stroke="black" points="4127.63,-18.48 4117.38,-21.18 4127.08,-25.46 4127.63,-18.48"/>
</g>
<!-- split -->
<g id="node35" class="node">
<title>split</title>
<ellipse fill="none" stroke="black" cx="4757.01" cy="-18" rx="27" ry="18"/>
<text text-anchor="middle" x="4757.01" y="-12.57" font-family="Times New Roman,serif" font-size="14.00">split</text>
</g>
<!-- check_authorize_multiple&#45;&gt;split -->
<g id="edge26" class="edge">
<title>check_authorize_multiple&#45;&gt;split</title>
<path fill="none" stroke="black" d="M4757.01,-71.7C4757.01,-64.41 4757.01,-55.73 4757.01,-47.54"/>
<polygon fill="black" stroke="black" points="4760.51,-47.62 4757.01,-37.62 4753.51,-47.62 4760.51,-47.62"/>
</g>
<!-- find_users -->
<g id="node36" class="node">
<title>find_users</title>
<ellipse fill="none" stroke="black" cx="3782.01" cy="-90" rx="49.57" ry="18"/>
<text text-anchor="middle" x="3782.01" y="-84.58" font-family="Times New Roman,serif" font-size="14.00">find_users</text>
</g>
<!-- find_users&#45;&gt;find_by -->
<g id="edge28" class="edge">
<title>find_users&#45;&gt;find_by</title>
<path fill="none" stroke="black" d="M3782.01,-71.7C3782.01,-64.41 3782.01,-55.73 3782.01,-47.54"/>
<polygon fill="black" stroke="black" points="3785.51,-47.62 3782.01,-37.62 3778.51,-47.62 3785.51,-47.62"/>
</g>
<!-- find_users&#45;&gt;t -->
<g id="edge29" class="edge">
<title>find_users&#45;&gt;t</title>
<path fill="none" stroke="black" d="M3819.36,-77.81C3826.52,-75.79 3833.98,-73.76 3841.01,-72 3915.38,-53.36 4003.33,-35.56 4051.97,-26.07"/>
<polygon fill="black" stroke="black" points="4052.53,-29.53 4061.68,-24.19 4051.2,-22.66 4052.53,-29.53"/>
</g>
<!-- check_authorize_group -->
<g id="node37" class="node">
<title>check_authorize_group</title>
<ellipse fill="none" stroke="black" cx="4322.01" cy="-90" rx="97.97" ry="18"/>
<text text-anchor="middle" x="4322.01" y="-84.58" font-family="Times New Roman,serif" font-size="14.00">check_authorize_group</text>
</g>
<!-- check_authorize_group&#45;&gt;t -->
<g id="edge30" class="edge">
<title>check_authorize_group&#45;&gt;t</title>
<path fill="none" stroke="black" d="M4272.31,-74.07C4227.79,-60.69 4163.61,-41.41 4124.2,-29.57"/>
<polygon fill="black" stroke="black" points="4125.33,-26.26 4114.74,-26.73 4123.31,-32.96 4125.33,-26.26"/>
</g>
<!-- find_group -->
<g id="node38" class="node">
<title>find_group</title>
<ellipse fill="none" stroke="black" cx="3902.01" cy="-90" rx="52.06" ry="18"/>
<text text-anchor="middle" x="3902.01" y="-84.58" font-family="Times New Roman,serif" font-size="14.00">find_group</text>
</g>
<!-- find_group&#45;&gt;find_by -->
<g id="edge31" class="edge">
<title>find_group&#45;&gt;find_by</title>
<path fill="none" stroke="black" d="M3876.27,-73.98C3858.52,-63.63 3834.76,-49.77 3815.54,-38.56"/>
<polygon fill="black" stroke="black" points="3817.38,-35.58 3806.98,-33.57 3813.85,-41.63 3817.38,-35.58"/>
</g>
<!-- find_group&#45;&gt;t -->
<g id="edge32" class="edge">
<title>find_group&#45;&gt;t</title>
<path fill="none" stroke="black" d="M3936.31,-76.16C3970.13,-63.5 4021.5,-44.27 4055.16,-31.67"/>
<polygon fill="black" stroke="black" points="4056.29,-34.98 4064.43,-28.2 4053.84,-28.43 4056.29,-34.98"/>
</g>
<!-- filter_users_not_actors -->
<g id="node39" class="node">
<title>filter_users_not_actors</title>
<ellipse fill="none" stroke="black" cx="575.01" cy="-90" rx="96.47" ry="18"/>
<text text-anchor="middle" x="575.01" y="-84.58" font-family="Times New Roman,serif" font-size="14.00">filter_users_not_actors</text>
</g>
<!-- filter_users_not_actors&#45;&gt;user_is_actor_of -->
<g id="edge33" class="edge">
<title>filter_users_not_actors&#45;&gt;user_is_actor_of</title>
<path fill="none" stroke="black" d="M586.13,-71.7C591.2,-63.81 597.31,-54.3 602.94,-45.55"/>
<polygon fill="black" stroke="black" points="605.73,-47.68 608.2,-37.38 599.84,-43.9 605.73,-47.68"/>
</g>
<!-- filter_users_not_actors&#45;&gt;wording -->
<g id="edge34" class="edge">
<title>filter_users_not_actors&#45;&gt;wording</title>
<path fill="none" stroke="black" d="M621.88,-73.81C659.32,-61.68 711.38,-44.8 747.82,-33"/>
<polygon fill="black" stroke="black" points="748.72,-36.38 757.16,-29.97 746.57,-29.72 748.72,-36.38"/>
</g>
<!-- require_group_not_actor -->
<g id="node40" class="node">
<title>require_group_not_actor</title>
<ellipse fill="none" stroke="black" cx="1181.01" cy="-90" rx="103.96" ry="18"/>
<text text-anchor="middle" x="1181.01" y="-84.58" font-family="Times New Roman,serif" font-size="14.00">require_group_not_actor</text>
</g>
<!-- require_group_not_actor&#45;&gt;group_is_actor_of -->
<g id="edge35" class="edge">
<title>require_group_not_actor&#45;&gt;group_is_actor_of</title>
<path fill="none" stroke="black" d="M1216.18,-72.59C1237.33,-62.72 1264.45,-50.06 1287.01,-39.53"/>
<polygon fill="black" stroke="black" points="1288.4,-42.75 1295.98,-35.35 1285.44,-36.4 1288.4,-42.75"/>
</g>
<!-- require_group_is_actor -->
<g id="node41" class="node">
<title>require_group_is_actor</title>
<ellipse fill="none" stroke="black" cx="1401.01" cy="-90" rx="97.97" ry="18"/>
<text text-anchor="middle" x="1401.01" y="-84.58" font-family="Times New Roman,serif" font-size="14.00">require_group_is_actor</text>
</g>
<!-- require_group_is_actor&#45;&gt;group_is_actor_of -->
<g id="edge36" class="edge">
<title>require_group_is_actor&#45;&gt;group_is_actor_of</title>
<path fill="none" stroke="black" d="M1384.06,-72.05C1375.55,-63.54 1365.08,-53.07 1355.69,-43.68"/>
<polygon fill="black" stroke="black" points="1358.41,-41.46 1348.87,-36.86 1353.47,-46.41 1358.41,-41.46"/>
</g>
<!-- filter_users_are_actors -->
<g id="node42" class="node">
<title>filter_users_are_actors</title>
<ellipse fill="none" stroke="black" cx="785.01" cy="-90" rx="95.47" ry="18"/>
<text text-anchor="middle" x="785.01" y="-84.58" font-family="Times New Roman,serif" font-size="14.00">filter_users_are_actors</text>
</g>
<!-- filter_users_are_actors&#45;&gt;user_is_actor_of -->
<g id="edge37" class="edge">
<title>filter_users_are_actors&#45;&gt;user_is_actor_of</title>
<path fill="none" stroke="black" d="M747.57,-73.12C723.33,-62.83 691.62,-49.38 665.87,-38.46"/>
<polygon fill="black" stroke="black" points="667.57,-35.38 657,-34.69 664.84,-41.82 667.57,-35.38"/>
</g>
<!-- filter_users_are_actors&#45;&gt;wording -->
<g id="edge38" class="edge">
<title>filter_users_are_actors&#45;&gt;wording</title>
<path fill="none" stroke="black" d="M786.49,-71.7C787.12,-64.41 787.86,-55.73 788.56,-47.54"/>
<polygon fill="black" stroke="black" points="792.05,-47.87 789.41,-37.61 785.07,-47.28 792.05,-47.87"/>
</g>
<!-- require_wf_entity_in_accept_state -->
<g id="node43" class="node">
<title>require_wf_entity_in_accept_state</title>
<ellipse fill="none" stroke="black" cx="1655.01" cy="-90" rx="138.39" ry="18"/>
<text text-anchor="middle" x="1655.01" y="-84.58" font-family="Times New Roman,serif" font-size="14.00">require_wf_entity_in_accept_state</text>
</g>
<!-- require_wf_entity_in_accept_state&#45;&gt;wf_entity_in_accept_state -->
<g id="edge39" class="edge">
<title>require_wf_entity_in_accept_state&#45;&gt;wf_entity_in_accept_state</title>
<path fill="none" stroke="black" d="M1655.01,-71.7C1655.01,-64.41 1655.01,-55.73 1655.01,-47.54"/>
<polygon fill="black" stroke="black" points="1658.51,-47.62 1655.01,-37.62 1651.51,-47.62 1658.51,-47.62"/>
</g>
<!-- require_user_is_current -->
<g id="node44" class="node">
<title>require_user_is_current</title>
<ellipse fill="none" stroke="black" cx="4536.01" cy="-90" rx="98.47" ry="18"/>
<text text-anchor="middle" x="4536.01" y="-84.58" font-family="Times New Roman,serif" font-size="14.00">require_user_is_current</text>
</g>
<!-- require_user_is_current&#45;&gt;t -->
<g id="edge40" class="edge">
<title>require_user_is_current&#45;&gt;t</title>
<path fill="none" stroke="black" d="M4463.49,-77.45C4451.96,-75.62 4440.16,-73.75 4429.01,-72 4318.96,-54.68 4188.83,-34.47 4126.26,-24.77"/>
<polygon fill="black" stroke="black" points="4126.95,-21.33 4116.53,-23.26 4125.87,-28.25 4126.95,-21.33"/>
</g>
<!-- require_current_user_is_admin -->
<g id="node45" class="node">
<title>require_current_user_is_admin</title>
<ellipse fill="none" stroke="black" cx="5006.01" cy="-90" rx="125.91" ry="18"/>
<text text-anchor="middle" x="5006.01" y="-84.58" font-family="Times New Roman,serif" font-size="14.00">require_current_user_is_admin</text>
</g>
</g>
</svg>
