<?xml version="1.0" encoding="UTF-8" standalone="no"?>
<!DOCTYPE svg PUBLIC "-//W3C//DTD SVG 1.1//EN"
 "http://www.w3.org/Graphics/SVG/1.1/DTD/svg11.dtd">
<!-- Generated by graphviz version 9.0.0 (20230911.1827)
 -->
<!-- Title: CallGraph Pages: 1 -->
<svg width="2828pt" height="260pt"
 viewBox="0.00 0.00 2828.16 260.00" xmlns="http://www.w3.org/2000/svg" xmlns:xlink="http://www.w3.org/1999/xlink">
<g id="graph0" class="graph" transform="scale(1 1) rotate(0) translate(4 256)">
<title>CallGraph</title>
<polygon fill="white" stroke="none" points="-4,4 -4,-256 2824.16,-256 2824.16,4 -4,4"/>
<!-- index -->
<g id="node1" class="node">
<title>index</title>
<ellipse fill="none" stroke="black" cx="317.05" cy="-234" rx="30.61" ry="18"/>
<text text-anchor="middle" x="317.05" y="-228.57" font-family="Times New Roman,serif" font-size="14.00">index</text>
</g>
<!-- policy_scope -->
<g id="node2" class="node">
<title>policy_scope</title>
<ellipse fill="none" stroke="black" cx="197.05" cy="-162" rx="61.04" ry="18"/>
<text text-anchor="middle" x="197.05" y="-156.57" font-family="Times New Roman,serif" font-size="14.00">policy_scope</text>
</g>
<!-- index&#45;&gt;policy_scope -->
<g id="edge1" class="edge">
<title>index&#45;&gt;policy_scope</title>
<path fill="none" stroke="black" d="M295.87,-220.65C278.6,-210.57 253.81,-196.11 233.39,-184.2"/>
<polygon fill="black" stroke="black" points="235.17,-181.19 224.77,-179.17 231.64,-187.23 235.17,-181.19"/>
</g>
<!-- includes -->
<g id="node3" class="node">
<title>includes</title>
<ellipse fill="none" stroke="black" cx="317.05" cy="-162" rx="41.08" ry="18"/>
<text text-anchor="middle" x="317.05" y="-156.57" font-family="Times New Roman,serif" font-size="14.00">includes</text>
</g>
<!-- index&#45;&gt;includes -->
<g id="edge2" class="edge">
<title>index&#45;&gt;includes</title>
<path fill="none" stroke="black" d="M317.05,-215.7C317.05,-208.41 317.05,-199.73 317.05,-191.54"/>
<polygon fill="black" stroke="black" points="320.55,-191.62 317.05,-181.62 313.55,-191.62 320.55,-191.62"/>
</g>
<!-- act_hashed -->
<g id="node4" class="node">
<title>act_hashed</title>
<ellipse fill="none" stroke="black" cx="429.05" cy="-162" rx="52.56" ry="18"/>
<text text-anchor="middle" x="429.05" y="-156.57" font-family="Times New Roman,serif" font-size="14.00">act_hashed</text>
</g>
<!-- index&#45;&gt;act_hashed -->
<g id="edge3" class="edge">
<title>index&#45;&gt;act_hashed</title>
<path fill="none" stroke="black" d="M337.59,-220.16C353.65,-210.12 376.32,-195.96 395.07,-184.24"/>
<polygon fill="black" stroke="black" points="396.83,-187.26 403.45,-179 393.12,-181.33 396.83,-187.26"/>
</g>
<!-- new -->
<g id="node5" class="node">
<title>new</title>
<ellipse fill="none" stroke="black" cx="469.05" cy="-90" rx="27" ry="18"/>
<text text-anchor="middle" x="469.05" y="-84.58" font-family="Times New Roman,serif" font-size="14.00">new</text>
</g>
<!-- possible_responsibilities -->
<g id="node6" class="node">
<title>possible_responsibilities</title>
<ellipse fill="none" stroke="black" cx="585.05" cy="-18" rx="101.46" ry="18"/>
<text text-anchor="middle" x="585.05" y="-12.57" font-family="Times New Roman,serif" font-size="14.00">possible_responsibilities</text>
</g>
<!-- new&#45;&gt;possible_responsibilities -->
<g id="edge4" class="edge">
<title>new&#45;&gt;possible_responsibilities</title>
<path fill="none" stroke="black" d="M488.72,-77.13C504.87,-67.38 528.19,-53.31 547.84,-41.45"/>
<polygon fill="black" stroke="black" points="549.38,-44.61 556.14,-36.45 545.77,-38.62 549.38,-44.61"/>
</g>
<!-- create -->
<g id="node7" class="node">
<title>create</title>
<ellipse fill="none" stroke="black" cx="532.05" cy="-162" rx="32.6" ry="18"/>
<text text-anchor="middle" x="532.05" y="-156.57" font-family="Times New Roman,serif" font-size="14.00">create</text>
</g>
<!-- create&#45;&gt;new -->
<g id="edge5" class="edge">
<title>create&#45;&gt;new</title>
<path fill="none" stroke="black" d="M518.06,-145.46C509.88,-136.37 499.38,-124.7 490.19,-114.5"/>
<polygon fill="black" stroke="black" points="492.86,-112.23 483.57,-107.14 487.66,-116.91 492.86,-112.23"/>
</g>
<!-- merge -->
<g id="node8" class="node">
<title>merge</title>
<ellipse fill="none" stroke="black" cx="2061.05" cy="-90" rx="33.1" ry="18"/>
<text text-anchor="middle" x="2061.05" y="-84.58" font-family="Times New Roman,serif" font-size="14.00">merge</text>
</g>
<!-- create&#45;&gt;merge -->
<g id="edge6" class="edge">
<title>create&#45;&gt;merge</title>
<path fill="none" stroke="black" d="M564.56,-159.38C629.46,-156.17 779.72,-148.91 906.05,-144 1153.32,-134.38 1776.94,-159.22 2019.05,-108 2021.33,-107.52 2023.65,-106.92 2025.97,-106.23"/>
<polygon fill="black" stroke="black" points="2026.88,-109.62 2035.2,-103.05 2024.6,-103 2026.88,-109.62"/>
</g>
<!-- process_state -->
<g id="node9" class="node">
<title>process_state</title>
<ellipse fill="none" stroke="black" cx="200.05" cy="-90" rx="62.04" ry="18"/>
<text text-anchor="middle" x="200.05" y="-84.58" font-family="Times New Roman,serif" font-size="14.00">process_state</text>
</g>
<!-- create&#45;&gt;process_state -->
<g id="edge7" class="edge">
<title>create&#45;&gt;process_state</title>
<path fill="none" stroke="black" d="M507.66,-149.81C502.27,-147.64 496.53,-145.56 491.05,-144 395.76,-116.85 368.18,-127.55 271.05,-108 266.43,-107.07 261.66,-106.05 256.88,-105"/>
<polygon fill="black" stroke="black" points="257.77,-101.61 247.25,-102.8 256.22,-108.43 257.77,-101.61"/>
</g>
<!-- process_responsibilities -->
<g id="node10" class="node">
<title>process_responsibilities</title>
<ellipse fill="none" stroke="black" cx="960.05" cy="-90" rx="99.97" ry="18"/>
<text text-anchor="middle" x="960.05" y="-84.58" font-family="Times New Roman,serif" font-size="14.00">process_responsibilities</text>
</g>
<!-- create&#45;&gt;process_responsibilities -->
<g id="edge8" class="edge">
<title>create&#45;&gt;process_responsibilities</title>
<path fill="none" stroke="black" d="M563.17,-155.91C628.3,-145.26 780.86,-120.31 876.72,-104.63"/>
<polygon fill="black" stroke="black" points="877.04,-108.12 886.34,-103.05 875.91,-101.21 877.04,-108.12"/>
</g>
<!-- process_fieldables -->
<g id="node11" class="node">
<title>process_fieldables</title>
<ellipse fill="none" stroke="black" cx="594.05" cy="-90" rx="80.01" ry="18"/>
<text text-anchor="middle" x="594.05" y="-84.58" font-family="Times New Roman,serif" font-size="14.00">process_fieldables</text>
</g>
<!-- create&#45;&gt;process_fieldables -->
<g id="edge9" class="edge">
<title>create&#45;&gt;process_fieldables</title>
<path fill="none" stroke="black" d="M545.81,-145.46C553.34,-136.95 562.88,-126.19 571.47,-116.48"/>
<polygon fill="black" stroke="black" points="574.01,-118.9 578.02,-109.09 568.77,-114.26 574.01,-118.9"/>
</g>
<!-- new_internal_ref -->
<g id="node12" class="node">
<title>new_internal_ref</title>
<ellipse fill="none" stroke="black" cx="352.05" cy="-90" rx="72.02" ry="18"/>
<text text-anchor="middle" x="352.05" y="-84.58" font-family="Times New Roman,serif" font-size="14.00">new_internal_ref</text>
</g>
<!-- create&#45;&gt;new_internal_ref -->
<g id="edge10" class="edge">
<title>create&#45;&gt;new_internal_ref</title>
<path fill="none" stroke="black" d="M506.5,-150.28C501.39,-148.17 496.06,-145.99 491.05,-144 461.52,-132.25 428.26,-119.55 401.69,-109.53"/>
<polygon fill="black" stroke="black" points="403.12,-106.33 392.52,-106.08 400.65,-112.88 403.12,-106.33"/>
</g>
<!-- save_and_render -->
<g id="node13" class="node">
<title>save_and_render</title>
<ellipse fill="none" stroke="black" cx="1368.05" cy="-90" rx="74.02" ry="18"/>
<text text-anchor="middle" x="1368.05" y="-84.58" font-family="Times New Roman,serif" font-size="14.00">save_and_render</text>
</g>
<!-- create&#45;&gt;save_and_render -->
<g id="edge11" class="edge">
<title>create&#45;&gt;save_and_render</title>
<path fill="none" stroke="black" d="M564.48,-159.29C689.8,-152.59 1142.38,-127.54 1285.05,-108 1291.15,-107.16 1297.47,-106.15 1303.79,-105.03"/>
<polygon fill="black" stroke="black" points="1304.41,-108.47 1313.6,-103.21 1303.13,-101.59 1304.41,-108.47"/>
</g>
<!-- create_notice -->
<g id="node14" class="node">
<title>create_notice</title>
<ellipse fill="none" stroke="black" cx="60.05" cy="-90" rx="60.05" ry="18"/>
<text text-anchor="middle" x="60.05" y="-84.58" font-family="Times New Roman,serif" font-size="14.00">create_notice</text>
</g>
<!-- create&#45;&gt;create_notice -->
<g id="edge12" class="edge">
<title>create&#45;&gt;create_notice</title>
<path fill="none" stroke="black" d="M507.73,-149.55C502.34,-147.4 496.58,-145.39 491.05,-144 334.23,-104.61 288.39,-135.41 129.05,-108 124.4,-107.2 119.59,-106.26 114.79,-105.24"/>
<polygon fill="black" stroke="black" points="115.65,-101.84 105.13,-103.07 114.12,-108.67 115.65,-101.84"/>
</g>
<!-- show -->
<g id="node15" class="node">
<title>show</title>
<ellipse fill="none" stroke="black" cx="946.05" cy="-162" rx="30.61" ry="18"/>
<text text-anchor="middle" x="946.05" y="-156.57" font-family="Times New Roman,serif" font-size="14.00">show</text>
</g>
<!-- show&#45;&gt;possible_responsibilities -->
<g id="edge16" class="edge">
<title>show&#45;&gt;possible_responsibilities</title>
<path fill="none" stroke="black" d="M915.51,-158.87C870.5,-154.64 784.79,-142.4 721.05,-108 700.57,-96.95 701.88,-85.65 683.05,-72 666.68,-60.14 647.35,-49.13 630.2,-40.26"/>
<polygon fill="black" stroke="black" points="632.24,-37.37 621.74,-35.97 629.08,-43.61 632.24,-37.37"/>
</g>
<!-- find -->
<g id="node16" class="node">
<title>find</title>
<ellipse fill="none" stroke="black" cx="1105.05" cy="-90" rx="27" ry="18"/>
<text text-anchor="middle" x="1105.05" y="-84.58" font-family="Times New Roman,serif" font-size="14.00">find</text>
</g>
<!-- show&#45;&gt;find -->
<g id="edge13" class="edge">
<title>show&#45;&gt;find</title>
<path fill="none" stroke="black" d="M970.19,-150.88C995.07,-140.39 1034.92,-123.4 1069.05,-108 1070.36,-107.41 1071.69,-106.8 1073.04,-106.18"/>
<polygon fill="black" stroke="black" points="1074.43,-109.4 1082.03,-102.01 1071.48,-103.05 1074.43,-109.4"/>
</g>
<!-- authorize -->
<g id="node17" class="node">
<title>authorize</title>
<ellipse fill="none" stroke="black" cx="2156.05" cy="-90" rx="44.08" ry="18"/>
<text text-anchor="middle" x="2156.05" y="-84.58" font-family="Times New Roman,serif" font-size="14.00">authorize</text>
</g>
<!-- show&#45;&gt;authorize -->
<g id="edge14" class="edge">
<title>show&#45;&gt;authorize</title>
<path fill="none" stroke="black" d="M976.13,-158.14C1016.71,-154.38 1091.27,-147.8 1155.05,-144 1365.49,-131.45 1895.42,-144.53 2103.05,-108 2106.41,-107.41 2109.86,-106.66 2113.3,-105.8"/>
<polygon fill="black" stroke="black" points="2114.02,-109.23 2122.71,-103.17 2112.14,-102.49 2114.02,-109.23"/>
</g>
<!-- fields_entity -->
<g id="node18" class="node">
<title>fields_entity</title>
<ellipse fill="none" stroke="black" cx="786.05" cy="-90" rx="55.55" ry="18"/>
<text text-anchor="middle" x="786.05" y="-84.58" font-family="Times New Roman,serif" font-size="14.00">fields_entity</text>
</g>
<!-- show&#45;&gt;fields_entity -->
<g id="edge15" class="edge">
<title>show&#45;&gt;fields_entity</title>
<path fill="none" stroke="black" d="M922.09,-150.52C897.37,-139.71 858.3,-122.61 828.36,-109.51"/>
<polygon fill="black" stroke="black" points="830.14,-106.47 819.58,-105.67 827.34,-112.88 830.14,-106.47"/>
</g>
<!-- update -->
<g id="node19" class="node">
<title>update</title>
<ellipse fill="none" stroke="black" cx="1450.05" cy="-162" rx="35.6" ry="18"/>
<text text-anchor="middle" x="1450.05" y="-156.57" font-family="Times New Roman,serif" font-size="14.00">update</text>
</g>
<!-- update&#45;&gt;process_fieldables -->
<g id="edge19" class="edge">
<title>update&#45;&gt;process_fieldables</title>
<path fill="none" stroke="black" d="M1415.19,-157.84C1375.47,-154.28 1308.61,-148.41 1251.05,-144 1015.64,-125.95 955.95,-131.67 721.05,-108 704.86,-106.37 687.56,-104.28 671.1,-102.13"/>
<polygon fill="black" stroke="black" points="671.74,-98.69 661.37,-100.84 670.82,-105.63 671.74,-98.69"/>
</g>
<!-- update&#45;&gt;save_and_render -->
<g id="edge20" class="edge">
<title>update&#45;&gt;save_and_render</title>
<path fill="none" stroke="black" d="M1432.66,-146.15C1422.06,-137.11 1408.28,-125.35 1396.17,-115.01"/>
<polygon fill="black" stroke="black" points="1398.74,-112.6 1388.86,-108.77 1394.2,-117.93 1398.74,-112.6"/>
</g>
<!-- update&#45;&gt;find -->
<g id="edge17" class="edge">
<title>update&#45;&gt;find</title>
<path fill="none" stroke="black" d="M1415.03,-158.11C1356.97,-152.63 1237.6,-138.45 1141.05,-108 1139.44,-107.49 1137.81,-106.93 1136.18,-106.32"/>
<polygon fill="black" stroke="black" points="1137.57,-103.11 1126.99,-102.46 1134.86,-109.56 1137.57,-103.11"/>
</g>
<!-- assign_attributes -->
<g id="node20" class="node">
<title>assign_attributes</title>
<ellipse fill="none" stroke="black" cx="1533.05" cy="-90" rx="72.52" ry="18"/>
<text text-anchor="middle" x="1533.05" y="-84.58" font-family="Times New Roman,serif" font-size="14.00">assign_attributes</text>
</g>
<!-- update&#45;&gt;assign_attributes -->
<g id="edge18" class="edge">
<title>update&#45;&gt;assign_attributes</title>
<path fill="none" stroke="black" d="M1467.65,-146.15C1478.37,-137.11 1492.32,-125.35 1504.58,-115.01"/>
<polygon fill="black" stroke="black" points="1506.59,-117.89 1511.98,-108.76 1502.08,-112.54 1506.59,-117.89"/>
</g>
<!-- log_operation -->
<g id="node21" class="node">
<title>log_operation</title>
<ellipse fill="none" stroke="black" cx="1686.05" cy="-90" rx="62.04" ry="18"/>
<text text-anchor="middle" x="1686.05" y="-84.58" font-family="Times New Roman,serif" font-size="14.00">log_operation</text>
</g>
<!-- update&#45;&gt;log_operation -->
<g id="edge21" class="edge">
<title>update&#45;&gt;log_operation</title>
<path fill="none" stroke="black" d="M1479.94,-152.13C1518.29,-140.76 1585.49,-120.83 1632.71,-106.82"/>
<polygon fill="black" stroke="black" points="1633.61,-110.2 1642.2,-104 1631.62,-103.49 1633.61,-110.2"/>
</g>
<!-- update_workflow -->
<g id="node22" class="node">
<title>update_workflow</title>
<ellipse fill="none" stroke="black" cx="2388.05" cy="-162" rx="76.01" ry="18"/>
<text text-anchor="middle" x="2388.05" y="-156.57" font-family="Times New Roman,serif" font-size="14.00">update_workflow</text>
</g>
<!-- update_workflow&#45;&gt;merge -->
<g id="edge28" class="edge">
<title>update_workflow&#45;&gt;merge</title>
<path fill="none" stroke="black" d="M2322.37,-152.61C2264.04,-144.26 2176.84,-129.56 2103.05,-108 2100.95,-107.39 2098.82,-106.71 2096.68,-105.98"/>
<polygon fill="black" stroke="black" points="2098.09,-102.77 2087.49,-102.61 2095.67,-109.34 2098.09,-102.77"/>
</g>
<!-- update_workflow&#45;&gt;authorize -->
<g id="edge24" class="edge">
<title>update_workflow&#45;&gt;authorize</title>
<path fill="none" stroke="black" d="M2341.22,-147.45C2305.06,-136.91 2253.8,-121.8 2209.05,-108 2206.34,-107.17 2203.56,-106.3 2200.75,-105.42"/>
<polygon fill="black" stroke="black" points="2201.97,-102.13 2191.38,-102.45 2199.86,-108.81 2201.97,-102.13"/>
</g>
<!-- find_by -->
<g id="node23" class="node">
<title>find_by</title>
<ellipse fill="none" stroke="black" cx="2258.05" cy="-90" rx="39.59" ry="18"/>
<text text-anchor="middle" x="2258.05" y="-84.58" font-family="Times New Roman,serif" font-size="14.00">find_by</text>
</g>
<!-- update_workflow&#45;&gt;find_by -->
<g id="edge22" class="edge">
<title>update_workflow&#45;&gt;find_by</title>
<path fill="none" stroke="black" d="M2358.55,-145.12C2338.94,-134.56 2313.11,-120.65 2292.54,-109.58"/>
<polygon fill="black" stroke="black" points="2294.43,-106.61 2283.96,-104.95 2291.11,-112.78 2294.43,-106.61"/>
</g>
<!-- find_errors -->
<g id="node24" class="node">
<title>find_errors</title>
<ellipse fill="none" stroke="black" cx="2694.05" cy="-90" rx="52.06" ry="18"/>
<text text-anchor="middle" x="2694.05" y="-84.58" font-family="Times New Roman,serif" font-size="14.00">find_errors</text>
</g>
<!-- update_workflow&#45;&gt;find_errors -->
<g id="edge23" class="edge">
<title>update_workflow&#45;&gt;find_errors</title>
<path fill="none" stroke="black" d="M2444.7,-149.73C2494.5,-139.59 2568.83,-123.88 2633.05,-108 2636.62,-107.12 2640.31,-106.17 2644.01,-105.2"/>
<polygon fill="black" stroke="black" points="2644.87,-108.59 2653.62,-102.62 2643.06,-101.83 2644.87,-108.59"/>
</g>
<!-- send -->
<g id="node25" class="node">
<title>send</title>
<ellipse fill="none" stroke="black" cx="2792.05" cy="-90" rx="28.11" ry="18"/>
<text text-anchor="middle" x="2792.05" y="-84.58" font-family="Times New Roman,serif" font-size="14.00">send</text>
</g>
<!-- update_workflow&#45;&gt;send -->
<g id="edge25" class="edge">
<title>update_workflow&#45;&gt;send</title>
<path fill="none" stroke="black" d="M2443.27,-149.37C2453.16,-147.45 2463.39,-145.58 2473.05,-144 2597.74,-123.6 2633.58,-142.78 2755.05,-108 2756.66,-107.54 2758.29,-107.02 2759.93,-106.45"/>
<polygon fill="black" stroke="black" points="2761.16,-109.72 2769.15,-102.76 2758.56,-103.22 2761.16,-109.72"/>
</g>
<!-- transition_notice -->
<g id="node26" class="node">
<title>transition_notice</title>
<ellipse fill="none" stroke="black" cx="2388.05" cy="-90" rx="72.02" ry="18"/>
<text text-anchor="middle" x="2388.05" y="-84.58" font-family="Times New Roman,serif" font-size="14.00">transition_notice</text>
</g>
<!-- update_workflow&#45;&gt;transition_notice -->
<g id="edge26" class="edge">
<title>update_workflow&#45;&gt;transition_notice</title>
<path fill="none" stroke="black" d="M2388.05,-143.7C2388.05,-136.41 2388.05,-127.73 2388.05,-119.54"/>
<polygon fill="black" stroke="black" points="2391.55,-119.62 2388.05,-109.62 2384.55,-119.62 2391.55,-119.62"/>
</g>
<!-- workflow_props -->
<g id="node27" class="node">
<title>workflow_props</title>
<ellipse fill="none" stroke="black" cx="2551.05" cy="-90" rx="73.02" ry="18"/>
<text text-anchor="middle" x="2551.05" y="-84.58" font-family="Times New Roman,serif" font-size="14.00">workflow_props</text>
</g>
<!-- update_workflow&#45;&gt;workflow_props -->
<g id="edge27" class="edge">
<title>update_workflow&#45;&gt;workflow_props</title>
<path fill="none" stroke="black" d="M2423.41,-145.81C2447.44,-135.49 2479.45,-121.75 2505.4,-110.6"/>
<polygon fill="black" stroke="black" points="2506.55,-113.92 2514.36,-106.76 2503.79,-107.49 2506.55,-113.92"/>
</g>
<!-- update_responsibilities -->
<g id="node28" class="node">
<title>update_responsibilities</title>
<ellipse fill="none" stroke="black" cx="1768.05" cy="-162" rx="95.47" ry="18"/>
<text text-anchor="middle" x="1768.05" y="-156.57" font-family="Times New Roman,serif" font-size="14.00">update_responsibilities</text>
</g>
<!-- update_responsibilities&#45;&gt;process_responsibilities -->
<g id="edge31" class="edge">
<title>update_responsibilities&#45;&gt;process_responsibilities</title>
<path fill="none" stroke="black" d="M1679.02,-155.13C1518.08,-144.38 1184.73,-121.39 1069.05,-108 1060.48,-107.01 1051.56,-105.84 1042.68,-104.59"/>
<polygon fill="black" stroke="black" points="1043.36,-101.15 1032.96,-103.18 1042.36,-108.08 1043.36,-101.15"/>
</g>
<!-- update_responsibilities&#45;&gt;save_and_render -->
<g id="edge32" class="edge">
<title>update_responsibilities&#45;&gt;save_and_render</title>
<path fill="none" stroke="black" d="M1696.47,-149.79C1632.13,-139.54 1535.12,-123.63 1451.05,-108 1445.41,-106.95 1439.56,-105.83 1433.7,-104.68"/>
<polygon fill="black" stroke="black" points="1434.43,-101.25 1423.94,-102.74 1433.07,-108.12 1434.43,-101.25"/>
</g>
<!-- update_responsibilities&#45;&gt;authorize -->
<g id="edge30" class="edge">
<title>update_responsibilities&#45;&gt;authorize</title>
<path fill="none" stroke="black" d="M1847.91,-151.87C1916.21,-143.23 2016.83,-128.52 2103.05,-108 2106.03,-107.29 2109.08,-106.5 2112.15,-105.65"/>
<polygon fill="black" stroke="black" points="2113.13,-109.01 2121.74,-102.83 2111.15,-102.29 2113.13,-109.01"/>
</g>
<!-- update_responsibilities&#45;&gt;log_operation -->
<g id="edge33" class="edge">
<title>update_responsibilities&#45;&gt;log_operation</title>
<path fill="none" stroke="black" d="M1748.2,-144.05C1737.95,-135.31 1725.27,-124.49 1714.05,-114.9"/>
<polygon fill="black" stroke="black" points="1716.46,-112.36 1706.58,-108.53 1711.91,-117.68 1716.46,-112.36"/>
</g>
<!-- update_responsibilities&#45;&gt;find_by -->
<g id="edge29" class="edge">
<title>update_responsibilities&#45;&gt;find_by</title>
<path fill="none" stroke="black" d="M1851.88,-153.09C1960.32,-142.48 2143.11,-123.21 2209.05,-108 2211.85,-107.35 2214.71,-106.6 2217.58,-105.79"/>
<polygon fill="black" stroke="black" points="2218.59,-109.14 2227.1,-102.83 2216.51,-102.45 2218.59,-109.14"/>
</g>
<!-- notify_update_responsibilities -->
<g id="node29" class="node">
<title>notify_update_responsibilities</title>
<ellipse fill="none" stroke="black" cx="1888.05" cy="-90" rx="121.92" ry="18"/>
<text text-anchor="middle" x="1888.05" y="-84.58" font-family="Times New Roman,serif" font-size="14.00">notify_update_responsibilities</text>
</g>
<!-- update_responsibilities&#45;&gt;notify_update_responsibilities -->
<g id="edge34" class="edge">
<title>update_responsibilities&#45;&gt;notify_update_responsibilities</title>
<path fill="none" stroke="black" d="M1796.48,-144.41C1812.24,-135.22 1832.06,-123.66 1849.23,-113.64"/>
<polygon fill="black" stroke="black" points="1850.8,-116.78 1857.67,-108.72 1847.27,-110.73 1850.8,-116.78"/>
</g>
<!-- destroy -->
<g id="node30" class="node">
<title>destroy</title>
<ellipse fill="none" stroke="black" cx="1203.05" cy="-162" rx="38.59" ry="18"/>
<text text-anchor="middle" x="1203.05" y="-156.57" font-family="Times New Roman,serif" font-size="14.00">destroy</text>
</g>
<!-- destroy&#45;&gt;find -->
<g id="edge35" class="edge">
<title>destroy&#45;&gt;find</title>
<path fill="none" stroke="black" d="M1182.74,-146.5C1168.16,-136.08 1148.35,-121.93 1132.38,-110.53"/>
<polygon fill="black" stroke="black" points="1134.42,-107.68 1124.25,-104.72 1130.35,-113.38 1134.42,-107.68"/>
</g>
<!-- log_workflow -->
<g id="node31" class="node">
<title>log_workflow</title>
<ellipse fill="none" stroke="black" cx="1213.05" cy="-90" rx="62.54" ry="18"/>
<text text-anchor="middle" x="1213.05" y="-84.58" font-family="Times New Roman,serif" font-size="14.00">log_workflow</text>
</g>
<!-- destroy&#45;&gt;log_workflow -->
<g id="edge36" class="edge">
<title>destroy&#45;&gt;log_workflow</title>
<path fill="none" stroke="black" d="M1205.52,-143.7C1206.57,-136.32 1207.83,-127.52 1209.01,-119.25"/>
<polygon fill="black" stroke="black" points="1212.44,-120 1210.39,-109.6 1205.51,-119.01 1212.44,-120"/>
</g>
<!-- act_params -->
<g id="node32" class="node">
<title>act_params</title>
<ellipse fill="none" stroke="black" cx="2562.05" cy="-234" rx="53.56" ry="18"/>
<text text-anchor="middle" x="2562.05" y="-228.57" font-family="Times New Roman,serif" font-size="14.00">act_params</text>
</g>
<!-- require -->
<g id="node33" class="node">
<title>require</title>
<ellipse fill="none" stroke="black" cx="2518.05" cy="-162" rx="36.09" ry="18"/>
<text text-anchor="middle" x="2518.05" y="-156.57" font-family="Times New Roman,serif" font-size="14.00">require</text>
</g>
<!-- act_params&#45;&gt;require -->
<g id="edge37" class="edge">
<title>act_params&#45;&gt;require</title>
<path fill="none" stroke="black" d="M2551.39,-216.05C2546.29,-207.94 2540.07,-198.04 2534.39,-189.01"/>
<polygon fill="black" stroke="black" points="2537.39,-187.19 2529.1,-180.59 2531.46,-190.92 2537.39,-187.19"/>
</g>
<!-- permit -->
<g id="node34" class="node">
<title>permit</title>
<ellipse fill="none" stroke="black" cx="2606.05" cy="-162" rx="34.1" ry="18"/>
<text text-anchor="middle" x="2606.05" y="-156.57" font-family="Times New Roman,serif" font-size="14.00">permit</text>
</g>
<!-- act_params&#45;&gt;permit -->
<g id="edge38" class="edge">
<title>act_params&#45;&gt;permit</title>
<path fill="none" stroke="black" d="M2572.7,-216.05C2577.8,-207.94 2584.02,-198.04 2589.7,-189.01"/>
<polygon fill="black" stroke="black" points="2592.63,-190.92 2594.99,-180.59 2586.71,-187.19 2592.63,-190.92"/>
</g>
<!-- validator_response -->
<g id="node35" class="node">
<title>validator_response</title>
<ellipse fill="none" stroke="black" cx="1973.05" cy="-234" rx="81" ry="18"/>
<text text-anchor="middle" x="1973.05" y="-228.57" font-family="Times New Roman,serif" font-size="14.00">validator_response</text>
</g>
<!-- validator_response&#45;&gt;update -->
<g id="edge41" class="edge">
<title>validator_response&#45;&gt;update</title>
<path fill="none" stroke="black" d="M1904.94,-223.88C1796.57,-209.38 1587.73,-181.43 1495.61,-169.1"/>
<polygon fill="black" stroke="black" points="1496.32,-165.66 1485.94,-167.8 1495.39,-172.6 1496.32,-165.66"/>
</g>
<!-- validator_response&#45;&gt;find_by -->
<g id="edge40" class="edge">
<title>validator_response&#45;&gt;find_by</title>
<path fill="none" stroke="black" d="M1971.45,-215.54C1970.64,-195.32 1972.74,-162.44 1992.05,-144 2062.74,-76.48 2114.3,-132.11 2209.05,-108 2211.79,-107.3 2214.61,-106.52 2217.43,-105.68"/>
<polygon fill="black" stroke="black" points="2218.32,-109.07 2226.79,-102.7 2216.2,-102.4 2218.32,-109.07"/>
</g>
<!-- field_item_key -->
<g id="node36" class="node">
<title>field_item_key</title>
<ellipse fill="none" stroke="black" cx="2066.05" cy="-162" rx="65.04" ry="18"/>
<text text-anchor="middle" x="2066.05" y="-156.57" font-family="Times New Roman,serif" font-size="14.00">field_item_key</text>
</g>
<!-- validator_response&#45;&gt;field_item_key -->
<g id="edge39" class="edge">
<title>validator_response&#45;&gt;field_item_key</title>
<path fill="none" stroke="black" d="M1995.09,-216.41C2007.1,-207.37 2022.16,-196.03 2035.32,-186.13"/>
<polygon fill="black" stroke="black" points="2037.39,-188.95 2043.28,-180.14 2033.18,-183.36 2037.39,-188.95"/>
</g>
<!-- comment_required -->
<g id="node37" class="node">
<title>comment_required</title>
<ellipse fill="none" stroke="black" cx="2714.05" cy="-234" rx="80.5" ry="18"/>
<text text-anchor="middle" x="2714.05" y="-228.57" font-family="Times New Roman,serif" font-size="14.00">comment_required</text>
</g>
</g>
</svg>
