<?xml version="1.0" encoding="UTF-8" standalone="no"?>
<!DOCTYPE svg PUBLIC "-//W3C//DTD SVG 1.1//EN"
 "http://www.w3.org/Graphics/SVG/1.1/DTD/svg11.dtd">
<!-- Generated by graphviz version 9.0.0 (20230911.1827)
 -->
<!-- Title: CallGraph Pages: 1 -->
<svg width="1849pt" height="116pt"
 viewBox="0.00 0.00 1849.09 116.00" xmlns="http://www.w3.org/2000/svg" xmlns:xlink="http://www.w3.org/1999/xlink">
<g id="graph0" class="graph" transform="scale(1 1) rotate(0) translate(4 112)">
<title>CallGraph</title>
<polygon fill="white" stroke="none" points="-4,4 -4,-112 1845.09,-112 1845.09,4 -4,4"/>
<!-- authorize_multiple -->
<g id="node1" class="node">
<title>authorize_multiple</title>
<ellipse fill="none" stroke="black" cx="78.01" cy="-90" rx="78.01" ry="18"/>
<text text-anchor="middle" x="78.01" y="-84.58" font-family="Times New Roman,serif" font-size="14.00">authorize_multiple</text>
</g>
<!-- authorize_group -->
<g id="node2" class="node">
<title>authorize_group</title>
<ellipse fill="none" stroke="black" cx="245.01" cy="-90" rx="71.02" ry="18"/>
<text text-anchor="middle" x="245.01" y="-84.58" font-family="Times New Roman,serif" font-size="14.00">authorize_group</text>
</g>
<!-- user_is_actor_of -->
<g id="node3" class="node">
<title>user_is_actor_of</title>
<ellipse fill="none" stroke="black" cx="408.01" cy="-90" rx="74.02" ry="18"/>
<text text-anchor="middle" x="408.01" y="-84.58" font-family="Times New Roman,serif" font-size="14.00">user_is_actor_of</text>
</g>
<!-- approver_of -->
<g id="node4" class="node">
<title>approver_of</title>
<ellipse fill="none" stroke="black" cx="408.01" cy="-18" rx="57.05" ry="18"/>
<text text-anchor="middle" x="408.01" y="-12.57" font-family="Times New Roman,serif" font-size="14.00">approver_of</text>
</g>
<!-- user_is_actor_of&#45;&gt;approver_of -->
<g id="edge1" class="edge">
<title>user_is_actor_of&#45;&gt;approver_of</title>
<path fill="none" stroke="black" d="M408.01,-71.7C408.01,-64.41 408.01,-55.73 408.01,-47.54"/>
<polygon fill="black" stroke="black" points="411.51,-47.62 408.01,-37.62 404.51,-47.62 411.51,-47.62"/>
</g>
<!-- push_user_to -->
<g id="node5" class="node">
<title>push_user_to</title>
<ellipse fill="none" stroke="black" cx="562.01" cy="-90" rx="61.54" ry="18"/>
<text text-anchor="middle" x="562.01" y="-84.58" font-family="Times New Roman,serif" font-size="14.00">push_user_to</text>
</g>
<!-- push -->
<g id="node6" class="node">
<title>push</title>
<ellipse fill="none" stroke="black" cx="562.01" cy="-18" rx="28.61" ry="18"/>
<text text-anchor="middle" x="562.01" y="-12.57" font-family="Times New Roman,serif" font-size="14.00">push</text>
</g>
<!-- push_user_to&#45;&gt;push -->
<g id="edge2" class="edge">
<title>push_user_to&#45;&gt;push</title>
<path fill="none" stroke="black" d="M562.01,-71.7C562.01,-64.41 562.01,-55.73 562.01,-47.54"/>
<polygon fill="black" stroke="black" points="565.51,-47.62 562.01,-37.62 558.51,-47.62 565.51,-47.62"/>
</g>
<!-- remove_user_from -->
<g id="node7" class="node">
<title>remove_user_from</title>
<ellipse fill="none" stroke="black" cx="723.01" cy="-90" rx="81.5" ry="18"/>
<text text-anchor="middle" x="723.01" y="-84.58" font-family="Times New Roman,serif" font-size="14.00">remove_user_from</text>
</g>
<!-- delete_approver -->
<g id="node8" class="node">
<title>delete_approver</title>
<ellipse fill="none" stroke="black" cx="723.01" cy="-18" rx="70.52" ry="18"/>
<text text-anchor="middle" x="723.01" y="-12.57" font-family="Times New Roman,serif" font-size="14.00">delete_approver</text>
</g>
<!-- remove_user_from&#45;&gt;delete_approver -->
<g id="edge3" class="edge">
<title>remove_user_from&#45;&gt;delete_approver</title>
<path fill="none" stroke="black" d="M723.01,-71.7C723.01,-64.41 723.01,-55.73 723.01,-47.54"/>
<polygon fill="black" stroke="black" points="726.51,-47.62 723.01,-37.62 719.51,-47.62 726.51,-47.62"/>
</g>
<!-- wf_entity_in_accept_state -->
<g id="node9" class="node">
<title>wf_entity_in_accept_state</title>
<ellipse fill="none" stroke="black" cx="930.01" cy="-90" rx="107.95" ry="18"/>
<text text-anchor="middle" x="930.01" y="-84.58" font-family="Times New Roman,serif" font-size="14.00">wf_entity_in_accept_state</text>
</g>
<!-- user_accept -->
<g id="node10" class="node">
<title>user_accept</title>
<ellipse fill="none" stroke="black" cx="1232.01" cy="-90" rx="55.55" ry="18"/>
<text text-anchor="middle" x="1232.01" y="-84.58" font-family="Times New Roman,serif" font-size="14.00">user_accept</text>
</g>
<!-- approve -->
<g id="node11" class="node">
<title>approve</title>
<ellipse fill="none" stroke="black" cx="1263.01" cy="-18" rx="41.08" ry="18"/>
<text text-anchor="middle" x="1263.01" y="-12.57" font-family="Times New Roman,serif" font-size="14.00">approve</text>
</g>
<!-- user_accept&#45;&gt;approve -->
<g id="edge4" class="edge">
<title>user_accept&#45;&gt;approve</title>
<path fill="none" stroke="black" d="M1239.67,-71.7C1243.05,-64.07 1247.1,-54.92 1250.88,-46.4"/>
<polygon fill="black" stroke="black" points="1253.97,-48.05 1254.82,-37.49 1247.57,-45.21 1253.97,-48.05"/>
</g>
<!-- user_reject -->
<g id="node12" class="node">
<title>user_reject</title>
<ellipse fill="none" stroke="black" cx="1107.01" cy="-90" rx="51.06" ry="18"/>
<text text-anchor="middle" x="1107.01" y="-84.58" font-family="Times New Roman,serif" font-size="14.00">user_reject</text>
</g>
<!-- user_reject&#45;&gt;approve -->
<g id="edge5" class="edge">
<title>user_reject&#45;&gt;approve</title>
<path fill="none" stroke="black" d="M1137.83,-75.17C1162.84,-63.95 1198.21,-48.08 1224.97,-36.07"/>
<polygon fill="black" stroke="black" points="1226.06,-39.42 1233.75,-32.13 1223.2,-33.03 1226.06,-39.42"/>
</g>
<!-- admin_accept_instead_of -->
<g id="node13" class="node">
<title>admin_accept_instead_of</title>
<ellipse fill="none" stroke="black" cx="1634.01" cy="-90" rx="106.45" ry="18"/>
<text text-anchor="middle" x="1634.01" y="-84.58" font-family="Times New Roman,serif" font-size="14.00">admin_accept_instead_of</text>
</g>
<!-- admin_accept_instead_of&#45;&gt;approve -->
<g id="edge8" class="edge">
<title>admin_accept_instead_of&#45;&gt;approve</title>
<path fill="none" stroke="black" d="M1565.1,-76C1491.36,-62.09 1376.3,-40.37 1311.53,-28.16"/>
<polygon fill="black" stroke="black" points="1312.4,-24.76 1301.92,-26.34 1311.1,-31.64 1312.4,-24.76"/>
</g>
<!-- instance_of -->
<g id="node14" class="node">
<title>instance_of</title>
<ellipse fill="none" stroke="black" cx="1471.01" cy="-18" rx="53.56" ry="18"/>
<text text-anchor="middle" x="1471.01" y="-12.57" font-family="Times New Roman,serif" font-size="14.00">instance_of</text>
</g>
<!-- admin_accept_instead_of&#45;&gt;instance_of -->
<g id="edge6" class="edge">
<title>admin_accept_instead_of&#45;&gt;instance_of</title>
<path fill="none" stroke="black" d="M1596.2,-72.76C1571.52,-62.16 1539.24,-48.3 1513.64,-37.31"/>
<polygon fill="black" stroke="black" points="1515.08,-34.12 1504.51,-33.39 1512.31,-40.55 1515.08,-34.12"/>
</g>
<!-- t -->
<g id="node15" class="node">
<title>t</title>
<ellipse fill="none" stroke="black" cx="1634.01" cy="-18" rx="27" ry="18"/>
<text text-anchor="middle" x="1634.01" y="-12.57" font-family="Times New Roman,serif" font-size="14.00">t</text>
</g>
<!-- admin_accept_instead_of&#45;&gt;t -->
<g id="edge7" class="edge">
<title>admin_accept_instead_of&#45;&gt;t</title>
<path fill="none" stroke="black" d="M1634.01,-71.7C1634.01,-64.41 1634.01,-55.73 1634.01,-47.54"/>
<polygon fill="black" stroke="black" points="1637.51,-47.62 1634.01,-37.62 1630.51,-47.62 1637.51,-47.62"/>
</g>
<!-- admin_reject_instead_of -->
<g id="node16" class="node">
<title>admin_reject_instead_of</title>
<ellipse fill="none" stroke="black" cx="1408.01" cy="-90" rx="101.96" ry="18"/>
<text text-anchor="middle" x="1408.01" y="-84.58" font-family="Times New Roman,serif" font-size="14.00">admin_reject_instead_of</text>
</g>
<!-- admin_reject_instead_of&#45;&gt;approve -->
<g id="edge11" class="edge">
<title>admin_reject_instead_of&#45;&gt;approve</title>
<path fill="none" stroke="black" d="M1374.01,-72.59C1351.9,-61.91 1323.06,-47.99 1300.31,-37.01"/>
<polygon fill="black" stroke="black" points="1301.91,-33.89 1291.38,-32.7 1298.87,-40.2 1301.91,-33.89"/>
</g>
<!-- admin_reject_instead_of&#45;&gt;instance_of -->
<g id="edge9" class="edge">
<title>admin_reject_instead_of&#45;&gt;instance_of</title>
<path fill="none" stroke="black" d="M1423.26,-72.05C1430.88,-63.59 1440.24,-53.19 1448.65,-43.84"/>
<polygon fill="black" stroke="black" points="1451.23,-46.21 1455.32,-36.43 1446.03,-41.52 1451.23,-46.21"/>
</g>
<!-- admin_reject_instead_of&#45;&gt;t -->
<g id="edge10" class="edge">
<title>admin_reject_instead_of&#45;&gt;t</title>
<path fill="none" stroke="black" d="M1457.05,-73.81C1499.94,-60.53 1561.16,-41.56 1599.2,-29.78"/>
<polygon fill="black" stroke="black" points="1599.78,-33.27 1608.3,-26.96 1597.71,-26.58 1599.78,-33.27"/>
</g>
<!-- wording -->
<g id="node17" class="node">
<title>wording</title>
<ellipse fill="none" stroke="black" cx="1800.01" cy="-90" rx="41.08" ry="18"/>
<text text-anchor="middle" x="1800.01" y="-84.58" font-family="Times New Roman,serif" font-size="14.00">wording</text>
</g>
<!-- wording&#45;&gt;t -->
<g id="edge12" class="edge">
<title>wording&#45;&gt;t</title>
<path fill="none" stroke="black" d="M1771.09,-76.81C1742.06,-64.56 1697.37,-45.72 1666.98,-32.9"/>
<polygon fill="black" stroke="black" points="1668.45,-29.72 1657.87,-29.06 1665.73,-36.17 1668.45,-29.72"/>
</g>
</g>
</svg>
