<?xml version="1.0" encoding="UTF-8" standalone="no"?>
<!DOCTYPE svg PUBLIC "-//W3C//DTD SVG 1.1//EN"
 "http://www.w3.org/Graphics/SVG/1.1/DTD/svg11.dtd">
<!-- Generated by graphviz version 9.0.0 (20230911.1827)
 -->
<!-- Title: CallGraph Pages: 1 -->
<svg width="834pt" height="188pt"
 viewBox="0.00 0.00 833.63 188.00" xmlns="http://www.w3.org/2000/svg" xmlns:xlink="http://www.w3.org/1999/xlink">
<g id="graph0" class="graph" transform="scale(1 1) rotate(0) translate(4 184)">
<title>CallGraph</title>
<polygon fill="white" stroke="none" points="-4,4 -4,-184 829.63,-184 829.63,4 -4,4"/>
<!-- new -->
<g id="node1" class="node">
<title>new</title>
<ellipse fill="none" stroke="black" cx="32.6" cy="-90" rx="27" ry="18"/>
<text text-anchor="middle" x="32.6" y="-84.58" font-family="Times New Roman,serif" font-size="14.00">new</text>
</g>
<!-- info -->
<g id="node2" class="node">
<title>info</title>
<ellipse fill="none" stroke="black" cx="32.6" cy="-18" rx="27" ry="18"/>
<text text-anchor="middle" x="32.6" y="-12.57" font-family="Times New Roman,serif" font-size="14.00">info</text>
</g>
<!-- new&#45;&gt;info -->
<g id="edge1" class="edge">
<title>new&#45;&gt;info</title>
<path fill="none" stroke="black" d="M32.6,-71.7C32.6,-64.41 32.6,-55.73 32.6,-47.54"/>
<polygon fill="black" stroke="black" points="36.1,-47.62 32.6,-37.62 29.1,-47.62 36.1,-47.62"/>
</g>
<!-- create -->
<g id="node3" class="node">
<title>create</title>
<ellipse fill="none" stroke="black" cx="32.6" cy="-162" rx="32.6" ry="18"/>
<text text-anchor="middle" x="32.6" y="-156.57" font-family="Times New Roman,serif" font-size="14.00">create</text>
</g>
<!-- create&#45;&gt;new -->
<g id="edge2" class="edge">
<title>create&#45;&gt;new</title>
<path fill="none" stroke="black" d="M32.6,-143.7C32.6,-136.41 32.6,-127.73 32.6,-119.54"/>
<polygon fill="black" stroke="black" points="36.1,-119.62 32.6,-109.62 29.1,-119.62 36.1,-119.62"/>
</g>
<!-- t -->
<g id="node4" class="node">
<title>t</title>
<ellipse fill="none" stroke="black" cx="113.6" cy="-90" rx="27" ry="18"/>
<text text-anchor="middle" x="113.6" y="-84.58" font-family="Times New Roman,serif" font-size="14.00">t</text>
</g>
<!-- create&#45;&gt;t -->
<g id="edge3" class="edge">
<title>create&#45;&gt;t</title>
<path fill="none" stroke="black" d="M49.38,-146.5C60.91,-136.54 76.38,-123.17 89.25,-112.04"/>
<polygon fill="black" stroke="black" points="91.24,-114.95 96.52,-105.76 86.67,-109.65 91.24,-114.95"/>
</g>
<!-- download -->
<g id="node5" class="node">
<title>download</title>
<ellipse fill="none" stroke="black" cx="388.6" cy="-162" rx="47.57" ry="18"/>
<text text-anchor="middle" x="388.6" y="-156.57" font-family="Times New Roman,serif" font-size="14.00">download</text>
</g>
<!-- find -->
<g id="node6" class="node">
<title>find</title>
<ellipse fill="none" stroke="black" cx="274.6" cy="-90" rx="27" ry="18"/>
<text text-anchor="middle" x="274.6" y="-84.58" font-family="Times New Roman,serif" font-size="14.00">find</text>
</g>
<!-- download&#45;&gt;find -->
<g id="edge4" class="edge">
<title>download&#45;&gt;find</title>
<path fill="none" stroke="black" d="M364.42,-146.15C346.59,-135.2 322.24,-120.25 303.39,-108.68"/>
<polygon fill="black" stroke="black" points="305.48,-105.85 295.12,-103.6 301.81,-111.82 305.48,-105.85"/>
</g>
<!-- send_file -->
<g id="node7" class="node">
<title>send_file</title>
<ellipse fill="none" stroke="black" cx="388.6" cy="-90" rx="44.08" ry="18"/>
<text text-anchor="middle" x="388.6" y="-84.58" font-family="Times New Roman,serif" font-size="14.00">send_file</text>
</g>
<!-- download&#45;&gt;send_file -->
<g id="edge5" class="edge">
<title>download&#45;&gt;send_file</title>
<path fill="none" stroke="black" d="M388.6,-143.7C388.6,-136.41 388.6,-127.73 388.6,-119.54"/>
<polygon fill="black" stroke="black" points="392.1,-119.62 388.6,-109.62 385.1,-119.62 392.1,-119.62"/>
</g>
<!-- confirm_destroy -->
<g id="node8" class="node">
<title>confirm_destroy</title>
<ellipse fill="none" stroke="black" cx="250.6" cy="-162" rx="72.52" ry="18"/>
<text text-anchor="middle" x="250.6" y="-156.57" font-family="Times New Roman,serif" font-size="14.00">confirm_destroy</text>
</g>
<!-- confirm_destroy&#45;&gt;find -->
<g id="edge6" class="edge">
<title>confirm_destroy&#45;&gt;find</title>
<path fill="none" stroke="black" d="M256.53,-143.7C259.16,-136.04 262.31,-126.85 265.24,-118.3"/>
<polygon fill="black" stroke="black" points="268.48,-119.65 268.41,-109.05 261.86,-117.38 268.48,-119.65"/>
</g>
<!-- destroy -->
<g id="node9" class="node">
<title>destroy</title>
<ellipse fill="none" stroke="black" cx="121.6" cy="-162" rx="38.59" ry="18"/>
<text text-anchor="middle" x="121.6" y="-156.57" font-family="Times New Roman,serif" font-size="14.00">destroy</text>
</g>
<!-- destroy&#45;&gt;t -->
<g id="edge8" class="edge">
<title>destroy&#45;&gt;t</title>
<path fill="none" stroke="black" d="M119.62,-143.7C118.79,-136.41 117.8,-127.73 116.86,-119.54"/>
<polygon fill="black" stroke="black" points="120.34,-119.15 115.73,-109.61 113.39,-119.94 120.34,-119.15"/>
</g>
<!-- destroy&#45;&gt;find -->
<g id="edge7" class="edge">
<title>destroy&#45;&gt;find</title>
<path fill="none" stroke="black" d="M148.6,-148.65C174.81,-136.66 214.59,-118.46 242.42,-105.72"/>
<polygon fill="black" stroke="black" points="243.8,-108.94 251.44,-101.6 240.89,-102.57 243.8,-108.94"/>
</g>
<!-- check_object -->
<g id="node10" class="node">
<title>check_object</title>
<ellipse fill="none" stroke="black" cx="514.6" cy="-162" rx="60.54" ry="18"/>
<text text-anchor="middle" x="514.6" y="-156.57" font-family="Times New Roman,serif" font-size="14.00">check_object</text>
</g>
<!-- check_object&#45;&gt;find -->
<g id="edge10" class="edge">
<title>check_object&#45;&gt;find</title>
<path fill="none" stroke="black" d="M472.52,-148.73C426.37,-135.27 353.12,-113.9 309.86,-101.29"/>
<polygon fill="black" stroke="black" points="311.06,-97.99 300.48,-98.55 309.1,-104.71 311.06,-97.99"/>
</g>
<!-- send -->
<g id="node11" class="node">
<title>send</title>
<ellipse fill="none" stroke="black" cx="514.6" cy="-90" rx="28.11" ry="18"/>
<text text-anchor="middle" x="514.6" y="-84.58" font-family="Times New Roman,serif" font-size="14.00">send</text>
</g>
<!-- check_object&#45;&gt;send -->
<g id="edge9" class="edge">
<title>check_object&#45;&gt;send</title>
<path fill="none" stroke="black" d="M514.6,-143.7C514.6,-136.41 514.6,-127.73 514.6,-119.54"/>
<polygon fill="black" stroke="black" points="518.1,-119.62 514.6,-109.62 511.1,-119.62 518.1,-119.62"/>
</g>
<!-- matches -->
<g id="node12" class="node">
<title>matches</title>
<ellipse fill="none" stroke="black" cx="634.6" cy="-162" rx="41.08" ry="18"/>
<text text-anchor="middle" x="634.6" y="-156.57" font-family="Times New Roman,serif" font-size="14.00">matches</text>
</g>
<!-- match -->
<g id="node13" class="node">
<title>match</title>
<ellipse fill="none" stroke="black" cx="634.6" cy="-90" rx="33.1" ry="18"/>
<text text-anchor="middle" x="634.6" y="-84.58" font-family="Times New Roman,serif" font-size="14.00">match</text>
</g>
<!-- matches&#45;&gt;match -->
<g id="edge11" class="edge">
<title>matches&#45;&gt;match</title>
<path fill="none" stroke="black" d="M634.6,-143.7C634.6,-136.41 634.6,-127.73 634.6,-119.54"/>
<polygon fill="black" stroke="black" points="638.1,-119.62 634.6,-109.62 631.1,-119.62 638.1,-119.62"/>
</g>
<!-- roles_or_users -->
<g id="node14" class="node">
<title>roles_or_users</title>
<ellipse fill="none" stroke="black" cx="759.6" cy="-162" rx="66.03" ry="18"/>
<text text-anchor="middle" x="759.6" y="-156.57" font-family="Times New Roman,serif" font-size="14.00">roles_or_users</text>
</g>
<!-- include -->
<g id="node15" class="node">
<title>include</title>
<ellipse fill="none" stroke="black" cx="759.6" cy="-90" rx="37.09" ry="18"/>
<text text-anchor="middle" x="759.6" y="-84.58" font-family="Times New Roman,serif" font-size="14.00">include</text>
</g>
<!-- roles_or_users&#45;&gt;include -->
<g id="edge12" class="edge">
<title>roles_or_users&#45;&gt;include</title>
<path fill="none" stroke="black" d="M759.6,-143.7C759.6,-136.41 759.6,-127.73 759.6,-119.54"/>
<polygon fill="black" stroke="black" points="763.1,-119.62 759.6,-109.62 756.1,-119.62 763.1,-119.62"/>
</g>
</g>
</svg>
