<?xml version="1.0" encoding="UTF-8" standalone="no"?>
<!DOCTYPE svg PUBLIC "-//W3C//DTD SVG 1.1//EN"
 "http://www.w3.org/Graphics/SVG/1.1/DTD/svg11.dtd">
<!-- Generated by graphviz version 9.0.0 (20230911.1827)
 -->
<!-- Title: CallGraph Pages: 1 -->
<svg width="3375pt" height="188pt"
 viewBox="0.00 0.00 3374.55 188.00" xmlns="http://www.w3.org/2000/svg" xmlns:xlink="http://www.w3.org/1999/xlink">
<g id="graph0" class="graph" transform="scale(1 1) rotate(0) translate(4 184)">
<title>CallGraph</title>
<polygon fill="white" stroke="none" points="-4,4 -4,-184 3370.55,-184 3370.55,4 -4,4"/>
<!-- index -->
<g id="node1" class="node">
<title>index</title>
<ellipse fill="none" stroke="black" cx="181.04" cy="-162" rx="30.61" ry="18"/>
<text text-anchor="middle" x="181.04" y="-156.57" font-family="Times New Roman,serif" font-size="14.00">index</text>
</g>
<!-- policy_scope -->
<g id="node2" class="node">
<title>policy_scope</title>
<ellipse fill="none" stroke="black" cx="61.04" cy="-90" rx="61.04" ry="18"/>
<text text-anchor="middle" x="61.04" y="-84.58" font-family="Times New Roman,serif" font-size="14.00">policy_scope</text>
</g>
<!-- index&#45;&gt;policy_scope -->
<g id="edge1" class="edge">
<title>index&#45;&gt;policy_scope</title>
<path fill="none" stroke="black" d="M159.87,-148.65C142.6,-138.57 117.81,-124.11 97.38,-112.2"/>
<polygon fill="black" stroke="black" points="99.17,-109.19 88.77,-107.17 95.64,-115.23 99.17,-109.19"/>
</g>
<!-- includes -->
<g id="node3" class="node">
<title>includes</title>
<ellipse fill="none" stroke="black" cx="181.04" cy="-90" rx="41.08" ry="18"/>
<text text-anchor="middle" x="181.04" y="-84.58" font-family="Times New Roman,serif" font-size="14.00">includes</text>
</g>
<!-- index&#45;&gt;includes -->
<g id="edge2" class="edge">
<title>index&#45;&gt;includes</title>
<path fill="none" stroke="black" d="M181.04,-143.7C181.04,-136.41 181.04,-127.73 181.04,-119.54"/>
<polygon fill="black" stroke="black" points="184.54,-119.62 181.04,-109.62 177.54,-119.62 184.54,-119.62"/>
</g>
<!-- audit_hashed -->
<g id="node4" class="node">
<title>audit_hashed</title>
<ellipse fill="none" stroke="black" cx="300.04" cy="-90" rx="59.55" ry="18"/>
<text text-anchor="middle" x="300.04" y="-84.58" font-family="Times New Roman,serif" font-size="14.00">audit_hashed</text>
</g>
<!-- index&#45;&gt;audit_hashed -->
<g id="edge3" class="edge">
<title>index&#45;&gt;audit_hashed</title>
<path fill="none" stroke="black" d="M202.04,-148.65C219.17,-138.57 243.75,-124.11 264.01,-112.2"/>
<polygon fill="black" stroke="black" points="265.7,-115.26 272.54,-107.18 262.15,-109.23 265.7,-115.26"/>
</g>
<!-- new -->
<g id="node5" class="node">
<title>new</title>
<ellipse fill="none" stroke="black" cx="1130.04" cy="-90" rx="27" ry="18"/>
<text text-anchor="middle" x="1130.04" y="-84.58" font-family="Times New Roman,serif" font-size="14.00">new</text>
</g>
<!-- possible_responsibilities -->
<g id="node6" class="node">
<title>possible_responsibilities</title>
<ellipse fill="none" stroke="black" cx="759.04" cy="-18" rx="101.46" ry="18"/>
<text text-anchor="middle" x="759.04" y="-12.57" font-family="Times New Roman,serif" font-size="14.00">possible_responsibilities</text>
</g>
<!-- new&#45;&gt;possible_responsibilities -->
<g id="edge4" class="edge">
<title>new&#45;&gt;possible_responsibilities</title>
<path fill="none" stroke="black" d="M1109.51,-78.08C1104.55,-75.79 1099.2,-73.59 1094.04,-72 1017.85,-48.51 928.52,-35.04 861.28,-27.56"/>
<polygon fill="black" stroke="black" points="861.67,-24.08 851.35,-26.49 860.91,-31.04 861.67,-24.08"/>
</g>
<!-- create -->
<g id="node7" class="node">
<title>create</title>
<ellipse fill="none" stroke="black" cx="1583.04" cy="-162" rx="32.6" ry="18"/>
<text text-anchor="middle" x="1583.04" y="-156.57" font-family="Times New Roman,serif" font-size="14.00">create</text>
</g>
<!-- create&#45;&gt;new -->
<g id="edge5" class="edge">
<title>create&#45;&gt;new</title>
<path fill="none" stroke="black" d="M1550.16,-160.31C1478.79,-158.06 1304.94,-148.51 1166.04,-108 1164.43,-107.53 1162.79,-106.99 1161.15,-106.41"/>
<polygon fill="black" stroke="black" points="1162.53,-103.19 1151.95,-102.61 1159.86,-109.66 1162.53,-103.19"/>
</g>
<!-- merge -->
<g id="node8" class="node">
<title>merge</title>
<ellipse fill="none" stroke="black" cx="2402.04" cy="-90" rx="33.1" ry="18"/>
<text text-anchor="middle" x="2402.04" y="-84.58" font-family="Times New Roman,serif" font-size="14.00">merge</text>
</g>
<!-- create&#45;&gt;merge -->
<g id="edge6" class="edge">
<title>create&#45;&gt;merge</title>
<path fill="none" stroke="black" d="M1614.97,-157.42C1649.11,-153.68 1704.85,-147.84 1753.04,-144 2022.44,-122.55 2096.42,-167.48 2360.04,-108 2362.32,-107.49 2364.64,-106.86 2366.95,-106.16"/>
<polygon fill="black" stroke="black" points="2367.88,-109.54 2376.17,-102.94 2365.58,-102.93 2367.88,-109.54"/>
</g>
<!-- process_responsibilities -->
<g id="node9" class="node">
<title>process_responsibilities</title>
<ellipse fill="none" stroke="black" cx="1583.04" cy="-90" rx="99.97" ry="18"/>
<text text-anchor="middle" x="1583.04" y="-84.58" font-family="Times New Roman,serif" font-size="14.00">process_responsibilities</text>
</g>
<!-- create&#45;&gt;process_responsibilities -->
<g id="edge7" class="edge">
<title>create&#45;&gt;process_responsibilities</title>
<path fill="none" stroke="black" d="M1583.04,-143.7C1583.04,-136.41 1583.04,-127.73 1583.04,-119.54"/>
<polygon fill="black" stroke="black" points="1586.54,-119.62 1583.04,-109.62 1579.54,-119.62 1586.54,-119.62"/>
</g>
<!-- process_fieldables -->
<g id="node10" class="node">
<title>process_fieldables</title>
<ellipse fill="none" stroke="black" cx="1005.04" cy="-90" rx="80.01" ry="18"/>
<text text-anchor="middle" x="1005.04" y="-84.58" font-family="Times New Roman,serif" font-size="14.00">process_fieldables</text>
</g>
<!-- create&#45;&gt;process_fieldables -->
<g id="edge8" class="edge">
<title>create&#45;&gt;process_fieldables</title>
<path fill="none" stroke="black" d="M1550.6,-158.4C1472.01,-151.89 1265.28,-133.59 1094.04,-108 1087.57,-107.03 1080.84,-105.93 1074.12,-104.76"/>
<polygon fill="black" stroke="black" points="1074.81,-101.33 1064.35,-103.01 1073.57,-108.22 1074.81,-101.33"/>
</g>
<!-- new_internal_ref -->
<g id="node11" class="node">
<title>new_internal_ref</title>
<ellipse fill="none" stroke="black" cx="1773.04" cy="-90" rx="72.02" ry="18"/>
<text text-anchor="middle" x="1773.04" y="-84.58" font-family="Times New Roman,serif" font-size="14.00">new_internal_ref</text>
</g>
<!-- create&#45;&gt;new_internal_ref -->
<g id="edge9" class="edge">
<title>create&#45;&gt;new_internal_ref</title>
<path fill="none" stroke="black" d="M1609.46,-151.27C1638.79,-140.46 1686.79,-122.78 1723.22,-109.35"/>
<polygon fill="black" stroke="black" points="1724.05,-112.78 1732.23,-106.04 1721.63,-106.21 1724.05,-112.78"/>
</g>
<!-- save_and_render -->
<g id="node12" class="node">
<title>save_and_render</title>
<ellipse fill="none" stroke="black" cx="1391.04" cy="-90" rx="74.02" ry="18"/>
<text text-anchor="middle" x="1391.04" y="-84.58" font-family="Times New Roman,serif" font-size="14.00">save_and_render</text>
</g>
<!-- create&#45;&gt;save_and_render -->
<g id="edge10" class="edge">
<title>create&#45;&gt;save_and_render</title>
<path fill="none" stroke="black" d="M1556.35,-151.27C1526.71,-140.46 1478.21,-122.78 1441.39,-109.35"/>
<polygon fill="black" stroke="black" points="1442.87,-106.17 1432.28,-106.03 1440.47,-112.75 1442.87,-106.17"/>
</g>
<!-- create_notice -->
<g id="node13" class="node">
<title>create_notice</title>
<ellipse fill="none" stroke="black" cx="2185.04" cy="-90" rx="60.05" ry="18"/>
<text text-anchor="middle" x="2185.04" y="-84.58" font-family="Times New Roman,serif" font-size="14.00">create_notice</text>
</g>
<!-- create&#45;&gt;create_notice -->
<g id="edge11" class="edge">
<title>create&#45;&gt;create_notice</title>
<path fill="none" stroke="black" d="M1615,-157.8C1649.17,-154.37 1704.93,-148.79 1753.04,-144 1914.37,-127.93 1956.26,-135.46 2116.04,-108 2120.69,-107.2 2125.5,-106.26 2130.3,-105.24"/>
<polygon fill="black" stroke="black" points="2130.97,-108.68 2139.96,-103.07 2129.44,-101.85 2130.97,-108.68"/>
</g>
<!-- show -->
<g id="node14" class="node">
<title>show</title>
<ellipse fill="none" stroke="black" cx="496.04" cy="-162" rx="30.61" ry="18"/>
<text text-anchor="middle" x="496.04" y="-156.57" font-family="Times New Roman,serif" font-size="14.00">show</text>
</g>
<!-- show&#45;&gt;possible_responsibilities -->
<g id="edge15" class="edge">
<title>show&#45;&gt;possible_responsibilities</title>
<path fill="none" stroke="black" d="M468.91,-153.02C447.89,-145.24 420.2,-131.14 407.04,-108 399.14,-94.09 396.61,-84.13 407.04,-72 437.62,-36.48 555.52,-24.44 646.55,-20.53"/>
<polygon fill="black" stroke="black" points="646.42,-24.04 656.28,-20.15 646.14,-17.05 646.42,-24.04"/>
</g>
<!-- find -->
<g id="node15" class="node">
<title>find</title>
<ellipse fill="none" stroke="black" cx="716.04" cy="-90" rx="27" ry="18"/>
<text text-anchor="middle" x="716.04" y="-84.58" font-family="Times New Roman,serif" font-size="14.00">find</text>
</g>
<!-- show&#45;&gt;find -->
<g id="edge12" class="edge">
<title>show&#45;&gt;find</title>
<path fill="none" stroke="black" d="M524.24,-154.38C560.75,-145.47 626.08,-128.36 680.04,-108 681.58,-107.42 683.14,-106.8 684.71,-106.16"/>
<polygon fill="black" stroke="black" points="685.84,-109.48 693.58,-102.25 683.02,-103.08 685.84,-109.48"/>
</g>
<!-- authorize -->
<g id="node16" class="node">
<title>authorize</title>
<ellipse fill="none" stroke="black" cx="2307.04" cy="-90" rx="44.08" ry="18"/>
<text text-anchor="middle" x="2307.04" y="-84.58" font-family="Times New Roman,serif" font-size="14.00">authorize</text>
</g>
<!-- show&#45;&gt;authorize -->
<g id="edge13" class="edge">
<title>show&#45;&gt;authorize</title>
<path fill="none" stroke="black" d="M525.03,-155.82C548.85,-151.81 583.52,-146.52 614.04,-144 977.34,-113.95 1894.53,-168.3 2254.04,-108 2257.41,-107.43 2260.86,-106.7 2264.31,-105.86"/>
<polygon fill="black" stroke="black" points="2265.01,-109.29 2273.72,-103.26 2263.15,-102.55 2265.01,-109.29"/>
</g>
<!-- fields_entity -->
<g id="node17" class="node">
<title>fields_entity</title>
<ellipse fill="none" stroke="black" cx="472.04" cy="-90" rx="55.55" ry="18"/>
<text text-anchor="middle" x="472.04" y="-84.58" font-family="Times New Roman,serif" font-size="14.00">fields_entity</text>
</g>
<!-- show&#45;&gt;fields_entity -->
<g id="edge14" class="edge">
<title>show&#45;&gt;fields_entity</title>
<path fill="none" stroke="black" d="M490.23,-144.05C487.65,-136.52 484.54,-127.44 481.62,-118.94"/>
<polygon fill="black" stroke="black" points="485.01,-118.03 478.46,-109.71 478.39,-120.3 485.01,-118.03"/>
</g>
<!-- update -->
<g id="node18" class="node">
<title>update</title>
<ellipse fill="none" stroke="black" cx="1005.04" cy="-162" rx="35.6" ry="18"/>
<text text-anchor="middle" x="1005.04" y="-156.57" font-family="Times New Roman,serif" font-size="14.00">update</text>
</g>
<!-- update&#45;&gt;process_fieldables -->
<g id="edge18" class="edge">
<title>update&#45;&gt;process_fieldables</title>
<path fill="none" stroke="black" d="M1005.04,-143.7C1005.04,-136.41 1005.04,-127.73 1005.04,-119.54"/>
<polygon fill="black" stroke="black" points="1008.54,-119.62 1005.04,-109.62 1001.54,-119.62 1008.54,-119.62"/>
</g>
<!-- update&#45;&gt;save_and_render -->
<g id="edge19" class="edge">
<title>update&#45;&gt;save_and_render</title>
<path fill="none" stroke="black" d="M1038.73,-155.43C1094.72,-146.11 1210.46,-126.52 1308.04,-108 1313.59,-106.95 1319.34,-105.83 1325.11,-104.68"/>
<polygon fill="black" stroke="black" points="1325.57,-108.16 1334.69,-102.77 1324.2,-101.3 1325.57,-108.16"/>
</g>
<!-- update&#45;&gt;find -->
<g id="edge16" class="edge">
<title>update&#45;&gt;find</title>
<path fill="none" stroke="black" d="M970.82,-156.44C921.55,-149.29 828.2,-133.56 752.04,-108 750.49,-107.48 748.91,-106.91 747.33,-106.3"/>
<polygon fill="black" stroke="black" points="748.99,-103.2 738.42,-102.51 746.25,-109.64 748.99,-103.2"/>
</g>
<!-- assign_attributes -->
<g id="node19" class="node">
<title>assign_attributes</title>
<ellipse fill="none" stroke="black" cx="834.04" cy="-90" rx="72.52" ry="18"/>
<text text-anchor="middle" x="834.04" y="-84.58" font-family="Times New Roman,serif" font-size="14.00">assign_attributes</text>
</g>
<!-- update&#45;&gt;assign_attributes -->
<g id="edge17" class="edge">
<title>update&#45;&gt;assign_attributes</title>
<path fill="none" stroke="black" d="M977.95,-149.91C952,-139.29 912.31,-123.04 881.18,-110.29"/>
<polygon fill="black" stroke="black" points="882.54,-107.07 871.96,-106.52 879.89,-113.55 882.54,-107.07"/>
</g>
<!-- log_operation -->
<g id="node20" class="node">
<title>log_operation</title>
<ellipse fill="none" stroke="black" cx="1237.04" cy="-90" rx="62.04" ry="18"/>
<text text-anchor="middle" x="1237.04" y="-84.58" font-family="Times New Roman,serif" font-size="14.00">log_operation</text>
</g>
<!-- update&#45;&gt;log_operation -->
<g id="edge20" class="edge">
<title>update&#45;&gt;log_operation</title>
<path fill="none" stroke="black" d="M1034.9,-151.99C1072.55,-140.63 1137.93,-120.9 1184.13,-106.97"/>
<polygon fill="black" stroke="black" points="1185.13,-110.32 1193.69,-104.08 1183.11,-103.62 1185.13,-110.32"/>
</g>
<!-- update_responsibilities -->
<g id="node21" class="node">
<title>update_responsibilities</title>
<ellipse fill="none" stroke="black" cx="1857.04" cy="-162" rx="95.47" ry="18"/>
<text text-anchor="middle" x="1857.04" y="-156.57" font-family="Times New Roman,serif" font-size="14.00">update_responsibilities</text>
</g>
<!-- update_responsibilities&#45;&gt;process_responsibilities -->
<g id="edge23" class="edge">
<title>update_responsibilities&#45;&gt;process_responsibilities</title>
<path fill="none" stroke="black" d="M1801.93,-146.92C1758.09,-135.72 1696.59,-120.01 1649.93,-108.09"/>
<polygon fill="black" stroke="black" points="1651.04,-104.76 1640.48,-105.67 1649.3,-111.54 1651.04,-104.76"/>
</g>
<!-- update_responsibilities&#45;&gt;save_and_render -->
<g id="edge24" class="edge">
<title>update_responsibilities&#45;&gt;save_and_render</title>
<path fill="none" stroke="black" d="M1777.96,-151.57C1700.36,-141.96 1578.74,-125.95 1474.04,-108 1468.15,-106.99 1462.04,-105.87 1455.93,-104.71"/>
<polygon fill="black" stroke="black" points="1456.94,-101.34 1446.46,-102.86 1455.6,-108.21 1456.94,-101.34"/>
</g>
<!-- update_responsibilities&#45;&gt;authorize -->
<g id="edge22" class="edge">
<title>update_responsibilities&#45;&gt;authorize</title>
<path fill="none" stroke="black" d="M1943.4,-153.93C2024.35,-146.26 2148.39,-131.8 2254.04,-108 2257.18,-107.29 2260.4,-106.48 2263.62,-105.61"/>
<polygon fill="black" stroke="black" points="2264.42,-109.02 2273.05,-102.86 2262.47,-102.3 2264.42,-109.02"/>
</g>
<!-- update_responsibilities&#45;&gt;log_operation -->
<g id="edge25" class="edge">
<title>update_responsibilities&#45;&gt;log_operation</title>
<path fill="none" stroke="black" d="M1770.47,-154.12C1638.87,-143.41 1394.64,-122.47 1308.04,-108 1303.13,-107.18 1298.05,-106.21 1292.97,-105.15"/>
<polygon fill="black" stroke="black" points="1293.92,-101.78 1283.4,-103.06 1292.42,-108.62 1293.92,-101.78"/>
</g>
<!-- find_by -->
<g id="node22" class="node">
<title>find_by</title>
<ellipse fill="none" stroke="black" cx="2493.04" cy="-90" rx="39.59" ry="18"/>
<text text-anchor="middle" x="2493.04" y="-84.58" font-family="Times New Roman,serif" font-size="14.00">find_by</text>
</g>
<!-- update_responsibilities&#45;&gt;find_by -->
<g id="edge21" class="edge">
<title>update_responsibilities&#45;&gt;find_by</title>
<path fill="none" stroke="black" d="M1941.87,-153.41C2103.74,-138.91 2441,-108.65 2444.04,-108 2446.86,-107.39 2449.73,-106.68 2452.6,-105.88"/>
<polygon fill="black" stroke="black" points="2453.59,-109.24 2462.13,-102.96 2451.54,-102.55 2453.59,-109.24"/>
</g>
<!-- notify_update_responsibilities -->
<g id="node23" class="node">
<title>notify_update_responsibilities</title>
<ellipse fill="none" stroke="black" cx="1985.04" cy="-90" rx="121.92" ry="18"/>
<text text-anchor="middle" x="1985.04" y="-84.58" font-family="Times New Roman,serif" font-size="14.00">notify_update_responsibilities</text>
</g>
<!-- update_responsibilities&#45;&gt;notify_update_responsibilities -->
<g id="edge26" class="edge">
<title>update_responsibilities&#45;&gt;notify_update_responsibilities</title>
<path fill="none" stroke="black" d="M1887.05,-144.59C1904.14,-135.25 1925.77,-123.41 1944.36,-113.25"/>
<polygon fill="black" stroke="black" points="1945.91,-116.39 1953,-108.52 1942.55,-110.25 1945.91,-116.39"/>
</g>
<!-- update_workflow -->
<g id="node24" class="node">
<title>update_workflow</title>
<ellipse fill="none" stroke="black" cx="2603.04" cy="-162" rx="76.01" ry="18"/>
<text text-anchor="middle" x="2603.04" y="-156.57" font-family="Times New Roman,serif" font-size="14.00">update_workflow</text>
</g>
<!-- update_workflow&#45;&gt;merge -->
<g id="edge33" class="edge">
<title>update_workflow&#45;&gt;merge</title>
<path fill="none" stroke="black" d="M2558.58,-147C2526.55,-136.72 2482.4,-122.14 2444.04,-108 2442.13,-107.3 2440.18,-106.56 2438.21,-105.81"/>
<polygon fill="black" stroke="black" points="2439.71,-102.63 2429.12,-102.24 2437.15,-109.15 2439.71,-102.63"/>
</g>
<!-- update_workflow&#45;&gt;authorize -->
<g id="edge29" class="edge">
<title>update_workflow&#45;&gt;authorize</title>
<path fill="none" stroke="black" d="M2545.23,-150.01C2495.75,-140.22 2422.8,-124.87 2360.04,-108 2357.13,-107.22 2354.13,-106.37 2351.12,-105.49"/>
<polygon fill="black" stroke="black" points="2352.29,-102.19 2341.71,-102.63 2350.26,-108.89 2352.29,-102.19"/>
</g>
<!-- update_workflow&#45;&gt;find_by -->
<g id="edge27" class="edge">
<title>update_workflow&#45;&gt;find_by</title>
<path fill="none" stroke="black" d="M2577.25,-144.59C2561.54,-134.59 2541.35,-121.74 2524.67,-111.13"/>
<polygon fill="black" stroke="black" points="2526.92,-108.41 2516.6,-105.99 2523.16,-114.31 2526.92,-108.41"/>
</g>
<!-- find_errors -->
<g id="node25" class="node">
<title>find_errors</title>
<ellipse fill="none" stroke="black" cx="2603.04" cy="-90" rx="52.06" ry="18"/>
<text text-anchor="middle" x="2603.04" y="-84.58" font-family="Times New Roman,serif" font-size="14.00">find_errors</text>
</g>
<!-- update_workflow&#45;&gt;find_errors -->
<g id="edge28" class="edge">
<title>update_workflow&#45;&gt;find_errors</title>
<path fill="none" stroke="black" d="M2603.04,-143.7C2603.04,-136.41 2603.04,-127.73 2603.04,-119.54"/>
<polygon fill="black" stroke="black" points="2606.54,-119.62 2603.04,-109.62 2599.54,-119.62 2606.54,-119.62"/>
</g>
<!-- send -->
<g id="node26" class="node">
<title>send</title>
<ellipse fill="none" stroke="black" cx="2701.04" cy="-90" rx="28.11" ry="18"/>
<text text-anchor="middle" x="2701.04" y="-84.58" font-family="Times New Roman,serif" font-size="14.00">send</text>
</g>
<!-- update_workflow&#45;&gt;send -->
<g id="edge30" class="edge">
<title>update_workflow&#45;&gt;send</title>
<path fill="none" stroke="black" d="M2626.27,-144.41C2640.48,-134.26 2658.73,-121.23 2673.64,-110.57"/>
<polygon fill="black" stroke="black" points="2675.55,-113.51 2681.65,-104.85 2671.48,-107.82 2675.55,-113.51"/>
</g>
<!-- transition_notice -->
<g id="node27" class="node">
<title>transition_notice</title>
<ellipse fill="none" stroke="black" cx="2819.04" cy="-90" rx="72.02" ry="18"/>
<text text-anchor="middle" x="2819.04" y="-84.58" font-family="Times New Roman,serif" font-size="14.00">transition_notice</text>
</g>
<!-- update_workflow&#45;&gt;transition_notice -->
<g id="edge31" class="edge">
<title>update_workflow&#45;&gt;transition_notice</title>
<path fill="none" stroke="black" d="M2646.75,-146.83C2681.09,-135.71 2729.05,-120.17 2765.65,-108.3"/>
<polygon fill="black" stroke="black" points="2766.26,-111.78 2774.7,-105.37 2764.1,-105.13 2766.26,-111.78"/>
</g>
<!-- workflow_props -->
<g id="node28" class="node">
<title>workflow_props</title>
<ellipse fill="none" stroke="black" cx="2982.04" cy="-90" rx="73.02" ry="18"/>
<text text-anchor="middle" x="2982.04" y="-84.58" font-family="Times New Roman,serif" font-size="14.00">workflow_props</text>
</g>
<!-- update_workflow&#45;&gt;workflow_props -->
<g id="edge32" class="edge">
<title>update_workflow&#45;&gt;workflow_props</title>
<path fill="none" stroke="black" d="M2663.43,-150.73C2723.51,-140.4 2818.27,-123.77 2900.04,-108 2905.52,-106.94 2911.21,-105.82 2916.9,-104.68"/>
<polygon fill="black" stroke="black" points="2917.24,-108.18 2926.35,-102.76 2915.85,-101.32 2917.24,-108.18"/>
</g>
<!-- duplicate -->
<g id="node29" class="node">
<title>duplicate</title>
<ellipse fill="none" stroke="black" cx="2100.04" cy="-162" rx="44.08" ry="18"/>
<text text-anchor="middle" x="2100.04" y="-156.57" font-family="Times New Roman,serif" font-size="14.00">duplicate</text>
</g>
<!-- duplicate&#45;&gt;process_responsibilities -->
<g id="edge36" class="edge">
<title>duplicate&#45;&gt;process_responsibilities</title>
<path fill="none" stroke="black" d="M2058,-155.9C1983.96,-146.83 1825.51,-127.07 1692.04,-108 1684.03,-106.85 1675.69,-105.62 1667.34,-104.37"/>
<polygon fill="black" stroke="black" points="1667.91,-100.91 1657.5,-102.87 1666.86,-107.83 1667.91,-100.91"/>
</g>
<!-- duplicate&#45;&gt;new_internal_ref -->
<g id="edge37" class="edge">
<title>duplicate&#45;&gt;new_internal_ref</title>
<path fill="none" stroke="black" d="M2061.57,-152.76C2006.51,-140.98 1904.53,-119.15 1837.74,-104.85"/>
<polygon fill="black" stroke="black" points="1838.51,-101.43 1828,-102.76 1837.04,-108.28 1838.51,-101.43"/>
</g>
<!-- duplicate&#45;&gt;save_and_render -->
<g id="edge38" class="edge">
<title>duplicate&#45;&gt;save_and_render</title>
<path fill="none" stroke="black" d="M2058.44,-155.38C2030.85,-151.79 1993.83,-147.21 1961.04,-144 1745.04,-122.82 1689.02,-137.84 1474.04,-108 1467.94,-107.15 1461.62,-106.13 1455.3,-105.01"/>
<polygon fill="black" stroke="black" points="1455.96,-101.57 1445.49,-103.18 1454.68,-108.45 1455.96,-101.57"/>
</g>
<!-- duplicate&#45;&gt;create_notice -->
<g id="edge39" class="edge">
<title>duplicate&#45;&gt;create_notice</title>
<path fill="none" stroke="black" d="M2118.91,-145.46C2130.01,-136.32 2144.26,-124.59 2156.69,-114.35"/>
<polygon fill="black" stroke="black" points="2158.68,-117.24 2164.18,-108.18 2154.23,-111.84 2158.68,-117.24"/>
</g>
<!-- duplicate&#45;&gt;authorize -->
<g id="edge35" class="edge">
<title>duplicate&#45;&gt;authorize</title>
<path fill="none" stroke="black" d="M2133.3,-149.75C2168.61,-137.81 2224.57,-118.89 2263.4,-105.76"/>
<polygon fill="black" stroke="black" points="2264.08,-109.22 2272.43,-102.7 2261.84,-102.59 2264.08,-109.22"/>
</g>
<!-- duplicate&#45;&gt;find_by -->
<g id="edge34" class="edge">
<title>duplicate&#45;&gt;find_by</title>
<path fill="none" stroke="black" d="M2142.9,-156.92C2208.47,-150.11 2337.31,-134.51 2444.04,-108 2446.8,-107.32 2449.61,-106.54 2452.44,-105.71"/>
<polygon fill="black" stroke="black" points="2453.32,-109.11 2461.8,-102.76 2451.21,-102.43 2453.32,-109.11"/>
</g>
<!-- destroy -->
<g id="node30" class="node">
<title>destroy</title>
<ellipse fill="none" stroke="black" cx="662.04" cy="-162" rx="38.59" ry="18"/>
<text text-anchor="middle" x="662.04" y="-156.57" font-family="Times New Roman,serif" font-size="14.00">destroy</text>
</g>
<!-- destroy&#45;&gt;find -->
<g id="edge40" class="edge">
<title>destroy&#45;&gt;find</title>
<path fill="none" stroke="black" d="M674.57,-144.76C681.37,-135.95 689.91,-124.88 697.47,-115.08"/>
<polygon fill="black" stroke="black" points="700.07,-117.44 703.4,-107.39 694.52,-113.17 700.07,-117.44"/>
</g>
<!-- log_workflow -->
<g id="node31" class="node">
<title>log_workflow</title>
<ellipse fill="none" stroke="black" cx="608.04" cy="-90" rx="62.54" ry="18"/>
<text text-anchor="middle" x="608.04" y="-84.58" font-family="Times New Roman,serif" font-size="14.00">log_workflow</text>
</g>
<!-- destroy&#45;&gt;log_workflow -->
<g id="edge41" class="edge">
<title>destroy&#45;&gt;log_workflow</title>
<path fill="none" stroke="black" d="M649.52,-144.76C643.07,-136.4 635.06,-126.02 627.8,-116.61"/>
<polygon fill="black" stroke="black" points="630.68,-114.61 621.8,-108.83 625.14,-118.89 630.68,-114.61"/>
</g>
<!-- audit_params -->
<g id="node32" class="node">
<title>audit_params</title>
<ellipse fill="none" stroke="black" cx="3118.04" cy="-162" rx="60.54" ry="18"/>
<text text-anchor="middle" x="3118.04" y="-156.57" font-family="Times New Roman,serif" font-size="14.00">audit_params</text>
</g>
<!-- require -->
<g id="node33" class="node">
<title>require</title>
<ellipse fill="none" stroke="black" cx="3109.04" cy="-90" rx="36.09" ry="18"/>
<text text-anchor="middle" x="3109.04" y="-84.58" font-family="Times New Roman,serif" font-size="14.00">require</text>
</g>
<!-- audit_params&#45;&gt;require -->
<g id="edge42" class="edge">
<title>audit_params&#45;&gt;require</title>
<path fill="none" stroke="black" d="M3115.82,-143.7C3114.87,-136.32 3113.74,-127.52 3112.68,-119.25"/>
<polygon fill="black" stroke="black" points="3116.18,-119.08 3111.44,-109.61 3109.24,-119.97 3116.18,-119.08"/>
</g>
<!-- permit -->
<g id="node34" class="node">
<title>permit</title>
<ellipse fill="none" stroke="black" cx="3197.04" cy="-90" rx="34.1" ry="18"/>
<text text-anchor="middle" x="3197.04" y="-84.58" font-family="Times New Roman,serif" font-size="14.00">permit</text>
</g>
<!-- audit_params&#45;&gt;permit -->
<g id="edge43" class="edge">
<title>audit_params&#45;&gt;permit</title>
<path fill="none" stroke="black" d="M3136.77,-144.41C3147.13,-135.22 3160.17,-123.67 3171.47,-113.66"/>
<polygon fill="black" stroke="black" points="3173.78,-116.29 3178.94,-107.04 3169.13,-111.05 3173.78,-116.29"/>
</g>
<!-- comment_required -->
<g id="node35" class="node">
<title>comment_required</title>
<ellipse fill="none" stroke="black" cx="3286.04" cy="-162" rx="80.5" ry="18"/>
<text text-anchor="middle" x="3286.04" y="-156.57" font-family="Times New Roman,serif" font-size="14.00">comment_required</text>
</g>
<!-- include -->
<g id="node36" class="node">
<title>include</title>
<ellipse fill="none" stroke="black" cx="3286.04" cy="-90" rx="37.09" ry="18"/>
<text text-anchor="middle" x="3286.04" y="-84.58" font-family="Times New Roman,serif" font-size="14.00">include</text>
</g>
<!-- comment_required&#45;&gt;include -->
<g id="edge44" class="edge">
<title>comment_required&#45;&gt;include</title>
<path fill="none" stroke="black" d="M3286.04,-143.7C3286.04,-136.41 3286.04,-127.73 3286.04,-119.54"/>
<polygon fill="black" stroke="black" points="3289.54,-119.62 3286.04,-109.62 3282.54,-119.62 3289.54,-119.62"/>
</g>
</g>
</svg>
