<?xml version="1.0" encoding="UTF-8" standalone="no"?>
<!DOCTYPE svg PUBLIC "-//W3C//DTD SVG 1.1//EN"
 "http://www.w3.org/Graphics/SVG/1.1/DTD/svg11.dtd">
<!-- Generated by graphviz version 9.0.0 (20230911.1827)
 -->
<!-- Title: CallGraph Pages: 1 -->
<svg width="1991pt" height="188pt"
 viewBox="0.00 0.00 1990.59 188.00" xmlns="http://www.w3.org/2000/svg" xmlns:xlink="http://www.w3.org/1999/xlink">
<g id="graph0" class="graph" transform="scale(1 1) rotate(0) translate(4 184)">
<title>CallGraph</title>
<polygon fill="white" stroke="none" points="-4,4 -4,-184 1986.59,-184 1986.59,4 -4,4"/>
<!-- create -->
<g id="node1" class="node">
<title>create</title>
<ellipse fill="none" stroke="black" cx="747.11" cy="-162" rx="32.6" ry="18"/>
<text text-anchor="middle" x="747.11" y="-156.57" font-family="Times New Roman,serif" font-size="14.00">create</text>
</g>
<!-- find -->
<g id="node2" class="node">
<title>find</title>
<ellipse fill="none" stroke="black" cx="437.11" cy="-90" rx="27" ry="18"/>
<text text-anchor="middle" x="437.11" y="-84.58" font-family="Times New Roman,serif" font-size="14.00">find</text>
</g>
<!-- create&#45;&gt;find -->
<g id="edge1" class="edge">
<title>create&#45;&gt;find</title>
<path fill="none" stroke="black" d="M715.23,-157.46C663.46,-151.14 558.3,-135.87 473.11,-108 471.55,-107.49 469.97,-106.93 468.39,-106.33"/>
<polygon fill="black" stroke="black" points="470.04,-103.23 459.46,-102.56 467.32,-109.68 470.04,-103.23"/>
</g>
<!-- new -->
<g id="node3" class="node">
<title>new</title>
<ellipse fill="none" stroke="black" cx="999.11" cy="-90" rx="27" ry="18"/>
<text text-anchor="middle" x="999.11" y="-84.58" font-family="Times New Roman,serif" font-size="14.00">new</text>
</g>
<!-- create&#45;&gt;new -->
<g id="edge2" class="edge">
<title>create&#45;&gt;new</title>
<path fill="none" stroke="black" d="M777.72,-155.5C820.1,-147.44 898.7,-130.85 963.11,-108 964.66,-107.45 966.23,-106.86 967.8,-106.23"/>
<polygon fill="black" stroke="black" points="968.91,-109.57 976.7,-102.39 966.13,-103.14 968.91,-109.57"/>
</g>
<!-- merge -->
<g id="node4" class="node">
<title>merge</title>
<ellipse fill="none" stroke="black" cx="921.11" cy="-90" rx="33.1" ry="18"/>
<text text-anchor="middle" x="921.11" y="-84.58" font-family="Times New Roman,serif" font-size="14.00">merge</text>
</g>
<!-- create&#45;&gt;merge -->
<g id="edge3" class="edge">
<title>create&#45;&gt;merge</title>
<path fill="none" stroke="black" d="M772.92,-150.66C799.53,-140 842.23,-122.87 879.11,-108 881,-107.24 882.93,-106.46 884.89,-105.67"/>
<polygon fill="black" stroke="black" points="885.99,-109 893.95,-102.01 883.36,-102.51 885.99,-109"/>
</g>
<!-- mark_dirty_audit_element_ids -->
<g id="node5" class="node">
<title>mark_dirty_audit_element_ids</title>
<ellipse fill="none" stroke="black" cx="747.11" cy="-90" rx="122.92" ry="18"/>
<text text-anchor="middle" x="747.11" y="-84.58" font-family="Times New Roman,serif" font-size="14.00">mark_dirty_audit_element_ids</text>
</g>
<!-- create&#45;&gt;mark_dirty_audit_element_ids -->
<g id="edge4" class="edge">
<title>create&#45;&gt;mark_dirty_audit_element_ids</title>
<path fill="none" stroke="black" d="M747.11,-143.7C747.11,-136.41 747.11,-127.73 747.11,-119.54"/>
<polygon fill="black" stroke="black" points="750.61,-119.62 747.11,-109.62 743.61,-119.62 750.61,-119.62"/>
</g>
<!-- log_operation -->
<g id="node6" class="node">
<title>log_operation</title>
<ellipse fill="none" stroke="black" cx="544.11" cy="-90" rx="62.04" ry="18"/>
<text text-anchor="middle" x="544.11" y="-84.58" font-family="Times New Roman,serif" font-size="14.00">log_operation</text>
</g>
<!-- create&#45;&gt;log_operation -->
<g id="edge5" class="edge">
<title>create&#45;&gt;log_operation</title>
<path fill="none" stroke="black" d="M720.15,-151.7C688.02,-140.62 633.66,-121.88 593.83,-108.14"/>
<polygon fill="black" stroke="black" points="595.03,-104.86 584.44,-104.91 592.75,-111.48 595.03,-104.86"/>
</g>
<!-- update -->
<g id="node7" class="node">
<title>update</title>
<ellipse fill="none" stroke="black" cx="364.11" cy="-162" rx="35.6" ry="18"/>
<text text-anchor="middle" x="364.11" y="-156.57" font-family="Times New Roman,serif" font-size="14.00">update</text>
</g>
<!-- update&#45;&gt;find -->
<g id="edge6" class="edge">
<title>update&#45;&gt;find</title>
<path fill="none" stroke="black" d="M379.95,-145.81C389.97,-136.2 403.1,-123.61 414.24,-112.93"/>
<polygon fill="black" stroke="black" points="416.41,-115.7 421.2,-106.25 411.56,-110.65 416.41,-115.7"/>
</g>
<!-- update&#45;&gt;update -->
<g id="edge7" class="edge">
<title>update&#45;&gt;update</title>
<path fill="none" stroke="black" d="M390.03,-174.85C404.44,-177.25 417.71,-172.97 417.71,-162 417.71,-154.03 410.7,-149.59 401.34,-148.68"/>
<polygon fill="black" stroke="black" points="401.39,-145.17 391.54,-149.08 401.68,-152.17 401.39,-145.17"/>
</g>
<!-- assign_attributes -->
<g id="node8" class="node">
<title>assign_attributes</title>
<ellipse fill="none" stroke="black" cx="147.11" cy="-90" rx="72.52" ry="18"/>
<text text-anchor="middle" x="147.11" y="-84.58" font-family="Times New Roman,serif" font-size="14.00">assign_attributes</text>
</g>
<!-- update&#45;&gt;assign_attributes -->
<g id="edge8" class="edge">
<title>update&#45;&gt;assign_attributes</title>
<path fill="none" stroke="black" d="M334.84,-151.56C300.58,-140.51 243.12,-121.97 200.78,-108.31"/>
<polygon fill="black" stroke="black" points="202.12,-105.07 191.53,-105.33 199.97,-111.73 202.12,-105.07"/>
</g>
<!-- destroy -->
<g id="node9" class="node">
<title>destroy</title>
<ellipse fill="none" stroke="black" cx="490.11" cy="-162" rx="38.59" ry="18"/>
<text text-anchor="middle" x="490.11" y="-156.57" font-family="Times New Roman,serif" font-size="14.00">destroy</text>
</g>
<!-- destroy&#45;&gt;find -->
<g id="edge9" class="edge">
<title>destroy&#45;&gt;find</title>
<path fill="none" stroke="black" d="M477.82,-144.76C471.3,-136.16 463.16,-125.41 455.88,-115.79"/>
<polygon fill="black" stroke="black" points="458.71,-113.73 449.88,-107.87 453.13,-117.96 458.71,-113.73"/>
</g>
<!-- destroy&#45;&gt;mark_dirty_audit_element_ids -->
<g id="edge11" class="edge">
<title>destroy&#45;&gt;mark_dirty_audit_element_ids</title>
<path fill="none" stroke="black" d="M522.92,-152.06C562.25,-141.35 629.18,-123.12 679.7,-109.36"/>
<polygon fill="black" stroke="black" points="680.35,-112.81 689.08,-106.81 678.51,-106.06 680.35,-112.81"/>
</g>
<!-- destroy&#45;&gt;log_operation -->
<g id="edge12" class="edge">
<title>destroy&#45;&gt;log_operation</title>
<path fill="none" stroke="black" d="M502.63,-144.76C509.08,-136.4 517.1,-126.02 524.36,-116.61"/>
<polygon fill="black" stroke="black" points="527.02,-118.89 530.35,-108.83 521.47,-114.61 527.02,-118.89"/>
</g>
<!-- delete_field_value -->
<g id="node10" class="node">
<title>delete_field_value</title>
<ellipse fill="none" stroke="black" cx="315.11" cy="-90" rx="77.01" ry="18"/>
<text text-anchor="middle" x="315.11" y="-84.58" font-family="Times New Roman,serif" font-size="14.00">delete_field_value</text>
</g>
<!-- destroy&#45;&gt;delete_field_value -->
<g id="edge10" class="edge">
<title>destroy&#45;&gt;delete_field_value</title>
<path fill="none" stroke="black" d="M461.6,-149.6C434.98,-138.95 394.71,-122.84 363.12,-110.21"/>
<polygon fill="black" stroke="black" points="364.77,-107.09 354.18,-106.63 362.17,-113.59 364.77,-107.09"/>
</g>
<!-- form_field_object -->
<g id="node12" class="node">
<title>form_field_object</title>
<ellipse fill="none" stroke="black" cx="752.11" cy="-18" rx="77.51" ry="18"/>
<text text-anchor="middle" x="752.11" y="-12.57" font-family="Times New Roman,serif" font-size="14.00">form_field_object</text>
</g>
<!-- delete_field_value&#45;&gt;form_field_object -->
<g id="edge15" class="edge">
<title>delete_field_value&#45;&gt;form_field_object</title>
<path fill="none" stroke="black" d="M371.48,-77.48C381.34,-75.57 391.51,-73.67 401.11,-72 495.34,-55.58 604.32,-39.59 675.53,-29.54"/>
<polygon fill="black" stroke="black" points="675.72,-33.05 685.13,-28.19 674.74,-26.12 675.72,-33.05"/>
</g>
<!-- find_by -->
<g id="node13" class="node">
<title>find_by</title>
<ellipse fill="none" stroke="black" cx="360.11" cy="-18" rx="39.59" ry="18"/>
<text text-anchor="middle" x="360.11" y="-12.57" font-family="Times New Roman,serif" font-size="14.00">find_by</text>
</g>
<!-- delete_field_value&#45;&gt;find_by -->
<g id="edge16" class="edge">
<title>delete_field_value&#45;&gt;find_by</title>
<path fill="none" stroke="black" d="M326.23,-71.7C331.38,-63.7 337.6,-54.02 343.3,-45.15"/>
<polygon fill="black" stroke="black" points="346.14,-47.2 348.61,-36.9 340.25,-43.41 346.14,-47.2"/>
</g>
<!-- delete -->
<g id="node14" class="node">
<title>delete</title>
<ellipse fill="none" stroke="black" cx="270.11" cy="-18" rx="32.1" ry="18"/>
<text text-anchor="middle" x="270.11" y="-12.57" font-family="Times New Roman,serif" font-size="14.00">delete</text>
</g>
<!-- delete_field_value&#45;&gt;delete -->
<g id="edge17" class="edge">
<title>delete_field_value&#45;&gt;delete</title>
<path fill="none" stroke="black" d="M303.99,-71.7C298.77,-63.58 292.44,-53.74 286.67,-44.76"/>
<polygon fill="black" stroke="black" points="289.66,-42.94 281.31,-36.42 283.77,-46.72 289.66,-42.94"/>
</g>
<!-- create_field_value -->
<g id="node11" class="node">
<title>create_field_value</title>
<ellipse fill="none" stroke="black" cx="999.11" cy="-162" rx="77.51" ry="18"/>
<text text-anchor="middle" x="999.11" y="-156.57" font-family="Times New Roman,serif" font-size="14.00">create_field_value</text>
</g>
<!-- create_field_value&#45;&gt;new -->
<g id="edge14" class="edge">
<title>create_field_value&#45;&gt;new</title>
<path fill="none" stroke="black" d="M999.11,-143.7C999.11,-136.41 999.11,-127.73 999.11,-119.54"/>
<polygon fill="black" stroke="black" points="1002.61,-119.62 999.11,-109.62 995.61,-119.62 1002.61,-119.62"/>
</g>
<!-- create_field_value&#45;&gt;form_field_object -->
<g id="edge13" class="edge">
<title>create_field_value&#45;&gt;form_field_object</title>
<path fill="none" stroke="black" d="M1015.58,-143.97C1032.15,-124.77 1052.89,-93.42 1035.11,-72 1010.44,-42.28 912.39,-29.12 838.57,-23.37"/>
<polygon fill="black" stroke="black" points="839.15,-19.9 828.92,-22.65 838.63,-26.88 839.15,-19.9"/>
</g>
<!-- element_with_process -->
<g id="node15" class="node">
<title>element_with_process</title>
<ellipse fill="none" stroke="black" cx="147.11" cy="-162" rx="93.48" ry="18"/>
<text text-anchor="middle" x="147.11" y="-156.57" font-family="Times New Roman,serif" font-size="14.00">element_with_process</text>
</g>
<!-- element_with_process&#45;&gt;find -->
<g id="edge19" class="edge">
<title>element_with_process&#45;&gt;find</title>
<path fill="none" stroke="black" d="M220.3,-150.42C271.71,-141.87 341.63,-127.94 401.11,-108 402.67,-107.48 404.24,-106.91 405.83,-106.3"/>
<polygon fill="black" stroke="black" points="406.91,-109.64 414.74,-102.51 404.17,-103.2 406.91,-109.64"/>
</g>
<!-- element_with_process&#45;&gt;assign_attributes -->
<g id="edge20" class="edge">
<title>element_with_process&#45;&gt;assign_attributes</title>
<path fill="none" stroke="black" d="M147.11,-143.7C147.11,-136.41 147.11,-127.73 147.11,-119.54"/>
<polygon fill="black" stroke="black" points="150.61,-119.62 147.11,-109.62 143.61,-119.62 150.61,-119.62"/>
</g>
<!-- send -->
<g id="node16" class="node">
<title>send</title>
<ellipse fill="none" stroke="black" cx="28.11" cy="-90" rx="28.11" ry="18"/>
<text text-anchor="middle" x="28.11" y="-84.58" font-family="Times New Roman,serif" font-size="14.00">send</text>
</g>
<!-- element_with_process&#45;&gt;send -->
<g id="edge18" class="edge">
<title>element_with_process&#45;&gt;send</title>
<path fill="none" stroke="black" d="M118.91,-144.41C100.58,-133.63 76.72,-119.59 58.06,-108.62"/>
<polygon fill="black" stroke="black" points="59.99,-105.69 49.6,-103.64 56.44,-111.73 59.99,-105.69"/>
</g>
<!-- assign_roles -->
<g id="node17" class="node">
<title>assign_roles</title>
<ellipse fill="none" stroke="black" cx="1721.11" cy="-162" rx="56.55" ry="18"/>
<text text-anchor="middle" x="1721.11" y="-156.57" font-family="Times New Roman,serif" font-size="14.00">assign_roles</text>
</g>
<!-- assign_provided_roles -->
<g id="node18" class="node">
<title>assign_provided_roles</title>
<ellipse fill="none" stroke="black" cx="1189.11" cy="-162" rx="94.98" ry="18"/>
<text text-anchor="middle" x="1189.11" y="-156.57" font-family="Times New Roman,serif" font-size="14.00">assign_provided_roles</text>
</g>
<!-- assign_provided_roles&#45;&gt;find -->
<g id="edge22" class="edge">
<title>assign_provided_roles&#45;&gt;find</title>
<path fill="none" stroke="black" d="M1121.93,-148.87C1110.03,-147.02 1097.73,-145.3 1086.11,-144 814.88,-113.74 737.55,-175.5 473.11,-108 471.48,-107.58 469.83,-107.09 468.18,-106.54"/>
<polygon fill="black" stroke="black" points="469.53,-103.31 458.95,-102.85 466.94,-109.81 469.53,-103.31"/>
</g>
<!-- build -->
<g id="node19" class="node">
<title>build</title>
<ellipse fill="none" stroke="black" cx="1369.11" cy="-90" rx="29.11" ry="18"/>
<text text-anchor="middle" x="1369.11" y="-84.58" font-family="Times New Roman,serif" font-size="14.00">build</text>
</g>
<!-- assign_provided_roles&#45;&gt;build -->
<g id="edge21" class="edge">
<title>assign_provided_roles&#45;&gt;build</title>
<path fill="none" stroke="black" d="M1229.51,-145.29C1261.08,-133.01 1304.49,-116.13 1334.49,-104.46"/>
<polygon fill="black" stroke="black" points="1335.42,-107.86 1343.47,-100.97 1332.88,-101.33 1335.42,-107.86"/>
</g>
<!-- default_auditor -->
<g id="node20" class="node">
<title>default_auditor</title>
<ellipse fill="none" stroke="black" cx="1369.11" cy="-162" rx="66.53" ry="18"/>
<text text-anchor="middle" x="1369.11" y="-156.57" font-family="Times New Roman,serif" font-size="14.00">default_auditor</text>
</g>
<!-- default_auditor&#45;&gt;build -->
<g id="edge23" class="edge">
<title>default_auditor&#45;&gt;build</title>
<path fill="none" stroke="black" d="M1369.11,-143.7C1369.11,-136.41 1369.11,-127.73 1369.11,-119.54"/>
<polygon fill="black" stroke="black" points="1372.61,-119.62 1369.11,-109.62 1365.61,-119.62 1372.61,-119.62"/>
</g>
<!-- default_domain_owner -->
<g id="node21" class="node">
<title>default_domain_owner</title>
<ellipse fill="none" stroke="black" cx="1550.11" cy="-162" rx="95.97" ry="18"/>
<text text-anchor="middle" x="1550.11" y="-156.57" font-family="Times New Roman,serif" font-size="14.00">default_domain_owner</text>
</g>
<!-- default_domain_owner&#45;&gt;build -->
<g id="edge24" class="edge">
<title>default_domain_owner&#45;&gt;build</title>
<path fill="none" stroke="black" d="M1509.49,-145.29C1477.74,-133.01 1434.09,-116.13 1403.93,-104.46"/>
<polygon fill="black" stroke="black" points="1405.47,-101.31 1394.88,-100.97 1402.95,-107.84 1405.47,-101.31"/>
</g>
<!-- audit_element_params -->
<g id="node22" class="node">
<title>audit_element_params</title>
<ellipse fill="none" stroke="black" cx="1889.11" cy="-162" rx="93.48" ry="18"/>
<text text-anchor="middle" x="1889.11" y="-156.57" font-family="Times New Roman,serif" font-size="14.00">audit_element_params</text>
</g>
<!-- require -->
<g id="node23" class="node">
<title>require</title>
<ellipse fill="none" stroke="black" cx="1845.11" cy="-90" rx="36.09" ry="18"/>
<text text-anchor="middle" x="1845.11" y="-84.58" font-family="Times New Roman,serif" font-size="14.00">require</text>
</g>
<!-- audit_element_params&#45;&gt;require -->
<g id="edge25" class="edge">
<title>audit_element_params&#45;&gt;require</title>
<path fill="none" stroke="black" d="M1878.23,-143.7C1873.2,-135.7 1867.12,-126.02 1861.55,-117.15"/>
<polygon fill="black" stroke="black" points="1864.65,-115.51 1856.36,-108.9 1858.72,-119.23 1864.65,-115.51"/>
</g>
<!-- permit -->
<g id="node24" class="node">
<title>permit</title>
<ellipse fill="none" stroke="black" cx="1933.11" cy="-90" rx="34.1" ry="18"/>
<text text-anchor="middle" x="1933.11" y="-84.58" font-family="Times New Roman,serif" font-size="14.00">permit</text>
</g>
<!-- audit_element_params&#45;&gt;permit -->
<g id="edge26" class="edge">
<title>audit_element_params&#45;&gt;permit</title>
<path fill="none" stroke="black" d="M1899.99,-143.7C1905.02,-135.7 1911.1,-126.02 1916.67,-117.15"/>
<polygon fill="black" stroke="black" points="1919.5,-119.23 1921.86,-108.9 1913.57,-115.51 1919.5,-119.23"/>
</g>
</g>
</svg>
