<?xml version="1.0" encoding="UTF-8" standalone="no"?>
<!DOCTYPE svg PUBLIC "-//W3C//DTD SVG 1.1//EN"
 "http://www.w3.org/Graphics/SVG/1.1/DTD/svg11.dtd">
<!-- Generated by graphviz version 9.0.0 (20230911.1827)
 -->
<!-- Title: CallGraph Pages: 1 -->
<svg width="831pt" height="116pt"
 viewBox="0.00 0.00 831.21 116.00" xmlns="http://www.w3.org/2000/svg" xmlns:xlink="http://www.w3.org/1999/xlink">
<g id="graph0" class="graph" transform="scale(1 1) rotate(0) translate(4 112)">
<title>CallGraph</title>
<polygon fill="white" stroke="none" points="-4,4 -4,-112 827.21,-112 827.21,4 -4,4"/>
<!-- index -->
<g id="node1" class="node">
<title>index</title>
<ellipse fill="none" stroke="black" cx="30.61" cy="-90" rx="30.61" ry="18"/>
<text text-anchor="middle" x="30.61" y="-84.58" font-family="Times New Roman,serif" font-size="14.00">index</text>
</g>
<!-- create -->
<g id="node2" class="node">
<title>create</title>
<ellipse fill="none" stroke="black" cx="279.61" cy="-90" rx="32.6" ry="18"/>
<text text-anchor="middle" x="279.61" y="-84.58" font-family="Times New Roman,serif" font-size="14.00">create</text>
</g>
<!-- find -->
<g id="node3" class="node">
<title>find</title>
<ellipse fill="none" stroke="black" cx="153.61" cy="-18" rx="27" ry="18"/>
<text text-anchor="middle" x="153.61" y="-12.57" font-family="Times New Roman,serif" font-size="14.00">find</text>
</g>
<!-- create&#45;&gt;find -->
<g id="edge1" class="edge">
<title>create&#45;&gt;find</title>
<path fill="none" stroke="black" d="M257.08,-76.49C236.67,-65.15 206.43,-48.35 183.91,-35.83"/>
<polygon fill="black" stroke="black" points="185.62,-32.78 175.18,-30.99 182.22,-38.9 185.62,-32.78"/>
</g>
<!-- create_and_deliver -->
<g id="node4" class="node">
<title>create_and_deliver</title>
<ellipse fill="none" stroke="black" cx="279.61" cy="-18" rx="80.5" ry="18"/>
<text text-anchor="middle" x="279.61" y="-12.57" font-family="Times New Roman,serif" font-size="14.00">create_and_deliver</text>
</g>
<!-- create&#45;&gt;create_and_deliver -->
<g id="edge2" class="edge">
<title>create&#45;&gt;create_and_deliver</title>
<path fill="none" stroke="black" d="M279.61,-71.7C279.61,-64.41 279.61,-55.73 279.61,-47.54"/>
<polygon fill="black" stroke="black" points="283.11,-47.62 279.61,-37.62 276.11,-47.62 283.11,-47.62"/>
</g>
<!-- t -->
<g id="node5" class="node">
<title>t</title>
<ellipse fill="none" stroke="black" cx="405.61" cy="-18" rx="27" ry="18"/>
<text text-anchor="middle" x="405.61" y="-12.57" font-family="Times New Roman,serif" font-size="14.00">t</text>
</g>
<!-- create&#45;&gt;t -->
<g id="edge3" class="edge">
<title>create&#45;&gt;t</title>
<path fill="none" stroke="black" d="M302.13,-76.49C322.54,-65.15 352.78,-48.35 375.3,-35.83"/>
<polygon fill="black" stroke="black" points="376.99,-38.9 384.03,-30.99 373.59,-32.78 376.99,-38.9"/>
</g>
<!-- destroy -->
<g id="node6" class="node">
<title>destroy</title>
<ellipse fill="none" stroke="black" cx="405.61" cy="-90" rx="38.59" ry="18"/>
<text text-anchor="middle" x="405.61" y="-84.58" font-family="Times New Roman,serif" font-size="14.00">destroy</text>
</g>
<!-- destroy&#45;&gt;t -->
<g id="edge4" class="edge">
<title>destroy&#45;&gt;t</title>
<path fill="none" stroke="black" d="M405.61,-71.7C405.61,-64.41 405.61,-55.73 405.61,-47.54"/>
<polygon fill="black" stroke="black" points="409.11,-47.62 405.61,-37.62 402.11,-47.62 409.11,-47.62"/>
</g>
<!-- set_contributable -->
<g id="node7" class="node">
<title>set_contributable</title>
<ellipse fill="none" stroke="black" cx="153.61" cy="-90" rx="74.52" ry="18"/>
<text text-anchor="middle" x="153.61" y="-84.58" font-family="Times New Roman,serif" font-size="14.00">set_contributable</text>
</g>
<!-- set_contributable&#45;&gt;find -->
<g id="edge5" class="edge">
<title>set_contributable&#45;&gt;find</title>
<path fill="none" stroke="black" d="M153.61,-71.7C153.61,-64.41 153.61,-55.73 153.61,-47.54"/>
<polygon fill="black" stroke="black" points="157.11,-47.62 153.61,-37.62 150.11,-47.62 157.11,-47.62"/>
</g>
<!-- list_index_definition -->
<g id="node8" class="node">
<title>list_index_definition</title>
<ellipse fill="none" stroke="black" cx="660.61" cy="-90" rx="85.49" ry="18"/>
<text text-anchor="middle" x="660.61" y="-84.58" font-family="Times New Roman,serif" font-size="14.00">list_index_definition</text>
</g>
<!-- users_list -->
<g id="node9" class="node">
<title>users_list</title>
<ellipse fill="none" stroke="black" cx="496.61" cy="-18" rx="45.57" ry="18"/>
<text text-anchor="middle" x="496.61" y="-12.57" font-family="Times New Roman,serif" font-size="14.00">users_list</text>
</g>
<!-- list_index_definition&#45;&gt;users_list -->
<g id="edge6" class="edge">
<title>list_index_definition&#45;&gt;users_list</title>
<path fill="none" stroke="black" d="M623.8,-73.29C598.07,-62.31 563.7,-47.64 537.18,-36.32"/>
<polygon fill="black" stroke="black" points="538.67,-33.15 528.1,-32.44 535.92,-39.59 538.67,-33.15"/>
</g>
<!-- search_list -->
<g id="node10" class="node">
<title>search_list</title>
<ellipse fill="none" stroke="black" cx="610.61" cy="-18" rx="50.07" ry="18"/>
<text text-anchor="middle" x="610.61" y="-12.57" font-family="Times New Roman,serif" font-size="14.00">search_list</text>
</g>
<!-- list_index_definition&#45;&gt;search_list -->
<g id="edge7" class="edge">
<title>list_index_definition&#45;&gt;search_list</title>
<path fill="none" stroke="black" d="M648.25,-71.7C642.47,-63.61 635.47,-53.81 629.08,-44.87"/>
<polygon fill="black" stroke="black" points="632.02,-42.96 623.36,-36.85 626.32,-47.03 632.02,-42.96"/>
</g>
<!-- where -->
<g id="node11" class="node">
<title>where</title>
<ellipse fill="none" stroke="black" cx="711.61" cy="-18" rx="32.6" ry="18"/>
<text text-anchor="middle" x="711.61" y="-12.57" font-family="Times New Roman,serif" font-size="14.00">where</text>
</g>
<!-- list_index_definition&#45;&gt;where -->
<g id="edge8" class="edge">
<title>list_index_definition&#45;&gt;where</title>
<path fill="none" stroke="black" d="M672.95,-72.05C679.08,-63.65 686.6,-53.32 693.37,-44.02"/>
<polygon fill="black" stroke="black" points="696.12,-46.2 699.18,-36.05 690.46,-42.07 696.12,-46.2"/>
</g>
<!-- order -->
<g id="node12" class="node">
<title>order</title>
<ellipse fill="none" stroke="black" cx="792.61" cy="-18" rx="30.61" ry="18"/>
<text text-anchor="middle" x="792.61" y="-12.57" font-family="Times New Roman,serif" font-size="14.00">order</text>
</g>
<!-- list_index_definition&#45;&gt;order -->
<g id="edge9" class="edge">
<title>list_index_definition&#45;&gt;order</title>
<path fill="none" stroke="black" d="M691.22,-72.76C711.94,-61.78 739.26,-47.29 760.32,-36.12"/>
<polygon fill="black" stroke="black" points="761.87,-39.26 769.06,-31.48 758.59,-33.08 761.87,-39.26"/>
</g>
</g>
</svg>
