<?xml version="1.0" encoding="UTF-8" standalone="no"?>
<!DOCTYPE svg PUBLIC "-//W3C//DTD SVG 1.1//EN"
 "http://www.w3.org/Graphics/SVG/1.1/DTD/svg11.dtd">
<!-- Generated by graphviz version 9.0.0 (20230911.1827)
 -->
<!-- Title: CallGraph Pages: 1 -->
<svg width="570pt" height="116pt"
 viewBox="0.00 0.00 570.04 116.00" xmlns="http://www.w3.org/2000/svg" xmlns:xlink="http://www.w3.org/1999/xlink">
<g id="graph0" class="graph" transform="scale(1 1) rotate(0) translate(4 112)">
<title>CallGraph</title>
<polygon fill="white" stroke="none" points="-4,4 -4,-112 566.04,-112 566.04,4 -4,4"/>
<!-- index -->
<g id="node1" class="node">
<title>index</title>
<ellipse fill="none" stroke="black" cx="303.04" cy="-90" rx="30.61" ry="18"/>
<text text-anchor="middle" x="303.04" y="-84.58" font-family="Times New Roman,serif" font-size="14.00">index</text>
</g>
<!-- policy_scope -->
<g id="node2" class="node">
<title>policy_scope</title>
<ellipse fill="none" stroke="black" cx="61.04" cy="-18" rx="61.04" ry="18"/>
<text text-anchor="middle" x="61.04" y="-12.57" font-family="Times New Roman,serif" font-size="14.00">policy_scope</text>
</g>
<!-- index&#45;&gt;policy_scope -->
<g id="edge1" class="edge">
<title>index&#45;&gt;policy_scope</title>
<path fill="none" stroke="black" d="M276.22,-81.24C237.32,-69.99 164.44,-48.91 114.36,-34.42"/>
<polygon fill="black" stroke="black" points="115.45,-31.09 104.87,-31.68 113.5,-37.82 115.45,-31.09"/>
</g>
<!-- latest_published -->
<g id="node3" class="node">
<title>latest_published</title>
<ellipse fill="none" stroke="black" cx="211.04" cy="-18" rx="70.52" ry="18"/>
<text text-anchor="middle" x="211.04" y="-12.57" font-family="Times New Roman,serif" font-size="14.00">latest_published</text>
</g>
<!-- index&#45;&gt;latest_published -->
<g id="edge2" class="edge">
<title>index&#45;&gt;latest_published</title>
<path fill="none" stroke="black" d="M284.87,-75.17C272.58,-65.82 256.05,-53.25 241.75,-42.37"/>
<polygon fill="black" stroke="black" points="244.02,-39.7 233.95,-36.43 239.79,-45.27 244.02,-39.7"/>
</g>
<!-- limite_notifications_by -->
<g id="node4" class="node">
<title>limite_notifications_by</title>
<ellipse fill="none" stroke="black" cx="395.04" cy="-18" rx="94.98" ry="18"/>
<text text-anchor="middle" x="395.04" y="-12.57" font-family="Times New Roman,serif" font-size="14.00">limite_notifications_by</text>
</g>
<!-- index&#45;&gt;limite_notifications_by -->
<g id="edge3" class="edge">
<title>index&#45;&gt;limite_notifications_by</title>
<path fill="none" stroke="black" d="M321.22,-75.17C333.42,-65.89 349.8,-53.42 364.03,-42.59"/>
<polygon fill="black" stroke="black" points="365.97,-45.52 371.81,-36.68 361.73,-39.95 365.97,-45.52"/>
</g>
<!-- t -->
<g id="node5" class="node">
<title>t</title>
<ellipse fill="none" stroke="black" cx="535.04" cy="-18" rx="27" ry="18"/>
<text text-anchor="middle" x="535.04" y="-12.57" font-family="Times New Roman,serif" font-size="14.00">t</text>
</g>
<!-- index&#45;&gt;t -->
<g id="edge4" class="edge">
<title>index&#45;&gt;t</title>
<path fill="none" stroke="black" d="M326.28,-78.03C331.4,-75.85 336.85,-73.71 342.04,-72 410.04,-49.6 431.39,-59.42 499.04,-36 500.6,-35.46 502.17,-34.88 503.75,-34.26"/>
<polygon fill="black" stroke="black" points="504.84,-37.6 512.65,-30.44 502.08,-31.17 504.84,-37.6"/>
</g>
<!-- ownerless -->
<g id="node6" class="node">
<title>ownerless</title>
<ellipse fill="none" stroke="black" cx="399.04" cy="-90" rx="47.57" ry="18"/>
<text text-anchor="middle" x="399.04" y="-84.58" font-family="Times New Roman,serif" font-size="14.00">ownerless</text>
</g>
</g>
</svg>
