<?xml version="1.0" encoding="UTF-8" standalone="no"?>
<!DOCTYPE svg PUBLIC "-//W3C//DTD SVG 1.1//EN"
 "http://www.w3.org/Graphics/SVG/1.1/DTD/svg11.dtd">
<!-- Generated by graphviz version 9.0.0 (20230911.1827)
 -->
<!-- Title: CallGraph Pages: 1 -->
<svg width="2422pt" height="260pt"
 viewBox="0.00 0.00 2421.66 260.00" xmlns="http://www.w3.org/2000/svg" xmlns:xlink="http://www.w3.org/1999/xlink">
<g id="graph0" class="graph" transform="scale(1 1) rotate(0) translate(4 256)">
<title>CallGraph</title>
<polygon fill="white" stroke="none" points="-4,4 -4,-256 2417.66,-256 2417.66,4 -4,4"/>
<!-- index -->
<g id="node1" class="node">
<title>index</title>
<ellipse fill="none" stroke="black" cx="51.06" cy="-234" rx="30.61" ry="18"/>
<text text-anchor="middle" x="51.06" y="-228.57" font-family="Times New Roman,serif" font-size="14.00">index</text>
</g>
<!-- redirect_to -->
<g id="node2" class="node">
<title>redirect_to</title>
<ellipse fill="none" stroke="black" cx="51.06" cy="-162" rx="51.06" ry="18"/>
<text text-anchor="middle" x="51.06" y="-156.57" font-family="Times New Roman,serif" font-size="14.00">redirect_to</text>
</g>
<!-- index&#45;&gt;redirect_to -->
<g id="edge1" class="edge">
<title>index&#45;&gt;redirect_to</title>
<path fill="none" stroke="black" d="M51.06,-215.7C51.06,-208.41 51.06,-199.73 51.06,-191.54"/>
<polygon fill="black" stroke="black" points="54.56,-191.62 51.06,-181.62 47.56,-191.62 54.56,-191.62"/>
</g>
<!-- new -->
<g id="node3" class="node">
<title>new</title>
<ellipse fill="none" stroke="black" cx="147.06" cy="-162" rx="27" ry="18"/>
<text text-anchor="middle" x="147.06" y="-156.57" font-family="Times New Roman,serif" font-size="14.00">new</text>
</g>
<!-- new&#45;&gt;new -->
<g id="edge2" class="edge">
<title>new&#45;&gt;new</title>
<path fill="none" stroke="black" d="M166.96,-174.43C179.75,-177.68 192.06,-173.53 192.06,-162 192.06,-153.98 186.11,-149.54 178.18,-148.66"/>
<polygon fill="black" stroke="black" points="178.15,-145.15 168.47,-149.45 178.72,-152.13 178.15,-145.15"/>
</g>
<!-- create -->
<g id="node4" class="node">
<title>create</title>
<ellipse fill="none" stroke="black" cx="336.06" cy="-234" rx="32.6" ry="18"/>
<text text-anchor="middle" x="336.06" y="-228.57" font-family="Times New Roman,serif" font-size="14.00">create</text>
</g>
<!-- create&#45;&gt;new -->
<g id="edge4" class="edge">
<title>create&#45;&gt;new</title>
<path fill="none" stroke="black" d="M309.39,-223.12C275.73,-210.65 217.81,-189.2 181.02,-175.58"/>
<polygon fill="black" stroke="black" points="182.35,-172.34 171.76,-172.15 179.92,-178.9 182.35,-172.34"/>
</g>
<!-- find -->
<g id="node5" class="node">
<title>find</title>
<ellipse fill="none" stroke="black" cx="824.06" cy="-162" rx="27" ry="18"/>
<text text-anchor="middle" x="824.06" y="-156.57" font-family="Times New Roman,serif" font-size="14.00">find</text>
</g>
<!-- create&#45;&gt;find -->
<g id="edge3" class="edge">
<title>create&#45;&gt;find</title>
<path fill="none" stroke="black" d="M368.47,-230.57C458.25,-223.62 708.79,-202.71 788.06,-180 789.68,-179.54 791.32,-179.01 792.96,-178.43"/>
<polygon fill="black" stroke="black" points="794.25,-181.68 802.17,-174.65 791.59,-175.21 794.25,-181.68"/>
</g>
<!-- t -->
<g id="node6" class="node">
<title>t</title>
<ellipse fill="none" stroke="black" cx="393.06" cy="-162" rx="27" ry="18"/>
<text text-anchor="middle" x="393.06" y="-156.57" font-family="Times New Roman,serif" font-size="14.00">t</text>
</g>
<!-- create&#45;&gt;t -->
<g id="edge5" class="edge">
<title>create&#45;&gt;t</title>
<path fill="none" stroke="black" d="M349,-217.12C356.24,-208.22 365.42,-196.95 373.52,-187"/>
<polygon fill="black" stroke="black" points="376.02,-189.48 379.62,-179.51 370.59,-185.06 376.02,-189.48"/>
</g>
<!-- fill_errors_hash -->
<g id="node7" class="node">
<title>fill_errors_hash</title>
<ellipse fill="none" stroke="black" cx="279.06" cy="-162" rx="68.53" ry="18"/>
<text text-anchor="middle" x="279.06" y="-156.57" font-family="Times New Roman,serif" font-size="14.00">fill_errors_hash</text>
</g>
<!-- create&#45;&gt;fill_errors_hash -->
<g id="edge6" class="edge">
<title>create&#45;&gt;fill_errors_hash</title>
<path fill="none" stroke="black" d="M323.13,-217.12C316.26,-208.68 307.65,-198.1 299.87,-188.55"/>
<polygon fill="black" stroke="black" points="302.73,-186.52 293.7,-180.97 297.3,-190.94 302.73,-186.52"/>
</g>
<!-- edit -->
<g id="node8" class="node">
<title>edit</title>
<ellipse fill="none" stroke="black" cx="1884.06" cy="-234" rx="27" ry="18"/>
<text text-anchor="middle" x="1884.06" y="-228.57" font-family="Times New Roman,serif" font-size="14.00">edit</text>
</g>
<!-- confirm_delete -->
<g id="node9" class="node">
<title>confirm_delete</title>
<ellipse fill="none" stroke="black" cx="1995.06" cy="-234" rx="66.03" ry="18"/>
<text text-anchor="middle" x="1995.06" y="-228.57" font-family="Times New Roman,serif" font-size="14.00">confirm_delete</text>
</g>
<!-- delete_directories -->
<g id="node10" class="node">
<title>delete_directories</title>
<ellipse fill="none" stroke="black" cx="824.06" cy="-234" rx="76.01" ry="18"/>
<text text-anchor="middle" x="824.06" y="-228.57" font-family="Times New Roman,serif" font-size="14.00">delete_directories</text>
</g>
<!-- delete_directories&#45;&gt;find -->
<g id="edge7" class="edge">
<title>delete_directories&#45;&gt;find</title>
<path fill="none" stroke="black" d="M824.06,-215.7C824.06,-208.41 824.06,-199.73 824.06,-191.54"/>
<polygon fill="black" stroke="black" points="827.56,-191.62 824.06,-181.62 820.56,-191.62 827.56,-191.62"/>
</g>
<!-- delete_directories&#45;&gt;t -->
<g id="edge13" class="edge">
<title>delete_directories&#45;&gt;t</title>
<path fill="none" stroke="black" d="M763.63,-222.71C749.36,-220.4 734.19,-218.03 720.06,-216 591.07,-197.48 554.23,-216.28 429.06,-180 427.45,-179.53 425.81,-179 424.17,-178.42"/>
<polygon fill="black" stroke="black" points="425.54,-175.19 414.96,-174.63 422.88,-181.67 425.54,-175.19"/>
</g>
<!-- list_selection -->
<g id="node11" class="node">
<title>list_selection</title>
<ellipse fill="none" stroke="black" cx="636.06" cy="-162" rx="58.55" ry="18"/>
<text text-anchor="middle" x="636.06" y="-156.57" font-family="Times New Roman,serif" font-size="14.00">list_selection</text>
</g>
<!-- delete_directories&#45;&gt;list_selection -->
<g id="edge8" class="edge">
<title>delete_directories&#45;&gt;list_selection</title>
<path fill="none" stroke="black" d="M784.65,-218.33C754.99,-207.28 714.22,-192.1 682.89,-180.44"/>
<polygon fill="black" stroke="black" points="684.25,-177.21 673.66,-177 681.81,-183.77 684.25,-177.21"/>
</g>
<!-- merge -->
<g id="node12" class="node">
<title>merge</title>
<ellipse fill="none" stroke="black" cx="746.06" cy="-162" rx="33.1" ry="18"/>
<text text-anchor="middle" x="746.06" y="-156.57" font-family="Times New Roman,serif" font-size="14.00">merge</text>
</g>
<!-- delete_directories&#45;&gt;merge -->
<g id="edge9" class="edge">
<title>delete_directories&#45;&gt;merge</title>
<path fill="none" stroke="black" d="M805.58,-216.41C795.27,-207.16 782.29,-195.51 771.08,-185.45"/>
<polygon fill="black" stroke="black" points="773.47,-182.89 763.69,-178.81 768.79,-188.1 773.47,-182.89"/>
</g>
<!-- where -->
<g id="node13" class="node">
<title>where</title>
<ellipse fill="none" stroke="black" cx="902.06" cy="-162" rx="32.6" ry="18"/>
<text text-anchor="middle" x="902.06" y="-156.57" font-family="Times New Roman,serif" font-size="14.00">where</text>
</g>
<!-- delete_directories&#45;&gt;where -->
<g id="edge10" class="edge">
<title>delete_directories&#45;&gt;where</title>
<path fill="none" stroke="black" d="M842.55,-216.41C852.86,-207.16 865.84,-195.51 877.05,-185.45"/>
<polygon fill="black" stroke="black" points="879.34,-188.1 884.44,-178.81 874.66,-182.89 879.34,-188.1"/>
</g>
<!-- map -->
<g id="node14" class="node">
<title>map</title>
<ellipse fill="none" stroke="black" cx="1072.06" cy="-162" rx="27" ry="18"/>
<text text-anchor="middle" x="1072.06" y="-156.57" font-family="Times New Roman,serif" font-size="14.00">map</text>
</g>
<!-- delete_directories&#45;&gt;map -->
<g id="edge11" class="edge">
<title>delete_directories&#45;&gt;map</title>
<path fill="none" stroke="black" d="M881.2,-221.9C924.39,-212.75 984.8,-198.31 1036.06,-180 1037.61,-179.45 1039.18,-178.85 1040.75,-178.22"/>
<polygon fill="black" stroke="black" points="1041.86,-181.56 1049.65,-174.38 1039.08,-175.14 1041.86,-181.56"/>
</g>
<!-- update_all -->
<g id="node15" class="node">
<title>update_all</title>
<ellipse fill="none" stroke="black" cx="1166.06" cy="-162" rx="48.57" ry="18"/>
<text text-anchor="middle" x="1166.06" y="-156.57" font-family="Times New Roman,serif" font-size="14.00">update_all</text>
</g>
<!-- delete_directories&#45;&gt;update_all -->
<g id="edge12" class="edge">
<title>delete_directories&#45;&gt;update_all</title>
<path fill="none" stroke="black" d="M886.21,-223.25C944.01,-213.75 1032.33,-198.12 1108.06,-180 1111.58,-179.16 1115.21,-178.23 1118.85,-177.27"/>
<polygon fill="black" stroke="black" points="1119.54,-180.71 1128.25,-174.67 1117.67,-173.96 1119.54,-180.71"/>
</g>
<!-- move_directories -->
<g id="node16" class="node">
<title>move_directories</title>
<ellipse fill="none" stroke="black" cx="636.06" cy="-234" rx="75.02" ry="18"/>
<text text-anchor="middle" x="636.06" y="-228.57" font-family="Times New Roman,serif" font-size="14.00">move_directories</text>
</g>
<!-- move_directories&#45;&gt;find -->
<g id="edge14" class="edge">
<title>move_directories&#45;&gt;find</title>
<path fill="none" stroke="black" d="M680.09,-219.02C710.69,-208.97 752.24,-194.66 788.06,-180 789.58,-179.38 791.13,-178.73 792.69,-178.05"/>
<polygon fill="black" stroke="black" points="793.85,-181.37 801.53,-174.07 790.97,-174.99 793.85,-181.37"/>
</g>
<!-- move_directories&#45;&gt;t -->
<g id="edge15" class="edge">
<title>move_directories&#45;&gt;t</title>
<path fill="none" stroke="black" d="M579.84,-221.65C537.71,-212.42 478.97,-197.99 429.06,-180 427.52,-179.44 425.95,-178.84 424.38,-178.21"/>
<polygon fill="black" stroke="black" points="426.05,-175.13 415.49,-174.36 423.27,-181.55 426.05,-175.13"/>
</g>
<!-- move_directories&#45;&gt;fill_errors_hash -->
<g id="edge18" class="edge">
<title>move_directories&#45;&gt;fill_errors_hash</title>
<path fill="none" stroke="black" d="M577.46,-222.34C520.94,-211.95 433.03,-195.49 357.06,-180 351.9,-178.95 346.56,-177.83 341.19,-176.7"/>
<polygon fill="black" stroke="black" points="342.2,-173.33 331.69,-174.67 340.74,-180.18 342.2,-173.33"/>
</g>
<!-- move_directories&#45;&gt;list_selection -->
<g id="edge16" class="edge">
<title>move_directories&#45;&gt;list_selection</title>
<path fill="none" stroke="black" d="M636.06,-215.7C636.06,-208.41 636.06,-199.73 636.06,-191.54"/>
<polygon fill="black" stroke="black" points="639.56,-191.62 636.06,-181.62 632.56,-191.62 639.56,-191.62"/>
</g>
<!-- move_directories&#45;&gt;merge -->
<g id="edge17" class="edge">
<title>move_directories&#45;&gt;merge</title>
<path fill="none" stroke="black" d="M661.58,-216.76C677.71,-206.5 698.64,-193.18 715.63,-182.37"/>
<polygon fill="black" stroke="black" points="717.28,-185.47 723.84,-177.14 713.52,-179.56 717.28,-185.47"/>
</g>
<!-- include -->
<g id="node17" class="node">
<title>include</title>
<ellipse fill="none" stroke="black" cx="990.06" cy="-162" rx="37.09" ry="18"/>
<text text-anchor="middle" x="990.06" y="-156.57" font-family="Times New Roman,serif" font-size="14.00">include</text>
</g>
<!-- move_directories&#45;&gt;include -->
<g id="edge19" class="edge">
<title>move_directories&#45;&gt;include</title>
<path fill="none" stroke="black" d="M696.11,-222.96C782.33,-208.5 932.17,-183.19 944.06,-180 946.47,-179.35 948.93,-178.63 951.39,-177.87"/>
<polygon fill="black" stroke="black" points="952.31,-181.25 960.67,-174.74 950.08,-174.61 952.31,-181.25"/>
</g>
<!-- modal_errors -->
<g id="node18" class="node">
<title>modal_errors</title>
<ellipse fill="none" stroke="black" cx="499.06" cy="-162" rx="60.54" ry="18"/>
<text text-anchor="middle" x="499.06" y="-156.57" font-family="Times New Roman,serif" font-size="14.00">modal_errors</text>
</g>
<!-- move_directories&#45;&gt;modal_errors -->
<g id="edge20" class="edge">
<title>move_directories&#45;&gt;modal_errors</title>
<path fill="none" stroke="black" d="M605.32,-217.29C585.52,-207.18 559.61,-193.93 538.33,-183.06"/>
<polygon fill="black" stroke="black" points="540.14,-180.06 529.65,-178.63 536.96,-186.29 540.14,-180.06"/>
</g>
<!-- show -->
<g id="node19" class="node">
<title>show</title>
<ellipse fill="none" stroke="black" cx="1116.06" cy="-234" rx="30.61" ry="18"/>
<text text-anchor="middle" x="1116.06" y="-228.57" font-family="Times New Roman,serif" font-size="14.00">show</text>
</g>
<!-- show&#45;&gt;find -->
<g id="edge21" class="edge">
<title>show&#45;&gt;find</title>
<path fill="none" stroke="black" d="M1086.29,-229.18C1037.93,-222.45 939.7,-206.63 860.06,-180 858.51,-179.48 856.93,-178.91 855.35,-178.3"/>
<polygon fill="black" stroke="black" points="857.01,-175.2 846.43,-174.52 854.27,-181.65 857.01,-175.2"/>
</g>
<!-- render_list -->
<g id="node20" class="node">
<title>render_list</title>
<ellipse fill="none" stroke="black" cx="1282.06" cy="-162" rx="49.57" ry="18"/>
<text text-anchor="middle" x="1282.06" y="-156.57" font-family="Times New Roman,serif" font-size="14.00">render_list</text>
</g>
<!-- show&#45;&gt;render_list -->
<g id="edge22" class="edge">
<title>show&#45;&gt;render_list</title>
<path fill="none" stroke="black" d="M1140.56,-222.67C1166.81,-211.6 1208.95,-193.83 1240.43,-180.56"/>
<polygon fill="black" stroke="black" points="1241.41,-183.94 1249.26,-176.83 1238.69,-177.49 1241.41,-183.94"/>
</g>
<!-- confirm_move -->
<g id="node21" class="node">
<title>confirm_move</title>
<ellipse fill="none" stroke="black" cx="2144.06" cy="-234" rx="65.04" ry="18"/>
<text text-anchor="middle" x="2144.06" y="-228.57" font-family="Times New Roman,serif" font-size="14.00">confirm_move</text>
</g>
<!-- set_root_directory -->
<g id="node22" class="node">
<title>set_root_directory</title>
<ellipse fill="none" stroke="black" cx="2307.06" cy="-234" rx="80.01" ry="18"/>
<text text-anchor="middle" x="2307.06" y="-228.57" font-family="Times New Roman,serif" font-size="14.00">set_root_directory</text>
</g>
<!-- list_show_definition -->
<g id="node23" class="node">
<title>list_show_definition</title>
<ellipse fill="none" stroke="black" cx="1754.06" cy="-234" rx="85.49" ry="18"/>
<text text-anchor="middle" x="1754.06" y="-228.57" font-family="Times New Roman,serif" font-size="14.00">list_show_definition</text>
</g>
<!-- list_show_definition&#45;&gt;include -->
<g id="edge25" class="edge">
<title>list_show_definition&#45;&gt;include</title>
<path fill="none" stroke="black" d="M1670.54,-229.77C1508.05,-223.01 1154.93,-205.81 1036.06,-180 1033.47,-179.44 1030.82,-178.76 1028.17,-178"/>
<polygon fill="black" stroke="black" points="1029.45,-174.73 1018.86,-175 1027.3,-181.4 1029.45,-174.73"/>
</g>
<!-- policy -->
<g id="node24" class="node">
<title>policy</title>
<ellipse fill="none" stroke="black" cx="2380.06" cy="-162" rx="33.6" ry="18"/>
<text text-anchor="middle" x="2380.06" y="-156.57" font-family="Times New Roman,serif" font-size="14.00">policy</text>
</g>
<!-- list_show_definition&#45;&gt;policy -->
<g id="edge23" class="edge">
<title>list_show_definition&#45;&gt;policy</title>
<path fill="none" stroke="black" d="M1815.1,-221C1826.05,-219.12 1837.37,-217.36 1848.06,-216 2064.25,-188.57 2124.63,-228.62 2337.06,-180 2339.48,-179.45 2341.94,-178.78 2344.39,-178.03"/>
<polygon fill="black" stroke="black" points="2345.26,-181.44 2353.57,-174.87 2342.98,-174.82 2345.26,-181.44"/>
</g>
<!-- tree_view_search -->
<g id="node25" class="node">
<title>tree_view_search</title>
<ellipse fill="none" stroke="black" cx="1425.06" cy="-162" rx="75.02" ry="18"/>
<text text-anchor="middle" x="1425.06" y="-156.57" font-family="Times New Roman,serif" font-size="14.00">tree_view_search</text>
</g>
<!-- list_show_definition&#45;&gt;tree_view_search -->
<g id="edge24" class="edge">
<title>list_show_definition&#45;&gt;tree_view_search</title>
<path fill="none" stroke="black" d="M1695.62,-220.57C1638.29,-208.37 1551,-189.79 1491.16,-177.06"/>
<polygon fill="black" stroke="black" points="1491.94,-173.65 1481.43,-174.99 1490.48,-180.5 1491.94,-173.65"/>
</g>
<!-- order_children_by_type -->
<g id="node26" class="node">
<title>order_children_by_type</title>
<ellipse fill="none" stroke="black" cx="2228.06" cy="-162" rx="100.46" ry="18"/>
<text text-anchor="middle" x="2228.06" y="-156.57" font-family="Times New Roman,serif" font-size="14.00">order_children_by_type</text>
</g>
<!-- list_show_definition&#45;&gt;order_children_by_type -->
<g id="edge26" class="edge">
<title>list_show_definition&#45;&gt;order_children_by_type</title>
<path fill="none" stroke="black" d="M1816.44,-221.3C1826.98,-219.44 1837.82,-217.61 1848.06,-216 1968.1,-197.18 1998.81,-197.36 2119.06,-180 2127.01,-178.85 2135.28,-177.62 2143.56,-176.37"/>
<polygon fill="black" stroke="black" points="2143.95,-179.85 2153.31,-174.89 2142.9,-172.93 2143.95,-179.85"/>
</g>
<!-- order_children_by_created_at -->
<g id="node27" class="node">
<title>order_children_by_created_at</title>
<ellipse fill="none" stroke="black" cx="1679.06" cy="-162" rx="122.92" ry="18"/>
<text text-anchor="middle" x="1679.06" y="-156.57" font-family="Times New Roman,serif" font-size="14.00">order_children_by_created_at</text>
</g>
<!-- list_show_definition&#45;&gt;order_children_by_created_at -->
<g id="edge27" class="edge">
<title>list_show_definition&#45;&gt;order_children_by_created_at</title>
<path fill="none" stroke="black" d="M1735.91,-216.05C1726.92,-207.67 1715.9,-197.38 1705.95,-188.1"/>
<polygon fill="black" stroke="black" points="1708.38,-185.57 1698.68,-181.31 1703.6,-190.69 1708.38,-185.57"/>
</g>
<!-- order_children_by_updated_at -->
<g id="node28" class="node">
<title>order_children_by_updated_at</title>
<ellipse fill="none" stroke="black" cx="1984.06" cy="-162" rx="125.91" ry="18"/>
<text text-anchor="middle" x="1984.06" y="-156.57" font-family="Times New Roman,serif" font-size="14.00">order_children_by_updated_at</text>
</g>
<!-- list_show_definition&#45;&gt;order_children_by_updated_at -->
<g id="edge28" class="edge">
<title>list_show_definition&#45;&gt;order_children_by_updated_at</title>
<path fill="none" stroke="black" d="M1801.44,-218.58C1836.15,-208.02 1883.61,-193.57 1921.44,-182.06"/>
<polygon fill="black" stroke="black" points="1922.35,-185.44 1930.9,-179.18 1920.31,-178.74 1922.35,-185.44"/>
</g>
<!-- order_children_by_title -->
<g id="node29" class="node">
<title>order_children_by_title</title>
<ellipse fill="none" stroke="black" cx="1837.06" cy="-90" rx="97.47" ry="18"/>
<text text-anchor="middle" x="1837.06" y="-84.58" font-family="Times New Roman,serif" font-size="14.00">order_children_by_title</text>
</g>
<!-- list_show_definition&#45;&gt;order_children_by_title -->
<g id="edge29" class="edge">
<title>list_show_definition&#45;&gt;order_children_by_title</title>
<path fill="none" stroke="black" d="M1777.16,-216.4C1788.83,-206.93 1802.33,-194.14 1811.06,-180 1822.51,-161.46 1829.12,-137.65 1832.81,-119.32"/>
<polygon fill="black" stroke="black" points="1836.22,-120.13 1834.56,-109.66 1829.33,-118.88 1836.22,-120.13"/>
</g>
<!-- order_children_by_title_inv -->
<g id="node30" class="node">
<title>order_children_by_title_inv</title>
<ellipse fill="none" stroke="black" cx="1544.06" cy="-90" rx="113.44" ry="18"/>
<text text-anchor="middle" x="1544.06" y="-84.58" font-family="Times New Roman,serif" font-size="14.00">order_children_by_title_inv</text>
</g>
<!-- list_show_definition&#45;&gt;order_children_by_title_inv -->
<g id="edge30" class="edge">
<title>list_show_definition&#45;&gt;order_children_by_title_inv</title>
<path fill="none" stroke="black" d="M1682.46,-223.87C1629.64,-215.53 1564.11,-201.22 1547.06,-180 1533.59,-163.23 1533.88,-138.41 1536.94,-119.23"/>
<polygon fill="black" stroke="black" points="1540.34,-120.11 1538.83,-109.63 1533.47,-118.77 1540.34,-120.11"/>
</g>
<!-- order_children_by_type&#45;&gt;order_children_by_title -->
<g id="edge31" class="edge">
<title>order_children_by_type&#45;&gt;order_children_by_title</title>
<path fill="none" stroke="black" d="M2159.06,-148.65C2091.22,-136.5 1987.76,-117.98 1916.52,-105.23"/>
<polygon fill="black" stroke="black" points="1917.33,-101.81 1906.87,-103.5 1916.09,-108.7 1917.33,-101.81"/>
</g>
<!-- is_a -->
<g id="node31" class="node">
<title>is_a</title>
<ellipse fill="none" stroke="black" cx="1837.06" cy="-18" rx="27" ry="18"/>
<text text-anchor="middle" x="1837.06" y="-12.57" font-family="Times New Roman,serif" font-size="14.00">is_a</text>
</g>
<!-- order_children_by_type&#45;&gt;is_a -->
<g id="edge32" class="edge">
<title>order_children_by_type&#45;&gt;is_a</title>
<path fill="none" stroke="black" d="M2185.1,-145.4C2106.77,-116.95 1942.24,-57.2 1871.07,-31.35"/>
<polygon fill="black" stroke="black" points="1872.5,-28.14 1861.9,-28.02 1870.11,-34.72 1872.5,-28.14"/>
</g>
<!-- order_children_by_created_at&#45;&gt;order_children_by_title -->
<g id="edge35" class="edge">
<title>order_children_by_created_at&#45;&gt;order_children_by_title</title>
<path fill="none" stroke="black" d="M1716.51,-144.41C1738.59,-134.63 1766.72,-122.17 1790.25,-111.74"/>
<polygon fill="black" stroke="black" points="1791.6,-114.97 1799.32,-107.72 1788.76,-108.57 1791.6,-114.97"/>
</g>
<!-- order_children_by_created_at&#45;&gt;is_a -->
<g id="edge36" class="edge">
<title>order_children_by_created_at&#45;&gt;is_a</title>
<path fill="none" stroke="black" d="M1685.64,-143.62C1693.77,-124.08 1709.25,-92.43 1731.06,-72 1751.36,-52.99 1779.77,-39.28 1802.07,-30.57"/>
<polygon fill="black" stroke="black" points="1803.22,-33.88 1811.37,-27.11 1800.77,-27.32 1803.22,-33.88"/>
</g>
<!-- order_children_by_updated_at&#45;&gt;order_children_by_title -->
<g id="edge37" class="edge">
<title>order_children_by_updated_at&#45;&gt;order_children_by_title</title>
<path fill="none" stroke="black" d="M1948.85,-144.23C1928.63,-134.6 1903.05,-122.42 1881.46,-112.14"/>
<polygon fill="black" stroke="black" points="1883.13,-109.06 1872.59,-107.92 1880.12,-115.38 1883.13,-109.06"/>
</g>
<!-- order_children_by_updated_at&#45;&gt;is_a -->
<g id="edge38" class="edge">
<title>order_children_by_updated_at&#45;&gt;is_a</title>
<path fill="none" stroke="black" d="M1979.81,-143.61C1974.25,-124.06 1962.83,-92.41 1943.06,-72 1923.5,-51.81 1894.63,-38.07 1871.95,-29.65"/>
<polygon fill="black" stroke="black" points="1873.41,-26.45 1862.81,-26.44 1871.09,-33.06 1873.41,-26.45"/>
</g>
<!-- order_children_by_title&#45;&gt;is_a -->
<g id="edge33" class="edge">
<title>order_children_by_title&#45;&gt;is_a</title>
<path fill="none" stroke="black" d="M1837.06,-71.7C1837.06,-64.41 1837.06,-55.73 1837.06,-47.54"/>
<polygon fill="black" stroke="black" points="1840.56,-47.62 1837.06,-37.62 1833.56,-47.62 1840.56,-47.62"/>
</g>
<!-- order_children_by_title_inv&#45;&gt;is_a -->
<g id="edge34" class="edge">
<title>order_children_by_title_inv&#45;&gt;is_a</title>
<path fill="none" stroke="black" d="M1605.13,-74.41C1664.29,-60.28 1752.01,-39.32 1800.87,-27.65"/>
<polygon fill="black" stroke="black" points="1801.45,-31.11 1810.36,-25.38 1799.82,-24.3 1801.45,-31.11"/>
</g>
</g>
</svg>
