<?xml version="1.0" encoding="UTF-8" standalone="no"?>
<!DOCTYPE svg PUBLIC "-//W3C//DTD SVG 1.1//EN"
 "http://www.w3.org/Graphics/SVG/1.1/DTD/svg11.dtd">
<!-- Generated by graphviz version 9.0.0 (20230911.1827)
 -->
<!-- Title: CallGraph Pages: 1 -->
<svg width="294pt" height="116pt"
 viewBox="0.00 0.00 293.60 116.00" xmlns="http://www.w3.org/2000/svg" xmlns:xlink="http://www.w3.org/1999/xlink">
<g id="graph0" class="graph" transform="scale(1 1) rotate(0) translate(4 112)">
<title>CallGraph</title>
<polygon fill="white" stroke="none" points="-4,4 -4,-112 289.6,-112 289.6,4 -4,4"/>
<!-- index -->
<g id="node1" class="node">
<title>index</title>
<ellipse fill="none" stroke="black" cx="137" cy="-90" rx="30.61" ry="18"/>
<text text-anchor="middle" x="137" y="-84.58" font-family="Times New Roman,serif" font-size="14.00">index</text>
</g>
<!-- find -->
<g id="node2" class="node">
<title>find</title>
<ellipse fill="none" stroke="black" cx="27" cy="-18" rx="27" ry="18"/>
<text text-anchor="middle" x="27" y="-12.57" font-family="Times New Roman,serif" font-size="14.00">find</text>
</g>
<!-- index&#45;&gt;find -->
<g id="edge1" class="edge">
<title>index&#45;&gt;find</title>
<path fill="none" stroke="black" d="M116.82,-76.16C99.61,-65.2 74.65,-49.32 55.41,-37.08"/>
<polygon fill="black" stroke="black" points="57.54,-34.28 47.22,-31.87 53.78,-40.19 57.54,-34.28"/>
</g>
<!-- shades_palette -->
<g id="node3" class="node">
<title>shades_palette</title>
<ellipse fill="none" stroke="black" cx="137" cy="-18" rx="65.04" ry="18"/>
<text text-anchor="middle" x="137" y="-12.57" font-family="Times New Roman,serif" font-size="14.00">shades_palette</text>
</g>
<!-- index&#45;&gt;shades_palette -->
<g id="edge2" class="edge">
<title>index&#45;&gt;shades_palette</title>
<path fill="none" stroke="black" d="M137,-71.7C137,-64.41 137,-55.73 137,-47.54"/>
<polygon fill="black" stroke="black" points="140.5,-47.62 137,-37.62 133.5,-47.62 140.5,-47.62"/>
</g>
<!-- where -->
<g id="node4" class="node">
<title>where</title>
<ellipse fill="none" stroke="black" cx="253" cy="-18" rx="32.6" ry="18"/>
<text text-anchor="middle" x="253" y="-12.57" font-family="Times New Roman,serif" font-size="14.00">where</text>
</g>
<!-- index&#45;&gt;where -->
<g id="edge3" class="edge">
<title>index&#45;&gt;where</title>
<path fill="none" stroke="black" d="M157.74,-76.49C175.58,-65.72 201.57,-50.03 221.9,-37.77"/>
<polygon fill="black" stroke="black" points="223.61,-40.83 230.36,-32.66 219.99,-34.83 223.61,-40.83"/>
</g>
</g>
</svg>
