<?xml version="1.0" encoding="UTF-8" standalone="no"?>
<!DOCTYPE svg PUBLIC "-//W3C//DTD SVG 1.1//EN"
 "http://www.w3.org/Graphics/SVG/1.1/DTD/svg11.dtd">
<!-- Generated by graphviz version 9.0.0 (20230911.1827)
 -->
<!-- Title: CallGraph Pages: 1 -->
<svg width="3334pt" height="260pt"
 viewBox="0.00 0.00 3333.55 260.00" xmlns="http://www.w3.org/2000/svg" xmlns:xlink="http://www.w3.org/1999/xlink">
<g id="graph0" class="graph" transform="scale(1 1) rotate(0) translate(4 256)">
<title>CallGraph</title>
<polygon fill="white" stroke="none" points="-4,4 -4,-256 3329.55,-256 3329.55,4 -4,4"/>
<!-- index -->
<g id="node1" class="node">
<title>index</title>
<ellipse fill="none" stroke="black" cx="181.04" cy="-234" rx="30.61" ry="18"/>
<text text-anchor="middle" x="181.04" y="-228.57" font-family="Times New Roman,serif" font-size="14.00">index</text>
</g>
<!-- policy_scope -->
<g id="node2" class="node">
<title>policy_scope</title>
<ellipse fill="none" stroke="black" cx="61.04" cy="-162" rx="61.04" ry="18"/>
<text text-anchor="middle" x="61.04" y="-156.57" font-family="Times New Roman,serif" font-size="14.00">policy_scope</text>
</g>
<!-- index&#45;&gt;policy_scope -->
<g id="edge1" class="edge">
<title>index&#45;&gt;policy_scope</title>
<path fill="none" stroke="black" d="M159.87,-220.65C142.6,-210.57 117.81,-196.11 97.38,-184.2"/>
<polygon fill="black" stroke="black" points="99.17,-181.19 88.77,-179.17 95.64,-187.23 99.17,-181.19"/>
</g>
<!-- includes -->
<g id="node3" class="node">
<title>includes</title>
<ellipse fill="none" stroke="black" cx="181.04" cy="-162" rx="41.08" ry="18"/>
<text text-anchor="middle" x="181.04" y="-156.57" font-family="Times New Roman,serif" font-size="14.00">includes</text>
</g>
<!-- index&#45;&gt;includes -->
<g id="edge2" class="edge">
<title>index&#45;&gt;includes</title>
<path fill="none" stroke="black" d="M181.04,-215.7C181.04,-208.41 181.04,-199.73 181.04,-191.54"/>
<polygon fill="black" stroke="black" points="184.54,-191.62 181.04,-181.62 177.54,-191.62 184.54,-191.62"/>
</g>
<!-- event_hashed -->
<g id="node4" class="node">
<title>event_hashed</title>
<ellipse fill="none" stroke="black" cx="301.04" cy="-162" rx="61.04" ry="18"/>
<text text-anchor="middle" x="301.04" y="-156.57" font-family="Times New Roman,serif" font-size="14.00">event_hashed</text>
</g>
<!-- index&#45;&gt;event_hashed -->
<g id="edge3" class="edge">
<title>index&#45;&gt;event_hashed</title>
<path fill="none" stroke="black" d="M202.22,-220.65C219.49,-210.57 244.28,-196.11 264.7,-184.2"/>
<polygon fill="black" stroke="black" points="266.45,-187.23 273.32,-179.17 262.92,-181.19 266.45,-187.23"/>
</g>
<!-- new -->
<g id="node5" class="node">
<title>new</title>
<ellipse fill="none" stroke="black" cx="1008.04" cy="-90" rx="27" ry="18"/>
<text text-anchor="middle" x="1008.04" y="-84.58" font-family="Times New Roman,serif" font-size="14.00">new</text>
</g>
<!-- possible_responsibilities -->
<g id="node6" class="node">
<title>possible_responsibilities</title>
<ellipse fill="none" stroke="black" cx="980.04" cy="-18" rx="101.46" ry="18"/>
<text text-anchor="middle" x="980.04" y="-12.57" font-family="Times New Roman,serif" font-size="14.00">possible_responsibilities</text>
</g>
<!-- new&#45;&gt;possible_responsibilities -->
<g id="edge4" class="edge">
<title>new&#45;&gt;possible_responsibilities</title>
<path fill="none" stroke="black" d="M1001.41,-72.41C998.36,-64.79 994.66,-55.55 991.21,-46.9"/>
<polygon fill="black" stroke="black" points="994.55,-45.84 987.58,-37.85 988.05,-48.44 994.55,-45.84"/>
</g>
<!-- create -->
<g id="node7" class="node">
<title>create</title>
<ellipse fill="none" stroke="black" cx="1339.04" cy="-162" rx="32.6" ry="18"/>
<text text-anchor="middle" x="1339.04" y="-156.57" font-family="Times New Roman,serif" font-size="14.00">create</text>
</g>
<!-- create&#45;&gt;new -->
<g id="edge5" class="edge">
<title>create&#45;&gt;new</title>
<path fill="none" stroke="black" d="M1306.94,-158.03C1252.03,-152.33 1136.98,-137.71 1044.04,-108 1042.44,-107.49 1040.81,-106.92 1039.19,-106.31"/>
<polygon fill="black" stroke="black" points="1040.58,-103.09 1030,-102.43 1037.86,-109.54 1040.58,-103.09"/>
</g>
<!-- merge -->
<g id="node8" class="node">
<title>merge</title>
<ellipse fill="none" stroke="black" cx="559.04" cy="-90" rx="33.1" ry="18"/>
<text text-anchor="middle" x="559.04" y="-84.58" font-family="Times New Roman,serif" font-size="14.00">merge</text>
</g>
<!-- create&#45;&gt;merge -->
<g id="edge6" class="edge">
<title>create&#45;&gt;merge</title>
<path fill="none" stroke="black" d="M1306.67,-159.27C1173.34,-152.08 670.41,-124.11 601.04,-108 598.77,-107.47 596.46,-106.84 594.15,-106.13"/>
<polygon fill="black" stroke="black" points="595.52,-102.9 584.93,-102.89 593.2,-109.51 595.52,-102.9"/>
</g>
<!-- process_state -->
<g id="node9" class="node">
<title>process_state</title>
<ellipse fill="none" stroke="black" cx="1415.04" cy="-90" rx="62.04" ry="18"/>
<text text-anchor="middle" x="1415.04" y="-84.58" font-family="Times New Roman,serif" font-size="14.00">process_state</text>
</g>
<!-- create&#45;&gt;process_state -->
<g id="edge7" class="edge">
<title>create&#45;&gt;process_state</title>
<path fill="none" stroke="black" d="M1355.16,-146.15C1364.95,-137.14 1377.68,-125.41 1388.89,-115.09"/>
<polygon fill="black" stroke="black" points="1390.99,-117.91 1395.97,-108.56 1386.25,-112.76 1390.99,-117.91"/>
</g>
<!-- create_responsibilities -->
<g id="node10" class="node">
<title>create_responsibilities</title>
<ellipse fill="none" stroke="black" cx="1588.04" cy="-90" rx="92.48" ry="18"/>
<text text-anchor="middle" x="1588.04" y="-84.58" font-family="Times New Roman,serif" font-size="14.00">create_responsibilities</text>
</g>
<!-- create&#45;&gt;create_responsibilities -->
<g id="edge8" class="edge">
<title>create&#45;&gt;create_responsibilities</title>
<path fill="none" stroke="black" d="M1367.61,-152.97C1406.05,-142.16 1475.45,-122.65 1526.14,-108.4"/>
<polygon fill="black" stroke="black" points="1526.84,-111.84 1535.52,-105.77 1524.94,-105.1 1526.84,-111.84"/>
</g>
<!-- process_fieldables -->
<g id="node11" class="node">
<title>process_fieldables</title>
<ellipse fill="none" stroke="black" cx="2206.04" cy="-90" rx="80.01" ry="18"/>
<text text-anchor="middle" x="2206.04" y="-84.58" font-family="Times New Roman,serif" font-size="14.00">process_fieldables</text>
</g>
<!-- create&#45;&gt;process_fieldables -->
<g id="edge9" class="edge">
<title>create&#45;&gt;process_fieldables</title>
<path fill="none" stroke="black" d="M1371.79,-160.18C1479.1,-157.21 1829.71,-145.09 2117.04,-108 2123.8,-107.13 2130.82,-106.06 2137.82,-104.9"/>
<polygon fill="black" stroke="black" points="2138.01,-108.42 2147.26,-103.26 2136.81,-101.52 2138.01,-108.42"/>
</g>
<!-- new_internal_ref -->
<g id="node12" class="node">
<title>new_internal_ref</title>
<ellipse fill="none" stroke="black" cx="1263.04" cy="-90" rx="72.02" ry="18"/>
<text text-anchor="middle" x="1263.04" y="-84.58" font-family="Times New Roman,serif" font-size="14.00">new_internal_ref</text>
</g>
<!-- create&#45;&gt;new_internal_ref -->
<g id="edge10" class="edge">
<title>create&#45;&gt;new_internal_ref</title>
<path fill="none" stroke="black" d="M1322.93,-146.15C1313.2,-137.2 1300.58,-125.58 1289.44,-115.31"/>
<polygon fill="black" stroke="black" points="1292.11,-113.01 1282.39,-108.81 1287.37,-118.16 1292.11,-113.01"/>
</g>
<!-- save_and_render -->
<g id="node13" class="node">
<title>save_and_render</title>
<ellipse fill="none" stroke="black" cx="2034.04" cy="-90" rx="74.02" ry="18"/>
<text text-anchor="middle" x="2034.04" y="-84.58" font-family="Times New Roman,serif" font-size="14.00">save_and_render</text>
</g>
<!-- create&#45;&gt;save_and_render -->
<g id="edge11" class="edge">
<title>create&#45;&gt;save_and_render</title>
<path fill="none" stroke="black" d="M1371.71,-159.5C1463.42,-155.01 1730.99,-139.95 1951.04,-108 1957.05,-107.13 1963.27,-106.1 1969.49,-104.98"/>
<polygon fill="black" stroke="black" points="1969.96,-108.45 1979.14,-103.17 1968.66,-101.57 1969.96,-108.45"/>
</g>
<!-- create_notice -->
<g id="node14" class="node">
<title>create_notice</title>
<ellipse fill="none" stroke="black" cx="1113.04" cy="-90" rx="60.05" ry="18"/>
<text text-anchor="middle" x="1113.04" y="-84.58" font-family="Times New Roman,serif" font-size="14.00">create_notice</text>
</g>
<!-- create&#45;&gt;create_notice -->
<g id="edge12" class="edge">
<title>create&#45;&gt;create_notice</title>
<path fill="none" stroke="black" d="M1311.33,-152.42C1274.85,-141.12 1210.03,-121.04 1164.45,-106.92"/>
<polygon fill="black" stroke="black" points="1165.63,-103.62 1155.04,-104.01 1163.56,-110.31 1165.63,-103.62"/>
</g>
<!-- show -->
<g id="node15" class="node">
<title>show</title>
<ellipse fill="none" stroke="black" cx="917.04" cy="-162" rx="30.61" ry="18"/>
<text text-anchor="middle" x="917.04" y="-156.57" font-family="Times New Roman,serif" font-size="14.00">show</text>
</g>
<!-- show&#45;&gt;possible_responsibilities -->
<g id="edge16" class="edge">
<title>show&#45;&gt;possible_responsibilities</title>
<path fill="none" stroke="black" d="M924.52,-144.15C935.21,-120.05 955,-75.45 967.84,-46.51"/>
<polygon fill="black" stroke="black" points="970.91,-48.21 971.77,-37.65 964.51,-45.37 970.91,-48.21"/>
</g>
<!-- find -->
<g id="node16" class="node">
<title>find</title>
<ellipse fill="none" stroke="black" cx="2855.04" cy="-90" rx="27" ry="18"/>
<text text-anchor="middle" x="2855.04" y="-84.58" font-family="Times New Roman,serif" font-size="14.00">find</text>
</g>
<!-- show&#45;&gt;find -->
<g id="edge13" class="edge">
<title>show&#45;&gt;find</title>
<path fill="none" stroke="black" d="M947.57,-159.42C1012.09,-156.12 1167.02,-148.45 1297.04,-144 1466.1,-138.22 2654.43,-146.96 2819.04,-108 2820.81,-107.58 2822.59,-107.07 2824.37,-106.49"/>
<polygon fill="black" stroke="black" points="2825.62,-109.76 2833.62,-102.81 2823.03,-103.26 2825.62,-109.76"/>
</g>
<!-- authorize -->
<g id="node17" class="node">
<title>authorize</title>
<ellipse fill="none" stroke="black" cx="881.04" cy="-90" rx="44.08" ry="18"/>
<text text-anchor="middle" x="881.04" y="-84.58" font-family="Times New Roman,serif" font-size="14.00">authorize</text>
</g>
<!-- show&#45;&gt;authorize -->
<g id="edge14" class="edge">
<title>show&#45;&gt;authorize</title>
<path fill="none" stroke="black" d="M908.51,-144.41C904.45,-136.51 899.48,-126.85 894.9,-117.94"/>
<polygon fill="black" stroke="black" points="898.14,-116.59 890.46,-109.3 891.92,-119.8 898.14,-116.59"/>
</g>
<!-- fields_entity -->
<g id="node18" class="node">
<title>fields_entity</title>
<ellipse fill="none" stroke="black" cx="763.04" cy="-90" rx="55.55" ry="18"/>
<text text-anchor="middle" x="763.04" y="-84.58" font-family="Times New Roman,serif" font-size="14.00">fields_entity</text>
</g>
<!-- show&#45;&gt;fields_entity -->
<g id="edge15" class="edge">
<title>show&#45;&gt;fields_entity</title>
<path fill="none" stroke="black" d="M893.32,-150.22C869.75,-139.5 833.13,-122.86 804.71,-109.94"/>
<polygon fill="black" stroke="black" points="806.19,-106.77 795.64,-105.81 803.29,-113.14 806.19,-106.77"/>
</g>
<!-- update -->
<g id="node19" class="node">
<title>update</title>
<ellipse fill="none" stroke="black" cx="2395.04" cy="-162" rx="35.6" ry="18"/>
<text text-anchor="middle" x="2395.04" y="-156.57" font-family="Times New Roman,serif" font-size="14.00">update</text>
</g>
<!-- update&#45;&gt;process_fieldables -->
<g id="edge19" class="edge">
<title>update&#45;&gt;process_fieldables</title>
<path fill="none" stroke="black" d="M2366.75,-150.52C2337.82,-139.81 2292.25,-122.93 2257.02,-109.88"/>
<polygon fill="black" stroke="black" points="2258.45,-106.68 2247.86,-106.49 2256.02,-113.24 2258.45,-106.68"/>
</g>
<!-- update&#45;&gt;save_and_render -->
<g id="edge20" class="edge">
<title>update&#45;&gt;save_and_render</title>
<path fill="none" stroke="black" d="M2362.06,-154.86C2309.98,-145.14 2205.49,-125.49 2117.04,-108 2111.5,-106.9 2105.76,-105.76 2100,-104.59"/>
<polygon fill="black" stroke="black" points="2100.92,-101.21 2090.42,-102.65 2099.53,-108.07 2100.92,-101.21"/>
</g>
<!-- update&#45;&gt;find -->
<g id="edge17" class="edge">
<title>update&#45;&gt;find</title>
<path fill="none" stroke="black" d="M2430.71,-160.32C2504.61,-158.11 2679.24,-148.62 2819.04,-108 2820.66,-107.53 2822.3,-107 2823.93,-106.41"/>
<polygon fill="black" stroke="black" points="2825.23,-109.66 2833.14,-102.62 2822.56,-103.19 2825.23,-109.66"/>
</g>
<!-- assign_attributes -->
<g id="node20" class="node">
<title>assign_attributes</title>
<ellipse fill="none" stroke="black" cx="2737.04" cy="-90" rx="72.52" ry="18"/>
<text text-anchor="middle" x="2737.04" y="-84.58" font-family="Times New Roman,serif" font-size="14.00">assign_attributes</text>
</g>
<!-- update&#45;&gt;assign_attributes -->
<g id="edge18" class="edge">
<title>update&#45;&gt;assign_attributes</title>
<path fill="none" stroke="black" d="M2427.89,-154.34C2477.22,-144.33 2573.37,-124.79 2655.04,-108 2660.51,-106.88 2666.18,-105.71 2671.87,-104.53"/>
<polygon fill="black" stroke="black" points="2672.23,-108.03 2681.31,-102.58 2670.81,-101.18 2672.23,-108.03"/>
</g>
<!-- log_operation -->
<g id="node21" class="node">
<title>log_operation</title>
<ellipse fill="none" stroke="black" cx="2584.04" cy="-90" rx="62.04" ry="18"/>
<text text-anchor="middle" x="2584.04" y="-84.58" font-family="Times New Roman,serif" font-size="14.00">log_operation</text>
</g>
<!-- update&#45;&gt;log_operation -->
<g id="edge21" class="edge">
<title>update&#45;&gt;log_operation</title>
<path fill="none" stroke="black" d="M2423.34,-150.52C2453.11,-139.49 2500.5,-121.94 2536.11,-108.75"/>
<polygon fill="black" stroke="black" points="2537.18,-112.09 2545.34,-105.34 2534.74,-105.53 2537.18,-112.09"/>
</g>
<!-- update_responsibilities -->
<g id="node22" class="node">
<title>update_responsibilities</title>
<ellipse fill="none" stroke="black" cx="1927.04" cy="-162" rx="95.47" ry="18"/>
<text text-anchor="middle" x="1927.04" y="-156.57" font-family="Times New Roman,serif" font-size="14.00">update_responsibilities</text>
</g>
<!-- update_responsibilities&#45;&gt;save_and_render -->
<g id="edge25" class="edge">
<title>update_responsibilities&#45;&gt;save_and_render</title>
<path fill="none" stroke="black" d="M1952.67,-144.23C1966.67,-135.08 1984.2,-123.61 1999.4,-113.66"/>
<polygon fill="black" stroke="black" points="2001.27,-116.62 2007.73,-108.22 1997.44,-110.76 2001.27,-116.62"/>
</g>
<!-- update_responsibilities&#45;&gt;authorize -->
<g id="edge23" class="edge">
<title>update_responsibilities&#45;&gt;authorize</title>
<path fill="none" stroke="black" d="M1831.8,-159.78C1659.61,-156.68 1285.27,-145.79 972.04,-108 958.46,-106.36 943.84,-103.93 930.38,-101.42"/>
<polygon fill="black" stroke="black" points="931.36,-98.04 920.88,-99.59 930.04,-104.92 931.36,-98.04"/>
</g>
<!-- update_responsibilities&#45;&gt;log_operation -->
<g id="edge26" class="edge">
<title>update_responsibilities&#45;&gt;log_operation</title>
<path fill="none" stroke="black" d="M2018.91,-156.81C2134.73,-150.59 2339.66,-136.44 2513.04,-108 2517.96,-107.19 2523.04,-106.23 2528.12,-105.19"/>
<polygon fill="black" stroke="black" points="2528.67,-108.65 2537.69,-103.1 2527.18,-101.81 2528.67,-108.65"/>
</g>
<!-- find_by -->
<g id="node23" class="node">
<title>find_by</title>
<ellipse fill="none" stroke="black" cx="650.04" cy="-90" rx="39.59" ry="18"/>
<text text-anchor="middle" x="650.04" y="-84.58" font-family="Times New Roman,serif" font-size="14.00">find_by</text>
</g>
<!-- update_responsibilities&#45;&gt;find_by -->
<g id="edge22" class="edge">
<title>update_responsibilities&#45;&gt;find_by</title>
<path fill="none" stroke="black" d="M1834.06,-157.75C1557.13,-147.95 753.5,-118.77 698.04,-108 695.27,-107.46 692.44,-106.79 689.62,-106.04"/>
<polygon fill="black" stroke="black" points="690.88,-102.76 680.3,-103.2 688.84,-109.46 690.88,-102.76"/>
</g>
<!-- process_responsibilities -->
<g id="node24" class="node">
<title>process_responsibilities</title>
<ellipse fill="none" stroke="black" cx="2404.04" cy="-90" rx="99.97" ry="18"/>
<text text-anchor="middle" x="2404.04" y="-84.58" font-family="Times New Roman,serif" font-size="14.00">process_responsibilities</text>
</g>
<!-- update_responsibilities&#45;&gt;process_responsibilities -->
<g id="edge24" class="edge">
<title>update_responsibilities&#45;&gt;process_responsibilities</title>
<path fill="none" stroke="black" d="M2001.79,-150.5C2076.17,-139.98 2193.55,-123.22 2295.04,-108 2302.92,-106.82 2311.12,-105.57 2319.32,-104.31"/>
<polygon fill="black" stroke="black" points="2319.63,-107.81 2328.98,-102.82 2318.57,-100.89 2319.63,-107.81"/>
</g>
<!-- notify_update_responsibilities -->
<g id="node25" class="node">
<title>notify_update_responsibilities</title>
<ellipse fill="none" stroke="black" cx="1820.04" cy="-90" rx="121.92" ry="18"/>
<text text-anchor="middle" x="1820.04" y="-84.58" font-family="Times New Roman,serif" font-size="14.00">notify_update_responsibilities</text>
</g>
<!-- update_responsibilities&#45;&gt;notify_update_responsibilities -->
<g id="edge27" class="edge">
<title>update_responsibilities&#45;&gt;notify_update_responsibilities</title>
<path fill="none" stroke="black" d="M1901.41,-144.23C1887.62,-135.21 1870.39,-123.94 1855.35,-114.1"/>
<polygon fill="black" stroke="black" points="1857.39,-111.25 1847.1,-108.7 1853.55,-117.1 1857.39,-111.25"/>
</g>
<!-- update_workflow -->
<g id="node26" class="node">
<title>update_workflow</title>
<ellipse fill="none" stroke="black" cx="456.04" cy="-162" rx="76.01" ry="18"/>
<text text-anchor="middle" x="456.04" y="-156.57" font-family="Times New Roman,serif" font-size="14.00">update_workflow</text>
</g>
<!-- update_workflow&#45;&gt;merge -->
<g id="edge34" class="edge">
<title>update_workflow&#45;&gt;merge</title>
<path fill="none" stroke="black" d="M480.19,-144.59C494.96,-134.55 513.97,-121.63 529.62,-111"/>
<polygon fill="black" stroke="black" points="531.3,-114.09 537.61,-105.57 527.37,-108.3 531.3,-114.09"/>
</g>
<!-- update_workflow&#45;&gt;authorize -->
<g id="edge30" class="edge">
<title>update_workflow&#45;&gt;authorize</title>
<path fill="none" stroke="black" d="M525.93,-154.6C601.19,-146.89 724.09,-131.9 828.04,-108 831.03,-107.31 834.09,-106.54 837.16,-105.7"/>
<polygon fill="black" stroke="black" points="838.13,-109.06 846.75,-102.91 836.17,-102.34 838.13,-109.06"/>
</g>
<!-- update_workflow&#45;&gt;find_by -->
<g id="edge28" class="edge">
<title>update_workflow&#45;&gt;find_by</title>
<path fill="none" stroke="black" d="M496.24,-146.5C529.25,-134.59 575.8,-117.79 609.02,-105.8"/>
<polygon fill="black" stroke="black" points="610.1,-109.13 618.32,-102.45 607.72,-102.55 610.1,-109.13"/>
</g>
<!-- find_errors -->
<g id="node27" class="node">
<title>find_errors</title>
<ellipse fill="none" stroke="black" cx="456.04" cy="-90" rx="52.06" ry="18"/>
<text text-anchor="middle" x="456.04" y="-84.58" font-family="Times New Roman,serif" font-size="14.00">find_errors</text>
</g>
<!-- update_workflow&#45;&gt;find_errors -->
<g id="edge29" class="edge">
<title>update_workflow&#45;&gt;find_errors</title>
<path fill="none" stroke="black" d="M456.04,-143.7C456.04,-136.41 456.04,-127.73 456.04,-119.54"/>
<polygon fill="black" stroke="black" points="459.54,-119.62 456.04,-109.62 452.54,-119.62 459.54,-119.62"/>
</g>
<!-- send -->
<g id="node28" class="node">
<title>send</title>
<ellipse fill="none" stroke="black" cx="32.04" cy="-90" rx="28.11" ry="18"/>
<text text-anchor="middle" x="32.04" y="-84.58" font-family="Times New Roman,serif" font-size="14.00">send</text>
</g>
<!-- update_workflow&#45;&gt;send -->
<g id="edge31" class="edge">
<title>update_workflow&#45;&gt;send</title>
<path fill="none" stroke="black" d="M400.83,-149.3C390.94,-147.39 380.7,-145.54 371.04,-144 237.56,-122.73 199.15,-144.66 69.04,-108 67.3,-107.51 65.54,-106.95 63.78,-106.33"/>
<polygon fill="black" stroke="black" points="65.12,-103.1 54.54,-102.62 62.51,-109.6 65.12,-103.1"/>
</g>
<!-- transition_notice -->
<g id="node29" class="node">
<title>transition_notice</title>
<ellipse fill="none" stroke="black" cx="150.04" cy="-90" rx="72.02" ry="18"/>
<text text-anchor="middle" x="150.04" y="-84.58" font-family="Times New Roman,serif" font-size="14.00">transition_notice</text>
</g>
<!-- update_workflow&#45;&gt;transition_notice -->
<g id="edge32" class="edge">
<title>update_workflow&#45;&gt;transition_notice</title>
<path fill="none" stroke="black" d="M402.74,-148.81C349.96,-136.73 269.13,-118.24 213.16,-105.44"/>
<polygon fill="black" stroke="black" points="213.97,-102.03 203.44,-103.22 212.41,-108.86 213.97,-102.03"/>
</g>
<!-- workflow_props -->
<g id="node30" class="node">
<title>workflow_props</title>
<ellipse fill="none" stroke="black" cx="313.04" cy="-90" rx="73.02" ry="18"/>
<text text-anchor="middle" x="313.04" y="-84.58" font-family="Times New Roman,serif" font-size="14.00">workflow_props</text>
</g>
<!-- update_workflow&#45;&gt;workflow_props -->
<g id="edge33" class="edge">
<title>update_workflow&#45;&gt;workflow_props</title>
<path fill="none" stroke="black" d="M423.95,-145.29C403.62,-135.34 377.11,-122.36 355.1,-111.59"/>
<polygon fill="black" stroke="black" points="356.91,-108.58 346.39,-107.32 353.83,-114.86 356.91,-108.58"/>
</g>
<!-- destroy -->
<g id="node31" class="node">
<title>destroy</title>
<ellipse fill="none" stroke="black" cx="2975.04" cy="-162" rx="38.59" ry="18"/>
<text text-anchor="middle" x="2975.04" y="-156.57" font-family="Times New Roman,serif" font-size="14.00">destroy</text>
</g>
<!-- destroy&#45;&gt;find -->
<g id="edge35" class="edge">
<title>destroy&#45;&gt;find</title>
<path fill="none" stroke="black" d="M2951.62,-147.34C2932.48,-136.17 2905.32,-120.33 2884.67,-108.28"/>
<polygon fill="black" stroke="black" points="2886.54,-105.32 2876.14,-103.3 2883.01,-111.37 2886.54,-105.32"/>
</g>
<!-- log_workflow -->
<g id="node32" class="node">
<title>log_workflow</title>
<ellipse fill="none" stroke="black" cx="3130.04" cy="-90" rx="62.54" ry="18"/>
<text text-anchor="middle" x="3130.04" y="-84.58" font-family="Times New Roman,serif" font-size="14.00">log_workflow</text>
</g>
<!-- destroy&#45;&gt;log_workflow -->
<g id="edge36" class="edge">
<title>destroy&#45;&gt;log_workflow</title>
<path fill="none" stroke="black" d="M3002.04,-148.81C3025.47,-138.23 3059.81,-122.72 3087.03,-110.43"/>
<polygon fill="black" stroke="black" points="3088.39,-113.65 3096.07,-106.35 3085.51,-107.27 3088.39,-113.65"/>
</g>
<!-- field_value_value -->
<g id="node33" class="node">
<title>field_value_value</title>
<ellipse fill="none" stroke="black" cx="2975.04" cy="-90" rx="74.52" ry="18"/>
<text text-anchor="middle" x="2975.04" y="-84.58" font-family="Times New Roman,serif" font-size="14.00">field_value_value</text>
</g>
<!-- destroy&#45;&gt;field_value_value -->
<g id="edge37" class="edge">
<title>destroy&#45;&gt;field_value_value</title>
<path fill="none" stroke="black" d="M2975.04,-143.7C2975.04,-136.41 2975.04,-127.73 2975.04,-119.54"/>
<polygon fill="black" stroke="black" points="2978.54,-119.62 2975.04,-109.62 2971.54,-119.62 2978.54,-119.62"/>
</g>
<!-- event_params -->
<g id="node34" class="node">
<title>event_params</title>
<ellipse fill="none" stroke="black" cx="3076.04" cy="-234" rx="62.04" ry="18"/>
<text text-anchor="middle" x="3076.04" y="-228.57" font-family="Times New Roman,serif" font-size="14.00">event_params</text>
</g>
<!-- require -->
<g id="node35" class="node">
<title>require</title>
<ellipse fill="none" stroke="black" cx="3068.04" cy="-162" rx="36.09" ry="18"/>
<text text-anchor="middle" x="3068.04" y="-156.57" font-family="Times New Roman,serif" font-size="14.00">require</text>
</g>
<!-- event_params&#45;&gt;require -->
<g id="edge38" class="edge">
<title>event_params&#45;&gt;require</title>
<path fill="none" stroke="black" d="M3074.07,-215.7C3073.23,-208.41 3072.24,-199.73 3071.31,-191.54"/>
<polygon fill="black" stroke="black" points="3074.78,-191.15 3070.17,-181.61 3067.83,-191.94 3074.78,-191.15"/>
</g>
<!-- permit -->
<g id="node36" class="node">
<title>permit</title>
<ellipse fill="none" stroke="black" cx="3156.04" cy="-162" rx="34.1" ry="18"/>
<text text-anchor="middle" x="3156.04" y="-156.57" font-family="Times New Roman,serif" font-size="14.00">permit</text>
</g>
<!-- event_params&#45;&gt;permit -->
<g id="edge39" class="edge">
<title>event_params&#45;&gt;permit</title>
<path fill="none" stroke="black" d="M3095,-216.41C3105.61,-207.13 3118.97,-195.44 3130.49,-185.36"/>
<polygon fill="black" stroke="black" points="3132.5,-188.25 3137.72,-179.03 3127.89,-182.99 3132.5,-188.25"/>
</g>
<!-- validator_response -->
<g id="node37" class="node">
<title>validator_response</title>
<ellipse fill="none" stroke="black" cx="1583.04" cy="-234" rx="81" ry="18"/>
<text text-anchor="middle" x="1583.04" y="-228.57" font-family="Times New Roman,serif" font-size="14.00">validator_response</text>
</g>
<!-- validator_response&#45;&gt;update -->
<g id="edge41" class="edge">
<title>validator_response&#45;&gt;update</title>
<path fill="none" stroke="black" d="M1657.62,-226.57C1822.57,-212.35 2214.39,-178.57 2348.83,-166.98"/>
<polygon fill="black" stroke="black" points="2348.75,-170.5 2358.41,-166.16 2348.15,-163.53 2348.75,-170.5"/>
</g>
<!-- validator_response&#45;&gt;find_by -->
<g id="edge40" class="edge">
<title>validator_response&#45;&gt;find_by</title>
<path fill="none" stroke="black" d="M1503.62,-230.02C1345.04,-223.58 994.33,-206.76 877.04,-180 806.89,-164 729.82,-130.01 685.94,-108.97"/>
<polygon fill="black" stroke="black" points="687.68,-105.92 677.15,-104.71 684.63,-112.22 687.68,-105.92"/>
</g>
<!-- comment_required -->
<g id="node38" class="node">
<title>comment_required</title>
<ellipse fill="none" stroke="black" cx="3245.04" cy="-234" rx="80.5" ry="18"/>
<text text-anchor="middle" x="3245.04" y="-228.57" font-family="Times New Roman,serif" font-size="14.00">comment_required</text>
</g>
<!-- include -->
<g id="node39" class="node">
<title>include</title>
<ellipse fill="none" stroke="black" cx="3245.04" cy="-162" rx="37.09" ry="18"/>
<text text-anchor="middle" x="3245.04" y="-156.57" font-family="Times New Roman,serif" font-size="14.00">include</text>
</g>
<!-- comment_required&#45;&gt;include -->
<g id="edge42" class="edge">
<title>comment_required&#45;&gt;include</title>
<path fill="none" stroke="black" d="M3245.04,-215.7C3245.04,-208.41 3245.04,-199.73 3245.04,-191.54"/>
<polygon fill="black" stroke="black" points="3248.54,-191.62 3245.04,-181.62 3241.54,-191.62 3248.54,-191.62"/>
</g>
</g>
</svg>
