<?xml version="1.0" encoding="UTF-8" standalone="no"?>
<!DOCTYPE svg PUBLIC "-//W3C//DTD SVG 1.1//EN"
 "http://www.w3.org/Graphics/SVG/1.1/DTD/svg11.dtd">
<!-- Generated by graphviz version 9.0.0 (20230911.1827)
 -->
<!-- Title: CallGraph Pages: 1 -->
<svg width="649pt" height="116pt"
 viewBox="0.00 0.00 649.11 116.00" xmlns="http://www.w3.org/2000/svg" xmlns:xlink="http://www.w3.org/1999/xlink">
<g id="graph0" class="graph" transform="scale(1 1) rotate(0) translate(4 112)">
<title>CallGraph</title>
<polygon fill="white" stroke="none" points="-4,4 -4,-112 645.11,-112 645.11,4 -4,4"/>
<!-- new -->
<g id="node1" class="node">
<title>new</title>
<ellipse fill="none" stroke="black" cx="234.04" cy="-90" rx="27" ry="18"/>
<text text-anchor="middle" x="234.04" y="-84.58" font-family="Times New Roman,serif" font-size="14.00">new</text>
</g>
<!-- find -->
<g id="node2" class="node">
<title>find</title>
<ellipse fill="none" stroke="black" cx="409.04" cy="-18" rx="27" ry="18"/>
<text text-anchor="middle" x="409.04" y="-12.57" font-family="Times New Roman,serif" font-size="14.00">find</text>
</g>
<!-- new&#45;&gt;find -->
<g id="edge1" class="edge">
<title>new&#45;&gt;find</title>
<path fill="none" stroke="black" d="M257.37,-80.72C285.17,-70.72 332.88,-53.11 373.04,-36 374.55,-35.36 376.09,-34.69 377.64,-34"/>
<polygon fill="black" stroke="black" points="378.82,-37.31 386.46,-29.97 375.91,-30.94 378.82,-37.31"/>
</g>
<!-- shades_palette -->
<g id="node3" class="node">
<title>shades_palette</title>
<ellipse fill="none" stroke="black" cx="65.04" cy="-18" rx="65.04" ry="18"/>
<text text-anchor="middle" x="65.04" y="-12.57" font-family="Times New Roman,serif" font-size="14.00">shades_palette</text>
</g>
<!-- new&#45;&gt;shades_palette -->
<g id="edge2" class="edge">
<title>new&#45;&gt;shades_palette</title>
<path fill="none" stroke="black" d="M211.59,-79.7C185.91,-69.07 143.18,-51.37 110.47,-37.82"/>
<polygon fill="black" stroke="black" points="112.21,-34.75 101.63,-34.16 109.53,-41.22 112.21,-34.75"/>
</g>
<!-- map -->
<g id="node4" class="node">
<title>map</title>
<ellipse fill="none" stroke="black" cx="175.04" cy="-18" rx="27" ry="18"/>
<text text-anchor="middle" x="175.04" y="-12.57" font-family="Times New Roman,serif" font-size="14.00">map</text>
</g>
<!-- new&#45;&gt;map -->
<g id="edge3" class="edge">
<title>new&#45;&gt;map</title>
<path fill="none" stroke="black" d="M221.23,-73.81C213.58,-64.73 203.69,-53 195.02,-42.72"/>
<polygon fill="black" stroke="black" points="197.91,-40.71 188.79,-35.32 192.56,-45.22 197.91,-40.71"/>
</g>
<!-- render_to_string -->
<g id="node5" class="node">
<title>render_to_string</title>
<ellipse fill="none" stroke="black" cx="292.04" cy="-18" rx="72.02" ry="18"/>
<text text-anchor="middle" x="292.04" y="-12.57" font-family="Times New Roman,serif" font-size="14.00">render_to_string</text>
</g>
<!-- new&#45;&gt;render_to_string -->
<g id="edge4" class="edge">
<title>new&#45;&gt;render_to_string</title>
<path fill="none" stroke="black" d="M246.62,-73.81C253.66,-65.31 262.63,-54.49 270.73,-44.72"/>
<polygon fill="black" stroke="black" points="273.19,-47.23 276.88,-37.29 267.8,-42.76 273.19,-47.23"/>
</g>
<!-- show -->
<g id="node6" class="node">
<title>show</title>
<ellipse fill="none" stroke="black" cx="503.04" cy="-90" rx="30.61" ry="18"/>
<text text-anchor="middle" x="503.04" y="-84.58" font-family="Times New Roman,serif" font-size="14.00">show</text>
</g>
<!-- show&#45;&gt;find -->
<g id="edge5" class="edge">
<title>show&#45;&gt;find</title>
<path fill="none" stroke="black" d="M484.46,-75.17C470.55,-64.81 451.31,-50.48 435.75,-38.89"/>
<polygon fill="black" stroke="black" points="437.94,-36.16 427.83,-32.99 433.76,-41.77 437.94,-36.16"/>
</g>
<!-- file_url -->
<g id="node7" class="node">
<title>file_url</title>
<ellipse fill="none" stroke="black" cx="499.04" cy="-18" rx="36.09" ry="18"/>
<text text-anchor="middle" x="499.04" y="-12.57" font-family="Times New Roman,serif" font-size="14.00">file_url</text>
</g>
<!-- show&#45;&gt;file_url -->
<g id="edge6" class="edge">
<title>show&#45;&gt;file_url</title>
<path fill="none" stroke="black" d="M502.05,-71.7C501.63,-64.41 501.13,-55.73 500.67,-47.54"/>
<polygon fill="black" stroke="black" points="504.16,-47.4 500.1,-37.62 497.18,-47.8 504.16,-47.4"/>
</g>
<!-- send_file -->
<g id="node8" class="node">
<title>send_file</title>
<ellipse fill="none" stroke="black" cx="597.04" cy="-18" rx="44.08" ry="18"/>
<text text-anchor="middle" x="597.04" y="-12.57" font-family="Times New Roman,serif" font-size="14.00">send_file</text>
</g>
<!-- show&#45;&gt;send_file -->
<g id="edge7" class="edge">
<title>show&#45;&gt;send_file</title>
<path fill="none" stroke="black" d="M521.61,-75.17C534.72,-65.4 552.57,-52.11 567.61,-40.91"/>
<polygon fill="black" stroke="black" points="569.4,-43.94 575.33,-35.16 565.22,-38.33 569.4,-43.94"/>
</g>
<!-- create -->
<g id="node9" class="node">
<title>create</title>
<ellipse fill="none" stroke="black" cx="404.04" cy="-90" rx="32.6" ry="18"/>
<text text-anchor="middle" x="404.04" y="-84.58" font-family="Times New Roman,serif" font-size="14.00">create</text>
</g>
<!-- create&#45;&gt;find -->
<g id="edge8" class="edge">
<title>create&#45;&gt;find</title>
<path fill="none" stroke="black" d="M405.27,-71.7C405.79,-64.41 406.41,-55.73 407,-47.54"/>
<polygon fill="black" stroke="black" points="410.48,-47.84 407.71,-37.61 403.5,-47.34 410.48,-47.84"/>
</g>
<!-- create&#45;&gt;create -->
<g id="edge9" class="edge">
<title>create&#45;&gt;create</title>
<path fill="none" stroke="black" d="M427.98,-102.76C441.79,-105.36 454.64,-101.11 454.64,-90 454.64,-82.1 448.14,-77.67 439.43,-76.7"/>
<polygon fill="black" stroke="black" points="439.32,-73.2 429.5,-77.17 439.65,-80.2 439.32,-73.2"/>
</g>
</g>
</svg>
