<?xml version="1.0" encoding="UTF-8" standalone="no"?>
<!DOCTYPE svg PUBLIC "-//W3C//DTD SVG 1.1//EN"
 "http://www.w3.org/Graphics/SVG/1.1/DTD/svg11.dtd">
<!-- Generated by graphviz version 9.0.0 (20230911.1827)
 -->
<!-- Title: CallGraph Pages: 1 -->
<svg width="278pt" height="260pt"
 viewBox="0.00 0.00 278.08 260.00" xmlns="http://www.w3.org/2000/svg" xmlns:xlink="http://www.w3.org/1999/xlink">
<g id="graph0" class="graph" transform="scale(1 1) rotate(0) translate(4 256)">
<title>CallGraph</title>
<polygon fill="white" stroke="none" points="-4,4 -4,-256 274.08,-256 274.08,4 -4,4"/>
<!-- execute -->
<g id="node1" class="node">
<title>execute</title>
<ellipse fill="none" stroke="black" cx="64.54" cy="-234" rx="38.59" ry="18"/>
<text text-anchor="middle" x="64.54" y="-228.57" font-family="Times New Roman,serif" font-size="14.00">execute</text>
</g>
<!-- execute_multi -->
<g id="node2" class="node">
<title>execute_multi</title>
<ellipse fill="none" stroke="black" cx="208.54" cy="-162" rx="61.54" ry="18"/>
<text text-anchor="middle" x="208.54" y="-156.57" font-family="Times New Roman,serif" font-size="14.00">execute_multi</text>
</g>
<!-- execute&#45;&gt;execute_multi -->
<g id="edge1" class="edge">
<title>execute&#45;&gt;execute_multi</title>
<path fill="none" stroke="black" d="M90.61,-220.32C112.03,-209.91 142.75,-194.98 167.47,-182.96"/>
<polygon fill="black" stroke="black" points="168.82,-186.2 176.29,-178.68 165.76,-179.9 168.82,-186.2"/>
</g>
<!-- execute_single -->
<g id="node3" class="node">
<title>execute_single</title>
<ellipse fill="none" stroke="black" cx="64.54" cy="-162" rx="64.54" ry="18"/>
<text text-anchor="middle" x="64.54" y="-156.57" font-family="Times New Roman,serif" font-size="14.00">execute_single</text>
</g>
<!-- execute&#45;&gt;execute_single -->
<g id="edge2" class="edge">
<title>execute&#45;&gt;execute_single</title>
<path fill="none" stroke="black" d="M58.66,-216.05C57.88,-208.68 57.62,-199.84 57.89,-191.51"/>
<polygon fill="black" stroke="black" points="61.37,-191.99 58.53,-181.79 54.38,-191.54 61.37,-191.99"/>
</g>
<!-- ensure_hash -->
<g id="node4" class="node">
<title>ensure_hash</title>
<ellipse fill="none" stroke="black" cx="68.54" cy="-90" rx="56.55" ry="18"/>
<text text-anchor="middle" x="68.54" y="-84.58" font-family="Times New Roman,serif" font-size="14.00">ensure_hash</text>
</g>
<!-- execute_multi&#45;&gt;ensure_hash -->
<g id="edge5" class="edge">
<title>execute_multi&#45;&gt;ensure_hash</title>
<path fill="none" stroke="black" d="M178.5,-145.98C157.97,-135.72 130.54,-122 108.22,-110.84"/>
<polygon fill="black" stroke="black" points="109.9,-107.77 99.39,-106.43 106.77,-114.03 109.9,-107.77"/>
</g>
<!-- multiplex -->
<g id="node5" class="node">
<title>multiplex</title>
<ellipse fill="none" stroke="black" cx="208.54" cy="-90" rx="44.08" ry="18"/>
<text text-anchor="middle" x="208.54" y="-84.58" font-family="Times New Roman,serif" font-size="14.00">multiplex</text>
</g>
<!-- execute_multi&#45;&gt;multiplex -->
<g id="edge6" class="edge">
<title>execute_multi&#45;&gt;multiplex</title>
<path fill="none" stroke="black" d="M208.54,-143.7C208.54,-136.41 208.54,-127.73 208.54,-119.54"/>
<polygon fill="black" stroke="black" points="212.04,-119.62 208.54,-109.62 205.04,-119.62 212.04,-119.62"/>
</g>
<!-- execute_single&#45;&gt;execute -->
<g id="edge4" class="edge">
<title>execute_single&#45;&gt;execute</title>
<path fill="none" stroke="black" d="M70.45,-180.28C71.21,-187.6 71.45,-196.34 71.18,-204.57"/>
<polygon fill="black" stroke="black" points="67.69,-204.33 70.52,-214.54 74.67,-204.8 67.69,-204.33"/>
</g>
<!-- execute_single&#45;&gt;ensure_hash -->
<g id="edge3" class="edge">
<title>execute_single&#45;&gt;ensure_hash</title>
<path fill="none" stroke="black" d="M65.53,-143.7C65.94,-136.41 66.44,-127.73 66.91,-119.54"/>
<polygon fill="black" stroke="black" points="70.4,-119.8 67.47,-109.62 63.41,-119.4 70.4,-119.8"/>
</g>
<!-- ensure_hash&#45;&gt;ensure_hash -->
<g id="edge7" class="edge">
<title>ensure_hash&#45;&gt;ensure_hash</title>
<path fill="none" stroke="black" d="M108.04,-103.2C126.7,-104.74 143.09,-100.34 143.09,-90 143.09,-81.84 132.89,-77.38 119.41,-76.62"/>
<polygon fill="black" stroke="black" points="119.5,-73.12 109.55,-76.77 119.61,-80.12 119.5,-73.12"/>
</g>
<!-- parse -->
<g id="node6" class="node">
<title>parse</title>
<ellipse fill="none" stroke="black" cx="68.54" cy="-18" rx="30.61" ry="18"/>
<text text-anchor="middle" x="68.54" y="-12.57" font-family="Times New Roman,serif" font-size="14.00">parse</text>
</g>
<!-- ensure_hash&#45;&gt;parse -->
<g id="edge8" class="edge">
<title>ensure_hash&#45;&gt;parse</title>
<path fill="none" stroke="black" d="M68.54,-71.7C68.54,-64.41 68.54,-55.73 68.54,-47.54"/>
<polygon fill="black" stroke="black" points="72.04,-47.62 68.54,-37.62 65.04,-47.62 72.04,-47.62"/>
</g>
</g>
</svg>
