<?xml version="1.0" encoding="UTF-8" standalone="no"?>
<!DOCTYPE svg PUBLIC "-//W3C//DTD SVG 1.1//EN"
 "http://www.w3.org/Graphics/SVG/1.1/DTD/svg11.dtd">
<!-- Generated by graphviz version 9.0.0 (20230911.1827)
 -->
<!-- Title: CallGraph Pages: 1 -->
<svg width="1463pt" height="116pt"
 viewBox="0.00 0.00 1462.58 116.00" xmlns="http://www.w3.org/2000/svg" xmlns:xlink="http://www.w3.org/1999/xlink">
<g id="graph0" class="graph" transform="scale(1 1) rotate(0) translate(4 112)">
<title>CallGraph</title>
<polygon fill="white" stroke="none" points="-4,4 -4,-112 1458.58,-112 1458.58,4 -4,4"/>
<!-- show -->
<g id="node1" class="node">
<title>show</title>
<ellipse fill="none" stroke="black" cx="188.08" cy="-90" rx="30.61" ry="18"/>
<text text-anchor="middle" x="188.08" y="-84.58" font-family="Times New Roman,serif" font-size="14.00">show</text>
</g>
<!-- find -->
<g id="node2" class="node">
<title>find</title>
<ellipse fill="none" stroke="black" cx="368.08" cy="-18" rx="27" ry="18"/>
<text text-anchor="middle" x="368.08" y="-12.57" font-family="Times New Roman,serif" font-size="14.00">find</text>
</g>
<!-- show&#45;&gt;find -->
<g id="edge1" class="edge">
<title>show&#45;&gt;find</title>
<path fill="none" stroke="black" d="M211.88,-78.26C216.87,-76.11 222.13,-73.93 227.08,-72 273.07,-54.13 286.38,-54.56 332.08,-36 333.6,-35.38 335.15,-34.73 336.71,-34.06"/>
<polygon fill="black" stroke="black" points="337.87,-37.38 345.56,-30.08 335,-30.99 337.87,-37.38"/>
</g>
<!-- has_key -->
<g id="node3" class="node">
<title>has_key</title>
<ellipse fill="none" stroke="black" cx="41.08" cy="-18" rx="41.08" ry="18"/>
<text text-anchor="middle" x="41.08" y="-12.57" font-family="Times New Roman,serif" font-size="14.00">has_key</text>
</g>
<!-- show&#45;&gt;has_key -->
<g id="edge2" class="edge">
<title>show&#45;&gt;has_key</title>
<path fill="none" stroke="black" d="M164.79,-77.91C141.64,-66.88 105.74,-49.79 78.57,-36.85"/>
<polygon fill="black" stroke="black" points="80.16,-33.73 69.63,-32.59 77.15,-40.05 80.16,-33.73"/>
</g>
<!-- graph_path -->
<g id="node4" class="node">
<title>graph_path</title>
<ellipse fill="none" stroke="black" cx="270.08" cy="-18" rx="52.56" ry="18"/>
<text text-anchor="middle" x="270.08" y="-12.57" font-family="Times New Roman,serif" font-size="14.00">graph_path</text>
</g>
<!-- show&#45;&gt;graph_path -->
<g id="edge3" class="edge">
<title>show&#45;&gt;graph_path</title>
<path fill="none" stroke="black" d="M204.68,-74.83C215.52,-65.58 229.95,-53.26 242.5,-42.55"/>
<polygon fill="black" stroke="black" points="244.74,-45.24 250.07,-36.09 240.19,-39.92 244.74,-45.24"/>
</g>
<!-- properties -->
<g id="node5" class="node">
<title>properties</title>
<ellipse fill="none" stroke="black" cx="380.08" cy="-90" rx="48.07" ry="18"/>
<text text-anchor="middle" x="380.08" y="-84.58" font-family="Times New Roman,serif" font-size="14.00">properties</text>
</g>
<!-- properties&#45;&gt;find -->
<g id="edge4" class="edge">
<title>properties&#45;&gt;find</title>
<path fill="none" stroke="black" d="M377.12,-71.7C375.85,-64.32 374.35,-55.52 372.93,-47.25"/>
<polygon fill="black" stroke="black" points="376.41,-46.86 371.27,-37.6 369.51,-48.04 376.41,-46.86"/>
</g>
<!-- draw -->
<g id="node6" class="node">
<title>draw</title>
<ellipse fill="none" stroke="black" cx="631.08" cy="-90" rx="29.11" ry="18"/>
<text text-anchor="middle" x="631.08" y="-84.58" font-family="Times New Roman,serif" font-size="14.00">draw</text>
</g>
<!-- draw&#45;&gt;find -->
<g id="edge5" class="edge">
<title>draw&#45;&gt;find</title>
<path fill="none" stroke="black" d="M604.58,-81.83C592.81,-78.71 578.78,-75.07 566.08,-72 494.39,-54.67 473.86,-59.89 404.08,-36 402.53,-35.47 400.96,-34.89 399.38,-34.28"/>
<polygon fill="black" stroke="black" points="401.04,-31.18 390.47,-30.47 398.29,-37.62 401.04,-31.18"/>
</g>
<!-- draw&#45;&gt;graph_path -->
<g id="edge8" class="edge">
<title>draw&#45;&gt;graph_path</title>
<path fill="none" stroke="black" d="M604.98,-81.52C593.17,-78.3 578.99,-74.67 566.08,-72 463.05,-50.66 434.99,-57.95 332.08,-36 328.08,-35.15 323.96,-34.19 319.82,-33.17"/>
<polygon fill="black" stroke="black" points="320.96,-29.85 310.41,-30.76 319.23,-36.64 320.96,-29.85"/>
</g>
<!-- draw_graph_path -->
<g id="node7" class="node">
<title>draw_graph_path</title>
<ellipse fill="none" stroke="black" cx="779.08" cy="-18" rx="76.01" ry="18"/>
<text text-anchor="middle" x="779.08" y="-12.57" font-family="Times New Roman,serif" font-size="14.00">draw_graph_path</text>
</g>
<!-- draw&#45;&gt;draw_graph_path -->
<g id="edge6" class="edge">
<title>draw&#45;&gt;draw_graph_path</title>
<path fill="none" stroke="black" d="M653.88,-78.22C675.65,-67.92 708.99,-52.15 735.8,-39.47"/>
<polygon fill="black" stroke="black" points="737.18,-42.69 744.72,-35.25 734.18,-36.36 737.18,-42.69"/>
</g>
<!-- t -->
<g id="node8" class="node">
<title>t</title>
<ellipse fill="none" stroke="black" cx="658.08" cy="-18" rx="27" ry="18"/>
<text text-anchor="middle" x="658.08" y="-12.57" font-family="Times New Roman,serif" font-size="14.00">t</text>
</g>
<!-- draw&#45;&gt;t -->
<g id="edge7" class="edge">
<title>draw&#45;&gt;t</title>
<path fill="none" stroke="black" d="M637.62,-72.05C640.6,-64.32 644.22,-54.96 647.57,-46.27"/>
<polygon fill="black" stroke="black" points="650.73,-47.79 651.06,-37.2 644.2,-45.27 650.73,-47.79"/>
</g>
<!-- renaissance -->
<g id="node9" class="node">
<title>renaissance</title>
<ellipse fill="none" stroke="black" cx="504.08" cy="-90" rx="53.06" ry="18"/>
<text text-anchor="middle" x="504.08" y="-84.58" font-family="Times New Roman,serif" font-size="14.00">renaissance</text>
</g>
<!-- renaissance&#45;&gt;find -->
<g id="edge9" class="edge">
<title>renaissance&#45;&gt;find</title>
<path fill="none" stroke="black" d="M475.9,-74.5C453.5,-62.97 422.2,-46.86 399.09,-34.96"/>
<polygon fill="black" stroke="black" points="400.95,-31.98 390.46,-30.52 397.75,-38.21 400.95,-31.98"/>
</g>
<!-- renaissance&#45;&gt;graph_path -->
<g id="edge12" class="edge">
<title>renaissance&#45;&gt;graph_path</title>
<path fill="none" stroke="black" d="M465.18,-77.36C425.25,-65.42 362.99,-46.79 319.57,-33.8"/>
<polygon fill="black" stroke="black" points="320.72,-30.5 310.14,-30.98 318.72,-37.2 320.72,-30.5"/>
</g>
<!-- renaissance&#45;&gt;t -->
<g id="edge11" class="edge">
<title>renaissance&#45;&gt;t</title>
<path fill="none" stroke="black" d="M535.46,-75.1C559.28,-64.5 592.81,-49.48 622.08,-36 623.39,-35.4 624.72,-34.78 626.07,-34.16"/>
<polygon fill="black" stroke="black" points="627.47,-37.37 635.04,-29.96 624.5,-31.03 627.47,-37.37"/>
</g>
<!-- renaissance_graph_path -->
<g id="node10" class="node">
<title>renaissance_graph_path</title>
<ellipse fill="none" stroke="black" cx="513.08" cy="-18" rx="99.97" ry="18"/>
<text text-anchor="middle" x="513.08" y="-12.57" font-family="Times New Roman,serif" font-size="14.00">renaissance_graph_path</text>
</g>
<!-- renaissance&#45;&gt;renaissance_graph_path -->
<g id="edge10" class="edge">
<title>renaissance&#45;&gt;renaissance_graph_path</title>
<path fill="none" stroke="black" d="M506.31,-71.7C507.26,-64.32 508.39,-55.52 509.45,-47.25"/>
<polygon fill="black" stroke="black" points="512.89,-47.97 510.69,-37.61 505.95,-47.08 512.89,-47.97"/>
</g>
<!-- destroy -->
<g id="node11" class="node">
<title>destroy</title>
<ellipse fill="none" stroke="black" cx="275.08" cy="-90" rx="38.59" ry="18"/>
<text text-anchor="middle" x="275.08" y="-84.58" font-family="Times New Roman,serif" font-size="14.00">destroy</text>
</g>
<!-- destroy&#45;&gt;find -->
<g id="edge13" class="edge">
<title>destroy&#45;&gt;find</title>
<path fill="none" stroke="black" d="M294.81,-74.15C308.49,-63.85 326.88,-50.01 341.81,-38.78"/>
<polygon fill="black" stroke="black" points="343.49,-41.89 349.38,-33.08 339.28,-36.3 343.49,-41.89"/>
</g>
<!-- destroy&#45;&gt;graph_path -->
<g id="edge16" class="edge">
<title>destroy&#45;&gt;graph_path</title>
<path fill="none" stroke="black" d="M273.85,-71.7C273.33,-64.41 272.71,-55.73 272.12,-47.54"/>
<polygon fill="black" stroke="black" points="275.62,-47.34 271.41,-37.61 268.64,-47.84 275.62,-47.34"/>
</g>
<!-- destroy&#45;&gt;t -->
<g id="edge15" class="edge">
<title>destroy&#45;&gt;t</title>
<path fill="none" stroke="black" d="M303.97,-77.62C310.2,-75.49 316.8,-73.47 323.08,-72 453.4,-41.47 493.47,-73.05 622.08,-36 623.7,-35.53 625.34,-35 626.98,-34.42"/>
<polygon fill="black" stroke="black" points="628.27,-37.68 636.19,-30.64 625.61,-31.2 628.27,-37.68"/>
</g>
<!-- log_action -->
<g id="node12" class="node">
<title>log_action</title>
<ellipse fill="none" stroke="black" cx="150.08" cy="-18" rx="49.57" ry="18"/>
<text text-anchor="middle" x="150.08" y="-12.57" font-family="Times New Roman,serif" font-size="14.00">log_action</text>
</g>
<!-- destroy&#45;&gt;log_action -->
<g id="edge14" class="edge">
<title>destroy&#45;&gt;log_action</title>
<path fill="none" stroke="black" d="M250.98,-75.5C232.57,-65.19 206.9,-50.82 186.06,-39.15"/>
<polygon fill="black" stroke="black" points="188.02,-36.24 177.59,-34.4 184.6,-42.34 188.02,-36.24"/>
</g>
<!-- update -->
<g id="node13" class="node">
<title>update</title>
<ellipse fill="none" stroke="black" cx="948.08" cy="-90" rx="35.6" ry="18"/>
<text text-anchor="middle" x="948.08" y="-84.58" font-family="Times New Roman,serif" font-size="14.00">update</text>
</g>
<!-- update&#45;&gt;find -->
<g id="edge17" class="edge">
<title>update&#45;&gt;find</title>
<path fill="none" stroke="black" d="M912.51,-87.13C807.57,-81.36 500.59,-62.62 404.08,-36 402.46,-35.55 400.82,-35.04 399.18,-34.47"/>
<polygon fill="black" stroke="black" points="400.54,-31.24 389.96,-30.72 397.9,-37.73 400.54,-31.24"/>
</g>
<!-- update&#45;&gt;t -->
<g id="edge20" class="edge">
<title>update&#45;&gt;t</title>
<path fill="none" stroke="black" d="M913.72,-84.46C864.26,-77.33 770.54,-61.63 694.08,-36 692.53,-35.48 690.95,-34.91 689.37,-34.3"/>
<polygon fill="black" stroke="black" points="691.03,-31.2 680.46,-30.51 688.29,-37.64 691.03,-31.2"/>
</g>
<!-- update_attributes -->
<g id="node14" class="node">
<title>update_attributes</title>
<ellipse fill="none" stroke="black" cx="948.08" cy="-18" rx="74.52" ry="18"/>
<text text-anchor="middle" x="948.08" y="-12.57" font-family="Times New Roman,serif" font-size="14.00">update_attributes</text>
</g>
<!-- update&#45;&gt;update_attributes -->
<g id="edge18" class="edge">
<title>update&#45;&gt;update_attributes</title>
<path fill="none" stroke="black" d="M948.08,-71.7C948.08,-64.41 948.08,-55.73 948.08,-47.54"/>
<polygon fill="black" stroke="black" points="951.58,-47.62 948.08,-37.62 944.58,-47.62 951.58,-47.62"/>
</g>
<!-- info -->
<g id="node15" class="node">
<title>info</title>
<ellipse fill="none" stroke="black" cx="1068.08" cy="-18" rx="27" ry="18"/>
<text text-anchor="middle" x="1068.08" y="-12.57" font-family="Times New Roman,serif" font-size="14.00">info</text>
</g>
<!-- update&#45;&gt;info -->
<g id="edge19" class="edge">
<title>update&#45;&gt;info</title>
<path fill="none" stroke="black" d="M970.66,-75.83C989.91,-64.6 1017.72,-48.38 1038.71,-36.13"/>
<polygon fill="black" stroke="black" points="1040.21,-39.31 1047.09,-31.25 1036.69,-33.26 1040.21,-39.31"/>
</g>
<!-- respond_with_bip -->
<g id="node16" class="node">
<title>respond_with_bip</title>
<ellipse fill="none" stroke="black" cx="1192.08" cy="-18" rx="78.51" ry="18"/>
<text text-anchor="middle" x="1192.08" y="-12.57" font-family="Times New Roman,serif" font-size="14.00">respond_with_bip</text>
</g>
<!-- update&#45;&gt;respond_with_bip -->
<g id="edge21" class="edge">
<title>update&#45;&gt;respond_with_bip</title>
<path fill="none" stroke="black" d="M978.49,-80.28C1017.13,-69.19 1084.65,-49.82 1133.45,-35.82"/>
<polygon fill="black" stroke="black" points="1134.39,-39.19 1143.03,-33.07 1132.46,-32.47 1134.39,-39.19"/>
</g>
<!-- groupgraph_params -->
<g id="node17" class="node">
<title>groupgraph_params</title>
<ellipse fill="none" stroke="black" cx="1369.08" cy="-90" rx="85.49" ry="18"/>
<text text-anchor="middle" x="1369.08" y="-84.58" font-family="Times New Roman,serif" font-size="14.00">groupgraph_params</text>
</g>
<!-- require -->
<g id="node18" class="node">
<title>require</title>
<ellipse fill="none" stroke="black" cx="1325.08" cy="-18" rx="36.09" ry="18"/>
<text text-anchor="middle" x="1325.08" y="-12.57" font-family="Times New Roman,serif" font-size="14.00">require</text>
</g>
<!-- groupgraph_params&#45;&gt;require -->
<g id="edge22" class="edge">
<title>groupgraph_params&#45;&gt;require</title>
<path fill="none" stroke="black" d="M1358.21,-71.7C1353.18,-63.7 1347.1,-54.02 1341.52,-45.15"/>
<polygon fill="black" stroke="black" points="1344.62,-43.51 1336.34,-36.9 1338.7,-47.23 1344.62,-43.51"/>
</g>
<!-- permit -->
<g id="node19" class="node">
<title>permit</title>
<ellipse fill="none" stroke="black" cx="1413.08" cy="-18" rx="34.1" ry="18"/>
<text text-anchor="middle" x="1413.08" y="-12.57" font-family="Times New Roman,serif" font-size="14.00">permit</text>
</g>
<!-- groupgraph_params&#45;&gt;permit -->
<g id="edge23" class="edge">
<title>groupgraph_params&#45;&gt;permit</title>
<path fill="none" stroke="black" d="M1379.96,-71.7C1384.99,-63.7 1391.07,-54.02 1396.64,-45.15"/>
<polygon fill="black" stroke="black" points="1399.47,-47.23 1401.83,-36.9 1393.55,-43.51 1399.47,-47.23"/>
</g>
</g>
</svg>
