<?xml version="1.0" encoding="UTF-8" standalone="no"?>
<!DOCTYPE svg PUBLIC "-//W3C//DTD SVG 1.1//EN"
 "http://www.w3.org/Graphics/SVG/1.1/DTD/svg11.dtd">
<!-- Generated by graphviz version 9.0.0 (20230911.1827)
 -->
<!-- Title: CallGraph Pages: 1 -->
<svg width="2386pt" height="116pt"
 viewBox="0.00 0.00 2385.63 116.00" xmlns="http://www.w3.org/2000/svg" xmlns:xlink="http://www.w3.org/1999/xlink">
<g id="graph0" class="graph" transform="scale(1 1) rotate(0) translate(4 112)">
<title>CallGraph</title>
<polygon fill="white" stroke="none" points="-4,4 -4,-112 2381.63,-112 2381.63,4 -4,4"/>
<!-- index -->
<g id="node1" class="node">
<title>index</title>
<ellipse fill="none" stroke="black" cx="30.61" cy="-90" rx="30.61" ry="18"/>
<text text-anchor="middle" x="30.61" y="-84.58" font-family="Times New Roman,serif" font-size="14.00">index</text>
</g>
<!-- new -->
<g id="node2" class="node">
<title>new</title>
<ellipse fill="none" stroke="black" cx="111.61" cy="-18" rx="27" ry="18"/>
<text text-anchor="middle" x="111.61" y="-12.57" font-family="Times New Roman,serif" font-size="14.00">new</text>
</g>
<!-- create -->
<g id="node3" class="node">
<title>create</title>
<ellipse fill="none" stroke="black" cx="111.61" cy="-90" rx="32.6" ry="18"/>
<text text-anchor="middle" x="111.61" y="-84.58" font-family="Times New Roman,serif" font-size="14.00">create</text>
</g>
<!-- create&#45;&gt;new -->
<g id="edge1" class="edge">
<title>create&#45;&gt;new</title>
<path fill="none" stroke="black" d="M111.61,-71.7C111.61,-64.41 111.61,-55.73 111.61,-47.54"/>
<polygon fill="black" stroke="black" points="115.11,-47.62 111.61,-37.62 108.11,-47.62 115.11,-47.62"/>
</g>
<!-- t -->
<g id="node4" class="node">
<title>t</title>
<ellipse fill="none" stroke="black" cx="215.61" cy="-18" rx="27" ry="18"/>
<text text-anchor="middle" x="215.61" y="-12.57" font-family="Times New Roman,serif" font-size="14.00">t</text>
</g>
<!-- create&#45;&gt;t -->
<g id="edge2" class="edge">
<title>create&#45;&gt;t</title>
<path fill="none" stroke="black" d="M131.66,-75.5C147.59,-64.78 170.07,-49.65 187.75,-37.75"/>
<polygon fill="black" stroke="black" points="189.41,-40.85 195.76,-32.36 185.51,-35.04 189.41,-40.85"/>
</g>
<!-- delete -->
<g id="node5" class="node">
<title>delete</title>
<ellipse fill="none" stroke="black" cx="434.61" cy="-90" rx="32.1" ry="18"/>
<text text-anchor="middle" x="434.61" y="-84.58" font-family="Times New Roman,serif" font-size="14.00">delete</text>
</g>
<!-- delete&#45;&gt;t -->
<g id="edge6" class="edge">
<title>delete&#45;&gt;t</title>
<path fill="none" stroke="black" d="M405.3,-82.05C368.76,-73.03 304.66,-56.06 251.61,-36 250.07,-35.42 248.51,-34.8 246.94,-34.15"/>
<polygon fill="black" stroke="black" points="248.63,-31.07 238.07,-30.25 245.81,-37.48 248.63,-31.07"/>
</g>
<!-- list_selection -->
<g id="node6" class="node">
<title>list_selection</title>
<ellipse fill="none" stroke="black" cx="319.61" cy="-18" rx="58.55" ry="18"/>
<text text-anchor="middle" x="319.61" y="-12.57" font-family="Times New Roman,serif" font-size="14.00">list_selection</text>
</g>
<!-- delete&#45;&gt;list_selection -->
<g id="edge3" class="edge">
<title>delete&#45;&gt;list_selection</title>
<path fill="none" stroke="black" d="M413.51,-76.16C397.06,-66.14 373.85,-52.02 354.62,-40.31"/>
<polygon fill="black" stroke="black" points="356.63,-37.44 346.27,-35.23 353,-43.42 356.63,-37.44"/>
</g>
<!-- destroy -->
<g id="node7" class="node">
<title>destroy</title>
<ellipse fill="none" stroke="black" cx="434.61" cy="-18" rx="38.59" ry="18"/>
<text text-anchor="middle" x="434.61" y="-12.57" font-family="Times New Roman,serif" font-size="14.00">destroy</text>
</g>
<!-- delete&#45;&gt;destroy -->
<g id="edge4" class="edge">
<title>delete&#45;&gt;destroy</title>
<path fill="none" stroke="black" d="M434.61,-71.7C434.61,-64.41 434.61,-55.73 434.61,-47.54"/>
<polygon fill="black" stroke="black" points="438.11,-47.62 434.61,-37.62 431.11,-47.62 438.11,-47.62"/>
</g>
<!-- flash_x_success -->
<g id="node8" class="node">
<title>flash_x_success</title>
<ellipse fill="none" stroke="black" cx="563.61" cy="-18" rx="72.02" ry="18"/>
<text text-anchor="middle" x="563.61" y="-12.57" font-family="Times New Roman,serif" font-size="14.00">flash_x_success</text>
</g>
<!-- delete&#45;&gt;flash_x_success -->
<g id="edge5" class="edge">
<title>delete&#45;&gt;flash_x_success</title>
<path fill="none" stroke="black" d="M457.08,-76.81C475.65,-66.73 502.45,-52.19 524.52,-40.21"/>
<polygon fill="black" stroke="black" points="526.15,-43.3 533.27,-35.46 522.82,-37.15 526.15,-43.3"/>
</g>
<!-- flash_x_error -->
<g id="node9" class="node">
<title>flash_x_error</title>
<ellipse fill="none" stroke="black" cx="714.61" cy="-18" rx="60.54" ry="18"/>
<text text-anchor="middle" x="714.61" y="-12.57" font-family="Times New Roman,serif" font-size="14.00">flash_x_error</text>
</g>
<!-- delete&#45;&gt;flash_x_error -->
<g id="edge7" class="edge">
<title>delete&#45;&gt;flash_x_error</title>
<path fill="none" stroke="black" d="M463.52,-81.77C509.33,-70.32 599.43,-47.79 658.31,-33.07"/>
<polygon fill="black" stroke="black" points="658.97,-36.52 667.82,-30.7 657.27,-29.73 658.97,-36.52"/>
</g>
<!-- update -->
<g id="node10" class="node">
<title>update</title>
<ellipse fill="none" stroke="black" cx="1039.61" cy="-90" rx="35.6" ry="18"/>
<text text-anchor="middle" x="1039.61" y="-84.58" font-family="Times New Roman,serif" font-size="14.00">update</text>
</g>
<!-- update_attributes -->
<g id="node11" class="node">
<title>update_attributes</title>
<ellipse fill="none" stroke="black" cx="867.61" cy="-18" rx="74.52" ry="18"/>
<text text-anchor="middle" x="867.61" y="-12.57" font-family="Times New Roman,serif" font-size="14.00">update_attributes</text>
</g>
<!-- update&#45;&gt;update_attributes -->
<g id="edge8" class="edge">
<title>update&#45;&gt;update_attributes</title>
<path fill="none" stroke="black" d="M1012.35,-77.91C986.22,-67.28 946.24,-51 914.91,-38.25"/>
<polygon fill="black" stroke="black" points="916.63,-35.18 906.05,-34.65 914,-41.66 916.63,-35.18"/>
</g>
<!-- fix_flash_message -->
<g id="node12" class="node">
<title>fix_flash_message</title>
<ellipse fill="none" stroke="black" cx="1039.61" cy="-18" rx="79.01" ry="18"/>
<text text-anchor="middle" x="1039.61" y="-12.57" font-family="Times New Roman,serif" font-size="14.00">fix_flash_message</text>
</g>
<!-- update&#45;&gt;fix_flash_message -->
<g id="edge9" class="edge">
<title>update&#45;&gt;fix_flash_message</title>
<path fill="none" stroke="black" d="M1039.61,-71.7C1039.61,-64.41 1039.61,-55.73 1039.61,-47.54"/>
<polygon fill="black" stroke="black" points="1043.11,-47.62 1039.61,-37.62 1036.11,-47.62 1043.11,-47.62"/>
</g>
<!-- respond_with_bip -->
<g id="node13" class="node">
<title>respond_with_bip</title>
<ellipse fill="none" stroke="black" cx="1215.61" cy="-18" rx="78.51" ry="18"/>
<text text-anchor="middle" x="1215.61" y="-12.57" font-family="Times New Roman,serif" font-size="14.00">respond_with_bip</text>
</g>
<!-- update&#45;&gt;respond_with_bip -->
<g id="edge10" class="edge">
<title>update&#45;&gt;respond_with_bip</title>
<path fill="none" stroke="black" d="M1067.11,-78.06C1093.77,-67.46 1134.8,-51.14 1166.98,-38.34"/>
<polygon fill="black" stroke="black" points="1168.12,-41.65 1176.12,-34.71 1165.53,-35.15 1168.12,-41.65"/>
</g>
<!-- find_group -->
<g id="node14" class="node">
<title>find_group</title>
<ellipse fill="none" stroke="black" cx="1339.61" cy="-90" rx="52.06" ry="18"/>
<text text-anchor="middle" x="1339.61" y="-84.58" font-family="Times New Roman,serif" font-size="14.00">find_group</text>
</g>
<!-- find -->
<g id="node15" class="node">
<title>find</title>
<ellipse fill="none" stroke="black" cx="1339.61" cy="-18" rx="27" ry="18"/>
<text text-anchor="middle" x="1339.61" y="-12.57" font-family="Times New Roman,serif" font-size="14.00">find</text>
</g>
<!-- find_group&#45;&gt;find -->
<g id="edge11" class="edge">
<title>find_group&#45;&gt;find</title>
<path fill="none" stroke="black" d="M1339.61,-71.7C1339.61,-64.41 1339.61,-55.73 1339.61,-47.54"/>
<polygon fill="black" stroke="black" points="1343.11,-47.62 1339.61,-37.62 1336.11,-47.62 1343.11,-47.62"/>
</g>
<!-- group_params -->
<g id="node16" class="node">
<title>group_params</title>
<ellipse fill="none" stroke="black" cx="1474.61" cy="-90" rx="64.54" ry="18"/>
<text text-anchor="middle" x="1474.61" y="-84.58" font-family="Times New Roman,serif" font-size="14.00">group_params</text>
</g>
<!-- require -->
<g id="node17" class="node">
<title>require</title>
<ellipse fill="none" stroke="black" cx="1449.61" cy="-18" rx="36.09" ry="18"/>
<text text-anchor="middle" x="1449.61" y="-12.57" font-family="Times New Roman,serif" font-size="14.00">require</text>
</g>
<!-- group_params&#45;&gt;require -->
<g id="edge12" class="edge">
<title>group_params&#45;&gt;require</title>
<path fill="none" stroke="black" d="M1468.43,-71.7C1465.73,-64.15 1462.5,-55.12 1459.49,-46.68"/>
<polygon fill="black" stroke="black" points="1462.88,-45.77 1456.22,-37.53 1456.29,-48.12 1462.88,-45.77"/>
</g>
<!-- permit -->
<g id="node18" class="node">
<title>permit</title>
<ellipse fill="none" stroke="black" cx="1537.61" cy="-18" rx="34.1" ry="18"/>
<text text-anchor="middle" x="1537.61" y="-12.57" font-family="Times New Roman,serif" font-size="14.00">permit</text>
</g>
<!-- group_params&#45;&gt;permit -->
<g id="edge13" class="edge">
<title>group_params&#45;&gt;permit</title>
<path fill="none" stroke="black" d="M1489.86,-72.05C1497.66,-63.38 1507.3,-52.67 1515.87,-43.15"/>
<polygon fill="black" stroke="black" points="1518.26,-45.73 1522.35,-35.95 1513.05,-41.05 1518.26,-45.73"/>
</g>
<!-- user_not_authorized -->
<g id="node19" class="node">
<title>user_not_authorized</title>
<ellipse fill="none" stroke="black" cx="248.61" cy="-90" rx="86.49" ry="18"/>
<text text-anchor="middle" x="248.61" y="-84.58" font-family="Times New Roman,serif" font-size="14.00">user_not_authorized</text>
</g>
<!-- user_not_authorized&#45;&gt;t -->
<g id="edge14" class="edge">
<title>user_not_authorized&#45;&gt;t</title>
<path fill="none" stroke="black" d="M240.45,-71.7C236.8,-63.95 232.41,-54.64 228.34,-46.02"/>
<polygon fill="black" stroke="black" points="231.52,-44.54 224.09,-36.99 225.19,-47.53 231.52,-44.54"/>
</g>
<!-- list_items_show -->
<g id="node20" class="node">
<title>list_items_show</title>
<ellipse fill="none" stroke="black" cx="1792.61" cy="-90" rx="70.52" ry="18"/>
<text text-anchor="middle" x="1792.61" y="-84.58" font-family="Times New Roman,serif" font-size="14.00">list_items_show</text>
</g>
<!-- search -->
<g id="node21" class="node">
<title>search</title>
<ellipse fill="none" stroke="black" cx="1713.61" cy="-18" rx="34.6" ry="18"/>
<text text-anchor="middle" x="1713.61" y="-12.57" font-family="Times New Roman,serif" font-size="14.00">search</text>
</g>
<!-- list_items_show&#45;&gt;search -->
<g id="edge15" class="edge">
<title>list_items_show&#45;&gt;search</title>
<path fill="none" stroke="black" d="M1773.88,-72.41C1763.51,-63.22 1750.47,-51.67 1739.18,-41.66"/>
<polygon fill="black" stroke="black" points="1741.52,-39.05 1731.71,-35.04 1736.87,-44.29 1741.52,-39.05"/>
</g>
<!-- where -->
<g id="node22" class="node">
<title>where</title>
<ellipse fill="none" stroke="black" cx="1798.61" cy="-18" rx="32.6" ry="18"/>
<text text-anchor="middle" x="1798.61" y="-12.57" font-family="Times New Roman,serif" font-size="14.00">where</text>
</g>
<!-- list_items_show&#45;&gt;where -->
<g id="edge16" class="edge">
<title>list_items_show&#45;&gt;where</title>
<path fill="none" stroke="black" d="M1794.09,-71.7C1794.71,-64.41 1795.46,-55.73 1796.16,-47.54"/>
<polygon fill="black" stroke="black" points="1799.64,-47.87 1797.01,-37.61 1792.67,-47.28 1799.64,-47.87"/>
</g>
<!-- list_orders_show -->
<g id="node23" class="node">
<title>list_orders_show</title>
<ellipse fill="none" stroke="black" cx="1956.61" cy="-90" rx="75.02" ry="18"/>
<text text-anchor="middle" x="1956.61" y="-84.58" font-family="Times New Roman,serif" font-size="14.00">list_orders_show</text>
</g>
<!-- order -->
<g id="node24" class="node">
<title>order</title>
<ellipse fill="none" stroke="black" cx="1974.61" cy="-18" rx="30.61" ry="18"/>
<text text-anchor="middle" x="1974.61" y="-12.57" font-family="Times New Roman,serif" font-size="14.00">order</text>
</g>
<!-- list_orders_show&#45;&gt;order -->
<g id="edge17" class="edge">
<title>list_orders_show&#45;&gt;order</title>
<path fill="none" stroke="black" d="M1961.05,-71.7C1962.95,-64.32 1965.21,-55.52 1967.34,-47.25"/>
<polygon fill="black" stroke="black" points="1970.73,-48.13 1969.83,-37.57 1963.95,-46.38 1970.73,-48.13"/>
</g>
<!-- list_items_add -->
<g id="node25" class="node">
<title>list_items_add</title>
<ellipse fill="none" stroke="black" cx="1639.61" cy="-90" rx="64.54" ry="18"/>
<text text-anchor="middle" x="1639.61" y="-84.58" font-family="Times New Roman,serif" font-size="14.00">list_items_add</text>
</g>
<!-- list_items_add&#45;&gt;search -->
<g id="edge19" class="edge">
<title>list_items_add&#45;&gt;search</title>
<path fill="none" stroke="black" d="M1657.14,-72.41C1666.69,-63.38 1678.66,-52.06 1689.12,-42.17"/>
<polygon fill="black" stroke="black" points="1691.5,-44.73 1696.36,-35.31 1686.69,-39.64 1691.5,-44.73"/>
</g>
<!-- list_items_add&#45;&gt;where -->
<g id="edge20" class="edge">
<title>list_items_add&#45;&gt;where</title>
<path fill="none" stroke="black" d="M1672.94,-74.33C1699.35,-62.7 1736.16,-46.49 1763.12,-34.62"/>
<polygon fill="black" stroke="black" points="1764.52,-37.83 1772.26,-30.6 1761.7,-31.42 1764.52,-37.83"/>
</g>
<!-- not -->
<g id="node26" class="node">
<title>not</title>
<ellipse fill="none" stroke="black" cx="1633.61" cy="-18" rx="27" ry="18"/>
<text text-anchor="middle" x="1633.61" y="-12.57" font-family="Times New Roman,serif" font-size="14.00">not</text>
</g>
<!-- list_items_add&#45;&gt;not -->
<g id="edge18" class="edge">
<title>list_items_add&#45;&gt;not</title>
<path fill="none" stroke="black" d="M1638.12,-71.7C1637.5,-64.41 1636.75,-55.73 1636.05,-47.54"/>
<polygon fill="black" stroke="black" points="1639.54,-47.28 1635.2,-37.61 1632.57,-47.87 1639.54,-47.28"/>
</g>
<!-- list_orders_add -->
<g id="node27" class="node">
<title>list_orders_add</title>
<ellipse fill="none" stroke="black" cx="2308.61" cy="-90" rx="69.03" ry="18"/>
<text text-anchor="middle" x="2308.61" y="-84.58" font-family="Times New Roman,serif" font-size="14.00">list_orders_add</text>
</g>
<!-- list_index_definition -->
<g id="node28" class="node">
<title>list_index_definition</title>
<ellipse fill="none" stroke="black" cx="2135.61" cy="-90" rx="85.49" ry="18"/>
<text text-anchor="middle" x="2135.61" y="-84.58" font-family="Times New Roman,serif" font-size="14.00">list_index_definition</text>
</g>
<!-- list_index_definition&#45;&gt;where -->
<g id="edge23" class="edge">
<title>list_index_definition&#45;&gt;where</title>
<path fill="none" stroke="black" d="M2076.13,-76.65C2008.28,-62.55 1899.11,-39.88 1839.94,-27.59"/>
<polygon fill="black" stroke="black" points="1840.78,-24.19 1830.28,-25.58 1839.36,-31.04 1840.78,-24.19"/>
</g>
<!-- list_index_definition&#45;&gt;order -->
<g id="edge24" class="edge">
<title>list_index_definition&#45;&gt;order</title>
<path fill="none" stroke="black" d="M2099.47,-73.29C2072.42,-61.53 2035.65,-45.54 2009.02,-33.96"/>
<polygon fill="black" stroke="black" points="2010.59,-30.83 2000.03,-30.05 2007.8,-37.25 2010.59,-30.83"/>
</g>
<!-- policy_scope -->
<g id="node29" class="node">
<title>policy_scope</title>
<ellipse fill="none" stroke="black" cx="2118.61" cy="-18" rx="61.04" ry="18"/>
<text text-anchor="middle" x="2118.61" y="-12.57" font-family="Times New Roman,serif" font-size="14.00">policy_scope</text>
</g>
<!-- list_index_definition&#45;&gt;policy_scope -->
<g id="edge21" class="edge">
<title>list_index_definition&#45;&gt;policy_scope</title>
<path fill="none" stroke="black" d="M2131.4,-71.7C2129.61,-64.32 2127.48,-55.52 2125.47,-47.25"/>
<polygon fill="black" stroke="black" points="2128.88,-46.47 2123.12,-37.58 2122.08,-48.12 2128.88,-46.47"/>
</g>
<!-- search_list -->
<g id="node30" class="node">
<title>search_list</title>
<ellipse fill="none" stroke="black" cx="2247.61" cy="-18" rx="50.07" ry="18"/>
<text text-anchor="middle" x="2247.61" y="-12.57" font-family="Times New Roman,serif" font-size="14.00">search_list</text>
</g>
<!-- list_index_definition&#45;&gt;search_list -->
<g id="edge22" class="edge">
<title>list_index_definition&#45;&gt;search_list</title>
<path fill="none" stroke="black" d="M2162.15,-72.41C2177.72,-62.68 2197.54,-50.29 2214.18,-39.89"/>
<polygon fill="black" stroke="black" points="2215.64,-43.11 2222.26,-34.84 2211.93,-37.17 2215.64,-43.11"/>
</g>
</g>
</svg>
