<?xml version="1.0" encoding="UTF-8" standalone="no"?>
<!DOCTYPE svg PUBLIC "-//W3C//DTD SVG 1.1//EN"
 "http://www.w3.org/Graphics/SVG/1.1/DTD/svg11.dtd">
<!-- Generated by graphviz version 9.0.0 (20230911.1827)
 -->
<!-- Title: CallGraph Pages: 1 -->
<svg width="899pt" height="116pt"
 viewBox="0.00 0.00 898.57 116.00" xmlns="http://www.w3.org/2000/svg" xmlns:xlink="http://www.w3.org/1999/xlink">
<g id="graph0" class="graph" transform="scale(1 1) rotate(0) translate(4 112)">
<title>CallGraph</title>
<polygon fill="white" stroke="none" points="-4,4 -4,-112 894.57,-112 894.57,4 -4,4"/>
<!-- show -->
<g id="node1" class="node">
<title>show</title>
<ellipse fill="none" stroke="black" cx="693.57" cy="-90" rx="30.61" ry="18"/>
<text text-anchor="middle" x="693.57" y="-84.58" font-family="Times New Roman,serif" font-size="14.00">show</text>
</g>
<!-- find -->
<g id="node2" class="node">
<title>find</title>
<ellipse fill="none" stroke="black" cx="506.57" cy="-18" rx="27" ry="18"/>
<text text-anchor="middle" x="506.57" y="-12.57" font-family="Times New Roman,serif" font-size="14.00">find</text>
</g>
<!-- show&#45;&gt;find -->
<g id="edge1" class="edge">
<title>show&#45;&gt;find</title>
<path fill="none" stroke="black" d="M667.07,-80.62C636.67,-70.8 585.49,-53.61 542.57,-36 541.05,-35.38 539.5,-34.72 537.94,-34.05"/>
<polygon fill="black" stroke="black" points="539.66,-30.98 529.1,-30.06 536.78,-37.36 539.66,-30.98"/>
</g>
<!-- viewable -->
<g id="node3" class="node">
<title>viewable</title>
<ellipse fill="none" stroke="black" cx="594.57" cy="-18" rx="42.58" ry="18"/>
<text text-anchor="middle" x="594.57" y="-12.57" font-family="Times New Roman,serif" font-size="14.00">viewable</text>
</g>
<!-- show&#45;&gt;viewable -->
<g id="edge2" class="edge">
<title>show&#45;&gt;viewable</title>
<path fill="none" stroke="black" d="M674.48,-75.5C660.39,-65.54 640.93,-51.78 624.74,-40.34"/>
<polygon fill="black" stroke="black" points="627.07,-37.7 616.89,-34.78 623.03,-43.41 627.07,-37.7"/>
</g>
<!-- to_json -->
<g id="node4" class="node">
<title>to_json</title>
<ellipse fill="none" stroke="black" cx="693.57" cy="-18" rx="38.59" ry="18"/>
<text text-anchor="middle" x="693.57" y="-12.57" font-family="Times New Roman,serif" font-size="14.00">to_json</text>
</g>
<!-- show&#45;&gt;to_json -->
<g id="edge3" class="edge">
<title>show&#45;&gt;to_json</title>
<path fill="none" stroke="black" d="M693.57,-71.7C693.57,-64.41 693.57,-55.73 693.57,-47.54"/>
<polygon fill="black" stroke="black" points="697.07,-47.62 693.57,-37.62 690.07,-47.62 697.07,-47.62"/>
</g>
<!-- render -->
<g id="node5" class="node">
<title>render</title>
<ellipse fill="none" stroke="black" cx="784.57" cy="-18" rx="34.1" ry="18"/>
<text text-anchor="middle" x="784.57" y="-12.57" font-family="Times New Roman,serif" font-size="14.00">render</text>
</g>
<!-- show&#45;&gt;render -->
<g id="edge4" class="edge">
<title>show&#45;&gt;render</title>
<path fill="none" stroke="black" d="M711.55,-75.17C724.59,-65.14 742.46,-51.39 757.25,-40.01"/>
<polygon fill="black" stroke="black" points="759.01,-43.08 764.8,-34.2 754.74,-37.53 759.01,-43.08"/>
</g>
<!-- join -->
<g id="node6" class="node">
<title>join</title>
<ellipse fill="none" stroke="black" cx="863.57" cy="-18" rx="27" ry="18"/>
<text text-anchor="middle" x="863.57" y="-12.57" font-family="Times New Roman,serif" font-size="14.00">join</text>
</g>
<!-- show&#45;&gt;join -->
<g id="edge5" class="edge">
<title>show&#45;&gt;join</title>
<path fill="none" stroke="black" d="M718.96,-79.52C746.06,-69.27 790.15,-52.21 827.57,-36 829.07,-35.35 830.61,-34.67 832.16,-33.98"/>
<polygon fill="black" stroke="black" points="833.35,-37.28 840.97,-29.93 830.43,-30.92 833.35,-37.28"/>
</g>
<!-- show_properties -->
<g id="node7" class="node">
<title>show_properties</title>
<ellipse fill="none" stroke="black" cx="332.57" cy="-90" rx="73.02" ry="18"/>
<text text-anchor="middle" x="332.57" y="-84.58" font-family="Times New Roman,serif" font-size="14.00">show_properties</text>
</g>
<!-- show_properties&#45;&gt;find -->
<g id="edge6" class="edge">
<title>show_properties&#45;&gt;find</title>
<path fill="none" stroke="black" d="M372.44,-74.58C400.17,-64.34 437.88,-49.97 470.57,-36 472.08,-35.35 473.62,-34.68 475.17,-34"/>
<polygon fill="black" stroke="black" points="476.35,-37.3 483.99,-29.96 473.44,-30.94 476.35,-37.3"/>
</g>
<!-- show_properties&#45;&gt;viewable -->
<g id="edge7" class="edge">
<title>show_properties&#45;&gt;viewable</title>
<path fill="none" stroke="black" d="M384.18,-77.02C426.86,-66.87 488.93,-51.52 542.57,-36 545.32,-35.2 548.15,-34.36 550.99,-33.49"/>
<polygon fill="black" stroke="black" points="552.01,-36.84 560.5,-30.5 549.91,-30.16 552.01,-36.84"/>
</g>
<!-- show_properties_document_path -->
<g id="node8" class="node">
<title>show_properties_document_path</title>
<ellipse fill="none" stroke="black" cx="325.57" cy="-18" rx="135.89" ry="18"/>
<text text-anchor="middle" x="325.57" y="-12.57" font-family="Times New Roman,serif" font-size="14.00">show_properties_document_path</text>
</g>
<!-- show_properties&#45;&gt;show_properties_document_path -->
<g id="edge8" class="edge">
<title>show_properties&#45;&gt;show_properties_document_path</title>
<path fill="none" stroke="black" d="M330.84,-71.7C330.11,-64.41 329.24,-55.73 328.42,-47.54"/>
<polygon fill="black" stroke="black" points="331.91,-47.21 327.43,-37.61 324.94,-47.91 331.91,-47.21"/>
</g>
<!-- t -->
<g id="node9" class="node">
<title>t</title>
<ellipse fill="none" stroke="black" cx="144.57" cy="-18" rx="27" ry="18"/>
<text text-anchor="middle" x="144.57" y="-12.57" font-family="Times New Roman,serif" font-size="14.00">t</text>
</g>
<!-- show_properties&#45;&gt;t -->
<g id="edge9" class="edge">
<title>show_properties&#45;&gt;t</title>
<path fill="none" stroke="black" d="M288.87,-75.12C258.24,-65.07 216.52,-50.71 180.57,-36 179.05,-35.38 177.5,-34.73 175.94,-34.05"/>
<polygon fill="black" stroke="black" points="177.66,-30.99 167.1,-30.07 174.78,-37.37 177.66,-30.99"/>
</g>
<!-- properties -->
<g id="node10" class="node">
<title>properties</title>
<ellipse fill="none" stroke="black" cx="582.57" cy="-90" rx="48.07" ry="18"/>
<text text-anchor="middle" x="582.57" y="-84.58" font-family="Times New Roman,serif" font-size="14.00">properties</text>
</g>
<!-- properties&#45;&gt;find -->
<g id="edge10" class="edge">
<title>properties&#45;&gt;find</title>
<path fill="none" stroke="black" d="M564.94,-72.76C554.7,-63.33 541.65,-51.32 530.49,-41.04"/>
<polygon fill="black" stroke="black" points="532.88,-38.48 523.15,-34.28 528.14,-43.62 532.88,-38.48"/>
</g>
<!-- properties&#45;&gt;to_json -->
<g id="edge11" class="edge">
<title>properties&#45;&gt;to_json</title>
<path fill="none" stroke="black" d="M606.38,-73.98C622.61,-63.75 644.28,-50.08 661.96,-38.93"/>
<polygon fill="black" stroke="black" points="663.43,-42.14 670.03,-33.85 659.7,-36.22 663.43,-42.14"/>
</g>
<!-- draw -->
<g id="node11" class="node">
<title>draw</title>
<ellipse fill="none" stroke="black" cx="459.57" cy="-90" rx="29.11" ry="18"/>
<text text-anchor="middle" x="459.57" y="-84.58" font-family="Times New Roman,serif" font-size="14.00">draw</text>
</g>
<!-- draw&#45;&gt;find -->
<g id="edge12" class="edge">
<title>draw&#45;&gt;find</title>
<path fill="none" stroke="black" d="M470.23,-73.12C475.94,-64.61 483.11,-53.94 489.56,-44.32"/>
<polygon fill="black" stroke="black" points="492.43,-46.33 495.1,-36.08 486.62,-42.43 492.43,-46.33"/>
</g>
<!-- draw&#45;&gt;show_properties_document_path -->
<g id="edge13" class="edge">
<title>draw&#45;&gt;show_properties_document_path</title>
<path fill="none" stroke="black" d="M437.74,-77.6C418.88,-67.74 391.07,-53.22 367.86,-41.09"/>
<polygon fill="black" stroke="black" points="369.73,-38.12 359.25,-36.59 366.49,-44.33 369.73,-38.12"/>
</g>
<!-- destroy -->
<g id="node12" class="node">
<title>destroy</title>
<ellipse fill="none" stroke="black" cx="177.57" cy="-90" rx="38.59" ry="18"/>
<text text-anchor="middle" x="177.57" y="-84.58" font-family="Times New Roman,serif" font-size="14.00">destroy</text>
</g>
<!-- destroy&#45;&gt;find -->
<g id="edge14" class="edge">
<title>destroy&#45;&gt;find</title>
<path fill="none" stroke="black" d="M211.27,-80.66C223.59,-77.74 237.67,-74.55 250.57,-72 347.76,-52.75 375.96,-65.44 470.57,-36 472.18,-35.5 473.8,-34.94 475.43,-34.34"/>
<polygon fill="black" stroke="black" points="476.75,-37.58 484.63,-30.49 474.05,-31.12 476.75,-37.58"/>
</g>
<!-- destroy&#45;&gt;show_properties_document_path -->
<g id="edge17" class="edge">
<title>destroy&#45;&gt;show_properties_document_path</title>
<path fill="none" stroke="black" d="M204.03,-76.49C225.05,-66.54 254.96,-52.4 279.84,-40.63"/>
<polygon fill="black" stroke="black" points="281.25,-43.83 288.79,-36.4 278.25,-37.51 281.25,-43.83"/>
</g>
<!-- destroy&#45;&gt;t -->
<g id="edge16" class="edge">
<title>destroy&#45;&gt;t</title>
<path fill="none" stroke="black" d="M169.58,-72.05C165.84,-64.12 161.29,-54.47 157.1,-45.59"/>
<polygon fill="black" stroke="black" points="160.33,-44.23 152.9,-36.68 154,-47.21 160.33,-44.23"/>
</g>
<!-- log_action -->
<g id="node13" class="node">
<title>log_action</title>
<ellipse fill="none" stroke="black" cx="49.57" cy="-18" rx="49.57" ry="18"/>
<text text-anchor="middle" x="49.57" y="-12.57" font-family="Times New Roman,serif" font-size="14.00">log_action</text>
</g>
<!-- destroy&#45;&gt;log_action -->
<g id="edge15" class="edge">
<title>destroy&#45;&gt;log_action</title>
<path fill="none" stroke="black" d="M153.19,-75.67C134.24,-65.31 107.65,-50.76 86.15,-39.01"/>
<polygon fill="black" stroke="black" points="87.84,-35.94 77.39,-34.21 84.48,-42.08 87.84,-35.94"/>
</g>
</g>
</svg>
