<?xml version="1.0" encoding="UTF-8" standalone="no"?>
<!DOCTYPE svg PUBLIC "-//W3C//DTD SVG 1.1//EN"
 "http://www.w3.org/Graphics/SVG/1.1/DTD/svg11.dtd">
<!-- Generated by graphviz version 9.0.0 (20230911.1827)
 -->
<!-- Title: CallGraph Pages: 1 -->
<svg width="1052pt" height="116pt"
 viewBox="0.00 0.00 1052.02 116.00" xmlns="http://www.w3.org/2000/svg" xmlns:xlink="http://www.w3.org/1999/xlink">
<g id="graph0" class="graph" transform="scale(1 1) rotate(0) translate(4 112)">
<title>CallGraph</title>
<polygon fill="white" stroke="none" points="-4,4 -4,-112 1048.02,-112 1048.02,4 -4,4"/>
<!-- create -->
<g id="node1" class="node">
<title>create</title>
<ellipse fill="none" stroke="black" cx="502.02" cy="-90" rx="32.6" ry="18"/>
<text text-anchor="middle" x="502.02" y="-84.58" font-family="Times New Roman,serif" font-size="14.00">create</text>
</g>
<!-- invite -->
<g id="node2" class="node">
<title>invite</title>
<ellipse fill="none" stroke="black" cx="502.02" cy="-18" rx="30.11" ry="18"/>
<text text-anchor="middle" x="502.02" y="-12.57" font-family="Times New Roman,serif" font-size="14.00">invite</text>
</g>
<!-- create&#45;&gt;invite -->
<g id="edge1" class="edge">
<title>create&#45;&gt;invite</title>
<path fill="none" stroke="black" d="M502.02,-71.7C502.02,-64.41 502.02,-55.73 502.02,-47.54"/>
<polygon fill="black" stroke="black" points="505.52,-47.62 502.02,-37.62 498.52,-47.62 505.52,-47.62"/>
</g>
<!-- t -->
<g id="node3" class="node">
<title>t</title>
<ellipse fill="none" stroke="black" cx="577.02" cy="-18" rx="27" ry="18"/>
<text text-anchor="middle" x="577.02" y="-12.57" font-family="Times New Roman,serif" font-size="14.00">t</text>
</g>
<!-- create&#45;&gt;t -->
<g id="edge2" class="edge">
<title>create&#45;&gt;t</title>
<path fill="none" stroke="black" d="M517.93,-74.15C528.28,-64.5 541.95,-51.73 553.54,-40.92"/>
<polygon fill="black" stroke="black" points="555.88,-43.52 560.8,-34.14 551.1,-38.4 555.88,-43.52"/>
</g>
<!-- respond_with_navigational -->
<g id="node4" class="node">
<title>respond_with_navigational</title>
<ellipse fill="none" stroke="black" cx="344.02" cy="-18" rx="109.95" ry="18"/>
<text text-anchor="middle" x="344.02" y="-12.57" font-family="Times New Roman,serif" font-size="14.00">respond_with_navigational</text>
</g>
<!-- create&#45;&gt;respond_with_navigational -->
<g id="edge3" class="edge">
<title>create&#45;&gt;respond_with_navigational</title>
<path fill="none" stroke="black" d="M476.99,-77.91C454.07,-67.76 419.55,-52.46 391.43,-40"/>
<polygon fill="black" stroke="black" points="392.94,-36.85 382.38,-35.99 390.11,-43.25 392.94,-36.85"/>
</g>
<!-- send_invitation -->
<g id="node5" class="node">
<title>send_invitation</title>
<ellipse fill="none" stroke="black" cx="189.02" cy="-90" rx="66.53" ry="18"/>
<text text-anchor="middle" x="189.02" y="-84.58" font-family="Times New Roman,serif" font-size="14.00">send_invitation</text>
</g>
<!-- send_invitation&#45;&gt;t -->
<g id="edge6" class="edge">
<title>send_invitation&#45;&gt;t</title>
<path fill="none" stroke="black" d="M253.2,-84.97C324.72,-79.2 443.17,-65.77 541.02,-36 542.63,-35.51 544.26,-34.96 545.9,-34.36"/>
<polygon fill="black" stroke="black" points="547.21,-37.61 555.09,-30.53 544.52,-31.15 547.21,-37.61"/>
</g>
<!-- find -->
<g id="node6" class="node">
<title>find</title>
<ellipse fill="none" stroke="black" cx="189.02" cy="-18" rx="27" ry="18"/>
<text text-anchor="middle" x="189.02" y="-12.57" font-family="Times New Roman,serif" font-size="14.00">find</text>
</g>
<!-- send_invitation&#45;&gt;find -->
<g id="edge4" class="edge">
<title>send_invitation&#45;&gt;find</title>
<path fill="none" stroke="black" d="M189.02,-71.7C189.02,-64.41 189.02,-55.73 189.02,-47.54"/>
<polygon fill="black" stroke="black" points="192.52,-47.62 189.02,-37.62 185.52,-47.62 192.52,-47.62"/>
</g>
<!-- flash_x_success -->
<g id="node7" class="node">
<title>flash_x_success</title>
<ellipse fill="none" stroke="black" cx="72.02" cy="-18" rx="72.02" ry="18"/>
<text text-anchor="middle" x="72.02" y="-12.57" font-family="Times New Roman,serif" font-size="14.00">flash_x_success</text>
</g>
<!-- send_invitation&#45;&gt;flash_x_success -->
<g id="edge5" class="edge">
<title>send_invitation&#45;&gt;flash_x_success</title>
<path fill="none" stroke="black" d="M162.47,-73.12C146.58,-63.61 126.15,-51.38 108.72,-40.96"/>
<polygon fill="black" stroke="black" points="110.55,-37.97 100.17,-35.84 106.95,-43.98 110.55,-37.97"/>
</g>
<!-- send_all_invitations -->
<g id="node8" class="node">
<title>send_all_invitations</title>
<ellipse fill="none" stroke="black" cx="689.02" cy="-90" rx="83.5" ry="18"/>
<text text-anchor="middle" x="689.02" y="-84.58" font-family="Times New Roman,serif" font-size="14.00">send_all_invitations</text>
</g>
<!-- send_all_invitations&#45;&gt;t -->
<g id="edge9" class="edge">
<title>send_all_invitations&#45;&gt;t</title>
<path fill="none" stroke="black" d="M662.76,-72.59C645.68,-61.91 623.4,-47.99 605.84,-37.01"/>
<polygon fill="black" stroke="black" points="607.73,-34.07 597.4,-31.73 604.02,-40 607.73,-34.07"/>
</g>
<!-- not -->
<g id="node9" class="node">
<title>not</title>
<ellipse fill="none" stroke="black" cx="801.02" cy="-18" rx="27" ry="18"/>
<text text-anchor="middle" x="801.02" y="-12.57" font-family="Times New Roman,serif" font-size="14.00">not</text>
</g>
<!-- send_all_invitations&#45;&gt;not -->
<g id="edge7" class="edge">
<title>send_all_invitations&#45;&gt;not</title>
<path fill="none" stroke="black" d="M715.28,-72.59C732.36,-61.91 754.64,-47.99 772.21,-37.01"/>
<polygon fill="black" stroke="black" points="774.02,-40 780.65,-31.73 770.31,-34.07 774.02,-40"/>
</g>
<!-- perform_async -->
<g id="node10" class="node">
<title>perform_async</title>
<ellipse fill="none" stroke="black" cx="689.02" cy="-18" rx="67.03" ry="18"/>
<text text-anchor="middle" x="689.02" y="-12.57" font-family="Times New Roman,serif" font-size="14.00">perform_async</text>
</g>
<!-- send_all_invitations&#45;&gt;perform_async -->
<g id="edge8" class="edge">
<title>send_all_invitations&#45;&gt;perform_async</title>
<path fill="none" stroke="black" d="M689.02,-71.7C689.02,-64.41 689.02,-55.73 689.02,-47.54"/>
<polygon fill="black" stroke="black" points="692.52,-47.62 689.02,-37.62 685.52,-47.62 692.52,-47.62"/>
</g>
<!-- invite_resource -->
<g id="node11" class="node">
<title>invite_resource</title>
<ellipse fill="none" stroke="black" cx="909.02" cy="-90" rx="67.03" ry="18"/>
<text text-anchor="middle" x="909.02" y="-84.58" font-family="Times New Roman,serif" font-size="14.00">invite_resource</text>
</g>
<!-- invite_resource&#45;&gt;t -->
<g id="edge12" class="edge">
<title>invite_resource&#45;&gt;t</title>
<path fill="none" stroke="black" d="M851.32,-80.52C778.18,-69.45 656.41,-49.86 613.02,-36 611.42,-35.49 609.79,-34.92 608.16,-34.31"/>
<polygon fill="black" stroke="black" points="609.55,-31.1 598.98,-30.44 606.83,-37.55 609.55,-31.1"/>
</g>
<!-- new -->
<g id="node12" class="node">
<title>new</title>
<ellipse fill="none" stroke="black" cx="1017.02" cy="-18" rx="27" ry="18"/>
<text text-anchor="middle" x="1017.02" y="-12.57" font-family="Times New Roman,serif" font-size="14.00">new</text>
</g>
<!-- invite_resource&#45;&gt;new -->
<g id="edge10" class="edge">
<title>invite_resource&#45;&gt;new</title>
<path fill="none" stroke="black" d="M933.8,-72.94C950.15,-62.35 971.6,-48.44 988.64,-37.4"/>
<polygon fill="black" stroke="black" points="990.33,-40.47 996.81,-32.1 986.52,-34.6 990.33,-40.47"/>
</g>
<!-- can_add_user -->
<g id="node13" class="node">
<title>can_add_user</title>
<ellipse fill="none" stroke="black" cx="909.02" cy="-18" rx="63.04" ry="18"/>
<text text-anchor="middle" x="909.02" y="-12.57" font-family="Times New Roman,serif" font-size="14.00">can_add_user</text>
</g>
<!-- invite_resource&#45;&gt;can_add_user -->
<g id="edge11" class="edge">
<title>invite_resource&#45;&gt;can_add_user</title>
<path fill="none" stroke="black" d="M909.02,-71.7C909.02,-64.41 909.02,-55.73 909.02,-47.54"/>
<polygon fill="black" stroke="black" points="912.52,-47.62 909.02,-37.62 905.52,-47.62 912.52,-47.62"/>
</g>
</g>
</svg>
