<?xml version="1.0" encoding="UTF-8" standalone="no"?>
<!DOCTYPE svg PUBLIC "-//W3C//DTD SVG 1.1//EN"
 "http://www.w3.org/Graphics/SVG/1.1/DTD/svg11.dtd">
<!-- Generated by graphviz version 9.0.0 (20230911.1827)
 -->
<!-- Title: CallGraph Pages: 1 -->
<svg width="1107pt" height="116pt"
 viewBox="0.00 0.00 1107.48 116.00" xmlns="http://www.w3.org/2000/svg" xmlns:xlink="http://www.w3.org/1999/xlink">
<g id="graph0" class="graph" transform="scale(1 1) rotate(0) translate(4 112)">
<title>CallGraph</title>
<polygon fill="white" stroke="none" points="-4,4 -4,-112 1103.48,-112 1103.48,4 -4,4"/>
<!-- index -->
<g id="node1" class="node">
<title>index</title>
<ellipse fill="none" stroke="black" cx="86" cy="-90" rx="30.61" ry="18"/>
<text text-anchor="middle" x="86" y="-84.58" font-family="Times New Roman,serif" font-size="14.00">index</text>
</g>
<!-- new -->
<g id="node2" class="node">
<title>new</title>
<ellipse fill="none" stroke="black" cx="27" cy="-18" rx="27" ry="18"/>
<text text-anchor="middle" x="27" y="-12.57" font-family="Times New Roman,serif" font-size="14.00">new</text>
</g>
<!-- create -->
<g id="node3" class="node">
<title>create</title>
<ellipse fill="none" stroke="black" cx="167" cy="-90" rx="32.6" ry="18"/>
<text text-anchor="middle" x="167" y="-84.58" font-family="Times New Roman,serif" font-size="14.00">create</text>
</g>
<!-- create&#45;&gt;new -->
<g id="edge1" class="edge">
<title>create&#45;&gt;new</title>
<path fill="none" stroke="black" d="M143.25,-77.13C119.8,-65.4 83.82,-47.41 58.1,-34.55"/>
<polygon fill="black" stroke="black" points="59.98,-31.58 49.47,-30.23 56.85,-37.84 59.98,-31.58"/>
</g>
<!-- t -->
<g id="node4" class="node">
<title>t</title>
<ellipse fill="none" stroke="black" cx="379" cy="-18" rx="27" ry="18"/>
<text text-anchor="middle" x="379" y="-12.57" font-family="Times New Roman,serif" font-size="14.00">t</text>
</g>
<!-- create&#45;&gt;t -->
<g id="edge2" class="edge">
<title>create&#45;&gt;t</title>
<path fill="none" stroke="black" d="M191.95,-78.04C197.2,-75.91 202.75,-73.78 208,-72 266.81,-52.06 284.69,-57.34 343,-36 344.54,-35.44 346.11,-34.83 347.68,-34.19"/>
<polygon fill="black" stroke="black" points="348.8,-37.53 356.56,-30.32 346,-31.11 348.8,-37.53"/>
</g>
<!-- edit_ldap_setting_path -->
<g id="node5" class="node">
<title>edit_ldap_setting_path</title>
<ellipse fill="none" stroke="black" cx="167" cy="-18" rx="94.98" ry="18"/>
<text text-anchor="middle" x="167" y="-12.57" font-family="Times New Roman,serif" font-size="14.00">edit_ldap_setting_path</text>
</g>
<!-- create&#45;&gt;edit_ldap_setting_path -->
<g id="edge3" class="edge">
<title>create&#45;&gt;edit_ldap_setting_path</title>
<path fill="none" stroke="black" d="M167,-71.7C167,-64.41 167,-55.73 167,-47.54"/>
<polygon fill="black" stroke="black" points="170.5,-47.62 167,-37.62 163.5,-47.62 170.5,-47.62"/>
</g>
<!-- join -->
<g id="node6" class="node">
<title>join</title>
<ellipse fill="none" stroke="black" cx="307" cy="-18" rx="27" ry="18"/>
<text text-anchor="middle" x="307" y="-12.57" font-family="Times New Roman,serif" font-size="14.00">join</text>
</g>
<!-- create&#45;&gt;join -->
<g id="edge4" class="edge">
<title>create&#45;&gt;join</title>
<path fill="none" stroke="black" d="M190.75,-77.13C214.2,-65.4 250.18,-47.41 275.9,-34.55"/>
<polygon fill="black" stroke="black" points="277.15,-37.84 284.53,-30.23 274.02,-31.58 277.15,-37.84"/>
</g>
<!-- edit -->
<g id="node7" class="node">
<title>edit</title>
<ellipse fill="none" stroke="black" cx="542" cy="-90" rx="27" ry="18"/>
<text text-anchor="middle" x="542" y="-84.58" font-family="Times New Roman,serif" font-size="14.00">edit</text>
</g>
<!-- update -->
<g id="node8" class="node">
<title>update</title>
<ellipse fill="none" stroke="black" cx="253" cy="-90" rx="35.6" ry="18"/>
<text text-anchor="middle" x="253" y="-84.58" font-family="Times New Roman,serif" font-size="14.00">update</text>
</g>
<!-- update&#45;&gt;t -->
<g id="edge6" class="edge">
<title>update&#45;&gt;t</title>
<path fill="none" stroke="black" d="M276.4,-76C296.8,-64.67 326.51,-48.16 348.72,-35.82"/>
<polygon fill="black" stroke="black" points="350.27,-38.96 357.31,-31.05 346.87,-32.85 350.27,-38.96"/>
</g>
<!-- update&#45;&gt;edit_ldap_setting_path -->
<g id="edge7" class="edge">
<title>update&#45;&gt;edit_ldap_setting_path</title>
<path fill="none" stroke="black" d="M234.76,-74.15C223.73,-65.18 209.4,-53.52 196.77,-43.23"/>
<polygon fill="black" stroke="black" points="199.07,-40.59 189.11,-37 194.65,-46.02 199.07,-40.59"/>
</g>
<!-- update&#45;&gt;join -->
<g id="edge8" class="edge">
<title>update&#45;&gt;join</title>
<path fill="none" stroke="black" d="M265.52,-72.76C272.32,-63.95 280.86,-52.88 288.42,-43.08"/>
<polygon fill="black" stroke="black" points="291.02,-45.44 294.36,-35.39 285.48,-41.17 291.02,-45.44"/>
</g>
<!-- update&#45;&gt;update -->
<g id="edge5" class="edge">
<title>update&#45;&gt;update</title>
<path fill="none" stroke="black" d="M278.92,-102.85C293.33,-105.25 306.6,-100.97 306.6,-90 306.6,-82.03 299.59,-77.59 290.23,-76.68"/>
<polygon fill="black" stroke="black" points="290.28,-73.17 280.43,-77.08 290.57,-80.17 290.28,-73.17"/>
</g>
<!-- destroy -->
<g id="node9" class="node">
<title>destroy</title>
<ellipse fill="none" stroke="black" cx="363" cy="-90" rx="38.59" ry="18"/>
<text text-anchor="middle" x="363" y="-84.58" font-family="Times New Roman,serif" font-size="14.00">destroy</text>
</g>
<!-- destroy&#45;&gt;t -->
<g id="edge9" class="edge">
<title>destroy&#45;&gt;t</title>
<path fill="none" stroke="black" d="M366.96,-71.7C368.64,-64.32 370.65,-55.52 372.54,-47.25"/>
<polygon fill="black" stroke="black" points="375.94,-48.11 374.75,-37.58 369.11,-46.55 375.94,-48.11"/>
</g>
<!-- destroy&#45;&gt;join -->
<g id="edge10" class="edge">
<title>destroy&#45;&gt;join</title>
<path fill="none" stroke="black" d="M350.01,-72.76C342.96,-63.95 334.1,-52.88 326.26,-43.08"/>
<polygon fill="black" stroke="black" points="329.08,-40.99 320.1,-35.37 323.61,-45.37 329.08,-40.99"/>
</g>
<!-- activate -->
<g id="node10" class="node">
<title>activate</title>
<ellipse fill="none" stroke="black" cx="458" cy="-90" rx="38.59" ry="18"/>
<text text-anchor="middle" x="458" y="-84.58" font-family="Times New Roman,serif" font-size="14.00">activate</text>
</g>
<!-- activate&#45;&gt;t -->
<g id="edge12" class="edge">
<title>activate&#45;&gt;t</title>
<path fill="none" stroke="black" d="M440.86,-73.81C429.83,-64.04 415.34,-51.2 403.15,-40.4"/>
<polygon fill="black" stroke="black" points="405.7,-37.99 395.9,-33.97 401.06,-43.23 405.7,-37.99"/>
</g>
<!-- activate&#45;&gt;join -->
<g id="edge13" class="edge">
<title>activate&#45;&gt;join</title>
<path fill="none" stroke="black" d="M431.01,-76.65C407.69,-65.95 373.08,-50.03 343,-36 341.7,-35.39 340.37,-34.77 339.02,-34.14"/>
<polygon fill="black" stroke="black" points="340.6,-31.01 330.06,-29.92 337.62,-37.35 340.6,-31.01"/>
</g>
<!-- toggle -->
<g id="node11" class="node">
<title>toggle</title>
<ellipse fill="none" stroke="black" cx="458" cy="-18" rx="33.1" ry="18"/>
<text text-anchor="middle" x="458" y="-12.57" font-family="Times New Roman,serif" font-size="14.00">toggle</text>
</g>
<!-- activate&#45;&gt;toggle -->
<g id="edge11" class="edge">
<title>activate&#45;&gt;toggle</title>
<path fill="none" stroke="black" d="M458,-71.7C458,-64.41 458,-55.73 458,-47.54"/>
<polygon fill="black" stroke="black" points="461.5,-47.62 458,-37.62 454.5,-47.62 461.5,-47.62"/>
</g>
<!-- check_policies -->
<g id="node12" class="node">
<title>check_policies</title>
<ellipse fill="none" stroke="black" cx="653" cy="-90" rx="66.03" ry="18"/>
<text text-anchor="middle" x="653" y="-84.58" font-family="Times New Roman,serif" font-size="14.00">check_policies</text>
</g>
<!-- load_ldap_settings -->
<g id="node13" class="node">
<title>load_ldap_settings</title>
<ellipse fill="none" stroke="black" cx="818" cy="-90" rx="80.5" ry="18"/>
<text text-anchor="middle" x="818" y="-84.58" font-family="Times New Roman,serif" font-size="14.00">load_ldap_settings</text>
</g>
<!-- find -->
<g id="node14" class="node">
<title>find</title>
<ellipse fill="none" stroke="black" cx="818" cy="-18" rx="27" ry="18"/>
<text text-anchor="middle" x="818" y="-12.57" font-family="Times New Roman,serif" font-size="14.00">find</text>
</g>
<!-- load_ldap_settings&#45;&gt;find -->
<g id="edge14" class="edge">
<title>load_ldap_settings&#45;&gt;find</title>
<path fill="none" stroke="black" d="M818,-71.7C818,-64.41 818,-55.73 818,-47.54"/>
<polygon fill="black" stroke="black" points="821.5,-47.62 818,-37.62 814.5,-47.62 821.5,-47.62"/>
</g>
<!-- ldap_settings_params -->
<g id="node15" class="node">
<title>ldap_settings_params</title>
<ellipse fill="none" stroke="black" cx="1008" cy="-90" rx="91.48" ry="18"/>
<text text-anchor="middle" x="1008" y="-84.58" font-family="Times New Roman,serif" font-size="14.00">ldap_settings_params</text>
</g>
<!-- require -->
<g id="node16" class="node">
<title>require</title>
<ellipse fill="none" stroke="black" cx="964" cy="-18" rx="36.09" ry="18"/>
<text text-anchor="middle" x="964" y="-12.57" font-family="Times New Roman,serif" font-size="14.00">require</text>
</g>
<!-- ldap_settings_params&#45;&gt;require -->
<g id="edge15" class="edge">
<title>ldap_settings_params&#45;&gt;require</title>
<path fill="none" stroke="black" d="M997.12,-71.7C992.09,-63.7 986.01,-54.02 980.44,-45.15"/>
<polygon fill="black" stroke="black" points="983.54,-43.51 975.25,-36.9 977.61,-47.23 983.54,-43.51"/>
</g>
<!-- permit -->
<g id="node17" class="node">
<title>permit</title>
<ellipse fill="none" stroke="black" cx="1052" cy="-18" rx="34.1" ry="18"/>
<text text-anchor="middle" x="1052" y="-12.57" font-family="Times New Roman,serif" font-size="14.00">permit</text>
</g>
<!-- ldap_settings_params&#45;&gt;permit -->
<g id="edge16" class="edge">
<title>ldap_settings_params&#45;&gt;permit</title>
<path fill="none" stroke="black" d="M1018.88,-71.7C1023.91,-63.7 1029.99,-54.02 1035.56,-45.15"/>
<polygon fill="black" stroke="black" points="1038.39,-47.23 1040.75,-36.9 1032.46,-43.51 1038.39,-47.23"/>
</g>
</g>
</svg>
