<?xml version="1.0" encoding="UTF-8" standalone="no"?>
<!DOCTYPE svg PUBLIC "-//W3C//DTD SVG 1.1//EN"
 "http://www.w3.org/Graphics/SVG/1.1/DTD/svg11.dtd">
<!-- Generated by graphviz version 9.0.0 (20230911.1827)
 -->
<!-- Title: CallGraph Pages: 1 -->
<svg width="341pt" height="116pt"
 viewBox="0.00 0.00 340.61 116.00" xmlns="http://www.w3.org/2000/svg" xmlns:xlink="http://www.w3.org/1999/xlink">
<g id="graph0" class="graph" transform="scale(1 1) rotate(0) translate(4 112)">
<title>CallGraph</title>
<polygon fill="white" stroke="none" points="-4,4 -4,-112 336.61,-112 336.61,4 -4,4"/>
<!-- create -->
<g id="node1" class="node">
<title>create</title>
<ellipse fill="none" stroke="black" cx="38.09" cy="-90" rx="32.6" ry="18"/>
<text text-anchor="middle" x="38.09" y="-84.58" font-family="Times New Roman,serif" font-size="14.00">create</text>
</g>
<!-- log_the -->
<g id="node2" class="node">
<title>log_the</title>
<ellipse fill="none" stroke="black" cx="38.09" cy="-18" rx="38.09" ry="18"/>
<text text-anchor="middle" x="38.09" y="-12.57" font-family="Times New Roman,serif" font-size="14.00">log_the</text>
</g>
<!-- create&#45;&gt;log_the -->
<g id="edge1" class="edge">
<title>create&#45;&gt;log_the</title>
<path fill="none" stroke="black" d="M38.09,-71.7C38.09,-64.41 38.09,-55.73 38.09,-47.54"/>
<polygon fill="black" stroke="black" points="41.59,-47.62 38.09,-37.62 34.59,-47.62 41.59,-47.62"/>
</g>
<!-- message -->
<g id="node3" class="node">
<title>message</title>
<ellipse fill="none" stroke="black" cx="131.09" cy="-90" rx="42.08" ry="18"/>
<text text-anchor="middle" x="131.09" y="-84.58" font-family="Times New Roman,serif" font-size="14.00">message</text>
</g>
<!-- missing_params -->
<g id="node4" class="node">
<title>missing_params</title>
<ellipse fill="none" stroke="black" cx="262.09" cy="-90" rx="70.52" ry="18"/>
<text text-anchor="middle" x="262.09" y="-84.58" font-family="Times New Roman,serif" font-size="14.00">missing_params</text>
</g>
<!-- permit -->
<g id="node5" class="node">
<title>permit</title>
<ellipse fill="none" stroke="black" cx="262.09" cy="-18" rx="34.1" ry="18"/>
<text text-anchor="middle" x="262.09" y="-12.57" font-family="Times New Roman,serif" font-size="14.00">permit</text>
</g>
<!-- missing_params&#45;&gt;permit -->
<g id="edge2" class="edge">
<title>missing_params&#45;&gt;permit</title>
<path fill="none" stroke="black" d="M262.09,-71.7C262.09,-64.41 262.09,-55.73 262.09,-47.54"/>
<polygon fill="black" stroke="black" points="265.59,-47.62 262.09,-37.62 258.59,-47.62 265.59,-47.62"/>
</g>
</g>
</svg>
