<?xml version="1.0" encoding="UTF-8" standalone="no"?>
<!DOCTYPE svg PUBLIC "-//W3C//DTD SVG 1.1//EN"
 "http://www.w3.org/Graphics/SVG/1.1/DTD/svg11.dtd">
<!-- Generated by graphviz version 9.0.0 (20230911.1827)
 -->
<!-- Title: CallGraph Pages: 1 -->
<svg width="2791pt" height="188pt"
 viewBox="0.00 0.00 2790.63 188.00" xmlns="http://www.w3.org/2000/svg" xmlns:xlink="http://www.w3.org/1999/xlink">
<g id="graph0" class="graph" transform="scale(1 1) rotate(0) translate(4 184)">
<title>CallGraph</title>
<polygon fill="white" stroke="none" points="-4,4 -4,-184 2786.63,-184 2786.63,4 -4,4"/>
<!-- index -->
<g id="node1" class="node">
<title>index</title>
<ellipse fill="none" stroke="black" cx="30.61" cy="-162" rx="30.61" ry="18"/>
<text text-anchor="middle" x="30.61" y="-156.57" font-family="Times New Roman,serif" font-size="14.00">index</text>
</g>
<!-- preview -->
<g id="node2" class="node">
<title>preview</title>
<ellipse fill="none" stroke="black" cx="118.61" cy="-162" rx="39.59" ry="18"/>
<text text-anchor="middle" x="118.61" y="-156.57" font-family="Times New Roman,serif" font-size="14.00">preview</text>
</g>
<!-- delete -->
<g id="node3" class="node">
<title>delete</title>
<ellipse fill="none" stroke="black" cx="606.61" cy="-162" rx="32.1" ry="18"/>
<text text-anchor="middle" x="606.61" y="-156.57" font-family="Times New Roman,serif" font-size="14.00">delete</text>
</g>
<!-- list_selection -->
<g id="node4" class="node">
<title>list_selection</title>
<ellipse fill="none" stroke="black" cx="497.61" cy="-90" rx="58.55" ry="18"/>
<text text-anchor="middle" x="497.61" y="-84.58" font-family="Times New Roman,serif" font-size="14.00">list_selection</text>
</g>
<!-- delete&#45;&gt;list_selection -->
<g id="edge1" class="edge">
<title>delete&#45;&gt;list_selection</title>
<path fill="none" stroke="black" d="M586.1,-147.83C570.81,-138.01 549.56,-124.36 531.72,-112.91"/>
<polygon fill="black" stroke="black" points="533.79,-110.08 523.49,-107.62 530.01,-115.97 533.79,-110.08"/>
</g>
<!-- t -->
<g id="node5" class="node">
<title>t</title>
<ellipse fill="none" stroke="black" cx="606.61" cy="-90" rx="27" ry="18"/>
<text text-anchor="middle" x="606.61" y="-84.58" font-family="Times New Roman,serif" font-size="14.00">t</text>
</g>
<!-- delete&#45;&gt;t -->
<g id="edge2" class="edge">
<title>delete&#45;&gt;t</title>
<path fill="none" stroke="black" d="M606.61,-143.7C606.61,-136.41 606.61,-127.73 606.61,-119.54"/>
<polygon fill="black" stroke="black" points="610.11,-119.62 606.61,-109.62 603.11,-119.62 610.11,-119.62"/>
</g>
<!-- mark_read -->
<g id="node6" class="node">
<title>mark_read</title>
<ellipse fill="none" stroke="black" cx="370.61" cy="-162" rx="50.07" ry="18"/>
<text text-anchor="middle" x="370.61" y="-156.57" font-family="Times New Roman,serif" font-size="14.00">mark_read</text>
</g>
<!-- mark_read&#45;&gt;list_selection -->
<g id="edge3" class="edge">
<title>mark_read&#45;&gt;list_selection</title>
<path fill="none" stroke="black" d="M397.23,-146.33C415.52,-136.24 440.06,-122.72 460.3,-111.56"/>
<polygon fill="black" stroke="black" points="461.75,-114.76 468.81,-106.87 458.37,-108.63 461.75,-114.76"/>
</g>
<!-- each -->
<g id="node7" class="node">
<title>each</title>
<ellipse fill="none" stroke="black" cx="370.61" cy="-90" rx="27.61" ry="18"/>
<text text-anchor="middle" x="370.61" y="-84.58" font-family="Times New Roman,serif" font-size="14.00">each</text>
</g>
<!-- mark_read&#45;&gt;each -->
<g id="edge4" class="edge">
<title>mark_read&#45;&gt;each</title>
<path fill="none" stroke="black" d="M370.61,-143.7C370.61,-136.41 370.61,-127.73 370.61,-119.54"/>
<polygon fill="black" stroke="black" points="374.11,-119.62 370.61,-109.62 367.11,-119.62 374.11,-119.62"/>
</g>
<!-- mark_read_old -->
<g id="node8" class="node">
<title>mark_read_old</title>
<ellipse fill="none" stroke="black" cx="723.61" cy="-162" rx="67.03" ry="18"/>
<text text-anchor="middle" x="723.61" y="-156.57" font-family="Times New Roman,serif" font-size="14.00">mark_read_old</text>
</g>
<!-- find -->
<g id="node9" class="node">
<title>find</title>
<ellipse fill="none" stroke="black" cx="782.61" cy="-90" rx="27" ry="18"/>
<text text-anchor="middle" x="782.61" y="-84.58" font-family="Times New Roman,serif" font-size="14.00">find</text>
</g>
<!-- mark_read_old&#45;&gt;find -->
<g id="edge5" class="edge">
<title>mark_read_old&#45;&gt;find</title>
<path fill="none" stroke="black" d="M737.89,-144.05C745.33,-135.22 754.55,-124.28 762.69,-114.63"/>
<polygon fill="black" stroke="black" points="765.31,-116.95 769.08,-107.05 759.96,-112.44 765.31,-116.95"/>
</g>
<!-- mark_all_read -->
<g id="node10" class="node">
<title>mark_all_read</title>
<ellipse fill="none" stroke="black" cx="239.61" cy="-162" rx="63.04" ry="18"/>
<text text-anchor="middle" x="239.61" y="-156.57" font-family="Times New Roman,serif" font-size="14.00">mark_all_read</text>
</g>
<!-- mark_all_read&#45;&gt;each -->
<g id="edge6" class="edge">
<title>mark_all_read&#45;&gt;each</title>
<path fill="none" stroke="black" d="M268.35,-145.64C289.45,-134.36 318.08,-119.07 339.67,-107.53"/>
<polygon fill="black" stroke="black" points="341.14,-110.71 348.31,-102.91 337.84,-104.54 341.14,-110.71"/>
</g>
<!-- mark_unread -->
<g id="node11" class="node">
<title>mark_unread</title>
<ellipse fill="none" stroke="black" cx="497.61" cy="-162" rx="59.05" ry="18"/>
<text text-anchor="middle" x="497.61" y="-156.57" font-family="Times New Roman,serif" font-size="14.00">mark_unread</text>
</g>
<!-- mark_unread&#45;&gt;list_selection -->
<g id="edge7" class="edge">
<title>mark_unread&#45;&gt;list_selection</title>
<path fill="none" stroke="black" d="M497.61,-143.7C497.61,-136.41 497.61,-127.73 497.61,-119.54"/>
<polygon fill="black" stroke="black" points="501.11,-119.62 497.61,-109.62 494.11,-119.62 501.11,-119.62"/>
</g>
<!-- mark_unread&#45;&gt;each -->
<g id="edge8" class="edge">
<title>mark_unread&#45;&gt;each</title>
<path fill="none" stroke="black" d="M470.05,-145.81C449.7,-134.6 422.02,-119.34 401.02,-107.77"/>
<polygon fill="black" stroke="black" points="402.8,-104.75 392.35,-102.99 399.42,-110.88 402.8,-104.75"/>
</g>
<!-- refresh_counter -->
<g id="node12" class="node">
<title>refresh_counter</title>
<ellipse fill="none" stroke="black" cx="963.61" cy="-162" rx="69.03" ry="18"/>
<text text-anchor="middle" x="963.61" y="-156.57" font-family="Times New Roman,serif" font-size="14.00">refresh_counter</text>
</g>
<!-- where -->
<g id="node13" class="node">
<title>where</title>
<ellipse fill="none" stroke="black" cx="963.61" cy="-90" rx="32.6" ry="18"/>
<text text-anchor="middle" x="963.61" y="-84.58" font-family="Times New Roman,serif" font-size="14.00">where</text>
</g>
<!-- refresh_counter&#45;&gt;where -->
<g id="edge9" class="edge">
<title>refresh_counter&#45;&gt;where</title>
<path fill="none" stroke="black" d="M963.61,-143.7C963.61,-136.41 963.61,-127.73 963.61,-119.54"/>
<polygon fill="black" stroke="black" points="967.11,-119.62 963.61,-109.62 960.11,-119.62 967.11,-119.62"/>
</g>
<!-- follow -->
<g id="node14" class="node">
<title>follow</title>
<ellipse fill="none" stroke="black" cx="842.61" cy="-162" rx="34.1" ry="18"/>
<text text-anchor="middle" x="842.61" y="-156.57" font-family="Times New Roman,serif" font-size="14.00">follow</text>
</g>
<!-- follow&#45;&gt;find -->
<g id="edge10" class="edge">
<title>follow&#45;&gt;find</title>
<path fill="none" stroke="black" d="M828.99,-145.12C821.26,-136.1 811.44,-124.64 802.82,-114.59"/>
<polygon fill="black" stroke="black" points="805.5,-112.33 796.33,-107.01 800.18,-116.88 805.5,-112.33"/>
</g>
<!-- destroy_invalid_notifications -->
<g id="node15" class="node">
<title>destroy_invalid_notifications</title>
<ellipse fill="none" stroke="black" cx="1168.61" cy="-162" rx="117.93" ry="18"/>
<text text-anchor="middle" x="1168.61" y="-156.57" font-family="Times New Roman,serif" font-size="14.00">destroy_invalid_notifications</text>
</g>
<!-- new -->
<g id="node16" class="node">
<title>new</title>
<ellipse fill="none" stroke="black" cx="1168.61" cy="-90" rx="27" ry="18"/>
<text text-anchor="middle" x="1168.61" y="-84.58" font-family="Times New Roman,serif" font-size="14.00">new</text>
</g>
<!-- destroy_invalid_notifications&#45;&gt;new -->
<g id="edge11" class="edge">
<title>destroy_invalid_notifications&#45;&gt;new</title>
<path fill="none" stroke="black" d="M1168.61,-143.7C1168.61,-136.41 1168.61,-127.73 1168.61,-119.54"/>
<polygon fill="black" stroke="black" points="1172.11,-119.62 1168.61,-109.62 1165.11,-119.62 1172.11,-119.62"/>
</g>
<!-- list_index_definition -->
<g id="node17" class="node">
<title>list_index_definition</title>
<ellipse fill="none" stroke="black" cx="1970.61" cy="-162" rx="85.49" ry="18"/>
<text text-anchor="middle" x="1970.61" y="-156.57" font-family="Times New Roman,serif" font-size="14.00">list_index_definition</text>
</g>
<!-- includes -->
<g id="node18" class="node">
<title>includes</title>
<ellipse fill="none" stroke="black" cx="1546.61" cy="-90" rx="41.08" ry="18"/>
<text text-anchor="middle" x="1546.61" y="-84.58" font-family="Times New Roman,serif" font-size="14.00">includes</text>
</g>
<!-- list_index_definition&#45;&gt;includes -->
<g id="edge12" class="edge">
<title>list_index_definition&#45;&gt;includes</title>
<path fill="none" stroke="black" d="M1892.81,-154.26C1816.61,-146.65 1697.55,-132.09 1596.61,-108 1593.83,-107.34 1591,-106.59 1588.16,-105.78"/>
<polygon fill="black" stroke="black" points="1589.31,-102.47 1578.73,-102.88 1587.26,-109.16 1589.31,-102.47"/>
</g>
<!-- notification_type -->
<g id="node19" class="node">
<title>notification_type</title>
<ellipse fill="none" stroke="black" cx="1678.61" cy="-90" rx="73.02" ry="18"/>
<text text-anchor="middle" x="1678.61" y="-84.58" font-family="Times New Roman,serif" font-size="14.00">notification_type</text>
</g>
<!-- list_index_definition&#45;&gt;notification_type -->
<g id="edge13" class="edge">
<title>list_index_definition&#45;&gt;notification_type</title>
<path fill="none" stroke="black" d="M1915.68,-147.83C1865.81,-135.88 1792.34,-118.27 1740.43,-105.82"/>
<polygon fill="black" stroke="black" points="1741.39,-102.45 1730.85,-103.52 1739.75,-109.26 1741.39,-102.45"/>
</g>
<!-- include -->
<g id="node20" class="node">
<title>include</title>
<ellipse fill="none" stroke="black" cx="1806.61" cy="-90" rx="37.09" ry="18"/>
<text text-anchor="middle" x="1806.61" y="-84.58" font-family="Times New Roman,serif" font-size="14.00">include</text>
</g>
<!-- list_index_definition&#45;&gt;include -->
<g id="edge14" class="edge">
<title>list_index_definition&#45;&gt;include</title>
<path fill="none" stroke="black" d="M1933.8,-145.29C1907.16,-133.92 1871.25,-118.59 1844.39,-107.13"/>
<polygon fill="black" stroke="black" points="1845.81,-103.93 1835.24,-103.22 1843.06,-110.37 1845.81,-103.93"/>
</g>
<!-- order_by_created_at -->
<g id="node21" class="node">
<title>order_by_created_at</title>
<ellipse fill="none" stroke="black" cx="1398.61" cy="-90" rx="88.49" ry="18"/>
<text text-anchor="middle" x="1398.61" y="-84.58" font-family="Times New Roman,serif" font-size="14.00">order_by_created_at</text>
</g>
<!-- list_index_definition&#45;&gt;order_by_created_at -->
<g id="edge15" class="edge">
<title>list_index_definition&#45;&gt;order_by_created_at</title>
<path fill="none" stroke="black" d="M1893.66,-153.84C1799.74,-144.76 1636.17,-127.89 1496.61,-108 1489.25,-106.95 1481.61,-105.78 1473.97,-104.55"/>
<polygon fill="black" stroke="black" points="1474.76,-101.13 1464.32,-102.96 1473.62,-108.04 1474.76,-101.13"/>
</g>
<!-- order_by_checked_at_inv -->
<g id="node22" class="node">
<title>order_by_checked_at_inv</title>
<ellipse fill="none" stroke="black" cx="1970.61" cy="-90" rx="108.45" ry="18"/>
<text text-anchor="middle" x="1970.61" y="-84.58" font-family="Times New Roman,serif" font-size="14.00">order_by_checked_at_inv</text>
</g>
<!-- list_index_definition&#45;&gt;order_by_checked_at_inv -->
<g id="edge16" class="edge">
<title>list_index_definition&#45;&gt;order_by_checked_at_inv</title>
<path fill="none" stroke="black" d="M1970.61,-143.7C1970.61,-136.41 1970.61,-127.73 1970.61,-119.54"/>
<polygon fill="black" stroke="black" points="1974.11,-119.62 1970.61,-109.62 1967.11,-119.62 1974.11,-119.62"/>
</g>
<!-- order_by_checked_at -->
<g id="node23" class="node">
<title>order_by_checked_at</title>
<ellipse fill="none" stroke="black" cx="2189.61" cy="-90" rx="92.48" ry="18"/>
<text text-anchor="middle" x="2189.61" y="-84.58" font-family="Times New Roman,serif" font-size="14.00">order_by_checked_at</text>
</g>
<!-- list_index_definition&#45;&gt;order_by_checked_at -->
<g id="edge17" class="edge">
<title>list_index_definition&#45;&gt;order_by_checked_at</title>
<path fill="none" stroke="black" d="M2016.25,-146.41C2049.87,-135.66 2095.85,-120.97 2132.01,-109.41"/>
<polygon fill="black" stroke="black" points="2132.99,-112.77 2141.45,-106.39 2130.86,-106.1 2132.99,-112.77"/>
</g>
<!-- order_by_from -->
<g id="node24" class="node">
<title>order_by_from</title>
<ellipse fill="none" stroke="black" cx="2714.61" cy="-90" rx="68.03" ry="18"/>
<text text-anchor="middle" x="2714.61" y="-84.58" font-family="Times New Roman,serif" font-size="14.00">order_by_from</text>
</g>
<!-- list_index_definition&#45;&gt;order_by_from -->
<g id="edge18" class="edge">
<title>list_index_definition&#45;&gt;order_by_from</title>
<path fill="none" stroke="black" d="M2054.34,-157.97C2180.97,-152.57 2428.5,-138.81 2636.61,-108 2642.29,-107.16 2648.17,-106.14 2654.05,-105.04"/>
<polygon fill="black" stroke="black" points="2654.66,-108.48 2663.79,-103.1 2653.3,-101.62 2654.66,-108.48"/>
</g>
<!-- order_by_body -->
<g id="node25" class="node">
<title>order_by_body</title>
<ellipse fill="none" stroke="black" cx="2369.61" cy="-90" rx="69.53" ry="18"/>
<text text-anchor="middle" x="2369.61" y="-84.58" font-family="Times New Roman,serif" font-size="14.00">order_by_body</text>
</g>
<!-- list_index_definition&#45;&gt;order_by_body -->
<g id="edge19" class="edge">
<title>list_index_definition&#45;&gt;order_by_body</title>
<path fill="none" stroke="black" d="M2038.5,-150.72C2103.39,-140.67 2203.89,-124.5 2290.61,-108 2296.06,-106.96 2301.72,-105.84 2307.39,-104.68"/>
<polygon fill="black" stroke="black" points="2307.7,-108.19 2316.78,-102.73 2306.27,-101.34 2307.7,-108.19"/>
</g>
<!-- order_by_body_inv -->
<g id="node26" class="node">
<title>order_by_body_inv</title>
<ellipse fill="none" stroke="black" cx="2542.61" cy="-90" rx="85.49" ry="18"/>
<text text-anchor="middle" x="2542.61" y="-84.58" font-family="Times New Roman,serif" font-size="14.00">order_by_body_inv</text>
</g>
<!-- list_index_definition&#45;&gt;order_by_body_inv -->
<g id="edge20" class="edge">
<title>list_index_definition&#45;&gt;order_by_body_inv</title>
<path fill="none" stroke="black" d="M2048.22,-154.04C2142.96,-145.17 2307.94,-128.49 2448.61,-108 2455.44,-107 2462.55,-105.88 2469.65,-104.7"/>
<polygon fill="black" stroke="black" points="2470,-108.19 2479.27,-103.06 2468.83,-101.29 2470,-108.19"/>
</g>
<!-- notification_body -->
<g id="node28" class="node">
<title>notification_body</title>
<ellipse fill="none" stroke="black" cx="2279.61" cy="-18" rx="76.51" ry="18"/>
<text text-anchor="middle" x="2279.61" y="-12.57" font-family="Times New Roman,serif" font-size="14.00">notification_body</text>
</g>
<!-- order_by_created_at&#45;&gt;notification_body -->
<g id="edge22" class="edge">
<title>order_by_created_at&#45;&gt;notification_body</title>
<path fill="none" stroke="black" d="M1461.72,-77.06C1473.3,-75.15 1485.29,-73.36 1496.61,-72 1748.33,-41.73 2047.82,-27.46 2192.63,-21.93"/>
<polygon fill="black" stroke="black" points="2192.67,-25.43 2202.54,-21.55 2192.41,-18.43 2192.67,-25.43"/>
</g>
<!-- order_by_checked_at_inv&#45;&gt;notification_body -->
<g id="edge23" class="edge">
<title>order_by_checked_at_inv&#45;&gt;notification_body</title>
<path fill="none" stroke="black" d="M2032.76,-74.92C2085.58,-62.95 2161.13,-45.84 2214.71,-33.7"/>
<polygon fill="black" stroke="black" points="2215.34,-37.15 2224.32,-31.52 2213.8,-30.32 2215.34,-37.15"/>
</g>
<!-- order_by_checked_at&#45;&gt;notification_body -->
<g id="edge24" class="edge">
<title>order_by_checked_at&#45;&gt;notification_body</title>
<path fill="none" stroke="black" d="M2211.39,-72.05C2222.86,-63.13 2237.1,-52.06 2249.6,-42.34"/>
<polygon fill="black" stroke="black" points="2251.39,-45.38 2257.14,-36.48 2247.09,-39.85 2251.39,-45.38"/>
</g>
<!-- order_by_from&#45;&gt;notification_body -->
<g id="edge26" class="edge">
<title>order_by_from&#45;&gt;notification_body</title>
<path fill="none" stroke="black" d="M2664.35,-77.53C2655.15,-75.57 2645.6,-73.65 2636.61,-72 2540.66,-54.44 2429.39,-38.64 2356.91,-28.95"/>
<polygon fill="black" stroke="black" points="2357.5,-25.5 2347.12,-27.65 2356.57,-32.44 2357.5,-25.5"/>
</g>
<!-- is_a -->
<g id="node29" class="node">
<title>is_a</title>
<ellipse fill="none" stroke="black" cx="2714.61" cy="-18" rx="27" ry="18"/>
<text text-anchor="middle" x="2714.61" y="-12.57" font-family="Times New Roman,serif" font-size="14.00">is_a</text>
</g>
<!-- order_by_from&#45;&gt;is_a -->
<g id="edge25" class="edge">
<title>order_by_from&#45;&gt;is_a</title>
<path fill="none" stroke="black" d="M2714.61,-71.7C2714.61,-64.41 2714.61,-55.73 2714.61,-47.54"/>
<polygon fill="black" stroke="black" points="2718.11,-47.62 2714.61,-37.62 2711.11,-47.62 2718.11,-47.62"/>
</g>
<!-- order_by_body&#45;&gt;notification_body -->
<g id="edge27" class="edge">
<title>order_by_body&#45;&gt;notification_body</title>
<path fill="none" stroke="black" d="M2348.28,-72.41C2336.82,-63.5 2322.49,-52.36 2309.89,-42.56"/>
<polygon fill="black" stroke="black" points="2312.33,-40.02 2302.29,-36.64 2308.03,-45.54 2312.33,-40.02"/>
</g>
<!-- order_by_body_inv&#45;&gt;notification_body -->
<g id="edge28" class="edge">
<title>order_by_body_inv&#45;&gt;notification_body</title>
<path fill="none" stroke="black" d="M2490.96,-75.25C2447.56,-63.7 2385.5,-47.18 2339.85,-35.03"/>
<polygon fill="black" stroke="black" points="2340.93,-31.7 2330.37,-32.51 2339.13,-38.47 2340.93,-31.7"/>
</g>
<!-- list_preview_definition -->
<g id="node27" class="node">
<title>list_preview_definition</title>
<ellipse fill="none" stroke="black" cx="1398.61" cy="-162" rx="94.48" ry="18"/>
<text text-anchor="middle" x="1398.61" y="-156.57" font-family="Times New Roman,serif" font-size="14.00">list_preview_definition</text>
</g>
<!-- list_preview_definition&#45;&gt;order_by_created_at -->
<g id="edge21" class="edge">
<title>list_preview_definition&#45;&gt;order_by_created_at</title>
<path fill="none" stroke="black" d="M1398.61,-143.7C1398.61,-136.41 1398.61,-127.73 1398.61,-119.54"/>
<polygon fill="black" stroke="black" points="1402.11,-119.62 1398.61,-109.62 1395.11,-119.62 1402.11,-119.62"/>
</g>
</g>
</svg>
