<?xml version="1.0" encoding="UTF-8" standalone="no"?>
<!DOCTYPE svg PUBLIC "-//W3C//DTD SVG 1.1//EN"
 "http://www.w3.org/Graphics/SVG/1.1/DTD/svg11.dtd">
<!-- Generated by graphviz version 9.0.0 (20230911.1827)
 -->
<!-- Title: CallGraph Pages: 1 -->
<svg width="1200pt" height="188pt"
 viewBox="0.00 0.00 1200.36 188.00" xmlns="http://www.w3.org/2000/svg" xmlns:xlink="http://www.w3.org/1999/xlink">
<g id="graph0" class="graph" transform="scale(1 1) rotate(0) translate(4 184)">
<title>CallGraph</title>
<polygon fill="white" stroke="none" points="-4,4 -4,-184 1196.36,-184 1196.36,4 -4,4"/>
<!-- create -->
<g id="node1" class="node">
<title>create</title>
<ellipse fill="none" stroke="black" cx="451.89" cy="-162" rx="32.6" ry="18"/>
<text text-anchor="middle" x="451.89" y="-156.57" font-family="Times New Roman,serif" font-size="14.00">create</text>
</g>
<!-- send_reset_password_instructions -->
<g id="node2" class="node">
<title>send_reset_password_instructions</title>
<ellipse fill="none" stroke="black" cx="139.89" cy="-90" rx="139.89" ry="18"/>
<text text-anchor="middle" x="139.89" y="-84.58" font-family="Times New Roman,serif" font-size="14.00">send_reset_password_instructions</text>
</g>
<!-- create&#45;&gt;send_reset_password_instructions -->
<g id="edge1" class="edge">
<title>create&#45;&gt;send_reset_password_instructions</title>
<path fill="none" stroke="black" d="M421.97,-154.29C375.62,-143.89 284.9,-123.54 218.82,-108.71"/>
<polygon fill="black" stroke="black" points="219.61,-105.3 209.09,-106.53 218.08,-112.13 219.61,-105.3"/>
</g>
<!-- successfully_sent -->
<g id="node3" class="node">
<title>successfully_sent</title>
<ellipse fill="none" stroke="black" cx="373.89" cy="-90" rx="76.01" ry="18"/>
<text text-anchor="middle" x="373.89" y="-84.58" font-family="Times New Roman,serif" font-size="14.00">successfully_sent</text>
</g>
<!-- create&#45;&gt;successfully_sent -->
<g id="edge2" class="edge">
<title>create&#45;&gt;successfully_sent</title>
<path fill="none" stroke="black" d="M435.34,-146.15C425.37,-137.2 412.41,-125.58 400.97,-115.31"/>
<polygon fill="black" stroke="black" points="403.5,-112.87 393.72,-108.8 398.82,-118.08 403.5,-112.87"/>
</g>
<!-- respond_with -->
<g id="node4" class="node">
<title>respond_with</title>
<ellipse fill="none" stroke="black" cx="529.89" cy="-90" rx="61.54" ry="18"/>
<text text-anchor="middle" x="529.89" y="-84.58" font-family="Times New Roman,serif" font-size="14.00">respond_with</text>
</g>
<!-- create&#45;&gt;respond_with -->
<g id="edge3" class="edge">
<title>create&#45;&gt;respond_with</title>
<path fill="none" stroke="black" d="M468.43,-146.15C478.48,-137.14 491.54,-125.41 503.04,-115.09"/>
<polygon fill="black" stroke="black" points="505.22,-117.83 510.33,-108.55 500.55,-112.62 505.22,-117.83"/>
</g>
<!-- after_sending_reset_password_instructions_path_for -->
<g id="node5" class="node">
<title>after_sending_reset_password_instructions_path_for</title>
<ellipse fill="none" stroke="black" cx="818.89" cy="-90" rx="209.25" ry="18"/>
<text text-anchor="middle" x="818.89" y="-84.58" font-family="Times New Roman,serif" font-size="14.00">after_sending_reset_password_instructions_path_for</text>
</g>
<!-- create&#45;&gt;after_sending_reset_password_instructions_path_for -->
<g id="edge4" class="edge">
<title>create&#45;&gt;after_sending_reset_password_instructions_path_for</title>
<path fill="none" stroke="black" d="M482.54,-155.15C535.11,-145.13 644.49,-124.26 724.29,-109.04"/>
<polygon fill="black" stroke="black" points="724.69,-112.53 733.86,-107.22 723.38,-105.65 724.69,-112.53"/>
</g>
<!-- add_inline_attachment -->
<g id="node6" class="node">
<title>add_inline_attachment</title>
<ellipse fill="none" stroke="black" cx="1098.89" cy="-162" rx="93.48" ry="18"/>
<text text-anchor="middle" x="1098.89" y="-156.57" font-family="Times New Roman,serif" font-size="14.00">add_inline_attachment</text>
</g>
<!-- load_image -->
<g id="node7" class="node">
<title>load_image</title>
<ellipse fill="none" stroke="black" cx="1098.89" cy="-90" rx="53.06" ry="18"/>
<text text-anchor="middle" x="1098.89" y="-84.58" font-family="Times New Roman,serif" font-size="14.00">load_image</text>
</g>
<!-- add_inline_attachment&#45;&gt;load_image -->
<g id="edge5" class="edge">
<title>add_inline_attachment&#45;&gt;load_image</title>
<path fill="none" stroke="black" d="M1098.89,-143.7C1098.89,-136.41 1098.89,-127.73 1098.89,-119.54"/>
<polygon fill="black" stroke="black" points="1102.39,-119.62 1098.89,-109.62 1095.39,-119.62 1102.39,-119.62"/>
</g>
<!-- read -->
<g id="node8" class="node">
<title>read</title>
<ellipse fill="none" stroke="black" cx="1062.89" cy="-18" rx="27" ry="18"/>
<text text-anchor="middle" x="1062.89" y="-12.57" font-family="Times New Roman,serif" font-size="14.00">read</text>
</g>
<!-- load_image&#45;&gt;read -->
<g id="edge6" class="edge">
<title>load_image&#45;&gt;read</title>
<path fill="none" stroke="black" d="M1090.17,-72.05C1086.04,-64.03 1081.02,-54.26 1076.41,-45.3"/>
<polygon fill="black" stroke="black" points="1079.65,-43.95 1071.96,-36.65 1073.42,-47.15 1079.65,-43.95"/>
</g>
<!-- join -->
<g id="node9" class="node">
<title>join</title>
<ellipse fill="none" stroke="black" cx="1134.89" cy="-18" rx="27" ry="18"/>
<text text-anchor="middle" x="1134.89" y="-12.57" font-family="Times New Roman,serif" font-size="14.00">join</text>
</g>
<!-- load_image&#45;&gt;join -->
<g id="edge7" class="edge">
<title>load_image&#45;&gt;join</title>
<path fill="none" stroke="black" d="M1107.6,-72.05C1111.73,-64.03 1116.75,-54.26 1121.36,-45.3"/>
<polygon fill="black" stroke="black" points="1124.35,-47.15 1125.81,-36.65 1118.12,-43.95 1124.35,-47.15"/>
</g>
</g>
</svg>
