<?xml version="1.0" encoding="UTF-8" standalone="no"?>
<!DOCTYPE svg PUBLIC "-//W3C//DTD SVG 1.1//EN"
 "http://www.w3.org/Graphics/SVG/1.1/DTD/svg11.dtd">
<!-- Generated by graphviz version 9.0.0 (20230911.1827)
 -->
<!-- Title: CallGraph Pages: 1 -->
<svg width="990pt" height="116pt"
 viewBox="0.00 0.00 989.89 116.00" xmlns="http://www.w3.org/2000/svg" xmlns:xlink="http://www.w3.org/1999/xlink">
<g id="graph0" class="graph" transform="scale(1 1) rotate(0) translate(4 112)">
<title>CallGraph</title>
<polygon fill="white" stroke="none" points="-4,4 -4,-112 985.89,-112 985.89,4 -4,4"/>
<!-- new -->
<g id="node1" class="node">
<title>new</title>
<ellipse fill="none" stroke="black" cx="27" cy="-90" rx="27" ry="18"/>
<text text-anchor="middle" x="27" y="-84.58" font-family="Times New Roman,serif" font-size="14.00">new</text>
</g>
<!-- edit -->
<g id="node2" class="node">
<title>edit</title>
<ellipse fill="none" stroke="black" cx="99" cy="-90" rx="27" ry="18"/>
<text text-anchor="middle" x="99" y="-84.58" font-family="Times New Roman,serif" font-size="14.00">edit</text>
</g>
<!-- create -->
<g id="node3" class="node">
<title>create</title>
<ellipse fill="none" stroke="black" cx="177" cy="-90" rx="32.6" ry="18"/>
<text text-anchor="middle" x="177" y="-84.58" font-family="Times New Roman,serif" font-size="14.00">create</text>
</g>
<!-- update -->
<g id="node4" class="node">
<title>update</title>
<ellipse fill="none" stroke="black" cx="263" cy="-90" rx="35.6" ry="18"/>
<text text-anchor="middle" x="263" y="-84.58" font-family="Times New Roman,serif" font-size="14.00">update</text>
</g>
<!-- context -->
<g id="node5" class="node">
<title>context</title>
<ellipse fill="none" stroke="black" cx="355" cy="-90" rx="38.09" ry="18"/>
<text text-anchor="middle" x="355" y="-84.58" font-family="Times New Roman,serif" font-size="14.00">context</text>
</g>
<!-- find_by -->
<g id="node6" class="node">
<title>find_by</title>
<ellipse fill="none" stroke="black" cx="355" cy="-18" rx="39.59" ry="18"/>
<text text-anchor="middle" x="355" y="-12.57" font-family="Times New Roman,serif" font-size="14.00">find_by</text>
</g>
<!-- context&#45;&gt;find_by -->
<g id="edge1" class="edge">
<title>context&#45;&gt;find_by</title>
<path fill="none" stroke="black" d="M355,-71.7C355,-64.41 355,-55.73 355,-47.54"/>
<polygon fill="black" stroke="black" points="358.5,-47.62 355,-37.62 351.5,-47.62 358.5,-47.62"/>
</g>
<!-- user_not_authorized -->
<g id="node7" class="node">
<title>user_not_authorized</title>
<ellipse fill="none" stroke="black" cx="498" cy="-90" rx="86.49" ry="18"/>
<text text-anchor="middle" x="498" y="-84.58" font-family="Times New Roman,serif" font-size="14.00">user_not_authorized</text>
</g>
<!-- t -->
<g id="node8" class="node">
<title>t</title>
<ellipse fill="none" stroke="black" cx="509" cy="-18" rx="27" ry="18"/>
<text text-anchor="middle" x="509" y="-12.57" font-family="Times New Roman,serif" font-size="14.00">t</text>
</g>
<!-- user_not_authorized&#45;&gt;t -->
<g id="edge2" class="edge">
<title>user_not_authorized&#45;&gt;t</title>
<path fill="none" stroke="black" d="M500.72,-71.7C501.88,-64.32 503.26,-55.52 504.56,-47.25"/>
<polygon fill="black" stroke="black" points="507.98,-48.02 506.08,-37.6 501.07,-46.93 507.98,-48.02"/>
</g>
<!-- open_form_pilot -->
<g id="node9" class="node">
<title>open_form_pilot</title>
<ellipse fill="none" stroke="black" cx="779" cy="-90" rx="73.52" ry="18"/>
<text text-anchor="middle" x="779" y="-84.58" font-family="Times New Roman,serif" font-size="14.00">open_form_pilot</text>
</g>
<!-- set_pilot -->
<g id="node10" class="node">
<title>set_pilot</title>
<ellipse fill="none" stroke="black" cx="645" cy="-90" rx="42.58" ry="18"/>
<text text-anchor="middle" x="645" y="-84.58" font-family="Times New Roman,serif" font-size="14.00">set_pilot</text>
</g>
<!-- set_pilot&#45;&gt;t -->
<g id="edge4" class="edge">
<title>set_pilot&#45;&gt;t</title>
<path fill="none" stroke="black" d="M618.78,-75.5C596.19,-63.88 563.55,-47.08 539.74,-34.82"/>
<polygon fill="black" stroke="black" points="541.64,-31.86 531.15,-30.4 538.44,-38.09 541.64,-31.86"/>
</g>
<!-- change_pilot -->
<g id="node11" class="node">
<title>change_pilot</title>
<ellipse fill="none" stroke="black" cx="634" cy="-18" rx="58.05" ry="18"/>
<text text-anchor="middle" x="634" y="-12.57" font-family="Times New Roman,serif" font-size="14.00">change_pilot</text>
</g>
<!-- set_pilot&#45;&gt;change_pilot -->
<g id="edge3" class="edge">
<title>set_pilot&#45;&gt;change_pilot</title>
<path fill="none" stroke="black" d="M642.28,-71.7C641.12,-64.32 639.74,-55.52 638.44,-47.25"/>
<polygon fill="black" stroke="black" points="641.93,-46.93 636.92,-37.6 635.02,-48.02 641.93,-46.93"/>
</g>
<!-- show_properties_document_path -->
<g id="node12" class="node">
<title>show_properties_document_path</title>
<ellipse fill="none" stroke="black" cx="846" cy="-18" rx="135.89" ry="18"/>
<text text-anchor="middle" x="846" y="-12.57" font-family="Times New Roman,serif" font-size="14.00">show_properties_document_path</text>
</g>
<!-- set_pilot&#45;&gt;show_properties_document_path -->
<g id="edge5" class="edge">
<title>set_pilot&#45;&gt;show_properties_document_path</title>
<path fill="none" stroke="black" d="M676.85,-77.91C706.87,-67.45 752.55,-51.54 788.88,-38.89"/>
<polygon fill="black" stroke="black" points="789.62,-42.34 797.91,-35.75 787.32,-35.73 789.62,-42.34"/>
</g>
</g>
</svg>
