<?xml version="1.0" encoding="UTF-8" standalone="no"?>
<!DOCTYPE svg PUBLIC "-//W3C//DTD SVG 1.1//EN"
 "http://www.w3.org/Graphics/SVG/1.1/DTD/svg11.dtd">
<!-- Generated by graphviz version 9.0.0 (20230911.1827)
 -->
<!-- Title: CallGraph Pages: 1 -->
<svg width="895pt" height="188pt"
 viewBox="0.00 0.00 894.67 188.00" xmlns="http://www.w3.org/2000/svg" xmlns:xlink="http://www.w3.org/1999/xlink">
<g id="graph0" class="graph" transform="scale(1 1) rotate(0) translate(4 184)">
<title>CallGraph</title>
<polygon fill="white" stroke="none" points="-4,4 -4,-184 890.67,-184 890.67,4 -4,4"/>
<!-- preferences -->
<g id="node1" class="node">
<title>preferences</title>
<ellipse fill="none" stroke="black" cx="88.1" cy="-162" rx="53.56" ry="18"/>
<text text-anchor="middle" x="88.1" y="-156.57" font-family="Times New Roman,serif" font-size="14.00">preferences</text>
</g>
<!-- merge -->
<g id="node2" class="node">
<title>merge</title>
<ellipse fill="none" stroke="black" cx="33.1" cy="-90" rx="33.1" ry="18"/>
<text text-anchor="middle" x="33.1" y="-84.58" font-family="Times New Roman,serif" font-size="14.00">merge</text>
</g>
<!-- preferences&#45;&gt;merge -->
<g id="edge1" class="edge">
<title>preferences&#45;&gt;merge</title>
<path fill="none" stroke="black" d="M75.07,-144.41C68.39,-135.92 60.14,-125.41 52.71,-115.96"/>
<polygon fill="black" stroke="black" points="55.53,-113.88 46.6,-108.18 50.02,-118.2 55.53,-113.88"/>
</g>
<!-- list_selection -->
<g id="node3" class="node">
<title>list_selection</title>
<ellipse fill="none" stroke="black" cx="143.1" cy="-90" rx="58.55" ry="18"/>
<text text-anchor="middle" x="143.1" y="-84.58" font-family="Times New Roman,serif" font-size="14.00">list_selection</text>
</g>
<!-- preferences&#45;&gt;list_selection -->
<g id="edge2" class="edge">
<title>preferences&#45;&gt;list_selection</title>
<path fill="none" stroke="black" d="M101.13,-144.41C107.61,-136.16 115.59,-126.01 122.85,-116.78"/>
<polygon fill="black" stroke="black" points="125.42,-119.17 128.84,-109.15 119.91,-114.85 125.42,-119.17"/>
</g>
<!-- print -->
<g id="node4" class="node">
<title>print</title>
<ellipse fill="none" stroke="black" cx="394.1" cy="-162" rx="27.61" ry="18"/>
<text text-anchor="middle" x="394.1" y="-156.57" font-family="Times New Roman,serif" font-size="14.00">print</text>
</g>
<!-- print&#45;&gt;merge -->
<g id="edge4" class="edge">
<title>print&#45;&gt;merge</title>
<path fill="none" stroke="black" d="M366.77,-158.51C311.07,-152.98 180.74,-137.76 75.1,-108 73,-107.41 70.86,-106.74 68.72,-106.03"/>
<polygon fill="black" stroke="black" points="70.12,-102.82 59.53,-102.68 67.72,-109.4 70.12,-102.82"/>
</g>
<!-- print&#45;&gt;list_selection -->
<g id="edge3" class="edge">
<title>print&#45;&gt;list_selection</title>
<path fill="none" stroke="black" d="M369.12,-154.03C329.06,-142.86 249.58,-120.7 196.37,-105.86"/>
<polygon fill="black" stroke="black" points="197.47,-102.53 186.9,-103.21 195.59,-109.27 197.47,-102.53"/>
</g>
<!-- new -->
<g id="node5" class="node">
<title>new</title>
<ellipse fill="none" stroke="black" cx="247.1" cy="-90" rx="27" ry="18"/>
<text text-anchor="middle" x="247.1" y="-84.58" font-family="Times New Roman,serif" font-size="14.00">new</text>
</g>
<!-- print&#45;&gt;new -->
<g id="edge5" class="edge">
<title>print&#45;&gt;new</title>
<path fill="none" stroke="black" d="M372.09,-150.52C347.38,-138.75 307.05,-119.55 278.91,-106.15"/>
<polygon fill="black" stroke="black" points="280.68,-103.11 270.14,-101.97 277.67,-109.43 280.68,-103.11"/>
</g>
<!-- render_pdf -->
<g id="node6" class="node">
<title>render_pdf</title>
<ellipse fill="none" stroke="black" cx="344.1" cy="-90" rx="52.06" ry="18"/>
<text text-anchor="middle" x="344.1" y="-84.58" font-family="Times New Roman,serif" font-size="14.00">render_pdf</text>
</g>
<!-- print&#45;&gt;render_pdf -->
<g id="edge6" class="edge">
<title>print&#45;&gt;render_pdf</title>
<path fill="none" stroke="black" d="M382.75,-145.12C376.85,-136.85 369.49,-126.54 362.77,-117.14"/>
<polygon fill="black" stroke="black" points="365.64,-115.13 356.98,-109.03 359.94,-119.2 365.64,-115.13"/>
</g>
<!-- parse -->
<g id="node7" class="node">
<title>parse</title>
<ellipse fill="none" stroke="black" cx="445.1" cy="-90" rx="30.61" ry="18"/>
<text text-anchor="middle" x="445.1" y="-84.58" font-family="Times New Roman,serif" font-size="14.00">parse</text>
</g>
<!-- print&#45;&gt;parse -->
<g id="edge7" class="edge">
<title>print&#45;&gt;parse</title>
<path fill="none" stroke="black" d="M405.42,-145.46C411.67,-136.89 419.59,-126.02 426.7,-116.25"/>
<polygon fill="black" stroke="black" points="429.51,-118.34 432.57,-108.2 423.85,-114.22 429.51,-118.34"/>
</g>
<!-- build_filename -->
<g id="node8" class="node">
<title>build_filename</title>
<ellipse fill="none" stroke="black" cx="558.1" cy="-90" rx="64.54" ry="18"/>
<text text-anchor="middle" x="558.1" y="-84.58" font-family="Times New Roman,serif" font-size="14.00">build_filename</text>
</g>
<!-- print&#45;&gt;build_filename -->
<g id="edge8" class="edge">
<title>print&#45;&gt;build_filename</title>
<path fill="none" stroke="black" d="M416.9,-151.27C441.81,-140.64 482.32,-123.34 513.58,-110"/>
<polygon fill="black" stroke="black" points="514.57,-113.38 522.4,-106.24 511.83,-106.95 514.57,-113.38"/>
</g>
<!-- number_pages -->
<g id="node9" class="node">
<title>number_pages</title>
<ellipse fill="none" stroke="black" cx="706.1" cy="-90" rx="65.04" ry="18"/>
<text text-anchor="middle" x="706.1" y="-84.58" font-family="Times New Roman,serif" font-size="14.00">number_pages</text>
</g>
<!-- print&#45;&gt;number_pages -->
<g id="edge9" class="edge">
<title>print&#45;&gt;number_pages</title>
<path fill="none" stroke="black" d="M420.17,-155.25C463.97,-145.59 555.1,-125.42 632.1,-108 636.66,-106.97 641.37,-105.9 646.11,-104.82"/>
<polygon fill="black" stroke="black" points="646.71,-108.27 655.67,-102.63 645.15,-101.45 646.71,-108.27"/>
</g>
<!-- send_data -->
<g id="node10" class="node">
<title>send_data</title>
<ellipse fill="none" stroke="black" cx="838.1" cy="-90" rx="48.57" ry="18"/>
<text text-anchor="middle" x="838.1" y="-84.58" font-family="Times New Roman,serif" font-size="14.00">send_data</text>
</g>
<!-- print&#45;&gt;send_data -->
<g id="edge10" class="edge">
<title>print&#45;&gt;send_data</title>
<path fill="none" stroke="black" d="M421.48,-158.65C485.01,-152.9 647.15,-136.45 780.1,-108 783.69,-107.23 787.38,-106.36 791.09,-105.42"/>
<polygon fill="black" stroke="black" points="791.9,-108.82 800.65,-102.84 790.09,-102.06 791.9,-108.82"/>
</g>
<!-- t -->
<g id="node11" class="node">
<title>t</title>
<ellipse fill="none" stroke="black" cx="516.1" cy="-18" rx="27" ry="18"/>
<text text-anchor="middle" x="516.1" y="-12.57" font-family="Times New Roman,serif" font-size="14.00">t</text>
</g>
<!-- build_filename&#45;&gt;t -->
<g id="edge11" class="edge">
<title>build_filename&#45;&gt;t</title>
<path fill="none" stroke="black" d="M547.93,-72.05C542.99,-63.82 536.95,-53.76 531.47,-44.61"/>
<polygon fill="black" stroke="black" points="534.52,-42.9 526.38,-36.13 528.52,-46.5 534.52,-42.9"/>
</g>
<!-- strftime -->
<g id="node12" class="node">
<title>strftime</title>
<ellipse fill="none" stroke="black" cx="600.1" cy="-18" rx="38.59" ry="18"/>
<text text-anchor="middle" x="600.1" y="-12.57" font-family="Times New Roman,serif" font-size="14.00">strftime</text>
</g>
<!-- build_filename&#45;&gt;strftime -->
<g id="edge12" class="edge">
<title>build_filename&#45;&gt;strftime</title>
<path fill="none" stroke="black" d="M568.27,-72.05C573.06,-64.06 578.9,-54.33 584.26,-45.4"/>
<polygon fill="black" stroke="black" points="587.1,-47.46 589.25,-37.09 581.1,-43.86 587.1,-47.46"/>
</g>
</g>
</svg>
