<?xml version="1.0" encoding="UTF-8" standalone="no"?>
<!DOCTYPE svg PUBLIC "-//W3C//DTD SVG 1.1//EN"
 "http://www.w3.org/Graphics/SVG/1.1/DTD/svg11.dtd">
<!-- Generated by graphviz version 9.0.0 (20230911.1827)
 -->
<!-- Title: CallGraph Pages: 1 -->
<svg width="1364pt" height="116pt"
 viewBox="0.00 0.00 1363.60 116.00" xmlns="http://www.w3.org/2000/svg" xmlns:xlink="http://www.w3.org/1999/xlink">
<g id="graph0" class="graph" transform="scale(1 1) rotate(0) translate(4 112)">
<title>CallGraph</title>
<polygon fill="white" stroke="none" points="-4,4 -4,-112 1359.6,-112 1359.6,4 -4,4"/>
<!-- authorize_multiple -->
<g id="node1" class="node">
<title>authorize_multiple</title>
<ellipse fill="none" stroke="black" cx="78.01" cy="-90" rx="78.01" ry="18"/>
<text text-anchor="middle" x="78.01" y="-84.58" font-family="Times New Roman,serif" font-size="14.00">authorize_multiple</text>
</g>
<!-- authorize_group -->
<g id="node2" class="node">
<title>authorize_group</title>
<ellipse fill="none" stroke="black" cx="245.01" cy="-90" rx="71.02" ry="18"/>
<text text-anchor="middle" x="245.01" y="-84.58" font-family="Times New Roman,serif" font-size="14.00">authorize_group</text>
</g>
<!-- user_is_actor_of -->
<g id="node3" class="node">
<title>user_is_actor_of</title>
<ellipse fill="none" stroke="black" cx="408.01" cy="-90" rx="74.02" ry="18"/>
<text text-anchor="middle" x="408.01" y="-84.58" font-family="Times New Roman,serif" font-size="14.00">user_is_actor_of</text>
</g>
<!-- publisher_of -->
<g id="node4" class="node">
<title>publisher_of</title>
<ellipse fill="none" stroke="black" cx="408.01" cy="-18" rx="57.55" ry="18"/>
<text text-anchor="middle" x="408.01" y="-12.57" font-family="Times New Roman,serif" font-size="14.00">publisher_of</text>
</g>
<!-- user_is_actor_of&#45;&gt;publisher_of -->
<g id="edge1" class="edge">
<title>user_is_actor_of&#45;&gt;publisher_of</title>
<path fill="none" stroke="black" d="M408.01,-71.7C408.01,-64.41 408.01,-55.73 408.01,-47.54"/>
<polygon fill="black" stroke="black" points="411.51,-47.62 408.01,-37.62 404.51,-47.62 411.51,-47.62"/>
</g>
<!-- wf_entity_in_accept_state -->
<g id="node5" class="node">
<title>wf_entity_in_accept_state</title>
<ellipse fill="none" stroke="black" cx="608.01" cy="-90" rx="107.95" ry="18"/>
<text text-anchor="middle" x="608.01" y="-84.58" font-family="Times New Roman,serif" font-size="14.00">wf_entity_in_accept_state</text>
</g>
<!-- user_accept -->
<g id="node6" class="node">
<title>user_accept</title>
<ellipse fill="none" stroke="black" cx="790.01" cy="-90" rx="55.55" ry="18"/>
<text text-anchor="middle" x="790.01" y="-84.58" font-family="Times New Roman,serif" font-size="14.00">user_accept</text>
</g>
<!-- fetch -->
<g id="node7" class="node">
<title>fetch</title>
<ellipse fill="none" stroke="black" cx="691.01" cy="-18" rx="29.11" ry="18"/>
<text text-anchor="middle" x="691.01" y="-12.57" font-family="Times New Roman,serif" font-size="14.00">fetch</text>
</g>
<!-- user_accept&#45;&gt;fetch -->
<g id="edge2" class="edge">
<title>user_accept&#45;&gt;fetch</title>
<path fill="none" stroke="black" d="M767.55,-73.12C753.09,-62.89 734.19,-49.53 718.8,-38.65"/>
<polygon fill="black" stroke="black" points="721.15,-36.03 710.97,-33.11 717.11,-41.74 721.15,-36.03"/>
</g>
<!-- instance_of -->
<g id="node8" class="node">
<title>instance_of</title>
<ellipse fill="none" stroke="black" cx="914.01" cy="-18" rx="53.56" ry="18"/>
<text text-anchor="middle" x="914.01" y="-12.57" font-family="Times New Roman,serif" font-size="14.00">instance_of</text>
</g>
<!-- user_accept&#45;&gt;instance_of -->
<g id="edge3" class="edge">
<title>user_accept&#45;&gt;instance_of</title>
<path fill="none" stroke="black" d="M816.92,-73.81C834.67,-63.79 858.14,-50.54 877.56,-39.58"/>
<polygon fill="black" stroke="black" points="879.28,-42.63 886.26,-34.66 875.84,-36.53 879.28,-42.63"/>
</g>
<!-- t -->
<g id="node9" class="node">
<title>t</title>
<ellipse fill="none" stroke="black" cx="1013.01" cy="-18" rx="27" ry="18"/>
<text text-anchor="middle" x="1013.01" y="-12.57" font-family="Times New Roman,serif" font-size="14.00">t</text>
</g>
<!-- user_accept&#45;&gt;t -->
<g id="edge4" class="edge">
<title>user_accept&#45;&gt;t</title>
<path fill="none" stroke="black" d="M832.12,-77.93C878.66,-65.55 950.55,-45.92 977.01,-36 978.55,-35.42 980.11,-34.81 981.68,-34.17"/>
<polygon fill="black" stroke="black" points="982.8,-37.49 990.55,-30.27 979.99,-31.08 982.8,-37.49"/>
</g>
<!-- publish_on -->
<g id="node10" class="node">
<title>publish_on</title>
<ellipse fill="none" stroke="black" cx="790.01" cy="-18" rx="52.06" ry="18"/>
<text text-anchor="middle" x="790.01" y="-12.57" font-family="Times New Roman,serif" font-size="14.00">publish_on</text>
</g>
<!-- user_accept&#45;&gt;publish_on -->
<g id="edge5" class="edge">
<title>user_accept&#45;&gt;publish_on</title>
<path fill="none" stroke="black" d="M790.01,-71.7C790.01,-64.41 790.01,-55.73 790.01,-47.54"/>
<polygon fill="black" stroke="black" points="793.51,-47.62 790.01,-37.62 786.51,-47.62 793.51,-47.62"/>
</g>
<!-- admin_accept_instead_of -->
<g id="node11" class="node">
<title>admin_accept_instead_of</title>
<ellipse fill="none" stroke="black" cx="970.01" cy="-90" rx="106.45" ry="18"/>
<text text-anchor="middle" x="970.01" y="-84.58" font-family="Times New Roman,serif" font-size="14.00">admin_accept_instead_of</text>
</g>
<!-- admin_accept_instead_of&#45;&gt;instance_of -->
<g id="edge6" class="edge">
<title>admin_accept_instead_of&#45;&gt;instance_of</title>
<path fill="none" stroke="black" d="M956.17,-71.7C949.63,-63.52 941.69,-53.6 934.48,-44.58"/>
<polygon fill="black" stroke="black" points="937.23,-42.43 928.25,-36.8 931.77,-46.8 937.23,-42.43"/>
</g>
<!-- admin_accept_instead_of&#45;&gt;t -->
<g id="edge7" class="edge">
<title>admin_accept_instead_of&#45;&gt;t</title>
<path fill="none" stroke="black" d="M980.64,-71.7C985.63,-63.58 991.67,-53.74 997.18,-44.76"/>
<polygon fill="black" stroke="black" points="1000.05,-46.79 1002.3,-36.43 994.08,-43.12 1000.05,-46.79"/>
</g>
<!-- admin_accept_instead_of&#45;&gt;publish_on -->
<g id="edge9" class="edge">
<title>admin_accept_instead_of&#45;&gt;publish_on</title>
<path fill="none" stroke="black" d="M928.71,-72.94C900.46,-61.95 863.04,-47.4 834.19,-36.18"/>
<polygon fill="black" stroke="black" points="835.59,-32.97 825,-32.61 833.05,-39.49 835.59,-32.97"/>
</g>
<!-- publish -->
<g id="node12" class="node">
<title>publish</title>
<ellipse fill="none" stroke="black" cx="1096.01" cy="-18" rx="37.59" ry="18"/>
<text text-anchor="middle" x="1096.01" y="-12.57" font-family="Times New Roman,serif" font-size="14.00">publish</text>
</g>
<!-- admin_accept_instead_of&#45;&gt;publish -->
<g id="edge8" class="edge">
<title>admin_accept_instead_of&#45;&gt;publish</title>
<path fill="none" stroke="black" d="M999.87,-72.41C1018.62,-61.99 1042.85,-48.53 1062.29,-37.73"/>
<polygon fill="black" stroke="black" points="1063.89,-40.85 1070.93,-32.93 1060.49,-34.73 1063.89,-40.85"/>
</g>
<!-- create -->
<g id="node13" class="node">
<title>create</title>
<ellipse fill="none" stroke="black" cx="1228.01" cy="-90" rx="32.6" ry="18"/>
<text text-anchor="middle" x="1228.01" y="-84.58" font-family="Times New Roman,serif" font-size="14.00">create</text>
</g>
<!-- update -->
<g id="node14" class="node">
<title>update</title>
<ellipse fill="none" stroke="black" cx="1228.01" cy="-18" rx="35.6" ry="18"/>
<text text-anchor="middle" x="1228.01" y="-12.57" font-family="Times New Roman,serif" font-size="14.00">update</text>
</g>
<!-- create&#45;&gt;update -->
<g id="edge10" class="edge">
<title>create&#45;&gt;update</title>
<path fill="none" stroke="black" d="M1228.01,-71.7C1228.01,-64.41 1228.01,-55.73 1228.01,-47.54"/>
<polygon fill="black" stroke="black" points="1231.51,-47.62 1228.01,-37.62 1224.51,-47.62 1231.51,-47.62"/>
</g>
<!-- destroy -->
<g id="node15" class="node">
<title>destroy</title>
<ellipse fill="none" stroke="black" cx="1317.01" cy="-90" rx="38.59" ry="18"/>
<text text-anchor="middle" x="1317.01" y="-84.58" font-family="Times New Roman,serif" font-size="14.00">destroy</text>
</g>
<!-- wording -->
<g id="node16" class="node">
<title>wording</title>
<ellipse fill="none" stroke="black" cx="1136.01" cy="-90" rx="41.08" ry="18"/>
<text text-anchor="middle" x="1136.01" y="-84.58" font-family="Times New Roman,serif" font-size="14.00">wording</text>
</g>
<!-- wording&#45;&gt;t -->
<g id="edge11" class="edge">
<title>wording&#45;&gt;t</title>
<path fill="none" stroke="black" d="M1111.71,-75.17C1091.97,-63.94 1064.05,-48.05 1042.94,-36.04"/>
<polygon fill="black" stroke="black" points="1044.93,-33.14 1034.51,-31.23 1041.47,-39.22 1044.93,-33.14"/>
</g>
</g>
</svg>
