<?xml version="1.0" encoding="UTF-8" standalone="no"?>
<!DOCTYPE svg PUBLIC "-//W3C//DTD SVG 1.1//EN"
 "http://www.w3.org/Graphics/SVG/1.1/DTD/svg11.dtd">
<!-- Generated by graphviz version 9.0.0 (20230911.1827)
 -->
<!-- Title: CallGraph Pages: 1 -->
<svg width="3789pt" height="188pt"
 viewBox="0.00 0.00 3788.84 188.00" xmlns="http://www.w3.org/2000/svg" xmlns:xlink="http://www.w3.org/1999/xlink">
<g id="graph0" class="graph" transform="scale(1 1) rotate(0) translate(4 184)">
<title>CallGraph</title>
<polygon fill="white" stroke="none" points="-4,4 -4,-184 3784.84,-184 3784.84,4 -4,4"/>
<!-- destroy -->
<g id="node1" class="node">
<title>destroy</title>
<ellipse fill="none" stroke="black" cx="89.47" cy="-162" rx="38.59" ry="18"/>
<text text-anchor="middle" x="89.47" y="-156.57" font-family="Times New Roman,serif" font-size="14.00">destroy</text>
</g>
<!-- edit -->
<g id="node2" class="node">
<title>edit</title>
<ellipse fill="none" stroke="black" cx="1000.47" cy="-162" rx="27" ry="18"/>
<text text-anchor="middle" x="1000.47" y="-156.57" font-family="Times New Roman,serif" font-size="14.00">edit</text>
</g>
<!-- find -->
<g id="node3" class="node">
<title>find</title>
<ellipse fill="none" stroke="black" cx="900.47" cy="-90" rx="27" ry="18"/>
<text text-anchor="middle" x="900.47" y="-84.58" font-family="Times New Roman,serif" font-size="14.00">find</text>
</g>
<!-- edit&#45;&gt;find -->
<g id="edge1" class="edge">
<title>edit&#45;&gt;find</title>
<path fill="none" stroke="black" d="M982.59,-148.49C967.33,-137.8 945.14,-122.27 927.67,-110.04"/>
<polygon fill="black" stroke="black" points="929.97,-107.38 919.77,-104.51 925.96,-113.11 929.97,-107.38"/>
</g>
<!-- edit_password -->
<g id="node4" class="node">
<title>edit_password</title>
<ellipse fill="none" stroke="black" cx="1707.47" cy="-162" rx="65.53" ry="18"/>
<text text-anchor="middle" x="1707.47" y="-156.57" font-family="Times New Roman,serif" font-size="14.00">edit_password</text>
</g>
<!-- update_password -->
<g id="node5" class="node">
<title>update_password</title>
<ellipse fill="none" stroke="black" cx="223.47" cy="-162" rx="77.01" ry="18"/>
<text text-anchor="middle" x="223.47" y="-156.57" font-family="Times New Roman,serif" font-size="14.00">update_password</text>
</g>
<!-- update_password&#45;&gt;find -->
<g id="edge2" class="edge">
<title>update_password&#45;&gt;find</title>
<path fill="none" stroke="black" d="M278.36,-149.1C288.66,-147.17 299.36,-145.36 309.47,-144 531.17,-114.25 589.68,-137.03 811.47,-108 828.79,-105.73 847.83,-102.23 863.84,-99"/>
<polygon fill="black" stroke="black" points="864.33,-102.47 873.41,-97.02 862.91,-95.62 864.33,-102.47"/>
</g>
<!-- add -->
<g id="node6" class="node">
<title>add</title>
<ellipse fill="none" stroke="black" cx="239.47" cy="-90" rx="27" ry="18"/>
<text text-anchor="middle" x="239.47" y="-84.58" font-family="Times New Roman,serif" font-size="14.00">add</text>
</g>
<!-- update_password&#45;&gt;add -->
<g id="edge3" class="edge">
<title>update_password&#45;&gt;add</title>
<path fill="none" stroke="black" d="M227.43,-143.7C229.11,-136.32 231.12,-127.52 233.01,-119.25"/>
<polygon fill="black" stroke="black" points="236.41,-120.11 235.22,-109.58 229.58,-118.55 236.41,-120.11"/>
</g>
<!-- t -->
<g id="node7" class="node">
<title>t</title>
<ellipse fill="none" stroke="black" cx="594.47" cy="-90" rx="27" ry="18"/>
<text text-anchor="middle" x="594.47" y="-84.58" font-family="Times New Roman,serif" font-size="14.00">t</text>
</g>
<!-- update_password&#45;&gt;t -->
<g id="edge4" class="edge">
<title>update_password&#45;&gt;t</title>
<path fill="none" stroke="black" d="M280.32,-149.46C290.03,-147.58 300.03,-145.69 309.47,-144 408.72,-126.22 434.97,-129.57 533.47,-108 541.89,-106.16 550.87,-103.85 559.28,-101.53"/>
<polygon fill="black" stroke="black" points="560.16,-104.92 568.83,-98.83 558.26,-98.19 560.16,-104.92"/>
</g>
<!-- update_with_password -->
<g id="node8" class="node">
<title>update_with_password</title>
<ellipse fill="none" stroke="black" cx="97.47" cy="-90" rx="97.47" ry="18"/>
<text text-anchor="middle" x="97.47" y="-84.58" font-family="Times New Roman,serif" font-size="14.00">update_with_password</text>
</g>
<!-- update_password&#45;&gt;update_with_password -->
<g id="edge5" class="edge">
<title>update_password&#45;&gt;update_with_password</title>
<path fill="none" stroke="black" d="M194.56,-144.94C177.52,-135.47 155.72,-123.36 137.09,-113.01"/>
<polygon fill="black" stroke="black" points="138.88,-110 128.44,-108.21 135.48,-116.12 138.88,-110"/>
</g>
<!-- update -->
<g id="node9" class="node">
<title>update</title>
<ellipse fill="none" stroke="black" cx="1588.47" cy="-162" rx="35.6" ry="18"/>
<text text-anchor="middle" x="1588.47" y="-156.57" font-family="Times New Roman,serif" font-size="14.00">update</text>
</g>
<!-- update&#45;&gt;find -->
<g id="edge6" class="edge">
<title>update&#45;&gt;find</title>
<path fill="none" stroke="black" d="M1553.43,-157.92C1513.86,-154.46 1447.55,-148.71 1390.47,-144 1188.75,-127.34 1132.07,-160.07 936.47,-108 934.84,-107.57 933.2,-107.06 931.56,-106.5"/>
<polygon fill="black" stroke="black" points="932.91,-103.28 922.33,-102.78 930.29,-109.77 932.91,-103.28"/>
</g>
<!-- update_user -->
<g id="node10" class="node">
<title>update_user</title>
<ellipse fill="none" stroke="black" cx="1511.47" cy="-90" rx="56.05" ry="18"/>
<text text-anchor="middle" x="1511.47" y="-84.58" font-family="Times New Roman,serif" font-size="14.00">update_user</text>
</g>
<!-- update&#45;&gt;update_user -->
<g id="edge7" class="edge">
<title>update&#45;&gt;update_user</title>
<path fill="none" stroke="black" d="M1571.76,-145.81C1561.82,-136.78 1548.99,-125.11 1537.73,-114.87"/>
<polygon fill="black" stroke="black" points="1540.36,-112.54 1530.61,-108.4 1535.65,-117.71 1540.36,-112.54"/>
</g>
<!-- respond_bip_error -->
<g id="node11" class="node">
<title>respond_bip_error</title>
<ellipse fill="none" stroke="black" cx="1666.47" cy="-90" rx="81" ry="18"/>
<text text-anchor="middle" x="1666.47" y="-84.58" font-family="Times New Roman,serif" font-size="14.00">respond_bip_error</text>
</g>
<!-- update&#45;&gt;respond_bip_error -->
<g id="edge8" class="edge">
<title>update&#45;&gt;respond_bip_error</title>
<path fill="none" stroke="black" d="M1605.4,-145.81C1615.32,-136.9 1628.09,-125.44 1639.39,-115.31"/>
<polygon fill="black" stroke="black" points="1641.43,-118.17 1646.54,-108.89 1636.76,-112.96 1641.43,-118.17"/>
</g>
<!-- render -->
<g id="node12" class="node">
<title>render</title>
<ellipse fill="none" stroke="black" cx="1799.47" cy="-90" rx="34.1" ry="18"/>
<text text-anchor="middle" x="1799.47" y="-84.58" font-family="Times New Roman,serif" font-size="14.00">render</text>
</g>
<!-- update&#45;&gt;render -->
<g id="edge9" class="edge">
<title>update&#45;&gt;render</title>
<path fill="none" stroke="black" d="M1615.8,-150.02C1621.29,-147.94 1627.04,-145.83 1632.47,-144 1686.84,-125.64 1702.17,-126.57 1756.47,-108 1758.44,-107.33 1760.44,-106.62 1762.46,-105.88"/>
<polygon fill="black" stroke="black" points="1763.7,-109.16 1771.82,-102.36 1761.23,-102.61 1763.7,-109.16"/>
</g>
<!-- update_without_password -->
<g id="node38" class="node">
<title>update_without_password</title>
<ellipse fill="none" stroke="black" cx="1809.47" cy="-18" rx="109.45" ry="18"/>
<text text-anchor="middle" x="1809.47" y="-12.57" font-family="Times New Roman,serif" font-size="14.00">update_without_password</text>
</g>
<!-- update_user&#45;&gt;update_without_password -->
<g id="edge39" class="edge">
<title>update_user&#45;&gt;update_without_password</title>
<path fill="none" stroke="black" d="M1553.73,-77.74C1561.29,-75.78 1569.11,-73.8 1576.47,-72 1629.15,-59.12 1688.78,-45.58 1734.53,-35.4"/>
<polygon fill="black" stroke="black" points="1735.07,-38.87 1744.08,-33.29 1733.56,-32.04 1735.07,-38.87"/>
</g>
<!-- authorize -->
<g id="node41" class="node">
<title>authorize</title>
<ellipse fill="none" stroke="black" cx="1511.47" cy="-18" rx="44.08" ry="18"/>
<text text-anchor="middle" x="1511.47" y="-12.57" font-family="Times New Roman,serif" font-size="14.00">authorize</text>
</g>
<!-- update_user&#45;&gt;authorize -->
<g id="edge38" class="edge">
<title>update_user&#45;&gt;authorize</title>
<path fill="none" stroke="black" d="M1511.47,-71.7C1511.47,-64.41 1511.47,-55.73 1511.47,-47.54"/>
<polygon fill="black" stroke="black" points="1514.97,-47.62 1511.47,-37.62 1507.97,-47.62 1514.97,-47.62"/>
</g>
<!-- edit_profile_type -->
<g id="node13" class="node">
<title>edit_profile_type</title>
<ellipse fill="none" stroke="black" cx="881.47" cy="-162" rx="74.02" ry="18"/>
<text text-anchor="middle" x="881.47" y="-156.57" font-family="Times New Roman,serif" font-size="14.00">edit_profile_type</text>
</g>
<!-- edit_profile_type&#45;&gt;find -->
<g id="edge10" class="edge">
<title>edit_profile_type&#45;&gt;find</title>
<path fill="none" stroke="black" d="M886.17,-143.7C888.19,-136.24 890.61,-127.32 892.88,-118.97"/>
<polygon fill="black" stroke="black" points="896.19,-120.13 895.43,-109.57 889.43,-118.3 896.19,-120.13"/>
</g>
<!-- transfer_rights -->
<g id="node14" class="node">
<title>transfer_rights</title>
<ellipse fill="none" stroke="black" cx="725.47" cy="-162" rx="64.04" ry="18"/>
<text text-anchor="middle" x="725.47" y="-156.57" font-family="Times New Roman,serif" font-size="14.00">transfer_rights</text>
</g>
<!-- transfer_rights&#45;&gt;find -->
<g id="edge11" class="edge">
<title>transfer_rights&#45;&gt;find</title>
<path fill="none" stroke="black" d="M761.31,-146.67C792.39,-134.23 837.02,-116.38 867.3,-104.27"/>
<polygon fill="black" stroke="black" points="868.36,-107.61 876.34,-100.65 865.76,-101.12 868.36,-107.61"/>
</g>
<!-- transfer_rights&#45;&gt;t -->
<g id="edge13" class="edge">
<title>transfer_rights&#45;&gt;t</title>
<path fill="none" stroke="black" d="M696.72,-145.64C675.49,-134.29 646.65,-118.88 625.01,-107.32"/>
<polygon fill="black" stroke="black" points="626.83,-104.32 616.36,-102.7 623.53,-110.5 626.83,-104.32"/>
</g>
<!-- transfer_rights_to -->
<g id="node15" class="node">
<title>transfer_rights_to</title>
<ellipse fill="none" stroke="black" cx="725.47" cy="-90" rx="76.51" ry="18"/>
<text text-anchor="middle" x="725.47" y="-84.58" font-family="Times New Roman,serif" font-size="14.00">transfer_rights_to</text>
</g>
<!-- transfer_rights&#45;&gt;transfer_rights_to -->
<g id="edge12" class="edge">
<title>transfer_rights&#45;&gt;transfer_rights_to</title>
<path fill="none" stroke="black" d="M725.47,-143.7C725.47,-136.41 725.47,-127.73 725.47,-119.54"/>
<polygon fill="black" stroke="black" points="728.97,-119.62 725.47,-109.62 721.97,-119.62 728.97,-119.62"/>
</g>
<!-- confirm_deactivation -->
<g id="node16" class="node">
<title>confirm_deactivation</title>
<ellipse fill="none" stroke="black" cx="1880.47" cy="-162" rx="88.99" ry="18"/>
<text text-anchor="middle" x="1880.47" y="-156.57" font-family="Times New Roman,serif" font-size="14.00">confirm_deactivation</text>
</g>
<!-- deactivate -->
<g id="node17" class="node">
<title>deactivate</title>
<ellipse fill="none" stroke="black" cx="366.47" cy="-162" rx="47.57" ry="18"/>
<text text-anchor="middle" x="366.47" y="-156.57" font-family="Times New Roman,serif" font-size="14.00">deactivate</text>
</g>
<!-- deactivate&#45;&gt;t -->
<g id="edge15" class="edge">
<title>deactivate&#45;&gt;t</title>
<path fill="none" stroke="black" d="M402.6,-149.91C445.5,-136.74 516.59,-114.91 559.14,-101.85"/>
<polygon fill="black" stroke="black" points="560.1,-105.21 568.63,-98.93 558.05,-98.52 560.1,-105.21"/>
</g>
<!-- deactivate&#45;&gt;deactivate -->
<g id="edge17" class="edge">
<title>deactivate&#45;&gt;deactivate</title>
<path fill="none" stroke="black" d="M400.21,-175.1C417.03,-176.91 432.04,-172.55 432.04,-162 432.04,-153.93 423.24,-149.47 411.57,-148.64"/>
<polygon fill="black" stroke="black" points="411.64,-145.14 401.72,-148.86 411.8,-152.14 411.64,-145.14"/>
</g>
<!-- list_selection -->
<g id="node18" class="node">
<title>list_selection</title>
<ellipse fill="none" stroke="black" cx="465.47" cy="-90" rx="58.55" ry="18"/>
<text text-anchor="middle" x="465.47" y="-84.58" font-family="Times New Roman,serif" font-size="14.00">list_selection</text>
</g>
<!-- deactivate&#45;&gt;list_selection -->
<g id="edge14" class="edge">
<title>deactivate&#45;&gt;list_selection</title>
<path fill="none" stroke="black" d="M387.95,-145.81C401.29,-136.38 418.69,-124.08 433.61,-113.53"/>
<polygon fill="black" stroke="black" points="435.62,-116.39 441.76,-107.76 431.58,-110.68 435.62,-116.39"/>
</g>
<!-- include -->
<g id="node19" class="node">
<title>include</title>
<ellipse fill="none" stroke="black" cx="351.47" cy="-90" rx="37.09" ry="18"/>
<text text-anchor="middle" x="351.47" y="-84.58" font-family="Times New Roman,serif" font-size="14.00">include</text>
</g>
<!-- deactivate&#45;&gt;include -->
<g id="edge16" class="edge">
<title>deactivate&#45;&gt;include</title>
<path fill="none" stroke="black" d="M362.76,-143.7C361.18,-136.32 359.3,-127.52 357.52,-119.25"/>
<polygon fill="black" stroke="black" points="360.97,-118.63 355.45,-109.58 354.13,-120.1 360.97,-118.63"/>
</g>
<!-- restore -->
<g id="node20" class="node">
<title>restore</title>
<ellipse fill="none" stroke="black" cx="1081.47" cy="-162" rx="36.09" ry="18"/>
<text text-anchor="middle" x="1081.47" y="-156.57" font-family="Times New Roman,serif" font-size="14.00">restore</text>
</g>
<!-- restore&#45;&gt;find -->
<g id="edge18" class="edge">
<title>restore&#45;&gt;find</title>
<path fill="none" stroke="black" d="M1053.41,-150.32C1047.81,-148.21 1041.96,-146.02 1036.47,-144 992.15,-127.65 980.1,-126.11 936.47,-108 934.95,-107.37 933.41,-106.71 931.85,-106.03"/>
<polygon fill="black" stroke="black" points="933.57,-102.97 923.02,-102.03 930.68,-109.35 933.57,-102.97"/>
</g>
<!-- restore&#45;&gt;t -->
<g id="edge21" class="edge">
<title>restore&#45;&gt;t</title>
<path fill="none" stroke="black" d="M1054.71,-149.54C1048.79,-147.39 1042.49,-145.38 1036.47,-144 863.8,-104.33 812.14,-147.67 639.47,-108 635.41,-107.07 631.21,-105.85 627.1,-104.5"/>
<polygon fill="black" stroke="black" points="628.55,-101.3 617.96,-101.21 626.18,-107.89 628.55,-101.3"/>
</g>
<!-- deactivation -->
<g id="node21" class="node">
<title>deactivation</title>
<ellipse fill="none" stroke="black" cx="1130.47" cy="-90" rx="55.06" ry="18"/>
<text text-anchor="middle" x="1130.47" y="-84.58" font-family="Times New Roman,serif" font-size="14.00">deactivation</text>
</g>
<!-- restore&#45;&gt;deactivation -->
<g id="edge19" class="edge">
<title>restore&#45;&gt;deactivation</title>
<path fill="none" stroke="black" d="M1092.84,-144.76C1098.63,-136.49 1105.81,-126.23 1112.34,-116.9"/>
<polygon fill="black" stroke="black" points="1115.09,-119.07 1117.96,-108.87 1109.36,-115.06 1115.09,-119.07"/>
</g>
<!-- inform_user -->
<g id="node22" class="node">
<title>inform_user</title>
<ellipse fill="none" stroke="black" cx="1001.47" cy="-90" rx="55.55" ry="18"/>
<text text-anchor="middle" x="1001.47" y="-84.58" font-family="Times New Roman,serif" font-size="14.00">inform_user</text>
</g>
<!-- restore&#45;&gt;inform_user -->
<g id="edge20" class="edge">
<title>restore&#45;&gt;inform_user</title>
<path fill="none" stroke="black" d="M1064.11,-145.81C1053.78,-136.78 1040.46,-125.11 1028.75,-114.87"/>
<polygon fill="black" stroke="black" points="1031.16,-112.33 1021.33,-108.38 1026.55,-117.6 1031.16,-112.33"/>
</g>
<!-- update_instance_ownership -->
<g id="node23" class="node">
<title>update_instance_ownership</title>
<ellipse fill="none" stroke="black" cx="1249.47" cy="-162" rx="113.94" ry="18"/>
<text text-anchor="middle" x="1249.47" y="-156.57" font-family="Times New Roman,serif" font-size="14.00">update_instance_ownership</text>
</g>
<!-- update_instance_ownership&#45;&gt;find -->
<g id="edge22" class="edge">
<title>update_instance_ownership&#45;&gt;find</title>
<path fill="none" stroke="black" d="M1165.61,-149.44C1087.85,-138.24 978.07,-121.07 936.47,-108 934.86,-107.49 933.24,-106.93 931.61,-106.33"/>
<polygon fill="black" stroke="black" points="932.99,-103.11 922.42,-102.47 930.28,-109.57 932.99,-103.11"/>
</g>
<!-- update_instance_ownership&#45;&gt;t -->
<g id="edge24" class="edge">
<title>update_instance_ownership&#45;&gt;t</title>
<path fill="none" stroke="black" d="M1168.18,-149.02C1154.28,-147.19 1139.98,-145.43 1126.47,-144 910.64,-121.13 851.39,-154.83 639.47,-108 635.4,-107.1 631.2,-105.9 627.09,-104.56"/>
<polygon fill="black" stroke="black" points="628.53,-101.36 617.94,-101.28 626.17,-107.95 628.53,-101.36"/>
</g>
<!-- update_instance_ownership&#45;&gt;update_instance_ownership -->
<g id="edge23" class="edge">
<title>update_instance_ownership&#45;&gt;update_instance_ownership</title>
<path fill="none" stroke="black" d="M1327.7,-175.47C1357.13,-175.95 1381.41,-171.46 1381.41,-162 1381.41,-153.8 1363.15,-149.33 1339.11,-148.61"/>
<polygon fill="black" stroke="black" points="1339.24,-145.11 1329.22,-148.54 1339.19,-152.11 1339.24,-145.11"/>
</g>
<!-- create_and_deliver -->
<g id="node24" class="node">
<title>create_and_deliver</title>
<ellipse fill="none" stroke="black" cx="1356.47" cy="-90" rx="80.5" ry="18"/>
<text text-anchor="middle" x="1356.47" y="-84.58" font-family="Times New Roman,serif" font-size="14.00">create_and_deliver</text>
</g>
<!-- update_instance_ownership&#45;&gt;create_and_deliver -->
<g id="edge25" class="edge">
<title>update_instance_ownership&#45;&gt;create_and_deliver</title>
<path fill="none" stroke="black" d="M1275.37,-144.05C1289.27,-134.96 1306.6,-123.63 1321.66,-113.77"/>
<polygon fill="black" stroke="black" points="1323.46,-116.78 1329.91,-108.38 1319.63,-110.92 1323.46,-116.78"/>
</g>
<!-- key -->
<g id="node25" class="node">
<title>key</title>
<ellipse fill="none" stroke="black" cx="1230.47" cy="-90" rx="27" ry="18"/>
<text text-anchor="middle" x="1230.47" y="-84.58" font-family="Times New Roman,serif" font-size="14.00">key</text>
</g>
<!-- update_instance_ownership&#45;&gt;key -->
<g id="edge26" class="edge">
<title>update_instance_ownership&#45;&gt;key</title>
<path fill="none" stroke="black" d="M1244.77,-143.7C1242.75,-136.24 1240.33,-127.32 1238.06,-118.97"/>
<polygon fill="black" stroke="black" points="1241.51,-118.3 1235.51,-109.57 1234.75,-120.13 1241.51,-118.3"/>
</g>
<!-- user_params -->
<g id="node26" class="node">
<title>user_params</title>
<ellipse fill="none" stroke="black" cx="2045.47" cy="-162" rx="58.05" ry="18"/>
<text text-anchor="middle" x="2045.47" y="-156.57" font-family="Times New Roman,serif" font-size="14.00">user_params</text>
</g>
<!-- require -->
<g id="node27" class="node">
<title>require</title>
<ellipse fill="none" stroke="black" cx="2193.47" cy="-90" rx="36.09" ry="18"/>
<text text-anchor="middle" x="2193.47" y="-84.58" font-family="Times New Roman,serif" font-size="14.00">require</text>
</g>
<!-- user_params&#45;&gt;require -->
<g id="edge27" class="edge">
<title>user_params&#45;&gt;require</title>
<path fill="none" stroke="black" d="M2076.5,-146.33C2100.23,-135.1 2132.99,-119.61 2157.8,-107.87"/>
<polygon fill="black" stroke="black" points="2158.99,-111.18 2166.53,-103.74 2156,-104.85 2158.99,-111.18"/>
</g>
<!-- permit -->
<g id="node28" class="node">
<title>permit</title>
<ellipse fill="none" stroke="black" cx="2281.47" cy="-90" rx="34.1" ry="18"/>
<text text-anchor="middle" x="2281.47" y="-84.58" font-family="Times New Roman,serif" font-size="14.00">permit</text>
</g>
<!-- user_params&#45;&gt;permit -->
<g id="edge28" class="edge">
<title>user_params&#45;&gt;permit</title>
<path fill="none" stroke="black" d="M2088.82,-149.68C2136.76,-137.06 2210.87,-117.22 2238.47,-108 2240.44,-107.34 2242.45,-106.64 2244.48,-105.92"/>
<polygon fill="black" stroke="black" points="2245.7,-109.2 2253.84,-102.42 2243.25,-102.64 2245.7,-109.2"/>
</g>
<!-- user_params_without_rights -->
<g id="node29" class="node">
<title>user_params_without_rights</title>
<ellipse fill="none" stroke="black" cx="2237.47" cy="-162" rx="115.93" ry="18"/>
<text text-anchor="middle" x="2237.47" y="-156.57" font-family="Times New Roman,serif" font-size="14.00">user_params_without_rights</text>
</g>
<!-- user_params_without_rights&#45;&gt;require -->
<g id="edge29" class="edge">
<title>user_params_without_rights&#45;&gt;require</title>
<path fill="none" stroke="black" d="M2226.59,-143.7C2221.56,-135.7 2215.48,-126.02 2209.91,-117.15"/>
<polygon fill="black" stroke="black" points="2213.01,-115.51 2204.72,-108.9 2207.08,-119.23 2213.01,-115.51"/>
</g>
<!-- user_params_without_rights&#45;&gt;permit -->
<g id="edge30" class="edge">
<title>user_params_without_rights&#45;&gt;permit</title>
<path fill="none" stroke="black" d="M2248.35,-143.7C2253.38,-135.7 2259.46,-126.02 2265.03,-117.15"/>
<polygon fill="black" stroke="black" points="2267.86,-119.23 2270.22,-108.9 2261.93,-115.51 2267.86,-119.23"/>
</g>
<!-- list_items_crud -->
<g id="node30" class="node">
<title>list_items_crud</title>
<ellipse fill="none" stroke="black" cx="2655.47" cy="-162" rx="67.53" ry="18"/>
<text text-anchor="middle" x="2655.47" y="-156.57" font-family="Times New Roman,serif" font-size="14.00">list_items_crud</text>
</g>
<!-- users_list -->
<g id="node31" class="node">
<title>users_list</title>
<ellipse fill="none" stroke="black" cx="2655.47" cy="-90" rx="45.57" ry="18"/>
<text text-anchor="middle" x="2655.47" y="-84.58" font-family="Times New Roman,serif" font-size="14.00">users_list</text>
</g>
<!-- list_items_crud&#45;&gt;users_list -->
<g id="edge31" class="edge">
<title>list_items_crud&#45;&gt;users_list</title>
<path fill="none" stroke="black" d="M2655.47,-143.7C2655.47,-136.41 2655.47,-127.73 2655.47,-119.54"/>
<polygon fill="black" stroke="black" points="2658.97,-119.62 2655.47,-109.62 2651.97,-119.62 2658.97,-119.62"/>
</g>
<!-- list_tabs_crud -->
<g id="node32" class="node">
<title>list_tabs_crud</title>
<ellipse fill="none" stroke="black" cx="2804.47" cy="-162" rx="63.54" ry="18"/>
<text text-anchor="middle" x="2804.47" y="-156.57" font-family="Times New Roman,serif" font-size="14.00">list_tabs_crud</text>
</g>
<!-- where -->
<g id="node33" class="node">
<title>where</title>
<ellipse fill="none" stroke="black" cx="2804.47" cy="-90" rx="32.6" ry="18"/>
<text text-anchor="middle" x="2804.47" y="-84.58" font-family="Times New Roman,serif" font-size="14.00">where</text>
</g>
<!-- list_tabs_crud&#45;&gt;where -->
<g id="edge32" class="edge">
<title>list_tabs_crud&#45;&gt;where</title>
<path fill="none" stroke="black" d="M2804.47,-143.7C2804.47,-136.41 2804.47,-127.73 2804.47,-119.54"/>
<polygon fill="black" stroke="black" points="2807.97,-119.62 2804.47,-109.62 2800.97,-119.62 2807.97,-119.62"/>
</g>
<!-- user_password_params -->
<g id="node34" class="node">
<title>user_password_params</title>
<ellipse fill="none" stroke="black" cx="2470.47" cy="-162" rx="99.47" ry="18"/>
<text text-anchor="middle" x="2470.47" y="-156.57" font-family="Times New Roman,serif" font-size="14.00">user_password_params</text>
</g>
<!-- user_password_params&#45;&gt;require -->
<g id="edge33" class="edge">
<title>user_password_params&#45;&gt;require</title>
<path fill="none" stroke="black" d="M2403.84,-148.3C2357.13,-138.78 2293.45,-124.58 2238.47,-108 2236.22,-107.32 2233.92,-106.59 2231.61,-105.82"/>
<polygon fill="black" stroke="black" points="2232.89,-102.56 2222.3,-102.53 2230.57,-109.16 2232.89,-102.56"/>
</g>
<!-- user_password_params&#45;&gt;permit -->
<g id="edge34" class="edge">
<title>user_password_params&#45;&gt;permit</title>
<path fill="none" stroke="black" d="M2428.06,-145.29C2395.44,-133.21 2350.79,-116.67 2319.36,-105.03"/>
<polygon fill="black" stroke="black" points="2320.85,-101.85 2310.26,-101.66 2318.42,-108.42 2320.85,-101.85"/>
</g>
<!-- can_change_pyx4_module_responsibilities -->
<g id="node35" class="node">
<title>can_change_pyx4_module_responsibilities</title>
<ellipse fill="none" stroke="black" cx="3056.47" cy="-162" rx="170.32" ry="18"/>
<text text-anchor="middle" x="3056.47" y="-156.57" font-family="Times New Roman,serif" font-size="14.00">can_change_pyx4_module_responsibilities</text>
</g>
<!-- can_assign_user -->
<g id="node36" class="node">
<title>can_assign_user</title>
<ellipse fill="none" stroke="black" cx="3056.47" cy="-90" rx="72.02" ry="18"/>
<text text-anchor="middle" x="3056.47" y="-84.58" font-family="Times New Roman,serif" font-size="14.00">can_assign_user</text>
</g>
<!-- can_change_pyx4_module_responsibilities&#45;&gt;can_assign_user -->
<g id="edge35" class="edge">
<title>can_change_pyx4_module_responsibilities&#45;&gt;can_assign_user</title>
<path fill="none" stroke="black" d="M3056.47,-143.7C3056.47,-136.41 3056.47,-127.73 3056.47,-119.54"/>
<polygon fill="black" stroke="black" points="3059.97,-119.62 3056.47,-109.62 3052.97,-119.62 3059.97,-119.62"/>
</g>
<!-- update_user_profile -->
<g id="node37" class="node">
<title>update_user_profile</title>
<ellipse fill="none" stroke="black" cx="1936.47" cy="-90" rx="85" ry="18"/>
<text text-anchor="middle" x="1936.47" y="-84.58" font-family="Times New Roman,serif" font-size="14.00">update_user_profile</text>
</g>
<!-- update_user_profile&#45;&gt;update_without_password -->
<g id="edge36" class="edge">
<title>update_user_profile&#45;&gt;update_without_password</title>
<path fill="none" stroke="black" d="M1907.01,-72.76C1889.95,-63.36 1868.23,-51.39 1849.62,-41.13"/>
<polygon fill="black" stroke="black" points="1851.42,-38.13 1840.97,-36.36 1848.04,-44.26 1851.42,-38.13"/>
</g>
<!-- update_improver_profile -->
<g id="node39" class="node">
<title>update_improver_profile</title>
<ellipse fill="none" stroke="black" cx="3347.47" cy="-162" rx="102.96" ry="18"/>
<text text-anchor="middle" x="3347.47" y="-156.57" font-family="Times New Roman,serif" font-size="14.00">update_improver_profile</text>
</g>
<!-- update_improver_profile&#45;&gt;update_improver_profile -->
<g id="edge37" class="edge">
<title>update_improver_profile&#45;&gt;update_improver_profile</title>
<path fill="none" stroke="black" d="M3418.29,-175.45C3445.67,-176.04 3468.43,-171.56 3468.43,-162 3468.43,-153.78 3451.62,-149.32 3429.52,-148.6"/>
<polygon fill="black" stroke="black" points="3429.82,-145.1 3419.8,-148.56 3429.79,-152.1 3429.82,-145.1"/>
</g>
<!-- improver_responsibilities_in_params -->
<g id="node40" class="node">
<title>improver_responsibilities_in_params</title>
<ellipse fill="none" stroke="black" cx="3633.47" cy="-162" rx="147.37" ry="18"/>
<text text-anchor="middle" x="3633.47" y="-156.57" font-family="Times New Roman,serif" font-size="14.00">improver_responsibilities_in_params</text>
</g>
<!-- add_max_users_errors -->
<g id="node42" class="node">
<title>add_max_users_errors</title>
<ellipse fill="none" stroke="black" cx="546.47" cy="-162" rx="96.47" ry="18"/>
<text text-anchor="middle" x="546.47" y="-156.57" font-family="Times New Roman,serif" font-size="14.00">add_max_users_errors</text>
</g>
<!-- add_max_users_errors&#45;&gt;t -->
<g id="edge40" class="edge">
<title>add_max_users_errors&#45;&gt;t</title>
<path fill="none" stroke="black" d="M558.34,-143.7C564.04,-135.37 571,-125.23 577.27,-116.08"/>
<polygon fill="black" stroke="black" points="580.1,-118.15 582.87,-107.92 574.33,-114.19 580.1,-118.15"/>
</g>
</g>
</svg>
