<?xml version="1.0" encoding="UTF-8" standalone="no"?>
<!DOCTYPE svg PUBLIC "-//W3C//DTD SVG 1.1//EN"
 "http://www.w3.org/Graphics/SVG/1.1/DTD/svg11.dtd">
<!-- Generated by graphviz version 9.0.0 (20230911.1827)
 -->
<!-- Title: CallGraph Pages: 1 -->
<svg width="371pt" height="116pt"
 viewBox="0.00 0.00 371.00 116.00" xmlns="http://www.w3.org/2000/svg" xmlns:xlink="http://www.w3.org/1999/xlink">
<g id="graph0" class="graph" transform="scale(1 1) rotate(0) translate(4 112)">
<title>CallGraph</title>
<polygon fill="white" stroke="none" points="-4,4 -4,-112 367,-112 367,4 -4,4"/>
<!-- set_parent_directory -->
<g id="node1" class="node">
<title>set_parent_directory</title>
<ellipse fill="none" stroke="black" cx="185" cy="-90" rx="87.49" ry="18"/>
<text text-anchor="middle" x="185" y="-84.58" font-family="Times New Roman,serif" font-size="14.00">set_parent_directory</text>
</g>
<!-- find -->
<g id="node2" class="node">
<title>find</title>
<ellipse fill="none" stroke="black" cx="27" cy="-18" rx="27" ry="18"/>
<text text-anchor="middle" x="27" y="-12.57" font-family="Times New Roman,serif" font-size="14.00">find</text>
</g>
<!-- set_parent_directory&#45;&gt;find -->
<g id="edge1" class="edge">
<title>set_parent_directory&#45;&gt;find</title>
<path fill="none" stroke="black" d="M148.03,-73.3C123.77,-62.9 91.4,-48.87 63,-36 61.69,-35.41 60.35,-34.8 59.01,-34.18"/>
<polygon fill="black" stroke="black" points="60.57,-31.04 50.02,-30 57.61,-37.39 60.57,-31.04"/>
</g>
<!-- index -->
<g id="node3" class="node">
<title>index</title>
<ellipse fill="none" stroke="black" cx="103" cy="-18" rx="30.61" ry="18"/>
<text text-anchor="middle" x="103" y="-12.57" font-family="Times New Roman,serif" font-size="14.00">index</text>
</g>
<!-- set_parent_directory&#45;&gt;index -->
<g id="edge2" class="edge">
<title>set_parent_directory&#45;&gt;index</title>
<path fill="none" stroke="black" d="M165.15,-72.05C154.12,-62.64 140.28,-50.82 128.46,-40.74"/>
<polygon fill="black" stroke="black" points="130.93,-38.24 121.05,-34.41 126.38,-43.56 130.93,-38.24"/>
</g>
<!-- rindex -->
<g id="node4" class="node">
<title>rindex</title>
<ellipse fill="none" stroke="black" cx="185" cy="-18" rx="33.6" ry="18"/>
<text text-anchor="middle" x="185" y="-12.57" font-family="Times New Roman,serif" font-size="14.00">rindex</text>
</g>
<!-- set_parent_directory&#45;&gt;rindex -->
<g id="edge3" class="edge">
<title>set_parent_directory&#45;&gt;rindex</title>
<path fill="none" stroke="black" d="M185,-71.7C185,-64.41 185,-55.73 185,-47.54"/>
<polygon fill="black" stroke="black" points="188.5,-47.62 185,-37.62 181.5,-47.62 188.5,-47.62"/>
</g>
<!-- split -->
<g id="node5" class="node">
<title>split</title>
<ellipse fill="none" stroke="black" cx="264" cy="-18" rx="27" ry="18"/>
<text text-anchor="middle" x="264" y="-12.57" font-family="Times New Roman,serif" font-size="14.00">split</text>
</g>
<!-- set_parent_directory&#45;&gt;split -->
<g id="edge4" class="edge">
<title>set_parent_directory&#45;&gt;split</title>
<path fill="none" stroke="black" d="M204.12,-72.05C214.89,-62.51 228.45,-50.5 239.94,-40.32"/>
<polygon fill="black" stroke="black" points="241.94,-43.22 247.11,-33.97 237.3,-37.98 241.94,-43.22"/>
</g>
<!-- t -->
<g id="node6" class="node">
<title>t</title>
<ellipse fill="none" stroke="black" cx="336" cy="-18" rx="27" ry="18"/>
<text text-anchor="middle" x="336" y="-12.57" font-family="Times New Roman,serif" font-size="14.00">t</text>
</g>
<!-- set_parent_directory&#45;&gt;t -->
<g id="edge5" class="edge">
<title>set_parent_directory&#45;&gt;t</title>
<path fill="none" stroke="black" d="M219.76,-73.08C242.6,-62.6 273.11,-48.55 300,-36 301.3,-35.39 302.63,-34.77 303.98,-34.14"/>
<polygon fill="black" stroke="black" points="305.38,-37.35 312.94,-29.92 302.4,-31.01 305.38,-37.35"/>
</g>
</g>
</svg>
