<?xml version="1.0" encoding="UTF-8" standalone="no"?>
<!DOCTYPE svg PUBLIC "-//W3C//DTD SVG 1.1//EN"
 "http://www.w3.org/Graphics/SVG/1.1/DTD/svg11.dtd">
<!-- Generated by graphviz version 9.0.0 (20230911.1827)
 -->
<!-- Title: CallGraph Pages: 1 -->
<svg width="3854pt" height="260pt"
 viewBox="0.00 0.00 3854.12 260.00" xmlns="http://www.w3.org/2000/svg" xmlns:xlink="http://www.w3.org/1999/xlink">
<g id="graph0" class="graph" transform="scale(1 1) rotate(0) translate(4 256)">
<title>CallGraph</title>
<polygon fill="white" stroke="none" points="-4,4 -4,-256 3850.12,-256 3850.12,4 -4,4"/>
<!-- index -->
<g id="node1" class="node">
<title>index</title>
<ellipse fill="none" stroke="black" cx="516.6" cy="-162" rx="30.61" ry="18"/>
<text text-anchor="middle" x="516.6" y="-156.57" font-family="Times New Roman,serif" font-size="14.00">index</text>
</g>
<!-- t -->
<g id="node2" class="node">
<title>t</title>
<ellipse fill="none" stroke="black" cx="709.6" cy="-90" rx="27" ry="18"/>
<text text-anchor="middle" x="709.6" y="-84.58" font-family="Times New Roman,serif" font-size="14.00">t</text>
</g>
<!-- index&#45;&gt;t -->
<g id="edge1" class="edge">
<title>index&#45;&gt;t</title>
<path fill="none" stroke="black" d="M541.8,-151.39C548.25,-148.96 555.18,-146.36 561.6,-144 600.44,-129.71 645.19,-113.76 675.23,-103.12"/>
<polygon fill="black" stroke="black" points="676.29,-106.46 684.55,-99.82 673.95,-99.86 676.29,-106.46"/>
</g>
<!-- l -->
<g id="node3" class="node">
<title>l</title>
<ellipse fill="none" stroke="black" cx="522.6" cy="-90" rx="27" ry="18"/>
<text text-anchor="middle" x="522.6" y="-84.58" font-family="Times New Roman,serif" font-size="14.00">l</text>
</g>
<!-- index&#45;&gt;l -->
<g id="edge2" class="edge">
<title>index&#45;&gt;l</title>
<path fill="none" stroke="black" d="M518.09,-143.7C518.71,-136.41 519.46,-127.73 520.16,-119.54"/>
<polygon fill="black" stroke="black" points="523.64,-119.87 521.01,-109.61 516.67,-119.28 523.64,-119.87"/>
</g>
<!-- show -->
<g id="node4" class="node">
<title>show</title>
<ellipse fill="none" stroke="black" cx="1722.6" cy="-162" rx="30.61" ry="18"/>
<text text-anchor="middle" x="1722.6" y="-156.57" font-family="Times New Roman,serif" font-size="14.00">show</text>
</g>
<!-- find -->
<g id="node5" class="node">
<title>find</title>
<ellipse fill="none" stroke="black" cx="1848.6" cy="-90" rx="27" ry="18"/>
<text text-anchor="middle" x="1848.6" y="-84.58" font-family="Times New Roman,serif" font-size="14.00">find</text>
</g>
<!-- show&#45;&gt;find -->
<g id="edge3" class="edge">
<title>show&#45;&gt;find</title>
<path fill="none" stroke="black" d="M1744.26,-148.97C1764.76,-137.58 1795.72,-120.38 1818.6,-107.67"/>
<polygon fill="black" stroke="black" points="1820.11,-110.83 1827.15,-102.92 1816.71,-104.72 1820.11,-110.83"/>
</g>
<!-- show_properties_resource_path -->
<g id="node6" class="node">
<title>show_properties_resource_path</title>
<ellipse fill="none" stroke="black" cx="1672.6" cy="-90" rx="130.9" ry="18"/>
<text text-anchor="middle" x="1672.6" y="-84.58" font-family="Times New Roman,serif" font-size="14.00">show_properties_resource_path</text>
</g>
<!-- show&#45;&gt;show_properties_resource_path -->
<g id="edge4" class="edge">
<title>show&#45;&gt;show_properties_resource_path</title>
<path fill="none" stroke="black" d="M1711.26,-145.12C1705.44,-136.97 1698.2,-126.84 1691.57,-117.55"/>
<polygon fill="black" stroke="black" points="1694.49,-115.63 1685.83,-109.52 1688.8,-119.7 1694.49,-115.63"/>
</g>
<!-- absolute_url -->
<g id="node7" class="node">
<title>absolute_url</title>
<ellipse fill="none" stroke="black" cx="1617.6" cy="-162" rx="56.05" ry="18"/>
<text text-anchor="middle" x="1617.6" y="-156.57" font-family="Times New Roman,serif" font-size="14.00">absolute_url</text>
</g>
<!-- absolute_url&#45;&gt;find -->
<g id="edge5" class="edge">
<title>absolute_url&#45;&gt;find</title>
<path fill="none" stroke="black" d="M1659.94,-149.92C1712.86,-136 1798.24,-113.3 1812.6,-108 1814.14,-107.43 1815.71,-106.82 1817.28,-106.19"/>
<polygon fill="black" stroke="black" points="1818.4,-109.52 1826.16,-102.31 1815.6,-103.1 1818.4,-109.52"/>
</g>
<!-- absolute_url&#45;&gt;show_properties_resource_path -->
<g id="edge6" class="edge">
<title>absolute_url&#45;&gt;show_properties_resource_path</title>
<path fill="none" stroke="black" d="M1630.92,-144.05C1637.24,-136.01 1644.94,-126.2 1652,-117.23"/>
<polygon fill="black" stroke="black" points="1654.67,-119.49 1658.09,-109.47 1649.16,-115.17 1654.67,-119.49"/>
</g>
<!-- show_properties -->
<g id="node8" class="node">
<title>show_properties</title>
<ellipse fill="none" stroke="black" cx="2388.6" cy="-162" rx="73.02" ry="18"/>
<text text-anchor="middle" x="2388.6" y="-156.57" font-family="Times New Roman,serif" font-size="14.00">show_properties</text>
</g>
<!-- show_properties&#45;&gt;find -->
<g id="edge7" class="edge">
<title>show_properties&#45;&gt;find</title>
<path fill="none" stroke="black" d="M2335.8,-149.33C2326.12,-147.4 2316.08,-145.53 2306.6,-144 2151.76,-119.04 1965.64,-101.24 1886.83,-94.26"/>
<polygon fill="black" stroke="black" points="1887.34,-90.79 1877.07,-93.4 1886.73,-97.77 1887.34,-90.79"/>
</g>
<!-- interactions -->
<g id="node9" class="node">
<title>interactions</title>
<ellipse fill="none" stroke="black" cx="2532.6" cy="-162" rx="53.06" ry="18"/>
<text text-anchor="middle" x="2532.6" y="-156.57" font-family="Times New Roman,serif" font-size="14.00">interactions</text>
</g>
<!-- interactions&#45;&gt;find -->
<g id="edge8" class="edge">
<title>interactions&#45;&gt;find</title>
<path fill="none" stroke="black" d="M2494.16,-149.29C2486.42,-147.26 2478.29,-145.37 2470.6,-144 2252.18,-105.09 1985.35,-94.52 1887.2,-91.84"/>
<polygon fill="black" stroke="black" points="1887.41,-88.35 1877.32,-91.59 1887.23,-95.35 1887.41,-88.35"/>
</g>
<!-- new -->
<g id="node10" class="node">
<title>new</title>
<ellipse fill="none" stroke="black" cx="450.6" cy="-90" rx="27" ry="18"/>
<text text-anchor="middle" x="450.6" y="-84.58" font-family="Times New Roman,serif" font-size="14.00">new</text>
</g>
<!-- render_to_string -->
<g id="node11" class="node">
<title>render_to_string</title>
<ellipse fill="none" stroke="black" cx="450.6" cy="-18" rx="72.02" ry="18"/>
<text text-anchor="middle" x="450.6" y="-12.57" font-family="Times New Roman,serif" font-size="14.00">render_to_string</text>
</g>
<!-- new&#45;&gt;render_to_string -->
<g id="edge9" class="edge">
<title>new&#45;&gt;render_to_string</title>
<path fill="none" stroke="black" d="M450.6,-71.7C450.6,-64.41 450.6,-55.73 450.6,-47.54"/>
<polygon fill="black" stroke="black" points="454.1,-47.62 450.6,-37.62 447.1,-47.62 454.1,-47.62"/>
</g>
<!-- create -->
<g id="node12" class="node">
<title>create</title>
<ellipse fill="none" stroke="black" cx="435.6" cy="-162" rx="32.6" ry="18"/>
<text text-anchor="middle" x="435.6" y="-156.57" font-family="Times New Roman,serif" font-size="14.00">create</text>
</g>
<!-- create&#45;&gt;t -->
<g id="edge11" class="edge">
<title>create&#45;&gt;t</title>
<path fill="none" stroke="black" d="M460.5,-149.89C465.76,-147.77 471.32,-145.68 476.6,-144 544.24,-122.46 625.55,-106.04 672.04,-97.51"/>
<polygon fill="black" stroke="black" points="672.65,-100.96 681.87,-95.74 671.41,-94.07 672.65,-100.96"/>
</g>
<!-- create&#45;&gt;new -->
<g id="edge10" class="edge">
<title>create&#45;&gt;new</title>
<path fill="none" stroke="black" d="M439.31,-143.7C440.89,-136.32 442.78,-127.52 444.55,-119.25"/>
<polygon fill="black" stroke="black" points="447.95,-120.1 446.62,-109.58 441.1,-118.63 447.95,-120.1"/>
</g>
<!-- delete -->
<g id="node13" class="node">
<title>delete</title>
<ellipse fill="none" stroke="black" cx="346.6" cy="-162" rx="32.1" ry="18"/>
<text text-anchor="middle" x="346.6" y="-156.57" font-family="Times New Roman,serif" font-size="14.00">delete</text>
</g>
<!-- delete&#45;&gt;t -->
<g id="edge13" class="edge">
<title>delete&#45;&gt;t</title>
<path fill="none" stroke="black" d="M372.2,-150.8C379.07,-148.32 386.55,-145.85 393.6,-144 492.47,-118.06 612.21,-102.05 671.93,-95.08"/>
<polygon fill="black" stroke="black" points="672,-98.6 681.54,-93.98 671.21,-91.64 672,-98.6"/>
</g>
<!-- list_selection -->
<g id="node14" class="node">
<title>list_selection</title>
<ellipse fill="none" stroke="black" cx="346.6" cy="-90" rx="58.55" ry="18"/>
<text text-anchor="middle" x="346.6" y="-84.58" font-family="Times New Roman,serif" font-size="14.00">list_selection</text>
</g>
<!-- delete&#45;&gt;list_selection -->
<g id="edge12" class="edge">
<title>delete&#45;&gt;list_selection</title>
<path fill="none" stroke="black" d="M346.6,-143.7C346.6,-136.41 346.6,-127.73 346.6,-119.54"/>
<polygon fill="black" stroke="black" points="350.1,-119.62 346.6,-109.62 343.1,-119.62 350.1,-119.62"/>
</g>
<!-- humanize_delete_error -->
<g id="node15" class="node">
<title>humanize_delete_error</title>
<ellipse fill="none" stroke="black" cx="175.6" cy="-90" rx="94.48" ry="18"/>
<text text-anchor="middle" x="175.6" y="-84.58" font-family="Times New Roman,serif" font-size="14.00">humanize_delete_error</text>
</g>
<!-- delete&#45;&gt;humanize_delete_error -->
<g id="edge14" class="edge">
<title>delete&#45;&gt;humanize_delete_error</title>
<path fill="none" stroke="black" d="M321.37,-150.67C296,-140.28 256.21,-124 224.62,-111.06"/>
<polygon fill="black" stroke="black" points="226.23,-107.94 215.65,-107.39 223.57,-114.42 226.23,-107.94"/>
</g>
<!-- delete_one -->
<g id="node16" class="node">
<title>delete_one</title>
<ellipse fill="none" stroke="black" cx="1201.6" cy="-162" rx="50.56" ry="18"/>
<text text-anchor="middle" x="1201.6" y="-156.57" font-family="Times New Roman,serif" font-size="14.00">delete_one</text>
</g>
<!-- delete_one&#45;&gt;t -->
<g id="edge16" class="edge">
<title>delete_one&#45;&gt;t</title>
<path fill="none" stroke="black" d="M1164.7,-149.31C1157.43,-147.31 1149.82,-145.42 1142.6,-144 996.1,-115.22 956.47,-128.64 808.6,-108 788.1,-105.14 765.33,-101.28 746.8,-97.96"/>
<polygon fill="black" stroke="black" points="747.54,-94.53 737.08,-96.19 746.29,-101.42 747.54,-94.53"/>
</g>
<!-- delete_one&#45;&gt;find -->
<g id="edge15" class="edge">
<title>delete_one&#45;&gt;find</title>
<path fill="none" stroke="black" d="M1248.12,-154.62C1274.36,-151.16 1307.77,-146.99 1337.6,-144 1548.26,-122.86 1607.92,-162.1 1812.6,-108 1814.23,-107.57 1815.88,-107.07 1817.52,-106.51"/>
<polygon fill="black" stroke="black" points="1818.78,-109.78 1826.75,-102.79 1816.16,-103.28 1818.78,-109.78"/>
</g>
<!-- resource_path -->
<g id="node17" class="node">
<title>resource_path</title>
<ellipse fill="none" stroke="black" cx="1280.6" cy="-90" rx="63.54" ry="18"/>
<text text-anchor="middle" x="1280.6" y="-84.58" font-family="Times New Roman,serif" font-size="14.00">resource_path</text>
</g>
<!-- delete_one&#45;&gt;resource_path -->
<g id="edge17" class="edge">
<title>delete_one&#45;&gt;resource_path</title>
<path fill="none" stroke="black" d="M1219.93,-144.76C1229.85,-135.97 1242.31,-124.93 1253.35,-115.14"/>
<polygon fill="black" stroke="black" points="1255.53,-117.89 1260.7,-108.64 1250.89,-112.65 1255.53,-117.89"/>
</g>
<!-- update -->
<g id="node18" class="node">
<title>update</title>
<ellipse fill="none" stroke="black" cx="1507.6" cy="-162" rx="35.6" ry="18"/>
<text text-anchor="middle" x="1507.6" y="-156.57" font-family="Times New Roman,serif" font-size="14.00">update</text>
</g>
<!-- update&#45;&gt;find -->
<g id="edge18" class="edge">
<title>update&#45;&gt;find</title>
<path fill="none" stroke="black" d="M1534.42,-149.75C1540.33,-147.59 1546.61,-145.53 1552.6,-144 1665.65,-115.21 1700.8,-141.29 1812.6,-108 1814.22,-107.52 1815.85,-106.98 1817.49,-106.39"/>
<polygon fill="black" stroke="black" points="1818.79,-109.63 1826.69,-102.57 1816.11,-103.17 1818.79,-109.63"/>
</g>
<!-- update_attributes -->
<g id="node19" class="node">
<title>update_attributes</title>
<ellipse fill="none" stroke="black" cx="892.6" cy="-90" rx="74.52" ry="18"/>
<text text-anchor="middle" x="892.6" y="-84.58" font-family="Times New Roman,serif" font-size="14.00">update_attributes</text>
</g>
<!-- update&#45;&gt;update_attributes -->
<g id="edge19" class="edge">
<title>update&#45;&gt;update_attributes</title>
<path fill="none" stroke="black" d="M1481.45,-149.54C1475.67,-147.39 1469.5,-145.39 1463.6,-144 1373.1,-122.75 1110.78,-104.3 975.48,-95.87"/>
<polygon fill="black" stroke="black" points="976.08,-92.4 965.89,-95.28 975.65,-99.39 976.08,-92.4"/>
</g>
<!-- respond_with_bip -->
<g id="node20" class="node">
<title>respond_with_bip</title>
<ellipse fill="none" stroke="black" cx="1445.6" cy="-90" rx="78.51" ry="18"/>
<text text-anchor="middle" x="1445.6" y="-84.58" font-family="Times New Roman,serif" font-size="14.00">respond_with_bip</text>
</g>
<!-- update&#45;&gt;respond_with_bip -->
<g id="edge20" class="edge">
<title>update&#45;&gt;respond_with_bip</title>
<path fill="none" stroke="black" d="M1493.53,-145.12C1485.98,-136.59 1476.5,-125.89 1467.97,-116.25"/>
<polygon fill="black" stroke="black" points="1470.73,-114.1 1461.48,-108.93 1465.49,-118.74 1470.73,-114.1"/>
</g>
<!-- update_tags -->
<g id="node21" class="node">
<title>update_tags</title>
<ellipse fill="none" stroke="black" cx="2815.6" cy="-162" rx="55.55" ry="18"/>
<text text-anchor="middle" x="2815.6" y="-156.57" font-family="Times New Roman,serif" font-size="14.00">update_tags</text>
</g>
<!-- update_tags&#45;&gt;find -->
<g id="edge21" class="edge">
<title>update_tags&#45;&gt;find</title>
<path fill="none" stroke="black" d="M2774.02,-149.61C2764.73,-147.42 2754.88,-145.39 2745.6,-144 2416.04,-94.65 2011.93,-90.76 1887.13,-90.82"/>
<polygon fill="black" stroke="black" points="1887.45,-87.32 1877.45,-90.83 1887.46,-94.32 1887.45,-87.32"/>
</g>
<!-- find_or_create_by -->
<g id="node22" class="node">
<title>find_or_create_by</title>
<ellipse fill="none" stroke="black" cx="2808.6" cy="-90" rx="79.51" ry="18"/>
<text text-anchor="middle" x="2808.6" y="-84.58" font-family="Times New Roman,serif" font-size="14.00">find_or_create_by</text>
</g>
<!-- update_tags&#45;&gt;find_or_create_by -->
<g id="edge22" class="edge">
<title>update_tags&#45;&gt;find_or_create_by</title>
<path fill="none" stroke="black" d="M2813.87,-143.7C2813.14,-136.41 2812.28,-127.73 2811.46,-119.54"/>
<polygon fill="black" stroke="black" points="2814.94,-119.21 2810.46,-109.61 2807.98,-119.91 2814.94,-119.21"/>
</g>
<!-- update_url -->
<g id="node23" class="node">
<title>update_url</title>
<ellipse fill="none" stroke="black" cx="767.6" cy="-162" rx="50.07" ry="18"/>
<text text-anchor="middle" x="767.6" y="-156.57" font-family="Times New Roman,serif" font-size="14.00">update_url</text>
</g>
<!-- update_url&#45;&gt;t -->
<g id="edge25" class="edge">
<title>update_url&#45;&gt;t</title>
<path fill="none" stroke="black" d="M753.86,-144.41C746.55,-135.59 737.43,-124.58 729.37,-114.86"/>
<polygon fill="black" stroke="black" points="732.1,-112.67 723.03,-107.2 726.71,-117.14 732.1,-112.67"/>
</g>
<!-- update_url&#45;&gt;find -->
<g id="edge23" class="edge">
<title>update_url&#45;&gt;find</title>
<path fill="none" stroke="black" d="M803.48,-149.16C811.04,-147.09 819.02,-145.21 826.6,-144 1043.11,-109.39 1599.57,-159.87 1812.6,-108 1814.24,-107.6 1815.89,-107.12 1817.54,-106.59"/>
<polygon fill="black" stroke="black" points="1818.77,-109.87 1826.78,-102.93 1816.2,-103.36 1818.77,-109.87"/>
</g>
<!-- update_url&#45;&gt;update_attributes -->
<g id="edge24" class="edge">
<title>update_url&#45;&gt;update_attributes</title>
<path fill="none" stroke="black" d="M793.81,-146.33C811.36,-136.49 834.77,-123.39 854.39,-112.4"/>
<polygon fill="black" stroke="black" points="855.92,-115.55 862.94,-107.61 852.5,-109.44 855.92,-115.55"/>
</g>
<!-- edit_url -->
<g id="node24" class="node">
<title>edit_url</title>
<ellipse fill="none" stroke="black" cx="1848.6" cy="-162" rx="38.59" ry="18"/>
<text text-anchor="middle" x="1848.6" y="-156.57" font-family="Times New Roman,serif" font-size="14.00">edit_url</text>
</g>
<!-- edit_url&#45;&gt;find -->
<g id="edge26" class="edge">
<title>edit_url&#45;&gt;find</title>
<path fill="none" stroke="black" d="M1848.6,-143.7C1848.6,-136.41 1848.6,-127.73 1848.6,-119.54"/>
<polygon fill="black" stroke="black" points="1852.1,-119.62 1848.6,-109.62 1845.1,-119.62 1852.1,-119.62"/>
</g>
<!-- linkable -->
<g id="node25" class="node">
<title>linkable</title>
<ellipse fill="none" stroke="black" cx="2845.6" cy="-234" rx="38.59" ry="18"/>
<text text-anchor="middle" x="2845.6" y="-228.57" font-family="Times New Roman,serif" font-size="14.00">linkable</text>
</g>
<!-- update_logo -->
<g id="node26" class="node">
<title>update_logo</title>
<ellipse fill="none" stroke="black" cx="892.6" cy="-162" rx="57.05" ry="18"/>
<text text-anchor="middle" x="892.6" y="-156.57" font-family="Times New Roman,serif" font-size="14.00">update_logo</text>
</g>
<!-- update_logo&#45;&gt;t -->
<g id="edge29" class="edge">
<title>update_logo&#45;&gt;t</title>
<path fill="none" stroke="black" d="M857.32,-147.5C824.43,-134.92 775.72,-116.29 743.34,-103.9"/>
<polygon fill="black" stroke="black" points="744.62,-100.65 734.03,-100.34 742.12,-107.19 744.62,-100.65"/>
</g>
<!-- update_logo&#45;&gt;find -->
<g id="edge27" class="edge">
<title>update_logo&#45;&gt;find</title>
<path fill="none" stroke="black" d="M933.52,-149.04C941.76,-147.04 950.41,-145.21 958.6,-144 1146.5,-116.16 1628.18,-153.46 1812.6,-108 1814.24,-107.6 1815.89,-107.12 1817.54,-106.58"/>
<polygon fill="black" stroke="black" points="1818.77,-109.85 1826.78,-102.91 1816.19,-103.35 1818.77,-109.85"/>
</g>
<!-- update_logo&#45;&gt;update_attributes -->
<g id="edge28" class="edge">
<title>update_logo&#45;&gt;update_attributes</title>
<path fill="none" stroke="black" d="M892.6,-143.7C892.6,-136.41 892.6,-127.73 892.6,-119.54"/>
<polygon fill="black" stroke="black" points="896.1,-119.62 892.6,-109.62 889.1,-119.62 896.1,-119.62"/>
</g>
<!-- serve_logo -->
<g id="node27" class="node">
<title>serve_logo</title>
<ellipse fill="none" stroke="black" cx="2947.6" cy="-162" rx="51.56" ry="18"/>
<text text-anchor="middle" x="2947.6" y="-156.57" font-family="Times New Roman,serif" font-size="14.00">serve_logo</text>
</g>
<!-- serve_logo&#45;&gt;find -->
<g id="edge30" class="edge">
<title>serve_logo&#45;&gt;find</title>
<path fill="none" stroke="black" d="M2908.9,-149.8C2899.69,-147.52 2889.86,-145.4 2880.6,-144 2683.31,-114.2 2049.75,-96.17 1887,-91.96"/>
<polygon fill="black" stroke="black" points="1887.28,-88.46 1877.19,-91.71 1887.1,-95.46 1887.28,-88.46"/>
</g>
<!-- logo_url -->
<g id="node28" class="node">
<title>logo_url</title>
<ellipse fill="none" stroke="black" cx="2947.6" cy="-90" rx="41.58" ry="18"/>
<text text-anchor="middle" x="2947.6" y="-84.58" font-family="Times New Roman,serif" font-size="14.00">logo_url</text>
</g>
<!-- serve_logo&#45;&gt;logo_url -->
<g id="edge31" class="edge">
<title>serve_logo&#45;&gt;logo_url</title>
<path fill="none" stroke="black" d="M2947.6,-143.7C2947.6,-136.41 2947.6,-127.73 2947.6,-119.54"/>
<polygon fill="black" stroke="black" points="2951.1,-119.62 2947.6,-109.62 2944.1,-119.62 2951.1,-119.62"/>
</g>
<!-- send_file -->
<g id="node29" class="node">
<title>send_file</title>
<ellipse fill="none" stroke="black" cx="3051.6" cy="-90" rx="44.08" ry="18"/>
<text text-anchor="middle" x="3051.6" y="-84.58" font-family="Times New Roman,serif" font-size="14.00">send_file</text>
</g>
<!-- serve_logo&#45;&gt;send_file -->
<g id="edge32" class="edge">
<title>serve_logo&#45;&gt;send_file</title>
<path fill="none" stroke="black" d="M2970.68,-145.46C2985.15,-135.72 3004.01,-123.04 3019.87,-112.36"/>
<polygon fill="black" stroke="black" points="3021.7,-115.34 3028.04,-106.86 3017.79,-109.54 3021.7,-115.34"/>
</g>
<!-- crop_logo -->
<g id="node30" class="node">
<title>crop_logo</title>
<ellipse fill="none" stroke="black" cx="2653.6" cy="-162" rx="49.57" ry="18"/>
<text text-anchor="middle" x="2653.6" y="-156.57" font-family="Times New Roman,serif" font-size="14.00">crop_logo</text>
</g>
<!-- crop_logo&#45;&gt;find -->
<g id="edge33" class="edge">
<title>crop_logo&#45;&gt;find</title>
<path fill="none" stroke="black" d="M2617.38,-149.27C2609.91,-147.22 2602.05,-145.32 2594.6,-144 2326.94,-96.47 1998.11,-91.24 1887.2,-90.9"/>
<polygon fill="black" stroke="black" points="1887.47,-87.4 1877.47,-90.89 1887.46,-94.4 1887.47,-87.4"/>
</g>
<!-- confirm_delete_logo -->
<g id="node31" class="node">
<title>confirm_delete_logo</title>
<ellipse fill="none" stroke="black" cx="1992.6" cy="-162" rx="87.49" ry="18"/>
<text text-anchor="middle" x="1992.6" y="-156.57" font-family="Times New Roman,serif" font-size="14.00">confirm_delete_logo</text>
</g>
<!-- confirm_delete_logo&#45;&gt;find -->
<g id="edge34" class="edge">
<title>confirm_delete_logo&#45;&gt;find</title>
<path fill="none" stroke="black" d="M1959.57,-144.94C1935.66,-133.32 1903.55,-117.71 1880.03,-106.28"/>
<polygon fill="black" stroke="black" points="1881.77,-103.23 1871.24,-102.01 1878.71,-109.53 1881.77,-103.23"/>
</g>
<!-- delete_logo -->
<g id="node32" class="node">
<title>delete_logo</title>
<ellipse fill="none" stroke="black" cx="1400.6" cy="-162" rx="53.56" ry="18"/>
<text text-anchor="middle" x="1400.6" y="-156.57" font-family="Times New Roman,serif" font-size="14.00">delete_logo</text>
</g>
<!-- delete_logo&#45;&gt;t -->
<g id="edge36" class="edge">
<title>delete_logo&#45;&gt;t</title>
<path fill="none" stroke="black" d="M1351.45,-154.47C1324.88,-151.07 1291.48,-147.01 1261.6,-144 1060.65,-123.74 1009,-133.12 808.6,-108 787.92,-105.41 764.98,-101.53 746.38,-98.13"/>
<polygon fill="black" stroke="black" points="747.11,-94.71 736.64,-96.32 745.83,-101.59 747.11,-94.71"/>
</g>
<!-- delete_logo&#45;&gt;find -->
<g id="edge35" class="edge">
<title>delete_logo&#45;&gt;find</title>
<path fill="none" stroke="black" d="M1439.4,-149.31C1447.04,-147.31 1455.03,-145.42 1462.6,-144 1616.31,-115.23 1661.97,-149.99 1812.6,-108 1814.23,-107.55 1815.87,-107.03 1817.51,-106.46"/>
<polygon fill="black" stroke="black" points="1818.78,-109.71 1826.72,-102.7 1816.14,-103.23 1818.78,-109.71"/>
</g>
<!-- delete_logo&#45;&gt;resource_path -->
<g id="edge37" class="edge">
<title>delete_logo&#45;&gt;resource_path</title>
<path fill="none" stroke="black" d="M1374.56,-145.81C1357.81,-136.04 1335.8,-123.2 1317.29,-112.4"/>
<polygon fill="black" stroke="black" points="1319.13,-109.42 1308.73,-107.41 1315.6,-115.47 1319.13,-109.42"/>
</g>
<!-- update_crop_logo -->
<g id="node33" class="node">
<title>update_crop_logo</title>
<ellipse fill="none" stroke="black" cx="2653.6" cy="-234" rx="79.51" ry="18"/>
<text text-anchor="middle" x="2653.6" y="-228.57" font-family="Times New Roman,serif" font-size="14.00">update_crop_logo</text>
</g>
<!-- update_crop_logo&#45;&gt;find -->
<g id="edge38" class="edge">
<title>update_crop_logo&#45;&gt;find</title>
<path fill="none" stroke="black" d="M2677.73,-216.39C2702.24,-197.55 2733.81,-166.55 2712.6,-144 2683.94,-113.53 2051.43,-95.97 1887.25,-91.91"/>
<polygon fill="black" stroke="black" points="1887.42,-88.41 1877.34,-91.67 1887.25,-95.41 1887.42,-88.41"/>
</g>
<!-- update_crop_logo&#45;&gt;resource_path -->
<g id="edge40" class="edge">
<title>update_crop_logo&#45;&gt;resource_path</title>
<path fill="none" stroke="black" d="M2574.55,-231.83C2298.52,-227.46 1391.38,-210.84 1337.6,-180 1325.25,-172.92 1306.92,-141.7 1294.4,-118.22"/>
<polygon fill="black" stroke="black" points="1297.54,-116.67 1289.81,-109.44 1291.34,-119.92 1297.54,-116.67"/>
</g>
<!-- update_crop_logo&#45;&gt;crop_logo -->
<g id="edge39" class="edge">
<title>update_crop_logo&#45;&gt;crop_logo</title>
<path fill="none" stroke="black" d="M2653.6,-215.7C2653.6,-208.41 2653.6,-199.73 2653.6,-191.54"/>
<polygon fill="black" stroke="black" points="2657.1,-191.62 2653.6,-181.62 2650.1,-191.62 2657.1,-191.62"/>
</g>
<!-- confirm_deactivate_one -->
<g id="node34" class="node">
<title>confirm_deactivate_one</title>
<ellipse fill="none" stroke="black" cx="2197.6" cy="-162" rx="99.97" ry="18"/>
<text text-anchor="middle" x="2197.6" y="-156.57" font-family="Times New Roman,serif" font-size="14.00">confirm_deactivate_one</text>
</g>
<!-- confirm_deactivate_one&#45;&gt;find -->
<g id="edge41" class="edge">
<title>confirm_deactivate_one&#45;&gt;find</title>
<path fill="none" stroke="black" d="M2132.78,-148C2059.78,-133.36 1943.72,-110.08 1885.07,-98.32"/>
<polygon fill="black" stroke="black" points="1886.12,-94.95 1875.63,-96.42 1884.74,-101.82 1886.12,-94.95"/>
</g>
<!-- deactivate_one -->
<g id="node35" class="node">
<title>deactivate_one</title>
<ellipse fill="none" stroke="black" cx="1394.6" cy="-234" rx="66.03" ry="18"/>
<text text-anchor="middle" x="1394.6" y="-228.57" font-family="Times New Roman,serif" font-size="14.00">deactivate_one</text>
</g>
<!-- deactivate_one&#45;&gt;t -->
<g id="edge44" class="edge">
<title>deactivate_one&#45;&gt;t</title>
<path fill="none" stroke="black" d="M1328.31,-233.67C1145.47,-234.82 644.27,-233.07 594.6,-180 583.67,-168.32 585.98,-157.47 594.6,-144 611.61,-117.43 645.69,-104 672.35,-97.32"/>
<polygon fill="black" stroke="black" points="672.8,-100.81 681.78,-95.18 671.25,-93.98 672.8,-100.81"/>
</g>
<!-- deactivate_one&#45;&gt;find -->
<g id="edge42" class="edge">
<title>deactivate_one&#45;&gt;find</title>
<path fill="none" stroke="black" d="M1458.21,-228.81C1549.07,-222 1710.74,-206.53 1762.6,-180 1770.6,-175.91 1804.87,-139.16 1827.66,-114.19"/>
<polygon fill="black" stroke="black" points="1830.02,-116.79 1834.16,-107.03 1824.84,-112.08 1830.02,-116.79"/>
</g>
<!-- deactivate_one&#45;&gt;resource_path -->
<g id="edge45" class="edge">
<title>deactivate_one&#45;&gt;resource_path</title>
<path fill="none" stroke="black" d="M1357.01,-218.89C1338.73,-210.25 1317.9,-197.45 1304.6,-180 1291.4,-162.66 1285.45,-138.59 1282.78,-119.85"/>
<polygon fill="black" stroke="black" points="1286.25,-119.46 1281.62,-109.93 1279.3,-120.27 1286.25,-119.46"/>
</g>
<!-- deactivate_one&#45;&gt;update -->
<g id="edge43" class="edge">
<title>deactivate_one&#45;&gt;update</title>
<path fill="none" stroke="black" d="M1420.24,-217.12C1436.95,-206.77 1458.84,-193.21 1476.53,-182.25"/>
<polygon fill="black" stroke="black" points="1477.92,-185.5 1484.58,-177.26 1474.23,-179.55 1477.92,-185.5"/>
</g>
<!-- confirm_deactivate -->
<g id="node36" class="node">
<title>confirm_deactivate</title>
<ellipse fill="none" stroke="black" cx="123.6" cy="-162" rx="81.5" ry="18"/>
<text text-anchor="middle" x="123.6" y="-156.57" font-family="Times New Roman,serif" font-size="14.00">confirm_deactivate</text>
</g>
<!-- confirm_deactivate&#45;&gt;list_selection -->
<g id="edge46" class="edge">
<title>confirm_deactivate&#45;&gt;list_selection</title>
<path fill="none" stroke="black" d="M169.27,-146.67C206.03,-135.13 257.68,-118.91 295.75,-106.96"/>
<polygon fill="black" stroke="black" points="296.67,-110.34 305.16,-104.01 294.57,-103.66 296.67,-110.34"/>
</g>
<!-- select -->
<g id="node37" class="node">
<title>select</title>
<ellipse fill="none" stroke="black" cx="31.6" cy="-90" rx="31.6" ry="18"/>
<text text-anchor="middle" x="31.6" y="-84.58" font-family="Times New Roman,serif" font-size="14.00">select</text>
</g>
<!-- confirm_deactivate&#45;&gt;select -->
<g id="edge47" class="edge">
<title>confirm_deactivate&#45;&gt;select</title>
<path fill="none" stroke="black" d="M101.8,-144.41C88.93,-134.62 72.54,-122.15 58.83,-111.72"/>
<polygon fill="black" stroke="black" points="61.13,-109.06 51.05,-105.79 56.89,-114.64 61.13,-109.06"/>
</g>
<!-- deactivate -->
<g id="node38" class="node">
<title>deactivate</title>
<ellipse fill="none" stroke="black" cx="651.6" cy="-162" rx="47.57" ry="18"/>
<text text-anchor="middle" x="651.6" y="-156.57" font-family="Times New Roman,serif" font-size="14.00">deactivate</text>
</g>
<!-- deactivate&#45;&gt;t -->
<g id="edge50" class="edge">
<title>deactivate&#45;&gt;t</title>
<path fill="none" stroke="black" d="M665.35,-144.41C672.66,-135.59 681.78,-124.58 689.84,-114.86"/>
<polygon fill="black" stroke="black" points="692.49,-117.14 696.18,-107.2 687.1,-112.67 692.49,-117.14"/>
</g>
<!-- deactivate&#45;&gt;list_selection -->
<g id="edge48" class="edge">
<title>deactivate&#45;&gt;list_selection</title>
<path fill="none" stroke="black" d="M610.85,-152.21C563.58,-141.94 483.32,-124.27 414.6,-108 410.39,-107 406.04,-105.96 401.67,-104.89"/>
<polygon fill="black" stroke="black" points="402.84,-101.57 392.29,-102.59 401.17,-108.37 402.84,-101.57"/>
</g>
<!-- deactivate&#45;&gt;update_attributes -->
<g id="edge49" class="edge">
<title>deactivate&#45;&gt;update_attributes</title>
<path fill="none" stroke="black" d="M688.08,-150.07C694.9,-148.04 701.96,-145.95 708.6,-144 750.81,-131.63 798.54,-117.89 834.81,-107.5"/>
<polygon fill="black" stroke="black" points="835.57,-110.92 844.22,-104.8 833.65,-104.19 835.57,-110.92"/>
</g>
<!-- reactivate -->
<g id="node39" class="node">
<title>reactivate</title>
<ellipse fill="none" stroke="black" cx="2955.6" cy="-234" rx="45.57" ry="18"/>
<text text-anchor="middle" x="2955.6" y="-228.57" font-family="Times New Roman,serif" font-size="14.00">reactivate</text>
</g>
<!-- resource_params -->
<g id="node40" class="node">
<title>resource_params</title>
<ellipse fill="none" stroke="black" cx="3097.6" cy="-234" rx="74.52" ry="18"/>
<text text-anchor="middle" x="3097.6" y="-228.57" font-family="Times New Roman,serif" font-size="14.00">resource_params</text>
</g>
<!-- require -->
<g id="node41" class="node">
<title>require</title>
<ellipse fill="none" stroke="black" cx="3053.6" cy="-162" rx="36.09" ry="18"/>
<text text-anchor="middle" x="3053.6" y="-156.57" font-family="Times New Roman,serif" font-size="14.00">require</text>
</g>
<!-- resource_params&#45;&gt;require -->
<g id="edge51" class="edge">
<title>resource_params&#45;&gt;require</title>
<path fill="none" stroke="black" d="M3086.73,-215.7C3081.7,-207.7 3075.62,-198.02 3070.04,-189.15"/>
<polygon fill="black" stroke="black" points="3073.14,-187.51 3064.86,-180.9 3067.22,-191.23 3073.14,-187.51"/>
</g>
<!-- permit -->
<g id="node42" class="node">
<title>permit</title>
<ellipse fill="none" stroke="black" cx="3141.6" cy="-162" rx="34.1" ry="18"/>
<text text-anchor="middle" x="3141.6" y="-156.57" font-family="Times New Roman,serif" font-size="14.00">permit</text>
</g>
<!-- resource_params&#45;&gt;permit -->
<g id="edge52" class="edge">
<title>resource_params&#45;&gt;permit</title>
<path fill="none" stroke="black" d="M3108.48,-215.7C3113.51,-207.7 3119.59,-198.02 3125.16,-189.15"/>
<polygon fill="black" stroke="black" points="3127.99,-191.23 3130.35,-180.9 3122.06,-187.51 3127.99,-191.23"/>
</g>
<!-- respond_to_js -->
<g id="node43" class="node">
<title>respond_to_js</title>
<ellipse fill="none" stroke="black" cx="3254.6" cy="-234" rx="64.54" ry="18"/>
<text text-anchor="middle" x="3254.6" y="-228.57" font-family="Times New Roman,serif" font-size="14.00">respond_to_js</text>
</g>
<!-- list_index_definition -->
<g id="node44" class="node">
<title>list_index_definition</title>
<ellipse fill="none" stroke="black" cx="3422.6" cy="-234" rx="85.49" ry="18"/>
<text text-anchor="middle" x="3422.6" y="-228.57" font-family="Times New Roman,serif" font-size="14.00">list_index_definition</text>
</g>
<!-- includes -->
<g id="node45" class="node">
<title>includes</title>
<ellipse fill="none" stroke="black" cx="3313.6" cy="-162" rx="41.08" ry="18"/>
<text text-anchor="middle" x="3313.6" y="-156.57" font-family="Times New Roman,serif" font-size="14.00">includes</text>
</g>
<!-- list_index_definition&#45;&gt;includes -->
<g id="edge53" class="edge">
<title>list_index_definition&#45;&gt;includes</title>
<path fill="none" stroke="black" d="M3396.77,-216.41C3381.44,-206.57 3361.89,-194.01 3345.59,-183.54"/>
<polygon fill="black" stroke="black" points="3347.51,-180.62 3337.2,-178.16 3343.73,-186.51 3347.51,-180.62"/>
</g>
<!-- search_list -->
<g id="node46" class="node">
<title>search_list</title>
<ellipse fill="none" stroke="black" cx="3422.6" cy="-162" rx="50.07" ry="18"/>
<text text-anchor="middle" x="3422.6" y="-156.57" font-family="Times New Roman,serif" font-size="14.00">search_list</text>
</g>
<!-- list_index_definition&#45;&gt;search_list -->
<g id="edge54" class="edge">
<title>list_index_definition&#45;&gt;search_list</title>
<path fill="none" stroke="black" d="M3422.6,-215.7C3422.6,-208.41 3422.6,-199.73 3422.6,-191.54"/>
<polygon fill="black" stroke="black" points="3426.1,-191.62 3422.6,-181.62 3419.1,-191.62 3426.1,-191.62"/>
</g>
<!-- order -->
<g id="node47" class="node">
<title>order</title>
<ellipse fill="none" stroke="black" cx="3521.6" cy="-162" rx="30.61" ry="18"/>
<text text-anchor="middle" x="3521.6" y="-156.57" font-family="Times New Roman,serif" font-size="14.00">order</text>
</g>
<!-- list_index_definition&#45;&gt;order -->
<g id="edge55" class="edge">
<title>list_index_definition&#45;&gt;order</title>
<path fill="none" stroke="black" d="M3446.32,-216.23C3460.49,-206.21 3478.57,-193.43 3493.46,-182.9"/>
<polygon fill="black" stroke="black" points="3495.33,-185.86 3501.48,-177.23 3491.29,-180.14 3495.33,-185.86"/>
</g>
<!-- power_user_tabs -->
<g id="node48" class="node">
<title>power_user_tabs</title>
<ellipse fill="none" stroke="black" cx="3601.6" cy="-234" rx="75.02" ry="18"/>
<text text-anchor="middle" x="3601.6" y="-228.57" font-family="Times New Roman,serif" font-size="14.00">power_user_tabs</text>
</g>
<!-- where -->
<g id="node49" class="node">
<title>where</title>
<ellipse fill="none" stroke="black" cx="3686.6" cy="-162" rx="32.6" ry="18"/>
<text text-anchor="middle" x="3686.6" y="-156.57" font-family="Times New Roman,serif" font-size="14.00">where</text>
</g>
<!-- power_user_tabs&#45;&gt;where -->
<g id="edge56" class="edge">
<title>power_user_tabs&#45;&gt;where</title>
<path fill="none" stroke="black" d="M3621.75,-216.41C3633.28,-206.91 3647.89,-194.88 3660.32,-184.65"/>
<polygon fill="black" stroke="black" points="3662.25,-187.59 3667.74,-178.53 3657.8,-182.19 3662.25,-187.59"/>
</g>
<!-- simple_user_tabs -->
<g id="node50" class="node">
<title>simple_user_tabs</title>
<ellipse fill="none" stroke="black" cx="3770.6" cy="-234" rx="75.51" ry="18"/>
<text text-anchor="middle" x="3770.6" y="-228.57" font-family="Times New Roman,serif" font-size="14.00">simple_user_tabs</text>
</g>
<!-- simple_user_tabs&#45;&gt;where -->
<g id="edge57" class="edge">
<title>simple_user_tabs&#45;&gt;where</title>
<path fill="none" stroke="black" d="M3750.7,-216.41C3739.3,-206.91 3724.86,-194.88 3712.58,-184.65"/>
<polygon fill="black" stroke="black" points="3715.17,-182.25 3705.25,-178.54 3710.69,-187.63 3715.17,-182.25"/>
</g>
<!-- reactivate_resource -->
<g id="node51" class="node">
<title>reactivate_resource</title>
<ellipse fill="none" stroke="black" cx="1050.6" cy="-162" rx="82.5" ry="18"/>
<text text-anchor="middle" x="1050.6" y="-156.57" font-family="Times New Roman,serif" font-size="14.00">reactivate_resource</text>
</g>
<!-- reactivate_resource&#45;&gt;t -->
<g id="edge60" class="edge">
<title>reactivate_resource&#45;&gt;t</title>
<path fill="none" stroke="black" d="M991.98,-148.97C921.47,-134.49 805.24,-110.63 746.31,-98.53"/>
<polygon fill="black" stroke="black" points="747.3,-95.17 736.8,-96.58 745.89,-102.02 747.3,-95.17"/>
</g>
<!-- reactivate_resource&#45;&gt;find -->
<g id="edge58" class="edge">
<title>reactivate_resource&#45;&gt;find</title>
<path fill="none" stroke="black" d="M1108.68,-148.98C1119.58,-147.05 1130.91,-145.28 1141.6,-144 1438.14,-108.5 1523.04,-181.13 1812.6,-108 1814.24,-107.59 1815.89,-107.1 1817.53,-106.55"/>
<polygon fill="black" stroke="black" points="1818.77,-109.83 1826.77,-102.87 1816.18,-103.32 1818.77,-109.83"/>
</g>
<!-- reactivate_resource&#45;&gt;resource_path -->
<g id="edge61" class="edge">
<title>reactivate_resource&#45;&gt;resource_path</title>
<path fill="none" stroke="black" d="M1097.42,-146.75C1135.16,-135.26 1188.23,-119.11 1227.54,-107.15"/>
<polygon fill="black" stroke="black" points="1228.5,-110.52 1237.04,-104.26 1226.46,-103.82 1228.5,-110.52"/>
</g>
<!-- reactivate_resource&#45;&gt;update_attributes -->
<g id="edge59" class="edge">
<title>reactivate_resource&#45;&gt;update_attributes</title>
<path fill="none" stroke="black" d="M1015.14,-145.29C992.24,-135.14 962.23,-121.85 937.65,-110.96"/>
<polygon fill="black" stroke="black" points="939.07,-107.76 928.51,-106.91 936.24,-114.16 939.07,-107.76"/>
</g>
</g>
</svg>
