<?xml version="1.0" encoding="UTF-8" standalone="no"?>
<!DOCTYPE svg PUBLIC "-//W3C//DTD SVG 1.1//EN"
 "http://www.w3.org/Graphics/SVG/1.1/DTD/svg11.dtd">
<!-- Generated by graphviz version 9.0.0 (20230911.1827)
 -->
<!-- Title: CallGraph Pages: 1 -->
<svg width="3611pt" height="188pt"
 viewBox="0.00 0.00 3611.16 188.00" xmlns="http://www.w3.org/2000/svg" xmlns:xlink="http://www.w3.org/1999/xlink">
<g id="graph0" class="graph" transform="scale(1 1) rotate(0) translate(4 184)">
<title>CallGraph</title>
<polygon fill="white" stroke="none" points="-4,4 -4,-184 3607.16,-184 3607.16,4 -4,4"/>
<!-- index -->
<g id="node1" class="node">
<title>index</title>
<ellipse fill="none" stroke="black" cx="30.61" cy="-162" rx="30.61" ry="18"/>
<text text-anchor="middle" x="30.61" y="-156.57" font-family="Times New Roman,serif" font-size="14.00">index</text>
</g>
<!-- new -->
<g id="node2" class="node">
<title>new</title>
<ellipse fill="none" stroke="black" cx="1420.61" cy="-90" rx="27" ry="18"/>
<text text-anchor="middle" x="1420.61" y="-84.58" font-family="Times New Roman,serif" font-size="14.00">new</text>
</g>
<!-- create -->
<g id="node3" class="node">
<title>create</title>
<ellipse fill="none" stroke="black" cx="1318.61" cy="-162" rx="32.6" ry="18"/>
<text text-anchor="middle" x="1318.61" y="-156.57" font-family="Times New Roman,serif" font-size="14.00">create</text>
</g>
<!-- create&#45;&gt;new -->
<g id="edge1" class="edge">
<title>create&#45;&gt;new</title>
<path fill="none" stroke="black" d="M1338.27,-147.5C1353.9,-136.78 1375.94,-121.65 1393.29,-109.75"/>
<polygon fill="black" stroke="black" points="1394.86,-112.92 1401.12,-104.37 1390.9,-107.14 1394.86,-112.92"/>
</g>
<!-- t -->
<g id="node4" class="node">
<title>t</title>
<ellipse fill="none" stroke="black" cx="1492.61" cy="-90" rx="27" ry="18"/>
<text text-anchor="middle" x="1492.61" y="-84.58" font-family="Times New Roman,serif" font-size="14.00">t</text>
</g>
<!-- create&#45;&gt;t -->
<g id="edge2" class="edge">
<title>create&#45;&gt;t</title>
<path fill="none" stroke="black" d="M1344.13,-150.24C1349.24,-148.14 1354.58,-145.97 1359.61,-144 1402.41,-127.19 1414.22,-125.83 1456.61,-108 1458.12,-107.36 1459.66,-106.7 1461.21,-106.02"/>
<polygon fill="black" stroke="black" points="1462.39,-109.33 1470.04,-102 1459.49,-102.95 1462.39,-109.33"/>
</g>
<!-- show_properties -->
<g id="node5" class="node">
<title>show_properties</title>
<ellipse fill="none" stroke="black" cx="388.61" cy="-162" rx="73.02" ry="18"/>
<text text-anchor="middle" x="388.61" y="-156.57" font-family="Times New Roman,serif" font-size="14.00">show_properties</text>
</g>
<!-- find -->
<g id="node6" class="node">
<title>find</title>
<ellipse fill="none" stroke="black" cx="579.61" cy="-90" rx="27" ry="18"/>
<text text-anchor="middle" x="579.61" y="-84.58" font-family="Times New Roman,serif" font-size="14.00">find</text>
</g>
<!-- show_properties&#45;&gt;find -->
<g id="edge3" class="edge">
<title>show_properties&#45;&gt;find</title>
<path fill="none" stroke="black" d="M428.18,-146.5C462.93,-133.76 512.94,-115.43 545.84,-103.37"/>
<polygon fill="black" stroke="black" points="546.69,-106.79 554.87,-100.06 544.28,-100.22 546.69,-106.79"/>
</g>
<!-- scoped_graphs -->
<g id="node7" class="node">
<title>scoped_graphs</title>
<ellipse fill="none" stroke="black" cx="388.61" cy="-90" rx="68.03" ry="18"/>
<text text-anchor="middle" x="388.61" y="-84.58" font-family="Times New Roman,serif" font-size="14.00">scoped_graphs</text>
</g>
<!-- show_properties&#45;&gt;scoped_graphs -->
<g id="edge4" class="edge">
<title>show_properties&#45;&gt;scoped_graphs</title>
<path fill="none" stroke="black" d="M388.61,-143.7C388.61,-136.41 388.61,-127.73 388.61,-119.54"/>
<polygon fill="black" stroke="black" points="392.11,-119.62 388.61,-109.62 385.11,-119.62 392.11,-119.62"/>
</g>
<!-- related_role_graphs -->
<g id="node36" class="node">
<title>related_role_graphs</title>
<ellipse fill="none" stroke="black" cx="992.61" cy="-18" rx="84" ry="18"/>
<text text-anchor="middle" x="992.61" y="-12.57" font-family="Times New Roman,serif" font-size="14.00">related_role_graphs</text>
</g>
<!-- scoped_graphs&#45;&gt;related_role_graphs -->
<g id="edge55" class="edge">
<title>scoped_graphs&#45;&gt;related_role_graphs</title>
<path fill="none" stroke="black" d="M450.12,-81.87C559.03,-69.25 785.85,-42.96 908.88,-28.7"/>
<polygon fill="black" stroke="black" points="909.06,-32.21 918.59,-27.58 908.26,-25.25 909.06,-32.21"/>
</g>
<!-- related_role_graphs_to_admin_or_designer -->
<g id="node50" class="node">
<title>related_role_graphs_to_admin_or_designer</title>
<ellipse fill="none" stroke="black" cx="388.61" cy="-18" rx="172.82" ry="18"/>
<text text-anchor="middle" x="388.61" y="-12.57" font-family="Times New Roman,serif" font-size="14.00">related_role_graphs_to_admin_or_designer</text>
</g>
<!-- scoped_graphs&#45;&gt;related_role_graphs_to_admin_or_designer -->
<g id="edge54" class="edge">
<title>scoped_graphs&#45;&gt;related_role_graphs_to_admin_or_designer</title>
<path fill="none" stroke="black" d="M388.61,-71.7C388.61,-64.41 388.61,-55.73 388.61,-47.54"/>
<polygon fill="black" stroke="black" points="392.11,-47.62 388.61,-37.62 385.11,-47.62 392.11,-47.62"/>
</g>
<!-- show -->
<g id="node8" class="node">
<title>show</title>
<ellipse fill="none" stroke="black" cx="1946.61" cy="-162" rx="30.61" ry="18"/>
<text text-anchor="middle" x="1946.61" y="-156.57" font-family="Times New Roman,serif" font-size="14.00">show</text>
</g>
<!-- to_json -->
<g id="node9" class="node">
<title>to_json</title>
<ellipse fill="none" stroke="black" cx="1902.61" cy="-90" rx="38.59" ry="18"/>
<text text-anchor="middle" x="1902.61" y="-84.58" font-family="Times New Roman,serif" font-size="14.00">to_json</text>
</g>
<!-- show&#45;&gt;to_json -->
<g id="edge5" class="edge">
<title>show&#45;&gt;to_json</title>
<path fill="none" stroke="black" d="M1936.4,-144.76C1931.25,-136.58 1924.89,-126.45 1919.07,-117.2"/>
<polygon fill="black" stroke="black" points="1922.15,-115.52 1913.87,-108.91 1916.22,-119.24 1922.15,-115.52"/>
</g>
<!-- show_properties_role_path -->
<g id="node10" class="node">
<title>show_properties_role_path</title>
<ellipse fill="none" stroke="black" cx="1657.61" cy="-90" rx="112.94" ry="18"/>
<text text-anchor="middle" x="1657.61" y="-84.58" font-family="Times New Roman,serif" font-size="14.00">show_properties_role_path</text>
</g>
<!-- show&#45;&gt;show_properties_role_path -->
<g id="edge6" class="edge">
<title>show&#45;&gt;show_properties_role_path</title>
<path fill="none" stroke="black" d="M1923.2,-150.17C1917.82,-147.93 1912.07,-145.73 1906.61,-144 1854.32,-127.49 1794.24,-114.54 1746.19,-105.57"/>
<polygon fill="black" stroke="black" points="1746.83,-102.13 1736.37,-103.76 1745.57,-109.01 1746.83,-102.13"/>
</g>
<!-- edit -->
<g id="node11" class="node">
<title>edit</title>
<ellipse fill="none" stroke="black" cx="724.61" cy="-162" rx="27" ry="18"/>
<text text-anchor="middle" x="724.61" y="-156.57" font-family="Times New Roman,serif" font-size="14.00">edit</text>
</g>
<!-- edit&#45;&gt;find -->
<g id="edge7" class="edge">
<title>edit&#45;&gt;find</title>
<path fill="none" stroke="black" d="M703.21,-150.67C678.9,-138.94 639,-119.67 611.12,-106.22"/>
<polygon fill="black" stroke="black" points="612.98,-103.22 602.45,-102.03 609.94,-109.53 612.98,-103.22"/>
</g>
<!-- update -->
<g id="node12" class="node">
<title>update</title>
<ellipse fill="none" stroke="black" cx="934.61" cy="-162" rx="35.6" ry="18"/>
<text text-anchor="middle" x="934.61" y="-156.57" font-family="Times New Roman,serif" font-size="14.00">update</text>
</g>
<!-- update&#45;&gt;t -->
<g id="edge11" class="edge">
<title>update&#45;&gt;t</title>
<path fill="none" stroke="black" d="M960.74,-149.46C966.52,-147.32 972.69,-145.33 978.61,-144 1186.43,-97.11 1250.62,-162.39 1456.61,-108 1458.23,-107.57 1459.88,-107.07 1461.52,-106.51"/>
<polygon fill="black" stroke="black" points="1462.78,-109.78 1470.75,-102.8 1460.17,-103.28 1462.78,-109.78"/>
</g>
<!-- update&#45;&gt;find -->
<g id="edge8" class="edge">
<title>update&#45;&gt;find</title>
<path fill="none" stroke="black" d="M907.94,-149.53C902.3,-147.44 896.32,-145.46 890.61,-144 771.15,-113.57 733.87,-142.74 615.61,-108 613.99,-107.53 612.35,-106.99 610.72,-106.4"/>
<polygon fill="black" stroke="black" points="612.09,-103.18 601.51,-102.6 609.42,-109.65 612.09,-103.18"/>
</g>
<!-- consolidate -->
<g id="node13" class="node">
<title>consolidate</title>
<ellipse fill="none" stroke="black" cx="855.61" cy="-90" rx="53.06" ry="18"/>
<text text-anchor="middle" x="855.61" y="-84.58" font-family="Times New Roman,serif" font-size="14.00">consolidate</text>
</g>
<!-- update&#45;&gt;consolidate -->
<g id="edge9" class="edge">
<title>update&#45;&gt;consolidate</title>
<path fill="none" stroke="black" d="M917.46,-145.81C907.19,-136.71 893.92,-124.95 882.3,-114.65"/>
<polygon fill="black" stroke="black" points="884.75,-112.15 874.95,-108.14 880.11,-117.39 884.75,-112.15"/>
</g>
<!-- update_attributes -->
<g id="node14" class="node">
<title>update_attributes</title>
<ellipse fill="none" stroke="black" cx="1176.61" cy="-90" rx="74.52" ry="18"/>
<text text-anchor="middle" x="1176.61" y="-84.58" font-family="Times New Roman,serif" font-size="14.00">update_attributes</text>
</g>
<!-- update&#45;&gt;update_attributes -->
<g id="edge10" class="edge">
<title>update&#45;&gt;update_attributes</title>
<path fill="none" stroke="black" d="M961.9,-149.93C967.4,-147.85 973.15,-145.78 978.61,-144 1023.35,-129.41 1074.71,-115.75 1113.91,-105.95"/>
<polygon fill="black" stroke="black" points="1114.55,-109.4 1123.41,-103.6 1112.86,-102.61 1114.55,-109.4"/>
</g>
<!-- respond_with_bip -->
<g id="node15" class="node">
<title>respond_with_bip</title>
<ellipse fill="none" stroke="black" cx="1005.61" cy="-90" rx="78.51" ry="18"/>
<text text-anchor="middle" x="1005.61" y="-84.58" font-family="Times New Roman,serif" font-size="14.00">respond_with_bip</text>
</g>
<!-- update&#45;&gt;respond_with_bip -->
<g id="edge12" class="edge">
<title>update&#45;&gt;respond_with_bip</title>
<path fill="none" stroke="black" d="M950.36,-145.46C959.17,-136.78 970.36,-125.75 980.36,-115.89"/>
<polygon fill="black" stroke="black" points="982.66,-118.54 987.32,-109.02 977.74,-113.55 982.66,-118.54"/>
</g>
<!-- update_tags -->
<g id="node16" class="node">
<title>update_tags</title>
<ellipse fill="none" stroke="black" cx="825.61" cy="-162" rx="55.55" ry="18"/>
<text text-anchor="middle" x="825.61" y="-156.57" font-family="Times New Roman,serif" font-size="14.00">update_tags</text>
</g>
<!-- update_tags&#45;&gt;find -->
<g id="edge13" class="edge">
<title>update_tags&#45;&gt;find</title>
<path fill="none" stroke="black" d="M783.32,-149.86C775.76,-147.89 767.95,-145.87 760.61,-144 696.26,-127.6 678.15,-130.29 615.61,-108 614.06,-107.45 612.49,-106.85 610.91,-106.23"/>
<polygon fill="black" stroke="black" points="612.59,-103.14 602.02,-102.38 609.81,-109.56 612.59,-103.14"/>
</g>
<!-- update_tags&#45;&gt;update_attributes -->
<g id="edge15" class="edge">
<title>update_tags&#45;&gt;update_attributes</title>
<path fill="none" stroke="black" d="M866.79,-149.51C874.35,-147.56 882.2,-145.63 889.61,-144 979.51,-124.16 1003.17,-125.24 1093.61,-108 1099.15,-106.94 1104.9,-105.82 1110.67,-104.68"/>
<polygon fill="black" stroke="black" points="1111.13,-108.15 1120.25,-102.76 1109.76,-101.29 1111.13,-108.15"/>
</g>
<!-- find_or_create_by -->
<g id="node17" class="node">
<title>find_or_create_by</title>
<ellipse fill="none" stroke="black" cx="704.61" cy="-90" rx="79.51" ry="18"/>
<text text-anchor="middle" x="704.61" y="-84.58" font-family="Times New Roman,serif" font-size="14.00">find_or_create_by</text>
</g>
<!-- update_tags&#45;&gt;find_or_create_by -->
<g id="edge14" class="edge">
<title>update_tags&#45;&gt;find_or_create_by</title>
<path fill="none" stroke="black" d="M799.35,-145.81C782.69,-136.18 760.88,-123.55 742.38,-112.85"/>
<polygon fill="black" stroke="black" points="744.21,-109.87 733.8,-107.89 740.71,-115.93 744.21,-109.87"/>
</g>
<!-- linkable -->
<g id="node18" class="node">
<title>linkable</title>
<ellipse fill="none" stroke="black" cx="2754.61" cy="-162" rx="38.59" ry="18"/>
<text text-anchor="middle" x="2754.61" y="-156.57" font-family="Times New Roman,serif" font-size="14.00">linkable</text>
</g>
<!-- where -->
<g id="node19" class="node">
<title>where</title>
<ellipse fill="none" stroke="black" cx="2622.61" cy="-90" rx="32.6" ry="18"/>
<text text-anchor="middle" x="2622.61" y="-84.58" font-family="Times New Roman,serif" font-size="14.00">where</text>
</g>
<!-- linkable&#45;&gt;where -->
<g id="edge16" class="edge">
<title>linkable&#45;&gt;where</title>
<path fill="none" stroke="black" d="M2729.78,-147.83C2708.79,-136.71 2678.57,-120.68 2655.56,-108.48"/>
<polygon fill="black" stroke="black" points="2657.37,-105.47 2646.89,-103.88 2654.09,-111.66 2657.37,-105.47"/>
</g>
<!-- order -->
<g id="node20" class="node">
<title>order</title>
<ellipse fill="none" stroke="black" cx="2762.61" cy="-90" rx="30.61" ry="18"/>
<text text-anchor="middle" x="2762.61" y="-84.58" font-family="Times New Roman,serif" font-size="14.00">order</text>
</g>
<!-- linkable&#45;&gt;order -->
<g id="edge17" class="edge">
<title>linkable&#45;&gt;order</title>
<path fill="none" stroke="black" d="M2756.58,-143.7C2757.42,-136.41 2758.41,-127.73 2759.34,-119.54"/>
<polygon fill="black" stroke="black" points="2762.82,-119.94 2760.48,-109.61 2755.87,-119.15 2762.82,-119.94"/>
</g>
<!-- delete_one -->
<g id="node21" class="node">
<title>delete_one</title>
<ellipse fill="none" stroke="black" cx="1419.61" cy="-162" rx="50.56" ry="18"/>
<text text-anchor="middle" x="1419.61" y="-156.57" font-family="Times New Roman,serif" font-size="14.00">delete_one</text>
</g>
<!-- delete_one&#45;&gt;t -->
<g id="edge19" class="edge">
<title>delete_one&#45;&gt;t</title>
<path fill="none" stroke="black" d="M1436.54,-144.76C1446.37,-135.33 1458.9,-123.32 1469.62,-113.04"/>
<polygon fill="black" stroke="black" points="1471.86,-115.74 1476.65,-106.3 1467.01,-110.69 1471.86,-115.74"/>
</g>
<!-- delete_one&#45;&gt;find -->
<g id="edge18" class="edge">
<title>delete_one&#45;&gt;find</title>
<path fill="none" stroke="black" d="M1383.4,-149.14C1375.93,-147.1 1368.07,-145.24 1360.61,-144 1033.58,-89.74 937.22,-188.32 615.61,-108 613.97,-107.59 612.32,-107.11 610.67,-106.56"/>
<polygon fill="black" stroke="black" points="612.02,-103.33 601.44,-102.89 609.44,-109.84 612.02,-103.33"/>
</g>
<!-- delete_one&#45;&gt;show_properties_role_path -->
<g id="edge20" class="edge">
<title>delete_one&#45;&gt;show_properties_role_path</title>
<path fill="none" stroke="black" d="M1457.84,-149.75C1494.59,-138.95 1550.79,-122.42 1594.23,-109.64"/>
<polygon fill="black" stroke="black" points="1595.21,-113 1603.81,-106.82 1593.23,-106.29 1595.21,-113"/>
</g>
<!-- delete -->
<g id="node22" class="node">
<title>delete</title>
<ellipse fill="none" stroke="black" cx="2053.61" cy="-162" rx="32.1" ry="18"/>
<text text-anchor="middle" x="2053.61" y="-156.57" font-family="Times New Roman,serif" font-size="14.00">delete</text>
</g>
<!-- delete&#45;&gt;t -->
<g id="edge22" class="edge">
<title>delete&#45;&gt;t</title>
<path fill="none" stroke="black" d="M2025.47,-152.73C2013.57,-149.54 1999.51,-146.14 1986.61,-144 1788.22,-111.16 1731.48,-153.46 1535.61,-108 1532.2,-107.21 1528.7,-106.19 1525.25,-105.05"/>
<polygon fill="black" stroke="black" points="1526.53,-101.8 1515.94,-101.64 1524.12,-108.37 1526.53,-101.8"/>
</g>
<!-- list_selection -->
<g id="node23" class="node">
<title>list_selection</title>
<ellipse fill="none" stroke="black" cx="2224.61" cy="-90" rx="58.55" ry="18"/>
<text text-anchor="middle" x="2224.61" y="-84.58" font-family="Times New Roman,serif" font-size="14.00">list_selection</text>
</g>
<!-- delete&#45;&gt;list_selection -->
<g id="edge21" class="edge">
<title>delete&#45;&gt;list_selection</title>
<path fill="none" stroke="black" d="M2078.84,-150.67C2105.38,-139.81 2147.69,-122.49 2179.9,-109.3"/>
<polygon fill="black" stroke="black" points="2181.08,-112.6 2189,-105.57 2178.42,-106.12 2181.08,-112.6"/>
</g>
<!-- humanize_delete_error -->
<g id="node24" class="node">
<title>humanize_delete_error</title>
<ellipse fill="none" stroke="black" cx="2053.61" cy="-90" rx="94.48" ry="18"/>
<text text-anchor="middle" x="2053.61" y="-84.58" font-family="Times New Roman,serif" font-size="14.00">humanize_delete_error</text>
</g>
<!-- delete&#45;&gt;humanize_delete_error -->
<g id="edge23" class="edge">
<title>delete&#45;&gt;humanize_delete_error</title>
<path fill="none" stroke="black" d="M2053.61,-143.7C2053.61,-136.41 2053.61,-127.73 2053.61,-119.54"/>
<polygon fill="black" stroke="black" points="2057.11,-119.62 2053.61,-109.62 2050.11,-119.62 2057.11,-119.62"/>
</g>
<!-- print -->
<g id="node25" class="node">
<title>print</title>
<ellipse fill="none" stroke="black" cx="3238.61" cy="-162" rx="27.61" ry="18"/>
<text text-anchor="middle" x="3238.61" y="-156.57" font-family="Times New Roman,serif" font-size="14.00">print</text>
</g>
<!-- render_to_string -->
<g id="node26" class="node">
<title>render_to_string</title>
<ellipse fill="none" stroke="black" cx="3157.61" cy="-90" rx="72.02" ry="18"/>
<text text-anchor="middle" x="3157.61" y="-84.58" font-family="Times New Roman,serif" font-size="14.00">render_to_string</text>
</g>
<!-- print&#45;&gt;render_to_string -->
<g id="edge24" class="edge">
<title>print&#45;&gt;render_to_string</title>
<path fill="none" stroke="black" d="M3222.6,-147.17C3212.07,-138.06 3197.99,-125.9 3185.62,-115.21"/>
<polygon fill="black" stroke="black" points="3188,-112.64 3178.15,-108.75 3183.43,-117.94 3188,-112.64"/>
</g>
<!-- pdf_from_string -->
<g id="node27" class="node">
<title>pdf_from_string</title>
<ellipse fill="none" stroke="black" cx="3319.61" cy="-90" rx="72.02" ry="18"/>
<text text-anchor="middle" x="3319.61" y="-84.58" font-family="Times New Roman,serif" font-size="14.00">pdf_from_string</text>
</g>
<!-- print&#45;&gt;pdf_from_string -->
<g id="edge25" class="edge">
<title>print&#45;&gt;pdf_from_string</title>
<path fill="none" stroke="black" d="M3254.61,-147.17C3265.14,-138.06 3279.22,-125.9 3291.59,-115.21"/>
<polygon fill="black" stroke="black" points="3293.78,-117.94 3299.06,-108.75 3289.21,-112.64 3293.78,-117.94"/>
</g>
<!-- pdf_from_string&#45;&gt;pdf_from_string -->
<g id="edge40" class="edge">
<title>pdf_from_string&#45;&gt;pdf_from_string</title>
<path fill="none" stroke="black" d="M3369.59,-103.34C3391.16,-104.43 3409.63,-99.98 3409.63,-90 3409.63,-81.81 3397.2,-77.35 3380.83,-76.61"/>
<polygon fill="black" stroke="black" points="3381.09,-73.11 3371.11,-76.65 3381.12,-80.11 3381.09,-73.11"/>
</g>
<!-- confirm_deactivate_one -->
<g id="node28" class="node">
<title>confirm_deactivate_one</title>
<ellipse fill="none" stroke="black" cx="579.61" cy="-162" rx="99.97" ry="18"/>
<text text-anchor="middle" x="579.61" y="-156.57" font-family="Times New Roman,serif" font-size="14.00">confirm_deactivate_one</text>
</g>
<!-- confirm_deactivate_one&#45;&gt;find -->
<g id="edge26" class="edge">
<title>confirm_deactivate_one&#45;&gt;find</title>
<path fill="none" stroke="black" d="M579.61,-143.7C579.61,-136.41 579.61,-127.73 579.61,-119.54"/>
<polygon fill="black" stroke="black" points="583.11,-119.62 579.61,-109.62 576.11,-119.62 583.11,-119.62"/>
</g>
<!-- reactivate_one -->
<g id="node29" class="node">
<title>reactivate_one</title>
<ellipse fill="none" stroke="black" cx="1665.61" cy="-162" rx="64.04" ry="18"/>
<text text-anchor="middle" x="1665.61" y="-156.57" font-family="Times New Roman,serif" font-size="14.00">reactivate_one</text>
</g>
<!-- reactivate_one&#45;&gt;show_properties_role_path -->
<g id="edge27" class="edge">
<title>reactivate_one&#45;&gt;show_properties_role_path</title>
<path fill="none" stroke="black" d="M1663.63,-143.7C1662.79,-136.41 1661.8,-127.73 1660.87,-119.54"/>
<polygon fill="black" stroke="black" points="1664.34,-119.15 1659.73,-109.61 1657.39,-119.94 1664.34,-119.15"/>
</g>
<!-- reactivate -->
<g id="node30" class="node">
<title>reactivate</title>
<ellipse fill="none" stroke="black" cx="3416.61" cy="-162" rx="45.57" ry="18"/>
<text text-anchor="middle" x="3416.61" y="-156.57" font-family="Times New Roman,serif" font-size="14.00">reactivate</text>
</g>
<!-- deactivate_one -->
<g id="node31" class="node">
<title>deactivate_one</title>
<ellipse fill="none" stroke="black" cx="1201.61" cy="-162" rx="66.03" ry="18"/>
<text text-anchor="middle" x="1201.61" y="-156.57" font-family="Times New Roman,serif" font-size="14.00">deactivate_one</text>
</g>
<!-- deactivate_one&#45;&gt;t -->
<g id="edge30" class="edge">
<title>deactivate_one&#45;&gt;t</title>
<path fill="none" stroke="black" d="M1250.78,-149.66C1259.38,-147.74 1268.25,-145.78 1276.61,-144 1356.39,-126.98 1379.14,-133.61 1456.61,-108 1458.16,-107.48 1459.74,-106.92 1461.33,-106.32"/>
<polygon fill="black" stroke="black" points="1462.4,-109.66 1470.24,-102.54 1459.67,-103.22 1462.4,-109.66"/>
</g>
<!-- deactivate_one&#45;&gt;find -->
<g id="edge28" class="edge">
<title>deactivate_one&#45;&gt;find</title>
<path fill="none" stroke="black" d="M1154.2,-149.11C1145.09,-147.15 1135.59,-145.33 1126.61,-144 901.37,-110.74 835.87,-165.6 615.61,-108 613.98,-107.57 612.33,-107.07 610.69,-106.52"/>
<polygon fill="black" stroke="black" points="612.04,-103.29 601.46,-102.81 609.43,-109.79 612.04,-103.29"/>
</g>
<!-- deactivate_one&#45;&gt;show_properties_role_path -->
<g id="edge31" class="edge">
<title>deactivate_one&#45;&gt;show_properties_role_path</title>
<path fill="none" stroke="black" d="M1249.9,-149.42C1258.75,-147.48 1267.94,-145.58 1276.61,-144 1304.1,-138.98 1458.55,-117.86 1562.17,-103.85"/>
<polygon fill="black" stroke="black" points="1562.34,-107.36 1571.78,-102.55 1561.4,-100.42 1562.34,-107.36"/>
</g>
<!-- deactivate_one&#45;&gt;update_attributes -->
<g id="edge29" class="edge">
<title>deactivate_one&#45;&gt;update_attributes</title>
<path fill="none" stroke="black" d="M1195.43,-143.7C1192.73,-136.15 1189.5,-127.12 1186.49,-118.68"/>
<polygon fill="black" stroke="black" points="1189.88,-117.77 1183.22,-109.53 1183.29,-120.12 1189.88,-117.77"/>
</g>
<!-- confirm_deactivate -->
<g id="node32" class="node">
<title>confirm_deactivate</title>
<ellipse fill="none" stroke="black" cx="2278.61" cy="-162" rx="81.5" ry="18"/>
<text text-anchor="middle" x="2278.61" y="-156.57" font-family="Times New Roman,serif" font-size="14.00">confirm_deactivate</text>
</g>
<!-- confirm_deactivate&#45;&gt;list_selection -->
<g id="edge32" class="edge">
<title>confirm_deactivate&#45;&gt;list_selection</title>
<path fill="none" stroke="black" d="M2265.53,-144.05C2259.23,-135.89 2251.54,-125.91 2244.53,-116.82"/>
<polygon fill="black" stroke="black" points="2247.36,-114.77 2238.48,-108.99 2241.82,-119.04 2247.36,-114.77"/>
</g>
<!-- select -->
<g id="node33" class="node">
<title>select</title>
<ellipse fill="none" stroke="black" cx="2332.61" cy="-90" rx="31.6" ry="18"/>
<text text-anchor="middle" x="2332.61" y="-84.58" font-family="Times New Roman,serif" font-size="14.00">select</text>
</g>
<!-- confirm_deactivate&#45;&gt;select -->
<g id="edge33" class="edge">
<title>confirm_deactivate&#45;&gt;select</title>
<path fill="none" stroke="black" d="M2291.68,-144.05C2298.23,-135.56 2306.29,-125.11 2313.53,-115.73"/>
<polygon fill="black" stroke="black" points="2316.13,-118.08 2319.47,-108.03 2310.59,-113.81 2316.13,-118.08"/>
</g>
<!-- deactivate -->
<g id="node34" class="node">
<title>deactivate</title>
<ellipse fill="none" stroke="black" cx="1535.61" cy="-162" rx="47.57" ry="18"/>
<text text-anchor="middle" x="1535.61" y="-156.57" font-family="Times New Roman,serif" font-size="14.00">deactivate</text>
</g>
<!-- deactivate&#45;&gt;t -->
<g id="edge36" class="edge">
<title>deactivate&#45;&gt;t</title>
<path fill="none" stroke="black" d="M1525.2,-144.05C1520.14,-135.82 1513.96,-125.76 1508.34,-116.61"/>
<polygon fill="black" stroke="black" points="1511.34,-114.81 1503.12,-108.12 1505.37,-118.47 1511.34,-114.81"/>
</g>
<!-- deactivate&#45;&gt;update_attributes -->
<g id="edge35" class="edge">
<title>deactivate&#45;&gt;update_attributes</title>
<path fill="none" stroke="black" d="M1500.25,-149.5C1493.44,-147.5 1486.33,-145.57 1479.61,-144 1383.54,-121.62 1357.63,-125.79 1260.61,-108 1254.75,-106.93 1248.68,-105.77 1242.59,-104.59"/>
<polygon fill="black" stroke="black" points="1243.65,-101.23 1233.16,-102.74 1242.3,-108.1 1243.65,-101.23"/>
</g>
<!-- deactivate&#45;&gt;list_selection -->
<g id="edge34" class="edge">
<title>deactivate&#45;&gt;list_selection</title>
<path fill="none" stroke="black" d="M1570.27,-149.3C1577.57,-147.22 1585.29,-145.31 1592.61,-144 1839.87,-99.82 1908.41,-146.62 2156.61,-108 2161.47,-107.24 2166.5,-106.3 2171.51,-105.25"/>
<polygon fill="black" stroke="black" points="2171.94,-108.74 2180.93,-103.14 2170.41,-101.91 2171.94,-108.74"/>
</g>
<!-- interactions -->
<g id="node35" class="node">
<title>interactions</title>
<ellipse fill="none" stroke="black" cx="1322.61" cy="-90" rx="53.06" ry="18"/>
<text text-anchor="middle" x="1322.61" y="-84.58" font-family="Times New Roman,serif" font-size="14.00">interactions</text>
</g>
<!-- interactions&#45;&gt;related_role_graphs -->
<g id="edge37" class="edge">
<title>interactions&#45;&gt;related_role_graphs</title>
<path fill="none" stroke="black" d="M1283.02,-77.69C1275.6,-75.7 1267.88,-73.72 1260.61,-72 1195.63,-56.69 1121.1,-42.19 1067.15,-32.25"/>
<polygon fill="black" stroke="black" points="1067.92,-28.83 1057.46,-30.47 1066.66,-35.71 1067.92,-28.83"/>
</g>
<!-- export_file_name -->
<g id="node37" class="node">
<title>export_file_name</title>
<ellipse fill="none" stroke="black" cx="1822.61" cy="-162" rx="75.02" ry="18"/>
<text text-anchor="middle" x="1822.61" y="-156.57" font-family="Times New Roman,serif" font-size="14.00">export_file_name</text>
</g>
<!-- export_file_name&#45;&gt;t -->
<g id="edge38" class="edge">
<title>export_file_name&#45;&gt;t</title>
<path fill="none" stroke="black" d="M1767.07,-149.56C1757.58,-147.67 1747.81,-145.75 1738.61,-144 1648.58,-126.91 1623.77,-132.97 1535.61,-108 1532.24,-107.05 1528.77,-105.92 1525.34,-104.72"/>
<polygon fill="black" stroke="black" points="1526.64,-101.47 1516.05,-101.22 1524.17,-108.02 1526.64,-101.47"/>
</g>
<!-- l -->
<g id="node38" class="node">
<title>l</title>
<ellipse fill="none" stroke="black" cx="1818.61" cy="-90" rx="27" ry="18"/>
<text text-anchor="middle" x="1818.61" y="-84.58" font-family="Times New Roman,serif" font-size="14.00">l</text>
</g>
<!-- export_file_name&#45;&gt;l -->
<g id="edge39" class="edge">
<title>export_file_name&#45;&gt;l</title>
<path fill="none" stroke="black" d="M1821.62,-143.7C1821.2,-136.41 1820.7,-127.73 1820.24,-119.54"/>
<polygon fill="black" stroke="black" points="1823.73,-119.4 1819.67,-109.62 1816.75,-119.8 1823.73,-119.4"/>
</g>
<!-- role_params -->
<g id="node39" class="node">
<title>role_params</title>
<ellipse fill="none" stroke="black" cx="3546.61" cy="-162" rx="56.55" ry="18"/>
<text text-anchor="middle" x="3546.61" y="-156.57" font-family="Times New Roman,serif" font-size="14.00">role_params</text>
</g>
<!-- require -->
<g id="node40" class="node">
<title>require</title>
<ellipse fill="none" stroke="black" cx="3463.61" cy="-90" rx="36.09" ry="18"/>
<text text-anchor="middle" x="3463.61" y="-84.58" font-family="Times New Roman,serif" font-size="14.00">require</text>
</g>
<!-- role_params&#45;&gt;require -->
<g id="edge41" class="edge">
<title>role_params&#45;&gt;require</title>
<path fill="none" stroke="black" d="M3527.35,-144.76C3516.29,-135.43 3502.22,-123.57 3490.12,-113.36"/>
<polygon fill="black" stroke="black" points="3492.39,-110.7 3482.49,-106.93 3487.88,-116.05 3492.39,-110.7"/>
</g>
<!-- permit -->
<g id="node41" class="node">
<title>permit</title>
<ellipse fill="none" stroke="black" cx="3551.61" cy="-90" rx="34.1" ry="18"/>
<text text-anchor="middle" x="3551.61" y="-84.58" font-family="Times New Roman,serif" font-size="14.00">permit</text>
</g>
<!-- role_params&#45;&gt;permit -->
<g id="edge42" class="edge">
<title>role_params&#45;&gt;permit</title>
<path fill="none" stroke="black" d="M3547.84,-143.7C3548.36,-136.41 3548.98,-127.73 3549.57,-119.54"/>
<polygon fill="black" stroke="black" points="3553.05,-119.84 3550.28,-109.61 3546.07,-119.34 3553.05,-119.84"/>
</g>
<!-- build_role_and_properties -->
<g id="node42" class="node">
<title>build_role_and_properties</title>
<ellipse fill="none" stroke="black" cx="188.61" cy="-162" rx="108.95" ry="18"/>
<text text-anchor="middle" x="188.61" y="-156.57" font-family="Times New Roman,serif" font-size="14.00">build_role_and_properties</text>
</g>
<!-- build_role_and_properties&#45;&gt;find -->
<g id="edge44" class="edge">
<title>build_role_and_properties&#45;&gt;find</title>
<path fill="none" stroke="black" d="M260.32,-148.16C343.55,-133.26 477.62,-109.26 542.31,-97.68"/>
<polygon fill="black" stroke="black" points="542.84,-101.14 552.07,-95.93 541.61,-94.25 542.84,-101.14"/>
</g>
<!-- build_role_and_properties&#45;&gt;scoped_graphs -->
<g id="edge45" class="edge">
<title>build_role_and_properties&#45;&gt;scoped_graphs</title>
<path fill="none" stroke="black" d="M233.49,-145.29C264.53,-134.43 305.88,-119.95 338.08,-108.69"/>
<polygon fill="black" stroke="black" points="338.91,-112.1 347.19,-105.5 336.59,-105.5 338.91,-112.1"/>
</g>
<!-- includes -->
<g id="node43" class="node">
<title>includes</title>
<ellipse fill="none" stroke="black" cx="188.61" cy="-90" rx="41.08" ry="18"/>
<text text-anchor="middle" x="188.61" y="-84.58" font-family="Times New Roman,serif" font-size="14.00">includes</text>
</g>
<!-- build_role_and_properties&#45;&gt;includes -->
<g id="edge43" class="edge">
<title>build_role_and_properties&#45;&gt;includes</title>
<path fill="none" stroke="black" d="M188.61,-143.7C188.61,-136.41 188.61,-127.73 188.61,-119.54"/>
<polygon fill="black" stroke="black" points="192.11,-119.62 188.61,-109.62 185.11,-119.62 192.11,-119.62"/>
</g>
<!-- list_index_definition -->
<g id="node44" class="node">
<title>list_index_definition</title>
<ellipse fill="none" stroke="black" cx="2896.61" cy="-162" rx="85.49" ry="18"/>
<text text-anchor="middle" x="2896.61" y="-156.57" font-family="Times New Roman,serif" font-size="14.00">list_index_definition</text>
</g>
<!-- list_index_definition&#45;&gt;order -->
<g id="edge48" class="edge">
<title>list_index_definition&#45;&gt;order</title>
<path fill="none" stroke="black" d="M2865.53,-144.76C2844.26,-133.66 2816.15,-118.97 2794.68,-107.76"/>
<polygon fill="black" stroke="black" points="2796.56,-104.79 2786.07,-103.26 2793.32,-110.99 2796.56,-104.79"/>
</g>
<!-- policy_scope -->
<g id="node45" class="node">
<title>policy_scope</title>
<ellipse fill="none" stroke="black" cx="2888.61" cy="-90" rx="61.04" ry="18"/>
<text text-anchor="middle" x="2888.61" y="-84.58" font-family="Times New Roman,serif" font-size="14.00">policy_scope</text>
</g>
<!-- list_index_definition&#45;&gt;policy_scope -->
<g id="edge46" class="edge">
<title>list_index_definition&#45;&gt;policy_scope</title>
<path fill="none" stroke="black" d="M2894.63,-143.7C2893.79,-136.41 2892.8,-127.73 2891.87,-119.54"/>
<polygon fill="black" stroke="black" points="2895.34,-119.15 2890.73,-109.61 2888.39,-119.94 2895.34,-119.15"/>
</g>
<!-- search_list -->
<g id="node46" class="node">
<title>search_list</title>
<ellipse fill="none" stroke="black" cx="3017.61" cy="-90" rx="50.07" ry="18"/>
<text text-anchor="middle" x="3017.61" y="-84.58" font-family="Times New Roman,serif" font-size="14.00">search_list</text>
</g>
<!-- list_index_definition&#45;&gt;search_list -->
<g id="edge47" class="edge">
<title>list_index_definition&#45;&gt;search_list</title>
<path fill="none" stroke="black" d="M2924.97,-144.59C2941.99,-134.75 2963.77,-122.14 2981.95,-111.63"/>
<polygon fill="black" stroke="black" points="2983.67,-114.67 2990.58,-106.64 2980.17,-108.61 2983.67,-114.67"/>
</g>
<!-- power_user_tabs -->
<g id="node47" class="node">
<title>power_user_tabs</title>
<ellipse fill="none" stroke="black" cx="2453.61" cy="-162" rx="75.02" ry="18"/>
<text text-anchor="middle" x="2453.61" y="-156.57" font-family="Times New Roman,serif" font-size="14.00">power_user_tabs</text>
</g>
<!-- power_user_tabs&#45;&gt;where -->
<g id="edge49" class="edge">
<title>power_user_tabs&#45;&gt;where</title>
<path fill="none" stroke="black" d="M2489.86,-145.98C2518.5,-134.12 2558.26,-117.65 2586.78,-105.84"/>
<polygon fill="black" stroke="black" points="2587.82,-109.2 2595.72,-102.14 2585.14,-102.73 2587.82,-109.2"/>
</g>
<!-- simple_user_tabs -->
<g id="node48" class="node">
<title>simple_user_tabs</title>
<ellipse fill="none" stroke="black" cx="2622.61" cy="-162" rx="75.51" ry="18"/>
<text text-anchor="middle" x="2622.61" y="-156.57" font-family="Times New Roman,serif" font-size="14.00">simple_user_tabs</text>
</g>
<!-- simple_user_tabs&#45;&gt;where -->
<g id="edge50" class="edge">
<title>simple_user_tabs&#45;&gt;where</title>
<path fill="none" stroke="black" d="M2622.61,-143.7C2622.61,-136.41 2622.61,-127.73 2622.61,-119.54"/>
<polygon fill="black" stroke="black" points="2626.11,-119.62 2622.61,-109.62 2619.11,-119.62 2626.11,-119.62"/>
</g>
<!-- reactivate_role -->
<g id="node49" class="node">
<title>reactivate_role</title>
<ellipse fill="none" stroke="black" cx="1052.61" cy="-162" rx="64.54" ry="18"/>
<text text-anchor="middle" x="1052.61" y="-156.57" font-family="Times New Roman,serif" font-size="14.00">reactivate_role</text>
</g>
<!-- reactivate_role&#45;&gt;t -->
<g id="edge53" class="edge">
<title>reactivate_role&#45;&gt;t</title>
<path fill="none" stroke="black" d="M1099.81,-149.29C1108.68,-147.34 1117.9,-145.47 1126.61,-144 1272.08,-119.44 1314.61,-148.05 1456.61,-108 1458.23,-107.54 1459.87,-107.02 1461.5,-106.44"/>
<polygon fill="black" stroke="black" points="1462.79,-109.7 1470.72,-102.68 1460.14,-103.22 1462.79,-109.7"/>
</g>
<!-- reactivate_role&#45;&gt;find -->
<g id="edge51" class="edge">
<title>reactivate_role&#45;&gt;find</title>
<path fill="none" stroke="black" d="M1006.05,-149.21C997.31,-147.26 988.21,-145.42 979.61,-144 819.21,-117.51 772.29,-151.34 615.61,-108 613.98,-107.55 612.34,-107.03 610.7,-106.46"/>
<polygon fill="black" stroke="black" points="612.06,-103.24 601.48,-102.71 609.42,-109.72 612.06,-103.24"/>
</g>
<!-- reactivate_role&#45;&gt;update_attributes -->
<g id="edge52" class="edge">
<title>reactivate_role&#45;&gt;update_attributes</title>
<path fill="none" stroke="black" d="M1080.43,-145.29C1097.54,-135.63 1119.7,-123.12 1138.44,-112.55"/>
<polygon fill="black" stroke="black" points="1140.14,-115.61 1147.12,-107.64 1136.69,-109.51 1140.14,-115.61"/>
</g>
</g>
</svg>
