<?xml version="1.0" encoding="UTF-8" standalone="no"?>
<!DOCTYPE svg PUBLIC "-//W3C//DTD SVG 1.1//EN"
 "http://www.w3.org/Graphics/SVG/1.1/DTD/svg11.dtd">
<!-- Generated by graphviz version 9.0.0 (20230911.1827)
 -->
<!-- Title: CallGraph Pages: 1 -->
<svg width="1174pt" height="188pt"
 viewBox="0.00 0.00 1174.06 188.00" xmlns="http://www.w3.org/2000/svg" xmlns:xlink="http://www.w3.org/1999/xlink">
<g id="graph0" class="graph" transform="scale(1 1) rotate(0) translate(4 184)">
<title>CallGraph</title>
<polygon fill="white" stroke="none" points="-4,4 -4,-184 1170.06,-184 1170.06,4 -4,4"/>
<!-- setup -->
<g id="node1" class="node">
<title>setup</title>
<ellipse fill="none" stroke="black" cx="191.59" cy="-162" rx="30.61" ry="18"/>
<text text-anchor="middle" x="191.59" y="-156.57" font-family="Times New Roman,serif" font-size="14.00">setup</text>
</g>
<!-- new -->
<g id="node2" class="node">
<title>new</title>
<ellipse fill="none" stroke="black" cx="122.59" cy="-90" rx="27" ry="18"/>
<text text-anchor="middle" x="122.59" y="-84.58" font-family="Times New Roman,serif" font-size="14.00">new</text>
</g>
<!-- t -->
<g id="node3" class="node">
<title>t</title>
<ellipse fill="none" stroke="black" cx="80.59" cy="-18" rx="27" ry="18"/>
<text text-anchor="middle" x="80.59" y="-12.57" font-family="Times New Roman,serif" font-size="14.00">t</text>
</g>
<!-- new&#45;&gt;t -->
<g id="edge1" class="edge">
<title>new&#45;&gt;t</title>
<path fill="none" stroke="black" d="M112.85,-72.76C107.86,-64.46 101.68,-54.15 96.07,-44.79"/>
<polygon fill="black" stroke="black" points="99.2,-43.22 91.06,-36.45 93.2,-46.82 99.2,-43.22"/>
</g>
<!-- destroy -->
<g id="node4" class="node">
<title>destroy</title>
<ellipse fill="none" stroke="black" cx="38.59" cy="-90" rx="38.59" ry="18"/>
<text text-anchor="middle" x="38.59" y="-84.58" font-family="Times New Roman,serif" font-size="14.00">destroy</text>
</g>
<!-- destroy&#45;&gt;t -->
<g id="edge2" class="edge">
<title>destroy&#45;&gt;t</title>
<path fill="none" stroke="black" d="M48.54,-72.41C53.48,-64.19 59.55,-54.06 65.08,-44.85"/>
<polygon fill="black" stroke="black" points="68.07,-46.66 70.22,-36.29 62.07,-43.06 68.07,-46.66"/>
</g>
<!-- use_customer_ldap_params -->
<g id="node5" class="node">
<title>use_customer_ldap_params</title>
<ellipse fill="none" stroke="black" cx="696.59" cy="-162" rx="115.43" ry="18"/>
<text text-anchor="middle" x="696.59" y="-156.57" font-family="Times New Roman,serif" font-size="14.00">use_customer_ldap_params</text>
</g>
<!-- send -->
<g id="node6" class="node">
<title>send</title>
<ellipse fill="none" stroke="black" cx="696.59" cy="-90" rx="28.11" ry="18"/>
<text text-anchor="middle" x="696.59" y="-84.58" font-family="Times New Roman,serif" font-size="14.00">send</text>
</g>
<!-- use_customer_ldap_params&#45;&gt;send -->
<g id="edge3" class="edge">
<title>use_customer_ldap_params&#45;&gt;send</title>
<path fill="none" stroke="black" d="M696.59,-143.7C696.59,-136.41 696.59,-127.73 696.59,-119.54"/>
<polygon fill="black" stroke="black" points="700.09,-119.62 696.59,-109.62 693.09,-119.62 700.09,-119.62"/>
</g>
<!-- ldap_settings -->
<g id="node7" class="node">
<title>ldap_settings</title>
<ellipse fill="none" stroke="black" cx="889.59" cy="-162" rx="59.55" ry="18"/>
<text text-anchor="middle" x="889.59" y="-156.57" font-family="Times New Roman,serif" font-size="14.00">ldap_settings</text>
</g>
<!-- find -->
<g id="node8" class="node">
<title>find</title>
<ellipse fill="none" stroke="black" cx="889.59" cy="-90" rx="27" ry="18"/>
<text text-anchor="middle" x="889.59" y="-84.58" font-family="Times New Roman,serif" font-size="14.00">find</text>
</g>
<!-- ldap_settings&#45;&gt;find -->
<g id="edge4" class="edge">
<title>ldap_settings&#45;&gt;find</title>
<path fill="none" stroke="black" d="M889.59,-143.7C889.59,-136.41 889.59,-127.73 889.59,-119.54"/>
<polygon fill="black" stroke="black" points="893.09,-119.62 889.59,-109.62 886.09,-119.62 893.09,-119.62"/>
</g>
<!-- initialize_devise_session -->
<g id="node9" class="node">
<title>initialize_devise_session</title>
<ellipse fill="none" stroke="black" cx="340.59" cy="-162" rx="100.46" ry="18"/>
<text text-anchor="middle" x="340.59" y="-156.57" font-family="Times New Roman,serif" font-size="14.00">initialize_devise_session</text>
</g>
<!-- initialize_devise_session&#45;&gt;new -->
<g id="edge5" class="edge">
<title>initialize_devise_session&#45;&gt;new</title>
<path fill="none" stroke="black" d="M283.26,-146.79C247.04,-137.21 199.52,-123.51 158.59,-108 157.05,-107.42 155.49,-106.8 153.93,-106.15"/>
<polygon fill="black" stroke="black" points="155.62,-103.07 145.05,-102.24 152.79,-109.48 155.62,-103.07"/>
</g>
<!-- clean_up_passwords -->
<g id="node10" class="node">
<title>clean_up_passwords</title>
<ellipse fill="none" stroke="black" cx="256.59" cy="-90" rx="89.49" ry="18"/>
<text text-anchor="middle" x="256.59" y="-84.58" font-family="Times New Roman,serif" font-size="14.00">clean_up_passwords</text>
</g>
<!-- initialize_devise_session&#45;&gt;clean_up_passwords -->
<g id="edge6" class="edge">
<title>initialize_devise_session&#45;&gt;clean_up_passwords</title>
<path fill="none" stroke="black" d="M320.25,-144.05C309.83,-135.37 296.96,-124.64 285.53,-115.11"/>
<polygon fill="black" stroke="black" points="287.82,-112.47 277.9,-108.76 283.34,-117.85 287.82,-112.47"/>
</g>
<!-- respond_with -->
<g id="node11" class="node">
<title>respond_with</title>
<ellipse fill="none" stroke="black" cx="425.59" cy="-90" rx="61.54" ry="18"/>
<text text-anchor="middle" x="425.59" y="-84.58" font-family="Times New Roman,serif" font-size="14.00">respond_with</text>
</g>
<!-- initialize_devise_session&#45;&gt;respond_with -->
<g id="edge7" class="edge">
<title>initialize_devise_session&#45;&gt;respond_with</title>
<path fill="none" stroke="black" d="M361.17,-144.05C371.97,-135.16 385.38,-124.11 397.16,-114.41"/>
<polygon fill="black" stroke="black" points="399.12,-117.33 404.62,-108.27 394.67,-111.92 399.12,-117.33"/>
</g>
<!-- serialize_options -->
<g id="node12" class="node">
<title>serialize_options</title>
<ellipse fill="none" stroke="black" cx="577.59" cy="-90" rx="72.52" ry="18"/>
<text text-anchor="middle" x="577.59" y="-84.58" font-family="Times New Roman,serif" font-size="14.00">serialize_options</text>
</g>
<!-- initialize_devise_session&#45;&gt;serialize_options -->
<g id="edge8" class="edge">
<title>initialize_devise_session&#45;&gt;serialize_options</title>
<path fill="none" stroke="black" d="M391.14,-146.07C429.41,-134.76 481.97,-119.24 521.53,-107.56"/>
<polygon fill="black" stroke="black" points="522.27,-110.99 530.87,-104.8 520.29,-104.28 522.27,-110.99"/>
</g>
<!-- destroy_devise_session -->
<g id="node13" class="node">
<title>destroy_devise_session</title>
<ellipse fill="none" stroke="black" cx="1066.59" cy="-162" rx="99.47" ry="18"/>
<text text-anchor="middle" x="1066.59" y="-156.57" font-family="Times New Roman,serif" font-size="14.00">destroy_devise_session</text>
</g>
<!-- sign_out -->
<g id="node14" class="node">
<title>sign_out</title>
<ellipse fill="none" stroke="black" cx="1066.59" cy="-90" rx="42.58" ry="18"/>
<text text-anchor="middle" x="1066.59" y="-84.58" font-family="Times New Roman,serif" font-size="14.00">sign_out</text>
</g>
<!-- destroy_devise_session&#45;&gt;sign_out -->
<g id="edge9" class="edge">
<title>destroy_devise_session&#45;&gt;sign_out</title>
<path fill="none" stroke="black" d="M1066.59,-143.7C1066.59,-136.41 1066.59,-127.73 1066.59,-119.54"/>
<polygon fill="black" stroke="black" points="1070.09,-119.62 1066.59,-109.62 1063.09,-119.62 1070.09,-119.62"/>
</g>
</g>
</svg>
