<?xml version="1.0" encoding="UTF-8" standalone="no"?>
<!DOCTYPE svg PUBLIC "-//W3C//DTD SVG 1.1//EN"
 "http://www.w3.org/Graphics/SVG/1.1/DTD/svg11.dtd">
<!-- Generated by graphviz version 9.0.0 (20230911.1827)
 -->
<!-- Title: CallGraph Pages: 1 -->
<svg width="6926pt" height="188pt"
 viewBox="0.00 0.00 6926.10 188.00" xmlns="http://www.w3.org/2000/svg" xmlns:xlink="http://www.w3.org/1999/xlink">
<g id="graph0" class="graph" transform="scale(1 1) rotate(0) translate(4 184)">
<title>CallGraph</title>
<polygon fill="white" stroke="none" points="-4,4 -4,-184 6922.1,-184 6922.1,4 -4,4"/>
<!-- update -->
<g id="node1" class="node">
<title>update</title>
<ellipse fill="none" stroke="black" cx="2355.58" cy="-90" rx="35.6" ry="18"/>
<text text-anchor="middle" x="2355.58" y="-84.58" font-family="Times New Roman,serif" font-size="14.00">update</text>
</g>
<!-- update&#45;&gt;update -->
<g id="edge1" class="edge">
<title>update&#45;&gt;update</title>
<path fill="none" stroke="black" d="M2381.49,-102.85C2395.9,-105.25 2409.17,-100.97 2409.17,-90 2409.17,-82.03 2402.17,-77.59 2392.81,-76.68"/>
<polygon fill="black" stroke="black" points="2392.85,-73.17 2383.01,-77.08 2393.14,-80.17 2392.85,-73.17"/>
</g>
<!-- t -->
<g id="node2" class="node">
<title>t</title>
<ellipse fill="none" stroke="black" cx="2051.58" cy="-18" rx="27" ry="18"/>
<text text-anchor="middle" x="2051.58" y="-12.57" font-family="Times New Roman,serif" font-size="14.00">t</text>
</g>
<!-- update&#45;&gt;t -->
<g id="edge2" class="edge">
<title>update&#45;&gt;t</title>
<path fill="none" stroke="black" d="M2327.2,-78.68C2320.19,-76.32 2312.65,-73.93 2305.58,-72 2229.54,-51.23 2138.79,-34.09 2088.95,-25.32"/>
<polygon fill="black" stroke="black" points="2089.73,-21.91 2079.28,-23.64 2088.53,-28.8 2089.73,-21.91"/>
</g>
<!-- update_authentication_strategy -->
<g id="node3" class="node">
<title>update_authentication_strategy</title>
<ellipse fill="none" stroke="black" cx="2291.58" cy="-162" rx="125.41" ry="18"/>
<text text-anchor="middle" x="2291.58" y="-156.57" font-family="Times New Roman,serif" font-size="14.00">update_authentication_strategy</text>
</g>
<!-- update_authentication_strategy&#45;&gt;update -->
<g id="edge3" class="edge">
<title>update_authentication_strategy&#45;&gt;update</title>
<path fill="none" stroke="black" d="M2307.4,-143.7C2315.33,-135.02 2325.07,-124.37 2333.71,-114.92"/>
<polygon fill="black" stroke="black" points="2336.06,-117.53 2340.23,-107.79 2330.9,-112.81 2336.06,-117.53"/>
</g>
<!-- update_authentication_strategy&#45;&gt;t -->
<g id="edge4" class="edge">
<title>update_authentication_strategy&#45;&gt;t</title>
<path fill="none" stroke="black" d="M2292.94,-143.77C2293.53,-123.78 2291.22,-91.12 2272.58,-72 2247.44,-46.22 2145.81,-30.26 2089.53,-23.22"/>
<polygon fill="black" stroke="black" points="2090.11,-19.77 2079.76,-22.04 2089.27,-26.72 2090.11,-19.77"/>
</g>
<!-- join -->
<g id="node4" class="node">
<title>join</title>
<ellipse fill="none" stroke="black" cx="414.58" cy="-18" rx="27" ry="18"/>
<text text-anchor="middle" x="414.58" y="-12.57" font-family="Times New Roman,serif" font-size="14.00">join</text>
</g>
<!-- update_authentication_strategy&#45;&gt;join -->
<g id="edge5" class="edge">
<title>update_authentication_strategy&#45;&gt;join</title>
<path fill="none" stroke="black" d="M2166.54,-159.88C1744.79,-155.81 399,-140.31 367.58,-108 348.6,-88.49 370.11,-59.78 389.87,-40.28"/>
<polygon fill="black" stroke="black" points="392.11,-42.98 397,-33.58 387.32,-37.88 392.11,-42.98"/>
</g>
<!-- edit -->
<g id="node5" class="node">
<title>edit</title>
<ellipse fill="none" stroke="black" cx="2482.58" cy="-162" rx="27" ry="18"/>
<text text-anchor="middle" x="2482.58" y="-156.57" font-family="Times New Roman,serif" font-size="14.00">edit</text>
</g>
<!-- user_import -->
<g id="node6" class="node">
<title>user_import</title>
<ellipse fill="none" stroke="black" cx="2632.58" cy="-162" rx="55.55" ry="18"/>
<text text-anchor="middle" x="2632.58" y="-156.57" font-family="Times New Roman,serif" font-size="14.00">user_import</text>
</g>
<!-- show_localisation_preference -->
<g id="node7" class="node">
<title>show_localisation_preference</title>
<ellipse fill="none" stroke="black" cx="2850.58" cy="-162" rx="120.92" ry="18"/>
<text text-anchor="middle" x="2850.58" y="-156.57" font-family="Times New Roman,serif" font-size="14.00">show_localisation_preference</text>
</g>
<!-- user_csv_template -->
<g id="node8" class="node">
<title>user_csv_template</title>
<ellipse fill="none" stroke="black" cx="3081.58" cy="-162" rx="80.01" ry="18"/>
<text text-anchor="middle" x="3081.58" y="-156.57" font-family="Times New Roman,serif" font-size="14.00">user_csv_template</text>
</g>
<!-- send_data -->
<g id="node9" class="node">
<title>send_data</title>
<ellipse fill="none" stroke="black" cx="3081.58" cy="-90" rx="48.57" ry="18"/>
<text text-anchor="middle" x="3081.58" y="-84.58" font-family="Times New Roman,serif" font-size="14.00">send_data</text>
</g>
<!-- user_csv_template&#45;&gt;send_data -->
<g id="edge6" class="edge">
<title>user_csv_template&#45;&gt;send_data</title>
<path fill="none" stroke="black" d="M3081.58,-143.7C3081.58,-136.41 3081.58,-127.73 3081.58,-119.54"/>
<polygon fill="black" stroke="black" points="3085.08,-119.62 3081.58,-109.62 3078.08,-119.62 3085.08,-119.62"/>
</g>
<!-- handle_user_import -->
<g id="node10" class="node">
<title>handle_user_import</title>
<ellipse fill="none" stroke="black" cx="2775.58" cy="-90" rx="84.5" ry="18"/>
<text text-anchor="middle" x="2775.58" y="-84.58" font-family="Times New Roman,serif" font-size="14.00">handle_user_import</text>
</g>
<!-- handle_user_import&#45;&gt;t -->
<g id="edge9" class="edge">
<title>handle_user_import&#45;&gt;t</title>
<path fill="none" stroke="black" d="M2715.18,-77.08C2704.35,-75.2 2693.15,-73.41 2682.58,-72 2459.23,-42.28 2189.06,-26.18 2090.2,-20.94"/>
<polygon fill="black" stroke="black" points="2090.42,-17.44 2080.25,-20.42 2090.05,-24.43 2090.42,-17.44"/>
</g>
<!-- cache -->
<g id="node11" class="node">
<title>cache</title>
<ellipse fill="none" stroke="black" cx="2867.58" cy="-18" rx="32.1" ry="18"/>
<text text-anchor="middle" x="2867.58" y="-12.57" font-family="Times New Roman,serif" font-size="14.00">cache</text>
</g>
<!-- handle_user_import&#45;&gt;cache -->
<g id="edge7" class="edge">
<title>handle_user_import&#45;&gt;cache</title>
<path fill="none" stroke="black" d="M2797.38,-72.41C2810.16,-62.69 2826.42,-50.31 2840.07,-39.93"/>
<polygon fill="black" stroke="black" points="2841.99,-42.86 2847.83,-34.02 2837.75,-37.29 2841.99,-42.86"/>
</g>
<!-- import_form_csv -->
<g id="node12" class="node">
<title>import_form_csv</title>
<ellipse fill="none" stroke="black" cx="2741.58" cy="-18" rx="76.01" ry="18"/>
<text text-anchor="middle" x="2741.58" y="-12.57" font-family="Times New Roman,serif" font-size="14.00">import_form_csv</text>
</g>
<!-- handle_user_import&#45;&gt;import_form_csv -->
<g id="edge8" class="edge">
<title>handle_user_import&#45;&gt;import_form_csv</title>
<path fill="none" stroke="black" d="M2767.17,-71.7C2763.47,-64.07 2759.02,-54.92 2754.88,-46.4"/>
<polygon fill="black" stroke="black" points="2758.06,-44.93 2750.54,-37.47 2751.77,-47.99 2758.06,-44.93"/>
</g>
<!-- general -->
<g id="node13" class="node">
<title>general</title>
<ellipse fill="none" stroke="black" cx="3216.58" cy="-162" rx="36.59" ry="18"/>
<text text-anchor="middle" x="3216.58" y="-156.57" font-family="Times New Roman,serif" font-size="14.00">general</text>
</g>
<!-- customer_img -->
<g id="node14" class="node">
<title>customer_img</title>
<ellipse fill="none" stroke="black" cx="3334.58" cy="-162" rx="63.54" ry="18"/>
<text text-anchor="middle" x="3334.58" y="-156.57" font-family="Times New Roman,serif" font-size="14.00">customer_img</text>
</g>
<!-- update_logo -->
<g id="node15" class="node">
<title>update_logo</title>
<ellipse fill="none" stroke="black" cx="1966.58" cy="-90" rx="57.05" ry="18"/>
<text text-anchor="middle" x="1966.58" y="-84.58" font-family="Times New Roman,serif" font-size="14.00">update_logo</text>
</g>
<!-- update_logo&#45;&gt;t -->
<g id="edge11" class="edge">
<title>update_logo&#45;&gt;t</title>
<path fill="none" stroke="black" d="M1986.29,-72.76C1998.21,-62.95 2013.52,-50.34 2026.32,-39.8"/>
<polygon fill="black" stroke="black" points="2028.45,-42.58 2033.94,-33.52 2024,-37.18 2028.45,-42.58"/>
</g>
<!-- update_attributes -->
<g id="node16" class="node">
<title>update_attributes</title>
<ellipse fill="none" stroke="black" cx="992.58" cy="-18" rx="74.52" ry="18"/>
<text text-anchor="middle" x="992.58" y="-12.57" font-family="Times New Roman,serif" font-size="14.00">update_attributes</text>
</g>
<!-- update_logo&#45;&gt;update_attributes -->
<g id="edge10" class="edge">
<title>update_logo&#45;&gt;update_attributes</title>
<path fill="none" stroke="black" d="M1925.64,-77.15C1917.4,-75.13 1908.76,-73.28 1900.58,-72 1601.39,-25.19 1240.91,-18.77 1078.86,-18.49"/>
<polygon fill="black" stroke="black" points="1079.06,-15 1069.06,-18.49 1079.05,-22 1079.06,-15"/>
</g>
<!-- update_nickname -->
<g id="node17" class="node">
<title>update_nickname</title>
<ellipse fill="none" stroke="black" cx="326.58" cy="-162" rx="75.51" ry="18"/>
<text text-anchor="middle" x="326.58" y="-156.57" font-family="Times New Roman,serif" font-size="14.00">update_nickname</text>
</g>
<!-- update_nickname&#45;&gt;t -->
<g id="edge13" class="edge">
<title>update_nickname&#45;&gt;t</title>
<path fill="none" stroke="black" d="M392.71,-152.97C422.83,-149.62 458.95,-146.05 491.58,-144 535.22,-141.26 2035.01,-139.28 2065.58,-108 2081.44,-91.77 2074.82,-65.34 2066.11,-45.49"/>
<polygon fill="black" stroke="black" points="2069.33,-44.1 2061.84,-36.61 2063.02,-47.14 2069.33,-44.1"/>
</g>
<!-- update_nickname&#45;&gt;update_attributes -->
<g id="edge12" class="edge">
<title>update_nickname&#45;&gt;update_attributes</title>
<path fill="none" stroke="black" d="M329.26,-143.61C333.47,-122.81 343.76,-88.71 367.58,-72 410.77,-41.69 746.91,-26.89 907.58,-21.5"/>
<polygon fill="black" stroke="black" points="907.45,-25 917.33,-21.17 907.22,-18.01 907.45,-25"/>
</g>
<!-- build_validation_error_or_failure -->
<g id="node18" class="node">
<title>build_validation_error_or_failure</title>
<ellipse fill="none" stroke="black" cx="149.58" cy="-90" rx="132.9" ry="18"/>
<text text-anchor="middle" x="149.58" y="-84.58" font-family="Times New Roman,serif" font-size="14.00">build_validation_error_or_failure</text>
</g>
<!-- update_nickname&#45;&gt;build_validation_error_or_failure -->
<g id="edge14" class="edge">
<title>update_nickname&#45;&gt;build_validation_error_or_failure</title>
<path fill="none" stroke="black" d="M288.6,-145.98C263.2,-135.94 229.45,-122.59 201.57,-111.56"/>
<polygon fill="black" stroke="black" points="203.19,-108.44 192.6,-108.02 200.61,-114.95 203.19,-108.44"/>
</g>
<!-- build_validation_error_or_failure&#45;&gt;t -->
<g id="edge51" class="edge">
<title>build_validation_error_or_failure&#45;&gt;t</title>
<path fill="none" stroke="black" d="M259.01,-79.47C293.71,-76.71 332.23,-73.93 367.58,-72 1025.29,-36.02 1828.94,-22.33 2012.85,-19.55"/>
<polygon fill="black" stroke="black" points="2012.84,-23.06 2022.79,-19.41 2012.74,-16.06 2012.84,-23.06"/>
</g>
<!-- include -->
<g id="node44" class="node">
<title>include</title>
<ellipse fill="none" stroke="black" cx="216.58" cy="-18" rx="37.09" ry="18"/>
<text text-anchor="middle" x="216.58" y="-12.57" font-family="Times New Roman,serif" font-size="14.00">include</text>
</g>
<!-- build_validation_error_or_failure&#45;&gt;include -->
<g id="edge49" class="edge">
<title>build_validation_error_or_failure&#45;&gt;include</title>
<path fill="none" stroke="black" d="M166.14,-71.7C174.44,-63.02 184.64,-52.37 193.68,-42.92"/>
<polygon fill="black" stroke="black" points="196.14,-45.41 200.53,-35.76 191.09,-40.57 196.14,-45.41"/>
</g>
<!-- full_messages_for -->
<g id="node45" class="node">
<title>full_messages_for</title>
<ellipse fill="none" stroke="black" cx="82.58" cy="-18" rx="78.51" ry="18"/>
<text text-anchor="middle" x="82.58" y="-12.57" font-family="Times New Roman,serif" font-size="14.00">full_messages_for</text>
</g>
<!-- build_validation_error_or_failure&#45;&gt;full_messages_for -->
<g id="edge50" class="edge">
<title>build_validation_error_or_failure&#45;&gt;full_messages_for</title>
<path fill="none" stroke="black" d="M133.01,-71.7C124.94,-63.27 115.09,-52.97 106.25,-43.73"/>
<polygon fill="black" stroke="black" points="108.97,-41.52 99.53,-36.72 103.92,-46.36 108.97,-41.52"/>
</g>
<!-- update_referent_contact -->
<g id="node19" class="node">
<title>update_referent_contact</title>
<ellipse fill="none" stroke="black" cx="132.58" cy="-162" rx="100.96" ry="18"/>
<text text-anchor="middle" x="132.58" y="-156.57" font-family="Times New Roman,serif" font-size="14.00">update_referent_contact</text>
</g>
<!-- update_referent_contact&#45;&gt;t -->
<g id="edge16" class="edge">
<title>update_referent_contact&#45;&gt;t</title>
<path fill="none" stroke="black" d="M202.47,-148.67C215.44,-146.79 228.89,-145.11 241.58,-144 291.15,-139.66 1994.21,-139.69 2032.58,-108 2049.91,-93.69 2053.84,-67.79 2053.92,-47.61"/>
<polygon fill="black" stroke="black" points="2057.42,-47.63 2053.62,-37.74 2050.43,-47.84 2057.42,-47.63"/>
</g>
<!-- update_referent_contact&#45;&gt;update_attributes -->
<g id="edge15" class="edge">
<title>update_referent_contact&#45;&gt;update_attributes</title>
<path fill="none" stroke="black" d="M65.38,-148.19C43.17,-140.41 20.78,-127.95 7.58,-108 -1.26,-94.66 -3.43,-83.61 7.58,-72 22.99,-55.74 671.74,-30.64 907.81,-22.02"/>
<polygon fill="black" stroke="black" points="907.69,-25.53 917.56,-21.67 907.44,-18.53 907.69,-25.53"/>
</g>
<!-- update_referent_contact&#45;&gt;build_validation_error_or_failure -->
<g id="edge17" class="edge">
<title>update_referent_contact&#45;&gt;build_validation_error_or_failure</title>
<path fill="none" stroke="black" d="M136.78,-143.7C138.57,-136.32 140.71,-127.52 142.71,-119.25"/>
<polygon fill="black" stroke="black" points="146.11,-120.12 145.06,-109.58 139.3,-118.47 146.11,-120.12"/>
</g>
<!-- serve_logo -->
<g id="node20" class="node">
<title>serve_logo</title>
<ellipse fill="none" stroke="black" cx="3467.58" cy="-162" rx="51.56" ry="18"/>
<text text-anchor="middle" x="3467.58" y="-156.57" font-family="Times New Roman,serif" font-size="14.00">serve_logo</text>
</g>
<!-- send_file -->
<g id="node21" class="node">
<title>send_file</title>
<ellipse fill="none" stroke="black" cx="3467.58" cy="-90" rx="44.08" ry="18"/>
<text text-anchor="middle" x="3467.58" y="-84.58" font-family="Times New Roman,serif" font-size="14.00">send_file</text>
</g>
<!-- serve_logo&#45;&gt;send_file -->
<g id="edge18" class="edge">
<title>serve_logo&#45;&gt;send_file</title>
<path fill="none" stroke="black" d="M3467.58,-143.7C3467.58,-136.41 3467.58,-127.73 3467.58,-119.54"/>
<polygon fill="black" stroke="black" points="3471.08,-119.62 3467.58,-109.62 3464.08,-119.62 3471.08,-119.62"/>
</g>
<!-- crop_logo -->
<g id="node22" class="node">
<title>crop_logo</title>
<ellipse fill="none" stroke="black" cx="3616.58" cy="-90" rx="49.57" ry="18"/>
<text text-anchor="middle" x="3616.58" y="-84.58" font-family="Times New Roman,serif" font-size="14.00">crop_logo</text>
</g>
<!-- update_crop_logo -->
<g id="node23" class="node">
<title>update_crop_logo</title>
<ellipse fill="none" stroke="black" cx="3616.58" cy="-162" rx="79.51" ry="18"/>
<text text-anchor="middle" x="3616.58" y="-156.57" font-family="Times New Roman,serif" font-size="14.00">update_crop_logo</text>
</g>
<!-- update_crop_logo&#45;&gt;crop_logo -->
<g id="edge19" class="edge">
<title>update_crop_logo&#45;&gt;crop_logo</title>
<path fill="none" stroke="black" d="M3616.58,-143.7C3616.58,-136.41 3616.58,-127.73 3616.58,-119.54"/>
<polygon fill="black" stroke="black" points="3620.08,-119.62 3616.58,-109.62 3613.08,-119.62 3620.08,-119.62"/>
</g>
<!-- confirm_delete_logo -->
<g id="node24" class="node">
<title>confirm_delete_logo</title>
<ellipse fill="none" stroke="black" cx="3801.58" cy="-162" rx="87.49" ry="18"/>
<text text-anchor="middle" x="3801.58" y="-156.57" font-family="Times New Roman,serif" font-size="14.00">confirm_delete_logo</text>
</g>
<!-- delete_logo -->
<g id="node25" class="node">
<title>delete_logo</title>
<ellipse fill="none" stroke="black" cx="2209.58" cy="-90" rx="53.56" ry="18"/>
<text text-anchor="middle" x="2209.58" y="-84.58" font-family="Times New Roman,serif" font-size="14.00">delete_logo</text>
</g>
<!-- delete_logo&#45;&gt;t -->
<g id="edge20" class="edge">
<title>delete_logo&#45;&gt;t</title>
<path fill="none" stroke="black" d="M2177.98,-75C2150.63,-62.89 2111.26,-45.44 2083.74,-33.25"/>
<polygon fill="black" stroke="black" points="2085.41,-30.16 2074.85,-29.31 2082.58,-36.56 2085.41,-30.16"/>
</g>
<!-- change_time_zone -->
<g id="node26" class="node">
<title>change_time_zone</title>
<ellipse fill="none" stroke="black" cx="722.58" cy="-90" rx="79.51" ry="18"/>
<text text-anchor="middle" x="722.58" y="-84.58" font-family="Times New Roman,serif" font-size="14.00">change_time_zone</text>
</g>
<!-- change_time_zone&#45;&gt;t -->
<g id="edge22" class="edge">
<title>change_time_zone&#45;&gt;t</title>
<path fill="none" stroke="black" d="M778.88,-76.96C789.69,-75.01 800.95,-73.24 811.58,-72 1282.54,-17.25 1860,-17.46 2012.93,-18.6"/>
<polygon fill="black" stroke="black" points="2012.87,-22.1 2022.9,-18.68 2012.92,-15.1 2012.87,-22.1"/>
</g>
<!-- change_time_zone&#45;&gt;update_attributes -->
<g id="edge21" class="edge">
<title>change_time_zone&#45;&gt;update_attributes</title>
<path fill="none" stroke="black" d="M773.36,-75.83C818.47,-64.14 884.48,-47.03 932.26,-34.64"/>
<polygon fill="black" stroke="black" points="933.12,-38.03 941.92,-32.13 931.36,-31.25 933.12,-38.03"/>
</g>
<!-- change_logo_usage -->
<g id="node27" class="node">
<title>change_logo_usage</title>
<ellipse fill="none" stroke="black" cx="904.58" cy="-90" rx="84" ry="18"/>
<text text-anchor="middle" x="904.58" y="-84.58" font-family="Times New Roman,serif" font-size="14.00">change_logo_usage</text>
</g>
<!-- change_logo_usage&#45;&gt;t -->
<g id="edge24" class="edge">
<title>change_logo_usage&#45;&gt;t</title>
<path fill="none" stroke="black" d="M963.94,-76.96C975.08,-75.04 986.65,-73.27 997.58,-72 1392.38,-26.19 1874.9,-19.96 2013,-19.13"/>
<polygon fill="black" stroke="black" points="2012.69,-22.63 2022.67,-19.07 2012.66,-15.63 2012.69,-22.63"/>
</g>
<!-- change_logo_usage&#45;&gt;update_attributes -->
<g id="edge23" class="edge">
<title>change_logo_usage&#45;&gt;update_attributes</title>
<path fill="none" stroke="black" d="M925.43,-72.41C936.53,-63.58 950.37,-52.57 962.6,-42.84"/>
<polygon fill="black" stroke="black" points="964.73,-45.62 970.38,-36.65 960.38,-40.14 964.73,-45.62"/>
</g>
<!-- edit_print_footer -->
<g id="node28" class="node">
<title>edit_print_footer</title>
<ellipse fill="none" stroke="black" cx="1080.58" cy="-90" rx="73.52" ry="18"/>
<text text-anchor="middle" x="1080.58" y="-84.58" font-family="Times New Roman,serif" font-size="14.00">edit_print_footer</text>
</g>
<!-- edit_print_footer&#45;&gt;t -->
<g id="edge26" class="edge">
<title>edit_print_footer&#45;&gt;t</title>
<path fill="none" stroke="black" d="M1132.88,-76.98C1142.7,-75.06 1152.92,-73.28 1162.58,-72 1489.27,-28.63 1888.25,-20.74 2012.65,-19.31"/>
<polygon fill="black" stroke="black" points="2012.68,-22.81 2022.64,-19.21 2012.61,-15.81 2012.68,-22.81"/>
</g>
<!-- edit_print_footer&#45;&gt;update_attributes -->
<g id="edge25" class="edge">
<title>edit_print_footer&#45;&gt;update_attributes</title>
<path fill="none" stroke="black" d="M1059.72,-72.41C1048.62,-63.58 1034.78,-52.57 1022.55,-42.84"/>
<polygon fill="black" stroke="black" points="1024.77,-40.14 1014.77,-36.65 1020.42,-45.62 1024.77,-40.14"/>
</g>
<!-- change_approved_read -->
<g id="node29" class="node">
<title>change_approved_read</title>
<ellipse fill="none" stroke="black" cx="1269.58" cy="-90" rx="97.97" ry="18"/>
<text text-anchor="middle" x="1269.58" y="-84.58" font-family="Times New Roman,serif" font-size="14.00">change_approved_read</text>
</g>
<!-- change_approved_read&#45;&gt;t -->
<g id="edge28" class="edge">
<title>change_approved_read&#45;&gt;t</title>
<path fill="none" stroke="black" d="M1339.68,-77.05C1351.96,-75.19 1364.62,-73.42 1376.58,-72 1617.99,-43.39 1909.87,-26.42 2013.13,-20.95"/>
<polygon fill="black" stroke="black" points="2013.18,-24.45 2022.98,-20.43 2012.81,-17.46 2013.18,-24.45"/>
</g>
<!-- change_approved_read&#45;&gt;update_attributes -->
<g id="edge27" class="edge">
<title>change_approved_read&#45;&gt;update_attributes</title>
<path fill="none" stroke="black" d="M1213.52,-74.83C1167.13,-63.11 1101.33,-46.48 1053.61,-34.42"/>
<polygon fill="black" stroke="black" points="1054.52,-31.04 1043.97,-31.99 1052.81,-37.83 1054.52,-31.04"/>
</g>
<!-- update_owner_users_management -->
<g id="node30" class="node">
<title>update_owner_users_management</title>
<ellipse fill="none" stroke="black" cx="1524.58" cy="-90" rx="138.89" ry="18"/>
<text text-anchor="middle" x="1524.58" y="-84.58" font-family="Times New Roman,serif" font-size="14.00">update_owner_users_management</text>
</g>
<!-- update_owner_users_management&#45;&gt;t -->
<g id="edge30" class="edge">
<title>update_owner_users_management&#45;&gt;t</title>
<path fill="none" stroke="black" d="M1619.1,-76.45C1736.68,-60.83 1931.92,-34.89 2013.7,-24.03"/>
<polygon fill="black" stroke="black" points="2013.97,-27.53 2023.43,-22.74 2013.05,-20.59 2013.97,-27.53"/>
</g>
<!-- update_owner_users_management&#45;&gt;update_attributes -->
<g id="edge29" class="edge">
<title>update_owner_users_management&#45;&gt;update_attributes</title>
<path fill="none" stroke="black" d="M1429.46,-76.49C1326.07,-62.88 1162.95,-41.42 1068.01,-28.93"/>
<polygon fill="black" stroke="black" points="1068.65,-25.48 1058.28,-27.65 1067.74,-32.42 1068.65,-25.48"/>
</g>
<!-- update_password_policy -->
<g id="node31" class="node">
<title>update_password_policy</title>
<ellipse fill="none" stroke="black" cx="1786.58" cy="-90" rx="104.96" ry="18"/>
<text text-anchor="middle" x="1786.58" y="-84.58" font-family="Times New Roman,serif" font-size="14.00">update_password_policy</text>
</g>
<!-- update_password_policy&#45;&gt;t -->
<g id="edge32" class="edge">
<title>update_password_policy&#45;&gt;t</title>
<path fill="none" stroke="black" d="M1842.13,-74.33C1894.48,-60.5 1971.37,-40.19 2015.96,-28.41"/>
<polygon fill="black" stroke="black" points="2016.6,-31.86 2025.37,-25.92 2014.81,-25.09 2016.6,-31.86"/>
</g>
<!-- update_password_policy&#45;&gt;update_attributes -->
<g id="edge31" class="edge">
<title>update_password_policy&#45;&gt;update_attributes</title>
<path fill="none" stroke="black" d="M1711.56,-77.05C1698.58,-75.2 1685.2,-73.43 1672.58,-72 1458.14,-47.69 1204.39,-31.13 1075.98,-23.61"/>
<polygon fill="black" stroke="black" points="1076.39,-20.13 1066.21,-23.04 1075.99,-27.11 1076.39,-20.13"/>
</g>
<!-- update_user_deactivation -->
<g id="node32" class="node">
<title>update_user_deactivation</title>
<ellipse fill="none" stroke="black" cx="481.58" cy="-90" rx="105.45" ry="18"/>
<text text-anchor="middle" x="481.58" y="-84.58" font-family="Times New Roman,serif" font-size="14.00">update_user_deactivation</text>
</g>
<!-- update_user_deactivation&#45;&gt;t -->
<g id="edge34" class="edge">
<title>update_user_deactivation&#45;&gt;t</title>
<path fill="none" stroke="black" d="M564.7,-78.58C587.03,-76.09 611.2,-73.67 633.58,-72 1180.03,-31.29 1847.4,-21.31 2013.02,-19.39"/>
<polygon fill="black" stroke="black" points="2013.02,-22.89 2022.98,-19.28 2012.95,-15.9 2013.02,-22.89"/>
</g>
<!-- update_user_deactivation&#45;&gt;join -->
<g id="edge35" class="edge">
<title>update_user_deactivation&#45;&gt;join</title>
<path fill="none" stroke="black" d="M465.36,-72.05C456.61,-62.92 445.7,-51.52 436.24,-41.63"/>
<polygon fill="black" stroke="black" points="438.87,-39.32 429.43,-34.52 433.81,-44.16 438.87,-39.32"/>
</g>
<!-- update_user_deactivation&#45;&gt;update_attributes -->
<g id="edge33" class="edge">
<title>update_user_deactivation&#45;&gt;update_attributes</title>
<path fill="none" stroke="black" d="M560.3,-77.67C573.73,-75.76 587.55,-73.81 600.58,-72 710.63,-56.7 838.15,-39.57 917.1,-29.03"/>
<polygon fill="black" stroke="black" points="917.44,-32.52 926.89,-27.73 916.51,-25.58 917.44,-32.52"/>
</g>
<!-- update_deactivation_period -->
<g id="node33" class="node">
<title>update_deactivation_period</title>
<ellipse fill="none" stroke="black" cx="614.58" cy="-162" rx="113.94" ry="18"/>
<text text-anchor="middle" x="614.58" y="-156.57" font-family="Times New Roman,serif" font-size="14.00">update_deactivation_period</text>
</g>
<!-- update_deactivation_period&#45;&gt;t -->
<g id="edge37" class="edge">
<title>update_deactivation_period&#45;&gt;t</title>
<path fill="none" stroke="black" d="M728.7,-161.21C1068.99,-161.29 2056.04,-157.25 2103.58,-108 2123.13,-87.74 2099.01,-58.77 2077.51,-39.45"/>
<polygon fill="black" stroke="black" points="2079.91,-36.9 2070.04,-33.04 2075.36,-42.21 2079.91,-36.9"/>
</g>
<!-- update_deactivation_period&#45;&gt;update_attributes -->
<g id="edge36" class="edge">
<title>update_deactivation_period&#45;&gt;update_attributes</title>
<path fill="none" stroke="black" d="M612.94,-143.84C612.04,-123.59 613.99,-90.38 633.58,-72 672,-35.95 813.49,-24.38 906.94,-20.69"/>
<polygon fill="black" stroke="black" points="907,-24.19 916.86,-20.33 906.74,-17.2 907,-24.19"/>
</g>
<!-- update_deactivation_period&#45;&gt;build_validation_error_or_failure -->
<g id="edge38" class="edge">
<title>update_deactivation_period&#45;&gt;build_validation_error_or_failure</title>
<path fill="none" stroke="black" d="M534.11,-148.89C454.5,-136.9 332.55,-118.54 247.39,-105.73"/>
<polygon fill="black" stroke="black" points="248.06,-102.29 237.65,-104.26 247.02,-109.21 248.06,-102.29"/>
</g>
<!-- update_colors -->
<g id="node34" class="node">
<title>update_colors</title>
<ellipse fill="none" stroke="black" cx="2950.58" cy="-90" rx="64.04" ry="18"/>
<text text-anchor="middle" x="2950.58" y="-84.58" font-family="Times New Roman,serif" font-size="14.00">update_colors</text>
</g>
<!-- update_colors&#45;&gt;t -->
<g id="edge41" class="edge">
<title>update_colors&#45;&gt;t</title>
<path fill="none" stroke="black" d="M2902.21,-77.8C2891.2,-75.58 2879.53,-73.48 2868.58,-72 2714.95,-51.2 2229.91,-27.36 2089.81,-20.77"/>
<polygon fill="black" stroke="black" points="2090.12,-17.28 2079.97,-20.31 2089.8,-24.27 2090.12,-17.28"/>
</g>
<!-- parse -->
<g id="node35" class="node">
<title>parse</title>
<ellipse fill="none" stroke="black" cx="3031.58" cy="-18" rx="30.61" ry="18"/>
<text text-anchor="middle" x="3031.58" y="-12.57" font-family="Times New Roman,serif" font-size="14.00">parse</text>
</g>
<!-- update_colors&#45;&gt;parse -->
<g id="edge39" class="edge">
<title>update_colors&#45;&gt;parse</title>
<path fill="none" stroke="black" d="M2969.77,-72.41C2980.73,-62.94 2994.6,-50.95 3006.42,-40.74"/>
<polygon fill="black" stroke="black" points="3008.56,-43.51 3013.84,-34.33 3003.98,-38.22 3008.56,-43.51"/>
</g>
<!-- create -->
<g id="node36" class="node">
<title>create</title>
<ellipse fill="none" stroke="black" cx="2950.58" cy="-18" rx="32.6" ry="18"/>
<text text-anchor="middle" x="2950.58" y="-12.57" font-family="Times New Roman,serif" font-size="14.00">create</text>
</g>
<!-- update_colors&#45;&gt;create -->
<g id="edge40" class="edge">
<title>update_colors&#45;&gt;create</title>
<path fill="none" stroke="black" d="M2950.58,-71.7C2950.58,-64.41 2950.58,-55.73 2950.58,-47.54"/>
<polygon fill="black" stroke="black" points="2954.08,-47.62 2950.58,-37.62 2947.08,-47.62 2954.08,-47.62"/>
</g>
<!-- toggle_color -->
<g id="node37" class="node">
<title>toggle_color</title>
<ellipse fill="none" stroke="black" cx="2484.58" cy="-90" rx="57.55" ry="18"/>
<text text-anchor="middle" x="2484.58" y="-84.58" font-family="Times New Roman,serif" font-size="14.00">toggle_color</text>
</g>
<!-- toggle_color&#45;&gt;t -->
<g id="edge44" class="edge">
<title>toggle_color&#45;&gt;t</title>
<path fill="none" stroke="black" d="M2442.48,-77.43C2434.57,-75.46 2426.35,-73.56 2418.58,-72 2299.48,-48.14 2156.59,-30.66 2089.67,-23.12"/>
<polygon fill="black" stroke="black" points="2090.28,-19.67 2079.96,-22.04 2089.51,-26.62 2090.28,-19.67"/>
</g>
<!-- toggle_color&#45;&gt;update_attributes -->
<g id="edge43" class="edge">
<title>toggle_color&#45;&gt;update_attributes</title>
<path fill="none" stroke="black" d="M2443.66,-77.01C2435.42,-75.01 2426.77,-73.19 2418.58,-72 2157.71,-34.01 1345.07,-22.55 1078.34,-19.77"/>
<polygon fill="black" stroke="black" points="1078.74,-16.28 1068.7,-19.67 1078.67,-23.28 1078.74,-16.28"/>
</g>
<!-- find_by -->
<g id="node38" class="node">
<title>find_by</title>
<ellipse fill="none" stroke="black" cx="2494.58" cy="-18" rx="39.59" ry="18"/>
<text text-anchor="middle" x="2494.58" y="-12.57" font-family="Times New Roman,serif" font-size="14.00">find_by</text>
</g>
<!-- toggle_color&#45;&gt;find_by -->
<g id="edge42" class="edge">
<title>toggle_color&#45;&gt;find_by</title>
<path fill="none" stroke="black" d="M2487.05,-71.7C2488.1,-64.32 2489.36,-55.52 2490.54,-47.25"/>
<polygon fill="black" stroke="black" points="2493.97,-48 2491.92,-37.6 2487.04,-47.01 2493.97,-48"/>
</g>
<!-- delete_color -->
<g id="node39" class="node">
<title>delete_color</title>
<ellipse fill="none" stroke="black" cx="2616.58" cy="-90" rx="56.55" ry="18"/>
<text text-anchor="middle" x="2616.58" y="-84.58" font-family="Times New Roman,serif" font-size="14.00">delete_color</text>
</g>
<!-- delete_color&#45;&gt;t -->
<g id="edge47" class="edge">
<title>delete_color&#45;&gt;t</title>
<path fill="none" stroke="black" d="M2575.52,-77.27C2567.62,-75.29 2559.38,-73.43 2551.58,-72 2380.96,-40.83 2173.99,-26.12 2089.88,-21.09"/>
<polygon fill="black" stroke="black" points="2090.31,-17.61 2080.12,-20.52 2089.9,-24.6 2090.31,-17.61"/>
</g>
<!-- delete_color&#45;&gt;find_by -->
<g id="edge45" class="edge">
<title>delete_color&#45;&gt;find_by</title>
<path fill="none" stroke="black" d="M2590.1,-73.81C2572.04,-63.45 2547.97,-49.63 2528.5,-38.47"/>
<polygon fill="black" stroke="black" points="2530.24,-35.43 2519.83,-33.49 2526.76,-41.5 2530.24,-35.43"/>
</g>
<!-- destroy -->
<g id="node40" class="node">
<title>destroy</title>
<ellipse fill="none" stroke="black" cx="2608.58" cy="-18" rx="38.59" ry="18"/>
<text text-anchor="middle" x="2608.58" y="-12.57" font-family="Times New Roman,serif" font-size="14.00">destroy</text>
</g>
<!-- delete_color&#45;&gt;destroy -->
<g id="edge46" class="edge">
<title>delete_color&#45;&gt;destroy</title>
<path fill="none" stroke="black" d="M2614.6,-71.7C2613.76,-64.41 2612.77,-55.73 2611.84,-47.54"/>
<polygon fill="black" stroke="black" points="2615.32,-47.15 2610.7,-37.61 2608.36,-47.94 2615.32,-47.15"/>
</g>
<!-- colors -->
<g id="node41" class="node">
<title>colors</title>
<ellipse fill="none" stroke="black" cx="3941.58" cy="-162" rx="34.1" ry="18"/>
<text text-anchor="middle" x="3941.58" y="-156.57" font-family="Times New Roman,serif" font-size="14.00">colors</text>
</g>
<!-- shades_palette -->
<g id="node42" class="node">
<title>shades_palette</title>
<ellipse fill="none" stroke="black" cx="3941.58" cy="-90" rx="65.04" ry="18"/>
<text text-anchor="middle" x="3941.58" y="-84.58" font-family="Times New Roman,serif" font-size="14.00">shades_palette</text>
</g>
<!-- colors&#45;&gt;shades_palette -->
<g id="edge48" class="edge">
<title>colors&#45;&gt;shades_palette</title>
<path fill="none" stroke="black" d="M3941.58,-143.7C3941.58,-136.41 3941.58,-127.73 3941.58,-119.54"/>
<polygon fill="black" stroke="black" points="3945.08,-119.62 3941.58,-109.62 3938.08,-119.62 3945.08,-119.62"/>
</g>
<!-- load_and_authorize_settings_update -->
<g id="node43" class="node">
<title>load_and_authorize_settings_update</title>
<ellipse fill="none" stroke="black" cx="4139.58" cy="-162" rx="146.37" ry="18"/>
<text text-anchor="middle" x="4139.58" y="-156.57" font-family="Times New Roman,serif" font-size="14.00">load_and_authorize_settings_update</text>
</g>
<!-- settings_params -->
<g id="node46" class="node">
<title>settings_params</title>
<ellipse fill="none" stroke="black" cx="5661.58" cy="-162" rx="70.52" ry="18"/>
<text text-anchor="middle" x="5661.58" y="-156.57" font-family="Times New Roman,serif" font-size="14.00">settings_params</text>
</g>
<!-- require -->
<g id="node47" class="node">
<title>require</title>
<ellipse fill="none" stroke="black" cx="5617.58" cy="-90" rx="36.09" ry="18"/>
<text text-anchor="middle" x="5617.58" y="-84.58" font-family="Times New Roman,serif" font-size="14.00">require</text>
</g>
<!-- settings_params&#45;&gt;require -->
<g id="edge52" class="edge">
<title>settings_params&#45;&gt;require</title>
<path fill="none" stroke="black" d="M5650.92,-144.05C5645.82,-135.94 5639.6,-126.04 5633.92,-117.01"/>
<polygon fill="black" stroke="black" points="5636.92,-115.19 5628.63,-108.59 5630.99,-118.92 5636.92,-115.19"/>
</g>
<!-- permit -->
<g id="node48" class="node">
<title>permit</title>
<ellipse fill="none" stroke="black" cx="5705.58" cy="-90" rx="34.1" ry="18"/>
<text text-anchor="middle" x="5705.58" y="-84.58" font-family="Times New Roman,serif" font-size="14.00">permit</text>
</g>
<!-- settings_params&#45;&gt;permit -->
<g id="edge53" class="edge">
<title>settings_params&#45;&gt;permit</title>
<path fill="none" stroke="black" d="M5672.23,-144.05C5677.33,-135.94 5683.55,-126.04 5689.23,-117.01"/>
<polygon fill="black" stroke="black" points="5692.16,-118.92 5694.52,-108.59 5686.23,-115.19 5692.16,-118.92"/>
</g>
<!-- authentication_strategy_params -->
<g id="node49" class="node">
<title>authentication_strategy_params</title>
<ellipse fill="none" stroke="black" cx="5877.58" cy="-162" rx="127.41" ry="18"/>
<text text-anchor="middle" x="5877.58" y="-156.57" font-family="Times New Roman,serif" font-size="14.00">authentication_strategy_params</text>
</g>
<!-- authentication_strategy_params&#45;&gt;require -->
<g id="edge54" class="edge">
<title>authentication_strategy_params&#45;&gt;require</title>
<path fill="none" stroke="black" d="M5809.7,-146.46C5767.1,-136.79 5711.22,-123.12 5662.58,-108 5660.33,-107.3 5658.04,-106.55 5655.73,-105.77"/>
<polygon fill="black" stroke="black" points="5657.02,-102.51 5646.43,-102.46 5654.68,-109.11 5657.02,-102.51"/>
</g>
<!-- authentication_strategy_params&#45;&gt;permit -->
<g id="edge55" class="edge">
<title>authentication_strategy_params&#45;&gt;permit</title>
<path fill="none" stroke="black" d="M5837.25,-144.59C5808.59,-132.92 5770.39,-117.38 5742.51,-106.03"/>
<polygon fill="black" stroke="black" points="5743.99,-102.86 5733.41,-102.33 5741.35,-109.34 5743.99,-102.86"/>
</g>
<!-- settings_time_zone_params -->
<g id="node50" class="node">
<title>settings_time_zone_params</title>
<ellipse fill="none" stroke="black" cx="6136.58" cy="-162" rx="113.44" ry="18"/>
<text text-anchor="middle" x="6136.58" y="-156.57" font-family="Times New Roman,serif" font-size="14.00">settings_time_zone_params</text>
</g>
<!-- settings_time_zone_params&#45;&gt;require -->
<g id="edge56" class="edge">
<title>settings_time_zone_params&#45;&gt;require</title>
<path fill="none" stroke="black" d="M6054.25,-149.22C6040.68,-147.39 6026.74,-145.58 6013.58,-144 5857.88,-125.26 5815.2,-144.01 5662.58,-108 5660.13,-107.42 5657.64,-106.75 5655.15,-106"/>
<polygon fill="black" stroke="black" points="5656.38,-102.72 5645.78,-102.89 5654.17,-109.37 5656.38,-102.72"/>
</g>
<!-- settings_time_zone_params&#45;&gt;permit -->
<g id="edge57" class="edge">
<title>settings_time_zone_params&#45;&gt;permit</title>
<path fill="none" stroke="black" d="M6059.52,-148.49C5968.97,-133.78 5821.85,-109.88 5749.12,-98.07"/>
<polygon fill="black" stroke="black" points="5750.03,-94.67 5739.6,-96.53 5748.91,-101.58 5750.03,-94.67"/>
</g>
<!-- settings_logo_usage_params -->
<g id="node51" class="node">
<title>settings_logo_usage_params</title>
<ellipse fill="none" stroke="black" cx="6385.58" cy="-162" rx="117.93" ry="18"/>
<text text-anchor="middle" x="6385.58" y="-156.57" font-family="Times New Roman,serif" font-size="14.00">settings_logo_usage_params</text>
</g>
<!-- settings_logo_usage_params&#45;&gt;require -->
<g id="edge58" class="edge">
<title>settings_logo_usage_params&#45;&gt;require</title>
<path fill="none" stroke="black" d="M6301.99,-148.93C6287.53,-147.1 6272.64,-145.36 6258.58,-144 5994.44,-118.38 5922.07,-163.52 5662.58,-108 5660.12,-107.47 5657.62,-106.84 5655.12,-106.12"/>
<polygon fill="black" stroke="black" points="5656.34,-102.84 5645.74,-103.07 5654.17,-109.49 5656.34,-102.84"/>
</g>
<!-- settings_logo_usage_params&#45;&gt;permit -->
<g id="edge59" class="edge">
<title>settings_logo_usage_params&#45;&gt;permit</title>
<path fill="none" stroke="black" d="M6300.58,-149.17C6286.56,-147.35 6272.17,-145.56 6258.58,-144 6070.21,-122.37 5845.03,-102.71 5750.66,-94.74"/>
<polygon fill="black" stroke="black" points="5751.05,-91.26 5740.79,-93.91 5750.47,-98.24 5751.05,-91.26"/>
</g>
<!-- settings_print_footer_params -->
<g id="node52" class="node">
<title>settings_print_footer_params</title>
<ellipse fill="none" stroke="black" cx="6641.58" cy="-162" rx="119.93" ry="18"/>
<text text-anchor="middle" x="6641.58" y="-156.57" font-family="Times New Roman,serif" font-size="14.00">settings_print_footer_params</text>
</g>
<!-- settings_print_footer_params&#45;&gt;require -->
<g id="edge60" class="edge">
<title>settings_print_footer_params&#45;&gt;require</title>
<path fill="none" stroke="black" d="M6557.38,-148.81C6542.48,-146.97 6527.09,-145.26 6512.58,-144 6324.23,-127.63 5847.8,-145.89 5662.58,-108 5659.95,-107.46 5657.28,-106.79 5654.61,-106.03"/>
<polygon fill="black" stroke="black" points="5655.84,-102.75 5645.25,-102.98 5653.67,-109.41 5655.84,-102.75"/>
</g>
<!-- settings_print_footer_params&#45;&gt;permit -->
<g id="edge61" class="edge">
<title>settings_print_footer_params&#45;&gt;permit</title>
<path fill="none" stroke="black" d="M6556.32,-148.96C6541.74,-147.14 6526.74,-145.4 6512.58,-144 6223.24,-115.47 5873.98,-98.42 5751.04,-92.94"/>
<polygon fill="black" stroke="black" points="5751.51,-89.46 5741.37,-92.51 5751.21,-96.45 5751.51,-89.46"/>
</g>
<!-- settings_general -->
<g id="node53" class="node">
<title>settings_general</title>
<ellipse fill="none" stroke="black" cx="6848.58" cy="-162" rx="69.53" ry="18"/>
<text text-anchor="middle" x="6848.58" y="-156.57" font-family="Times New Roman,serif" font-size="14.00">settings_general</text>
</g>
<!-- settings_general&#45;&gt;require -->
<g id="edge62" class="edge">
<title>settings_general&#45;&gt;require</title>
<path fill="none" stroke="black" d="M6799.71,-148.93C6790.11,-146.96 6780.07,-145.18 6770.58,-144 6526.1,-113.64 5904.17,-156.18 5662.58,-108 5659.95,-107.48 5657.28,-106.82 5654.61,-106.06"/>
<polygon fill="black" stroke="black" points="5655.83,-102.78 5645.24,-103.02 5653.67,-109.44 5655.83,-102.78"/>
</g>
<!-- settings_general&#45;&gt;permit -->
<g id="edge63" class="edge">
<title>settings_general&#45;&gt;permit</title>
<path fill="none" stroke="black" d="M6799.28,-148.97C6789.8,-147.02 6779.92,-145.24 6770.58,-144 6378.39,-91.87 5898.79,-89.84 5751.05,-90.59"/>
<polygon fill="black" stroke="black" points="5751.28,-87.09 5741.3,-90.65 5751.32,-94.09 5751.28,-87.09"/>
</g>
<!-- settings_approved_read_params -->
<g id="node54" class="node">
<title>settings_approved_read_params</title>
<ellipse fill="none" stroke="black" cx="4435.58" cy="-162" rx="131.9" ry="18"/>
<text text-anchor="middle" x="4435.58" y="-156.57" font-family="Times New Roman,serif" font-size="14.00">settings_approved_read_params</text>
</g>
<!-- settings_approved_read_params&#45;&gt;require -->
<g id="edge64" class="edge">
<title>settings_approved_read_params&#45;&gt;require</title>
<path fill="none" stroke="black" d="M4528.39,-148.89C4544.44,-147.06 4560.98,-145.34 4576.58,-144 4959.27,-111.23 5422.98,-96.37 5570.29,-92.24"/>
<polygon fill="black" stroke="black" points="5570.14,-95.75 5580.04,-91.97 5569.95,-88.75 5570.14,-95.75"/>
</g>
<!-- settings_approved_read_params&#45;&gt;permit -->
<g id="edge65" class="edge">
<title>settings_approved_read_params&#45;&gt;permit</title>
<path fill="none" stroke="black" d="M4527.61,-148.74C4543.9,-146.9 4560.72,-145.22 4576.58,-144 4817.33,-125.53 5426.16,-157.11 5662.58,-108 5664.91,-107.52 5667.28,-106.91 5669.65,-106.23"/>
<polygon fill="black" stroke="black" points="5670.76,-109.55 5679.12,-103.04 5668.53,-102.92 5670.76,-109.55"/>
</g>
<!-- settings_palette_color_params -->
<g id="node55" class="node">
<title>settings_palette_color_params</title>
<ellipse fill="none" stroke="black" cx="4709.58" cy="-162" rx="123.92" ry="18"/>
<text text-anchor="middle" x="4709.58" y="-156.57" font-family="Times New Roman,serif" font-size="14.00">settings_palette_color_params</text>
</g>
<!-- settings_palette_color_params&#45;&gt;require -->
<g id="edge66" class="edge">
<title>settings_palette_color_params&#45;&gt;require</title>
<path fill="none" stroke="black" d="M4797.85,-148.98C4812.76,-147.16 4828.1,-145.42 4842.58,-144 5117.63,-117.04 5448.94,-99.28 5570.19,-93.27"/>
<polygon fill="black" stroke="black" points="5570.26,-96.77 5580.08,-92.78 5569.92,-89.78 5570.26,-96.77"/>
</g>
<!-- settings_palette_color_params&#45;&gt;permit -->
<g id="edge67" class="edge">
<title>settings_palette_color_params&#45;&gt;permit</title>
<path fill="none" stroke="black" d="M4796.75,-148.8C4812,-146.97 4827.73,-145.27 4842.58,-144 5024.31,-128.42 5484.19,-146.06 5662.58,-108 5664.91,-107.5 5667.27,-106.89 5669.64,-106.2"/>
<polygon fill="black" stroke="black" points="5670.76,-109.52 5679.11,-102.99 5668.52,-102.89 5670.76,-109.52"/>
</g>
<!-- settings_pwd_policy_params -->
<g id="node56" class="node">
<title>settings_pwd_policy_params</title>
<ellipse fill="none" stroke="black" cx="4971.58" cy="-162" rx="119.93" ry="18"/>
<text text-anchor="middle" x="4971.58" y="-156.57" font-family="Times New Roman,serif" font-size="14.00">settings_pwd_policy_params</text>
</g>
<!-- settings_pwd_policy_params&#45;&gt;require -->
<g id="edge68" class="edge">
<title>settings_pwd_policy_params&#45;&gt;require</title>
<path fill="none" stroke="black" d="M5058.27,-149.23C5072.4,-147.41 5086.89,-145.6 5100.58,-144 5273.78,-123.71 5480.15,-103.85 5570.87,-95.33"/>
<polygon fill="black" stroke="black" points="5570.98,-98.84 5580.61,-94.42 5570.33,-91.87 5570.98,-98.84"/>
</g>
<!-- settings_pwd_policy_params&#45;&gt;permit -->
<g id="edge69" class="edge">
<title>settings_pwd_policy_params&#45;&gt;permit</title>
<path fill="none" stroke="black" d="M5056.83,-148.94C5071.41,-147.12 5086.41,-145.39 5100.58,-144 5349.68,-119.64 5418.33,-162.68 5662.58,-108 5664.99,-107.46 5667.45,-106.8 5669.91,-106.06"/>
<polygon fill="black" stroke="black" points="5670.77,-109.47 5679.09,-102.91 5668.5,-102.85 5670.77,-109.47"/>
</g>
<!-- user_deactivation_params -->
<g id="node57" class="node">
<title>user_deactivation_params</title>
<ellipse fill="none" stroke="black" cx="5216.58" cy="-162" rx="107.45" ry="18"/>
<text text-anchor="middle" x="5216.58" y="-156.57" font-family="Times New Roman,serif" font-size="14.00">user_deactivation_params</text>
</g>
<!-- user_deactivation_params&#45;&gt;require -->
<g id="edge70" class="edge">
<title>user_deactivation_params&#45;&gt;require</title>
<path fill="none" stroke="black" d="M5289.19,-148.32C5371.66,-133.93 5503.65,-110.89 5572.49,-98.87"/>
<polygon fill="black" stroke="black" points="5573.04,-102.33 5582.29,-97.16 5571.84,-95.43 5573.04,-102.33"/>
</g>
<!-- user_deactivation_params&#45;&gt;permit -->
<g id="edge71" class="edge">
<title>user_deactivation_params&#45;&gt;permit</title>
<path fill="none" stroke="black" d="M5294.21,-149.22C5307.01,-147.39 5320.16,-145.59 5332.58,-144 5478.92,-125.3 5519.36,-143.44 5662.58,-108 5664.83,-107.44 5667.12,-106.79 5669.41,-106.08"/>
<polygon fill="black" stroke="black" points="5670.29,-109.48 5678.59,-102.89 5668,-102.87 5670.29,-109.48"/>
</g>
<!-- deactivation_period_params -->
<g id="node58" class="node">
<title>deactivation_period_params</title>
<ellipse fill="none" stroke="black" cx="5457.58" cy="-162" rx="115.93" ry="18"/>
<text text-anchor="middle" x="5457.58" y="-156.57" font-family="Times New Roman,serif" font-size="14.00">deactivation_period_params</text>
</g>
<!-- deactivation_period_params&#45;&gt;require -->
<g id="edge72" class="edge">
<title>deactivation_period_params&#45;&gt;require</title>
<path fill="none" stroke="black" d="M5495.09,-144.59C5520.95,-133.27 5555.16,-118.31 5580.85,-107.07"/>
<polygon fill="black" stroke="black" points="5582.14,-110.32 5589.9,-103.11 5579.34,-103.91 5582.14,-110.32"/>
</g>
<!-- deactivation_period_params&#45;&gt;permit -->
<g id="edge73" class="edge">
<title>deactivation_period_params&#45;&gt;permit</title>
<path fill="none" stroke="black" d="M5521.42,-146.64C5562.17,-136.95 5615.91,-123.19 5662.58,-108 5664.55,-107.36 5666.57,-106.67 5668.59,-105.96"/>
<polygon fill="black" stroke="black" points="5669.81,-109.24 5677.96,-102.48 5667.37,-102.68 5669.81,-109.24"/>
</g>
</g>
</svg>
