<?xml version="1.0" encoding="UTF-8" standalone="no"?>
<!DOCTYPE svg PUBLIC "-//W3C//DTD SVG 1.1//EN"
 "http://www.w3.org/Graphics/SVG/1.1/DTD/svg11.dtd">
<!-- Generated by graphviz version 9.0.0 (20230911.1827)
 -->
<!-- Title: CallGraph Pages: 1 -->
<svg width="1372pt" height="188pt"
 viewBox="0.00 0.00 1371.60 188.00" xmlns="http://www.w3.org/2000/svg" xmlns:xlink="http://www.w3.org/1999/xlink">
<g id="graph0" class="graph" transform="scale(1 1) rotate(0) translate(4 184)">
<title>CallGraph</title>
<polygon fill="white" stroke="none" points="-4,4 -4,-184 1367.6,-184 1367.6,4 -4,4"/>
<!-- new -->
<g id="node1" class="node">
<title>new</title>
<ellipse fill="none" stroke="black" cx="50.56" cy="-90" rx="27" ry="18"/>
<text text-anchor="middle" x="50.56" y="-84.58" font-family="Times New Roman,serif" font-size="14.00">new</text>
</g>
<!-- create -->
<g id="node2" class="node">
<title>create</title>
<ellipse fill="none" stroke="black" cx="211.56" cy="-162" rx="32.6" ry="18"/>
<text text-anchor="middle" x="211.56" y="-156.57" font-family="Times New Roman,serif" font-size="14.00">create</text>
</g>
<!-- generate_url -->
<g id="node3" class="node">
<title>generate_url</title>
<ellipse fill="none" stroke="black" cx="271.56" cy="-90" rx="55.55" ry="18"/>
<text text-anchor="middle" x="271.56" y="-84.58" font-family="Times New Roman,serif" font-size="14.00">generate_url</text>
</g>
<!-- create&#45;&gt;generate_url -->
<g id="edge1" class="edge">
<title>create&#45;&gt;generate_url</title>
<path fill="none" stroke="black" d="M224.88,-145.46C232.28,-136.83 241.67,-125.88 250.08,-116.06"/>
<polygon fill="black" stroke="black" points="252.61,-118.49 256.47,-108.62 247.3,-113.93 252.61,-118.49"/>
</g>
<!-- redirect_to -->
<g id="node4" class="node">
<title>redirect_to</title>
<ellipse fill="none" stroke="black" cx="146.56" cy="-90" rx="51.06" ry="18"/>
<text text-anchor="middle" x="146.56" y="-84.58" font-family="Times New Roman,serif" font-size="14.00">redirect_to</text>
</g>
<!-- create&#45;&gt;redirect_to -->
<g id="edge2" class="edge">
<title>create&#45;&gt;redirect_to</title>
<path fill="none" stroke="black" d="M197.14,-145.46C189.04,-136.74 178.74,-125.65 169.56,-115.76"/>
<polygon fill="black" stroke="black" points="172.26,-113.52 162.89,-108.58 167.13,-118.29 172.26,-113.52"/>
</g>
<!-- uri -->
<g id="node5" class="node">
<title>uri</title>
<ellipse fill="none" stroke="black" cx="271.56" cy="-18" rx="27" ry="18"/>
<text text-anchor="middle" x="271.56" y="-12.57" font-family="Times New Roman,serif" font-size="14.00">uri</text>
</g>
<!-- generate_url&#45;&gt;uri -->
<g id="edge3" class="edge">
<title>generate_url&#45;&gt;uri</title>
<path fill="none" stroke="black" d="M271.56,-71.7C271.56,-64.41 271.56,-55.73 271.56,-47.54"/>
<polygon fill="black" stroke="black" points="275.06,-47.62 271.56,-37.62 268.06,-47.62 275.06,-47.62"/>
</g>
<!-- remote_host -->
<g id="node6" class="node">
<title>remote_host</title>
<ellipse fill="none" stroke="black" cx="852.56" cy="-162" rx="57.05" ry="18"/>
<text text-anchor="middle" x="852.56" y="-156.57" font-family="Times New Roman,serif" font-size="14.00">remote_host</text>
</g>
<!-- split -->
<g id="node7" class="node">
<title>split</title>
<ellipse fill="none" stroke="black" cx="852.56" cy="-90" rx="27" ry="18"/>
<text text-anchor="middle" x="852.56" y="-84.58" font-family="Times New Roman,serif" font-size="14.00">split</text>
</g>
<!-- remote_host&#45;&gt;split -->
<g id="edge4" class="edge">
<title>remote_host&#45;&gt;split</title>
<path fill="none" stroke="black" d="M852.56,-143.7C852.56,-136.41 852.56,-127.73 852.56,-119.54"/>
<polygon fill="black" stroke="black" points="856.06,-119.62 852.56,-109.62 849.06,-119.62 856.06,-119.62"/>
</g>
<!-- authorize_remote_host -->
<g id="node8" class="node">
<title>authorize_remote_host</title>
<ellipse fill="none" stroke="black" cx="456.56" cy="-162" rx="95.47" ry="18"/>
<text text-anchor="middle" x="456.56" y="-156.57" font-family="Times New Roman,serif" font-size="14.00">authorize_remote_host</text>
</g>
<!-- authorize_remote_host&#45;&gt;generate_url -->
<g id="edge8" class="edge">
<title>authorize_remote_host&#45;&gt;generate_url</title>
<path fill="none" stroke="black" d="M415.51,-145.46C386.4,-134.45 347.33,-119.67 317.24,-108.28"/>
<polygon fill="black" stroke="black" points="318.6,-105.06 308.01,-104.79 316.13,-111.6 318.6,-105.06"/>
</g>
<!-- authorize_remote_host&#45;&gt;redirect_to -->
<g id="edge7" class="edge">
<title>authorize_remote_host&#45;&gt;redirect_to</title>
<path fill="none" stroke="black" d="M391.54,-148.46C340.93,-138.4 269.02,-123.45 206.56,-108 203.04,-107.13 199.42,-106.19 195.77,-105.23"/>
<polygon fill="black" stroke="black" points="196.9,-101.91 186.33,-102.66 195.07,-108.66 196.9,-101.91"/>
</g>
<!-- authorized_remote_register -->
<g id="node9" class="node">
<title>authorized_remote_register</title>
<ellipse fill="none" stroke="black" cx="456.56" cy="-90" rx="111.44" ry="18"/>
<text text-anchor="middle" x="456.56" y="-84.58" font-family="Times New Roman,serif" font-size="14.00">authorized_remote_register</text>
</g>
<!-- authorize_remote_host&#45;&gt;authorized_remote_register -->
<g id="edge5" class="edge">
<title>authorize_remote_host&#45;&gt;authorized_remote_register</title>
<path fill="none" stroke="black" d="M456.56,-143.7C456.56,-136.41 456.56,-127.73 456.56,-119.54"/>
<polygon fill="black" stroke="black" points="460.06,-119.62 456.56,-109.62 453.06,-119.62 460.06,-119.62"/>
</g>
<!-- authorized_token -->
<g id="node10" class="node">
<title>authorized_token</title>
<ellipse fill="none" stroke="black" cx="660.56" cy="-90" rx="74.52" ry="18"/>
<text text-anchor="middle" x="660.56" y="-84.58" font-family="Times New Roman,serif" font-size="14.00">authorized_token</text>
</g>
<!-- authorize_remote_host&#45;&gt;authorized_token -->
<g id="edge6" class="edge">
<title>authorize_remote_host&#45;&gt;authorized_token</title>
<path fill="none" stroke="black" d="M501.33,-145.64C532.84,-134.83 575.12,-120.32 608.19,-108.97"/>
<polygon fill="black" stroke="black" points="609.27,-112.3 617.6,-105.74 607,-105.68 609.27,-112.3"/>
</g>
<!-- add -->
<g id="node11" class="node">
<title>add</title>
<ellipse fill="none" stroke="black" cx="780.56" cy="-90" rx="27" ry="18"/>
<text text-anchor="middle" x="780.56" y="-84.58" font-family="Times New Roman,serif" font-size="14.00">add</text>
</g>
<!-- authorize_remote_host&#45;&gt;add -->
<g id="edge9" class="edge">
<title>authorize_remote_host&#45;&gt;add</title>
<path fill="none" stroke="black" d="M536.77,-151.91C595.32,-143.92 676.09,-130.05 744.56,-108 746.17,-107.48 747.79,-106.91 749.42,-106.3"/>
<polygon fill="black" stroke="black" points="750.75,-109.53 758.6,-102.42 748.03,-103.09 750.75,-109.53"/>
</g>
<!-- set_signup -->
<g id="node12" class="node">
<title>set_signup</title>
<ellipse fill="none" stroke="black" cx="50.56" cy="-162" rx="50.56" ry="18"/>
<text text-anchor="middle" x="50.56" y="-156.57" font-family="Times New Roman,serif" font-size="14.00">set_signup</text>
</g>
<!-- set_signup&#45;&gt;new -->
<g id="edge10" class="edge">
<title>set_signup&#45;&gt;new</title>
<path fill="none" stroke="black" d="M50.56,-143.7C50.56,-136.41 50.56,-127.73 50.56,-119.54"/>
<polygon fill="black" stroke="black" points="54.06,-119.62 50.56,-109.62 47.06,-119.62 54.06,-119.62"/>
</g>
<!-- log_registration -->
<g id="node13" class="node">
<title>log_registration</title>
<ellipse fill="none" stroke="black" cx="995.56" cy="-162" rx="68.03" ry="18"/>
<text text-anchor="middle" x="995.56" y="-156.57" font-family="Times New Roman,serif" font-size="14.00">log_registration</text>
</g>
<!-- create_params -->
<g id="node14" class="node">
<title>create_params</title>
<ellipse fill="none" stroke="black" cx="1146.56" cy="-162" rx="64.54" ry="18"/>
<text text-anchor="middle" x="1146.56" y="-156.57" font-family="Times New Roman,serif" font-size="14.00">create_params</text>
</g>
<!-- permit -->
<g id="node15" class="node">
<title>permit</title>
<ellipse fill="none" stroke="black" cx="1177.56" cy="-90" rx="34.1" ry="18"/>
<text text-anchor="middle" x="1177.56" y="-84.58" font-family="Times New Roman,serif" font-size="14.00">permit</text>
</g>
<!-- create_params&#45;&gt;permit -->
<g id="edge11" class="edge">
<title>create_params&#45;&gt;permit</title>
<path fill="none" stroke="black" d="M1154.23,-143.7C1157.66,-135.95 1161.78,-126.64 1165.6,-118.02"/>
<polygon fill="black" stroke="black" points="1168.74,-119.57 1169.59,-109.01 1162.34,-116.73 1168.74,-119.57"/>
</g>
<!-- signup_params -->
<g id="node16" class="node">
<title>signup_params</title>
<ellipse fill="none" stroke="black" cx="1296.56" cy="-162" rx="67.03" ry="18"/>
<text text-anchor="middle" x="1296.56" y="-156.57" font-family="Times New Roman,serif" font-size="14.00">signup_params</text>
</g>
<!-- signup_params&#45;&gt;permit -->
<g id="edge13" class="edge">
<title>signup_params&#45;&gt;permit</title>
<path fill="none" stroke="black" d="M1269.56,-145.12C1251.74,-134.63 1228.31,-120.85 1209.56,-109.82"/>
<polygon fill="black" stroke="black" points="1211.38,-106.83 1200.99,-104.78 1207.83,-112.86 1211.38,-106.83"/>
</g>
<!-- require -->
<g id="node17" class="node">
<title>require</title>
<ellipse fill="none" stroke="black" cx="1296.56" cy="-90" rx="36.09" ry="18"/>
<text text-anchor="middle" x="1296.56" y="-84.58" font-family="Times New Roman,serif" font-size="14.00">require</text>
</g>
<!-- signup_params&#45;&gt;require -->
<g id="edge12" class="edge">
<title>signup_params&#45;&gt;require</title>
<path fill="none" stroke="black" d="M1296.56,-143.7C1296.56,-136.41 1296.56,-127.73 1296.56,-119.54"/>
<polygon fill="black" stroke="black" points="1300.06,-119.62 1296.56,-109.62 1293.06,-119.62 1300.06,-119.62"/>
</g>
</g>
</svg>
