<?xml version="1.0" encoding="UTF-8" standalone="no"?>
<!DOCTYPE svg PUBLIC "-//W3C//DTD SVG 1.1//EN"
 "http://www.w3.org/Graphics/SVG/1.1/DTD/svg11.dtd">
<!-- Generated by graphviz version 9.0.0 (20230911.1827)
 -->
<!-- Title: CallGraph Pages: 1 -->
<svg width="865pt" height="116pt"
 viewBox="0.00 0.00 864.97 116.00" xmlns="http://www.w3.org/2000/svg" xmlns:xlink="http://www.w3.org/1999/xlink">
<g id="graph0" class="graph" transform="scale(1 1) rotate(0) translate(4 112)">
<title>CallGraph</title>
<polygon fill="white" stroke="none" points="-4,4 -4,-112 860.97,-112 860.97,4 -4,4"/>
<!-- user_not_authorized -->
<g id="node1" class="node">
<title>user_not_authorized</title>
<ellipse fill="none" stroke="black" cx="86.49" cy="-90" rx="86.49" ry="18"/>
<text text-anchor="middle" x="86.49" y="-84.58" font-family="Times New Roman,serif" font-size="14.00">user_not_authorized</text>
</g>
<!-- index -->
<g id="node2" class="node">
<title>index</title>
<ellipse fill="none" stroke="black" cx="221.49" cy="-90" rx="30.61" ry="18"/>
<text text-anchor="middle" x="221.49" y="-84.58" font-family="Times New Roman,serif" font-size="14.00">index</text>
</g>
<!-- check_improver_access -->
<g id="node3" class="node">
<title>check_improver_access</title>
<ellipse fill="none" stroke="black" cx="371.49" cy="-90" rx="100.96" ry="18"/>
<text text-anchor="middle" x="371.49" y="-84.58" font-family="Times New Roman,serif" font-size="14.00">check_improver_access</text>
</g>
<!-- include -->
<g id="node4" class="node">
<title>include</title>
<ellipse fill="none" stroke="black" cx="471.49" cy="-18" rx="37.09" ry="18"/>
<text text-anchor="middle" x="471.49" y="-12.57" font-family="Times New Roman,serif" font-size="14.00">include</text>
</g>
<!-- check_improver_access&#45;&gt;include -->
<g id="edge1" class="edge">
<title>check_improver_access&#45;&gt;include</title>
<path fill="none" stroke="black" d="M395.7,-72.05C409.55,-62.36 427.02,-50.13 441.71,-39.85"/>
<polygon fill="black" stroke="black" points="443.46,-42.89 449.65,-34.29 439.45,-37.16 443.46,-42.89"/>
</g>
<!-- check_risk_access -->
<g id="node5" class="node">
<title>check_risk_access</title>
<ellipse fill="none" stroke="black" cx="571.49" cy="-90" rx="81" ry="18"/>
<text text-anchor="middle" x="571.49" y="-84.58" font-family="Times New Roman,serif" font-size="14.00">check_risk_access</text>
</g>
<!-- check_risk_access&#45;&gt;include -->
<g id="edge2" class="edge">
<title>check_risk_access&#45;&gt;include</title>
<path fill="none" stroke="black" d="M547.79,-72.41C533.86,-62.66 516.13,-50.25 501.26,-39.84"/>
<polygon fill="black" stroke="black" points="503.42,-37.07 493.22,-34.21 499.4,-42.81 503.42,-37.07"/>
</g>
<!-- respond_unauthorized -->
<g id="node6" class="node">
<title>respond_unauthorized</title>
<ellipse fill="none" stroke="black" cx="763.49" cy="-90" rx="93.48" ry="18"/>
<text text-anchor="middle" x="763.49" y="-84.58" font-family="Times New Roman,serif" font-size="14.00">respond_unauthorized</text>
</g>
<!-- t -->
<g id="node7" class="node">
<title>t</title>
<ellipse fill="none" stroke="black" cx="763.49" cy="-18" rx="27" ry="18"/>
<text text-anchor="middle" x="763.49" y="-12.57" font-family="Times New Roman,serif" font-size="14.00">t</text>
</g>
<!-- respond_unauthorized&#45;&gt;t -->
<g id="edge3" class="edge">
<title>respond_unauthorized&#45;&gt;t</title>
<path fill="none" stroke="black" d="M763.49,-71.7C763.49,-64.41 763.49,-55.73 763.49,-47.54"/>
<polygon fill="black" stroke="black" points="766.99,-47.62 763.49,-37.62 759.99,-47.62 766.99,-47.62"/>
</g>
</g>
</svg>
