<?xml version="1.0" encoding="UTF-8" standalone="no"?>
<!DOCTYPE svg PUBLIC "-//W3C//DTD SVG 1.1//EN"
 "http://www.w3.org/Graphics/SVG/1.1/DTD/svg11.dtd">
<!-- Generated by graphviz version 9.0.0 (20230911.1827)
 -->
<!-- Title: CallGraph Pages: 1 -->
<svg width="515pt" height="116pt"
 viewBox="0.00 0.00 515.03 116.00" xmlns="http://www.w3.org/2000/svg" xmlns:xlink="http://www.w3.org/1999/xlink">
<g id="graph0" class="graph" transform="scale(1 1) rotate(0) translate(4 112)">
<title>CallGraph</title>
<polygon fill="white" stroke="none" points="-4,4 -4,-112 511.03,-112 511.03,4 -4,4"/>
<!-- edit -->
<g id="node1" class="node">
<title>edit</title>
<ellipse fill="none" stroke="black" cx="27" cy="-90" rx="27" ry="18"/>
<text text-anchor="middle" x="27" y="-84.58" font-family="Times New Roman,serif" font-size="14.00">edit</text>
</g>
<!-- update -->
<g id="node2" class="node">
<title>update</title>
<ellipse fill="none" stroke="black" cx="108" cy="-90" rx="35.6" ry="18"/>
<text text-anchor="middle" x="108" y="-84.58" font-family="Times New Roman,serif" font-size="14.00">update</text>
</g>
<!-- update&#45;&gt;update -->
<g id="edge1" class="edge">
<title>update&#45;&gt;update</title>
<path fill="none" stroke="black" d="M133.92,-102.85C148.33,-105.25 161.6,-100.97 161.6,-90 161.6,-82.03 154.59,-77.59 145.23,-76.68"/>
<polygon fill="black" stroke="black" points="145.28,-73.17 135.43,-77.08 145.57,-80.17 145.28,-73.17"/>
</g>
<!-- sso_settings_params -->
<g id="node3" class="node">
<title>sso_settings_params</title>
<ellipse fill="none" stroke="black" cx="268" cy="-90" rx="88.49" ry="18"/>
<text text-anchor="middle" x="268" y="-84.58" font-family="Times New Roman,serif" font-size="14.00">sso_settings_params</text>
</g>
<!-- require -->
<g id="node4" class="node">
<title>require</title>
<ellipse fill="none" stroke="black" cx="224" cy="-18" rx="36.09" ry="18"/>
<text text-anchor="middle" x="224" y="-12.57" font-family="Times New Roman,serif" font-size="14.00">require</text>
</g>
<!-- sso_settings_params&#45;&gt;require -->
<g id="edge2" class="edge">
<title>sso_settings_params&#45;&gt;require</title>
<path fill="none" stroke="black" d="M257.12,-71.7C252.09,-63.7 246.01,-54.02 240.44,-45.15"/>
<polygon fill="black" stroke="black" points="243.54,-43.51 235.25,-36.9 237.61,-47.23 243.54,-43.51"/>
</g>
<!-- permit -->
<g id="node5" class="node">
<title>permit</title>
<ellipse fill="none" stroke="black" cx="312" cy="-18" rx="34.1" ry="18"/>
<text text-anchor="middle" x="312" y="-12.57" font-family="Times New Roman,serif" font-size="14.00">permit</text>
</g>
<!-- sso_settings_params&#45;&gt;permit -->
<g id="edge3" class="edge">
<title>sso_settings_params&#45;&gt;permit</title>
<path fill="none" stroke="black" d="M278.88,-71.7C283.91,-63.7 289.99,-54.02 295.56,-45.15"/>
<polygon fill="black" stroke="black" points="298.39,-47.23 300.75,-36.9 292.46,-43.51 298.39,-47.23"/>
</g>
<!-- check_policies -->
<g id="node6" class="node">
<title>check_policies</title>
<ellipse fill="none" stroke="black" cx="441" cy="-90" rx="66.03" ry="18"/>
<text text-anchor="middle" x="441" y="-84.58" font-family="Times New Roman,serif" font-size="14.00">check_policies</text>
</g>
</g>
</svg>
