<?xml version="1.0" encoding="UTF-8" standalone="no"?>
<!DOCTYPE svg PUBLIC "-//W3C//DTD SVG 1.1//EN"
 "http://www.w3.org/Graphics/SVG/1.1/DTD/svg11.dtd">
<!-- Generated by graphviz version 9.0.0 (20230911.1827)
 -->
<!-- Title: CallGraph Pages: 1 -->
<svg width="971pt" height="116pt"
 viewBox="0.00 0.00 970.57 116.00" xmlns="http://www.w3.org/2000/svg" xmlns:xlink="http://www.w3.org/1999/xlink">
<g id="graph0" class="graph" transform="scale(1 1) rotate(0) translate(4 112)">
<title>CallGraph</title>
<polygon fill="white" stroke="none" points="-4,4 -4,-112 966.57,-112 966.57,4 -4,4"/>
<!-- index -->
<g id="node1" class="node">
<title>index</title>
<ellipse fill="none" stroke="black" cx="175.54" cy="-90" rx="30.61" ry="18"/>
<text text-anchor="middle" x="175.54" y="-84.58" font-family="Times New Roman,serif" font-size="14.00">index</text>
</g>
<!-- autocompleter -->
<g id="node2" class="node">
<title>autocompleter</title>
<ellipse fill="none" stroke="black" cx="63.54" cy="-18" rx="63.54" ry="18"/>
<text text-anchor="middle" x="63.54" y="-12.57" font-family="Times New Roman,serif" font-size="14.00">autocompleter</text>
</g>
<!-- index&#45;&gt;autocompleter -->
<g id="edge1" class="edge">
<title>index&#45;&gt;autocompleter</title>
<path fill="none" stroke="black" d="M155,-76.16C139.26,-66.32 117.17,-52.52 98.65,-40.94"/>
<polygon fill="black" stroke="black" points="100.68,-38.09 90.35,-35.75 96.97,-44.02 100.68,-38.09"/>
</g>
<!-- order -->
<g id="node3" class="node">
<title>order</title>
<ellipse fill="none" stroke="black" cx="175.54" cy="-18" rx="30.61" ry="18"/>
<text text-anchor="middle" x="175.54" y="-12.57" font-family="Times New Roman,serif" font-size="14.00">order</text>
</g>
<!-- index&#45;&gt;order -->
<g id="edge2" class="edge">
<title>index&#45;&gt;order</title>
<path fill="none" stroke="black" d="M175.54,-71.7C175.54,-64.41 175.54,-55.73 175.54,-47.54"/>
<polygon fill="black" stroke="black" points="179.04,-47.62 175.54,-37.62 172.04,-47.62 179.04,-47.62"/>
</g>
<!-- tag_path -->
<g id="node4" class="node">
<title>tag_path</title>
<ellipse fill="none" stroke="black" cx="266.54" cy="-18" rx="42.58" ry="18"/>
<text text-anchor="middle" x="266.54" y="-12.57" font-family="Times New Roman,serif" font-size="14.00">tag_path</text>
</g>
<!-- index&#45;&gt;tag_path -->
<g id="edge3" class="edge">
<title>index&#45;&gt;tag_path</title>
<path fill="none" stroke="black" d="M193.52,-75.17C206.09,-65.5 223.17,-52.36 237.64,-41.23"/>
<polygon fill="black" stroke="black" points="239.71,-44.05 245.5,-35.18 235.44,-38.5 239.71,-44.05"/>
</g>
<!-- show -->
<g id="node5" class="node">
<title>show</title>
<ellipse fill="none" stroke="black" cx="709.54" cy="-90" rx="30.61" ry="18"/>
<text text-anchor="middle" x="709.54" y="-84.58" font-family="Times New Roman,serif" font-size="14.00">show</text>
</g>
<!-- find_by_id -->
<g id="node6" class="node">
<title>find_by_id</title>
<ellipse fill="none" stroke="black" cx="699.54" cy="-18" rx="51.56" ry="18"/>
<text text-anchor="middle" x="699.54" y="-12.57" font-family="Times New Roman,serif" font-size="14.00">find_by_id</text>
</g>
<!-- show&#45;&gt;find_by_id -->
<g id="edge4" class="edge">
<title>show&#45;&gt;find_by_id</title>
<path fill="none" stroke="black" d="M707.07,-71.7C706.01,-64.32 704.76,-55.52 703.57,-47.25"/>
<polygon fill="black" stroke="black" points="707.08,-47.01 702.2,-37.6 700.15,-48 707.08,-47.01"/>
</g>
<!-- viewable -->
<g id="node7" class="node">
<title>viewable</title>
<ellipse fill="none" stroke="black" cx="811.54" cy="-18" rx="42.58" ry="18"/>
<text text-anchor="middle" x="811.54" y="-12.57" font-family="Times New Roman,serif" font-size="14.00">viewable</text>
</g>
<!-- show&#45;&gt;viewable -->
<g id="edge5" class="edge">
<title>show&#45;&gt;viewable</title>
<path fill="none" stroke="black" d="M728.72,-75.83C743.29,-65.84 763.63,-51.88 780.5,-40.3"/>
<polygon fill="black" stroke="black" points="782.45,-43.2 788.72,-34.66 778.49,-37.43 782.45,-43.2"/>
</g>
<!-- new -->
<g id="node8" class="node">
<title>new</title>
<ellipse fill="none" stroke="black" cx="785.54" cy="-90" rx="27" ry="18"/>
<text text-anchor="middle" x="785.54" y="-84.58" font-family="Times New Roman,serif" font-size="14.00">new</text>
</g>
<!-- create -->
<g id="node9" class="node">
<title>create</title>
<ellipse fill="none" stroke="black" cx="349.54" cy="-90" rx="32.6" ry="18"/>
<text text-anchor="middle" x="349.54" y="-84.58" font-family="Times New Roman,serif" font-size="14.00">create</text>
</g>
<!-- create&#45;&gt;create -->
<g id="edge6" class="edge">
<title>create&#45;&gt;create</title>
<path fill="none" stroke="black" d="M373.49,-102.76C387.29,-105.36 400.14,-101.11 400.14,-90 400.14,-82.1 393.65,-77.67 384.93,-76.7"/>
<polygon fill="black" stroke="black" points="384.82,-73.2 375,-77.17 385.15,-80.2 384.82,-73.2"/>
</g>
<!-- t -->
<g id="node10" class="node">
<title>t</title>
<ellipse fill="none" stroke="black" cx="354.54" cy="-18" rx="27" ry="18"/>
<text text-anchor="middle" x="354.54" y="-12.57" font-family="Times New Roman,serif" font-size="14.00">t</text>
</g>
<!-- create&#45;&gt;t -->
<g id="edge7" class="edge">
<title>create&#45;&gt;t</title>
<path fill="none" stroke="black" d="M350.77,-71.7C351.3,-64.41 351.92,-55.73 352.5,-47.54"/>
<polygon fill="black" stroke="black" points="355.99,-47.84 353.21,-37.61 349.01,-47.34 355.99,-47.84"/>
</g>
<!-- confirm_rename -->
<g id="node11" class="node">
<title>confirm_rename</title>
<ellipse fill="none" stroke="black" cx="581.54" cy="-90" rx="71.02" ry="18"/>
<text text-anchor="middle" x="581.54" y="-84.58" font-family="Times New Roman,serif" font-size="14.00">confirm_rename</text>
</g>
<!-- find -->
<g id="node12" class="node">
<title>find</title>
<ellipse fill="none" stroke="black" cx="436.54" cy="-18" rx="27" ry="18"/>
<text text-anchor="middle" x="436.54" y="-12.57" font-family="Times New Roman,serif" font-size="14.00">find</text>
</g>
<!-- confirm_rename&#45;&gt;find -->
<g id="edge8" class="edge">
<title>confirm_rename&#45;&gt;find</title>
<path fill="none" stroke="black" d="M549.72,-73.64C525.46,-61.93 492.23,-45.88 468.05,-34.21"/>
<polygon fill="black" stroke="black" points="469.86,-31.2 459.33,-30 466.82,-37.5 469.86,-31.2"/>
</g>
<!-- rename -->
<g id="node13" class="node">
<title>rename</title>
<ellipse fill="none" stroke="black" cx="455.54" cy="-90" rx="37.09" ry="18"/>
<text text-anchor="middle" x="455.54" y="-84.58" font-family="Times New Roman,serif" font-size="14.00">rename</text>
</g>
<!-- rename&#45;&gt;t -->
<g id="edge10" class="edge">
<title>rename&#45;&gt;t</title>
<path fill="none" stroke="black" d="M435.1,-74.83C419.87,-64.28 398.91,-49.76 382.19,-38.17"/>
<polygon fill="black" stroke="black" points="384.37,-35.41 374.15,-32.59 380.38,-41.17 384.37,-35.41"/>
</g>
<!-- rename&#45;&gt;find -->
<g id="edge9" class="edge">
<title>rename&#45;&gt;find</title>
<path fill="none" stroke="black" d="M450.84,-71.7C448.82,-64.24 446.4,-55.32 444.13,-46.97"/>
<polygon fill="black" stroke="black" points="447.58,-46.3 441.58,-37.57 440.82,-48.13 447.58,-46.3"/>
</g>
<!-- fill_errors_hash -->
<g id="node14" class="node">
<title>fill_errors_hash</title>
<ellipse fill="none" stroke="black" cx="550.54" cy="-18" rx="68.53" ry="18"/>
<text text-anchor="middle" x="550.54" y="-12.57" font-family="Times New Roman,serif" font-size="14.00">fill_errors_hash</text>
</g>
<!-- rename&#45;&gt;fill_errors_hash -->
<g id="edge11" class="edge">
<title>rename&#45;&gt;fill_errors_hash</title>
<path fill="none" stroke="black" d="M475.22,-74.5C487.88,-65.17 504.62,-52.84 519.09,-42.17"/>
<polygon fill="black" stroke="black" points="521.02,-45.1 527,-36.35 516.87,-39.46 521.02,-45.1"/>
</g>
<!-- confirm_delete -->
<g id="node15" class="node">
<title>confirm_delete</title>
<ellipse fill="none" stroke="black" cx="896.54" cy="-90" rx="66.03" ry="18"/>
<text text-anchor="middle" x="896.54" y="-84.58" font-family="Times New Roman,serif" font-size="14.00">confirm_delete</text>
</g>
<!-- delete -->
<g id="node16" class="node">
<title>delete</title>
<ellipse fill="none" stroke="black" cx="266.54" cy="-90" rx="32.1" ry="18"/>
<text text-anchor="middle" x="266.54" y="-84.58" font-family="Times New Roman,serif" font-size="14.00">delete</text>
</g>
<!-- delete&#45;&gt;order -->
<g id="edge15" class="edge">
<title>delete&#45;&gt;order</title>
<path fill="none" stroke="black" d="M248.12,-74.83C235.09,-64.81 217.39,-51.19 202.73,-39.92"/>
<polygon fill="black" stroke="black" points="204.88,-37.15 194.82,-33.83 200.61,-42.7 204.88,-37.15"/>
</g>
<!-- delete&#45;&gt;tag_path -->
<g id="edge14" class="edge">
<title>delete&#45;&gt;tag_path</title>
<path fill="none" stroke="black" d="M266.54,-71.7C266.54,-64.41 266.54,-55.73 266.54,-47.54"/>
<polygon fill="black" stroke="black" points="270.04,-47.62 266.54,-37.62 263.04,-47.62 270.04,-47.62"/>
</g>
<!-- delete&#45;&gt;t -->
<g id="edge13" class="edge">
<title>delete&#45;&gt;t</title>
<path fill="none" stroke="black" d="M284.35,-74.83C297.12,-64.68 314.52,-50.83 328.8,-39.47"/>
<polygon fill="black" stroke="black" points="330.82,-42.34 336.47,-33.37 326.46,-36.86 330.82,-42.34"/>
</g>
<!-- delete&#45;&gt;find -->
<g id="edge12" class="edge">
<title>delete&#45;&gt;find</title>
<path fill="none" stroke="black" d="M291.69,-78.56C296.92,-76.39 302.41,-74.12 307.54,-72 340.24,-58.5 377.64,-43.14 403.72,-32.45"/>
<polygon fill="black" stroke="black" points="404.83,-35.78 412.76,-28.74 402.18,-29.3 404.83,-35.78"/>
</g>
</g>
</svg>
