<?xml version="1.0" encoding="UTF-8" standalone="no"?>
<!DOCTYPE svg PUBLIC "-//W3C//DTD SVG 1.1//EN"
 "http://www.w3.org/Graphics/SVG/1.1/DTD/svg11.dtd">
<!-- Generated by graphviz version 9.0.0 (20230911.1827)
 -->
<!-- Title: CallGraph Pages: 1 -->
<svg width="2002pt" height="116pt"
 viewBox="0.00 0.00 2002.05 116.00" xmlns="http://www.w3.org/2000/svg" xmlns:xlink="http://www.w3.org/1999/xlink">
<g id="graph0" class="graph" transform="scale(1 1) rotate(0) translate(4 112)">
<title>CallGraph</title>
<polygon fill="white" stroke="none" points="-4,4 -4,-112 1998.05,-112 1998.05,4 -4,4"/>
<!-- index -->
<g id="node1" class="node">
<title>index</title>
<ellipse fill="none" stroke="black" cx="62.04" cy="-90" rx="30.61" ry="18"/>
<text text-anchor="middle" x="62.04" y="-84.58" font-family="Times New Roman,serif" font-size="14.00">index</text>
</g>
<!-- task_date_for -->
<g id="node2" class="node">
<title>task_date_for</title>
<ellipse fill="none" stroke="black" cx="62.04" cy="-18" rx="62.04" ry="18"/>
<text text-anchor="middle" x="62.04" y="-12.57" font-family="Times New Roman,serif" font-size="14.00">task_date_for</text>
</g>
<!-- index&#45;&gt;task_date_for -->
<g id="edge1" class="edge">
<title>index&#45;&gt;task_date_for</title>
<path fill="none" stroke="black" d="M62.04,-71.7C62.04,-64.41 62.04,-55.73 62.04,-47.54"/>
<polygon fill="black" stroke="black" points="65.54,-47.62 62.04,-37.62 58.54,-47.62 65.54,-47.62"/>
</g>
<!-- set_important -->
<g id="node3" class="node">
<title>set_important</title>
<ellipse fill="none" stroke="black" cx="404.04" cy="-90" rx="61.54" ry="18"/>
<text text-anchor="middle" x="404.04" y="-84.58" font-family="Times New Roman,serif" font-size="14.00">set_important</text>
</g>
<!-- send -->
<g id="node4" class="node">
<title>send</title>
<ellipse fill="none" stroke="black" cx="429.04" cy="-18" rx="28.11" ry="18"/>
<text text-anchor="middle" x="429.04" y="-12.57" font-family="Times New Roman,serif" font-size="14.00">send</text>
</g>
<!-- set_important&#45;&gt;send -->
<g id="edge2" class="edge">
<title>set_important&#45;&gt;send</title>
<path fill="none" stroke="black" d="M410.22,-71.7C412.96,-64.04 416.24,-54.85 419.29,-46.3"/>
<polygon fill="black" stroke="black" points="422.53,-47.64 422.6,-37.05 415.94,-45.29 422.53,-47.64"/>
</g>
<!-- find -->
<g id="node5" class="node">
<title>find</title>
<ellipse fill="none" stroke="black" cx="169.04" cy="-18" rx="27" ry="18"/>
<text text-anchor="middle" x="169.04" y="-12.57" font-family="Times New Roman,serif" font-size="14.00">find</text>
</g>
<!-- set_important&#45;&gt;find -->
<g id="edge3" class="edge">
<title>set_important&#45;&gt;find</title>
<path fill="none" stroke="black" d="M357.88,-77.73C308.31,-65.45 232.91,-46.2 205.04,-36 203.5,-35.44 201.93,-34.83 200.36,-34.2"/>
<polygon fill="black" stroke="black" points="202.04,-31.11 191.48,-30.32 199.25,-37.53 202.04,-31.11"/>
</g>
<!-- find_by -->
<g id="node6" class="node">
<title>find_by</title>
<ellipse fill="none" stroke="black" cx="254.04" cy="-18" rx="39.59" ry="18"/>
<text text-anchor="middle" x="254.04" y="-12.57" font-family="Times New Roman,serif" font-size="14.00">find_by</text>
</g>
<!-- set_important&#45;&gt;find_by -->
<g id="edge4" class="edge">
<title>set_important&#45;&gt;find_by</title>
<path fill="none" stroke="black" d="M372.23,-74.15C348.45,-63.06 315.89,-47.86 290.96,-36.23"/>
<polygon fill="black" stroke="black" points="292.71,-33.18 282.17,-32.12 289.75,-39.52 292.71,-33.18"/>
</g>
<!-- create -->
<g id="node7" class="node">
<title>create</title>
<ellipse fill="none" stroke="black" cx="508.04" cy="-18" rx="32.6" ry="18"/>
<text text-anchor="middle" x="508.04" y="-12.57" font-family="Times New Roman,serif" font-size="14.00">create</text>
</g>
<!-- set_important&#45;&gt;create -->
<g id="edge5" class="edge">
<title>set_important&#45;&gt;create</title>
<path fill="none" stroke="black" d="M427.9,-72.94C442.9,-62.85 462.37,-49.74 478.36,-38.98"/>
<polygon fill="black" stroke="black" points="480.2,-41.96 486.54,-33.47 476.29,-36.15 480.2,-41.96"/>
</g>
<!-- update -->
<g id="node8" class="node">
<title>update</title>
<ellipse fill="none" stroke="black" cx="347.04" cy="-18" rx="35.6" ry="18"/>
<text text-anchor="middle" x="347.04" y="-12.57" font-family="Times New Roman,serif" font-size="14.00">update</text>
</g>
<!-- set_important&#45;&gt;update -->
<g id="edge6" class="edge">
<title>set_important&#45;&gt;update</title>
<path fill="none" stroke="black" d="M390.24,-72.05C383.32,-63.56 374.81,-53.11 367.18,-43.73"/>
<polygon fill="black" stroke="black" points="369.92,-41.55 360.89,-36 364.49,-45.97 369.92,-41.55"/>
</g>
<!-- unset_important -->
<g id="node9" class="node">
<title>unset_important</title>
<ellipse fill="none" stroke="black" cx="254.04" cy="-90" rx="70.52" ry="18"/>
<text text-anchor="middle" x="254.04" y="-84.58" font-family="Times New Roman,serif" font-size="14.00">unset_important</text>
</g>
<!-- unset_important&#45;&gt;send -->
<g id="edge7" class="edge">
<title>unset_important&#45;&gt;send</title>
<path fill="none" stroke="black" d="M293.27,-74.7C321.03,-64.39 359.05,-49.9 392.04,-36 393.55,-35.37 395.08,-34.71 396.63,-34.03"/>
<polygon fill="black" stroke="black" points="397.75,-37.37 405.46,-30.1 394.9,-30.97 397.75,-37.37"/>
</g>
<!-- unset_important&#45;&gt;find -->
<g id="edge8" class="edge">
<title>unset_important&#45;&gt;find</title>
<path fill="none" stroke="black" d="M233.9,-72.41C222.05,-62.65 206.95,-50.22 194.31,-39.81"/>
<polygon fill="black" stroke="black" points="196.73,-37.27 186.78,-33.61 192.28,-42.67 196.73,-37.27"/>
</g>
<!-- unset_important&#45;&gt;find_by -->
<g id="edge9" class="edge">
<title>unset_important&#45;&gt;find_by</title>
<path fill="none" stroke="black" d="M254.04,-71.7C254.04,-64.41 254.04,-55.73 254.04,-47.54"/>
<polygon fill="black" stroke="black" points="257.54,-47.62 254.04,-37.62 250.54,-47.62 257.54,-47.62"/>
</g>
<!-- unset_important&#45;&gt;update -->
<g id="edge10" class="edge">
<title>unset_important&#45;&gt;update</title>
<path fill="none" stroke="black" d="M275.61,-72.76C288.43,-63.12 304.84,-50.77 318.69,-40.34"/>
<polygon fill="black" stroke="black" points="320.71,-43.2 326.59,-34.39 316.5,-37.61 320.71,-43.2"/>
</g>
<!-- check_entity -->
<g id="node10" class="node">
<title>check_entity</title>
<ellipse fill="none" stroke="black" cx="628.04" cy="-90" rx="57.55" ry="18"/>
<text text-anchor="middle" x="628.04" y="-84.58" font-family="Times New Roman,serif" font-size="14.00">check_entity</text>
</g>
<!-- entity_markable -->
<g id="node11" class="node">
<title>entity_markable</title>
<ellipse fill="none" stroke="black" cx="628.04" cy="-18" rx="69.03" ry="18"/>
<text text-anchor="middle" x="628.04" y="-12.57" font-family="Times New Roman,serif" font-size="14.00">entity_markable</text>
</g>
<!-- check_entity&#45;&gt;entity_markable -->
<g id="edge11" class="edge">
<title>check_entity&#45;&gt;entity_markable</title>
<path fill="none" stroke="black" d="M628.04,-71.7C628.04,-64.41 628.04,-55.73 628.04,-47.54"/>
<polygon fill="black" stroke="black" points="631.54,-47.62 628.04,-37.62 624.54,-47.62 631.54,-47.62"/>
</g>
<!-- tasks_for_act -->
<g id="node12" class="node">
<title>tasks_for_act</title>
<ellipse fill="none" stroke="black" cx="1079.04" cy="-90" rx="61.54" ry="18"/>
<text text-anchor="middle" x="1079.04" y="-84.58" font-family="Times New Roman,serif" font-size="14.00">tasks_for_act</text>
</g>
<!-- where -->
<g id="node13" class="node">
<title>where</title>
<ellipse fill="none" stroke="black" cx="1026.04" cy="-18" rx="32.6" ry="18"/>
<text text-anchor="middle" x="1026.04" y="-12.57" font-family="Times New Roman,serif" font-size="14.00">where</text>
</g>
<!-- tasks_for_act&#45;&gt;where -->
<g id="edge12" class="edge">
<title>tasks_for_act&#45;&gt;where</title>
<path fill="none" stroke="black" d="M1066.21,-72.05C1059.78,-63.56 1051.86,-53.11 1044.77,-43.73"/>
<polygon fill="black" stroke="black" points="1047.77,-41.9 1038.94,-36.04 1042.19,-46.12 1047.77,-41.9"/>
</g>
<!-- includes -->
<g id="node14" class="node">
<title>includes</title>
<ellipse fill="none" stroke="black" cx="1118.04" cy="-18" rx="41.08" ry="18"/>
<text text-anchor="middle" x="1118.04" y="-12.57" font-family="Times New Roman,serif" font-size="14.00">includes</text>
</g>
<!-- tasks_for_act&#45;&gt;includes -->
<g id="edge13" class="edge">
<title>tasks_for_act&#45;&gt;includes</title>
<path fill="none" stroke="black" d="M1088.48,-72.05C1092.89,-64.14 1098.24,-54.54 1103.17,-45.69"/>
<polygon fill="black" stroke="black" points="1106.14,-47.55 1107.95,-37.11 1100.03,-44.14 1106.14,-47.55"/>
</g>
<!-- tasks_for_audit -->
<g id="node15" class="node">
<title>tasks_for_audit</title>
<ellipse fill="none" stroke="black" cx="772.04" cy="-90" rx="68.53" ry="18"/>
<text text-anchor="middle" x="772.04" y="-84.58" font-family="Times New Roman,serif" font-size="14.00">tasks_for_audit</text>
</g>
<!-- tasks_for_audit&#45;&gt;where -->
<g id="edge14" class="edge">
<title>tasks_for_audit&#45;&gt;where</title>
<path fill="none" stroke="black" d="M818.04,-76.32C866.14,-63.07 940.86,-42.48 986.43,-29.92"/>
<polygon fill="black" stroke="black" points="987.18,-33.34 995.89,-27.31 985.32,-26.59 987.18,-33.34"/>
</g>
<!-- tasks_for_audit&#45;&gt;includes -->
<g id="edge15" class="edge">
<title>tasks_for_audit&#45;&gt;includes</title>
<path fill="none" stroke="black" d="M822.73,-77.56C831.81,-75.62 841.19,-73.69 850.04,-72 946.49,-53.54 972.79,-59.89 1068.04,-36 1070.8,-35.31 1073.63,-34.53 1076.47,-33.71"/>
<polygon fill="black" stroke="black" points="1077.39,-37.09 1085.89,-30.77 1075.31,-30.4 1077.39,-37.09"/>
</g>
<!-- references -->
<g id="node16" class="node">
<title>references</title>
<ellipse fill="none" stroke="black" cx="772.04" cy="-18" rx="48.57" ry="18"/>
<text text-anchor="middle" x="772.04" y="-12.57" font-family="Times New Roman,serif" font-size="14.00">references</text>
</g>
<!-- tasks_for_audit&#45;&gt;references -->
<g id="edge16" class="edge">
<title>tasks_for_audit&#45;&gt;references</title>
<path fill="none" stroke="black" d="M772.04,-71.7C772.04,-64.41 772.04,-55.73 772.04,-47.54"/>
<polygon fill="black" stroke="black" points="775.54,-47.62 772.04,-37.62 768.54,-47.62 775.54,-47.62"/>
</g>
<!-- tasks_for_document -->
<g id="node17" class="node">
<title>tasks_for_document</title>
<ellipse fill="none" stroke="black" cx="1246.04" cy="-90" rx="87.49" ry="18"/>
<text text-anchor="middle" x="1246.04" y="-84.58" font-family="Times New Roman,serif" font-size="14.00">tasks_for_document</text>
</g>
<!-- tasks_for_document&#45;&gt;where -->
<g id="edge17" class="edge">
<title>tasks_for_document&#45;&gt;where</title>
<path fill="none" stroke="black" d="M1194.6,-75.09C1158.83,-65.07 1110.19,-50.77 1068.04,-36 1065.98,-35.28 1063.87,-34.51 1061.76,-33.72"/>
<polygon fill="black" stroke="black" points="1063.21,-30.53 1052.62,-30.19 1060.69,-37.06 1063.21,-30.53"/>
</g>
<!-- tasks_for_document&#45;&gt;includes -->
<g id="edge18" class="edge">
<title>tasks_for_document&#45;&gt;includes</title>
<path fill="none" stroke="black" d="M1216.35,-72.76C1197.36,-62.38 1172.64,-48.86 1152.75,-37.98"/>
<polygon fill="black" stroke="black" points="1154.62,-35.01 1144.16,-33.29 1151.26,-41.15 1154.62,-35.01"/>
</g>
<!-- pluck -->
<g id="node18" class="node">
<title>pluck</title>
<ellipse fill="none" stroke="black" cx="1246.04" cy="-18" rx="31.1" ry="18"/>
<text text-anchor="middle" x="1246.04" y="-12.57" font-family="Times New Roman,serif" font-size="14.00">pluck</text>
</g>
<!-- tasks_for_document&#45;&gt;pluck -->
<g id="edge19" class="edge">
<title>tasks_for_document&#45;&gt;pluck</title>
<path fill="none" stroke="black" d="M1246.04,-71.7C1246.04,-64.41 1246.04,-55.73 1246.04,-47.54"/>
<polygon fill="black" stroke="black" points="1249.54,-47.62 1246.04,-37.62 1242.54,-47.62 1249.54,-47.62"/>
</g>
<!-- include -->
<g id="node19" class="node">
<title>include</title>
<ellipse fill="none" stroke="black" cx="1332.04" cy="-18" rx="37.09" ry="18"/>
<text text-anchor="middle" x="1332.04" y="-12.57" font-family="Times New Roman,serif" font-size="14.00">include</text>
</g>
<!-- tasks_for_document&#45;&gt;include -->
<g id="edge20" class="edge">
<title>tasks_for_document&#45;&gt;include</title>
<path fill="none" stroke="black" d="M1266.86,-72.05C1278.27,-62.77 1292.55,-51.15 1304.83,-41.15"/>
<polygon fill="black" stroke="black" points="1307.03,-43.87 1312.58,-34.84 1302.61,-38.44 1307.03,-43.87"/>
</g>
<!-- tasks_for_event -->
<g id="node20" class="node">
<title>tasks_for_event</title>
<ellipse fill="none" stroke="black" cx="929.04" cy="-90" rx="70.03" ry="18"/>
<text text-anchor="middle" x="929.04" y="-84.58" font-family="Times New Roman,serif" font-size="14.00">tasks_for_event</text>
</g>
<!-- tasks_for_event&#45;&gt;where -->
<g id="edge21" class="edge">
<title>tasks_for_event&#45;&gt;where</title>
<path fill="none" stroke="black" d="M951.54,-72.76C965.31,-62.83 983.06,-50.02 997.77,-39.4"/>
<polygon fill="black" stroke="black" points="999.65,-42.36 1005.71,-33.67 995.55,-36.69 999.65,-42.36"/>
</g>
<!-- tasks_for_event&#45;&gt;includes -->
<g id="edge22" class="edge">
<title>tasks_for_event&#45;&gt;includes</title>
<path fill="none" stroke="black" d="M967.74,-74.67C999.57,-62.88 1044.55,-46.22 1077,-34.2"/>
<polygon fill="black" stroke="black" points="1077.9,-37.6 1086.07,-30.84 1075.47,-31.03 1077.9,-37.6"/>
</g>
<!-- tasks_for_graph -->
<g id="node21" class="node">
<title>tasks_for_graph</title>
<ellipse fill="none" stroke="black" cx="1423.04" cy="-90" rx="71.52" ry="18"/>
<text text-anchor="middle" x="1423.04" y="-84.58" font-family="Times New Roman,serif" font-size="14.00">tasks_for_graph</text>
</g>
<!-- tasks_for_graph&#45;&gt;where -->
<g id="edge23" class="edge">
<title>tasks_for_graph&#45;&gt;where</title>
<path fill="none" stroke="black" d="M1370.87,-77.44C1361.3,-75.49 1351.39,-73.59 1342.04,-72 1220.96,-51.37 1186.81,-67.29 1068.04,-36 1065.78,-35.41 1063.48,-34.72 1061.18,-33.97"/>
<polygon fill="black" stroke="black" points="1062.58,-30.75 1051.98,-30.65 1060.2,-37.34 1062.58,-30.75"/>
</g>
<!-- tasks_for_graph&#45;&gt;includes -->
<g id="edge24" class="edge">
<title>tasks_for_graph&#45;&gt;includes</title>
<path fill="none" stroke="black" d="M1371.65,-77.2C1313.83,-63.94 1220.74,-42.57 1164.87,-29.75"/>
<polygon fill="black" stroke="black" points="1165.88,-26.39 1155.35,-27.56 1164.31,-33.21 1165.88,-26.39"/>
</g>
<!-- tasks_for_graph&#45;&gt;pluck -->
<g id="edge25" class="edge">
<title>tasks_for_graph&#45;&gt;pluck</title>
<path fill="none" stroke="black" d="M1384.52,-74.49C1357,-64.02 1319.13,-49.43 1286.04,-36 1284.31,-35.3 1282.54,-34.57 1280.76,-33.83"/>
<polygon fill="black" stroke="black" points="1282.5,-30.77 1271.92,-30.14 1279.8,-37.23 1282.5,-30.77"/>
</g>
<!-- tasks_for_graph&#45;&gt;include -->
<g id="edge26" class="edge">
<title>tasks_for_graph&#45;&gt;include</title>
<path fill="none" stroke="black" d="M1401.48,-72.41C1389.09,-62.88 1373.4,-50.81 1360.07,-40.56"/>
<polygon fill="black" stroke="black" points="1362.55,-38.05 1352.49,-34.73 1358.28,-43.6 1362.55,-38.05"/>
</g>
<!-- viewer_of -->
<g id="node22" class="node">
<title>viewer_of</title>
<ellipse fill="none" stroke="black" cx="1435.04" cy="-18" rx="47.57" ry="18"/>
<text text-anchor="middle" x="1435.04" y="-12.57" font-family="Times New Roman,serif" font-size="14.00">viewer_of</text>
</g>
<!-- tasks_for_graph&#45;&gt;viewer_of -->
<g id="edge27" class="edge">
<title>tasks_for_graph&#45;&gt;viewer_of</title>
<path fill="none" stroke="black" d="M1426.01,-71.7C1427.27,-64.32 1428.78,-55.52 1430.2,-47.25"/>
<polygon fill="black" stroke="black" points="1433.61,-48.04 1431.85,-37.6 1426.71,-46.86 1433.61,-48.04"/>
</g>
<!-- tasks_for_all -->
<g id="node23" class="node">
<title>tasks_for_all</title>
<ellipse fill="none" stroke="black" cx="1571.04" cy="-90" rx="58.55" ry="18"/>
<text text-anchor="middle" x="1571.04" y="-84.58" font-family="Times New Roman,serif" font-size="14.00">tasks_for_all</text>
</g>
<!-- tasks_for_improver -->
<g id="node24" class="node">
<title>tasks_for_improver</title>
<ellipse fill="none" stroke="black" cx="1732.04" cy="-90" rx="84" ry="18"/>
<text text-anchor="middle" x="1732.04" y="-84.58" font-family="Times New Roman,serif" font-size="14.00">tasks_for_improver</text>
</g>
<!-- tasks_for_process -->
<g id="node25" class="node">
<title>tasks_for_process</title>
<ellipse fill="none" stroke="black" cx="1914.04" cy="-90" rx="80.01" ry="18"/>
<text text-anchor="middle" x="1914.04" y="-84.58" font-family="Times New Roman,serif" font-size="14.00">tasks_for_process</text>
</g>
</g>
</svg>
