<?xml version="1.0" encoding="UTF-8" standalone="no"?>
<!DOCTYPE svg PUBLIC "-//W3C//DTD SVG 1.1//EN"
 "http://www.w3.org/Graphics/SVG/1.1/DTD/svg11.dtd">
<!-- Generated by graphviz version 9.0.0 (20230911.1827)
 -->
<!-- Title: CallGraph Pages: 1 -->
<svg width="4066pt" height="188pt"
 viewBox="0.00 0.00 4066.49 188.00" xmlns="http://www.w3.org/2000/svg" xmlns:xlink="http://www.w3.org/1999/xlink">
<g id="graph0" class="graph" transform="scale(1 1) rotate(0) translate(4 184)">
<title>CallGraph</title>
<polygon fill="white" stroke="none" points="-4,4 -4,-184 4062.49,-184 4062.49,4 -4,4"/>
<!-- index -->
<g id="node1" class="node">
<title>index</title>
<ellipse fill="none" stroke="black" cx="157.5" cy="-162" rx="30.61" ry="18"/>
<text text-anchor="middle" x="157.5" y="-156.57" font-family="Times New Roman,serif" font-size="14.00">index</text>
</g>
<!-- export_csv -->
<g id="node2" class="node">
<title>export_csv</title>
<ellipse fill="none" stroke="black" cx="233.5" cy="-90" rx="52.56" ry="18"/>
<text text-anchor="middle" x="233.5" y="-84.58" font-family="Times New Roman,serif" font-size="14.00">export_csv</text>
</g>
<!-- index&#45;&gt;export_csv -->
<g id="edge1" class="edge">
<title>index&#45;&gt;export_csv</title>
<path fill="none" stroke="black" d="M173.25,-146.5C183.16,-137.37 196.18,-125.37 207.59,-114.87"/>
<polygon fill="black" stroke="black" points="209.82,-117.57 214.8,-108.22 205.08,-112.42 209.82,-117.57"/>
</g>
<!-- generate_file_name -->
<g id="node3" class="node">
<title>generate_file_name</title>
<ellipse fill="none" stroke="black" cx="81.5" cy="-90" rx="81.5" ry="18"/>
<text text-anchor="middle" x="81.5" y="-84.58" font-family="Times New Roman,serif" font-size="14.00">generate_file_name</text>
</g>
<!-- index&#45;&gt;generate_file_name -->
<g id="edge2" class="edge">
<title>index&#45;&gt;generate_file_name</title>
<path fill="none" stroke="black" d="M141.76,-146.5C132.05,-137.56 119.37,-125.87 108.14,-115.53"/>
<polygon fill="black" stroke="black" points="110.75,-113.18 101.02,-108.98 106,-118.33 110.75,-113.18"/>
</g>
<!-- t -->
<g id="node22" class="node">
<title>t</title>
<ellipse fill="none" stroke="black" cx="614.5" cy="-18" rx="27" ry="18"/>
<text text-anchor="middle" x="614.5" y="-12.57" font-family="Times New Roman,serif" font-size="14.00">t</text>
</g>
<!-- generate_file_name&#45;&gt;t -->
<g id="edge52" class="edge">
<title>generate_file_name&#45;&gt;t</title>
<path fill="none" stroke="black" d="M139.95,-77.14C150.43,-75.25 161.27,-73.44 171.5,-72 342.12,-47.98 388.35,-68.78 557.5,-36 564.91,-34.56 572.73,-32.56 580.12,-30.44"/>
<polygon fill="black" stroke="black" points="580.91,-33.86 589.46,-27.61 578.88,-27.16 580.91,-33.86"/>
</g>
<!-- l -->
<g id="node53" class="node">
<title>l</title>
<ellipse fill="none" stroke="black" cx="81.5" cy="-18" rx="27" ry="18"/>
<text text-anchor="middle" x="81.5" y="-12.57" font-family="Times New Roman,serif" font-size="14.00">l</text>
</g>
<!-- generate_file_name&#45;&gt;l -->
<g id="edge53" class="edge">
<title>generate_file_name&#45;&gt;l</title>
<path fill="none" stroke="black" d="M81.5,-71.7C81.5,-64.41 81.5,-55.73 81.5,-47.54"/>
<polygon fill="black" stroke="black" points="85,-47.62 81.5,-37.62 78,-47.62 85,-47.62"/>
</g>
<!-- create_random -->
<g id="node4" class="node">
<title>create_random</title>
<ellipse fill="none" stroke="black" cx="2434.5" cy="-162" rx="66.03" ry="18"/>
<text text-anchor="middle" x="2434.5" y="-156.57" font-family="Times New Roman,serif" font-size="14.00">create_random</text>
</g>
<!-- users_list -->
<g id="node5" class="node">
<title>users_list</title>
<ellipse fill="none" stroke="black" cx="2264.5" cy="-90" rx="45.57" ry="18"/>
<text text-anchor="middle" x="2264.5" y="-84.58" font-family="Times New Roman,serif" font-size="14.00">users_list</text>
</g>
<!-- create_random&#45;&gt;users_list -->
<g id="edge3" class="edge">
<title>create_random&#45;&gt;users_list</title>
<path fill="none" stroke="black" d="M2399.28,-146.5C2372.11,-135.31 2334.48,-119.81 2305.88,-108.04"/>
<polygon fill="black" stroke="black" points="2307.38,-104.87 2296.8,-104.3 2304.71,-111.34 2307.38,-104.87"/>
</g>
<!-- parse -->
<g id="node6" class="node">
<title>parse</title>
<ellipse fill="none" stroke="black" cx="2358.5" cy="-90" rx="30.61" ry="18"/>
<text text-anchor="middle" x="2358.5" y="-84.58" font-family="Times New Roman,serif" font-size="14.00">parse</text>
</g>
<!-- create_random&#45;&gt;parse -->
<g id="edge4" class="edge">
<title>create_random&#45;&gt;parse</title>
<path fill="none" stroke="black" d="M2416.49,-144.41C2406.45,-135.16 2393.8,-123.51 2382.88,-113.45"/>
<polygon fill="black" stroke="black" points="2385.42,-111.03 2375.69,-106.83 2380.67,-116.18 2385.42,-111.03"/>
</g>
<!-- new -->
<g id="node7" class="node">
<title>new</title>
<ellipse fill="none" stroke="black" cx="2434.5" cy="-90" rx="27" ry="18"/>
<text text-anchor="middle" x="2434.5" y="-84.58" font-family="Times New Roman,serif" font-size="14.00">new</text>
</g>
<!-- create_random&#45;&gt;new -->
<g id="edge5" class="edge">
<title>create_random&#45;&gt;new</title>
<path fill="none" stroke="black" d="M2434.5,-143.7C2434.5,-136.41 2434.5,-127.73 2434.5,-119.54"/>
<polygon fill="black" stroke="black" points="2438,-119.62 2434.5,-109.62 2431,-119.62 2438,-119.62"/>
</g>
<!-- start -->
<g id="node8" class="node">
<title>start</title>
<ellipse fill="none" stroke="black" cx="2506.5" cy="-90" rx="27" ry="18"/>
<text text-anchor="middle" x="2506.5" y="-84.58" font-family="Times New Roman,serif" font-size="14.00">start</text>
</g>
<!-- create_random&#45;&gt;start -->
<g id="edge6" class="edge">
<title>create_random&#45;&gt;start</title>
<path fill="none" stroke="black" d="M2451.57,-144.41C2461.18,-135.06 2473.32,-123.26 2483.74,-113.13"/>
<polygon fill="black" stroke="black" points="2486.18,-115.64 2490.91,-106.16 2481.3,-110.62 2486.18,-115.64"/>
</g>
<!-- request -->
<g id="node9" class="node">
<title>request</title>
<ellipse fill="none" stroke="black" cx="2589.5" cy="-90" rx="37.59" ry="18"/>
<text text-anchor="middle" x="2589.5" y="-84.58" font-family="Times New Roman,serif" font-size="14.00">request</text>
</g>
<!-- create_random&#45;&gt;request -->
<g id="edge7" class="edge">
<title>create_random&#45;&gt;request</title>
<path fill="none" stroke="black" d="M2467.75,-145.98C2492.66,-134.73 2526.74,-119.35 2552.51,-107.71"/>
<polygon fill="black" stroke="black" points="2553.94,-110.9 2561.61,-103.6 2551.06,-104.52 2553.94,-110.9"/>
</g>
<!-- search -->
<g id="node10" class="node">
<title>search</title>
<ellipse fill="none" stroke="black" cx="2770.5" cy="-162" rx="34.6" ry="18"/>
<text text-anchor="middle" x="2770.5" y="-156.57" font-family="Times New Roman,serif" font-size="14.00">search</text>
</g>
<!-- search&#45;&gt;search -->
<g id="edge10" class="edge">
<title>search&#45;&gt;search</title>
<path fill="none" stroke="black" d="M2795.67,-174.81C2809.91,-177.31 2823.1,-173.04 2823.1,-162 2823.1,-154.07 2816.29,-149.63 2807.17,-148.69"/>
<polygon fill="black" stroke="black" points="2807.02,-145.19 2797.18,-149.13 2807.32,-152.19 2807.02,-145.19"/>
</g>
<!-- split -->
<g id="node11" class="node">
<title>split</title>
<ellipse fill="none" stroke="black" cx="2764.5" cy="-90" rx="27" ry="18"/>
<text text-anchor="middle" x="2764.5" y="-84.58" font-family="Times New Roman,serif" font-size="14.00">split</text>
</g>
<!-- search&#45;&gt;split -->
<g id="edge8" class="edge">
<title>search&#45;&gt;split</title>
<path fill="none" stroke="black" d="M2769.02,-143.7C2768.39,-136.41 2767.65,-127.73 2766.95,-119.54"/>
<polygon fill="black" stroke="black" points="2770.44,-119.28 2766.1,-109.61 2763.46,-119.87 2770.44,-119.28"/>
</g>
<!-- include -->
<g id="node12" class="node">
<title>include</title>
<ellipse fill="none" stroke="black" cx="2682.5" cy="-90" rx="37.09" ry="18"/>
<text text-anchor="middle" x="2682.5" y="-84.58" font-family="Times New Roman,serif" font-size="14.00">include</text>
</g>
<!-- search&#45;&gt;include -->
<g id="edge9" class="edge">
<title>search&#45;&gt;include</title>
<path fill="none" stroke="black" d="M2752.27,-146.5C2740.04,-136.77 2723.72,-123.79 2709.94,-112.83"/>
<polygon fill="black" stroke="black" points="2712.51,-110.4 2702.5,-106.91 2708.15,-115.88 2712.51,-110.4"/>
</g>
<!-- order -->
<g id="node13" class="node">
<title>order</title>
<ellipse fill="none" stroke="black" cx="2923.5" cy="-90" rx="30.61" ry="18"/>
<text text-anchor="middle" x="2923.5" y="-84.58" font-family="Times New Roman,serif" font-size="14.00">order</text>
</g>
<!-- search&#45;&gt;order -->
<g id="edge11" class="edge">
<title>search&#45;&gt;order</title>
<path fill="none" stroke="black" d="M2795.77,-149.44C2821.36,-137.73 2861.1,-119.55 2889.45,-106.58"/>
<polygon fill="black" stroke="black" points="2890.7,-109.86 2898.34,-102.51 2887.79,-103.49 2890.7,-109.86"/>
</g>
<!-- where -->
<g id="node14" class="node">
<title>where</title>
<ellipse fill="none" stroke="black" cx="2842.5" cy="-90" rx="32.6" ry="18"/>
<text text-anchor="middle" x="2842.5" y="-84.58" font-family="Times New Roman,serif" font-size="14.00">where</text>
</g>
<!-- search&#45;&gt;where -->
<g id="edge12" class="edge">
<title>search&#45;&gt;where</title>
<path fill="none" stroke="black" d="M2786.13,-145.81C2795.65,-136.55 2808.02,-124.52 2818.75,-114.09"/>
<polygon fill="black" stroke="black" points="2821.09,-116.69 2825.82,-107.21 2816.22,-111.68 2821.09,-116.69"/>
</g>
<!-- update_groups -->
<g id="node15" class="node">
<title>update_groups</title>
<ellipse fill="none" stroke="black" cx="1136.5" cy="-90" rx="66.53" ry="18"/>
<text text-anchor="middle" x="1136.5" y="-84.58" font-family="Times New Roman,serif" font-size="14.00">update_groups</text>
</g>
<!-- find -->
<g id="node16" class="node">
<title>find</title>
<ellipse fill="none" stroke="black" cx="1392.5" cy="-18" rx="27" ry="18"/>
<text text-anchor="middle" x="1392.5" y="-12.57" font-family="Times New Roman,serif" font-size="14.00">find</text>
</g>
<!-- update_groups&#45;&gt;find -->
<g id="edge13" class="edge">
<title>update_groups&#45;&gt;find</title>
<path fill="none" stroke="black" d="M1182.27,-76.49C1232.25,-62.82 1311.25,-41.22 1356.84,-28.75"/>
<polygon fill="black" stroke="black" points="1357.49,-32.2 1366.21,-26.19 1355.64,-25.45 1357.49,-32.2"/>
</g>
<!-- find_by_title -->
<g id="node17" class="node">
<title>find_by_title</title>
<ellipse fill="none" stroke="black" cx="1169.5" cy="-18" rx="57.55" ry="18"/>
<text text-anchor="middle" x="1169.5" y="-12.57" font-family="Times New Roman,serif" font-size="14.00">find_by_title</text>
</g>
<!-- update_groups&#45;&gt;find_by_title -->
<g id="edge14" class="edge">
<title>update_groups&#45;&gt;find_by_title</title>
<path fill="none" stroke="black" d="M1144.66,-71.7C1148.26,-64.07 1152.57,-54.92 1156.59,-46.4"/>
<polygon fill="black" stroke="black" points="1159.7,-48.01 1160.79,-37.47 1153.36,-45.03 1159.7,-48.01"/>
</g>
<!-- update_attributes -->
<g id="node18" class="node">
<title>update_attributes</title>
<ellipse fill="none" stroke="black" cx="1019.5" cy="-18" rx="74.52" ry="18"/>
<text text-anchor="middle" x="1019.5" y="-12.57" font-family="Times New Roman,serif" font-size="14.00">update_attributes</text>
</g>
<!-- update_groups&#45;&gt;update_attributes -->
<g id="edge15" class="edge">
<title>update_groups&#45;&gt;update_attributes</title>
<path fill="none" stroke="black" d="M1109.95,-73.12C1094.06,-63.61 1073.63,-51.38 1056.2,-40.96"/>
<polygon fill="black" stroke="black" points="1058.03,-37.97 1047.65,-35.84 1054.43,-43.98 1058.03,-37.97"/>
</g>
<!-- confirm_link_roles -->
<g id="node19" class="node">
<title>confirm_link_roles</title>
<ellipse fill="none" stroke="black" cx="3385.5" cy="-162" rx="80.5" ry="18"/>
<text text-anchor="middle" x="3385.5" y="-156.57" font-family="Times New Roman,serif" font-size="14.00">confirm_link_roles</text>
</g>
<!-- link_roles -->
<g id="node20" class="node">
<title>link_roles</title>
<ellipse fill="none" stroke="black" cx="798.5" cy="-162" rx="46.57" ry="18"/>
<text text-anchor="middle" x="798.5" y="-156.57" font-family="Times New Roman,serif" font-size="14.00">link_roles</text>
</g>
<!-- list_selection -->
<g id="node21" class="node">
<title>list_selection</title>
<ellipse fill="none" stroke="black" cx="362.5" cy="-90" rx="58.55" ry="18"/>
<text text-anchor="middle" x="362.5" y="-84.58" font-family="Times New Roman,serif" font-size="14.00">list_selection</text>
</g>
<!-- link_roles&#45;&gt;list_selection -->
<g id="edge16" class="edge">
<title>link_roles&#45;&gt;list_selection</title>
<path fill="none" stroke="black" d="M753.94,-156.14C684.32,-148.21 545.68,-131.02 429.5,-108 425.19,-107.15 420.74,-106.19 416.28,-105.17"/>
<polygon fill="black" stroke="black" points="417.25,-101.81 406.71,-102.91 415.64,-108.62 417.25,-101.81"/>
</g>
<!-- link_roles&#45;&gt;t -->
<g id="edge17" class="edge">
<title>link_roles&#45;&gt;t</title>
<path fill="none" stroke="black" d="M752.63,-158.48C715.22,-153.92 663.77,-141.47 633.5,-108 618.83,-91.77 614.47,-67.06 613.56,-47.79"/>
<polygon fill="black" stroke="black" points="617.06,-47.8 613.41,-37.85 610.06,-47.91 617.06,-47.8"/>
</g>
<!-- edit_user_path -->
<g id="node23" class="node">
<title>edit_user_path</title>
<ellipse fill="none" stroke="black" cx="1286.5" cy="-90" rx="65.53" ry="18"/>
<text text-anchor="middle" x="1286.5" y="-84.58" font-family="Times New Roman,serif" font-size="14.00">edit_user_path</text>
</g>
<!-- link_roles&#45;&gt;edit_user_path -->
<g id="edge18" class="edge">
<title>link_roles&#45;&gt;edit_user_path</title>
<path fill="none" stroke="black" d="M843.44,-156.71C919.69,-149.11 1079.11,-131.8 1212.5,-108 1217.45,-107.12 1222.57,-106.12 1227.7,-105.06"/>
<polygon fill="black" stroke="black" points="1228.35,-108.5 1237.4,-102.98 1226.88,-101.66 1228.35,-108.5"/>
</g>
<!-- fill_errors_hash -->
<g id="node24" class="node">
<title>fill_errors_hash</title>
<ellipse fill="none" stroke="black" cx="983.5" cy="-90" rx="68.53" ry="18"/>
<text text-anchor="middle" x="983.5" y="-84.58" font-family="Times New Roman,serif" font-size="14.00">fill_errors_hash</text>
</g>
<!-- link_roles&#45;&gt;fill_errors_hash -->
<g id="edge19" class="edge">
<title>link_roles&#45;&gt;fill_errors_hash</title>
<path fill="none" stroke="black" d="M830.73,-148.81C859.47,-137.93 901.96,-121.86 934.84,-109.41"/>
<polygon fill="black" stroke="black" points="936.05,-112.7 944.17,-105.88 933.58,-106.15 936.05,-112.7"/>
</g>
<!-- unlink_roles -->
<g id="node25" class="node">
<title>unlink_roles</title>
<ellipse fill="none" stroke="black" cx="698.5" cy="-90" rx="55.55" ry="18"/>
<text text-anchor="middle" x="698.5" y="-84.58" font-family="Times New Roman,serif" font-size="14.00">unlink_roles</text>
</g>
<!-- unlink_roles&#45;&gt;find -->
<g id="edge20" class="edge">
<title>unlink_roles&#45;&gt;find</title>
<path fill="none" stroke="black" d="M738.54,-77.16C746.43,-75.17 754.68,-73.32 762.5,-72 970.81,-36.73 1026.13,-55.45 1236.5,-36 1276.79,-32.28 1322.84,-27.15 1354.41,-23.5"/>
<polygon fill="black" stroke="black" points="1354.72,-26.99 1364.25,-22.36 1353.91,-20.04 1354.72,-26.99"/>
</g>
<!-- unlink_roles&#45;&gt;t -->
<g id="edge22" class="edge">
<title>unlink_roles&#45;&gt;t</title>
<path fill="none" stroke="black" d="M679.02,-72.76C667.24,-62.95 652.11,-50.34 639.46,-39.8"/>
<polygon fill="black" stroke="black" points="641.86,-37.24 631.94,-33.53 637.38,-42.62 641.86,-37.24"/>
</g>
<!-- delete -->
<g id="node26" class="node">
<title>delete</title>
<ellipse fill="none" stroke="black" cx="691.5" cy="-18" rx="32.1" ry="18"/>
<text text-anchor="middle" x="691.5" y="-12.57" font-family="Times New Roman,serif" font-size="14.00">delete</text>
</g>
<!-- unlink_roles&#45;&gt;delete -->
<g id="edge21" class="edge">
<title>unlink_roles&#45;&gt;delete</title>
<path fill="none" stroke="black" d="M696.77,-71.7C696.04,-64.41 695.18,-55.73 694.36,-47.54"/>
<polygon fill="black" stroke="black" points="697.84,-47.21 693.36,-37.61 690.88,-47.91 697.84,-47.21"/>
</g>
<!-- list_linked_graphs -->
<g id="node27" class="node">
<title>list_linked_graphs</title>
<ellipse fill="none" stroke="black" cx="2122.5" cy="-90" rx="78.01" ry="18"/>
<text text-anchor="middle" x="2122.5" y="-84.58" font-family="Times New Roman,serif" font-size="14.00">list_linked_graphs</text>
</g>
<!-- related_role_graphs_to_admin_or_designer -->
<g id="node28" class="node">
<title>related_role_graphs_to_admin_or_designer</title>
<ellipse fill="none" stroke="black" cx="2122.5" cy="-18" rx="172.82" ry="18"/>
<text text-anchor="middle" x="2122.5" y="-12.57" font-family="Times New Roman,serif" font-size="14.00">related_role_graphs_to_admin_or_designer</text>
</g>
<!-- list_linked_graphs&#45;&gt;related_role_graphs_to_admin_or_designer -->
<g id="edge23" class="edge">
<title>list_linked_graphs&#45;&gt;related_role_graphs_to_admin_or_designer</title>
<path fill="none" stroke="black" d="M2122.5,-71.7C2122.5,-64.41 2122.5,-55.73 2122.5,-47.54"/>
<polygon fill="black" stroke="black" points="2126,-47.62 2122.5,-37.62 2119,-47.62 2126,-47.62"/>
</g>
<!-- related_role_graphs -->
<g id="node29" class="node">
<title>related_role_graphs</title>
<ellipse fill="none" stroke="black" cx="1847.5" cy="-18" rx="84" ry="18"/>
<text text-anchor="middle" x="1847.5" y="-12.57" font-family="Times New Roman,serif" font-size="14.00">related_role_graphs</text>
</g>
<!-- list_linked_graphs&#45;&gt;related_role_graphs -->
<g id="edge24" class="edge">
<title>list_linked_graphs&#45;&gt;related_role_graphs</title>
<path fill="none" stroke="black" d="M2071.42,-76C2026.17,-64.48 1959.93,-47.62 1911.23,-35.22"/>
<polygon fill="black" stroke="black" points="1912.2,-31.86 1901.65,-32.78 1910.48,-38.64 1912.2,-31.86"/>
</g>
<!-- to_json -->
<g id="node30" class="node">
<title>to_json</title>
<ellipse fill="none" stroke="black" cx="2351.5" cy="-18" rx="38.59" ry="18"/>
<text text-anchor="middle" x="2351.5" y="-12.57" font-family="Times New Roman,serif" font-size="14.00">to_json</text>
</g>
<!-- list_linked_graphs&#45;&gt;to_json -->
<g id="edge25" class="edge">
<title>list_linked_graphs&#45;&gt;to_json</title>
<path fill="none" stroke="black" d="M2171.43,-75.66C2208.21,-65.42 2259.76,-50.59 2304.5,-36 2306.73,-35.27 2309,-34.51 2311.3,-33.73"/>
<polygon fill="black" stroke="black" points="2312.3,-37.09 2320.59,-30.49 2309.99,-30.48 2312.3,-37.09"/>
</g>
<!-- edit_avatar -->
<g id="node31" class="node">
<title>edit_avatar</title>
<ellipse fill="none" stroke="black" cx="3535.5" cy="-162" rx="51.06" ry="18"/>
<text text-anchor="middle" x="3535.5" y="-156.57" font-family="Times New Roman,serif" font-size="14.00">edit_avatar</text>
</g>
<!-- update_avatar -->
<g id="node32" class="node">
<title>update_avatar</title>
<ellipse fill="none" stroke="black" cx="834.5" cy="-90" rx="62.54" ry="18"/>
<text text-anchor="middle" x="834.5" y="-84.58" font-family="Times New Roman,serif" font-size="14.00">update_avatar</text>
</g>
<!-- update_avatar&#45;&gt;find -->
<g id="edge26" class="edge">
<title>update_avatar&#45;&gt;find</title>
<path fill="none" stroke="black" d="M879.78,-77.26C888.28,-75.31 897.14,-73.45 905.5,-72 1051.31,-46.72 1089.39,-52.02 1236.5,-36 1276.73,-31.62 1322.79,-26.6 1354.37,-23.16"/>
<polygon fill="black" stroke="black" points="1354.66,-26.65 1364.22,-22.08 1353.9,-19.69 1354.66,-26.65"/>
</g>
<!-- update_avatar&#45;&gt;update_attributes -->
<g id="edge27" class="edge">
<title>update_avatar&#45;&gt;update_attributes</title>
<path fill="none" stroke="black" d="M871.05,-75.17C899.31,-64.48 938.73,-49.56 969.85,-37.79"/>
<polygon fill="black" stroke="black" points="970.94,-41.12 979.06,-34.3 968.47,-34.57 970.94,-41.12"/>
</g>
<!-- update_avatar&#45;&gt;t -->
<g id="edge28" class="edge">
<title>update_avatar&#45;&gt;t</title>
<path fill="none" stroke="black" d="M787.7,-77.74C750.11,-68.17 696.22,-53.25 650.5,-36 648.97,-35.42 647.41,-34.8 645.84,-34.16"/>
<polygon fill="black" stroke="black" points="647.53,-31.08 636.96,-30.25 644.71,-37.48 647.53,-31.08"/>
</g>
<!-- edit_avatar_user_path -->
<g id="node33" class="node">
<title>edit_avatar_user_path</title>
<ellipse fill="none" stroke="black" cx="834.5" cy="-18" rx="92.48" ry="18"/>
<text text-anchor="middle" x="834.5" y="-12.57" font-family="Times New Roman,serif" font-size="14.00">edit_avatar_user_path</text>
</g>
<!-- update_avatar&#45;&gt;edit_avatar_user_path -->
<g id="edge29" class="edge">
<title>update_avatar&#45;&gt;edit_avatar_user_path</title>
<path fill="none" stroke="black" d="M834.5,-71.7C834.5,-64.41 834.5,-55.73 834.5,-47.54"/>
<polygon fill="black" stroke="black" points="838,-47.62 834.5,-37.62 831,-47.62 838,-47.62"/>
</g>
<!-- serve_avatar -->
<g id="node34" class="node">
<title>serve_avatar</title>
<ellipse fill="none" stroke="black" cx="1593.5" cy="-90" rx="57.05" ry="18"/>
<text text-anchor="middle" x="1593.5" y="-84.58" font-family="Times New Roman,serif" font-size="14.00">serve_avatar</text>
</g>
<!-- serve_avatar&#45;&gt;find -->
<g id="edge30" class="edge">
<title>serve_avatar&#45;&gt;find</title>
<path fill="none" stroke="black" d="M1551.95,-77.29C1518.27,-67.41 1469.78,-52.3 1428.5,-36 1426.98,-35.4 1425.42,-34.76 1423.86,-34.1"/>
<polygon fill="black" stroke="black" points="1425.56,-31.03 1415,-30.15 1422.71,-37.42 1425.56,-31.03"/>
</g>
<!-- avatar_url -->
<g id="node35" class="node">
<title>avatar_url</title>
<ellipse fill="none" stroke="black" cx="1484.5" cy="-18" rx="47.07" ry="18"/>
<text text-anchor="middle" x="1484.5" y="-12.57" font-family="Times New Roman,serif" font-size="14.00">avatar_url</text>
</g>
<!-- serve_avatar&#45;&gt;avatar_url -->
<g id="edge31" class="edge">
<title>serve_avatar&#45;&gt;avatar_url</title>
<path fill="none" stroke="black" d="M1569.04,-73.29C1553.72,-63.45 1533.79,-50.65 1517.13,-39.96"/>
<polygon fill="black" stroke="black" points="1519.34,-37.21 1509.04,-34.76 1515.56,-43.1 1519.34,-37.21"/>
</g>
<!-- send_file -->
<g id="node36" class="node">
<title>send_file</title>
<ellipse fill="none" stroke="black" cx="1593.5" cy="-18" rx="44.08" ry="18"/>
<text text-anchor="middle" x="1593.5" y="-12.57" font-family="Times New Roman,serif" font-size="14.00">send_file</text>
</g>
<!-- serve_avatar&#45;&gt;send_file -->
<g id="edge32" class="edge">
<title>serve_avatar&#45;&gt;send_file</title>
<path fill="none" stroke="black" d="M1593.5,-71.7C1593.5,-64.41 1593.5,-55.73 1593.5,-47.54"/>
<polygon fill="black" stroke="black" points="1597,-47.62 1593.5,-37.62 1590,-47.62 1597,-47.62"/>
</g>
<!-- unescape -->
<g id="node37" class="node">
<title>unescape</title>
<ellipse fill="none" stroke="black" cx="1700.5" cy="-18" rx="45.08" ry="18"/>
<text text-anchor="middle" x="1700.5" y="-12.57" font-family="Times New Roman,serif" font-size="14.00">unescape</text>
</g>
<!-- serve_avatar&#45;&gt;unescape -->
<g id="edge33" class="edge">
<title>serve_avatar&#45;&gt;unescape</title>
<path fill="none" stroke="black" d="M1617.52,-73.29C1632.56,-63.45 1652.12,-50.65 1668.47,-39.96"/>
<polygon fill="black" stroke="black" points="1669.95,-43.17 1676.4,-34.77 1666.12,-37.31 1669.95,-43.17"/>
</g>
<!-- crop_avatar -->
<g id="node38" class="node">
<title>crop_avatar</title>
<ellipse fill="none" stroke="black" cx="1425.5" cy="-90" rx="55.06" ry="18"/>
<text text-anchor="middle" x="1425.5" y="-84.58" font-family="Times New Roman,serif" font-size="14.00">crop_avatar</text>
</g>
<!-- crop_avatar&#45;&gt;find -->
<g id="edge34" class="edge">
<title>crop_avatar&#45;&gt;find</title>
<path fill="none" stroke="black" d="M1417.51,-72.05C1413.77,-64.12 1409.22,-54.47 1405.04,-45.59"/>
<polygon fill="black" stroke="black" points="1408.27,-44.23 1400.84,-36.68 1401.93,-47.21 1408.27,-44.23"/>
</g>
<!-- update_crop_avatar -->
<g id="node39" class="node">
<title>update_crop_avatar</title>
<ellipse fill="none" stroke="black" cx="1425.5" cy="-162" rx="85" ry="18"/>
<text text-anchor="middle" x="1425.5" y="-156.57" font-family="Times New Roman,serif" font-size="14.00">update_crop_avatar</text>
</g>
<!-- update_crop_avatar&#45;&gt;find -->
<g id="edge35" class="edge">
<title>update_crop_avatar&#45;&gt;find</title>
<path fill="none" stroke="black" d="M1454.93,-144.83C1468.09,-135.87 1482.26,-123.4 1489.5,-108 1496.31,-93.52 1497.67,-85.76 1489.5,-72 1485.7,-65.59 1450.78,-47.44 1423.92,-34.16"/>
<polygon fill="black" stroke="black" points="1425.62,-31.09 1415.1,-29.83 1422.53,-37.38 1425.62,-31.09"/>
</g>
<!-- update_crop_avatar&#45;&gt;edit_user_path -->
<g id="edge37" class="edge">
<title>update_crop_avatar&#45;&gt;edit_user_path</title>
<path fill="none" stroke="black" d="M1393.61,-144.94C1373.78,-134.95 1348.09,-122.01 1326.84,-111.31"/>
<polygon fill="black" stroke="black" points="1328.67,-108.32 1318.17,-106.95 1325.52,-114.57 1328.67,-108.32"/>
</g>
<!-- update_crop_avatar&#45;&gt;crop_avatar -->
<g id="edge36" class="edge">
<title>update_crop_avatar&#45;&gt;crop_avatar</title>
<path fill="none" stroke="black" d="M1425.5,-143.7C1425.5,-136.41 1425.5,-127.73 1425.5,-119.54"/>
<polygon fill="black" stroke="black" points="1429,-119.62 1425.5,-109.62 1422,-119.62 1429,-119.62"/>
</g>
<!-- interactions -->
<g id="node40" class="node">
<title>interactions</title>
<ellipse fill="none" stroke="black" cx="1784.5" cy="-90" rx="53.06" ry="18"/>
<text text-anchor="middle" x="1784.5" y="-84.58" font-family="Times New Roman,serif" font-size="14.00">interactions</text>
</g>
<!-- interactions&#45;&gt;find -->
<g id="edge38" class="edge">
<title>interactions&#45;&gt;find</title>
<path fill="none" stroke="black" d="M1736.34,-82.21C1642.52,-68.93 1443.1,-40.43 1428.5,-36 1426.89,-35.51 1425.26,-34.96 1423.63,-34.37"/>
<polygon fill="black" stroke="black" points="1425.01,-31.15 1414.43,-30.54 1422.32,-37.61 1425.01,-31.15"/>
</g>
<!-- interactions&#45;&gt;related_role_graphs -->
<g id="edge39" class="edge">
<title>interactions&#45;&gt;related_role_graphs</title>
<path fill="none" stroke="black" d="M1799.43,-72.41C1806.93,-64.08 1816.19,-53.8 1824.56,-44.49"/>
<polygon fill="black" stroke="black" points="1827.14,-46.86 1831.23,-37.08 1821.94,-42.17 1827.14,-46.86"/>
</g>
<!-- edit_metadata -->
<g id="node41" class="node">
<title>edit_metadata</title>
<ellipse fill="none" stroke="black" cx="3666.5" cy="-162" rx="62.04" ry="18"/>
<text text-anchor="middle" x="3666.5" y="-156.57" font-family="Times New Roman,serif" font-size="14.00">edit_metadata</text>
</g>
<!-- update_metadata -->
<g id="node42" class="node">
<title>update_metadata</title>
<ellipse fill="none" stroke="black" cx="512.5" cy="-90" rx="73.52" ry="18"/>
<text text-anchor="middle" x="512.5" y="-84.58" font-family="Times New Roman,serif" font-size="14.00">update_metadata</text>
</g>
<!-- update_metadata&#45;&gt;t -->
<g id="edge41" class="edge">
<title>update_metadata&#45;&gt;t</title>
<path fill="none" stroke="black" d="M536.42,-72.59C551.53,-62.21 571.12,-48.77 586.9,-37.94"/>
<polygon fill="black" stroke="black" points="588.64,-40.99 594.91,-32.45 584.68,-35.22 588.64,-40.99"/>
</g>
<!-- update -->
<g id="node43" class="node">
<title>update</title>
<ellipse fill="none" stroke="black" cx="512.5" cy="-18" rx="35.6" ry="18"/>
<text text-anchor="middle" x="512.5" y="-12.57" font-family="Times New Roman,serif" font-size="14.00">update</text>
</g>
<!-- update_metadata&#45;&gt;update -->
<g id="edge40" class="edge">
<title>update_metadata&#45;&gt;update</title>
<path fill="none" stroke="black" d="M512.5,-71.7C512.5,-64.41 512.5,-55.73 512.5,-47.54"/>
<polygon fill="black" stroke="black" points="516,-47.62 512.5,-37.62 509,-47.62 516,-47.62"/>
</g>
<!-- user_params -->
<g id="node44" class="node">
<title>user_params</title>
<ellipse fill="none" stroke="black" cx="3804.5" cy="-162" rx="58.05" ry="18"/>
<text text-anchor="middle" x="3804.5" y="-156.57" font-family="Times New Roman,serif" font-size="14.00">user_params</text>
</g>
<!-- require -->
<g id="node45" class="node">
<title>require</title>
<ellipse fill="none" stroke="black" cx="3824.5" cy="-90" rx="36.09" ry="18"/>
<text text-anchor="middle" x="3824.5" y="-84.58" font-family="Times New Roman,serif" font-size="14.00">require</text>
</g>
<!-- user_params&#45;&gt;require -->
<g id="edge42" class="edge">
<title>user_params&#45;&gt;require</title>
<path fill="none" stroke="black" d="M3809.45,-143.7C3811.58,-136.24 3814.12,-127.32 3816.51,-118.97"/>
<polygon fill="black" stroke="black" points="3819.82,-120.14 3819.2,-109.56 3813.09,-118.21 3819.82,-120.14"/>
</g>
<!-- permit -->
<g id="node46" class="node">
<title>permit</title>
<ellipse fill="none" stroke="black" cx="3950.5" cy="-90" rx="34.1" ry="18"/>
<text text-anchor="middle" x="3950.5" y="-84.58" font-family="Times New Roman,serif" font-size="14.00">permit</text>
</g>
<!-- user_params&#45;&gt;permit -->
<g id="edge43" class="edge">
<title>user_params&#45;&gt;permit</title>
<path fill="none" stroke="black" d="M3835.11,-146.33C3858.56,-135.08 3890.95,-119.55 3915.45,-107.81"/>
<polygon fill="black" stroke="black" points="3916.88,-111 3924.38,-103.52 3913.85,-104.69 3916.88,-111"/>
</g>
<!-- general_user_params -->
<g id="node47" class="node">
<title>general_user_params</title>
<ellipse fill="none" stroke="black" cx="3969.5" cy="-162" rx="88.99" ry="18"/>
<text text-anchor="middle" x="3969.5" y="-156.57" font-family="Times New Roman,serif" font-size="14.00">general_user_params</text>
</g>
<!-- general_user_params&#45;&gt;require -->
<g id="edge44" class="edge">
<title>general_user_params&#45;&gt;require</title>
<path fill="none" stroke="black" d="M3936.24,-144.94C3913.47,-133.95 3883.32,-119.39 3860.07,-108.17"/>
<polygon fill="black" stroke="black" points="3861.82,-105.13 3851.29,-103.93 3858.78,-111.43 3861.82,-105.13"/>
</g>
<!-- general_user_params&#45;&gt;permit -->
<g id="edge45" class="edge">
<title>general_user_params&#45;&gt;permit</title>
<path fill="none" stroke="black" d="M3964.81,-143.7C3962.78,-136.24 3960.36,-127.32 3958.09,-118.97"/>
<polygon fill="black" stroke="black" points="3961.54,-118.3 3955.54,-109.57 3954.78,-120.13 3961.54,-118.3"/>
</g>
<!-- list_link_role_definition -->
<g id="node48" class="node">
<title>list_link_role_definition</title>
<ellipse fill="none" stroke="black" cx="2962.5" cy="-162" rx="97.47" ry="18"/>
<text text-anchor="middle" x="2962.5" y="-156.57" font-family="Times New Roman,serif" font-size="14.00">list_link_role_definition</text>
</g>
<!-- list_link_role_definition&#45;&gt;order -->
<g id="edge49" class="edge">
<title>list_link_role_definition&#45;&gt;order</title>
<path fill="none" stroke="black" d="M2952.86,-143.7C2948.45,-135.78 2943.13,-126.23 2938.23,-117.44"/>
<polygon fill="black" stroke="black" points="2941.42,-115.98 2933.5,-108.94 2935.31,-119.38 2941.42,-115.98"/>
</g>
<!-- list_link_role_definition&#45;&gt;where -->
<g id="edge47" class="edge">
<title>list_link_role_definition&#45;&gt;where</title>
<path fill="none" stroke="black" d="M2934.06,-144.41C2916.05,-133.9 2892.74,-120.3 2874.14,-109.46"/>
<polygon fill="black" stroke="black" points="2876.07,-106.53 2865.67,-104.51 2872.54,-112.57 2876.07,-106.53"/>
</g>
<!-- not -->
<g id="node49" class="node">
<title>not</title>
<ellipse fill="none" stroke="black" cx="3117.5" cy="-90" rx="27" ry="18"/>
<text text-anchor="middle" x="3117.5" y="-84.58" font-family="Times New Roman,serif" font-size="14.00">not</text>
</g>
<!-- list_link_role_definition&#45;&gt;not -->
<g id="edge46" class="edge">
<title>list_link_role_definition&#45;&gt;not</title>
<path fill="none" stroke="black" d="M2999.05,-144.97C3022.64,-134.57 3053.96,-120.64 3081.5,-108 3082.81,-107.4 3084.14,-106.79 3085.49,-106.16"/>
<polygon fill="black" stroke="black" points="3086.89,-109.37 3094.47,-101.97 3083.92,-103.03 3086.89,-109.37"/>
</g>
<!-- search_list -->
<g id="node50" class="node">
<title>search_list</title>
<ellipse fill="none" stroke="black" cx="3022.5" cy="-90" rx="50.07" ry="18"/>
<text text-anchor="middle" x="3022.5" y="-84.58" font-family="Times New Roman,serif" font-size="14.00">search_list</text>
</g>
<!-- list_link_role_definition&#45;&gt;search_list -->
<g id="edge48" class="edge">
<title>list_link_role_definition&#45;&gt;search_list</title>
<path fill="none" stroke="black" d="M2977.03,-144.05C2984.28,-135.59 2993.2,-125.19 3001.21,-115.84"/>
<polygon fill="black" stroke="black" points="3003.69,-118.33 3007.54,-108.46 2998.37,-113.77 3003.69,-118.33"/>
</g>
<!-- list_role_add_definition -->
<g id="node51" class="node">
<title>list_role_add_definition</title>
<ellipse fill="none" stroke="black" cx="3188.5" cy="-162" rx="98.47" ry="18"/>
<text text-anchor="middle" x="3188.5" y="-156.57" font-family="Times New Roman,serif" font-size="14.00">list_role_add_definition</text>
</g>
<!-- list_role_add_definition&#45;&gt;not -->
<g id="edge51" class="edge">
<title>list_role_add_definition&#45;&gt;not</title>
<path fill="none" stroke="black" d="M3171.32,-144.05C3161.95,-134.82 3150.25,-123.29 3140.15,-113.33"/>
<polygon fill="black" stroke="black" points="3142.79,-111.02 3133.21,-106.49 3137.87,-116 3142.79,-111.02"/>
</g>
<!-- merge -->
<g id="node52" class="node">
<title>merge</title>
<ellipse fill="none" stroke="black" cx="3195.5" cy="-90" rx="33.1" ry="18"/>
<text text-anchor="middle" x="3195.5" y="-84.58" font-family="Times New Roman,serif" font-size="14.00">merge</text>
</g>
<!-- list_role_add_definition&#45;&gt;merge -->
<g id="edge50" class="edge">
<title>list_role_add_definition&#45;&gt;merge</title>
<path fill="none" stroke="black" d="M3190.23,-143.7C3190.96,-136.41 3191.83,-127.73 3192.65,-119.54"/>
<polygon fill="black" stroke="black" points="3196.13,-119.91 3193.64,-109.61 3189.16,-119.21 3196.13,-119.91"/>
</g>
</g>
</svg>
