<?xml version="1.0" encoding="UTF-8" standalone="no"?>
<!DOCTYPE svg PUBLIC "-//W3C//DTD SVG 1.1//EN"
 "http://www.w3.org/Graphics/SVG/1.1/DTD/svg11.dtd">
<!-- Generated by graphviz version 9.0.0 (20230911.1827)
 -->
<!-- Title: CallGraph Pages: 1 -->
<svg width="2002pt" height="188pt"
 viewBox="0.00 0.00 2002.09 188.00" xmlns="http://www.w3.org/2000/svg" xmlns:xlink="http://www.w3.org/1999/xlink">
<g id="graph0" class="graph" transform="scale(1 1) rotate(0) translate(4 184)">
<title>CallGraph</title>
<polygon fill="white" stroke="none" points="-4,4 -4,-184 1998.09,-184 1998.09,4 -4,4"/>
<!-- authorize_multiple -->
<g id="node1" class="node">
<title>authorize_multiple</title>
<ellipse fill="none" stroke="black" cx="78.01" cy="-162" rx="78.01" ry="18"/>
<text text-anchor="middle" x="78.01" y="-156.57" font-family="Times New Roman,serif" font-size="14.00">authorize_multiple</text>
</g>
<!-- authorize_group -->
<g id="node2" class="node">
<title>authorize_group</title>
<ellipse fill="none" stroke="black" cx="245.01" cy="-162" rx="71.02" ry="18"/>
<text text-anchor="middle" x="245.01" y="-156.57" font-family="Times New Roman,serif" font-size="14.00">authorize_group</text>
</g>
<!-- authorize_role -->
<g id="node3" class="node">
<title>authorize_role</title>
<ellipse fill="none" stroke="black" cx="397.01" cy="-162" rx="63.04" ry="18"/>
<text text-anchor="middle" x="397.01" y="-156.57" font-family="Times New Roman,serif" font-size="14.00">authorize_role</text>
</g>
<!-- user_is_actor_of -->
<g id="node4" class="node">
<title>user_is_actor_of</title>
<ellipse fill="none" stroke="black" cx="552.01" cy="-162" rx="74.02" ry="18"/>
<text text-anchor="middle" x="552.01" y="-156.57" font-family="Times New Roman,serif" font-size="14.00">user_is_actor_of</text>
</g>
<!-- viewer_of -->
<g id="node5" class="node">
<title>viewer_of</title>
<ellipse fill="none" stroke="black" cx="638.01" cy="-90" rx="47.57" ry="18"/>
<text text-anchor="middle" x="638.01" y="-84.58" font-family="Times New Roman,serif" font-size="14.00">viewer_of</text>
</g>
<!-- user_is_actor_of&#45;&gt;viewer_of -->
<g id="edge1" class="edge">
<title>user_is_actor_of&#45;&gt;viewer_of</title>
<path fill="none" stroke="black" d="M572.39,-144.41C583.55,-135.33 597.56,-123.93 609.76,-114"/>
<polygon fill="black" stroke="black" points="611.94,-116.73 617.49,-107.7 607.52,-111.3 611.94,-116.73"/>
</g>
<!-- group_is_actor_of -->
<g id="node6" class="node">
<title>group_is_actor_of</title>
<ellipse fill="none" stroke="black" cx="725.01" cy="-162" rx="80.5" ry="18"/>
<text text-anchor="middle" x="725.01" y="-156.57" font-family="Times New Roman,serif" font-size="14.00">group_is_actor_of</text>
</g>
<!-- group_is_actor_of&#45;&gt;viewer_of -->
<g id="edge2" class="edge">
<title>group_is_actor_of&#45;&gt;viewer_of</title>
<path fill="none" stroke="black" d="M704.39,-144.41C692.99,-135.24 678.65,-123.7 666.23,-113.7"/>
<polygon fill="black" stroke="black" points="668.75,-111.24 658.76,-107.7 664.36,-116.69 668.75,-111.24"/>
</g>
<!-- push_user_to -->
<g id="node7" class="node">
<title>push_user_to</title>
<ellipse fill="none" stroke="black" cx="765.01" cy="-90" rx="61.54" ry="18"/>
<text text-anchor="middle" x="765.01" y="-84.58" font-family="Times New Roman,serif" font-size="14.00">push_user_to</text>
</g>
<!-- push -->
<g id="node8" class="node">
<title>push</title>
<ellipse fill="none" stroke="black" cx="913.01" cy="-18" rx="28.61" ry="18"/>
<text text-anchor="middle" x="913.01" y="-12.57" font-family="Times New Roman,serif" font-size="14.00">push</text>
</g>
<!-- push_user_to&#45;&gt;push -->
<g id="edge3" class="edge">
<title>push_user_to&#45;&gt;push</title>
<path fill="none" stroke="black" d="M796.4,-74.15C821.19,-62.43 855.68,-46.12 880.71,-34.28"/>
<polygon fill="black" stroke="black" points="881.89,-37.59 889.43,-30.15 878.9,-31.26 881.89,-37.59"/>
</g>
<!-- remove_user_from -->
<g id="node9" class="node">
<title>remove_user_from</title>
<ellipse fill="none" stroke="black" cx="1455.01" cy="-90" rx="81.5" ry="18"/>
<text text-anchor="middle" x="1455.01" y="-84.58" font-family="Times New Roman,serif" font-size="14.00">remove_user_from</text>
</g>
<!-- destroy -->
<g id="node10" class="node">
<title>destroy</title>
<ellipse fill="none" stroke="black" cx="1642.01" cy="-18" rx="38.59" ry="18"/>
<text text-anchor="middle" x="1642.01" y="-12.57" font-family="Times New Roman,serif" font-size="14.00">destroy</text>
</g>
<!-- remove_user_from&#45;&gt;destroy -->
<g id="edge4" class="edge">
<title>remove_user_from&#45;&gt;destroy</title>
<path fill="none" stroke="black" d="M1495.13,-73.98C1526.71,-62.16 1570.51,-45.76 1602.06,-33.96"/>
<polygon fill="black" stroke="black" points="1603.11,-37.3 1611.24,-30.52 1600.65,-30.74 1603.11,-37.3"/>
</g>
<!-- push_group_to -->
<g id="node11" class="node">
<title>push_group_to</title>
<ellipse fill="none" stroke="black" cx="913.01" cy="-90" rx="68.03" ry="18"/>
<text text-anchor="middle" x="913.01" y="-84.58" font-family="Times New Roman,serif" font-size="14.00">push_group_to</text>
</g>
<!-- push_group_to&#45;&gt;push -->
<g id="edge5" class="edge">
<title>push_group_to&#45;&gt;push</title>
<path fill="none" stroke="black" d="M913.01,-71.7C913.01,-64.41 913.01,-55.73 913.01,-47.54"/>
<polygon fill="black" stroke="black" points="916.51,-47.62 913.01,-37.62 909.51,-47.62 916.51,-47.62"/>
</g>
<!-- remove_group_from -->
<g id="node12" class="node">
<title>remove_group_from</title>
<ellipse fill="none" stroke="black" cx="1642.01" cy="-90" rx="87.99" ry="18"/>
<text text-anchor="middle" x="1642.01" y="-84.58" font-family="Times New Roman,serif" font-size="14.00">remove_group_from</text>
</g>
<!-- remove_group_from&#45;&gt;destroy -->
<g id="edge6" class="edge">
<title>remove_group_from&#45;&gt;destroy</title>
<path fill="none" stroke="black" d="M1642.01,-71.7C1642.01,-64.41 1642.01,-55.73 1642.01,-47.54"/>
<polygon fill="black" stroke="black" points="1645.51,-47.62 1642.01,-37.62 1638.51,-47.62 1645.51,-47.62"/>
</g>
<!-- push_role_to -->
<g id="node13" class="node">
<title>push_role_to</title>
<ellipse fill="none" stroke="black" cx="1059.01" cy="-90" rx="60.05" ry="18"/>
<text text-anchor="middle" x="1059.01" y="-84.58" font-family="Times New Roman,serif" font-size="14.00">push_role_to</text>
</g>
<!-- push_role_to&#45;&gt;push -->
<g id="edge7" class="edge">
<title>push_role_to&#45;&gt;push</title>
<path fill="none" stroke="black" d="M1028.05,-74.15C1003.84,-62.55 970.28,-46.46 945.65,-34.65"/>
<polygon fill="black" stroke="black" points="947.26,-31.54 936.73,-30.37 944.23,-37.85 947.26,-31.54"/>
</g>
<!-- remove_role_from -->
<g id="node14" class="node">
<title>remove_role_from</title>
<ellipse fill="none" stroke="black" cx="1828.01" cy="-90" rx="80.01" ry="18"/>
<text text-anchor="middle" x="1828.01" y="-84.58" font-family="Times New Roman,serif" font-size="14.00">remove_role_from</text>
</g>
<!-- remove_role_from&#45;&gt;destroy -->
<g id="edge8" class="edge">
<title>remove_role_from&#45;&gt;destroy</title>
<path fill="none" stroke="black" d="M1788.11,-73.98C1756.79,-62.2 1713.39,-45.86 1682.04,-34.06"/>
<polygon fill="black" stroke="black" points="1683.5,-30.87 1672.9,-30.63 1681.03,-37.43 1683.5,-30.87"/>
</g>
<!-- create_role -->
<g id="node15" class="node">
<title>create_role</title>
<ellipse fill="none" stroke="black" cx="1142.01" cy="-162" rx="51.56" ry="18"/>
<text text-anchor="middle" x="1142.01" y="-156.57" font-family="Times New Roman,serif" font-size="14.00">create_role</text>
</g>
<!-- create_role&#45;&gt;viewer_of -->
<g id="edge10" class="edge">
<title>create_role&#45;&gt;viewer_of</title>
<path fill="none" stroke="black" d="M1091.49,-157.95C1008.02,-152.25 836.41,-137.79 694.01,-108 690.69,-107.3 687.28,-106.5 683.86,-105.63"/>
<polygon fill="black" stroke="black" points="685.04,-102.32 674.47,-103.06 683.2,-109.08 685.04,-102.32"/>
</g>
<!-- create_role&#45;&gt;push_role_to -->
<g id="edge13" class="edge">
<title>create_role&#45;&gt;push_role_to</title>
<path fill="none" stroke="black" d="M1123.18,-145.12C1112.5,-136.12 1098.95,-124.68 1087.05,-114.65"/>
<polygon fill="black" stroke="black" points="1089.4,-112.05 1079.5,-108.28 1084.89,-117.41 1089.4,-112.05"/>
</g>
<!-- find -->
<g id="node16" class="node">
<title>find</title>
<ellipse fill="none" stroke="black" cx="1328.01" cy="-90" rx="27" ry="18"/>
<text text-anchor="middle" x="1328.01" y="-84.58" font-family="Times New Roman,serif" font-size="14.00">find</text>
</g>
<!-- create_role&#45;&gt;find -->
<g id="edge9" class="edge">
<title>create_role&#45;&gt;find</title>
<path fill="none" stroke="black" d="M1179.08,-149.07C1209.68,-138.94 1254.08,-123.61 1292.01,-108 1293.53,-107.38 1295.07,-106.72 1296.63,-106.05"/>
<polygon fill="black" stroke="black" points="1297.8,-109.36 1305.47,-102.05 1294.92,-102.98 1297.8,-109.36"/>
</g>
<!-- is_a -->
<g id="node17" class="node">
<title>is_a</title>
<ellipse fill="none" stroke="black" cx="1164.01" cy="-90" rx="27" ry="18"/>
<text text-anchor="middle" x="1164.01" y="-84.58" font-family="Times New Roman,serif" font-size="14.00">is_a</text>
</g>
<!-- create_role&#45;&gt;is_a -->
<g id="edge11" class="edge">
<title>create_role&#45;&gt;is_a</title>
<path fill="none" stroke="black" d="M1147.45,-143.7C1149.79,-136.24 1152.59,-127.32 1155.22,-118.97"/>
<polygon fill="black" stroke="black" points="1158.52,-120.14 1158.18,-109.55 1151.84,-118.04 1158.52,-120.14"/>
</g>
<!-- include -->
<g id="node18" class="node">
<title>include</title>
<ellipse fill="none" stroke="black" cx="1246.01" cy="-90" rx="37.09" ry="18"/>
<text text-anchor="middle" x="1246.01" y="-84.58" font-family="Times New Roman,serif" font-size="14.00">include</text>
</g>
<!-- create_role&#45;&gt;include -->
<g id="edge12" class="edge">
<title>create_role&#45;&gt;include</title>
<path fill="none" stroke="black" d="M1165.09,-145.46C1179.96,-135.46 1199.45,-122.34 1215.58,-111.48"/>
<polygon fill="black" stroke="black" points="1217.52,-114.4 1223.86,-105.91 1213.61,-108.59 1217.52,-114.4"/>
</g>
<!-- destroy_role -->
<g id="node19" class="node">
<title>destroy_role</title>
<ellipse fill="none" stroke="black" cx="1269.01" cy="-162" rx="57.55" ry="18"/>
<text text-anchor="middle" x="1269.01" y="-156.57" font-family="Times New Roman,serif" font-size="14.00">destroy_role</text>
</g>
<!-- destroy_role&#45;&gt;viewer_of -->
<g id="edge15" class="edge">
<title>destroy_role&#45;&gt;viewer_of</title>
<path fill="none" stroke="black" d="M1227.71,-149.14C1219.58,-147.15 1211.07,-145.31 1203.01,-144 979.17,-107.57 917.02,-149.2 694.01,-108 690.46,-107.34 686.82,-106.54 683.18,-105.65"/>
<polygon fill="black" stroke="black" points="684.39,-102.35 673.82,-103.14 682.58,-109.11 684.39,-102.35"/>
</g>
<!-- destroy_role&#45;&gt;remove_role_from -->
<g id="edge18" class="edge">
<title>destroy_role&#45;&gt;remove_role_from</title>
<path fill="none" stroke="black" d="M1323.82,-156.19C1411.7,-148.17 1589.42,-130.69 1739.01,-108 1745.49,-107.02 1752.21,-105.91 1758.93,-104.73"/>
<polygon fill="black" stroke="black" points="1759.48,-108.19 1768.7,-102.98 1758.24,-101.3 1759.48,-108.19"/>
</g>
<!-- destroy_role&#45;&gt;find -->
<g id="edge14" class="edge">
<title>destroy_role&#45;&gt;find</title>
<path fill="none" stroke="black" d="M1282.99,-144.41C1290.51,-135.5 1299.9,-124.35 1308.16,-114.56"/>
<polygon fill="black" stroke="black" points="1310.59,-117.1 1314.36,-107.2 1305.24,-112.59 1310.59,-117.1"/>
</g>
<!-- destroy_role&#45;&gt;is_a -->
<g id="edge16" class="edge">
<title>destroy_role&#45;&gt;is_a</title>
<path fill="none" stroke="black" d="M1245.45,-145.29C1229.57,-134.71 1208.57,-120.71 1191.87,-109.58"/>
<polygon fill="black" stroke="black" points="1194.13,-106.87 1183.87,-104.24 1190.25,-112.7 1194.13,-106.87"/>
</g>
<!-- destroy_role&#45;&gt;include -->
<g id="edge17" class="edge">
<title>destroy_role&#45;&gt;include</title>
<path fill="none" stroke="black" d="M1263.32,-143.7C1260.87,-136.24 1257.94,-127.32 1255.2,-118.97"/>
<polygon fill="black" stroke="black" points="1258.55,-117.95 1252.1,-109.54 1251.9,-120.14 1258.55,-117.95"/>
</g>
<!-- wording -->
<g id="node20" class="node">
<title>wording</title>
<ellipse fill="none" stroke="black" cx="1953.01" cy="-162" rx="41.08" ry="18"/>
<text text-anchor="middle" x="1953.01" y="-156.57" font-family="Times New Roman,serif" font-size="14.00">wording</text>
</g>
<!-- t -->
<g id="node21" class="node">
<title>t</title>
<ellipse fill="none" stroke="black" cx="1953.01" cy="-90" rx="27" ry="18"/>
<text text-anchor="middle" x="1953.01" y="-84.58" font-family="Times New Roman,serif" font-size="14.00">t</text>
</g>
<!-- wording&#45;&gt;t -->
<g id="edge19" class="edge">
<title>wording&#45;&gt;t</title>
<path fill="none" stroke="black" d="M1953.01,-143.7C1953.01,-136.41 1953.01,-127.73 1953.01,-119.54"/>
<polygon fill="black" stroke="black" points="1956.51,-119.62 1953.01,-109.62 1949.51,-119.62 1956.51,-119.62"/>
</g>
</g>
</svg>
